<?xml version="1.0" encoding="utf-8" standalone="no"?>
<!DOCTYPE svg PUBLIC "-//W3C//DTD SVG 1.1//EN"
  "http://www.w3.org/Graphics/SVG/1.1/DTD/svg11.dtd">
<svg xmlns:xlink="http://www.w3.org/1999/xlink" width="627.482691pt" height="289.463781pt" viewBox="0 0 627.482691 289.463781" xmlns="http://www.w3.org/2000/svg" version="1.1">
 <metadata>
  <rdf:RDF xmlns:dc="http://purl.org/dc/elements/1.1/" xmlns:cc="http://creativecommons.org/ns#" xmlns:rdf="http://www.w3.org/1999/02/22-rdf-syntax-ns#">
   <cc:Work>
    <dc:type rdf:resource="http://purl.org/dc/dcmitype/StillImage"/>
    <dc:date>2026-01-20T21:05:31.432427</dc:date>
    <dc:format>image/svg+xml</dc:format>
    <dc:creator>
     <cc:Agent>
      <dc:title>Matplotlib v3.7.2, https://matplotlib.org/</dc:title>
     </cc:Agent>
    </dc:creator>
   </cc:Work>
  </rdf:RDF>
 </metadata>
 <defs>
  <style type="text/css">*{stroke-linejoin: round; stroke-linecap: butt}</style>
 </defs>
 <g id="figure_1">
  <g id="patch_1">
   <path d="M -0 289.463781 
L 627.482691 289.463781 
L 627.482691 0 
L -0 0 
z
" style="fill: #ffffff"/>
  </g>
  <g id="axes_1">
   <g id="text_1">
    <g id="patch_2">
     <path d="M 427.403941 221.107812 
L 623.162691 221.107812 
Q 628.662691 221.107812 628.662691 215.607812 
L 628.662691 20.197969 
Q 628.662691 14.697969 623.162691 14.697969 
L 427.403941 14.697969 
Q 421.903941 14.697969 421.903941 20.197969 
L 421.903941 215.607812 
Q 421.903941 221.107812 427.403941 221.107812 
z
" style="fill: #ffffff; opacity: 0.95; stroke: #b2b2b2; stroke-linejoin: miter"/>
    </g>
    <!-- Target: O3 -->
    <g transform="translate(427.403941 28.55625) scale(0.11 -0.11)">
     <defs>
      <path id="DejaVuSans-54" d="M -19 4666 
L 3928 4666 
L 3928 4134 
L 2272 4134 
L 2272 0 
L 1638 0 
L 1638 4134 
L -19 4134 
L -19 4666 
z
" transform="scale(0.015625)"/>
      <path id="DejaVuSans-61" d="M 2194 1759 
Q 1497 1759 1228 1600 
Q 959 1441 959 1056 
Q 959 750 1161 570 
Q 1363 391 1709 391 
Q 2188 391 2477 730 
Q 2766 1069 2766 1631 
L 2766 1759 
L 2194 1759 
z
M 3341 1997 
L 3341 0 
L 2766 0 
L 2766 531 
Q 2569 213 2275 61 
Q 1981 -91 1556 -91 
Q 1019 -91 701 211 
Q 384 513 384 1019 
Q 384 1609 779 1909 
Q 1175 2209 1959 2209 
L 2766 2209 
L 2766 2266 
Q 2766 2663 2505 2880 
Q 2244 3097 1772 3097 
Q 1472 3097 1187 3025 
Q 903 2953 641 2809 
L 641 3341 
Q 956 3463 1253 3523 
Q 1550 3584 1831 3584 
Q 2591 3584 2966 3190 
Q 3341 2797 3341 1997 
z
" transform="scale(0.015625)"/>
      <path id="DejaVuSans-72" d="M 2631 2963 
Q 2534 3019 2420 3045 
Q 2306 3072 2169 3072 
Q 1681 3072 1420 2755 
Q 1159 2438 1159 1844 
L 1159 0 
L 581 0 
L 581 3500 
L 1159 3500 
L 1159 2956 
Q 1341 3275 1631 3429 
Q 1922 3584 2338 3584 
Q 2397 3584 2469 3576 
Q 2541 3569 2628 3553 
L 2631 2963 
z
" transform="scale(0.015625)"/>
      <path id="DejaVuSans-67" d="M 2906 1791 
Q 2906 2416 2648 2759 
Q 2391 3103 1925 3103 
Q 1463 3103 1205 2759 
Q 947 2416 947 1791 
Q 947 1169 1205 825 
Q 1463 481 1925 481 
Q 2391 481 2648 825 
Q 2906 1169 2906 1791 
z
M 3481 434 
Q 3481 -459 3084 -895 
Q 2688 -1331 1869 -1331 
Q 1566 -1331 1297 -1286 
Q 1028 -1241 775 -1147 
L 775 -588 
Q 1028 -725 1275 -790 
Q 1522 -856 1778 -856 
Q 2344 -856 2625 -561 
Q 2906 -266 2906 331 
L 2906 616 
Q 2728 306 2450 153 
Q 2172 0 1784 0 
Q 1141 0 747 490 
Q 353 981 353 1791 
Q 353 2603 747 3093 
Q 1141 3584 1784 3584 
Q 2172 3584 2450 3431 
Q 2728 3278 2906 2969 
L 2906 3500 
L 3481 3500 
L 3481 434 
z
" transform="scale(0.015625)"/>
      <path id="DejaVuSans-65" d="M 3597 1894 
L 3597 1613 
L 953 1613 
Q 991 1019 1311 708 
Q 1631 397 2203 397 
Q 2534 397 2845 478 
Q 3156 559 3463 722 
L 3463 178 
Q 3153 47 2828 -22 
Q 2503 -91 2169 -91 
Q 1331 -91 842 396 
Q 353 884 353 1716 
Q 353 2575 817 3079 
Q 1281 3584 2069 3584 
Q 2775 3584 3186 3129 
Q 3597 2675 3597 1894 
z
M 3022 2063 
Q 3016 2534 2758 2815 
Q 2500 3097 2075 3097 
Q 1594 3097 1305 2825 
Q 1016 2553 972 2059 
L 3022 2063 
z
" transform="scale(0.015625)"/>
      <path id="DejaVuSans-74" d="M 1172 4494 
L 1172 3500 
L 2356 3500 
L 2356 3053 
L 1172 3053 
L 1172 1153 
Q 1172 725 1289 603 
Q 1406 481 1766 481 
L 2356 481 
L 2356 0 
L 1766 0 
Q 1100 0 847 248 
Q 594 497 594 1153 
L 594 3053 
L 172 3053 
L 172 3500 
L 594 3500 
L 594 4494 
L 1172 4494 
z
" transform="scale(0.015625)"/>
      <path id="DejaVuSans-3a" d="M 750 794 
L 1409 794 
L 1409 0 
L 750 0 
L 750 794 
z
M 750 3309 
L 1409 3309 
L 1409 2516 
L 750 2516 
L 750 3309 
z
" transform="scale(0.015625)"/>
      <path id="DejaVuSans-20" transform="scale(0.015625)"/>
      <path id="DejaVuSans-4f" d="M 2522 4238 
Q 1834 4238 1429 3725 
Q 1025 3213 1025 2328 
Q 1025 1447 1429 934 
Q 1834 422 2522 422 
Q 3209 422 3611 934 
Q 4013 1447 4013 2328 
Q 4013 3213 3611 3725 
Q 3209 4238 2522 4238 
z
M 2522 4750 
Q 3503 4750 4090 4092 
Q 4678 3434 4678 2328 
Q 4678 1225 4090 567 
Q 3503 -91 2522 -91 
Q 1538 -91 948 565 
Q 359 1222 359 2328 
Q 359 3434 948 4092 
Q 1538 4750 2522 4750 
z
" transform="scale(0.015625)"/>
      <path id="DejaVuSans-33" d="M 2597 2516 
Q 3050 2419 3304 2112 
Q 3559 1806 3559 1356 
Q 3559 666 3084 287 
Q 2609 -91 1734 -91 
Q 1441 -91 1130 -33 
Q 819 25 488 141 
L 488 750 
Q 750 597 1062 519 
Q 1375 441 1716 441 
Q 2309 441 2620 675 
Q 2931 909 2931 1356 
Q 2931 1769 2642 2001 
Q 2353 2234 1838 2234 
L 1294 2234 
L 1294 2753 
L 1863 2753 
Q 2328 2753 2575 2939 
Q 2822 3125 2822 3475 
Q 2822 3834 2567 4026 
Q 2313 4219 1838 4219 
Q 1578 4219 1281 4162 
Q 984 4106 628 3988 
L 628 4550 
Q 988 4650 1302 4700 
Q 1616 4750 1894 4750 
Q 2613 4750 3031 4423 
Q 3450 4097 3450 3541 
Q 3450 3153 3228 2886 
Q 3006 2619 2597 2516 
z
" transform="scale(0.015625)"/>
     </defs>
     <use xlink:href="#DejaVuSans-54"/>
     <use xlink:href="#DejaVuSans-61" x="44.583984"/>
     <use xlink:href="#DejaVuSans-72" x="105.863281"/>
     <use xlink:href="#DejaVuSans-67" x="145.226562"/>
     <use xlink:href="#DejaVuSans-65" x="208.703125"/>
     <use xlink:href="#DejaVuSans-74" x="270.226562"/>
     <use xlink:href="#DejaVuSans-3a" x="309.435547"/>
     <use xlink:href="#DejaVuSans-20" x="343.126953"/>
     <use xlink:href="#DejaVuSans-4f" x="374.914062"/>
     <use xlink:href="#DejaVuSans-33" x="453.625"/>
    </g>
    <!-- Method: residual -->
    <g transform="translate(427.403941 40.873844) scale(0.11 -0.11)">
     <defs>
      <path id="DejaVuSans-4d" d="M 628 4666 
L 1569 4666 
L 2759 1491 
L 3956 4666 
L 4897 4666 
L 4897 0 
L 4281 0 
L 4281 4097 
L 3078 897 
L 2444 897 
L 1241 4097 
L 1241 0 
L 628 0 
L 628 4666 
z
" transform="scale(0.015625)"/>
      <path id="DejaVuSans-68" d="M 3513 2113 
L 3513 0 
L 2938 0 
L 2938 2094 
Q 2938 2591 2744 2837 
Q 2550 3084 2163 3084 
Q 1697 3084 1428 2787 
Q 1159 2491 1159 1978 
L 1159 0 
L 581 0 
L 581 4863 
L 1159 4863 
L 1159 2956 
Q 1366 3272 1645 3428 
Q 1925 3584 2291 3584 
Q 2894 3584 3203 3211 
Q 3513 2838 3513 2113 
z
" transform="scale(0.015625)"/>
      <path id="DejaVuSans-6f" d="M 1959 3097 
Q 1497 3097 1228 2736 
Q 959 2375 959 1747 
Q 959 1119 1226 758 
Q 1494 397 1959 397 
Q 2419 397 2687 759 
Q 2956 1122 2956 1747 
Q 2956 2369 2687 2733 
Q 2419 3097 1959 3097 
z
M 1959 3584 
Q 2709 3584 3137 3096 
Q 3566 2609 3566 1747 
Q 3566 888 3137 398 
Q 2709 -91 1959 -91 
Q 1206 -91 779 398 
Q 353 888 353 1747 
Q 353 2609 779 3096 
Q 1206 3584 1959 3584 
z
" transform="scale(0.015625)"/>
      <path id="DejaVuSans-64" d="M 2906 2969 
L 2906 4863 
L 3481 4863 
L 3481 0 
L 2906 0 
L 2906 525 
Q 2725 213 2448 61 
Q 2172 -91 1784 -91 
Q 1150 -91 751 415 
Q 353 922 353 1747 
Q 353 2572 751 3078 
Q 1150 3584 1784 3584 
Q 2172 3584 2448 3432 
Q 2725 3281 2906 2969 
z
M 947 1747 
Q 947 1113 1208 752 
Q 1469 391 1925 391 
Q 2381 391 2643 752 
Q 2906 1113 2906 1747 
Q 2906 2381 2643 2742 
Q 2381 3103 1925 3103 
Q 1469 3103 1208 2742 
Q 947 2381 947 1747 
z
" transform="scale(0.015625)"/>
      <path id="DejaVuSans-73" d="M 2834 3397 
L 2834 2853 
Q 2591 2978 2328 3040 
Q 2066 3103 1784 3103 
Q 1356 3103 1142 2972 
Q 928 2841 928 2578 
Q 928 2378 1081 2264 
Q 1234 2150 1697 2047 
L 1894 2003 
Q 2506 1872 2764 1633 
Q 3022 1394 3022 966 
Q 3022 478 2636 193 
Q 2250 -91 1575 -91 
Q 1294 -91 989 -36 
Q 684 19 347 128 
L 347 722 
Q 666 556 975 473 
Q 1284 391 1588 391 
Q 1994 391 2212 530 
Q 2431 669 2431 922 
Q 2431 1156 2273 1281 
Q 2116 1406 1581 1522 
L 1381 1569 
Q 847 1681 609 1914 
Q 372 2147 372 2553 
Q 372 3047 722 3315 
Q 1072 3584 1716 3584 
Q 2034 3584 2315 3537 
Q 2597 3491 2834 3397 
z
" transform="scale(0.015625)"/>
      <path id="DejaVuSans-69" d="M 603 3500 
L 1178 3500 
L 1178 0 
L 603 0 
L 603 3500 
z
M 603 4863 
L 1178 4863 
L 1178 4134 
L 603 4134 
L 603 4863 
z
" transform="scale(0.015625)"/>
      <path id="DejaVuSans-75" d="M 544 1381 
L 544 3500 
L 1119 3500 
L 1119 1403 
Q 1119 906 1312 657 
Q 1506 409 1894 409 
Q 2359 409 2629 706 
Q 2900 1003 2900 1516 
L 2900 3500 
L 3475 3500 
L 3475 0 
L 2900 0 
L 2900 538 
Q 2691 219 2414 64 
Q 2138 -91 1772 -91 
Q 1169 -91 856 284 
Q 544 659 544 1381 
z
M 1991 3584 
L 1991 3584 
z
" transform="scale(0.015625)"/>
      <path id="DejaVuSans-6c" d="M 603 4863 
L 1178 4863 
L 1178 0 
L 603 0 
L 603 4863 
z
" transform="scale(0.015625)"/>
     </defs>
     <use xlink:href="#DejaVuSans-4d"/>
     <use xlink:href="#DejaVuSans-65" x="86.279297"/>
     <use xlink:href="#DejaVuSans-74" x="147.802734"/>
     <use xlink:href="#DejaVuSans-68" x="187.011719"/>
     <use xlink:href="#DejaVuSans-6f" x="250.390625"/>
     <use xlink:href="#DejaVuSans-64" x="311.572266"/>
     <use xlink:href="#DejaVuSans-3a" x="375.048828"/>
     <use xlink:href="#DejaVuSans-20" x="408.740234"/>
     <use xlink:href="#DejaVuSans-72" x="440.527344"/>
     <use xlink:href="#DejaVuSans-65" x="479.390625"/>
     <use xlink:href="#DejaVuSans-73" x="540.914062"/>
     <use xlink:href="#DejaVuSans-69" x="593.013672"/>
     <use xlink:href="#DejaVuSans-64" x="620.796875"/>
     <use xlink:href="#DejaVuSans-75" x="684.273438"/>
     <use xlink:href="#DejaVuSans-61" x="747.652344"/>
     <use xlink:href="#DejaVuSans-6c" x="808.931641"/>
    </g>
    <!-- Best: RF (fallback-&gt;raw) -->
    <g transform="translate(427.403941 53.191437) scale(0.11 -0.11)">
     <defs>
      <path id="DejaVuSans-42" d="M 1259 2228 
L 1259 519 
L 2272 519 
Q 2781 519 3026 730 
Q 3272 941 3272 1375 
Q 3272 1813 3026 2020 
Q 2781 2228 2272 2228 
L 1259 2228 
z
M 1259 4147 
L 1259 2741 
L 2194 2741 
Q 2656 2741 2882 2914 
Q 3109 3088 3109 3444 
Q 3109 3797 2882 3972 
Q 2656 4147 2194 4147 
L 1259 4147 
z
M 628 4666 
L 2241 4666 
Q 2963 4666 3353 4366 
Q 3744 4066 3744 3513 
Q 3744 3084 3544 2831 
Q 3344 2578 2956 2516 
Q 3422 2416 3680 2098 
Q 3938 1781 3938 1306 
Q 3938 681 3513 340 
Q 3088 0 2303 0 
L 628 0 
L 628 4666 
z
" transform="scale(0.015625)"/>
      <path id="DejaVuSans-52" d="M 2841 2188 
Q 3044 2119 3236 1894 
Q 3428 1669 3622 1275 
L 4263 0 
L 3584 0 
L 2988 1197 
Q 2756 1666 2539 1819 
Q 2322 1972 1947 1972 
L 1259 1972 
L 1259 0 
L 628 0 
L 628 4666 
L 2053 4666 
Q 2853 4666 3247 4331 
Q 3641 3997 3641 3322 
Q 3641 2881 3436 2590 
Q 3231 2300 2841 2188 
z
M 1259 4147 
L 1259 2491 
L 2053 2491 
Q 2509 2491 2742 2702 
Q 2975 2913 2975 3322 
Q 2975 3731 2742 3939 
Q 2509 4147 2053 4147 
L 1259 4147 
z
" transform="scale(0.015625)"/>
      <path id="DejaVuSans-46" d="M 628 4666 
L 3309 4666 
L 3309 4134 
L 1259 4134 
L 1259 2759 
L 3109 2759 
L 3109 2228 
L 1259 2228 
L 1259 0 
L 628 0 
L 628 4666 
z
" transform="scale(0.015625)"/>
      <path id="DejaVuSans-28" d="M 1984 4856 
Q 1566 4138 1362 3434 
Q 1159 2731 1159 2009 
Q 1159 1288 1364 580 
Q 1569 -128 1984 -844 
L 1484 -844 
Q 1016 -109 783 600 
Q 550 1309 550 2009 
Q 550 2706 781 3412 
Q 1013 4119 1484 4856 
L 1984 4856 
z
" transform="scale(0.015625)"/>
      <path id="DejaVuSans-66" d="M 2375 4863 
L 2375 4384 
L 1825 4384 
Q 1516 4384 1395 4259 
Q 1275 4134 1275 3809 
L 1275 3500 
L 2222 3500 
L 2222 3053 
L 1275 3053 
L 1275 0 
L 697 0 
L 697 3053 
L 147 3053 
L 147 3500 
L 697 3500 
L 697 3744 
Q 697 4328 969 4595 
Q 1241 4863 1831 4863 
L 2375 4863 
z
" transform="scale(0.015625)"/>
      <path id="DejaVuSans-62" d="M 3116 1747 
Q 3116 2381 2855 2742 
Q 2594 3103 2138 3103 
Q 1681 3103 1420 2742 
Q 1159 2381 1159 1747 
Q 1159 1113 1420 752 
Q 1681 391 2138 391 
Q 2594 391 2855 752 
Q 3116 1113 3116 1747 
z
M 1159 2969 
Q 1341 3281 1617 3432 
Q 1894 3584 2278 3584 
Q 2916 3584 3314 3078 
Q 3713 2572 3713 1747 
Q 3713 922 3314 415 
Q 2916 -91 2278 -91 
Q 1894 -91 1617 61 
Q 1341 213 1159 525 
L 1159 0 
L 581 0 
L 581 4863 
L 1159 4863 
L 1159 2969 
z
" transform="scale(0.015625)"/>
      <path id="DejaVuSans-63" d="M 3122 3366 
L 3122 2828 
Q 2878 2963 2633 3030 
Q 2388 3097 2138 3097 
Q 1578 3097 1268 2742 
Q 959 2388 959 1747 
Q 959 1106 1268 751 
Q 1578 397 2138 397 
Q 2388 397 2633 464 
Q 2878 531 3122 666 
L 3122 134 
Q 2881 22 2623 -34 
Q 2366 -91 2075 -91 
Q 1284 -91 818 406 
Q 353 903 353 1747 
Q 353 2603 823 3093 
Q 1294 3584 2113 3584 
Q 2378 3584 2631 3529 
Q 2884 3475 3122 3366 
z
" transform="scale(0.015625)"/>
      <path id="DejaVuSans-6b" d="M 581 4863 
L 1159 4863 
L 1159 1991 
L 2875 3500 
L 3609 3500 
L 1753 1863 
L 3688 0 
L 2938 0 
L 1159 1709 
L 1159 0 
L 581 0 
L 581 4863 
z
" transform="scale(0.015625)"/>
      <path id="DejaVuSans-2d" d="M 313 2009 
L 1997 2009 
L 1997 1497 
L 313 1497 
L 313 2009 
z
" transform="scale(0.015625)"/>
      <path id="DejaVuSans-3e" d="M 678 3150 
L 678 3719 
L 4684 2266 
L 4684 1747 
L 678 294 
L 678 863 
L 3897 2003 
L 678 3150 
z
" transform="scale(0.015625)"/>
      <path id="DejaVuSans-77" d="M 269 3500 
L 844 3500 
L 1563 769 
L 2278 3500 
L 2956 3500 
L 3675 769 
L 4391 3500 
L 4966 3500 
L 4050 0 
L 3372 0 
L 2619 2869 
L 1863 0 
L 1184 0 
L 269 3500 
z
" transform="scale(0.015625)"/>
      <path id="DejaVuSans-29" d="M 513 4856 
L 1013 4856 
Q 1481 4119 1714 3412 
Q 1947 2706 1947 2009 
Q 1947 1309 1714 600 
Q 1481 -109 1013 -844 
L 513 -844 
Q 928 -128 1133 580 
Q 1338 1288 1338 2009 
Q 1338 2731 1133 3434 
Q 928 4138 513 4856 
z
" transform="scale(0.015625)"/>
     </defs>
     <use xlink:href="#DejaVuSans-42"/>
     <use xlink:href="#DejaVuSans-65" x="68.603516"/>
     <use xlink:href="#DejaVuSans-73" x="130.126953"/>
     <use xlink:href="#DejaVuSans-74" x="182.226562"/>
     <use xlink:href="#DejaVuSans-3a" x="221.435547"/>
     <use xlink:href="#DejaVuSans-20" x="255.126953"/>
     <use xlink:href="#DejaVuSans-52" x="286.914062"/>
     <use xlink:href="#DejaVuSans-46" x="356.396484"/>
     <use xlink:href="#DejaVuSans-20" x="413.916016"/>
     <use xlink:href="#DejaVuSans-28" x="445.703125"/>
     <use xlink:href="#DejaVuSans-66" x="484.716797"/>
     <use xlink:href="#DejaVuSans-61" x="519.921875"/>
     <use xlink:href="#DejaVuSans-6c" x="581.201172"/>
     <use xlink:href="#DejaVuSans-6c" x="608.984375"/>
     <use xlink:href="#DejaVuSans-62" x="636.767578"/>
     <use xlink:href="#DejaVuSans-61" x="700.244141"/>
     <use xlink:href="#DejaVuSans-63" x="761.523438"/>
     <use xlink:href="#DejaVuSans-6b" x="816.503906"/>
     <use xlink:href="#DejaVuSans-2d" x="874.414062"/>
     <use xlink:href="#DejaVuSans-3e" x="910.498047"/>
     <use xlink:href="#DejaVuSans-72" x="994.287109"/>
     <use xlink:href="#DejaVuSans-61" x="1035.400391"/>
     <use xlink:href="#DejaVuSans-77" x="1096.679688"/>
     <use xlink:href="#DejaVuSans-29" x="1178.466797"/>
    </g>
    <!-- N(train): 2266 -->
    <g transform="translate(427.403941 65.509031) scale(0.11 -0.11)">
     <defs>
      <path id="DejaVuSans-4e" d="M 628 4666 
L 1478 4666 
L 3547 763 
L 3547 4666 
L 4159 4666 
L 4159 0 
L 3309 0 
L 1241 3903 
L 1241 0 
L 628 0 
L 628 4666 
z
" transform="scale(0.015625)"/>
      <path id="DejaVuSans-6e" d="M 3513 2113 
L 3513 0 
L 2938 0 
L 2938 2094 
Q 2938 2591 2744 2837 
Q 2550 3084 2163 3084 
Q 1697 3084 1428 2787 
Q 1159 2491 1159 1978 
L 1159 0 
L 581 0 
L 581 3500 
L 1159 3500 
L 1159 2956 
Q 1366 3272 1645 3428 
Q 1925 3584 2291 3584 
Q 2894 3584 3203 3211 
Q 3513 2838 3513 2113 
z
" transform="scale(0.015625)"/>
      <path id="DejaVuSans-32" d="M 1228 531 
L 3431 531 
L 3431 0 
L 469 0 
L 469 531 
Q 828 903 1448 1529 
Q 2069 2156 2228 2338 
Q 2531 2678 2651 2914 
Q 2772 3150 2772 3378 
Q 2772 3750 2511 3984 
Q 2250 4219 1831 4219 
Q 1534 4219 1204 4116 
Q 875 4013 500 3803 
L 500 4441 
Q 881 4594 1212 4672 
Q 1544 4750 1819 4750 
Q 2544 4750 2975 4387 
Q 3406 4025 3406 3419 
Q 3406 3131 3298 2873 
Q 3191 2616 2906 2266 
Q 2828 2175 2409 1742 
Q 1991 1309 1228 531 
z
" transform="scale(0.015625)"/>
      <path id="DejaVuSans-36" d="M 2113 2584 
Q 1688 2584 1439 2293 
Q 1191 2003 1191 1497 
Q 1191 994 1439 701 
Q 1688 409 2113 409 
Q 2538 409 2786 701 
Q 3034 994 3034 1497 
Q 3034 2003 2786 2293 
Q 2538 2584 2113 2584 
z
M 3366 4563 
L 3366 3988 
Q 3128 4100 2886 4159 
Q 2644 4219 2406 4219 
Q 1781 4219 1451 3797 
Q 1122 3375 1075 2522 
Q 1259 2794 1537 2939 
Q 1816 3084 2150 3084 
Q 2853 3084 3261 2657 
Q 3669 2231 3669 1497 
Q 3669 778 3244 343 
Q 2819 -91 2113 -91 
Q 1303 -91 875 529 
Q 447 1150 447 2328 
Q 447 3434 972 4092 
Q 1497 4750 2381 4750 
Q 2619 4750 2861 4703 
Q 3103 4656 3366 4563 
z
" transform="scale(0.015625)"/>
     </defs>
     <use xlink:href="#DejaVuSans-4e"/>
     <use xlink:href="#DejaVuSans-28" x="74.804688"/>
     <use xlink:href="#DejaVuSans-74" x="113.818359"/>
     <use xlink:href="#DejaVuSans-72" x="153.027344"/>
     <use xlink:href="#DejaVuSans-61" x="194.140625"/>
     <use xlink:href="#DejaVuSans-69" x="255.419922"/>
     <use xlink:href="#DejaVuSans-6e" x="283.203125"/>
     <use xlink:href="#DejaVuSans-29" x="346.582031"/>
     <use xlink:href="#DejaVuSans-3a" x="385.595703"/>
     <use xlink:href="#DejaVuSans-20" x="419.287109"/>
     <use xlink:href="#DejaVuSans-32" x="451.074219"/>
     <use xlink:href="#DejaVuSans-32" x="514.697266"/>
     <use xlink:href="#DejaVuSans-36" x="578.320312"/>
     <use xlink:href="#DejaVuSans-36" x="641.943359"/>
    </g>
    <!-- N(test):  567 -->
    <g transform="translate(427.403941 77.826625) scale(0.11 -0.11)">
     <defs>
      <path id="DejaVuSans-35" d="M 691 4666 
L 3169 4666 
L 3169 4134 
L 1269 4134 
L 1269 2991 
Q 1406 3038 1543 3061 
Q 1681 3084 1819 3084 
Q 2600 3084 3056 2656 
Q 3513 2228 3513 1497 
Q 3513 744 3044 326 
Q 2575 -91 1722 -91 
Q 1428 -91 1123 -41 
Q 819 9 494 109 
L 494 744 
Q 775 591 1075 516 
Q 1375 441 1709 441 
Q 2250 441 2565 725 
Q 2881 1009 2881 1497 
Q 2881 1984 2565 2268 
Q 2250 2553 1709 2553 
Q 1456 2553 1204 2497 
Q 953 2441 691 2322 
L 691 4666 
z
" transform="scale(0.015625)"/>
      <path id="DejaVuSans-37" d="M 525 4666 
L 3525 4666 
L 3525 4397 
L 1831 0 
L 1172 0 
L 2766 4134 
L 525 4134 
L 525 4666 
z
" transform="scale(0.015625)"/>
     </defs>
     <use xlink:href="#DejaVuSans-4e"/>
     <use xlink:href="#DejaVuSans-28" x="74.804688"/>
     <use xlink:href="#DejaVuSans-74" x="113.818359"/>
     <use xlink:href="#DejaVuSans-65" x="153.027344"/>
     <use xlink:href="#DejaVuSans-73" x="214.550781"/>
     <use xlink:href="#DejaVuSans-74" x="266.650391"/>
     <use xlink:href="#DejaVuSans-29" x="305.859375"/>
     <use xlink:href="#DejaVuSans-3a" x="344.873047"/>
     <use xlink:href="#DejaVuSans-20" x="378.564453"/>
     <use xlink:href="#DejaVuSans-20" x="410.351562"/>
     <use xlink:href="#DejaVuSans-35" x="442.138672"/>
     <use xlink:href="#DejaVuSans-36" x="505.761719"/>
     <use xlink:href="#DejaVuSans-37" x="569.384766"/>
    </g>
    <!-- Fallback used: True -->
    <g transform="translate(427.403941 90.144219) scale(0.11 -0.11)">
     <use xlink:href="#DejaVuSans-46"/>
     <use xlink:href="#DejaVuSans-61" x="48.394531"/>
     <use xlink:href="#DejaVuSans-6c" x="109.673828"/>
     <use xlink:href="#DejaVuSans-6c" x="137.457031"/>
     <use xlink:href="#DejaVuSans-62" x="165.240234"/>
     <use xlink:href="#DejaVuSans-61" x="228.716797"/>
     <use xlink:href="#DejaVuSans-63" x="289.996094"/>
     <use xlink:href="#DejaVuSans-6b" x="344.976562"/>
     <use xlink:href="#DejaVuSans-20" x="402.886719"/>
     <use xlink:href="#DejaVuSans-75" x="434.673828"/>
     <use xlink:href="#DejaVuSans-73" x="498.052734"/>
     <use xlink:href="#DejaVuSans-65" x="550.152344"/>
     <use xlink:href="#DejaVuSans-64" x="611.675781"/>
     <use xlink:href="#DejaVuSans-3a" x="675.152344"/>
     <use xlink:href="#DejaVuSans-20" x="708.84375"/>
     <use xlink:href="#DejaVuSans-54" x="740.630859"/>
     <use xlink:href="#DejaVuSans-72" x="786.964844"/>
     <use xlink:href="#DejaVuSans-75" x="828.078125"/>
     <use xlink:href="#DejaVuSans-65" x="891.457031"/>
    </g>
    <!-- Post-hoc: False (a=1.000, b=0.000) -->
    <g transform="translate(427.403941 102.461812) scale(0.11 -0.11)">
     <defs>
      <path id="DejaVuSans-50" d="M 1259 4147 
L 1259 2394 
L 2053 2394 
Q 2494 2394 2734 2622 
Q 2975 2850 2975 3272 
Q 2975 3691 2734 3919 
Q 2494 4147 2053 4147 
L 1259 4147 
z
M 628 4666 
L 2053 4666 
Q 2838 4666 3239 4311 
Q 3641 3956 3641 3272 
Q 3641 2581 3239 2228 
Q 2838 1875 2053 1875 
L 1259 1875 
L 1259 0 
L 628 0 
L 628 4666 
z
" transform="scale(0.015625)"/>
      <path id="DejaVuSans-3d" d="M 678 2906 
L 4684 2906 
L 4684 2381 
L 678 2381 
L 678 2906 
z
M 678 1631 
L 4684 1631 
L 4684 1100 
L 678 1100 
L 678 1631 
z
" transform="scale(0.015625)"/>
      <path id="DejaVuSans-31" d="M 794 531 
L 1825 531 
L 1825 4091 
L 703 3866 
L 703 4441 
L 1819 4666 
L 2450 4666 
L 2450 531 
L 3481 531 
L 3481 0 
L 794 0 
L 794 531 
z
" transform="scale(0.015625)"/>
      <path id="DejaVuSans-2e" d="M 684 794 
L 1344 794 
L 1344 0 
L 684 0 
L 684 794 
z
" transform="scale(0.015625)"/>
      <path id="DejaVuSans-30" d="M 2034 4250 
Q 1547 4250 1301 3770 
Q 1056 3291 1056 2328 
Q 1056 1369 1301 889 
Q 1547 409 2034 409 
Q 2525 409 2770 889 
Q 3016 1369 3016 2328 
Q 3016 3291 2770 3770 
Q 2525 4250 2034 4250 
z
M 2034 4750 
Q 2819 4750 3233 4129 
Q 3647 3509 3647 2328 
Q 3647 1150 3233 529 
Q 2819 -91 2034 -91 
Q 1250 -91 836 529 
Q 422 1150 422 2328 
Q 422 3509 836 4129 
Q 1250 4750 2034 4750 
z
" transform="scale(0.015625)"/>
      <path id="DejaVuSans-2c" d="M 750 794 
L 1409 794 
L 1409 256 
L 897 -744 
L 494 -744 
L 750 256 
L 750 794 
z
" transform="scale(0.015625)"/>
     </defs>
     <use xlink:href="#DejaVuSans-50"/>
     <use xlink:href="#DejaVuSans-6f" x="56.677734"/>
     <use xlink:href="#DejaVuSans-73" x="117.859375"/>
     <use xlink:href="#DejaVuSans-74" x="169.958984"/>
     <use xlink:href="#DejaVuSans-2d" x="209.167969"/>
     <use xlink:href="#DejaVuSans-68" x="245.251953"/>
     <use xlink:href="#DejaVuSans-6f" x="308.630859"/>
     <use xlink:href="#DejaVuSans-63" x="369.8125"/>
     <use xlink:href="#DejaVuSans-3a" x="424.792969"/>
     <use xlink:href="#DejaVuSans-20" x="458.484375"/>
     <use xlink:href="#DejaVuSans-46" x="490.271484"/>
     <use xlink:href="#DejaVuSans-61" x="538.666016"/>
     <use xlink:href="#DejaVuSans-6c" x="599.945312"/>
     <use xlink:href="#DejaVuSans-73" x="627.728516"/>
     <use xlink:href="#DejaVuSans-65" x="679.828125"/>
     <use xlink:href="#DejaVuSans-20" x="741.351562"/>
     <use xlink:href="#DejaVuSans-28" x="773.138672"/>
     <use xlink:href="#DejaVuSans-61" x="812.152344"/>
     <use xlink:href="#DejaVuSans-3d" x="873.431641"/>
     <use xlink:href="#DejaVuSans-31" x="957.220703"/>
     <use xlink:href="#DejaVuSans-2e" x="1020.84375"/>
     <use xlink:href="#DejaVuSans-30" x="1052.630859"/>
     <use xlink:href="#DejaVuSans-30" x="1116.253906"/>
     <use xlink:href="#DejaVuSans-30" x="1179.876953"/>
     <use xlink:href="#DejaVuSans-2c" x="1243.5"/>
     <use xlink:href="#DejaVuSans-20" x="1275.287109"/>
     <use xlink:href="#DejaVuSans-62" x="1307.074219"/>
     <use xlink:href="#DejaVuSans-3d" x="1370.550781"/>
     <use xlink:href="#DejaVuSans-30" x="1454.339844"/>
     <use xlink:href="#DejaVuSans-2e" x="1517.962891"/>
     <use xlink:href="#DejaVuSans-30" x="1549.75"/>
     <use xlink:href="#DejaVuSans-30" x="1613.373047"/>
     <use xlink:href="#DejaVuSans-30" x="1676.996094"/>
     <use xlink:href="#DejaVuSans-29" x="1740.619141"/>
    </g>
    <!-- Posthoc(cal-set) gain: 0.000 -->
    <g transform="translate(427.403941 114.779406) scale(0.11 -0.11)">
     <use xlink:href="#DejaVuSans-50"/>
     <use xlink:href="#DejaVuSans-6f" x="56.677734"/>
     <use xlink:href="#DejaVuSans-73" x="117.859375"/>
     <use xlink:href="#DejaVuSans-74" x="169.958984"/>
     <use xlink:href="#DejaVuSans-68" x="209.167969"/>
     <use xlink:href="#DejaVuSans-6f" x="272.546875"/>
     <use xlink:href="#DejaVuSans-63" x="333.728516"/>
     <use xlink:href="#DejaVuSans-28" x="388.708984"/>
     <use xlink:href="#DejaVuSans-63" x="427.722656"/>
     <use xlink:href="#DejaVuSans-61" x="482.703125"/>
     <use xlink:href="#DejaVuSans-6c" x="543.982422"/>
     <use xlink:href="#DejaVuSans-2d" x="571.765625"/>
     <use xlink:href="#DejaVuSans-73" x="607.849609"/>
     <use xlink:href="#DejaVuSans-65" x="659.949219"/>
     <use xlink:href="#DejaVuSans-74" x="721.472656"/>
     <use xlink:href="#DejaVuSans-29" x="760.681641"/>
     <use xlink:href="#DejaVuSans-20" x="799.695312"/>
     <use xlink:href="#DejaVuSans-67" x="831.482422"/>
     <use xlink:href="#DejaVuSans-61" x="894.958984"/>
     <use xlink:href="#DejaVuSans-69" x="956.238281"/>
     <use xlink:href="#DejaVuSans-6e" x="984.021484"/>
     <use xlink:href="#DejaVuSans-3a" x="1047.400391"/>
     <use xlink:href="#DejaVuSans-20" x="1081.091797"/>
     <use xlink:href="#DejaVuSans-30" x="1112.878906"/>
     <use xlink:href="#DejaVuSans-2e" x="1176.501953"/>
     <use xlink:href="#DejaVuSans-30" x="1208.289062"/>
     <use xlink:href="#DejaVuSans-30" x="1271.912109"/>
     <use xlink:href="#DejaVuSans-30" x="1335.535156"/>
    </g>
    <!--  -->
    <g transform="translate(427.403941 127.097) scale(0.11 -0.11)"/>
    <!-- Before: -->
    <g transform="translate(427.403941 139.414594) scale(0.11 -0.11)">
     <use xlink:href="#DejaVuSans-42"/>
     <use xlink:href="#DejaVuSans-65" x="68.603516"/>
     <use xlink:href="#DejaVuSans-66" x="130.126953"/>
     <use xlink:href="#DejaVuSans-6f" x="165.332031"/>
     <use xlink:href="#DejaVuSans-72" x="226.513672"/>
     <use xlink:href="#DejaVuSans-65" x="265.376953"/>
     <use xlink:href="#DejaVuSans-3a" x="326.900391"/>
    </g>
    <!--   RMSE=27.35, MAE=22.13 -->
    <g transform="translate(427.403941 151.732187) scale(0.11 -0.11)">
     <defs>
      <path id="DejaVuSans-53" d="M 3425 4513 
L 3425 3897 
Q 3066 4069 2747 4153 
Q 2428 4238 2131 4238 
Q 1616 4238 1336 4038 
Q 1056 3838 1056 3469 
Q 1056 3159 1242 3001 
Q 1428 2844 1947 2747 
L 2328 2669 
Q 3034 2534 3370 2195 
Q 3706 1856 3706 1288 
Q 3706 609 3251 259 
Q 2797 -91 1919 -91 
Q 1588 -91 1214 -16 
Q 841 59 441 206 
L 441 856 
Q 825 641 1194 531 
Q 1563 422 1919 422 
Q 2459 422 2753 634 
Q 3047 847 3047 1241 
Q 3047 1584 2836 1778 
Q 2625 1972 2144 2069 
L 1759 2144 
Q 1053 2284 737 2584 
Q 422 2884 422 3419 
Q 422 4038 858 4394 
Q 1294 4750 2059 4750 
Q 2388 4750 2728 4690 
Q 3069 4631 3425 4513 
z
" transform="scale(0.015625)"/>
      <path id="DejaVuSans-45" d="M 628 4666 
L 3578 4666 
L 3578 4134 
L 1259 4134 
L 1259 2753 
L 3481 2753 
L 3481 2222 
L 1259 2222 
L 1259 531 
L 3634 531 
L 3634 0 
L 628 0 
L 628 4666 
z
" transform="scale(0.015625)"/>
      <path id="DejaVuSans-41" d="M 2188 4044 
L 1331 1722 
L 3047 1722 
L 2188 4044 
z
M 1831 4666 
L 2547 4666 
L 4325 0 
L 3669 0 
L 3244 1197 
L 1141 1197 
L 716 0 
L 50 0 
L 1831 4666 
z
" transform="scale(0.015625)"/>
     </defs>
     <use xlink:href="#DejaVuSans-20"/>
     <use xlink:href="#DejaVuSans-20" x="31.787109"/>
     <use xlink:href="#DejaVuSans-52" x="63.574219"/>
     <use xlink:href="#DejaVuSans-4d" x="133.056641"/>
     <use xlink:href="#DejaVuSans-53" x="219.335938"/>
     <use xlink:href="#DejaVuSans-45" x="282.8125"/>
     <use xlink:href="#DejaVuSans-3d" x="345.996094"/>
     <use xlink:href="#DejaVuSans-32" x="429.785156"/>
     <use xlink:href="#DejaVuSans-37" x="493.408203"/>
     <use xlink:href="#DejaVuSans-2e" x="557.03125"/>
     <use xlink:href="#DejaVuSans-33" x="588.818359"/>
     <use xlink:href="#DejaVuSans-35" x="652.441406"/>
     <use xlink:href="#DejaVuSans-2c" x="716.064453"/>
     <use xlink:href="#DejaVuSans-20" x="747.851562"/>
     <use xlink:href="#DejaVuSans-4d" x="779.638672"/>
     <use xlink:href="#DejaVuSans-41" x="865.917969"/>
     <use xlink:href="#DejaVuSans-45" x="934.326172"/>
     <use xlink:href="#DejaVuSans-3d" x="997.509766"/>
     <use xlink:href="#DejaVuSans-32" x="1081.298828"/>
     <use xlink:href="#DejaVuSans-32" x="1144.921875"/>
     <use xlink:href="#DejaVuSans-2e" x="1208.544922"/>
     <use xlink:href="#DejaVuSans-31" x="1240.332031"/>
     <use xlink:href="#DejaVuSans-33" x="1303.955078"/>
    </g>
    <!--   R2=0.453, CCC=0.611 -->
    <g transform="translate(427.403941 164.049781) scale(0.11 -0.11)">
     <defs>
      <path id="DejaVuSans-34" d="M 2419 4116 
L 825 1625 
L 2419 1625 
L 2419 4116 
z
M 2253 4666 
L 3047 4666 
L 3047 1625 
L 3713 1625 
L 3713 1100 
L 3047 1100 
L 3047 0 
L 2419 0 
L 2419 1100 
L 313 1100 
L 313 1709 
L 2253 4666 
z
" transform="scale(0.015625)"/>
      <path id="DejaVuSans-43" d="M 4122 4306 
L 4122 3641 
Q 3803 3938 3442 4084 
Q 3081 4231 2675 4231 
Q 1875 4231 1450 3742 
Q 1025 3253 1025 2328 
Q 1025 1406 1450 917 
Q 1875 428 2675 428 
Q 3081 428 3442 575 
Q 3803 722 4122 1019 
L 4122 359 
Q 3791 134 3420 21 
Q 3050 -91 2638 -91 
Q 1578 -91 968 557 
Q 359 1206 359 2328 
Q 359 3453 968 4101 
Q 1578 4750 2638 4750 
Q 3056 4750 3426 4639 
Q 3797 4528 4122 4306 
z
" transform="scale(0.015625)"/>
     </defs>
     <use xlink:href="#DejaVuSans-20"/>
     <use xlink:href="#DejaVuSans-20" x="31.787109"/>
     <use xlink:href="#DejaVuSans-52" x="63.574219"/>
     <use xlink:href="#DejaVuSans-32" x="133.056641"/>
     <use xlink:href="#DejaVuSans-3d" x="196.679688"/>
     <use xlink:href="#DejaVuSans-30" x="280.46875"/>
     <use xlink:href="#DejaVuSans-2e" x="344.091797"/>
     <use xlink:href="#DejaVuSans-34" x="375.878906"/>
     <use xlink:href="#DejaVuSans-35" x="439.501953"/>
     <use xlink:href="#DejaVuSans-33" x="503.125"/>
     <use xlink:href="#DejaVuSans-2c" x="566.748047"/>
     <use xlink:href="#DejaVuSans-20" x="598.535156"/>
     <use xlink:href="#DejaVuSans-43" x="630.322266"/>
     <use xlink:href="#DejaVuSans-43" x="700.146484"/>
     <use xlink:href="#DejaVuSans-43" x="769.970703"/>
     <use xlink:href="#DejaVuSans-3d" x="839.794922"/>
     <use xlink:href="#DejaVuSans-30" x="923.583984"/>
     <use xlink:href="#DejaVuSans-2e" x="987.207031"/>
     <use xlink:href="#DejaVuSans-36" x="1018.994141"/>
     <use xlink:href="#DejaVuSans-31" x="1082.617188"/>
     <use xlink:href="#DejaVuSans-31" x="1146.240234"/>
    </g>
    <!--  -->
    <g transform="translate(427.403941 176.367375) scale(0.11 -0.11)"/>
    <!-- After: -->
    <g transform="translate(427.403941 188.684969) scale(0.11 -0.11)">
     <use xlink:href="#DejaVuSans-41"/>
     <use xlink:href="#DejaVuSans-66" x="64.783203"/>
     <use xlink:href="#DejaVuSans-74" x="98.238281"/>
     <use xlink:href="#DejaVuSans-65" x="137.447266"/>
     <use xlink:href="#DejaVuSans-72" x="198.970703"/>
     <use xlink:href="#DejaVuSans-3a" x="238.333984"/>
    </g>
    <!--   RMSE=27.35, MAE=22.13 -->
    <g transform="translate(427.403941 201.002562) scale(0.11 -0.11)">
     <use xlink:href="#DejaVuSans-20"/>
     <use xlink:href="#DejaVuSans-20" x="31.787109"/>
     <use xlink:href="#DejaVuSans-52" x="63.574219"/>
     <use xlink:href="#DejaVuSans-4d" x="133.056641"/>
     <use xlink:href="#DejaVuSans-53" x="219.335938"/>
     <use xlink:href="#DejaVuSans-45" x="282.8125"/>
     <use xlink:href="#DejaVuSans-3d" x="345.996094"/>
     <use xlink:href="#DejaVuSans-32" x="429.785156"/>
     <use xlink:href="#DejaVuSans-37" x="493.408203"/>
     <use xlink:href="#DejaVuSans-2e" x="557.03125"/>
     <use xlink:href="#DejaVuSans-33" x="588.818359"/>
     <use xlink:href="#DejaVuSans-35" x="652.441406"/>
     <use xlink:href="#DejaVuSans-2c" x="716.064453"/>
     <use xlink:href="#DejaVuSans-20" x="747.851562"/>
     <use xlink:href="#DejaVuSans-4d" x="779.638672"/>
     <use xlink:href="#DejaVuSans-41" x="865.917969"/>
     <use xlink:href="#DejaVuSans-45" x="934.326172"/>
     <use xlink:href="#DejaVuSans-3d" x="997.509766"/>
     <use xlink:href="#DejaVuSans-32" x="1081.298828"/>
     <use xlink:href="#DejaVuSans-32" x="1144.921875"/>
     <use xlink:href="#DejaVuSans-2e" x="1208.544922"/>
     <use xlink:href="#DejaVuSans-31" x="1240.332031"/>
     <use xlink:href="#DejaVuSans-33" x="1303.955078"/>
    </g>
    <!--   R2=0.453, CCC=0.611 -->
    <g transform="translate(427.403941 213.320156) scale(0.11 -0.11)">
     <use xlink:href="#DejaVuSans-20"/>
     <use xlink:href="#DejaVuSans-20" x="31.787109"/>
     <use xlink:href="#DejaVuSans-52" x="63.574219"/>
     <use xlink:href="#DejaVuSans-32" x="133.056641"/>
     <use xlink:href="#DejaVuSans-3d" x="196.679688"/>
     <use xlink:href="#DejaVuSans-30" x="280.46875"/>
     <use xlink:href="#DejaVuSans-2e" x="344.091797"/>
     <use xlink:href="#DejaVuSans-34" x="375.878906"/>
     <use xlink:href="#DejaVuSans-35" x="439.501953"/>
     <use xlink:href="#DejaVuSans-33" x="503.125"/>
     <use xlink:href="#DejaVuSans-2c" x="566.748047"/>
     <use xlink:href="#DejaVuSans-20" x="598.535156"/>
     <use xlink:href="#DejaVuSans-43" x="630.322266"/>
     <use xlink:href="#DejaVuSans-43" x="700.146484"/>
     <use xlink:href="#DejaVuSans-43" x="769.970703"/>
     <use xlink:href="#DejaVuSans-3d" x="839.794922"/>
     <use xlink:href="#DejaVuSans-30" x="923.583984"/>
     <use xlink:href="#DejaVuSans-2e" x="987.207031"/>
     <use xlink:href="#DejaVuSans-36" x="1018.994141"/>
     <use xlink:href="#DejaVuSans-31" x="1082.617188"/>
     <use xlink:href="#DejaVuSans-31" x="1146.240234"/>
    </g>
   </g>
   <g id="text_2">
    <!-- [O3] Partial dependence (key factors) -->
    <g transform="translate(117.600641 14.197969) scale(0.13 -0.13)">
     <defs>
      <path id="DejaVuSans-5b" d="M 550 4863 
L 1875 4863 
L 1875 4416 
L 1125 4416 
L 1125 -397 
L 1875 -397 
L 1875 -844 
L 550 -844 
L 550 4863 
z
" transform="scale(0.015625)"/>
      <path id="DejaVuSans-5d" d="M 1947 4863 
L 1947 -844 
L 622 -844 
L 622 -397 
L 1369 -397 
L 1369 4416 
L 622 4416 
L 622 4863 
L 1947 4863 
z
" transform="scale(0.015625)"/>
      <path id="DejaVuSans-70" d="M 1159 525 
L 1159 -1331 
L 581 -1331 
L 581 3500 
L 1159 3500 
L 1159 2969 
Q 1341 3281 1617 3432 
Q 1894 3584 2278 3584 
Q 2916 3584 3314 3078 
Q 3713 2572 3713 1747 
Q 3713 922 3314 415 
Q 2916 -91 2278 -91 
Q 1894 -91 1617 61 
Q 1341 213 1159 525 
z
M 3116 1747 
Q 3116 2381 2855 2742 
Q 2594 3103 2138 3103 
Q 1681 3103 1420 2742 
Q 1159 2381 1159 1747 
Q 1159 1113 1420 752 
Q 1681 391 2138 391 
Q 2594 391 2855 752 
Q 3116 1113 3116 1747 
z
" transform="scale(0.015625)"/>
      <path id="DejaVuSans-79" d="M 2059 -325 
Q 1816 -950 1584 -1140 
Q 1353 -1331 966 -1331 
L 506 -1331 
L 506 -850 
L 844 -850 
Q 1081 -850 1212 -737 
Q 1344 -625 1503 -206 
L 1606 56 
L 191 3500 
L 800 3500 
L 1894 763 
L 2988 3500 
L 3597 3500 
L 2059 -325 
z
" transform="scale(0.015625)"/>
     </defs>
     <use xlink:href="#DejaVuSans-5b"/>
     <use xlink:href="#DejaVuSans-4f" x="39.013672"/>
     <use xlink:href="#DejaVuSans-33" x="117.724609"/>
     <use xlink:href="#DejaVuSans-5d" x="181.347656"/>
     <use xlink:href="#DejaVuSans-20" x="220.361328"/>
     <use xlink:href="#DejaVuSans-50" x="252.148438"/>
     <use xlink:href="#DejaVuSans-61" x="307.951172"/>
     <use xlink:href="#DejaVuSans-72" x="369.230469"/>
     <use xlink:href="#DejaVuSans-74" x="410.34375"/>
     <use xlink:href="#DejaVuSans-69" x="449.552734"/>
     <use xlink:href="#DejaVuSans-61" x="477.335938"/>
     <use xlink:href="#DejaVuSans-6c" x="538.615234"/>
     <use xlink:href="#DejaVuSans-20" x="566.398438"/>
     <use xlink:href="#DejaVuSans-64" x="598.185547"/>
     <use xlink:href="#DejaVuSans-65" x="661.662109"/>
     <use xlink:href="#DejaVuSans-70" x="723.185547"/>
     <use xlink:href="#DejaVuSans-65" x="786.662109"/>
     <use xlink:href="#DejaVuSans-6e" x="848.185547"/>
     <use xlink:href="#DejaVuSans-64" x="911.564453"/>
     <use xlink:href="#DejaVuSans-65" x="975.041016"/>
     <use xlink:href="#DejaVuSans-6e" x="1036.564453"/>
     <use xlink:href="#DejaVuSans-63" x="1099.943359"/>
     <use xlink:href="#DejaVuSans-65" x="1154.923828"/>
     <use xlink:href="#DejaVuSans-20" x="1216.447266"/>
     <use xlink:href="#DejaVuSans-28" x="1248.234375"/>
     <use xlink:href="#DejaVuSans-6b" x="1287.248047"/>
     <use xlink:href="#DejaVuSans-65" x="1341.533203"/>
     <use xlink:href="#DejaVuSans-79" x="1403.056641"/>
     <use xlink:href="#DejaVuSans-20" x="1462.236328"/>
     <use xlink:href="#DejaVuSans-66" x="1494.023438"/>
     <use xlink:href="#DejaVuSans-61" x="1529.228516"/>
     <use xlink:href="#DejaVuSans-63" x="1590.507812"/>
     <use xlink:href="#DejaVuSans-74" x="1645.488281"/>
     <use xlink:href="#DejaVuSans-6f" x="1684.697266"/>
     <use xlink:href="#DejaVuSans-72" x="1745.878906"/>
     <use xlink:href="#DejaVuSans-73" x="1786.992188"/>
     <use xlink:href="#DejaVuSans-29" x="1839.091797"/>
    </g>
   </g>
  </g>
  <g id="axes_2">
   <g id="patch_3">
    <path d="M 59.175781 253.045969 
L 165.354605 253.045969 
L 165.354605 20.197969 
L 59.175781 20.197969 
z
" style="fill: #ffffff"/>
   </g>
   <g id="matplotlib.axis_1">
    <g id="xtick_1">
     <g id="line2d_1">
      <path d="M 95.451102 253.045969 
L 95.451102 20.197969 
" clip-path="url(#p6269e13d6d)" style="fill: none; stroke-dasharray: 2.59,1.12; stroke-dashoffset: 0; stroke: #b0b0b0; stroke-opacity: 0.18; stroke-width: 0.7"/>
     </g>
     <g id="line2d_2">
      <defs>
       <path id="mf2b3bfeb42" d="M 0 0 
L 0 3 
" style="stroke: #000000; stroke-width: 0.8"/>
      </defs>
      <g>
       <use xlink:href="#mf2b3bfeb42" x="95.451102" y="253.045969" style="stroke: #000000; stroke-width: 0.8"/>
      </g>
     </g>
     <g id="text_3">
      <!-- 50 -->
      <g transform="translate(88.452352 267.90425) scale(0.11 -0.11)">
       <use xlink:href="#DejaVuSans-35"/>
       <use xlink:href="#DejaVuSans-30" x="63.623047"/>
      </g>
     </g>
    </g>
    <g id="xtick_2">
     <g id="line2d_3">
      <path d="M 161.679464 253.045969 
L 161.679464 20.197969 
" clip-path="url(#p6269e13d6d)" style="fill: none; stroke-dasharray: 2.59,1.12; stroke-dashoffset: 0; stroke: #b0b0b0; stroke-opacity: 0.18; stroke-width: 0.7"/>
     </g>
     <g id="line2d_4">
      <g>
       <use xlink:href="#mf2b3bfeb42" x="161.679464" y="253.045969" style="stroke: #000000; stroke-width: 0.8"/>
      </g>
     </g>
     <g id="text_4">
      <!-- 100 -->
      <g transform="translate(151.181339 267.90425) scale(0.11 -0.11)">
       <use xlink:href="#DejaVuSans-31"/>
       <use xlink:href="#DejaVuSans-30" x="63.623047"/>
       <use xlink:href="#DejaVuSans-30" x="127.246094"/>
      </g>
     </g>
    </g>
    <g id="text_5">
     <!-- mc_O3_mean -->
     <g transform="translate(74.957146 282.355969) scale(0.11 -0.11)">
      <defs>
       <path id="DejaVuSans-6d" d="M 3328 2828 
Q 3544 3216 3844 3400 
Q 4144 3584 4550 3584 
Q 5097 3584 5394 3201 
Q 5691 2819 5691 2113 
L 5691 0 
L 5113 0 
L 5113 2094 
Q 5113 2597 4934 2840 
Q 4756 3084 4391 3084 
Q 3944 3084 3684 2787 
Q 3425 2491 3425 1978 
L 3425 0 
L 2847 0 
L 2847 2094 
Q 2847 2600 2669 2842 
Q 2491 3084 2119 3084 
Q 1678 3084 1418 2786 
Q 1159 2488 1159 1978 
L 1159 0 
L 581 0 
L 581 3500 
L 1159 3500 
L 1159 2956 
Q 1356 3278 1631 3431 
Q 1906 3584 2284 3584 
Q 2666 3584 2933 3390 
Q 3200 3197 3328 2828 
z
" transform="scale(0.015625)"/>
       <path id="DejaVuSans-5f" d="M 3263 -1063 
L 3263 -1509 
L -63 -1509 
L -63 -1063 
L 3263 -1063 
z
" transform="scale(0.015625)"/>
      </defs>
      <use xlink:href="#DejaVuSans-6d"/>
      <use xlink:href="#DejaVuSans-63" x="97.412109"/>
      <use xlink:href="#DejaVuSans-5f" x="152.392578"/>
      <use xlink:href="#DejaVuSans-4f" x="202.392578"/>
      <use xlink:href="#DejaVuSans-33" x="281.103516"/>
      <use xlink:href="#DejaVuSans-5f" x="344.726562"/>
      <use xlink:href="#DejaVuSans-6d" x="394.726562"/>
      <use xlink:href="#DejaVuSans-65" x="492.138672"/>
      <use xlink:href="#DejaVuSans-61" x="553.662109"/>
      <use xlink:href="#DejaVuSans-6e" x="614.941406"/>
     </g>
    </g>
   </g>
   <g id="matplotlib.axis_2">
    <g id="ytick_1">
     <g id="line2d_5">
      <path d="M 59.175781 224.625729 
L 165.354605 224.625729 
" clip-path="url(#p6269e13d6d)" style="fill: none; stroke-dasharray: 2.59,1.12; stroke-dashoffset: 0; stroke: #b0b0b0; stroke-opacity: 0.18; stroke-width: 0.7"/>
     </g>
     <g id="line2d_6">
      <defs>
       <path id="m144d538419" d="M 0 0 
L -3 0 
" style="stroke: #000000; stroke-width: 0.8"/>
      </defs>
      <g>
       <use xlink:href="#m144d538419" x="59.175781" y="224.625729" style="stroke: #000000; stroke-width: 0.8"/>
      </g>
     </g>
     <g id="text_6">
      <!-- −15.0 -->
      <g transform="translate(18.965938 228.804869) scale(0.11 -0.11)">
       <defs>
        <path id="DejaVuSans-2212" d="M 678 2272 
L 4684 2272 
L 4684 1741 
L 678 1741 
L 678 2272 
z
" transform="scale(0.015625)"/>
       </defs>
       <use xlink:href="#DejaVuSans-2212"/>
       <use xlink:href="#DejaVuSans-31" x="83.789062"/>
       <use xlink:href="#DejaVuSans-35" x="147.412109"/>
       <use xlink:href="#DejaVuSans-2e" x="211.035156"/>
       <use xlink:href="#DejaVuSans-30" x="242.822266"/>
      </g>
     </g>
    </g>
    <g id="ytick_2">
     <g id="line2d_7">
      <path d="M 59.175781 193.701478 
L 165.354605 193.701478 
" clip-path="url(#p6269e13d6d)" style="fill: none; stroke-dasharray: 2.59,1.12; stroke-dashoffset: 0; stroke: #b0b0b0; stroke-opacity: 0.18; stroke-width: 0.7"/>
     </g>
     <g id="line2d_8">
      <g>
       <use xlink:href="#m144d538419" x="59.175781" y="193.701478" style="stroke: #000000; stroke-width: 0.8"/>
      </g>
     </g>
     <g id="text_7">
      <!-- −12.5 -->
      <g transform="translate(18.965938 197.880618) scale(0.11 -0.11)">
       <use xlink:href="#DejaVuSans-2212"/>
       <use xlink:href="#DejaVuSans-31" x="83.789062"/>
       <use xlink:href="#DejaVuSans-32" x="147.412109"/>
       <use xlink:href="#DejaVuSans-2e" x="211.035156"/>
       <use xlink:href="#DejaVuSans-35" x="242.822266"/>
      </g>
     </g>
    </g>
    <g id="ytick_3">
     <g id="line2d_9">
      <path d="M 59.175781 162.777226 
L 165.354605 162.777226 
" clip-path="url(#p6269e13d6d)" style="fill: none; stroke-dasharray: 2.59,1.12; stroke-dashoffset: 0; stroke: #b0b0b0; stroke-opacity: 0.18; stroke-width: 0.7"/>
     </g>
     <g id="line2d_10">
      <g>
       <use xlink:href="#m144d538419" x="59.175781" y="162.777226" style="stroke: #000000; stroke-width: 0.8"/>
      </g>
     </g>
     <g id="text_8">
      <!-- −10.0 -->
      <g transform="translate(18.965938 166.956367) scale(0.11 -0.11)">
       <use xlink:href="#DejaVuSans-2212"/>
       <use xlink:href="#DejaVuSans-31" x="83.789062"/>
       <use xlink:href="#DejaVuSans-30" x="147.412109"/>
       <use xlink:href="#DejaVuSans-2e" x="211.035156"/>
       <use xlink:href="#DejaVuSans-30" x="242.822266"/>
      </g>
     </g>
    </g>
    <g id="ytick_4">
     <g id="line2d_11">
      <path d="M 59.175781 131.852975 
L 165.354605 131.852975 
" clip-path="url(#p6269e13d6d)" style="fill: none; stroke-dasharray: 2.59,1.12; stroke-dashoffset: 0; stroke: #b0b0b0; stroke-opacity: 0.18; stroke-width: 0.7"/>
     </g>
     <g id="line2d_12">
      <g>
       <use xlink:href="#m144d538419" x="59.175781" y="131.852975" style="stroke: #000000; stroke-width: 0.8"/>
      </g>
     </g>
     <g id="text_9">
      <!-- −7.5 -->
      <g transform="translate(25.964688 136.032116) scale(0.11 -0.11)">
       <use xlink:href="#DejaVuSans-2212"/>
       <use xlink:href="#DejaVuSans-37" x="83.789062"/>
       <use xlink:href="#DejaVuSans-2e" x="147.412109"/>
       <use xlink:href="#DejaVuSans-35" x="179.199219"/>
      </g>
     </g>
    </g>
    <g id="ytick_5">
     <g id="line2d_13">
      <path d="M 59.175781 100.928724 
L 165.354605 100.928724 
" clip-path="url(#p6269e13d6d)" style="fill: none; stroke-dasharray: 2.59,1.12; stroke-dashoffset: 0; stroke: #b0b0b0; stroke-opacity: 0.18; stroke-width: 0.7"/>
     </g>
     <g id="line2d_14">
      <g>
       <use xlink:href="#m144d538419" x="59.175781" y="100.928724" style="stroke: #000000; stroke-width: 0.8"/>
      </g>
     </g>
     <g id="text_10">
      <!-- −5.0 -->
      <g transform="translate(25.964688 105.107865) scale(0.11 -0.11)">
       <use xlink:href="#DejaVuSans-2212"/>
       <use xlink:href="#DejaVuSans-35" x="83.789062"/>
       <use xlink:href="#DejaVuSans-2e" x="147.412109"/>
       <use xlink:href="#DejaVuSans-30" x="179.199219"/>
      </g>
     </g>
    </g>
    <g id="ytick_6">
     <g id="line2d_15">
      <path d="M 59.175781 70.004473 
L 165.354605 70.004473 
" clip-path="url(#p6269e13d6d)" style="fill: none; stroke-dasharray: 2.59,1.12; stroke-dashoffset: 0; stroke: #b0b0b0; stroke-opacity: 0.18; stroke-width: 0.7"/>
     </g>
     <g id="line2d_16">
      <g>
       <use xlink:href="#m144d538419" x="59.175781" y="70.004473" style="stroke: #000000; stroke-width: 0.8"/>
      </g>
     </g>
     <g id="text_11">
      <!-- −2.5 -->
      <g transform="translate(25.964688 74.183613) scale(0.11 -0.11)">
       <use xlink:href="#DejaVuSans-2212"/>
       <use xlink:href="#DejaVuSans-32" x="83.789062"/>
       <use xlink:href="#DejaVuSans-2e" x="147.412109"/>
       <use xlink:href="#DejaVuSans-35" x="179.199219"/>
      </g>
     </g>
    </g>
    <g id="ytick_7">
     <g id="line2d_17">
      <path d="M 59.175781 39.080222 
L 165.354605 39.080222 
" clip-path="url(#p6269e13d6d)" style="fill: none; stroke-dasharray: 2.59,1.12; stroke-dashoffset: 0; stroke: #b0b0b0; stroke-opacity: 0.18; stroke-width: 0.7"/>
     </g>
     <g id="line2d_18">
      <g>
       <use xlink:href="#m144d538419" x="59.175781" y="39.080222" style="stroke: #000000; stroke-width: 0.8"/>
      </g>
     </g>
     <g id="text_12">
      <!-- 0.0 -->
      <g transform="translate(35.182344 43.259362) scale(0.11 -0.11)">
       <use xlink:href="#DejaVuSans-30"/>
       <use xlink:href="#DejaVuSans-2e" x="63.623047"/>
       <use xlink:href="#DejaVuSans-30" x="95.410156"/>
      </g>
     </g>
    </g>
    <g id="text_13">
     <!-- Partial dependence -->
     <g transform="translate(12.678281 189.660016) rotate(-90) scale(0.11 -0.11)">
      <use xlink:href="#DejaVuSans-50"/>
      <use xlink:href="#DejaVuSans-61" x="55.802734"/>
      <use xlink:href="#DejaVuSans-72" x="117.082031"/>
      <use xlink:href="#DejaVuSans-74" x="158.195312"/>
      <use xlink:href="#DejaVuSans-69" x="197.404297"/>
      <use xlink:href="#DejaVuSans-61" x="225.1875"/>
      <use xlink:href="#DejaVuSans-6c" x="286.466797"/>
      <use xlink:href="#DejaVuSans-20" x="314.25"/>
      <use xlink:href="#DejaVuSans-64" x="346.037109"/>
      <use xlink:href="#DejaVuSans-65" x="409.513672"/>
      <use xlink:href="#DejaVuSans-70" x="471.037109"/>
      <use xlink:href="#DejaVuSans-65" x="534.513672"/>
      <use xlink:href="#DejaVuSans-6e" x="596.037109"/>
      <use xlink:href="#DejaVuSans-64" x="659.416016"/>
      <use xlink:href="#DejaVuSans-65" x="722.892578"/>
      <use xlink:href="#DejaVuSans-6e" x="784.416016"/>
      <use xlink:href="#DejaVuSans-63" x="847.794922"/>
      <use xlink:href="#DejaVuSans-65" x="902.775391"/>
     </g>
    </g>
   </g>
   <g id="line2d_19">
    <path d="M 64.002091 32.952819 
L 64.977104 33.388349 
L 65.952116 33.447372 
L 66.927128 33.521908 
L 67.90214 33.72023 
L 68.877152 34.656271 
L 69.852164 35.434365 
L 70.827176 36.388488 
L 71.802189 37.309699 
L 72.777201 38.181048 
L 73.752213 38.73553 
L 74.727225 39.912216 
L 75.702237 40.197234 
L 76.677249 40.262591 
L 77.652262 40.434084 
L 78.627274 39.801292 
L 79.602286 39.319957 
L 80.577298 38.764049 
L 81.55231 36.524086 
L 82.527322 34.794765 
L 83.502334 32.989619 
L 84.477347 33.076316 
L 85.452359 32.694314 
L 86.427371 32.203236 
L 87.402383 31.633658 
L 88.377395 30.950856 
L 89.352407 30.781969 
L 90.32742 30.901716 
L 91.302432 31.049783 
L 92.277444 31.074255 
L 93.252456 31.28885 
L 94.227468 31.347635 
L 95.20248 31.846395 
L 96.177492 31.906404 
L 97.152505 31.745865 
L 98.127517 32.072462 
L 99.102529 32.405578 
L 100.077541 32.94243 
L 101.052553 33.470367 
L 102.027565 33.617837 
L 103.002578 33.958253 
L 103.97759 34.719286 
L 104.952602 35.799151 
L 105.927614 36.666681 
L 106.902626 37.79006 
L 107.877638 38.450418 
L 108.85265 39.406624 
L 109.827663 40.387841 
L 110.802675 41.193851 
L 111.777687 42.473948 
L 112.752699 43.607545 
L 113.727711 44.979327 
L 114.702723 47.933162 
L 115.677736 50.062089 
L 116.652748 51.971057 
L 117.62776 54.117529 
L 118.602772 58.962752 
L 119.577784 64.477548 
L 120.552796 70.498525 
L 121.527808 84.118637 
L 122.502821 94.822512 
L 123.477833 122.182528 
L 124.452845 165.075478 
L 125.427857 204.817207 
L 126.402869 208.708662 
L 127.377881 208.881486 
L 128.352894 209.336081 
L 129.327906 209.358519 
L 130.302918 209.803758 
L 131.27793 210.460544 
L 132.252942 211.067329 
L 133.227954 211.56729 
L 134.202966 212.542667 
L 135.177979 213.443045 
L 136.152991 214.46199 
L 137.128003 215.522661 
L 138.103015 218.023895 
L 139.078027 218.984667 
L 140.053039 222.369105 
L 141.028052 226.025802 
L 142.003064 227.144675 
L 142.978076 227.966197 
L 143.953088 229.803475 
L 144.9281 230.535412 
L 145.903112 230.801583 
L 146.878124 234.076054 
L 147.853137 234.221944 
L 148.828149 234.576229 
L 149.803161 234.629302 
L 150.778173 236.325834 
L 151.753185 236.749182 
L 152.728197 237.047105 
L 153.70321 239.564322 
L 154.678222 240.831275 
L 155.653234 241.305933 
L 156.628246 242.083597 
L 157.603258 242.461969 
L 158.57827 242.284315 
L 159.553282 242.021434 
L 160.528295 242.330114 
" clip-path="url(#p6269e13d6d)" style="fill: none; stroke: #f6cfaf; stroke-width: 2; stroke-linecap: square"/>
   </g>
   <g id="LineCollection_1">
    <path d="M 66.048599 253.045969 
L 66.048599 241.403569 
" clip-path="url(#p6269e13d6d)" style="fill: none; stroke: #000000; stroke-width: 2"/>
    <path d="M 74.222705 253.045969 
L 74.222705 241.403569 
" clip-path="url(#p6269e13d6d)" style="fill: none; stroke: #000000; stroke-width: 2"/>
    <path d="M 83.477014 253.045969 
L 83.477014 241.403569 
" clip-path="url(#p6269e13d6d)" style="fill: none; stroke: #000000; stroke-width: 2"/>
    <path d="M 91.91812 253.045969 
L 91.91812 241.403569 
" clip-path="url(#p6269e13d6d)" style="fill: none; stroke: #000000; stroke-width: 2"/>
    <path d="M 101.231032 253.045969 
L 101.231032 241.403569 
" clip-path="url(#p6269e13d6d)" style="fill: none; stroke: #000000; stroke-width: 2"/>
    <path d="M 111.764954 253.045969 
L 111.764954 241.403569 
" clip-path="url(#p6269e13d6d)" style="fill: none; stroke: #000000; stroke-width: 2"/>
    <path d="M 121.003208 253.045969 
L 121.003208 241.403569 
" clip-path="url(#p6269e13d6d)" style="fill: none; stroke: #000000; stroke-width: 2"/>
    <path d="M 133.621758 253.045969 
L 133.621758 241.403569 
" clip-path="url(#p6269e13d6d)" style="fill: none; stroke: #000000; stroke-width: 2"/>
    <path d="M 149.729459 253.045969 
L 149.729459 241.403569 
" clip-path="url(#p6269e13d6d)" style="fill: none; stroke: #000000; stroke-width: 2"/>
   </g>
   <g id="patch_4">
    <path d="M 59.175781 253.045969 
L 59.175781 20.197969 
" style="fill: none; stroke: #000000; stroke-width: 0.9; stroke-linejoin: miter; stroke-linecap: square"/>
   </g>
   <g id="patch_5">
    <path d="M 59.175781 253.045969 
L 165.354605 253.045969 
" style="fill: none; stroke: #000000; stroke-width: 0.9; stroke-linejoin: miter; stroke-linecap: square"/>
   </g>
  </g>
  <g id="axes_3">
   <g id="patch_6">
    <path d="M 186.590369 253.045969 
L 292.769193 253.045969 
L 292.769193 20.197969 
L 186.590369 20.197969 
z
" style="fill: #ffffff"/>
   </g>
   <g id="matplotlib.axis_3">
    <g id="xtick_3">
     <g id="line2d_20">
      <path d="M 194.498674 253.045969 
L 194.498674 20.197969 
" clip-path="url(#p26be8c31db)" style="fill: none; stroke-dasharray: 2.59,1.12; stroke-dashoffset: 0; stroke: #b0b0b0; stroke-opacity: 0.18; stroke-width: 0.7"/>
     </g>
     <g id="line2d_21">
      <g>
       <use xlink:href="#mf2b3bfeb42" x="194.498674" y="253.045969" style="stroke: #000000; stroke-width: 0.8"/>
      </g>
     </g>
     <g id="text_14">
      <!-- 25 -->
      <g transform="translate(187.499924 267.90425) scale(0.11 -0.11)">
       <use xlink:href="#DejaVuSans-32"/>
       <use xlink:href="#DejaVuSans-35" x="63.623047"/>
      </g>
     </g>
    </g>
    <g id="xtick_4">
     <g id="line2d_22">
      <path d="M 229.9313 253.045969 
L 229.9313 20.197969 
" clip-path="url(#p26be8c31db)" style="fill: none; stroke-dasharray: 2.59,1.12; stroke-dashoffset: 0; stroke: #b0b0b0; stroke-opacity: 0.18; stroke-width: 0.7"/>
     </g>
     <g id="line2d_23">
      <g>
       <use xlink:href="#mf2b3bfeb42" x="229.9313" y="253.045969" style="stroke: #000000; stroke-width: 0.8"/>
      </g>
     </g>
     <g id="text_15">
      <!-- 50 -->
      <g transform="translate(222.93255 267.90425) scale(0.11 -0.11)">
       <use xlink:href="#DejaVuSans-35"/>
       <use xlink:href="#DejaVuSans-30" x="63.623047"/>
      </g>
     </g>
    </g>
    <g id="xtick_5">
     <g id="line2d_24">
      <path d="M 265.363925 253.045969 
L 265.363925 20.197969 
" clip-path="url(#p26be8c31db)" style="fill: none; stroke-dasharray: 2.59,1.12; stroke-dashoffset: 0; stroke: #b0b0b0; stroke-opacity: 0.18; stroke-width: 0.7"/>
     </g>
     <g id="line2d_25">
      <g>
       <use xlink:href="#mf2b3bfeb42" x="265.363925" y="253.045969" style="stroke: #000000; stroke-width: 0.8"/>
      </g>
     </g>
     <g id="text_16">
      <!-- 75 -->
      <g transform="translate(258.365175 267.90425) scale(0.11 -0.11)">
       <use xlink:href="#DejaVuSans-37"/>
       <use xlink:href="#DejaVuSans-35" x="63.623047"/>
      </g>
     </g>
    </g>
    <g id="text_17">
     <!-- mc_Humidity_mean -->
     <g transform="translate(185.262437 282.550187) scale(0.11 -0.11)">
      <defs>
       <path id="DejaVuSans-48" d="M 628 4666 
L 1259 4666 
L 1259 2753 
L 3553 2753 
L 3553 4666 
L 4184 4666 
L 4184 0 
L 3553 0 
L 3553 2222 
L 1259 2222 
L 1259 0 
L 628 0 
L 628 4666 
z
" transform="scale(0.015625)"/>
      </defs>
      <use xlink:href="#DejaVuSans-6d"/>
      <use xlink:href="#DejaVuSans-63" x="97.412109"/>
      <use xlink:href="#DejaVuSans-5f" x="152.392578"/>
      <use xlink:href="#DejaVuSans-48" x="202.392578"/>
      <use xlink:href="#DejaVuSans-75" x="277.587891"/>
      <use xlink:href="#DejaVuSans-6d" x="340.966797"/>
      <use xlink:href="#DejaVuSans-69" x="438.378906"/>
      <use xlink:href="#DejaVuSans-64" x="466.162109"/>
      <use xlink:href="#DejaVuSans-69" x="529.638672"/>
      <use xlink:href="#DejaVuSans-74" x="557.421875"/>
      <use xlink:href="#DejaVuSans-79" x="596.630859"/>
      <use xlink:href="#DejaVuSans-5f" x="655.810547"/>
      <use xlink:href="#DejaVuSans-6d" x="705.810547"/>
      <use xlink:href="#DejaVuSans-65" x="803.222656"/>
      <use xlink:href="#DejaVuSans-61" x="864.746094"/>
      <use xlink:href="#DejaVuSans-6e" x="926.025391"/>
     </g>
    </g>
   </g>
   <g id="matplotlib.axis_4">
    <g id="ytick_8">
     <g id="line2d_26">
      <path d="M 186.590369 224.625729 
L 292.769193 224.625729 
" clip-path="url(#p26be8c31db)" style="fill: none; stroke-dasharray: 2.59,1.12; stroke-dashoffset: 0; stroke: #b0b0b0; stroke-opacity: 0.18; stroke-width: 0.7"/>
     </g>
     <g id="line2d_27">
      <g>
       <use xlink:href="#m144d538419" x="186.590369" y="224.625729" style="stroke: #000000; stroke-width: 0.8"/>
      </g>
     </g>
    </g>
    <g id="ytick_9">
     <g id="line2d_28">
      <path d="M 186.590369 193.701478 
L 292.769193 193.701478 
" clip-path="url(#p26be8c31db)" style="fill: none; stroke-dasharray: 2.59,1.12; stroke-dashoffset: 0; stroke: #b0b0b0; stroke-opacity: 0.18; stroke-width: 0.7"/>
     </g>
     <g id="line2d_29">
      <g>
       <use xlink:href="#m144d538419" x="186.590369" y="193.701478" style="stroke: #000000; stroke-width: 0.8"/>
      </g>
     </g>
    </g>
    <g id="ytick_10">
     <g id="line2d_30">
      <path d="M 186.590369 162.777226 
L 292.769193 162.777226 
" clip-path="url(#p26be8c31db)" style="fill: none; stroke-dasharray: 2.59,1.12; stroke-dashoffset: 0; stroke: #b0b0b0; stroke-opacity: 0.18; stroke-width: 0.7"/>
     </g>
     <g id="line2d_31">
      <g>
       <use xlink:href="#m144d538419" x="186.590369" y="162.777226" style="stroke: #000000; stroke-width: 0.8"/>
      </g>
     </g>
    </g>
    <g id="ytick_11">
     <g id="line2d_32">
      <path d="M 186.590369 131.852975 
L 292.769193 131.852975 
" clip-path="url(#p26be8c31db)" style="fill: none; stroke-dasharray: 2.59,1.12; stroke-dashoffset: 0; stroke: #b0b0b0; stroke-opacity: 0.18; stroke-width: 0.7"/>
     </g>
     <g id="line2d_33">
      <g>
       <use xlink:href="#m144d538419" x="186.590369" y="131.852975" style="stroke: #000000; stroke-width: 0.8"/>
      </g>
     </g>
    </g>
    <g id="ytick_12">
     <g id="line2d_34">
      <path d="M 186.590369 100.928724 
L 292.769193 100.928724 
" clip-path="url(#p26be8c31db)" style="fill: none; stroke-dasharray: 2.59,1.12; stroke-dashoffset: 0; stroke: #b0b0b0; stroke-opacity: 0.18; stroke-width: 0.7"/>
     </g>
     <g id="line2d_35">
      <g>
       <use xlink:href="#m144d538419" x="186.590369" y="100.928724" style="stroke: #000000; stroke-width: 0.8"/>
      </g>
     </g>
    </g>
    <g id="ytick_13">
     <g id="line2d_36">
      <path d="M 186.590369 70.004473 
L 292.769193 70.004473 
" clip-path="url(#p26be8c31db)" style="fill: none; stroke-dasharray: 2.59,1.12; stroke-dashoffset: 0; stroke: #b0b0b0; stroke-opacity: 0.18; stroke-width: 0.7"/>
     </g>
     <g id="line2d_37">
      <g>
       <use xlink:href="#m144d538419" x="186.590369" y="70.004473" style="stroke: #000000; stroke-width: 0.8"/>
      </g>
     </g>
    </g>
    <g id="ytick_14">
     <g id="line2d_38">
      <path d="M 186.590369 39.080222 
L 292.769193 39.080222 
" clip-path="url(#p26be8c31db)" style="fill: none; stroke-dasharray: 2.59,1.12; stroke-dashoffset: 0; stroke: #b0b0b0; stroke-opacity: 0.18; stroke-width: 0.7"/>
     </g>
     <g id="line2d_39">
      <g>
       <use xlink:href="#m144d538419" x="186.590369" y="39.080222" style="stroke: #000000; stroke-width: 0.8"/>
      </g>
     </g>
    </g>
   </g>
   <g id="line2d_40">
    <path d="M 191.41668 67.847059 
L 192.391692 67.847059 
L 193.366704 67.847059 
L 194.341716 67.847059 
L 195.316728 67.847059 
L 196.29174 67.847059 
L 197.266753 67.847059 
L 198.241765 67.688667 
L 199.216777 68.412124 
L 200.191789 68.480595 
L 201.166801 68.874718 
L 202.141813 69.274557 
L 203.116825 69.371285 
L 204.091838 69.333908 
L 205.06685 70.274269 
L 206.041862 70.277425 
L 207.016874 70.230724 
L 207.991886 70.339721 
L 208.966898 70.552251 
L 209.941911 70.413622 
L 210.916923 70.663407 
L 211.891935 70.835595 
L 212.866947 71.086228 
L 213.841959 70.718269 
L 214.816971 70.139345 
L 215.791983 70.210758 
L 216.766996 71.155539 
L 217.742008 70.92093 
L 218.71702 70.897617 
L 219.692032 70.005924 
L 220.667044 70.047223 
L 221.642056 69.578623 
L 222.617069 69.358907 
L 223.592081 69.455359 
L 224.567093 69.871361 
L 225.542105 69.562457 
L 226.517117 69.66493 
L 227.492129 70.442946 
L 228.467141 70.420264 
L 229.442154 70.424787 
L 230.417166 70.640277 
L 231.392178 70.810604 
L 232.36719 71.523258 
L 233.342202 71.466412 
L 234.317214 71.912128 
L 235.292227 71.635619 
L 236.267239 72.650988 
L 237.242251 73.135452 
L 238.217263 73.792143 
L 239.192275 74.559026 
L 240.167287 76.293678 
L 241.142299 77.39641 
L 242.117312 77.709244 
L 243.092324 79.83155 
L 244.067336 81.50772 
L 245.042348 81.555186 
L 246.01736 85.792345 
L 246.992372 88.594765 
L 247.967385 90.699315 
L 248.942397 91.94981 
L 249.917409 92.318256 
L 250.892421 92.980804 
L 251.867433 93.888892 
L 252.842445 94.095151 
L 253.817457 94.04496 
L 254.79247 94.887118 
L 255.767482 95.443391 
L 256.742494 95.579436 
L 257.717506 96.007376 
L 258.692518 96.355074 
L 259.66753 96.55592 
L 260.642543 97.128853 
L 261.617555 97.645333 
L 262.592567 97.495945 
L 263.567579 97.85039 
L 264.542591 98.724496 
L 265.517603 99.779371 
L 266.492615 100.2528 
L 267.467628 100.46249 
L 268.44264 100.856938 
L 269.417652 101.024961 
L 270.392664 101.230231 
L 271.367676 101.192369 
L 272.342688 101.403718 
L 273.317701 101.695121 
L 274.292713 101.699537 
L 275.267725 101.699586 
L 276.242737 102.361334 
L 277.217749 102.855825 
L 278.192761 103.199131 
L 279.167773 103.09136 
L 280.142786 103.203028 
L 281.117798 103.106314 
L 282.09281 103.139265 
L 283.067822 103.173604 
L 284.042834 103.177105 
L 285.017846 102.549551 
L 285.992859 103.238199 
L 286.967871 103.320757 
L 287.942883 103.723224 
" clip-path="url(#p26be8c31db)" style="fill: none; stroke: #f6cfaf; stroke-width: 2; stroke-linecap: square"/>
   </g>
   <g id="LineCollection_2">
    <path d="M 199.918448 253.045969 
L 199.918448 241.403569 
" clip-path="url(#p26be8c31db)" style="fill: none; stroke: #000000; stroke-width: 2"/>
    <path d="M 214.22756 253.045969 
L 214.22756 241.403569 
" clip-path="url(#p26be8c31db)" style="fill: none; stroke: #000000; stroke-width: 2"/>
    <path d="M 225.364743 253.045969 
L 225.364743 241.403569 
" clip-path="url(#p26be8c31db)" style="fill: none; stroke: #000000; stroke-width: 2"/>
    <path d="M 234.931552 253.045969 
L 234.931552 241.403569 
" clip-path="url(#p26be8c31db)" style="fill: none; stroke: #000000; stroke-width: 2"/>
    <path d="M 243.15948 253.045969 
L 243.15948 241.403569 
" clip-path="url(#p26be8c31db)" style="fill: none; stroke: #000000; stroke-width: 2"/>
    <path d="M 250.603338 253.045969 
L 250.603338 241.403569 
" clip-path="url(#p26be8c31db)" style="fill: none; stroke: #000000; stroke-width: 2"/>
    <path d="M 259.694705 253.045969 
L 259.694705 241.403569 
" clip-path="url(#p26be8c31db)" style="fill: none; stroke: #000000; stroke-width: 2"/>
    <path d="M 269.126226 253.045969 
L 269.126226 241.403569 
" clip-path="url(#p26be8c31db)" style="fill: none; stroke: #000000; stroke-width: 2"/>
    <path d="M 281.162152 253.045969 
L 281.162152 241.403569 
" clip-path="url(#p26be8c31db)" style="fill: none; stroke: #000000; stroke-width: 2"/>
   </g>
   <g id="patch_7">
    <path d="M 186.590369 253.045969 
L 186.590369 20.197969 
" style="fill: none; stroke: #000000; stroke-width: 0.9; stroke-linejoin: miter; stroke-linecap: square"/>
   </g>
   <g id="patch_8">
    <path d="M 186.590369 253.045969 
L 292.769193 253.045969 
" style="fill: none; stroke: #000000; stroke-width: 0.9; stroke-linejoin: miter; stroke-linecap: square"/>
   </g>
  </g>
  <g id="axes_4">
   <g id="patch_9">
    <path d="M 314.004958 253.045969 
L 420.183781 253.045969 
L 420.183781 20.197969 
L 314.004958 20.197969 
z
" style="fill: #ffffff"/>
   </g>
   <g id="matplotlib.axis_5">
    <g id="xtick_6">
     <g id="line2d_41">
      <path d="M 339.515454 253.045969 
L 339.515454 20.197969 
" clip-path="url(#p2ff6d6e048)" style="fill: none; stroke-dasharray: 2.59,1.12; stroke-dashoffset: 0; stroke: #b0b0b0; stroke-opacity: 0.18; stroke-width: 0.7"/>
     </g>
     <g id="line2d_42">
      <g>
       <use xlink:href="#mf2b3bfeb42" x="339.515454" y="253.045969" style="stroke: #000000; stroke-width: 0.8"/>
      </g>
     </g>
     <g id="text_18">
      <!-- 10 -->
      <g transform="translate(332.516704 267.90425) scale(0.11 -0.11)">
       <use xlink:href="#DejaVuSans-31"/>
       <use xlink:href="#DejaVuSans-30" x="63.623047"/>
      </g>
     </g>
    </g>
    <g id="xtick_7">
     <g id="line2d_43">
      <path d="M 408.462742 253.045969 
L 408.462742 20.197969 
" clip-path="url(#p2ff6d6e048)" style="fill: none; stroke-dasharray: 2.59,1.12; stroke-dashoffset: 0; stroke: #b0b0b0; stroke-opacity: 0.18; stroke-width: 0.7"/>
     </g>
     <g id="line2d_44">
      <g>
       <use xlink:href="#mf2b3bfeb42" x="408.462742" y="253.045969" style="stroke: #000000; stroke-width: 0.8"/>
      </g>
     </g>
     <g id="text_19">
      <!-- 20 -->
      <g transform="translate(401.463992 267.90425) scale(0.11 -0.11)">
       <use xlink:href="#DejaVuSans-32"/>
       <use xlink:href="#DejaVuSans-30" x="63.623047"/>
      </g>
     </g>
    </g>
    <g id="text_20">
     <!-- mc_Temperature_mean -->
     <g transform="translate(302.778744 282.24425) scale(0.11 -0.11)">
      <use xlink:href="#DejaVuSans-6d"/>
      <use xlink:href="#DejaVuSans-63" x="97.412109"/>
      <use xlink:href="#DejaVuSans-5f" x="152.392578"/>
      <use xlink:href="#DejaVuSans-54" x="202.392578"/>
      <use xlink:href="#DejaVuSans-65" x="246.476562"/>
      <use xlink:href="#DejaVuSans-6d" x="308"/>
      <use xlink:href="#DejaVuSans-70" x="405.412109"/>
      <use xlink:href="#DejaVuSans-65" x="468.888672"/>
      <use xlink:href="#DejaVuSans-72" x="530.412109"/>
      <use xlink:href="#DejaVuSans-61" x="571.525391"/>
      <use xlink:href="#DejaVuSans-74" x="632.804688"/>
      <use xlink:href="#DejaVuSans-75" x="672.013672"/>
      <use xlink:href="#DejaVuSans-72" x="735.392578"/>
      <use xlink:href="#DejaVuSans-65" x="774.255859"/>
      <use xlink:href="#DejaVuSans-5f" x="835.779297"/>
      <use xlink:href="#DejaVuSans-6d" x="885.779297"/>
      <use xlink:href="#DejaVuSans-65" x="983.191406"/>
      <use xlink:href="#DejaVuSans-61" x="1044.714844"/>
      <use xlink:href="#DejaVuSans-6e" x="1105.994141"/>
     </g>
    </g>
   </g>
   <g id="matplotlib.axis_6">
    <g id="ytick_15">
     <g id="line2d_45">
      <path d="M 314.004958 224.625729 
L 420.183781 224.625729 
" clip-path="url(#p2ff6d6e048)" style="fill: none; stroke-dasharray: 2.59,1.12; stroke-dashoffset: 0; stroke: #b0b0b0; stroke-opacity: 0.18; stroke-width: 0.7"/>
     </g>
     <g id="line2d_46">
      <g>
       <use xlink:href="#m144d538419" x="314.004958" y="224.625729" style="stroke: #000000; stroke-width: 0.8"/>
      </g>
     </g>
    </g>
    <g id="ytick_16">
     <g id="line2d_47">
      <path d="M 314.004958 193.701478 
L 420.183781 193.701478 
" clip-path="url(#p2ff6d6e048)" style="fill: none; stroke-dasharray: 2.59,1.12; stroke-dashoffset: 0; stroke: #b0b0b0; stroke-opacity: 0.18; stroke-width: 0.7"/>
     </g>
     <g id="line2d_48">
      <g>
       <use xlink:href="#m144d538419" x="314.004958" y="193.701478" style="stroke: #000000; stroke-width: 0.8"/>
      </g>
     </g>
    </g>
    <g id="ytick_17">
     <g id="line2d_49">
      <path d="M 314.004958 162.777226 
L 420.183781 162.777226 
" clip-path="url(#p2ff6d6e048)" style="fill: none; stroke-dasharray: 2.59,1.12; stroke-dashoffset: 0; stroke: #b0b0b0; stroke-opacity: 0.18; stroke-width: 0.7"/>
     </g>
     <g id="line2d_50">
      <g>
       <use xlink:href="#m144d538419" x="314.004958" y="162.777226" style="stroke: #000000; stroke-width: 0.8"/>
      </g>
     </g>
    </g>
    <g id="ytick_18">
     <g id="line2d_51">
      <path d="M 314.004958 131.852975 
L 420.183781 131.852975 
" clip-path="url(#p2ff6d6e048)" style="fill: none; stroke-dasharray: 2.59,1.12; stroke-dashoffset: 0; stroke: #b0b0b0; stroke-opacity: 0.18; stroke-width: 0.7"/>
     </g>
     <g id="line2d_52">
      <g>
       <use xlink:href="#m144d538419" x="314.004958" y="131.852975" style="stroke: #000000; stroke-width: 0.8"/>
      </g>
     </g>
    </g>
    <g id="ytick_19">
     <g id="line2d_53">
      <path d="M 314.004958 100.928724 
L 420.183781 100.928724 
" clip-path="url(#p2ff6d6e048)" style="fill: none; stroke-dasharray: 2.59,1.12; stroke-dashoffset: 0; stroke: #b0b0b0; stroke-opacity: 0.18; stroke-width: 0.7"/>
     </g>
     <g id="line2d_54">
      <g>
       <use xlink:href="#m144d538419" x="314.004958" y="100.928724" style="stroke: #000000; stroke-width: 0.8"/>
      </g>
     </g>
    </g>
    <g id="ytick_20">
     <g id="line2d_55">
      <path d="M 314.004958 70.004473 
L 420.183781 70.004473 
" clip-path="url(#p2ff6d6e048)" style="fill: none; stroke-dasharray: 2.59,1.12; stroke-dashoffset: 0; stroke: #b0b0b0; stroke-opacity: 0.18; stroke-width: 0.7"/>
     </g>
     <g id="line2d_56">
      <g>
       <use xlink:href="#m144d538419" x="314.004958" y="70.004473" style="stroke: #000000; stroke-width: 0.8"/>
      </g>
     </g>
    </g>
    <g id="ytick_21">
     <g id="line2d_57">
      <path d="M 314.004958 39.080222 
L 420.183781 39.080222 
" clip-path="url(#p2ff6d6e048)" style="fill: none; stroke-dasharray: 2.59,1.12; stroke-dashoffset: 0; stroke: #b0b0b0; stroke-opacity: 0.18; stroke-width: 0.7"/>
     </g>
     <g id="line2d_58">
      <g>
       <use xlink:href="#m144d538419" x="314.004958" y="39.080222" style="stroke: #000000; stroke-width: 0.8"/>
      </g>
     </g>
    </g>
   </g>
   <g id="line2d_59">
    <path d="M 318.831268 113.02968 
L 319.80628 112.481174 
L 320.781292 112.366049 
L 321.756304 112.416121 
L 322.731316 111.49384 
L 323.706329 110.4625 
L 324.681341 110.685707 
L 325.656353 110.331813 
L 326.631365 110.342903 
L 327.606377 109.34447 
L 328.581389 108.788582 
L 329.556402 107.47006 
L 330.531414 107.522902 
L 331.506426 107.203378 
L 332.481438 107.151221 
L 333.45645 107.015484 
L 334.431462 104.173762 
L 335.406474 103.608506 
L 336.381487 101.564979 
L 337.356499 101.384767 
L 338.331511 98.141081 
L 339.306523 96.720707 
L 340.281535 96.108876 
L 341.256547 94.635588 
L 342.23156 93.46095 
L 343.206572 91.397154 
L 344.181584 90.711506 
L 345.156596 90.490964 
L 346.131608 90.32867 
L 347.10662 89.687758 
L 348.081632 89.384593 
L 349.056645 89.344539 
L 350.031657 88.556648 
L 351.006669 88.21745 
L 351.981681 87.910782 
L 352.956693 87.805075 
L 353.931705 87.07763 
L 354.906718 86.784453 
L 355.88173 86.86255 
L 356.856742 85.297336 
L 357.831754 83.821515 
L 358.806766 83.028531 
L 359.781778 81.632894 
L 360.75679 81.356692 
L 361.731803 81.233294 
L 362.706815 81.190373 
L 363.681827 77.44604 
L 364.656839 77.179645 
L 365.631851 77.171811 
L 366.606863 76.94508 
L 367.581876 76.608732 
L 368.556888 76.040693 
L 369.5319 76.033075 
L 370.506912 75.966702 
L 371.481924 74.736633 
L 372.456936 74.730281 
L 373.431948 73.897733 
L 374.406961 73.708928 
L 375.381973 73.693961 
L 376.356985 72.979281 
L 377.331997 72.309112 
L 378.307009 70.452891 
L 379.282021 70.454656 
L 380.257034 70.437441 
L 381.232046 70.461736 
L 382.207058 70.461736 
L 383.18207 70.6265 
L 384.157082 70.532501 
L 385.132094 68.81506 
L 386.107106 68.862098 
L 387.082119 67.486141 
L 388.057131 67.622074 
L 389.032143 67.622074 
L 390.007155 67.658386 
L 390.982167 67.722926 
L 391.957179 67.660455 
L 392.932192 67.660455 
L 393.907204 67.386503 
L 394.882216 67.374612 
L 395.857228 67.226719 
L 396.83224 67.226719 
L 397.807252 66.971769 
L 398.782264 66.517179 
L 399.757277 66.517179 
L 400.732289 66.517179 
L 401.707301 66.517179 
L 402.682313 66.517179 
L 403.657325 66.445741 
L 404.632337 66.445741 
L 405.60735 66.43026 
L 406.582362 66.43026 
L 407.557374 66.43026 
L 408.532386 66.43026 
L 409.507398 66.43026 
L 410.48241 66.43026 
L 411.457422 66.43026 
L 412.432435 66.43026 
L 413.407447 66.43026 
L 414.382459 66.43026 
L 415.357471 66.43026 
" clip-path="url(#p2ff6d6e048)" style="fill: none; stroke: #f6cfaf; stroke-width: 2; stroke-linecap: square"/>
   </g>
   <g id="LineCollection_3">
    <path d="M 325.725997 253.045969 
L 325.725997 241.403569 
" clip-path="url(#p2ff6d6e048)" style="fill: none; stroke: #000000; stroke-width: 2"/>
    <path d="M 332.620725 253.045969 
L 332.620725 241.403569 
" clip-path="url(#p2ff6d6e048)" style="fill: none; stroke: #000000; stroke-width: 2"/>
    <path d="M 339.515454 253.045969 
L 339.515454 241.403569 
" clip-path="url(#p2ff6d6e048)" style="fill: none; stroke: #000000; stroke-width: 2"/>
    <path d="M 353.304912 253.045969 
L 353.304912 241.403569 
" clip-path="url(#p2ff6d6e048)" style="fill: none; stroke: #000000; stroke-width: 2"/>
    <path d="M 360.199641 253.045969 
L 360.199641 241.403569 
" clip-path="url(#p2ff6d6e048)" style="fill: none; stroke: #000000; stroke-width: 2"/>
    <path d="M 367.094369 253.045969 
L 367.094369 241.403569 
" clip-path="url(#p2ff6d6e048)" style="fill: none; stroke: #000000; stroke-width: 2"/>
    <path d="M 380.257034 253.045969 
L 380.257034 241.403569 
" clip-path="url(#p2ff6d6e048)" style="fill: none; stroke: #000000; stroke-width: 2"/>
    <path d="M 387.778556 253.045969 
L 387.778556 241.403569 
" clip-path="url(#p2ff6d6e048)" style="fill: none; stroke: #000000; stroke-width: 2"/>
    <path d="M 401.568013 253.045969 
L 401.568013 241.403569 
" clip-path="url(#p2ff6d6e048)" style="fill: none; stroke: #000000; stroke-width: 2"/>
   </g>
   <g id="patch_10">
    <path d="M 314.004958 253.045969 
L 314.004958 20.197969 
" style="fill: none; stroke: #000000; stroke-width: 0.9; stroke-linejoin: miter; stroke-linecap: square"/>
   </g>
   <g id="patch_11">
    <path d="M 314.004958 253.045969 
L 420.183781 253.045969 
" style="fill: none; stroke: #000000; stroke-width: 0.9; stroke-linejoin: miter; stroke-linecap: square"/>
   </g>
  </g>
 </g>
 <defs>
  <clipPath id="p6269e13d6d">
   <rect x="59.175781" y="20.197969" width="106.178824" height="232.848"/>
  </clipPath>
  <clipPath id="p26be8c31db">
   <rect x="186.590369" y="20.197969" width="106.178824" height="232.848"/>
  </clipPath>
  <clipPath id="p2ff6d6e048">
   <rect x="314.004958" y="20.197969" width="106.178824" height="232.848"/>
  </clipPath>
 </defs>
</svg>
