<?xml version="1.0" encoding="utf-8" standalone="no"?>
<!DOCTYPE svg PUBLIC "-//W3C//DTD SVG 1.1//EN"
  "http://www.w3.org/Graphics/SVG/1.1/DTD/svg11.dtd">
<svg xmlns:xlink="http://www.w3.org/1999/xlink" width="519.641441pt" height="289.463781pt" viewBox="0 0 519.641441 289.463781" xmlns="http://www.w3.org/2000/svg" version="1.1">
 <metadata>
  <rdf:RDF xmlns:dc="http://purl.org/dc/elements/1.1/" xmlns:cc="http://creativecommons.org/ns#" xmlns:rdf="http://www.w3.org/1999/02/22-rdf-syntax-ns#">
   <cc:Work>
    <dc:type rdf:resource="http://purl.org/dc/dcmitype/StillImage"/>
    <dc:date>2026-01-20T13:39:38.677172</dc:date>
    <dc:format>image/svg+xml</dc:format>
    <dc:creator>
     <cc:Agent>
      <dc:title>Matplotlib v3.7.2, https://matplotlib.org/</dc:title>
     </cc:Agent>
    </dc:creator>
   </cc:Work>
  </rdf:RDF>
 </metadata>
 <defs>
  <style type="text/css">*{stroke-linejoin: round; stroke-linecap: butt}</style>
 </defs>
 <g id="figure_1">
  <g id="patch_1">
   <path d="M -0 289.463781 
L 519.641441 289.463781 
L 519.641441 0 
L -0 0 
z
" style="fill: #ffffff"/>
  </g>
  <g id="axes_1">
   <g id="text_1">
    <g id="patch_2">
     <path d="M 427.403941 122.567062 
L 515.321441 122.567062 
Q 520.821441 122.567062 520.821441 117.067062 
L 520.821441 20.197969 
Q 520.821441 14.697969 515.321441 14.697969 
L 427.403941 14.697969 
Q 421.903941 14.697969 421.903941 20.197969 
L 421.903941 117.067062 
Q 421.903941 122.567062 427.403941 122.567062 
z
" style="fill: #ffffff; opacity: 0.95; stroke: #b2b2b2; stroke-linejoin: miter"/>
    </g>
    <!-- Target: SO2 -->
    <g transform="translate(427.403941 28.55625) scale(0.11 -0.11)">
     <defs>
      <path id="DejaVuSans-54" d="M -19 4666 
L 3928 4666 
L 3928 4134 
L 2272 4134 
L 2272 0 
L 1638 0 
L 1638 4134 
L -19 4134 
L -19 4666 
z
" transform="scale(0.015625)"/>
      <path id="DejaVuSans-61" d="M 2194 1759 
Q 1497 1759 1228 1600 
Q 959 1441 959 1056 
Q 959 750 1161 570 
Q 1363 391 1709 391 
Q 2188 391 2477 730 
Q 2766 1069 2766 1631 
L 2766 1759 
L 2194 1759 
z
M 3341 1997 
L 3341 0 
L 2766 0 
L 2766 531 
Q 2569 213 2275 61 
Q 1981 -91 1556 -91 
Q 1019 -91 701 211 
Q 384 513 384 1019 
Q 384 1609 779 1909 
Q 1175 2209 1959 2209 
L 2766 2209 
L 2766 2266 
Q 2766 2663 2505 2880 
Q 2244 3097 1772 3097 
Q 1472 3097 1187 3025 
Q 903 2953 641 2809 
L 641 3341 
Q 956 3463 1253 3523 
Q 1550 3584 1831 3584 
Q 2591 3584 2966 3190 
Q 3341 2797 3341 1997 
z
" transform="scale(0.015625)"/>
      <path id="DejaVuSans-72" d="M 2631 2963 
Q 2534 3019 2420 3045 
Q 2306 3072 2169 3072 
Q 1681 3072 1420 2755 
Q 1159 2438 1159 1844 
L 1159 0 
L 581 0 
L 581 3500 
L 1159 3500 
L 1159 2956 
Q 1341 3275 1631 3429 
Q 1922 3584 2338 3584 
Q 2397 3584 2469 3576 
Q 2541 3569 2628 3553 
L 2631 2963 
z
" transform="scale(0.015625)"/>
      <path id="DejaVuSans-67" d="M 2906 1791 
Q 2906 2416 2648 2759 
Q 2391 3103 1925 3103 
Q 1463 3103 1205 2759 
Q 947 2416 947 1791 
Q 947 1169 1205 825 
Q 1463 481 1925 481 
Q 2391 481 2648 825 
Q 2906 1169 2906 1791 
z
M 3481 434 
Q 3481 -459 3084 -895 
Q 2688 -1331 1869 -1331 
Q 1566 -1331 1297 -1286 
Q 1028 -1241 775 -1147 
L 775 -588 
Q 1028 -725 1275 -790 
Q 1522 -856 1778 -856 
Q 2344 -856 2625 -561 
Q 2906 -266 2906 331 
L 2906 616 
Q 2728 306 2450 153 
Q 2172 0 1784 0 
Q 1141 0 747 490 
Q 353 981 353 1791 
Q 353 2603 747 3093 
Q 1141 3584 1784 3584 
Q 2172 3584 2450 3431 
Q 2728 3278 2906 2969 
L 2906 3500 
L 3481 3500 
L 3481 434 
z
" transform="scale(0.015625)"/>
      <path id="DejaVuSans-65" d="M 3597 1894 
L 3597 1613 
L 953 1613 
Q 991 1019 1311 708 
Q 1631 397 2203 397 
Q 2534 397 2845 478 
Q 3156 559 3463 722 
L 3463 178 
Q 3153 47 2828 -22 
Q 2503 -91 2169 -91 
Q 1331 -91 842 396 
Q 353 884 353 1716 
Q 353 2575 817 3079 
Q 1281 3584 2069 3584 
Q 2775 3584 3186 3129 
Q 3597 2675 3597 1894 
z
M 3022 2063 
Q 3016 2534 2758 2815 
Q 2500 3097 2075 3097 
Q 1594 3097 1305 2825 
Q 1016 2553 972 2059 
L 3022 2063 
z
" transform="scale(0.015625)"/>
      <path id="DejaVuSans-74" d="M 1172 4494 
L 1172 3500 
L 2356 3500 
L 2356 3053 
L 1172 3053 
L 1172 1153 
Q 1172 725 1289 603 
Q 1406 481 1766 481 
L 2356 481 
L 2356 0 
L 1766 0 
Q 1100 0 847 248 
Q 594 497 594 1153 
L 594 3053 
L 172 3053 
L 172 3500 
L 594 3500 
L 594 4494 
L 1172 4494 
z
" transform="scale(0.015625)"/>
      <path id="DejaVuSans-3a" d="M 750 794 
L 1409 794 
L 1409 0 
L 750 0 
L 750 794 
z
M 750 3309 
L 1409 3309 
L 1409 2516 
L 750 2516 
L 750 3309 
z
" transform="scale(0.015625)"/>
      <path id="DejaVuSans-20" transform="scale(0.015625)"/>
      <path id="DejaVuSans-53" d="M 3425 4513 
L 3425 3897 
Q 3066 4069 2747 4153 
Q 2428 4238 2131 4238 
Q 1616 4238 1336 4038 
Q 1056 3838 1056 3469 
Q 1056 3159 1242 3001 
Q 1428 2844 1947 2747 
L 2328 2669 
Q 3034 2534 3370 2195 
Q 3706 1856 3706 1288 
Q 3706 609 3251 259 
Q 2797 -91 1919 -91 
Q 1588 -91 1214 -16 
Q 841 59 441 206 
L 441 856 
Q 825 641 1194 531 
Q 1563 422 1919 422 
Q 2459 422 2753 634 
Q 3047 847 3047 1241 
Q 3047 1584 2836 1778 
Q 2625 1972 2144 2069 
L 1759 2144 
Q 1053 2284 737 2584 
Q 422 2884 422 3419 
Q 422 4038 858 4394 
Q 1294 4750 2059 4750 
Q 2388 4750 2728 4690 
Q 3069 4631 3425 4513 
z
" transform="scale(0.015625)"/>
      <path id="DejaVuSans-4f" d="M 2522 4238 
Q 1834 4238 1429 3725 
Q 1025 3213 1025 2328 
Q 1025 1447 1429 934 
Q 1834 422 2522 422 
Q 3209 422 3611 934 
Q 4013 1447 4013 2328 
Q 4013 3213 3611 3725 
Q 3209 4238 2522 4238 
z
M 2522 4750 
Q 3503 4750 4090 4092 
Q 4678 3434 4678 2328 
Q 4678 1225 4090 567 
Q 3503 -91 2522 -91 
Q 1538 -91 948 565 
Q 359 1222 359 2328 
Q 359 3434 948 4092 
Q 1538 4750 2522 4750 
z
" transform="scale(0.015625)"/>
      <path id="DejaVuSans-32" d="M 1228 531 
L 3431 531 
L 3431 0 
L 469 0 
L 469 531 
Q 828 903 1448 1529 
Q 2069 2156 2228 2338 
Q 2531 2678 2651 2914 
Q 2772 3150 2772 3378 
Q 2772 3750 2511 3984 
Q 2250 4219 1831 4219 
Q 1534 4219 1204 4116 
Q 875 4013 500 3803 
L 500 4441 
Q 881 4594 1212 4672 
Q 1544 4750 1819 4750 
Q 2544 4750 2975 4387 
Q 3406 4025 3406 3419 
Q 3406 3131 3298 2873 
Q 3191 2616 2906 2266 
Q 2828 2175 2409 1742 
Q 1991 1309 1228 531 
z
" transform="scale(0.015625)"/>
     </defs>
     <use xlink:href="#DejaVuSans-54"/>
     <use xlink:href="#DejaVuSans-61" x="44.583984"/>
     <use xlink:href="#DejaVuSans-72" x="105.863281"/>
     <use xlink:href="#DejaVuSans-67" x="145.226562"/>
     <use xlink:href="#DejaVuSans-65" x="208.703125"/>
     <use xlink:href="#DejaVuSans-74" x="270.226562"/>
     <use xlink:href="#DejaVuSans-3a" x="309.435547"/>
     <use xlink:href="#DejaVuSans-20" x="343.126953"/>
     <use xlink:href="#DejaVuSans-53" x="374.914062"/>
     <use xlink:href="#DejaVuSans-4f" x="438.390625"/>
     <use xlink:href="#DejaVuSans-32" x="517.101562"/>
    </g>
    <!-- Best: HGBR -->
    <g transform="translate(427.403941 40.873844) scale(0.11 -0.11)">
     <defs>
      <path id="DejaVuSans-42" d="M 1259 2228 
L 1259 519 
L 2272 519 
Q 2781 519 3026 730 
Q 3272 941 3272 1375 
Q 3272 1813 3026 2020 
Q 2781 2228 2272 2228 
L 1259 2228 
z
M 1259 4147 
L 1259 2741 
L 2194 2741 
Q 2656 2741 2882 2914 
Q 3109 3088 3109 3444 
Q 3109 3797 2882 3972 
Q 2656 4147 2194 4147 
L 1259 4147 
z
M 628 4666 
L 2241 4666 
Q 2963 4666 3353 4366 
Q 3744 4066 3744 3513 
Q 3744 3084 3544 2831 
Q 3344 2578 2956 2516 
Q 3422 2416 3680 2098 
Q 3938 1781 3938 1306 
Q 3938 681 3513 340 
Q 3088 0 2303 0 
L 628 0 
L 628 4666 
z
" transform="scale(0.015625)"/>
      <path id="DejaVuSans-73" d="M 2834 3397 
L 2834 2853 
Q 2591 2978 2328 3040 
Q 2066 3103 1784 3103 
Q 1356 3103 1142 2972 
Q 928 2841 928 2578 
Q 928 2378 1081 2264 
Q 1234 2150 1697 2047 
L 1894 2003 
Q 2506 1872 2764 1633 
Q 3022 1394 3022 966 
Q 3022 478 2636 193 
Q 2250 -91 1575 -91 
Q 1294 -91 989 -36 
Q 684 19 347 128 
L 347 722 
Q 666 556 975 473 
Q 1284 391 1588 391 
Q 1994 391 2212 530 
Q 2431 669 2431 922 
Q 2431 1156 2273 1281 
Q 2116 1406 1581 1522 
L 1381 1569 
Q 847 1681 609 1914 
Q 372 2147 372 2553 
Q 372 3047 722 3315 
Q 1072 3584 1716 3584 
Q 2034 3584 2315 3537 
Q 2597 3491 2834 3397 
z
" transform="scale(0.015625)"/>
      <path id="DejaVuSans-48" d="M 628 4666 
L 1259 4666 
L 1259 2753 
L 3553 2753 
L 3553 4666 
L 4184 4666 
L 4184 0 
L 3553 0 
L 3553 2222 
L 1259 2222 
L 1259 0 
L 628 0 
L 628 4666 
z
" transform="scale(0.015625)"/>
      <path id="DejaVuSans-47" d="M 3809 666 
L 3809 1919 
L 2778 1919 
L 2778 2438 
L 4434 2438 
L 4434 434 
Q 4069 175 3628 42 
Q 3188 -91 2688 -91 
Q 1594 -91 976 548 
Q 359 1188 359 2328 
Q 359 3472 976 4111 
Q 1594 4750 2688 4750 
Q 3144 4750 3555 4637 
Q 3966 4525 4313 4306 
L 4313 3634 
Q 3963 3931 3569 4081 
Q 3175 4231 2741 4231 
Q 1884 4231 1454 3753 
Q 1025 3275 1025 2328 
Q 1025 1384 1454 906 
Q 1884 428 2741 428 
Q 3075 428 3337 486 
Q 3600 544 3809 666 
z
" transform="scale(0.015625)"/>
      <path id="DejaVuSans-52" d="M 2841 2188 
Q 3044 2119 3236 1894 
Q 3428 1669 3622 1275 
L 4263 0 
L 3584 0 
L 2988 1197 
Q 2756 1666 2539 1819 
Q 2322 1972 1947 1972 
L 1259 1972 
L 1259 0 
L 628 0 
L 628 4666 
L 2053 4666 
Q 2853 4666 3247 4331 
Q 3641 3997 3641 3322 
Q 3641 2881 3436 2590 
Q 3231 2300 2841 2188 
z
M 1259 4147 
L 1259 2491 
L 2053 2491 
Q 2509 2491 2742 2702 
Q 2975 2913 2975 3322 
Q 2975 3731 2742 3939 
Q 2509 4147 2053 4147 
L 1259 4147 
z
" transform="scale(0.015625)"/>
     </defs>
     <use xlink:href="#DejaVuSans-42"/>
     <use xlink:href="#DejaVuSans-65" x="68.603516"/>
     <use xlink:href="#DejaVuSans-73" x="130.126953"/>
     <use xlink:href="#DejaVuSans-74" x="182.226562"/>
     <use xlink:href="#DejaVuSans-3a" x="221.435547"/>
     <use xlink:href="#DejaVuSans-20" x="255.126953"/>
     <use xlink:href="#DejaVuSans-48" x="286.914062"/>
     <use xlink:href="#DejaVuSans-47" x="362.109375"/>
     <use xlink:href="#DejaVuSans-42" x="439.599609"/>
     <use xlink:href="#DejaVuSans-52" x="508.203125"/>
    </g>
    <!-- CV RMSE: 2.34 -->
    <g transform="translate(427.403941 53.191437) scale(0.11 -0.11)">
     <defs>
      <path id="DejaVuSans-43" d="M 4122 4306 
L 4122 3641 
Q 3803 3938 3442 4084 
Q 3081 4231 2675 4231 
Q 1875 4231 1450 3742 
Q 1025 3253 1025 2328 
Q 1025 1406 1450 917 
Q 1875 428 2675 428 
Q 3081 428 3442 575 
Q 3803 722 4122 1019 
L 4122 359 
Q 3791 134 3420 21 
Q 3050 -91 2638 -91 
Q 1578 -91 968 557 
Q 359 1206 359 2328 
Q 359 3453 968 4101 
Q 1578 4750 2638 4750 
Q 3056 4750 3426 4639 
Q 3797 4528 4122 4306 
z
" transform="scale(0.015625)"/>
      <path id="DejaVuSans-56" d="M 1831 0 
L 50 4666 
L 709 4666 
L 2188 738 
L 3669 4666 
L 4325 4666 
L 2547 0 
L 1831 0 
z
" transform="scale(0.015625)"/>
      <path id="DejaVuSans-4d" d="M 628 4666 
L 1569 4666 
L 2759 1491 
L 3956 4666 
L 4897 4666 
L 4897 0 
L 4281 0 
L 4281 4097 
L 3078 897 
L 2444 897 
L 1241 4097 
L 1241 0 
L 628 0 
L 628 4666 
z
" transform="scale(0.015625)"/>
      <path id="DejaVuSans-45" d="M 628 4666 
L 3578 4666 
L 3578 4134 
L 1259 4134 
L 1259 2753 
L 3481 2753 
L 3481 2222 
L 1259 2222 
L 1259 531 
L 3634 531 
L 3634 0 
L 628 0 
L 628 4666 
z
" transform="scale(0.015625)"/>
      <path id="DejaVuSans-2e" d="M 684 794 
L 1344 794 
L 1344 0 
L 684 0 
L 684 794 
z
" transform="scale(0.015625)"/>
      <path id="DejaVuSans-33" d="M 2597 2516 
Q 3050 2419 3304 2112 
Q 3559 1806 3559 1356 
Q 3559 666 3084 287 
Q 2609 -91 1734 -91 
Q 1441 -91 1130 -33 
Q 819 25 488 141 
L 488 750 
Q 750 597 1062 519 
Q 1375 441 1716 441 
Q 2309 441 2620 675 
Q 2931 909 2931 1356 
Q 2931 1769 2642 2001 
Q 2353 2234 1838 2234 
L 1294 2234 
L 1294 2753 
L 1863 2753 
Q 2328 2753 2575 2939 
Q 2822 3125 2822 3475 
Q 2822 3834 2567 4026 
Q 2313 4219 1838 4219 
Q 1578 4219 1281 4162 
Q 984 4106 628 3988 
L 628 4550 
Q 988 4650 1302 4700 
Q 1616 4750 1894 4750 
Q 2613 4750 3031 4423 
Q 3450 4097 3450 3541 
Q 3450 3153 3228 2886 
Q 3006 2619 2597 2516 
z
" transform="scale(0.015625)"/>
      <path id="DejaVuSans-34" d="M 2419 4116 
L 825 1625 
L 2419 1625 
L 2419 4116 
z
M 2253 4666 
L 3047 4666 
L 3047 1625 
L 3713 1625 
L 3713 1100 
L 3047 1100 
L 3047 0 
L 2419 0 
L 2419 1100 
L 313 1100 
L 313 1709 
L 2253 4666 
z
" transform="scale(0.015625)"/>
     </defs>
     <use xlink:href="#DejaVuSans-43"/>
     <use xlink:href="#DejaVuSans-56" x="69.824219"/>
     <use xlink:href="#DejaVuSans-20" x="138.232422"/>
     <use xlink:href="#DejaVuSans-52" x="170.019531"/>
     <use xlink:href="#DejaVuSans-4d" x="239.501953"/>
     <use xlink:href="#DejaVuSans-53" x="325.78125"/>
     <use xlink:href="#DejaVuSans-45" x="389.257812"/>
     <use xlink:href="#DejaVuSans-3a" x="452.441406"/>
     <use xlink:href="#DejaVuSans-20" x="486.132812"/>
     <use xlink:href="#DejaVuSans-32" x="517.919922"/>
     <use xlink:href="#DejaVuSans-2e" x="581.542969"/>
     <use xlink:href="#DejaVuSans-33" x="613.330078"/>
     <use xlink:href="#DejaVuSans-34" x="676.953125"/>
    </g>
    <!-- Test RMSE: 2.29 -->
    <g transform="translate(427.403941 65.509031) scale(0.11 -0.11)">
     <defs>
      <path id="DejaVuSans-39" d="M 703 97 
L 703 672 
Q 941 559 1184 500 
Q 1428 441 1663 441 
Q 2288 441 2617 861 
Q 2947 1281 2994 2138 
Q 2813 1869 2534 1725 
Q 2256 1581 1919 1581 
Q 1219 1581 811 2004 
Q 403 2428 403 3163 
Q 403 3881 828 4315 
Q 1253 4750 1959 4750 
Q 2769 4750 3195 4129 
Q 3622 3509 3622 2328 
Q 3622 1225 3098 567 
Q 2575 -91 1691 -91 
Q 1453 -91 1209 -44 
Q 966 3 703 97 
z
M 1959 2075 
Q 2384 2075 2632 2365 
Q 2881 2656 2881 3163 
Q 2881 3666 2632 3958 
Q 2384 4250 1959 4250 
Q 1534 4250 1286 3958 
Q 1038 3666 1038 3163 
Q 1038 2656 1286 2365 
Q 1534 2075 1959 2075 
z
" transform="scale(0.015625)"/>
     </defs>
     <use xlink:href="#DejaVuSans-54"/>
     <use xlink:href="#DejaVuSans-65" x="44.083984"/>
     <use xlink:href="#DejaVuSans-73" x="105.607422"/>
     <use xlink:href="#DejaVuSans-74" x="157.707031"/>
     <use xlink:href="#DejaVuSans-20" x="196.916016"/>
     <use xlink:href="#DejaVuSans-52" x="228.703125"/>
     <use xlink:href="#DejaVuSans-4d" x="298.185547"/>
     <use xlink:href="#DejaVuSans-53" x="384.464844"/>
     <use xlink:href="#DejaVuSans-45" x="447.941406"/>
     <use xlink:href="#DejaVuSans-3a" x="511.125"/>
     <use xlink:href="#DejaVuSans-20" x="544.816406"/>
     <use xlink:href="#DejaVuSans-32" x="576.603516"/>
     <use xlink:href="#DejaVuSans-2e" x="640.226562"/>
     <use xlink:href="#DejaVuSans-32" x="672.013672"/>
     <use xlink:href="#DejaVuSans-39" x="735.636719"/>
    </g>
    <!-- Test MAE: 1.78 -->
    <g transform="translate(427.403941 77.826625) scale(0.11 -0.11)">
     <defs>
      <path id="DejaVuSans-41" d="M 2188 4044 
L 1331 1722 
L 3047 1722 
L 2188 4044 
z
M 1831 4666 
L 2547 4666 
L 4325 0 
L 3669 0 
L 3244 1197 
L 1141 1197 
L 716 0 
L 50 0 
L 1831 4666 
z
" transform="scale(0.015625)"/>
      <path id="DejaVuSans-31" d="M 794 531 
L 1825 531 
L 1825 4091 
L 703 3866 
L 703 4441 
L 1819 4666 
L 2450 4666 
L 2450 531 
L 3481 531 
L 3481 0 
L 794 0 
L 794 531 
z
" transform="scale(0.015625)"/>
      <path id="DejaVuSans-37" d="M 525 4666 
L 3525 4666 
L 3525 4397 
L 1831 0 
L 1172 0 
L 2766 4134 
L 525 4134 
L 525 4666 
z
" transform="scale(0.015625)"/>
      <path id="DejaVuSans-38" d="M 2034 2216 
Q 1584 2216 1326 1975 
Q 1069 1734 1069 1313 
Q 1069 891 1326 650 
Q 1584 409 2034 409 
Q 2484 409 2743 651 
Q 3003 894 3003 1313 
Q 3003 1734 2745 1975 
Q 2488 2216 2034 2216 
z
M 1403 2484 
Q 997 2584 770 2862 
Q 544 3141 544 3541 
Q 544 4100 942 4425 
Q 1341 4750 2034 4750 
Q 2731 4750 3128 4425 
Q 3525 4100 3525 3541 
Q 3525 3141 3298 2862 
Q 3072 2584 2669 2484 
Q 3125 2378 3379 2068 
Q 3634 1759 3634 1313 
Q 3634 634 3220 271 
Q 2806 -91 2034 -91 
Q 1263 -91 848 271 
Q 434 634 434 1313 
Q 434 1759 690 2068 
Q 947 2378 1403 2484 
z
M 1172 3481 
Q 1172 3119 1398 2916 
Q 1625 2713 2034 2713 
Q 2441 2713 2670 2916 
Q 2900 3119 2900 3481 
Q 2900 3844 2670 4047 
Q 2441 4250 2034 4250 
Q 1625 4250 1398 4047 
Q 1172 3844 1172 3481 
z
" transform="scale(0.015625)"/>
     </defs>
     <use xlink:href="#DejaVuSans-54"/>
     <use xlink:href="#DejaVuSans-65" x="44.083984"/>
     <use xlink:href="#DejaVuSans-73" x="105.607422"/>
     <use xlink:href="#DejaVuSans-74" x="157.707031"/>
     <use xlink:href="#DejaVuSans-20" x="196.916016"/>
     <use xlink:href="#DejaVuSans-4d" x="228.703125"/>
     <use xlink:href="#DejaVuSans-41" x="314.982422"/>
     <use xlink:href="#DejaVuSans-45" x="383.390625"/>
     <use xlink:href="#DejaVuSans-3a" x="446.574219"/>
     <use xlink:href="#DejaVuSans-20" x="480.265625"/>
     <use xlink:href="#DejaVuSans-31" x="512.052734"/>
     <use xlink:href="#DejaVuSans-2e" x="575.675781"/>
     <use xlink:href="#DejaVuSans-37" x="607.462891"/>
     <use xlink:href="#DejaVuSans-38" x="671.085938"/>
    </g>
    <!-- N(train): 2248 -->
    <g transform="translate(427.403941 90.144219) scale(0.11 -0.11)">
     <defs>
      <path id="DejaVuSans-4e" d="M 628 4666 
L 1478 4666 
L 3547 763 
L 3547 4666 
L 4159 4666 
L 4159 0 
L 3309 0 
L 1241 3903 
L 1241 0 
L 628 0 
L 628 4666 
z
" transform="scale(0.015625)"/>
      <path id="DejaVuSans-28" d="M 1984 4856 
Q 1566 4138 1362 3434 
Q 1159 2731 1159 2009 
Q 1159 1288 1364 580 
Q 1569 -128 1984 -844 
L 1484 -844 
Q 1016 -109 783 600 
Q 550 1309 550 2009 
Q 550 2706 781 3412 
Q 1013 4119 1484 4856 
L 1984 4856 
z
" transform="scale(0.015625)"/>
      <path id="DejaVuSans-69" d="M 603 3500 
L 1178 3500 
L 1178 0 
L 603 0 
L 603 3500 
z
M 603 4863 
L 1178 4863 
L 1178 4134 
L 603 4134 
L 603 4863 
z
" transform="scale(0.015625)"/>
      <path id="DejaVuSans-6e" d="M 3513 2113 
L 3513 0 
L 2938 0 
L 2938 2094 
Q 2938 2591 2744 2837 
Q 2550 3084 2163 3084 
Q 1697 3084 1428 2787 
Q 1159 2491 1159 1978 
L 1159 0 
L 581 0 
L 581 3500 
L 1159 3500 
L 1159 2956 
Q 1366 3272 1645 3428 
Q 1925 3584 2291 3584 
Q 2894 3584 3203 3211 
Q 3513 2838 3513 2113 
z
" transform="scale(0.015625)"/>
      <path id="DejaVuSans-29" d="M 513 4856 
L 1013 4856 
Q 1481 4119 1714 3412 
Q 1947 2706 1947 2009 
Q 1947 1309 1714 600 
Q 1481 -109 1013 -844 
L 513 -844 
Q 928 -128 1133 580 
Q 1338 1288 1338 2009 
Q 1338 2731 1133 3434 
Q 928 4138 513 4856 
z
" transform="scale(0.015625)"/>
     </defs>
     <use xlink:href="#DejaVuSans-4e"/>
     <use xlink:href="#DejaVuSans-28" x="74.804688"/>
     <use xlink:href="#DejaVuSans-74" x="113.818359"/>
     <use xlink:href="#DejaVuSans-72" x="153.027344"/>
     <use xlink:href="#DejaVuSans-61" x="194.140625"/>
     <use xlink:href="#DejaVuSans-69" x="255.419922"/>
     <use xlink:href="#DejaVuSans-6e" x="283.203125"/>
     <use xlink:href="#DejaVuSans-29" x="346.582031"/>
     <use xlink:href="#DejaVuSans-3a" x="385.595703"/>
     <use xlink:href="#DejaVuSans-20" x="419.287109"/>
     <use xlink:href="#DejaVuSans-32" x="451.074219"/>
     <use xlink:href="#DejaVuSans-32" x="514.697266"/>
     <use xlink:href="#DejaVuSans-34" x="578.320312"/>
     <use xlink:href="#DejaVuSans-38" x="641.943359"/>
    </g>
    <!-- N(test):  562 -->
    <g transform="translate(427.403941 102.461812) scale(0.11 -0.11)">
     <defs>
      <path id="DejaVuSans-35" d="M 691 4666 
L 3169 4666 
L 3169 4134 
L 1269 4134 
L 1269 2991 
Q 1406 3038 1543 3061 
Q 1681 3084 1819 3084 
Q 2600 3084 3056 2656 
Q 3513 2228 3513 1497 
Q 3513 744 3044 326 
Q 2575 -91 1722 -91 
Q 1428 -91 1123 -41 
Q 819 9 494 109 
L 494 744 
Q 775 591 1075 516 
Q 1375 441 1709 441 
Q 2250 441 2565 725 
Q 2881 1009 2881 1497 
Q 2881 1984 2565 2268 
Q 2250 2553 1709 2553 
Q 1456 2553 1204 2497 
Q 953 2441 691 2322 
L 691 4666 
z
" transform="scale(0.015625)"/>
      <path id="DejaVuSans-36" d="M 2113 2584 
Q 1688 2584 1439 2293 
Q 1191 2003 1191 1497 
Q 1191 994 1439 701 
Q 1688 409 2113 409 
Q 2538 409 2786 701 
Q 3034 994 3034 1497 
Q 3034 2003 2786 2293 
Q 2538 2584 2113 2584 
z
M 3366 4563 
L 3366 3988 
Q 3128 4100 2886 4159 
Q 2644 4219 2406 4219 
Q 1781 4219 1451 3797 
Q 1122 3375 1075 2522 
Q 1259 2794 1537 2939 
Q 1816 3084 2150 3084 
Q 2853 3084 3261 2657 
Q 3669 2231 3669 1497 
Q 3669 778 3244 343 
Q 2819 -91 2113 -91 
Q 1303 -91 875 529 
Q 447 1150 447 2328 
Q 447 3434 972 4092 
Q 1497 4750 2381 4750 
Q 2619 4750 2861 4703 
Q 3103 4656 3366 4563 
z
" transform="scale(0.015625)"/>
     </defs>
     <use xlink:href="#DejaVuSans-4e"/>
     <use xlink:href="#DejaVuSans-28" x="74.804688"/>
     <use xlink:href="#DejaVuSans-74" x="113.818359"/>
     <use xlink:href="#DejaVuSans-65" x="153.027344"/>
     <use xlink:href="#DejaVuSans-73" x="214.550781"/>
     <use xlink:href="#DejaVuSans-74" x="266.650391"/>
     <use xlink:href="#DejaVuSans-29" x="305.859375"/>
     <use xlink:href="#DejaVuSans-3a" x="344.873047"/>
     <use xlink:href="#DejaVuSans-20" x="378.564453"/>
     <use xlink:href="#DejaVuSans-20" x="410.351562"/>
     <use xlink:href="#DejaVuSans-35" x="442.138672"/>
     <use xlink:href="#DejaVuSans-36" x="505.761719"/>
     <use xlink:href="#DejaVuSans-32" x="569.384766"/>
    </g>
    <!-- tol=±5 min -->
    <g transform="translate(427.403941 114.779406) scale(0.11 -0.11)">
     <defs>
      <path id="DejaVuSans-6f" d="M 1959 3097 
Q 1497 3097 1228 2736 
Q 959 2375 959 1747 
Q 959 1119 1226 758 
Q 1494 397 1959 397 
Q 2419 397 2687 759 
Q 2956 1122 2956 1747 
Q 2956 2369 2687 2733 
Q 2419 3097 1959 3097 
z
M 1959 3584 
Q 2709 3584 3137 3096 
Q 3566 2609 3566 1747 
Q 3566 888 3137 398 
Q 2709 -91 1959 -91 
Q 1206 -91 779 398 
Q 353 888 353 1747 
Q 353 2609 779 3096 
Q 1206 3584 1959 3584 
z
" transform="scale(0.015625)"/>
      <path id="DejaVuSans-6c" d="M 603 4863 
L 1178 4863 
L 1178 0 
L 603 0 
L 603 4863 
z
" transform="scale(0.015625)"/>
      <path id="DejaVuSans-3d" d="M 678 2906 
L 4684 2906 
L 4684 2381 
L 678 2381 
L 678 2906 
z
M 678 1631 
L 4684 1631 
L 4684 1100 
L 678 1100 
L 678 1631 
z
" transform="scale(0.015625)"/>
      <path id="DejaVuSans-b1" d="M 2944 4013 
L 2944 2803 
L 4684 2803 
L 4684 2272 
L 2944 2272 
L 2944 1063 
L 2419 1063 
L 2419 2272 
L 678 2272 
L 678 2803 
L 2419 2803 
L 2419 4013 
L 2944 4013 
z
M 678 531 
L 4684 531 
L 4684 0 
L 678 0 
L 678 531 
z
" transform="scale(0.015625)"/>
      <path id="DejaVuSans-6d" d="M 3328 2828 
Q 3544 3216 3844 3400 
Q 4144 3584 4550 3584 
Q 5097 3584 5394 3201 
Q 5691 2819 5691 2113 
L 5691 0 
L 5113 0 
L 5113 2094 
Q 5113 2597 4934 2840 
Q 4756 3084 4391 3084 
Q 3944 3084 3684 2787 
Q 3425 2491 3425 1978 
L 3425 0 
L 2847 0 
L 2847 2094 
Q 2847 2600 2669 2842 
Q 2491 3084 2119 3084 
Q 1678 3084 1418 2786 
Q 1159 2488 1159 1978 
L 1159 0 
L 581 0 
L 581 3500 
L 1159 3500 
L 1159 2956 
Q 1356 3278 1631 3431 
Q 1906 3584 2284 3584 
Q 2666 3584 2933 3390 
Q 3200 3197 3328 2828 
z
" transform="scale(0.015625)"/>
     </defs>
     <use xlink:href="#DejaVuSans-74"/>
     <use xlink:href="#DejaVuSans-6f" x="39.208984"/>
     <use xlink:href="#DejaVuSans-6c" x="100.390625"/>
     <use xlink:href="#DejaVuSans-3d" x="128.173828"/>
     <use xlink:href="#DejaVuSans-b1" x="211.962891"/>
     <use xlink:href="#DejaVuSans-35" x="295.751953"/>
     <use xlink:href="#DejaVuSans-20" x="359.375"/>
     <use xlink:href="#DejaVuSans-6d" x="391.162109"/>
     <use xlink:href="#DejaVuSans-69" x="488.574219"/>
     <use xlink:href="#DejaVuSans-6e" x="516.357422"/>
    </g>
   </g>
   <g id="text_2">
    <!-- [SO2] Partial dependence (direction of key factors) -->
    <g transform="translate(74.595016 14.197969) scale(0.13 -0.13)">
     <defs>
      <path id="DejaVuSans-5b" d="M 550 4863 
L 1875 4863 
L 1875 4416 
L 1125 4416 
L 1125 -397 
L 1875 -397 
L 1875 -844 
L 550 -844 
L 550 4863 
z
" transform="scale(0.015625)"/>
      <path id="DejaVuSans-5d" d="M 1947 4863 
L 1947 -844 
L 622 -844 
L 622 -397 
L 1369 -397 
L 1369 4416 
L 622 4416 
L 622 4863 
L 1947 4863 
z
" transform="scale(0.015625)"/>
      <path id="DejaVuSans-50" d="M 1259 4147 
L 1259 2394 
L 2053 2394 
Q 2494 2394 2734 2622 
Q 2975 2850 2975 3272 
Q 2975 3691 2734 3919 
Q 2494 4147 2053 4147 
L 1259 4147 
z
M 628 4666 
L 2053 4666 
Q 2838 4666 3239 4311 
Q 3641 3956 3641 3272 
Q 3641 2581 3239 2228 
Q 2838 1875 2053 1875 
L 1259 1875 
L 1259 0 
L 628 0 
L 628 4666 
z
" transform="scale(0.015625)"/>
      <path id="DejaVuSans-64" d="M 2906 2969 
L 2906 4863 
L 3481 4863 
L 3481 0 
L 2906 0 
L 2906 525 
Q 2725 213 2448 61 
Q 2172 -91 1784 -91 
Q 1150 -91 751 415 
Q 353 922 353 1747 
Q 353 2572 751 3078 
Q 1150 3584 1784 3584 
Q 2172 3584 2448 3432 
Q 2725 3281 2906 2969 
z
M 947 1747 
Q 947 1113 1208 752 
Q 1469 391 1925 391 
Q 2381 391 2643 752 
Q 2906 1113 2906 1747 
Q 2906 2381 2643 2742 
Q 2381 3103 1925 3103 
Q 1469 3103 1208 2742 
Q 947 2381 947 1747 
z
" transform="scale(0.015625)"/>
      <path id="DejaVuSans-70" d="M 1159 525 
L 1159 -1331 
L 581 -1331 
L 581 3500 
L 1159 3500 
L 1159 2969 
Q 1341 3281 1617 3432 
Q 1894 3584 2278 3584 
Q 2916 3584 3314 3078 
Q 3713 2572 3713 1747 
Q 3713 922 3314 415 
Q 2916 -91 2278 -91 
Q 1894 -91 1617 61 
Q 1341 213 1159 525 
z
M 3116 1747 
Q 3116 2381 2855 2742 
Q 2594 3103 2138 3103 
Q 1681 3103 1420 2742 
Q 1159 2381 1159 1747 
Q 1159 1113 1420 752 
Q 1681 391 2138 391 
Q 2594 391 2855 752 
Q 3116 1113 3116 1747 
z
" transform="scale(0.015625)"/>
      <path id="DejaVuSans-63" d="M 3122 3366 
L 3122 2828 
Q 2878 2963 2633 3030 
Q 2388 3097 2138 3097 
Q 1578 3097 1268 2742 
Q 959 2388 959 1747 
Q 959 1106 1268 751 
Q 1578 397 2138 397 
Q 2388 397 2633 464 
Q 2878 531 3122 666 
L 3122 134 
Q 2881 22 2623 -34 
Q 2366 -91 2075 -91 
Q 1284 -91 818 406 
Q 353 903 353 1747 
Q 353 2603 823 3093 
Q 1294 3584 2113 3584 
Q 2378 3584 2631 3529 
Q 2884 3475 3122 3366 
z
" transform="scale(0.015625)"/>
      <path id="DejaVuSans-66" d="M 2375 4863 
L 2375 4384 
L 1825 4384 
Q 1516 4384 1395 4259 
Q 1275 4134 1275 3809 
L 1275 3500 
L 2222 3500 
L 2222 3053 
L 1275 3053 
L 1275 0 
L 697 0 
L 697 3053 
L 147 3053 
L 147 3500 
L 697 3500 
L 697 3744 
Q 697 4328 969 4595 
Q 1241 4863 1831 4863 
L 2375 4863 
z
" transform="scale(0.015625)"/>
      <path id="DejaVuSans-6b" d="M 581 4863 
L 1159 4863 
L 1159 1991 
L 2875 3500 
L 3609 3500 
L 1753 1863 
L 3688 0 
L 2938 0 
L 1159 1709 
L 1159 0 
L 581 0 
L 581 4863 
z
" transform="scale(0.015625)"/>
      <path id="DejaVuSans-79" d="M 2059 -325 
Q 1816 -950 1584 -1140 
Q 1353 -1331 966 -1331 
L 506 -1331 
L 506 -850 
L 844 -850 
Q 1081 -850 1212 -737 
Q 1344 -625 1503 -206 
L 1606 56 
L 191 3500 
L 800 3500 
L 1894 763 
L 2988 3500 
L 3597 3500 
L 2059 -325 
z
" transform="scale(0.015625)"/>
     </defs>
     <use xlink:href="#DejaVuSans-5b"/>
     <use xlink:href="#DejaVuSans-53" x="39.013672"/>
     <use xlink:href="#DejaVuSans-4f" x="102.490234"/>
     <use xlink:href="#DejaVuSans-32" x="181.201172"/>
     <use xlink:href="#DejaVuSans-5d" x="244.824219"/>
     <use xlink:href="#DejaVuSans-20" x="283.837891"/>
     <use xlink:href="#DejaVuSans-50" x="315.625"/>
     <use xlink:href="#DejaVuSans-61" x="371.427734"/>
     <use xlink:href="#DejaVuSans-72" x="432.707031"/>
     <use xlink:href="#DejaVuSans-74" x="473.820312"/>
     <use xlink:href="#DejaVuSans-69" x="513.029297"/>
     <use xlink:href="#DejaVuSans-61" x="540.8125"/>
     <use xlink:href="#DejaVuSans-6c" x="602.091797"/>
     <use xlink:href="#DejaVuSans-20" x="629.875"/>
     <use xlink:href="#DejaVuSans-64" x="661.662109"/>
     <use xlink:href="#DejaVuSans-65" x="725.138672"/>
     <use xlink:href="#DejaVuSans-70" x="786.662109"/>
     <use xlink:href="#DejaVuSans-65" x="850.138672"/>
     <use xlink:href="#DejaVuSans-6e" x="911.662109"/>
     <use xlink:href="#DejaVuSans-64" x="975.041016"/>
     <use xlink:href="#DejaVuSans-65" x="1038.517578"/>
     <use xlink:href="#DejaVuSans-6e" x="1100.041016"/>
     <use xlink:href="#DejaVuSans-63" x="1163.419922"/>
     <use xlink:href="#DejaVuSans-65" x="1218.400391"/>
     <use xlink:href="#DejaVuSans-20" x="1279.923828"/>
     <use xlink:href="#DejaVuSans-28" x="1311.710938"/>
     <use xlink:href="#DejaVuSans-64" x="1350.724609"/>
     <use xlink:href="#DejaVuSans-69" x="1414.201172"/>
     <use xlink:href="#DejaVuSans-72" x="1441.984375"/>
     <use xlink:href="#DejaVuSans-65" x="1480.847656"/>
     <use xlink:href="#DejaVuSans-63" x="1542.371094"/>
     <use xlink:href="#DejaVuSans-74" x="1597.351562"/>
     <use xlink:href="#DejaVuSans-69" x="1636.560547"/>
     <use xlink:href="#DejaVuSans-6f" x="1664.34375"/>
     <use xlink:href="#DejaVuSans-6e" x="1725.525391"/>
     <use xlink:href="#DejaVuSans-20" x="1788.904297"/>
     <use xlink:href="#DejaVuSans-6f" x="1820.691406"/>
     <use xlink:href="#DejaVuSans-66" x="1881.873047"/>
     <use xlink:href="#DejaVuSans-20" x="1917.078125"/>
     <use xlink:href="#DejaVuSans-6b" x="1948.865234"/>
     <use xlink:href="#DejaVuSans-65" x="2003.150391"/>
     <use xlink:href="#DejaVuSans-79" x="2064.673828"/>
     <use xlink:href="#DejaVuSans-20" x="2123.853516"/>
     <use xlink:href="#DejaVuSans-66" x="2155.640625"/>
     <use xlink:href="#DejaVuSans-61" x="2190.845703"/>
     <use xlink:href="#DejaVuSans-63" x="2252.125"/>
     <use xlink:href="#DejaVuSans-74" x="2307.105469"/>
     <use xlink:href="#DejaVuSans-6f" x="2346.314453"/>
     <use xlink:href="#DejaVuSans-72" x="2407.496094"/>
     <use xlink:href="#DejaVuSans-73" x="2448.609375"/>
     <use xlink:href="#DejaVuSans-29" x="2500.708984"/>
    </g>
   </g>
  </g>
  <g id="axes_2">
   <g id="patch_3">
    <path d="M 59.175781 253.045969 
L 165.354605 253.045969 
L 165.354605 20.197969 
L 59.175781 20.197969 
z
" style="fill: #ffffff"/>
   </g>
   <g id="matplotlib.axis_1">
    <g id="xtick_1">
     <g id="line2d_1">
      <path d="M 67.331777 253.045969 
L 67.331777 20.197969 
" clip-path="url(#p7b9eabd31a)" style="fill: none; stroke-dasharray: 2.59,1.12; stroke-dashoffset: 0; stroke: #b0b0b0; stroke-opacity: 0.18; stroke-width: 0.7"/>
     </g>
     <g id="line2d_2">
      <defs>
       <path id="m07cd9b5cfd" d="M 0 0 
L 0 3 
" style="stroke: #000000; stroke-width: 0.8"/>
      </defs>
      <g>
       <use xlink:href="#m07cd9b5cfd" x="67.331777" y="253.045969" style="stroke: #000000; stroke-width: 0.8"/>
      </g>
     </g>
     <g id="text_3">
      <!-- 25 -->
      <g transform="translate(60.333027 267.90425) scale(0.11 -0.11)">
       <use xlink:href="#DejaVuSans-32"/>
       <use xlink:href="#DejaVuSans-35" x="63.623047"/>
      </g>
     </g>
    </g>
    <g id="xtick_2">
     <g id="line2d_3">
      <path d="M 102.658304 253.045969 
L 102.658304 20.197969 
" clip-path="url(#p7b9eabd31a)" style="fill: none; stroke-dasharray: 2.59,1.12; stroke-dashoffset: 0; stroke: #b0b0b0; stroke-opacity: 0.18; stroke-width: 0.7"/>
     </g>
     <g id="line2d_4">
      <g>
       <use xlink:href="#m07cd9b5cfd" x="102.658304" y="253.045969" style="stroke: #000000; stroke-width: 0.8"/>
      </g>
     </g>
     <g id="text_4">
      <!-- 50 -->
      <g transform="translate(95.659554 267.90425) scale(0.11 -0.11)">
       <defs>
        <path id="DejaVuSans-30" d="M 2034 4250 
Q 1547 4250 1301 3770 
Q 1056 3291 1056 2328 
Q 1056 1369 1301 889 
Q 1547 409 2034 409 
Q 2525 409 2770 889 
Q 3016 1369 3016 2328 
Q 3016 3291 2770 3770 
Q 2525 4250 2034 4250 
z
M 2034 4750 
Q 2819 4750 3233 4129 
Q 3647 3509 3647 2328 
Q 3647 1150 3233 529 
Q 2819 -91 2034 -91 
Q 1250 -91 836 529 
Q 422 1150 422 2328 
Q 422 3509 836 4129 
Q 1250 4750 2034 4750 
z
" transform="scale(0.015625)"/>
       </defs>
       <use xlink:href="#DejaVuSans-35"/>
       <use xlink:href="#DejaVuSans-30" x="63.623047"/>
      </g>
     </g>
    </g>
    <g id="xtick_3">
     <g id="line2d_5">
      <path d="M 137.984832 253.045969 
L 137.984832 20.197969 
" clip-path="url(#p7b9eabd31a)" style="fill: none; stroke-dasharray: 2.59,1.12; stroke-dashoffset: 0; stroke: #b0b0b0; stroke-opacity: 0.18; stroke-width: 0.7"/>
     </g>
     <g id="line2d_6">
      <g>
       <use xlink:href="#m07cd9b5cfd" x="137.984832" y="253.045969" style="stroke: #000000; stroke-width: 0.8"/>
      </g>
     </g>
     <g id="text_5">
      <!-- 75 -->
      <g transform="translate(130.986082 267.90425) scale(0.11 -0.11)">
       <use xlink:href="#DejaVuSans-37"/>
       <use xlink:href="#DejaVuSans-35" x="63.623047"/>
      </g>
     </g>
    </g>
    <g id="text_6">
     <!-- mc_Humidity_mean -->
     <g transform="translate(57.847849 282.550187) scale(0.11 -0.11)">
      <defs>
       <path id="DejaVuSans-5f" d="M 3263 -1063 
L 3263 -1509 
L -63 -1509 
L -63 -1063 
L 3263 -1063 
z
" transform="scale(0.015625)"/>
       <path id="DejaVuSans-75" d="M 544 1381 
L 544 3500 
L 1119 3500 
L 1119 1403 
Q 1119 906 1312 657 
Q 1506 409 1894 409 
Q 2359 409 2629 706 
Q 2900 1003 2900 1516 
L 2900 3500 
L 3475 3500 
L 3475 0 
L 2900 0 
L 2900 538 
Q 2691 219 2414 64 
Q 2138 -91 1772 -91 
Q 1169 -91 856 284 
Q 544 659 544 1381 
z
M 1991 3584 
L 1991 3584 
z
" transform="scale(0.015625)"/>
      </defs>
      <use xlink:href="#DejaVuSans-6d"/>
      <use xlink:href="#DejaVuSans-63" x="97.412109"/>
      <use xlink:href="#DejaVuSans-5f" x="152.392578"/>
      <use xlink:href="#DejaVuSans-48" x="202.392578"/>
      <use xlink:href="#DejaVuSans-75" x="277.587891"/>
      <use xlink:href="#DejaVuSans-6d" x="340.966797"/>
      <use xlink:href="#DejaVuSans-69" x="438.378906"/>
      <use xlink:href="#DejaVuSans-64" x="466.162109"/>
      <use xlink:href="#DejaVuSans-69" x="529.638672"/>
      <use xlink:href="#DejaVuSans-74" x="557.421875"/>
      <use xlink:href="#DejaVuSans-79" x="596.630859"/>
      <use xlink:href="#DejaVuSans-5f" x="655.810547"/>
      <use xlink:href="#DejaVuSans-6d" x="705.810547"/>
      <use xlink:href="#DejaVuSans-65" x="803.222656"/>
      <use xlink:href="#DejaVuSans-61" x="864.746094"/>
      <use xlink:href="#DejaVuSans-6e" x="926.025391"/>
     </g>
    </g>
   </g>
   <g id="matplotlib.axis_2">
    <g id="ytick_1">
     <g id="line2d_7">
      <path d="M 59.175781 230.467445 
L 165.354605 230.467445 
" clip-path="url(#p7b9eabd31a)" style="fill: none; stroke-dasharray: 2.59,1.12; stroke-dashoffset: 0; stroke: #b0b0b0; stroke-opacity: 0.18; stroke-width: 0.7"/>
     </g>
     <g id="line2d_8">
      <defs>
       <path id="m9ae45c0442" d="M 0 0 
L -3 0 
" style="stroke: #000000; stroke-width: 0.8"/>
      </defs>
      <g>
       <use xlink:href="#m9ae45c0442" x="59.175781" y="230.467445" style="stroke: #000000; stroke-width: 0.8"/>
      </g>
     </g>
     <g id="text_7">
      <!-- −1.00 -->
      <g transform="translate(18.965938 234.646585) scale(0.11 -0.11)">
       <defs>
        <path id="DejaVuSans-2212" d="M 678 2272 
L 4684 2272 
L 4684 1741 
L 678 1741 
L 678 2272 
z
" transform="scale(0.015625)"/>
       </defs>
       <use xlink:href="#DejaVuSans-2212"/>
       <use xlink:href="#DejaVuSans-31" x="83.789062"/>
       <use xlink:href="#DejaVuSans-2e" x="147.412109"/>
       <use xlink:href="#DejaVuSans-30" x="179.199219"/>
       <use xlink:href="#DejaVuSans-30" x="242.822266"/>
      </g>
     </g>
    </g>
    <g id="ytick_2">
     <g id="line2d_9">
      <path d="M 59.175781 203.128146 
L 165.354605 203.128146 
" clip-path="url(#p7b9eabd31a)" style="fill: none; stroke-dasharray: 2.59,1.12; stroke-dashoffset: 0; stroke: #b0b0b0; stroke-opacity: 0.18; stroke-width: 0.7"/>
     </g>
     <g id="line2d_10">
      <g>
       <use xlink:href="#m9ae45c0442" x="59.175781" y="203.128146" style="stroke: #000000; stroke-width: 0.8"/>
      </g>
     </g>
     <g id="text_8">
      <!-- −0.75 -->
      <g transform="translate(18.965938 207.307287) scale(0.11 -0.11)">
       <use xlink:href="#DejaVuSans-2212"/>
       <use xlink:href="#DejaVuSans-30" x="83.789062"/>
       <use xlink:href="#DejaVuSans-2e" x="147.412109"/>
       <use xlink:href="#DejaVuSans-37" x="179.199219"/>
       <use xlink:href="#DejaVuSans-35" x="242.822266"/>
      </g>
     </g>
    </g>
    <g id="ytick_3">
     <g id="line2d_11">
      <path d="M 59.175781 175.788848 
L 165.354605 175.788848 
" clip-path="url(#p7b9eabd31a)" style="fill: none; stroke-dasharray: 2.59,1.12; stroke-dashoffset: 0; stroke: #b0b0b0; stroke-opacity: 0.18; stroke-width: 0.7"/>
     </g>
     <g id="line2d_12">
      <g>
       <use xlink:href="#m9ae45c0442" x="59.175781" y="175.788848" style="stroke: #000000; stroke-width: 0.8"/>
      </g>
     </g>
     <g id="text_9">
      <!-- −0.50 -->
      <g transform="translate(18.965938 179.967989) scale(0.11 -0.11)">
       <use xlink:href="#DejaVuSans-2212"/>
       <use xlink:href="#DejaVuSans-30" x="83.789062"/>
       <use xlink:href="#DejaVuSans-2e" x="147.412109"/>
       <use xlink:href="#DejaVuSans-35" x="179.199219"/>
       <use xlink:href="#DejaVuSans-30" x="242.822266"/>
      </g>
     </g>
    </g>
    <g id="ytick_4">
     <g id="line2d_13">
      <path d="M 59.175781 148.44955 
L 165.354605 148.44955 
" clip-path="url(#p7b9eabd31a)" style="fill: none; stroke-dasharray: 2.59,1.12; stroke-dashoffset: 0; stroke: #b0b0b0; stroke-opacity: 0.18; stroke-width: 0.7"/>
     </g>
     <g id="line2d_14">
      <g>
       <use xlink:href="#m9ae45c0442" x="59.175781" y="148.44955" style="stroke: #000000; stroke-width: 0.8"/>
      </g>
     </g>
     <g id="text_10">
      <!-- −0.25 -->
      <g transform="translate(18.965938 152.628691) scale(0.11 -0.11)">
       <use xlink:href="#DejaVuSans-2212"/>
       <use xlink:href="#DejaVuSans-30" x="83.789062"/>
       <use xlink:href="#DejaVuSans-2e" x="147.412109"/>
       <use xlink:href="#DejaVuSans-32" x="179.199219"/>
       <use xlink:href="#DejaVuSans-35" x="242.822266"/>
      </g>
     </g>
    </g>
    <g id="ytick_5">
     <g id="line2d_15">
      <path d="M 59.175781 121.110252 
L 165.354605 121.110252 
" clip-path="url(#p7b9eabd31a)" style="fill: none; stroke-dasharray: 2.59,1.12; stroke-dashoffset: 0; stroke: #b0b0b0; stroke-opacity: 0.18; stroke-width: 0.7"/>
     </g>
     <g id="line2d_16">
      <g>
       <use xlink:href="#m9ae45c0442" x="59.175781" y="121.110252" style="stroke: #000000; stroke-width: 0.8"/>
      </g>
     </g>
     <g id="text_11">
      <!-- 0.00 -->
      <g transform="translate(28.183594 125.289393) scale(0.11 -0.11)">
       <use xlink:href="#DejaVuSans-30"/>
       <use xlink:href="#DejaVuSans-2e" x="63.623047"/>
       <use xlink:href="#DejaVuSans-30" x="95.410156"/>
       <use xlink:href="#DejaVuSans-30" x="159.033203"/>
      </g>
     </g>
    </g>
    <g id="ytick_6">
     <g id="line2d_17">
      <path d="M 59.175781 93.770954 
L 165.354605 93.770954 
" clip-path="url(#p7b9eabd31a)" style="fill: none; stroke-dasharray: 2.59,1.12; stroke-dashoffset: 0; stroke: #b0b0b0; stroke-opacity: 0.18; stroke-width: 0.7"/>
     </g>
     <g id="line2d_18">
      <g>
       <use xlink:href="#m9ae45c0442" x="59.175781" y="93.770954" style="stroke: #000000; stroke-width: 0.8"/>
      </g>
     </g>
     <g id="text_12">
      <!-- 0.25 -->
      <g transform="translate(28.183594 97.950095) scale(0.11 -0.11)">
       <use xlink:href="#DejaVuSans-30"/>
       <use xlink:href="#DejaVuSans-2e" x="63.623047"/>
       <use xlink:href="#DejaVuSans-32" x="95.410156"/>
       <use xlink:href="#DejaVuSans-35" x="159.033203"/>
      </g>
     </g>
    </g>
    <g id="ytick_7">
     <g id="line2d_19">
      <path d="M 59.175781 66.431656 
L 165.354605 66.431656 
" clip-path="url(#p7b9eabd31a)" style="fill: none; stroke-dasharray: 2.59,1.12; stroke-dashoffset: 0; stroke: #b0b0b0; stroke-opacity: 0.18; stroke-width: 0.7"/>
     </g>
     <g id="line2d_20">
      <g>
       <use xlink:href="#m9ae45c0442" x="59.175781" y="66.431656" style="stroke: #000000; stroke-width: 0.8"/>
      </g>
     </g>
     <g id="text_13">
      <!-- 0.50 -->
      <g transform="translate(28.183594 70.610797) scale(0.11 -0.11)">
       <use xlink:href="#DejaVuSans-30"/>
       <use xlink:href="#DejaVuSans-2e" x="63.623047"/>
       <use xlink:href="#DejaVuSans-35" x="95.410156"/>
       <use xlink:href="#DejaVuSans-30" x="159.033203"/>
      </g>
     </g>
    </g>
    <g id="ytick_8">
     <g id="line2d_21">
      <path d="M 59.175781 39.092358 
L 165.354605 39.092358 
" clip-path="url(#p7b9eabd31a)" style="fill: none; stroke-dasharray: 2.59,1.12; stroke-dashoffset: 0; stroke: #b0b0b0; stroke-opacity: 0.18; stroke-width: 0.7"/>
     </g>
     <g id="line2d_22">
      <g>
       <use xlink:href="#m9ae45c0442" x="59.175781" y="39.092358" style="stroke: #000000; stroke-width: 0.8"/>
      </g>
     </g>
     <g id="text_14">
      <!-- 0.75 -->
      <g transform="translate(28.183594 43.271499) scale(0.11 -0.11)">
       <use xlink:href="#DejaVuSans-30"/>
       <use xlink:href="#DejaVuSans-2e" x="63.623047"/>
       <use xlink:href="#DejaVuSans-37" x="95.410156"/>
       <use xlink:href="#DejaVuSans-35" x="159.033203"/>
      </g>
     </g>
    </g>
    <g id="text_15">
     <!-- Partial dependence -->
     <g transform="translate(12.678281 189.660016) rotate(-90) scale(0.11 -0.11)">
      <use xlink:href="#DejaVuSans-50"/>
      <use xlink:href="#DejaVuSans-61" x="55.802734"/>
      <use xlink:href="#DejaVuSans-72" x="117.082031"/>
      <use xlink:href="#DejaVuSans-74" x="158.195312"/>
      <use xlink:href="#DejaVuSans-69" x="197.404297"/>
      <use xlink:href="#DejaVuSans-61" x="225.1875"/>
      <use xlink:href="#DejaVuSans-6c" x="286.466797"/>
      <use xlink:href="#DejaVuSans-20" x="314.25"/>
      <use xlink:href="#DejaVuSans-64" x="346.037109"/>
      <use xlink:href="#DejaVuSans-65" x="409.513672"/>
      <use xlink:href="#DejaVuSans-70" x="471.037109"/>
      <use xlink:href="#DejaVuSans-65" x="534.513672"/>
      <use xlink:href="#DejaVuSans-6e" x="596.037109"/>
      <use xlink:href="#DejaVuSans-64" x="659.416016"/>
      <use xlink:href="#DejaVuSans-65" x="722.892578"/>
      <use xlink:href="#DejaVuSans-6e" x="784.416016"/>
      <use xlink:href="#DejaVuSans-63" x="847.794922"/>
      <use xlink:href="#DejaVuSans-65" x="902.775391"/>
     </g>
    </g>
   </g>
   <g id="line2d_23">
    <path d="M 64.002091 242.461969 
L 64.977104 242.461969 
L 65.952116 242.461969 
L 66.927128 242.461969 
L 67.90214 242.461969 
L 68.877152 242.461969 
L 69.852164 242.461969 
L 70.827176 242.461969 
L 71.802189 242.461969 
L 72.777201 242.461969 
L 73.752213 242.461969 
L 74.727225 242.461969 
L 75.702237 242.461969 
L 76.677249 242.461969 
L 77.652262 242.461969 
L 78.627274 242.461969 
L 79.602286 242.461969 
L 80.577298 242.461969 
L 81.55231 242.461969 
L 82.527322 242.461969 
L 83.502334 242.461969 
L 84.477347 242.461969 
L 85.452359 242.461969 
L 86.427371 242.461969 
L 87.402383 242.461969 
L 88.377395 242.461969 
L 89.352407 242.461969 
L 90.32742 242.461969 
L 91.302432 242.461969 
L 92.277444 229.669295 
L 93.252456 198.855711 
L 94.227468 198.855711 
L 95.20248 198.855711 
L 96.177492 174.265254 
L 97.152505 138.866241 
L 98.127517 138.866241 
L 99.102529 135.428288 
L 100.077541 135.172535 
L 101.052553 135.172535 
L 102.027565 135.172535 
L 103.002578 135.172535 
L 103.97759 135.172535 
L 104.952602 135.172535 
L 105.927614 135.172535 
L 106.902626 135.172535 
L 107.877638 135.067194 
L 108.85265 134.484429 
L 109.827663 134.484429 
L 110.802675 134.484429 
L 111.777687 134.484429 
L 112.752699 133.048938 
L 113.727711 133.048938 
L 114.702723 133.048938 
L 115.677736 133.048938 
L 116.652748 134.203 
L 117.62776 134.203 
L 118.602772 124.971966 
L 119.577784 127.583327 
L 120.552796 118.472479 
L 121.527808 115.204032 
L 122.502821 115.204032 
L 123.477833 115.204032 
L 124.452845 79.363189 
L 125.427857 80.575611 
L 126.402869 80.575611 
L 127.377881 80.575611 
L 128.352894 80.323026 
L 129.327906 80.562869 
L 130.302918 80.562869 
L 131.27793 80.491492 
L 132.252942 80.491492 
L 133.227954 79.512907 
L 134.202966 79.44518 
L 135.177979 68.515997 
L 136.152991 35.002174 
L 137.128003 35.002174 
L 138.103015 33.630996 
L 139.078027 33.630996 
L 140.053039 33.630996 
L 141.028052 33.630996 
L 142.003064 33.630996 
L 142.978076 33.595574 
L 143.953088 33.595574 
L 144.9281 32.555693 
L 145.903112 31.670102 
L 146.878124 31.670102 
L 147.853137 31.670102 
L 148.828149 31.670102 
L 149.803161 31.670102 
L 150.778173 31.670102 
L 151.753185 31.670102 
L 152.728197 31.670102 
L 153.70321 31.670102 
L 154.678222 31.637764 
L 155.653234 31.637764 
L 156.628246 31.997796 
L 157.603258 31.997796 
L 158.57827 31.997796 
L 159.553282 30.781969 
L 160.528295 30.781969 
" clip-path="url(#p7b9eabd31a)" style="fill: none; stroke: #f6cfaf; stroke-width: 2; stroke-linecap: square"/>
   </g>
   <g id="LineCollection_1">
    <path d="M 72.54032 253.045969 
L 72.54032 241.403569 
" clip-path="url(#p7b9eabd31a)" style="fill: none; stroke: #000000; stroke-width: 2"/>
    <path d="M 86.397825 253.045969 
L 86.397825 241.403569 
" clip-path="url(#p7b9eabd31a)" style="fill: none; stroke: #000000; stroke-width: 2"/>
    <path d="M 97.431905 253.045969 
L 97.431905 241.403569 
" clip-path="url(#p7b9eabd31a)" style="fill: none; stroke: #000000; stroke-width: 2"/>
    <path d="M 107.259745 253.045969 
L 107.259745 241.403569 
" clip-path="url(#p7b9eabd31a)" style="fill: none; stroke: #000000; stroke-width: 2"/>
    <path d="M 115.375854 253.045969 
L 115.375854 241.403569 
" clip-path="url(#p7b9eabd31a)" style="fill: none; stroke: #000000; stroke-width: 2"/>
    <path d="M 122.82654 253.045969 
L 122.82654 241.403569 
" clip-path="url(#p7b9eabd31a)" style="fill: none; stroke: #000000; stroke-width: 2"/>
    <path d="M 132.317172 253.045969 
L 132.317172 241.403569 
" clip-path="url(#p7b9eabd31a)" style="fill: none; stroke: #000000; stroke-width: 2"/>
    <path d="M 141.927272 253.045969 
L 141.927272 241.403569 
" clip-path="url(#p7b9eabd31a)" style="fill: none; stroke: #000000; stroke-width: 2"/>
    <path d="M 153.781913 253.045969 
L 153.781913 241.403569 
" clip-path="url(#p7b9eabd31a)" style="fill: none; stroke: #000000; stroke-width: 2"/>
   </g>
   <g id="patch_4">
    <path d="M 59.175781 253.045969 
L 59.175781 20.197969 
" style="fill: none; stroke: #000000; stroke-width: 0.9; stroke-linejoin: miter; stroke-linecap: square"/>
   </g>
   <g id="patch_5">
    <path d="M 59.175781 253.045969 
L 165.354605 253.045969 
" style="fill: none; stroke: #000000; stroke-width: 0.9; stroke-linejoin: miter; stroke-linecap: square"/>
   </g>
  </g>
  <g id="axes_3">
   <g id="patch_6">
    <path d="M 186.590369 253.045969 
L 292.769193 253.045969 
L 292.769193 20.197969 
L 186.590369 20.197969 
z
" style="fill: #ffffff"/>
   </g>
   <g id="matplotlib.axis_3">
    <g id="xtick_4">
     <g id="line2d_24">
      <path d="M 212.100866 253.045969 
L 212.100866 20.197969 
" clip-path="url(#pde5ae7caea)" style="fill: none; stroke-dasharray: 2.59,1.12; stroke-dashoffset: 0; stroke: #b0b0b0; stroke-opacity: 0.18; stroke-width: 0.7"/>
     </g>
     <g id="line2d_25">
      <g>
       <use xlink:href="#m07cd9b5cfd" x="212.100866" y="253.045969" style="stroke: #000000; stroke-width: 0.8"/>
      </g>
     </g>
     <g id="text_16">
      <!-- 10 -->
      <g transform="translate(205.102116 267.90425) scale(0.11 -0.11)">
       <use xlink:href="#DejaVuSans-31"/>
       <use xlink:href="#DejaVuSans-30" x="63.623047"/>
      </g>
     </g>
    </g>
    <g id="xtick_5">
     <g id="line2d_26">
      <path d="M 281.048154 253.045969 
L 281.048154 20.197969 
" clip-path="url(#pde5ae7caea)" style="fill: none; stroke-dasharray: 2.59,1.12; stroke-dashoffset: 0; stroke: #b0b0b0; stroke-opacity: 0.18; stroke-width: 0.7"/>
     </g>
     <g id="line2d_27">
      <g>
       <use xlink:href="#m07cd9b5cfd" x="281.048154" y="253.045969" style="stroke: #000000; stroke-width: 0.8"/>
      </g>
     </g>
     <g id="text_17">
      <!-- 20 -->
      <g transform="translate(274.049404 267.90425) scale(0.11 -0.11)">
       <use xlink:href="#DejaVuSans-32"/>
       <use xlink:href="#DejaVuSans-30" x="63.623047"/>
      </g>
     </g>
    </g>
    <g id="text_18">
     <!-- mc_Temperature_mean -->
     <g transform="translate(175.364156 282.24425) scale(0.11 -0.11)">
      <use xlink:href="#DejaVuSans-6d"/>
      <use xlink:href="#DejaVuSans-63" x="97.412109"/>
      <use xlink:href="#DejaVuSans-5f" x="152.392578"/>
      <use xlink:href="#DejaVuSans-54" x="202.392578"/>
      <use xlink:href="#DejaVuSans-65" x="246.476562"/>
      <use xlink:href="#DejaVuSans-6d" x="308"/>
      <use xlink:href="#DejaVuSans-70" x="405.412109"/>
      <use xlink:href="#DejaVuSans-65" x="468.888672"/>
      <use xlink:href="#DejaVuSans-72" x="530.412109"/>
      <use xlink:href="#DejaVuSans-61" x="571.525391"/>
      <use xlink:href="#DejaVuSans-74" x="632.804688"/>
      <use xlink:href="#DejaVuSans-75" x="672.013672"/>
      <use xlink:href="#DejaVuSans-72" x="735.392578"/>
      <use xlink:href="#DejaVuSans-65" x="774.255859"/>
      <use xlink:href="#DejaVuSans-5f" x="835.779297"/>
      <use xlink:href="#DejaVuSans-6d" x="885.779297"/>
      <use xlink:href="#DejaVuSans-65" x="983.191406"/>
      <use xlink:href="#DejaVuSans-61" x="1044.714844"/>
      <use xlink:href="#DejaVuSans-6e" x="1105.994141"/>
     </g>
    </g>
   </g>
   <g id="matplotlib.axis_4">
    <g id="ytick_9">
     <g id="line2d_28">
      <path d="M 186.590369 230.467445 
L 292.769193 230.467445 
" clip-path="url(#pde5ae7caea)" style="fill: none; stroke-dasharray: 2.59,1.12; stroke-dashoffset: 0; stroke: #b0b0b0; stroke-opacity: 0.18; stroke-width: 0.7"/>
     </g>
     <g id="line2d_29">
      <g>
       <use xlink:href="#m9ae45c0442" x="186.590369" y="230.467445" style="stroke: #000000; stroke-width: 0.8"/>
      </g>
     </g>
    </g>
    <g id="ytick_10">
     <g id="line2d_30">
      <path d="M 186.590369 203.128146 
L 292.769193 203.128146 
" clip-path="url(#pde5ae7caea)" style="fill: none; stroke-dasharray: 2.59,1.12; stroke-dashoffset: 0; stroke: #b0b0b0; stroke-opacity: 0.18; stroke-width: 0.7"/>
     </g>
     <g id="line2d_31">
      <g>
       <use xlink:href="#m9ae45c0442" x="186.590369" y="203.128146" style="stroke: #000000; stroke-width: 0.8"/>
      </g>
     </g>
    </g>
    <g id="ytick_11">
     <g id="line2d_32">
      <path d="M 186.590369 175.788848 
L 292.769193 175.788848 
" clip-path="url(#pde5ae7caea)" style="fill: none; stroke-dasharray: 2.59,1.12; stroke-dashoffset: 0; stroke: #b0b0b0; stroke-opacity: 0.18; stroke-width: 0.7"/>
     </g>
     <g id="line2d_33">
      <g>
       <use xlink:href="#m9ae45c0442" x="186.590369" y="175.788848" style="stroke: #000000; stroke-width: 0.8"/>
      </g>
     </g>
    </g>
    <g id="ytick_12">
     <g id="line2d_34">
      <path d="M 186.590369 148.44955 
L 292.769193 148.44955 
" clip-path="url(#pde5ae7caea)" style="fill: none; stroke-dasharray: 2.59,1.12; stroke-dashoffset: 0; stroke: #b0b0b0; stroke-opacity: 0.18; stroke-width: 0.7"/>
     </g>
     <g id="line2d_35">
      <g>
       <use xlink:href="#m9ae45c0442" x="186.590369" y="148.44955" style="stroke: #000000; stroke-width: 0.8"/>
      </g>
     </g>
    </g>
    <g id="ytick_13">
     <g id="line2d_36">
      <path d="M 186.590369 121.110252 
L 292.769193 121.110252 
" clip-path="url(#pde5ae7caea)" style="fill: none; stroke-dasharray: 2.59,1.12; stroke-dashoffset: 0; stroke: #b0b0b0; stroke-opacity: 0.18; stroke-width: 0.7"/>
     </g>
     <g id="line2d_37">
      <g>
       <use xlink:href="#m9ae45c0442" x="186.590369" y="121.110252" style="stroke: #000000; stroke-width: 0.8"/>
      </g>
     </g>
    </g>
    <g id="ytick_14">
     <g id="line2d_38">
      <path d="M 186.590369 93.770954 
L 292.769193 93.770954 
" clip-path="url(#pde5ae7caea)" style="fill: none; stroke-dasharray: 2.59,1.12; stroke-dashoffset: 0; stroke: #b0b0b0; stroke-opacity: 0.18; stroke-width: 0.7"/>
     </g>
     <g id="line2d_39">
      <g>
       <use xlink:href="#m9ae45c0442" x="186.590369" y="93.770954" style="stroke: #000000; stroke-width: 0.8"/>
      </g>
     </g>
    </g>
    <g id="ytick_15">
     <g id="line2d_40">
      <path d="M 186.590369 66.431656 
L 292.769193 66.431656 
" clip-path="url(#pde5ae7caea)" style="fill: none; stroke-dasharray: 2.59,1.12; stroke-dashoffset: 0; stroke: #b0b0b0; stroke-opacity: 0.18; stroke-width: 0.7"/>
     </g>
     <g id="line2d_41">
      <g>
       <use xlink:href="#m9ae45c0442" x="186.590369" y="66.431656" style="stroke: #000000; stroke-width: 0.8"/>
      </g>
     </g>
    </g>
    <g id="ytick_16">
     <g id="line2d_42">
      <path d="M 186.590369 39.092358 
L 292.769193 39.092358 
" clip-path="url(#pde5ae7caea)" style="fill: none; stroke-dasharray: 2.59,1.12; stroke-dashoffset: 0; stroke: #b0b0b0; stroke-opacity: 0.18; stroke-width: 0.7"/>
     </g>
     <g id="line2d_43">
      <g>
       <use xlink:href="#m9ae45c0442" x="186.590369" y="39.092358" style="stroke: #000000; stroke-width: 0.8"/>
      </g>
     </g>
    </g>
   </g>
   <g id="line2d_44">
    <path d="M 191.41668 87.252214 
L 192.391692 87.400168 
L 193.366704 87.400168 
L 194.341716 87.400168 
L 195.316728 87.400168 
L 196.29174 88.297744 
L 197.266753 88.297744 
L 198.241765 88.297744 
L 199.216777 88.538747 
L 200.191789 88.538747 
L 201.166801 88.538747 
L 202.141813 88.538747 
L 203.116825 88.538747 
L 204.091838 88.538747 
L 205.06685 88.538747 
L 206.041862 88.538747 
L 207.016874 88.538747 
L 207.991886 89.651318 
L 208.966898 89.651318 
L 209.941911 98.59792 
L 210.916923 98.59792 
L 211.891935 98.59792 
L 212.866947 98.59792 
L 213.841959 98.59792 
L 214.816971 98.59792 
L 215.791983 98.59792 
L 216.766996 98.59792 
L 217.742008 98.59792 
L 218.71702 108.566179 
L 219.692032 111.038519 
L 220.667044 111.038519 
L 221.642056 111.892389 
L 222.617069 111.892389 
L 223.592081 111.892389 
L 224.567093 111.892389 
L 225.542105 111.892389 
L 226.517117 111.892389 
L 227.492129 111.892389 
L 228.467141 111.892389 
L 229.442154 111.892389 
L 230.417166 111.892389 
L 231.392178 111.892389 
L 232.36719 111.892389 
L 233.342202 111.892389 
L 234.317214 111.892389 
L 235.292227 111.892389 
L 236.267239 111.874103 
L 237.242251 111.874103 
L 238.217263 111.874103 
L 239.192275 111.874103 
L 240.167287 111.874103 
L 241.142299 106.451469 
L 242.117312 106.451469 
L 243.092324 106.451469 
L 244.067336 106.451469 
L 245.042348 106.451469 
L 246.01736 120.446738 
L 246.992372 213.151191 
L 247.967385 213.151191 
L 248.942397 213.151191 
L 249.917409 213.151191 
L 250.892421 213.151191 
L 251.867433 213.151191 
L 252.842445 213.151191 
L 253.817457 213.151191 
L 254.79247 213.151191 
L 255.767482 213.151191 
L 256.742494 213.151191 
L 257.717506 213.151191 
L 258.692518 213.151191 
L 259.66753 213.151191 
L 260.642543 213.151191 
L 261.617555 213.151191 
L 262.592567 213.151191 
L 263.567579 213.151191 
L 264.542591 213.151191 
L 265.517603 213.151191 
L 266.492615 213.151191 
L 267.467628 213.151191 
L 268.44264 213.151191 
L 269.417652 213.151191 
L 270.392664 213.151191 
L 271.367676 213.151191 
L 272.342688 213.151191 
L 273.317701 213.151191 
L 274.292713 213.151191 
L 275.267725 213.151191 
L 276.242737 213.151191 
L 277.217749 213.151191 
L 278.192761 213.151191 
L 279.167773 213.151191 
L 280.142786 213.151191 
L 281.117798 213.151191 
L 282.09281 213.151191 
L 283.067822 213.151191 
L 284.042834 213.151191 
L 285.017846 213.151191 
L 285.992859 213.151191 
L 286.967871 213.151191 
L 287.942883 213.151191 
" clip-path="url(#pde5ae7caea)" style="fill: none; stroke: #f6cfaf; stroke-width: 2; stroke-linecap: square"/>
   </g>
   <g id="LineCollection_2">
    <path d="M 198.311408 253.045969 
L 198.311408 241.403569 
" clip-path="url(#pde5ae7caea)" style="fill: none; stroke: #000000; stroke-width: 2"/>
    <path d="M 208.806439 253.045969 
L 208.806439 241.403569 
" clip-path="url(#pde5ae7caea)" style="fill: none; stroke: #000000; stroke-width: 2"/>
    <path d="M 212.765267 253.045969 
L 212.765267 241.403569 
" clip-path="url(#pde5ae7caea)" style="fill: none; stroke: #000000; stroke-width: 2"/>
    <path d="M 225.890324 253.045969 
L 225.890324 241.403569 
" clip-path="url(#pde5ae7caea)" style="fill: none; stroke: #000000; stroke-width: 2"/>
    <path d="M 232.785052 253.045969 
L 232.785052 241.403569 
" clip-path="url(#pde5ae7caea)" style="fill: none; stroke: #000000; stroke-width: 2"/>
    <path d="M 239.679781 253.045969 
L 239.679781 241.403569 
" clip-path="url(#pde5ae7caea)" style="fill: none; stroke: #000000; stroke-width: 2"/>
    <path d="M 253.431631 253.045969 
L 253.431631 241.403569 
" clip-path="url(#pde5ae7caea)" style="fill: none; stroke: #000000; stroke-width: 2"/>
    <path d="M 260.363968 253.045969 
L 260.363968 241.403569 
" clip-path="url(#pde5ae7caea)" style="fill: none; stroke: #000000; stroke-width: 2"/>
    <path d="M 274.153425 253.045969 
L 274.153425 241.403569 
" clip-path="url(#pde5ae7caea)" style="fill: none; stroke: #000000; stroke-width: 2"/>
   </g>
   <g id="patch_7">
    <path d="M 186.590369 253.045969 
L 186.590369 20.197969 
" style="fill: none; stroke: #000000; stroke-width: 0.9; stroke-linejoin: miter; stroke-linecap: square"/>
   </g>
   <g id="patch_8">
    <path d="M 186.590369 253.045969 
L 292.769193 253.045969 
" style="fill: none; stroke: #000000; stroke-width: 0.9; stroke-linejoin: miter; stroke-linecap: square"/>
   </g>
  </g>
  <g id="axes_4">
   <g id="patch_9">
    <path d="M 314.004958 253.045969 
L 420.183781 253.045969 
L 420.183781 20.197969 
L 314.004958 20.197969 
z
" style="fill: #ffffff"/>
   </g>
   <g id="matplotlib.axis_5">
    <g id="xtick_6">
     <g id="line2d_45">
      <path d="M 336.647702 253.045969 
L 336.647702 20.197969 
" clip-path="url(#p711da7284d)" style="fill: none; stroke-dasharray: 2.59,1.12; stroke-dashoffset: 0; stroke: #b0b0b0; stroke-opacity: 0.18; stroke-width: 0.7"/>
     </g>
     <g id="line2d_46">
      <g>
       <use xlink:href="#m07cd9b5cfd" x="336.647702" y="253.045969" style="stroke: #000000; stroke-width: 0.8"/>
      </g>
     </g>
     <g id="text_19">
      <!-- 0.5 -->
      <g transform="translate(327.900984 267.90425) scale(0.11 -0.11)">
       <use xlink:href="#DejaVuSans-30"/>
       <use xlink:href="#DejaVuSans-2e" x="63.623047"/>
       <use xlink:href="#DejaVuSans-35" x="95.410156"/>
      </g>
     </g>
    </g>
    <g id="xtick_7">
     <g id="line2d_47">
      <path d="M 372.280572 253.045969 
L 372.280572 20.197969 
" clip-path="url(#p711da7284d)" style="fill: none; stroke-dasharray: 2.59,1.12; stroke-dashoffset: 0; stroke: #b0b0b0; stroke-opacity: 0.18; stroke-width: 0.7"/>
     </g>
     <g id="line2d_48">
      <g>
       <use xlink:href="#m07cd9b5cfd" x="372.280572" y="253.045969" style="stroke: #000000; stroke-width: 0.8"/>
      </g>
     </g>
     <g id="text_20">
      <!-- 1.0 -->
      <g transform="translate(363.533853 267.90425) scale(0.11 -0.11)">
       <use xlink:href="#DejaVuSans-31"/>
       <use xlink:href="#DejaVuSans-2e" x="63.623047"/>
       <use xlink:href="#DejaVuSans-30" x="95.410156"/>
      </g>
     </g>
    </g>
    <g id="xtick_8">
     <g id="line2d_49">
      <path d="M 407.913441 253.045969 
L 407.913441 20.197969 
" clip-path="url(#p711da7284d)" style="fill: none; stroke-dasharray: 2.59,1.12; stroke-dashoffset: 0; stroke: #b0b0b0; stroke-opacity: 0.18; stroke-width: 0.7"/>
     </g>
     <g id="line2d_50">
      <g>
       <use xlink:href="#m07cd9b5cfd" x="407.913441" y="253.045969" style="stroke: #000000; stroke-width: 0.8"/>
      </g>
     </g>
     <g id="text_21">
      <!-- 1.5 -->
      <g transform="translate(399.166722 267.90425) scale(0.11 -0.11)">
       <use xlink:href="#DejaVuSans-31"/>
       <use xlink:href="#DejaVuSans-2e" x="63.623047"/>
       <use xlink:href="#DejaVuSans-35" x="95.410156"/>
      </g>
     </g>
    </g>
    <g id="text_22">
     <!-- mc_WindSpeed_mean -->
     <g transform="translate(306.55226 282.550187) scale(0.11 -0.11)">
      <defs>
       <path id="DejaVuSans-57" d="M 213 4666 
L 850 4666 
L 1831 722 
L 2809 4666 
L 3519 4666 
L 4500 722 
L 5478 4666 
L 6119 4666 
L 4947 0 
L 4153 0 
L 3169 4050 
L 2175 0 
L 1381 0 
L 213 4666 
z
" transform="scale(0.015625)"/>
      </defs>
      <use xlink:href="#DejaVuSans-6d"/>
      <use xlink:href="#DejaVuSans-63" x="97.412109"/>
      <use xlink:href="#DejaVuSans-5f" x="152.392578"/>
      <use xlink:href="#DejaVuSans-57" x="202.392578"/>
      <use xlink:href="#DejaVuSans-69" x="299.019531"/>
      <use xlink:href="#DejaVuSans-6e" x="326.802734"/>
      <use xlink:href="#DejaVuSans-64" x="390.181641"/>
      <use xlink:href="#DejaVuSans-53" x="453.658203"/>
      <use xlink:href="#DejaVuSans-70" x="517.134766"/>
      <use xlink:href="#DejaVuSans-65" x="580.611328"/>
      <use xlink:href="#DejaVuSans-65" x="642.134766"/>
      <use xlink:href="#DejaVuSans-64" x="703.658203"/>
      <use xlink:href="#DejaVuSans-5f" x="767.134766"/>
      <use xlink:href="#DejaVuSans-6d" x="817.134766"/>
      <use xlink:href="#DejaVuSans-65" x="914.546875"/>
      <use xlink:href="#DejaVuSans-61" x="976.070312"/>
      <use xlink:href="#DejaVuSans-6e" x="1037.349609"/>
     </g>
    </g>
   </g>
   <g id="matplotlib.axis_6">
    <g id="ytick_17">
     <g id="line2d_51">
      <path d="M 314.004958 230.467445 
L 420.183781 230.467445 
" clip-path="url(#p711da7284d)" style="fill: none; stroke-dasharray: 2.59,1.12; stroke-dashoffset: 0; stroke: #b0b0b0; stroke-opacity: 0.18; stroke-width: 0.7"/>
     </g>
     <g id="line2d_52">
      <g>
       <use xlink:href="#m9ae45c0442" x="314.004958" y="230.467445" style="stroke: #000000; stroke-width: 0.8"/>
      </g>
     </g>
    </g>
    <g id="ytick_18">
     <g id="line2d_53">
      <path d="M 314.004958 203.128146 
L 420.183781 203.128146 
" clip-path="url(#p711da7284d)" style="fill: none; stroke-dasharray: 2.59,1.12; stroke-dashoffset: 0; stroke: #b0b0b0; stroke-opacity: 0.18; stroke-width: 0.7"/>
     </g>
     <g id="line2d_54">
      <g>
       <use xlink:href="#m9ae45c0442" x="314.004958" y="203.128146" style="stroke: #000000; stroke-width: 0.8"/>
      </g>
     </g>
    </g>
    <g id="ytick_19">
     <g id="line2d_55">
      <path d="M 314.004958 175.788848 
L 420.183781 175.788848 
" clip-path="url(#p711da7284d)" style="fill: none; stroke-dasharray: 2.59,1.12; stroke-dashoffset: 0; stroke: #b0b0b0; stroke-opacity: 0.18; stroke-width: 0.7"/>
     </g>
     <g id="line2d_56">
      <g>
       <use xlink:href="#m9ae45c0442" x="314.004958" y="175.788848" style="stroke: #000000; stroke-width: 0.8"/>
      </g>
     </g>
    </g>
    <g id="ytick_20">
     <g id="line2d_57">
      <path d="M 314.004958 148.44955 
L 420.183781 148.44955 
" clip-path="url(#p711da7284d)" style="fill: none; stroke-dasharray: 2.59,1.12; stroke-dashoffset: 0; stroke: #b0b0b0; stroke-opacity: 0.18; stroke-width: 0.7"/>
     </g>
     <g id="line2d_58">
      <g>
       <use xlink:href="#m9ae45c0442" x="314.004958" y="148.44955" style="stroke: #000000; stroke-width: 0.8"/>
      </g>
     </g>
    </g>
    <g id="ytick_21">
     <g id="line2d_59">
      <path d="M 314.004958 121.110252 
L 420.183781 121.110252 
" clip-path="url(#p711da7284d)" style="fill: none; stroke-dasharray: 2.59,1.12; stroke-dashoffset: 0; stroke: #b0b0b0; stroke-opacity: 0.18; stroke-width: 0.7"/>
     </g>
     <g id="line2d_60">
      <g>
       <use xlink:href="#m9ae45c0442" x="314.004958" y="121.110252" style="stroke: #000000; stroke-width: 0.8"/>
      </g>
     </g>
    </g>
    <g id="ytick_22">
     <g id="line2d_61">
      <path d="M 314.004958 93.770954 
L 420.183781 93.770954 
" clip-path="url(#p711da7284d)" style="fill: none; stroke-dasharray: 2.59,1.12; stroke-dashoffset: 0; stroke: #b0b0b0; stroke-opacity: 0.18; stroke-width: 0.7"/>
     </g>
     <g id="line2d_62">
      <g>
       <use xlink:href="#m9ae45c0442" x="314.004958" y="93.770954" style="stroke: #000000; stroke-width: 0.8"/>
      </g>
     </g>
    </g>
    <g id="ytick_23">
     <g id="line2d_63">
      <path d="M 314.004958 66.431656 
L 420.183781 66.431656 
" clip-path="url(#p711da7284d)" style="fill: none; stroke-dasharray: 2.59,1.12; stroke-dashoffset: 0; stroke: #b0b0b0; stroke-opacity: 0.18; stroke-width: 0.7"/>
     </g>
     <g id="line2d_64">
      <g>
       <use xlink:href="#m9ae45c0442" x="314.004958" y="66.431656" style="stroke: #000000; stroke-width: 0.8"/>
      </g>
     </g>
    </g>
    <g id="ytick_24">
     <g id="line2d_65">
      <path d="M 314.004958 39.092358 
L 420.183781 39.092358 
" clip-path="url(#p711da7284d)" style="fill: none; stroke-dasharray: 2.59,1.12; stroke-dashoffset: 0; stroke: #b0b0b0; stroke-opacity: 0.18; stroke-width: 0.7"/>
     </g>
     <g id="line2d_66">
      <g>
       <use xlink:href="#m9ae45c0442" x="314.004958" y="39.092358" style="stroke: #000000; stroke-width: 0.8"/>
      </g>
     </g>
    </g>
   </g>
   <g id="line2d_67">
    <path d="M 318.831268 120.395908 
L 319.80628 105.341155 
L 320.781292 153.681982 
L 321.756304 163.878933 
L 322.731316 163.878933 
L 323.706329 163.878933 
L 324.681341 163.878933 
L 325.656353 164.242503 
L 326.631365 163.782031 
L 327.606377 163.782031 
L 328.581389 163.782031 
L 329.556402 163.645421 
L 330.531414 163.635851 
L 331.506426 163.635851 
L 332.481438 163.635851 
L 333.45645 163.67628 
L 334.431462 146.471745 
L 335.406474 146.471745 
L 336.381487 146.471745 
L 337.356499 141.969802 
L 338.331511 141.969802 
L 339.306523 141.969802 
L 340.281535 141.969802 
L 341.256547 141.91826 
L 342.23156 141.91826 
L 343.206572 141.91826 
L 344.181584 142.02946 
L 345.156596 142.02946 
L 346.131608 142.02946 
L 347.10662 142.02946 
L 348.081632 141.663238 
L 349.056645 141.663238 
L 350.031657 141.247243 
L 351.006669 141.247243 
L 351.981681 141.247243 
L 352.956693 141.165752 
L 353.931705 140.711915 
L 354.906718 139.032651 
L 355.88173 139.032651 
L 356.856742 139.286451 
L 357.831754 139.286451 
L 358.806766 139.286451 
L 359.781778 139.205268 
L 360.75679 139.205268 
L 361.731803 139.205268 
L 362.706815 143.922225 
L 363.681827 144.229247 
L 364.656839 144.229247 
L 365.631851 144.229247 
L 366.606863 144.229247 
L 367.581876 144.229247 
L 368.556888 144.229247 
L 369.5319 144.229247 
L 370.506912 144.229247 
L 371.481924 144.229247 
L 372.456936 144.229247 
L 373.431948 144.229247 
L 374.406961 144.764482 
L 375.381973 144.764482 
L 376.356985 144.764482 
L 377.331997 145.667381 
L 378.307009 144.175003 
L 379.282021 144.928139 
L 380.257034 144.928139 
L 381.232046 144.928139 
L 382.207058 144.928139 
L 383.18207 144.928139 
L 384.157082 144.928139 
L 385.132094 144.928139 
L 386.107106 144.928139 
L 387.082119 144.928139 
L 388.057131 144.928139 
L 389.032143 144.928139 
L 390.007155 144.928139 
L 390.982167 144.928139 
L 391.957179 144.928139 
L 392.932192 144.928139 
L 393.907204 144.928139 
L 394.882216 144.928139 
L 395.857228 144.928139 
L 396.83224 144.928139 
L 397.807252 143.96199 
L 398.782264 143.96199 
L 399.757277 143.96199 
L 400.732289 143.96199 
L 401.707301 143.96199 
L 402.682313 143.96199 
L 403.657325 143.96199 
L 404.632337 143.96199 
L 405.60735 138.481765 
L 406.582362 138.481765 
L 407.557374 138.481765 
L 408.532386 138.481765 
L 409.507398 138.481765 
L 410.48241 138.481765 
L 411.457422 138.481765 
L 412.432435 138.481765 
L 413.407447 134.055856 
L 414.382459 134.055856 
L 415.357471 134.055856 
" clip-path="url(#p711da7284d)" style="fill: none; stroke: #f6cfaf; stroke-width: 2; stroke-linecap: square"/>
   </g>
   <g id="LineCollection_3">
    <path d="M 323.377158 253.045969 
L 323.377158 241.403569 
" clip-path="url(#p711da7284d)" style="fill: none; stroke: #000000; stroke-width: 2"/>
    <path d="M 332.76048 253.045969 
L 332.76048 241.403569 
" clip-path="url(#p711da7284d)" style="fill: none; stroke: #000000; stroke-width: 2"/>
    <path d="M 340.546031 253.045969 
L 340.546031 241.403569 
" clip-path="url(#p711da7284d)" style="fill: none; stroke: #000000; stroke-width: 2"/>
    <path d="M 348.050221 253.045969 
L 348.050221 241.403569 
" clip-path="url(#p711da7284d)" style="fill: none; stroke: #000000; stroke-width: 2"/>
    <path d="M 356.164797 253.045969 
L 356.164797 241.403569 
" clip-path="url(#p711da7284d)" style="fill: none; stroke: #000000; stroke-width: 2"/>
    <path d="M 365.153998 253.045969 
L 365.153998 241.403569 
" clip-path="url(#p711da7284d)" style="fill: none; stroke: #000000; stroke-width: 2"/>
    <path d="M 373.576312 253.045969 
L 373.576312 241.403569 
" clip-path="url(#p711da7284d)" style="fill: none; stroke: #000000; stroke-width: 2"/>
    <path d="M 385.989508 253.045969 
L 385.989508 241.403569 
" clip-path="url(#p711da7284d)" style="fill: none; stroke: #000000; stroke-width: 2"/>
    <path d="M 401.730166 253.045969 
L 401.730166 241.403569 
" clip-path="url(#p711da7284d)" style="fill: none; stroke: #000000; stroke-width: 2"/>
   </g>
   <g id="patch_10">
    <path d="M 314.004958 253.045969 
L 314.004958 20.197969 
" style="fill: none; stroke: #000000; stroke-width: 0.9; stroke-linejoin: miter; stroke-linecap: square"/>
   </g>
   <g id="patch_11">
    <path d="M 314.004958 253.045969 
L 420.183781 253.045969 
" style="fill: none; stroke: #000000; stroke-width: 0.9; stroke-linejoin: miter; stroke-linecap: square"/>
   </g>
  </g>
 </g>
 <defs>
  <clipPath id="p7b9eabd31a">
   <rect x="59.175781" y="20.197969" width="106.178824" height="232.848"/>
  </clipPath>
  <clipPath id="pde5ae7caea">
   <rect x="186.590369" y="20.197969" width="106.178824" height="232.848"/>
  </clipPath>
  <clipPath id="p711da7284d">
   <rect x="314.004958" y="20.197969" width="106.178824" height="232.848"/>
  </clipPath>
 </defs>
</svg>
