<?xml version="1.0" encoding="utf-8" standalone="no"?>
<!DOCTYPE svg PUBLIC "-//W3C//DTD SVG 1.1//EN"
  "http://www.w3.org/Graphics/SVG/1.1/DTD/svg11.dtd">
<svg xmlns:xlink="http://www.w3.org/1999/xlink" width="519.641441pt" height="289.463781pt" viewBox="0 0 519.641441 289.463781" xmlns="http://www.w3.org/2000/svg" version="1.1">
 <metadata>
  <rdf:RDF xmlns:dc="http://purl.org/dc/elements/1.1/" xmlns:cc="http://creativecommons.org/ns#" xmlns:rdf="http://www.w3.org/1999/02/22-rdf-syntax-ns#">
   <cc:Work>
    <dc:type rdf:resource="http://purl.org/dc/dcmitype/StillImage"/>
    <dc:date>2026-01-20T13:38:53.138140</dc:date>
    <dc:format>image/svg+xml</dc:format>
    <dc:creator>
     <cc:Agent>
      <dc:title>Matplotlib v3.7.2, https://matplotlib.org/</dc:title>
     </cc:Agent>
    </dc:creator>
   </cc:Work>
  </rdf:RDF>
 </metadata>
 <defs>
  <style type="text/css">*{stroke-linejoin: round; stroke-linecap: butt}</style>
 </defs>
 <g id="figure_1">
  <g id="patch_1">
   <path d="M -0 289.463781 
L 519.641441 289.463781 
L 519.641441 0 
L -0 0 
z
" style="fill: #ffffff"/>
  </g>
  <g id="axes_1">
   <g id="text_1">
    <g id="patch_2">
     <path d="M 427.403941 122.567062 
L 515.321441 122.567062 
Q 520.821441 122.567062 520.821441 117.067062 
L 520.821441 20.197969 
Q 520.821441 14.697969 515.321441 14.697969 
L 427.403941 14.697969 
Q 421.903941 14.697969 421.903941 20.197969 
L 421.903941 117.067062 
Q 421.903941 122.567062 427.403941 122.567062 
z
" style="fill: #ffffff; opacity: 0.95; stroke: #b2b2b2; stroke-linejoin: miter"/>
    </g>
    <!-- Target: CO -->
    <g transform="translate(427.403941 28.55625) scale(0.11 -0.11)">
     <defs>
      <path id="DejaVuSans-54" d="M -19 4666 
L 3928 4666 
L 3928 4134 
L 2272 4134 
L 2272 0 
L 1638 0 
L 1638 4134 
L -19 4134 
L -19 4666 
z
" transform="scale(0.015625)"/>
      <path id="DejaVuSans-61" d="M 2194 1759 
Q 1497 1759 1228 1600 
Q 959 1441 959 1056 
Q 959 750 1161 570 
Q 1363 391 1709 391 
Q 2188 391 2477 730 
Q 2766 1069 2766 1631 
L 2766 1759 
L 2194 1759 
z
M 3341 1997 
L 3341 0 
L 2766 0 
L 2766 531 
Q 2569 213 2275 61 
Q 1981 -91 1556 -91 
Q 1019 -91 701 211 
Q 384 513 384 1019 
Q 384 1609 779 1909 
Q 1175 2209 1959 2209 
L 2766 2209 
L 2766 2266 
Q 2766 2663 2505 2880 
Q 2244 3097 1772 3097 
Q 1472 3097 1187 3025 
Q 903 2953 641 2809 
L 641 3341 
Q 956 3463 1253 3523 
Q 1550 3584 1831 3584 
Q 2591 3584 2966 3190 
Q 3341 2797 3341 1997 
z
" transform="scale(0.015625)"/>
      <path id="DejaVuSans-72" d="M 2631 2963 
Q 2534 3019 2420 3045 
Q 2306 3072 2169 3072 
Q 1681 3072 1420 2755 
Q 1159 2438 1159 1844 
L 1159 0 
L 581 0 
L 581 3500 
L 1159 3500 
L 1159 2956 
Q 1341 3275 1631 3429 
Q 1922 3584 2338 3584 
Q 2397 3584 2469 3576 
Q 2541 3569 2628 3553 
L 2631 2963 
z
" transform="scale(0.015625)"/>
      <path id="DejaVuSans-67" d="M 2906 1791 
Q 2906 2416 2648 2759 
Q 2391 3103 1925 3103 
Q 1463 3103 1205 2759 
Q 947 2416 947 1791 
Q 947 1169 1205 825 
Q 1463 481 1925 481 
Q 2391 481 2648 825 
Q 2906 1169 2906 1791 
z
M 3481 434 
Q 3481 -459 3084 -895 
Q 2688 -1331 1869 -1331 
Q 1566 -1331 1297 -1286 
Q 1028 -1241 775 -1147 
L 775 -588 
Q 1028 -725 1275 -790 
Q 1522 -856 1778 -856 
Q 2344 -856 2625 -561 
Q 2906 -266 2906 331 
L 2906 616 
Q 2728 306 2450 153 
Q 2172 0 1784 0 
Q 1141 0 747 490 
Q 353 981 353 1791 
Q 353 2603 747 3093 
Q 1141 3584 1784 3584 
Q 2172 3584 2450 3431 
Q 2728 3278 2906 2969 
L 2906 3500 
L 3481 3500 
L 3481 434 
z
" transform="scale(0.015625)"/>
      <path id="DejaVuSans-65" d="M 3597 1894 
L 3597 1613 
L 953 1613 
Q 991 1019 1311 708 
Q 1631 397 2203 397 
Q 2534 397 2845 478 
Q 3156 559 3463 722 
L 3463 178 
Q 3153 47 2828 -22 
Q 2503 -91 2169 -91 
Q 1331 -91 842 396 
Q 353 884 353 1716 
Q 353 2575 817 3079 
Q 1281 3584 2069 3584 
Q 2775 3584 3186 3129 
Q 3597 2675 3597 1894 
z
M 3022 2063 
Q 3016 2534 2758 2815 
Q 2500 3097 2075 3097 
Q 1594 3097 1305 2825 
Q 1016 2553 972 2059 
L 3022 2063 
z
" transform="scale(0.015625)"/>
      <path id="DejaVuSans-74" d="M 1172 4494 
L 1172 3500 
L 2356 3500 
L 2356 3053 
L 1172 3053 
L 1172 1153 
Q 1172 725 1289 603 
Q 1406 481 1766 481 
L 2356 481 
L 2356 0 
L 1766 0 
Q 1100 0 847 248 
Q 594 497 594 1153 
L 594 3053 
L 172 3053 
L 172 3500 
L 594 3500 
L 594 4494 
L 1172 4494 
z
" transform="scale(0.015625)"/>
      <path id="DejaVuSans-3a" d="M 750 794 
L 1409 794 
L 1409 0 
L 750 0 
L 750 794 
z
M 750 3309 
L 1409 3309 
L 1409 2516 
L 750 2516 
L 750 3309 
z
" transform="scale(0.015625)"/>
      <path id="DejaVuSans-20" transform="scale(0.015625)"/>
      <path id="DejaVuSans-43" d="M 4122 4306 
L 4122 3641 
Q 3803 3938 3442 4084 
Q 3081 4231 2675 4231 
Q 1875 4231 1450 3742 
Q 1025 3253 1025 2328 
Q 1025 1406 1450 917 
Q 1875 428 2675 428 
Q 3081 428 3442 575 
Q 3803 722 4122 1019 
L 4122 359 
Q 3791 134 3420 21 
Q 3050 -91 2638 -91 
Q 1578 -91 968 557 
Q 359 1206 359 2328 
Q 359 3453 968 4101 
Q 1578 4750 2638 4750 
Q 3056 4750 3426 4639 
Q 3797 4528 4122 4306 
z
" transform="scale(0.015625)"/>
      <path id="DejaVuSans-4f" d="M 2522 4238 
Q 1834 4238 1429 3725 
Q 1025 3213 1025 2328 
Q 1025 1447 1429 934 
Q 1834 422 2522 422 
Q 3209 422 3611 934 
Q 4013 1447 4013 2328 
Q 4013 3213 3611 3725 
Q 3209 4238 2522 4238 
z
M 2522 4750 
Q 3503 4750 4090 4092 
Q 4678 3434 4678 2328 
Q 4678 1225 4090 567 
Q 3503 -91 2522 -91 
Q 1538 -91 948 565 
Q 359 1222 359 2328 
Q 359 3434 948 4092 
Q 1538 4750 2522 4750 
z
" transform="scale(0.015625)"/>
     </defs>
     <use xlink:href="#DejaVuSans-54"/>
     <use xlink:href="#DejaVuSans-61" x="44.583984"/>
     <use xlink:href="#DejaVuSans-72" x="105.863281"/>
     <use xlink:href="#DejaVuSans-67" x="145.226562"/>
     <use xlink:href="#DejaVuSans-65" x="208.703125"/>
     <use xlink:href="#DejaVuSans-74" x="270.226562"/>
     <use xlink:href="#DejaVuSans-3a" x="309.435547"/>
     <use xlink:href="#DejaVuSans-20" x="343.126953"/>
     <use xlink:href="#DejaVuSans-43" x="374.914062"/>
     <use xlink:href="#DejaVuSans-4f" x="444.738281"/>
    </g>
    <!-- Best: HGBR -->
    <g transform="translate(427.403941 40.873844) scale(0.11 -0.11)">
     <defs>
      <path id="DejaVuSans-42" d="M 1259 2228 
L 1259 519 
L 2272 519 
Q 2781 519 3026 730 
Q 3272 941 3272 1375 
Q 3272 1813 3026 2020 
Q 2781 2228 2272 2228 
L 1259 2228 
z
M 1259 4147 
L 1259 2741 
L 2194 2741 
Q 2656 2741 2882 2914 
Q 3109 3088 3109 3444 
Q 3109 3797 2882 3972 
Q 2656 4147 2194 4147 
L 1259 4147 
z
M 628 4666 
L 2241 4666 
Q 2963 4666 3353 4366 
Q 3744 4066 3744 3513 
Q 3744 3084 3544 2831 
Q 3344 2578 2956 2516 
Q 3422 2416 3680 2098 
Q 3938 1781 3938 1306 
Q 3938 681 3513 340 
Q 3088 0 2303 0 
L 628 0 
L 628 4666 
z
" transform="scale(0.015625)"/>
      <path id="DejaVuSans-73" d="M 2834 3397 
L 2834 2853 
Q 2591 2978 2328 3040 
Q 2066 3103 1784 3103 
Q 1356 3103 1142 2972 
Q 928 2841 928 2578 
Q 928 2378 1081 2264 
Q 1234 2150 1697 2047 
L 1894 2003 
Q 2506 1872 2764 1633 
Q 3022 1394 3022 966 
Q 3022 478 2636 193 
Q 2250 -91 1575 -91 
Q 1294 -91 989 -36 
Q 684 19 347 128 
L 347 722 
Q 666 556 975 473 
Q 1284 391 1588 391 
Q 1994 391 2212 530 
Q 2431 669 2431 922 
Q 2431 1156 2273 1281 
Q 2116 1406 1581 1522 
L 1381 1569 
Q 847 1681 609 1914 
Q 372 2147 372 2553 
Q 372 3047 722 3315 
Q 1072 3584 1716 3584 
Q 2034 3584 2315 3537 
Q 2597 3491 2834 3397 
z
" transform="scale(0.015625)"/>
      <path id="DejaVuSans-48" d="M 628 4666 
L 1259 4666 
L 1259 2753 
L 3553 2753 
L 3553 4666 
L 4184 4666 
L 4184 0 
L 3553 0 
L 3553 2222 
L 1259 2222 
L 1259 0 
L 628 0 
L 628 4666 
z
" transform="scale(0.015625)"/>
      <path id="DejaVuSans-47" d="M 3809 666 
L 3809 1919 
L 2778 1919 
L 2778 2438 
L 4434 2438 
L 4434 434 
Q 4069 175 3628 42 
Q 3188 -91 2688 -91 
Q 1594 -91 976 548 
Q 359 1188 359 2328 
Q 359 3472 976 4111 
Q 1594 4750 2688 4750 
Q 3144 4750 3555 4637 
Q 3966 4525 4313 4306 
L 4313 3634 
Q 3963 3931 3569 4081 
Q 3175 4231 2741 4231 
Q 1884 4231 1454 3753 
Q 1025 3275 1025 2328 
Q 1025 1384 1454 906 
Q 1884 428 2741 428 
Q 3075 428 3337 486 
Q 3600 544 3809 666 
z
" transform="scale(0.015625)"/>
      <path id="DejaVuSans-52" d="M 2841 2188 
Q 3044 2119 3236 1894 
Q 3428 1669 3622 1275 
L 4263 0 
L 3584 0 
L 2988 1197 
Q 2756 1666 2539 1819 
Q 2322 1972 1947 1972 
L 1259 1972 
L 1259 0 
L 628 0 
L 628 4666 
L 2053 4666 
Q 2853 4666 3247 4331 
Q 3641 3997 3641 3322 
Q 3641 2881 3436 2590 
Q 3231 2300 2841 2188 
z
M 1259 4147 
L 1259 2491 
L 2053 2491 
Q 2509 2491 2742 2702 
Q 2975 2913 2975 3322 
Q 2975 3731 2742 3939 
Q 2509 4147 2053 4147 
L 1259 4147 
z
" transform="scale(0.015625)"/>
     </defs>
     <use xlink:href="#DejaVuSans-42"/>
     <use xlink:href="#DejaVuSans-65" x="68.603516"/>
     <use xlink:href="#DejaVuSans-73" x="130.126953"/>
     <use xlink:href="#DejaVuSans-74" x="182.226562"/>
     <use xlink:href="#DejaVuSans-3a" x="221.435547"/>
     <use xlink:href="#DejaVuSans-20" x="255.126953"/>
     <use xlink:href="#DejaVuSans-48" x="286.914062"/>
     <use xlink:href="#DejaVuSans-47" x="362.109375"/>
     <use xlink:href="#DejaVuSans-42" x="439.599609"/>
     <use xlink:href="#DejaVuSans-52" x="508.203125"/>
    </g>
    <!-- CV RMSE: 0.13 -->
    <g transform="translate(427.403941 53.191437) scale(0.11 -0.11)">
     <defs>
      <path id="DejaVuSans-56" d="M 1831 0 
L 50 4666 
L 709 4666 
L 2188 738 
L 3669 4666 
L 4325 4666 
L 2547 0 
L 1831 0 
z
" transform="scale(0.015625)"/>
      <path id="DejaVuSans-4d" d="M 628 4666 
L 1569 4666 
L 2759 1491 
L 3956 4666 
L 4897 4666 
L 4897 0 
L 4281 0 
L 4281 4097 
L 3078 897 
L 2444 897 
L 1241 4097 
L 1241 0 
L 628 0 
L 628 4666 
z
" transform="scale(0.015625)"/>
      <path id="DejaVuSans-53" d="M 3425 4513 
L 3425 3897 
Q 3066 4069 2747 4153 
Q 2428 4238 2131 4238 
Q 1616 4238 1336 4038 
Q 1056 3838 1056 3469 
Q 1056 3159 1242 3001 
Q 1428 2844 1947 2747 
L 2328 2669 
Q 3034 2534 3370 2195 
Q 3706 1856 3706 1288 
Q 3706 609 3251 259 
Q 2797 -91 1919 -91 
Q 1588 -91 1214 -16 
Q 841 59 441 206 
L 441 856 
Q 825 641 1194 531 
Q 1563 422 1919 422 
Q 2459 422 2753 634 
Q 3047 847 3047 1241 
Q 3047 1584 2836 1778 
Q 2625 1972 2144 2069 
L 1759 2144 
Q 1053 2284 737 2584 
Q 422 2884 422 3419 
Q 422 4038 858 4394 
Q 1294 4750 2059 4750 
Q 2388 4750 2728 4690 
Q 3069 4631 3425 4513 
z
" transform="scale(0.015625)"/>
      <path id="DejaVuSans-45" d="M 628 4666 
L 3578 4666 
L 3578 4134 
L 1259 4134 
L 1259 2753 
L 3481 2753 
L 3481 2222 
L 1259 2222 
L 1259 531 
L 3634 531 
L 3634 0 
L 628 0 
L 628 4666 
z
" transform="scale(0.015625)"/>
      <path id="DejaVuSans-30" d="M 2034 4250 
Q 1547 4250 1301 3770 
Q 1056 3291 1056 2328 
Q 1056 1369 1301 889 
Q 1547 409 2034 409 
Q 2525 409 2770 889 
Q 3016 1369 3016 2328 
Q 3016 3291 2770 3770 
Q 2525 4250 2034 4250 
z
M 2034 4750 
Q 2819 4750 3233 4129 
Q 3647 3509 3647 2328 
Q 3647 1150 3233 529 
Q 2819 -91 2034 -91 
Q 1250 -91 836 529 
Q 422 1150 422 2328 
Q 422 3509 836 4129 
Q 1250 4750 2034 4750 
z
" transform="scale(0.015625)"/>
      <path id="DejaVuSans-2e" d="M 684 794 
L 1344 794 
L 1344 0 
L 684 0 
L 684 794 
z
" transform="scale(0.015625)"/>
      <path id="DejaVuSans-31" d="M 794 531 
L 1825 531 
L 1825 4091 
L 703 3866 
L 703 4441 
L 1819 4666 
L 2450 4666 
L 2450 531 
L 3481 531 
L 3481 0 
L 794 0 
L 794 531 
z
" transform="scale(0.015625)"/>
      <path id="DejaVuSans-33" d="M 2597 2516 
Q 3050 2419 3304 2112 
Q 3559 1806 3559 1356 
Q 3559 666 3084 287 
Q 2609 -91 1734 -91 
Q 1441 -91 1130 -33 
Q 819 25 488 141 
L 488 750 
Q 750 597 1062 519 
Q 1375 441 1716 441 
Q 2309 441 2620 675 
Q 2931 909 2931 1356 
Q 2931 1769 2642 2001 
Q 2353 2234 1838 2234 
L 1294 2234 
L 1294 2753 
L 1863 2753 
Q 2328 2753 2575 2939 
Q 2822 3125 2822 3475 
Q 2822 3834 2567 4026 
Q 2313 4219 1838 4219 
Q 1578 4219 1281 4162 
Q 984 4106 628 3988 
L 628 4550 
Q 988 4650 1302 4700 
Q 1616 4750 1894 4750 
Q 2613 4750 3031 4423 
Q 3450 4097 3450 3541 
Q 3450 3153 3228 2886 
Q 3006 2619 2597 2516 
z
" transform="scale(0.015625)"/>
     </defs>
     <use xlink:href="#DejaVuSans-43"/>
     <use xlink:href="#DejaVuSans-56" x="69.824219"/>
     <use xlink:href="#DejaVuSans-20" x="138.232422"/>
     <use xlink:href="#DejaVuSans-52" x="170.019531"/>
     <use xlink:href="#DejaVuSans-4d" x="239.501953"/>
     <use xlink:href="#DejaVuSans-53" x="325.78125"/>
     <use xlink:href="#DejaVuSans-45" x="389.257812"/>
     <use xlink:href="#DejaVuSans-3a" x="452.441406"/>
     <use xlink:href="#DejaVuSans-20" x="486.132812"/>
     <use xlink:href="#DejaVuSans-30" x="517.919922"/>
     <use xlink:href="#DejaVuSans-2e" x="581.542969"/>
     <use xlink:href="#DejaVuSans-31" x="613.330078"/>
     <use xlink:href="#DejaVuSans-33" x="676.953125"/>
    </g>
    <!-- Test RMSE: 0.12 -->
    <g transform="translate(427.403941 65.509031) scale(0.11 -0.11)">
     <defs>
      <path id="DejaVuSans-32" d="M 1228 531 
L 3431 531 
L 3431 0 
L 469 0 
L 469 531 
Q 828 903 1448 1529 
Q 2069 2156 2228 2338 
Q 2531 2678 2651 2914 
Q 2772 3150 2772 3378 
Q 2772 3750 2511 3984 
Q 2250 4219 1831 4219 
Q 1534 4219 1204 4116 
Q 875 4013 500 3803 
L 500 4441 
Q 881 4594 1212 4672 
Q 1544 4750 1819 4750 
Q 2544 4750 2975 4387 
Q 3406 4025 3406 3419 
Q 3406 3131 3298 2873 
Q 3191 2616 2906 2266 
Q 2828 2175 2409 1742 
Q 1991 1309 1228 531 
z
" transform="scale(0.015625)"/>
     </defs>
     <use xlink:href="#DejaVuSans-54"/>
     <use xlink:href="#DejaVuSans-65" x="44.083984"/>
     <use xlink:href="#DejaVuSans-73" x="105.607422"/>
     <use xlink:href="#DejaVuSans-74" x="157.707031"/>
     <use xlink:href="#DejaVuSans-20" x="196.916016"/>
     <use xlink:href="#DejaVuSans-52" x="228.703125"/>
     <use xlink:href="#DejaVuSans-4d" x="298.185547"/>
     <use xlink:href="#DejaVuSans-53" x="384.464844"/>
     <use xlink:href="#DejaVuSans-45" x="447.941406"/>
     <use xlink:href="#DejaVuSans-3a" x="511.125"/>
     <use xlink:href="#DejaVuSans-20" x="544.816406"/>
     <use xlink:href="#DejaVuSans-30" x="576.603516"/>
     <use xlink:href="#DejaVuSans-2e" x="640.226562"/>
     <use xlink:href="#DejaVuSans-31" x="672.013672"/>
     <use xlink:href="#DejaVuSans-32" x="735.636719"/>
    </g>
    <!-- Test MAE: 0.07 -->
    <g transform="translate(427.403941 77.826625) scale(0.11 -0.11)">
     <defs>
      <path id="DejaVuSans-41" d="M 2188 4044 
L 1331 1722 
L 3047 1722 
L 2188 4044 
z
M 1831 4666 
L 2547 4666 
L 4325 0 
L 3669 0 
L 3244 1197 
L 1141 1197 
L 716 0 
L 50 0 
L 1831 4666 
z
" transform="scale(0.015625)"/>
      <path id="DejaVuSans-37" d="M 525 4666 
L 3525 4666 
L 3525 4397 
L 1831 0 
L 1172 0 
L 2766 4134 
L 525 4134 
L 525 4666 
z
" transform="scale(0.015625)"/>
     </defs>
     <use xlink:href="#DejaVuSans-54"/>
     <use xlink:href="#DejaVuSans-65" x="44.083984"/>
     <use xlink:href="#DejaVuSans-73" x="105.607422"/>
     <use xlink:href="#DejaVuSans-74" x="157.707031"/>
     <use xlink:href="#DejaVuSans-20" x="196.916016"/>
     <use xlink:href="#DejaVuSans-4d" x="228.703125"/>
     <use xlink:href="#DejaVuSans-41" x="314.982422"/>
     <use xlink:href="#DejaVuSans-45" x="383.390625"/>
     <use xlink:href="#DejaVuSans-3a" x="446.574219"/>
     <use xlink:href="#DejaVuSans-20" x="480.265625"/>
     <use xlink:href="#DejaVuSans-30" x="512.052734"/>
     <use xlink:href="#DejaVuSans-2e" x="575.675781"/>
     <use xlink:href="#DejaVuSans-30" x="607.462891"/>
     <use xlink:href="#DejaVuSans-37" x="671.085938"/>
    </g>
    <!-- N(train): 2266 -->
    <g transform="translate(427.403941 90.144219) scale(0.11 -0.11)">
     <defs>
      <path id="DejaVuSans-4e" d="M 628 4666 
L 1478 4666 
L 3547 763 
L 3547 4666 
L 4159 4666 
L 4159 0 
L 3309 0 
L 1241 3903 
L 1241 0 
L 628 0 
L 628 4666 
z
" transform="scale(0.015625)"/>
      <path id="DejaVuSans-28" d="M 1984 4856 
Q 1566 4138 1362 3434 
Q 1159 2731 1159 2009 
Q 1159 1288 1364 580 
Q 1569 -128 1984 -844 
L 1484 -844 
Q 1016 -109 783 600 
Q 550 1309 550 2009 
Q 550 2706 781 3412 
Q 1013 4119 1484 4856 
L 1984 4856 
z
" transform="scale(0.015625)"/>
      <path id="DejaVuSans-69" d="M 603 3500 
L 1178 3500 
L 1178 0 
L 603 0 
L 603 3500 
z
M 603 4863 
L 1178 4863 
L 1178 4134 
L 603 4134 
L 603 4863 
z
" transform="scale(0.015625)"/>
      <path id="DejaVuSans-6e" d="M 3513 2113 
L 3513 0 
L 2938 0 
L 2938 2094 
Q 2938 2591 2744 2837 
Q 2550 3084 2163 3084 
Q 1697 3084 1428 2787 
Q 1159 2491 1159 1978 
L 1159 0 
L 581 0 
L 581 3500 
L 1159 3500 
L 1159 2956 
Q 1366 3272 1645 3428 
Q 1925 3584 2291 3584 
Q 2894 3584 3203 3211 
Q 3513 2838 3513 2113 
z
" transform="scale(0.015625)"/>
      <path id="DejaVuSans-29" d="M 513 4856 
L 1013 4856 
Q 1481 4119 1714 3412 
Q 1947 2706 1947 2009 
Q 1947 1309 1714 600 
Q 1481 -109 1013 -844 
L 513 -844 
Q 928 -128 1133 580 
Q 1338 1288 1338 2009 
Q 1338 2731 1133 3434 
Q 928 4138 513 4856 
z
" transform="scale(0.015625)"/>
      <path id="DejaVuSans-36" d="M 2113 2584 
Q 1688 2584 1439 2293 
Q 1191 2003 1191 1497 
Q 1191 994 1439 701 
Q 1688 409 2113 409 
Q 2538 409 2786 701 
Q 3034 994 3034 1497 
Q 3034 2003 2786 2293 
Q 2538 2584 2113 2584 
z
M 3366 4563 
L 3366 3988 
Q 3128 4100 2886 4159 
Q 2644 4219 2406 4219 
Q 1781 4219 1451 3797 
Q 1122 3375 1075 2522 
Q 1259 2794 1537 2939 
Q 1816 3084 2150 3084 
Q 2853 3084 3261 2657 
Q 3669 2231 3669 1497 
Q 3669 778 3244 343 
Q 2819 -91 2113 -91 
Q 1303 -91 875 529 
Q 447 1150 447 2328 
Q 447 3434 972 4092 
Q 1497 4750 2381 4750 
Q 2619 4750 2861 4703 
Q 3103 4656 3366 4563 
z
" transform="scale(0.015625)"/>
     </defs>
     <use xlink:href="#DejaVuSans-4e"/>
     <use xlink:href="#DejaVuSans-28" x="74.804688"/>
     <use xlink:href="#DejaVuSans-74" x="113.818359"/>
     <use xlink:href="#DejaVuSans-72" x="153.027344"/>
     <use xlink:href="#DejaVuSans-61" x="194.140625"/>
     <use xlink:href="#DejaVuSans-69" x="255.419922"/>
     <use xlink:href="#DejaVuSans-6e" x="283.203125"/>
     <use xlink:href="#DejaVuSans-29" x="346.582031"/>
     <use xlink:href="#DejaVuSans-3a" x="385.595703"/>
     <use xlink:href="#DejaVuSans-20" x="419.287109"/>
     <use xlink:href="#DejaVuSans-32" x="451.074219"/>
     <use xlink:href="#DejaVuSans-32" x="514.697266"/>
     <use xlink:href="#DejaVuSans-36" x="578.320312"/>
     <use xlink:href="#DejaVuSans-36" x="641.943359"/>
    </g>
    <!-- N(test):  567 -->
    <g transform="translate(427.403941 102.461812) scale(0.11 -0.11)">
     <defs>
      <path id="DejaVuSans-35" d="M 691 4666 
L 3169 4666 
L 3169 4134 
L 1269 4134 
L 1269 2991 
Q 1406 3038 1543 3061 
Q 1681 3084 1819 3084 
Q 2600 3084 3056 2656 
Q 3513 2228 3513 1497 
Q 3513 744 3044 326 
Q 2575 -91 1722 -91 
Q 1428 -91 1123 -41 
Q 819 9 494 109 
L 494 744 
Q 775 591 1075 516 
Q 1375 441 1709 441 
Q 2250 441 2565 725 
Q 2881 1009 2881 1497 
Q 2881 1984 2565 2268 
Q 2250 2553 1709 2553 
Q 1456 2553 1204 2497 
Q 953 2441 691 2322 
L 691 4666 
z
" transform="scale(0.015625)"/>
     </defs>
     <use xlink:href="#DejaVuSans-4e"/>
     <use xlink:href="#DejaVuSans-28" x="74.804688"/>
     <use xlink:href="#DejaVuSans-74" x="113.818359"/>
     <use xlink:href="#DejaVuSans-65" x="153.027344"/>
     <use xlink:href="#DejaVuSans-73" x="214.550781"/>
     <use xlink:href="#DejaVuSans-74" x="266.650391"/>
     <use xlink:href="#DejaVuSans-29" x="305.859375"/>
     <use xlink:href="#DejaVuSans-3a" x="344.873047"/>
     <use xlink:href="#DejaVuSans-20" x="378.564453"/>
     <use xlink:href="#DejaVuSans-20" x="410.351562"/>
     <use xlink:href="#DejaVuSans-35" x="442.138672"/>
     <use xlink:href="#DejaVuSans-36" x="505.761719"/>
     <use xlink:href="#DejaVuSans-37" x="569.384766"/>
    </g>
    <!-- tol=±5 min -->
    <g transform="translate(427.403941 114.779406) scale(0.11 -0.11)">
     <defs>
      <path id="DejaVuSans-6f" d="M 1959 3097 
Q 1497 3097 1228 2736 
Q 959 2375 959 1747 
Q 959 1119 1226 758 
Q 1494 397 1959 397 
Q 2419 397 2687 759 
Q 2956 1122 2956 1747 
Q 2956 2369 2687 2733 
Q 2419 3097 1959 3097 
z
M 1959 3584 
Q 2709 3584 3137 3096 
Q 3566 2609 3566 1747 
Q 3566 888 3137 398 
Q 2709 -91 1959 -91 
Q 1206 -91 779 398 
Q 353 888 353 1747 
Q 353 2609 779 3096 
Q 1206 3584 1959 3584 
z
" transform="scale(0.015625)"/>
      <path id="DejaVuSans-6c" d="M 603 4863 
L 1178 4863 
L 1178 0 
L 603 0 
L 603 4863 
z
" transform="scale(0.015625)"/>
      <path id="DejaVuSans-3d" d="M 678 2906 
L 4684 2906 
L 4684 2381 
L 678 2381 
L 678 2906 
z
M 678 1631 
L 4684 1631 
L 4684 1100 
L 678 1100 
L 678 1631 
z
" transform="scale(0.015625)"/>
      <path id="DejaVuSans-b1" d="M 2944 4013 
L 2944 2803 
L 4684 2803 
L 4684 2272 
L 2944 2272 
L 2944 1063 
L 2419 1063 
L 2419 2272 
L 678 2272 
L 678 2803 
L 2419 2803 
L 2419 4013 
L 2944 4013 
z
M 678 531 
L 4684 531 
L 4684 0 
L 678 0 
L 678 531 
z
" transform="scale(0.015625)"/>
      <path id="DejaVuSans-6d" d="M 3328 2828 
Q 3544 3216 3844 3400 
Q 4144 3584 4550 3584 
Q 5097 3584 5394 3201 
Q 5691 2819 5691 2113 
L 5691 0 
L 5113 0 
L 5113 2094 
Q 5113 2597 4934 2840 
Q 4756 3084 4391 3084 
Q 3944 3084 3684 2787 
Q 3425 2491 3425 1978 
L 3425 0 
L 2847 0 
L 2847 2094 
Q 2847 2600 2669 2842 
Q 2491 3084 2119 3084 
Q 1678 3084 1418 2786 
Q 1159 2488 1159 1978 
L 1159 0 
L 581 0 
L 581 3500 
L 1159 3500 
L 1159 2956 
Q 1356 3278 1631 3431 
Q 1906 3584 2284 3584 
Q 2666 3584 2933 3390 
Q 3200 3197 3328 2828 
z
" transform="scale(0.015625)"/>
     </defs>
     <use xlink:href="#DejaVuSans-74"/>
     <use xlink:href="#DejaVuSans-6f" x="39.208984"/>
     <use xlink:href="#DejaVuSans-6c" x="100.390625"/>
     <use xlink:href="#DejaVuSans-3d" x="128.173828"/>
     <use xlink:href="#DejaVuSans-b1" x="211.962891"/>
     <use xlink:href="#DejaVuSans-35" x="295.751953"/>
     <use xlink:href="#DejaVuSans-20" x="359.375"/>
     <use xlink:href="#DejaVuSans-6d" x="391.162109"/>
     <use xlink:href="#DejaVuSans-69" x="488.574219"/>
     <use xlink:href="#DejaVuSans-6e" x="516.357422"/>
    </g>
   </g>
   <g id="text_2">
    <!-- [CO] Partial dependence (direction of key factors) -->
    <g transform="translate(78.318297 14.197969) scale(0.13 -0.13)">
     <defs>
      <path id="DejaVuSans-5b" d="M 550 4863 
L 1875 4863 
L 1875 4416 
L 1125 4416 
L 1125 -397 
L 1875 -397 
L 1875 -844 
L 550 -844 
L 550 4863 
z
" transform="scale(0.015625)"/>
      <path id="DejaVuSans-5d" d="M 1947 4863 
L 1947 -844 
L 622 -844 
L 622 -397 
L 1369 -397 
L 1369 4416 
L 622 4416 
L 622 4863 
L 1947 4863 
z
" transform="scale(0.015625)"/>
      <path id="DejaVuSans-50" d="M 1259 4147 
L 1259 2394 
L 2053 2394 
Q 2494 2394 2734 2622 
Q 2975 2850 2975 3272 
Q 2975 3691 2734 3919 
Q 2494 4147 2053 4147 
L 1259 4147 
z
M 628 4666 
L 2053 4666 
Q 2838 4666 3239 4311 
Q 3641 3956 3641 3272 
Q 3641 2581 3239 2228 
Q 2838 1875 2053 1875 
L 1259 1875 
L 1259 0 
L 628 0 
L 628 4666 
z
" transform="scale(0.015625)"/>
      <path id="DejaVuSans-64" d="M 2906 2969 
L 2906 4863 
L 3481 4863 
L 3481 0 
L 2906 0 
L 2906 525 
Q 2725 213 2448 61 
Q 2172 -91 1784 -91 
Q 1150 -91 751 415 
Q 353 922 353 1747 
Q 353 2572 751 3078 
Q 1150 3584 1784 3584 
Q 2172 3584 2448 3432 
Q 2725 3281 2906 2969 
z
M 947 1747 
Q 947 1113 1208 752 
Q 1469 391 1925 391 
Q 2381 391 2643 752 
Q 2906 1113 2906 1747 
Q 2906 2381 2643 2742 
Q 2381 3103 1925 3103 
Q 1469 3103 1208 2742 
Q 947 2381 947 1747 
z
" transform="scale(0.015625)"/>
      <path id="DejaVuSans-70" d="M 1159 525 
L 1159 -1331 
L 581 -1331 
L 581 3500 
L 1159 3500 
L 1159 2969 
Q 1341 3281 1617 3432 
Q 1894 3584 2278 3584 
Q 2916 3584 3314 3078 
Q 3713 2572 3713 1747 
Q 3713 922 3314 415 
Q 2916 -91 2278 -91 
Q 1894 -91 1617 61 
Q 1341 213 1159 525 
z
M 3116 1747 
Q 3116 2381 2855 2742 
Q 2594 3103 2138 3103 
Q 1681 3103 1420 2742 
Q 1159 2381 1159 1747 
Q 1159 1113 1420 752 
Q 1681 391 2138 391 
Q 2594 391 2855 752 
Q 3116 1113 3116 1747 
z
" transform="scale(0.015625)"/>
      <path id="DejaVuSans-63" d="M 3122 3366 
L 3122 2828 
Q 2878 2963 2633 3030 
Q 2388 3097 2138 3097 
Q 1578 3097 1268 2742 
Q 959 2388 959 1747 
Q 959 1106 1268 751 
Q 1578 397 2138 397 
Q 2388 397 2633 464 
Q 2878 531 3122 666 
L 3122 134 
Q 2881 22 2623 -34 
Q 2366 -91 2075 -91 
Q 1284 -91 818 406 
Q 353 903 353 1747 
Q 353 2603 823 3093 
Q 1294 3584 2113 3584 
Q 2378 3584 2631 3529 
Q 2884 3475 3122 3366 
z
" transform="scale(0.015625)"/>
      <path id="DejaVuSans-66" d="M 2375 4863 
L 2375 4384 
L 1825 4384 
Q 1516 4384 1395 4259 
Q 1275 4134 1275 3809 
L 1275 3500 
L 2222 3500 
L 2222 3053 
L 1275 3053 
L 1275 0 
L 697 0 
L 697 3053 
L 147 3053 
L 147 3500 
L 697 3500 
L 697 3744 
Q 697 4328 969 4595 
Q 1241 4863 1831 4863 
L 2375 4863 
z
" transform="scale(0.015625)"/>
      <path id="DejaVuSans-6b" d="M 581 4863 
L 1159 4863 
L 1159 1991 
L 2875 3500 
L 3609 3500 
L 1753 1863 
L 3688 0 
L 2938 0 
L 1159 1709 
L 1159 0 
L 581 0 
L 581 4863 
z
" transform="scale(0.015625)"/>
      <path id="DejaVuSans-79" d="M 2059 -325 
Q 1816 -950 1584 -1140 
Q 1353 -1331 966 -1331 
L 506 -1331 
L 506 -850 
L 844 -850 
Q 1081 -850 1212 -737 
Q 1344 -625 1503 -206 
L 1606 56 
L 191 3500 
L 800 3500 
L 1894 763 
L 2988 3500 
L 3597 3500 
L 2059 -325 
z
" transform="scale(0.015625)"/>
     </defs>
     <use xlink:href="#DejaVuSans-5b"/>
     <use xlink:href="#DejaVuSans-43" x="39.013672"/>
     <use xlink:href="#DejaVuSans-4f" x="108.837891"/>
     <use xlink:href="#DejaVuSans-5d" x="187.548828"/>
     <use xlink:href="#DejaVuSans-20" x="226.5625"/>
     <use xlink:href="#DejaVuSans-50" x="258.349609"/>
     <use xlink:href="#DejaVuSans-61" x="314.152344"/>
     <use xlink:href="#DejaVuSans-72" x="375.431641"/>
     <use xlink:href="#DejaVuSans-74" x="416.544922"/>
     <use xlink:href="#DejaVuSans-69" x="455.753906"/>
     <use xlink:href="#DejaVuSans-61" x="483.537109"/>
     <use xlink:href="#DejaVuSans-6c" x="544.816406"/>
     <use xlink:href="#DejaVuSans-20" x="572.599609"/>
     <use xlink:href="#DejaVuSans-64" x="604.386719"/>
     <use xlink:href="#DejaVuSans-65" x="667.863281"/>
     <use xlink:href="#DejaVuSans-70" x="729.386719"/>
     <use xlink:href="#DejaVuSans-65" x="792.863281"/>
     <use xlink:href="#DejaVuSans-6e" x="854.386719"/>
     <use xlink:href="#DejaVuSans-64" x="917.765625"/>
     <use xlink:href="#DejaVuSans-65" x="981.242188"/>
     <use xlink:href="#DejaVuSans-6e" x="1042.765625"/>
     <use xlink:href="#DejaVuSans-63" x="1106.144531"/>
     <use xlink:href="#DejaVuSans-65" x="1161.125"/>
     <use xlink:href="#DejaVuSans-20" x="1222.648438"/>
     <use xlink:href="#DejaVuSans-28" x="1254.435547"/>
     <use xlink:href="#DejaVuSans-64" x="1293.449219"/>
     <use xlink:href="#DejaVuSans-69" x="1356.925781"/>
     <use xlink:href="#DejaVuSans-72" x="1384.708984"/>
     <use xlink:href="#DejaVuSans-65" x="1423.572266"/>
     <use xlink:href="#DejaVuSans-63" x="1485.095703"/>
     <use xlink:href="#DejaVuSans-74" x="1540.076172"/>
     <use xlink:href="#DejaVuSans-69" x="1579.285156"/>
     <use xlink:href="#DejaVuSans-6f" x="1607.068359"/>
     <use xlink:href="#DejaVuSans-6e" x="1668.25"/>
     <use xlink:href="#DejaVuSans-20" x="1731.628906"/>
     <use xlink:href="#DejaVuSans-6f" x="1763.416016"/>
     <use xlink:href="#DejaVuSans-66" x="1824.597656"/>
     <use xlink:href="#DejaVuSans-20" x="1859.802734"/>
     <use xlink:href="#DejaVuSans-6b" x="1891.589844"/>
     <use xlink:href="#DejaVuSans-65" x="1945.875"/>
     <use xlink:href="#DejaVuSans-79" x="2007.398438"/>
     <use xlink:href="#DejaVuSans-20" x="2066.578125"/>
     <use xlink:href="#DejaVuSans-66" x="2098.365234"/>
     <use xlink:href="#DejaVuSans-61" x="2133.570312"/>
     <use xlink:href="#DejaVuSans-63" x="2194.849609"/>
     <use xlink:href="#DejaVuSans-74" x="2249.830078"/>
     <use xlink:href="#DejaVuSans-6f" x="2289.039062"/>
     <use xlink:href="#DejaVuSans-72" x="2350.220703"/>
     <use xlink:href="#DejaVuSans-73" x="2391.333984"/>
     <use xlink:href="#DejaVuSans-29" x="2443.433594"/>
    </g>
   </g>
  </g>
  <g id="axes_2">
   <g id="patch_3">
    <path d="M 59.175781 253.045969 
L 165.354605 253.045969 
L 165.354605 20.197969 
L 59.175781 20.197969 
z
" style="fill: #ffffff"/>
   </g>
   <g id="matplotlib.axis_1">
    <g id="xtick_1">
     <g id="line2d_1">
      <path d="M 67.084086 253.045969 
L 67.084086 20.197969 
" clip-path="url(#pfa9c7a0803)" style="fill: none; stroke-dasharray: 2.59,1.12; stroke-dashoffset: 0; stroke: #b0b0b0; stroke-opacity: 0.18; stroke-width: 0.7"/>
     </g>
     <g id="line2d_2">
      <defs>
       <path id="m1bb9e4dd96" d="M 0 0 
L 0 3 
" style="stroke: #000000; stroke-width: 0.8"/>
      </defs>
      <g>
       <use xlink:href="#m1bb9e4dd96" x="67.084086" y="253.045969" style="stroke: #000000; stroke-width: 0.8"/>
      </g>
     </g>
     <g id="text_3">
      <!-- 25 -->
      <g transform="translate(60.085336 267.90425) scale(0.11 -0.11)">
       <use xlink:href="#DejaVuSans-32"/>
       <use xlink:href="#DejaVuSans-35" x="63.623047"/>
      </g>
     </g>
    </g>
    <g id="xtick_2">
     <g id="line2d_3">
      <path d="M 102.516711 253.045969 
L 102.516711 20.197969 
" clip-path="url(#pfa9c7a0803)" style="fill: none; stroke-dasharray: 2.59,1.12; stroke-dashoffset: 0; stroke: #b0b0b0; stroke-opacity: 0.18; stroke-width: 0.7"/>
     </g>
     <g id="line2d_4">
      <g>
       <use xlink:href="#m1bb9e4dd96" x="102.516711" y="253.045969" style="stroke: #000000; stroke-width: 0.8"/>
      </g>
     </g>
     <g id="text_4">
      <!-- 50 -->
      <g transform="translate(95.517961 267.90425) scale(0.11 -0.11)">
       <use xlink:href="#DejaVuSans-35"/>
       <use xlink:href="#DejaVuSans-30" x="63.623047"/>
      </g>
     </g>
    </g>
    <g id="xtick_3">
     <g id="line2d_5">
      <path d="M 137.949337 253.045969 
L 137.949337 20.197969 
" clip-path="url(#pfa9c7a0803)" style="fill: none; stroke-dasharray: 2.59,1.12; stroke-dashoffset: 0; stroke: #b0b0b0; stroke-opacity: 0.18; stroke-width: 0.7"/>
     </g>
     <g id="line2d_6">
      <g>
       <use xlink:href="#m1bb9e4dd96" x="137.949337" y="253.045969" style="stroke: #000000; stroke-width: 0.8"/>
      </g>
     </g>
     <g id="text_5">
      <!-- 75 -->
      <g transform="translate(130.950587 267.90425) scale(0.11 -0.11)">
       <use xlink:href="#DejaVuSans-37"/>
       <use xlink:href="#DejaVuSans-35" x="63.623047"/>
      </g>
     </g>
    </g>
    <g id="text_6">
     <!-- mc_Humidity_mean -->
     <g transform="translate(57.847849 282.550187) scale(0.11 -0.11)">
      <defs>
       <path id="DejaVuSans-5f" d="M 3263 -1063 
L 3263 -1509 
L -63 -1509 
L -63 -1063 
L 3263 -1063 
z
" transform="scale(0.015625)"/>
       <path id="DejaVuSans-75" d="M 544 1381 
L 544 3500 
L 1119 3500 
L 1119 1403 
Q 1119 906 1312 657 
Q 1506 409 1894 409 
Q 2359 409 2629 706 
Q 2900 1003 2900 1516 
L 2900 3500 
L 3475 3500 
L 3475 0 
L 2900 0 
L 2900 538 
Q 2691 219 2414 64 
Q 2138 -91 1772 -91 
Q 1169 -91 856 284 
Q 544 659 544 1381 
z
M 1991 3584 
L 1991 3584 
z
" transform="scale(0.015625)"/>
      </defs>
      <use xlink:href="#DejaVuSans-6d"/>
      <use xlink:href="#DejaVuSans-63" x="97.412109"/>
      <use xlink:href="#DejaVuSans-5f" x="152.392578"/>
      <use xlink:href="#DejaVuSans-48" x="202.392578"/>
      <use xlink:href="#DejaVuSans-75" x="277.587891"/>
      <use xlink:href="#DejaVuSans-6d" x="340.966797"/>
      <use xlink:href="#DejaVuSans-69" x="438.378906"/>
      <use xlink:href="#DejaVuSans-64" x="466.162109"/>
      <use xlink:href="#DejaVuSans-69" x="529.638672"/>
      <use xlink:href="#DejaVuSans-74" x="557.421875"/>
      <use xlink:href="#DejaVuSans-79" x="596.630859"/>
      <use xlink:href="#DejaVuSans-5f" x="655.810547"/>
      <use xlink:href="#DejaVuSans-6d" x="705.810547"/>
      <use xlink:href="#DejaVuSans-65" x="803.222656"/>
      <use xlink:href="#DejaVuSans-61" x="864.746094"/>
      <use xlink:href="#DejaVuSans-6e" x="926.025391"/>
     </g>
    </g>
   </g>
   <g id="matplotlib.axis_2">
    <g id="ytick_1">
     <g id="line2d_7">
      <path d="M 59.175781 221.654228 
L 165.354605 221.654228 
" clip-path="url(#pfa9c7a0803)" style="fill: none; stroke-dasharray: 2.59,1.12; stroke-dashoffset: 0; stroke: #b0b0b0; stroke-opacity: 0.18; stroke-width: 0.7"/>
     </g>
     <g id="line2d_8">
      <defs>
       <path id="me55d6addf0" d="M 0 0 
L -3 0 
" style="stroke: #000000; stroke-width: 0.8"/>
      </defs>
      <g>
       <use xlink:href="#me55d6addf0" x="59.175781" y="221.654228" style="stroke: #000000; stroke-width: 0.8"/>
      </g>
     </g>
     <g id="text_7">
      <!-- −0.88 -->
      <g transform="translate(18.965938 225.833369) scale(0.11 -0.11)">
       <defs>
        <path id="DejaVuSans-2212" d="M 678 2272 
L 4684 2272 
L 4684 1741 
L 678 1741 
L 678 2272 
z
" transform="scale(0.015625)"/>
        <path id="DejaVuSans-38" d="M 2034 2216 
Q 1584 2216 1326 1975 
Q 1069 1734 1069 1313 
Q 1069 891 1326 650 
Q 1584 409 2034 409 
Q 2484 409 2743 651 
Q 3003 894 3003 1313 
Q 3003 1734 2745 1975 
Q 2488 2216 2034 2216 
z
M 1403 2484 
Q 997 2584 770 2862 
Q 544 3141 544 3541 
Q 544 4100 942 4425 
Q 1341 4750 2034 4750 
Q 2731 4750 3128 4425 
Q 3525 4100 3525 3541 
Q 3525 3141 3298 2862 
Q 3072 2584 2669 2484 
Q 3125 2378 3379 2068 
Q 3634 1759 3634 1313 
Q 3634 634 3220 271 
Q 2806 -91 2034 -91 
Q 1263 -91 848 271 
Q 434 634 434 1313 
Q 434 1759 690 2068 
Q 947 2378 1403 2484 
z
M 1172 3481 
Q 1172 3119 1398 2916 
Q 1625 2713 2034 2713 
Q 2441 2713 2670 2916 
Q 2900 3119 2900 3481 
Q 2900 3844 2670 4047 
Q 2441 4250 2034 4250 
Q 1625 4250 1398 4047 
Q 1172 3844 1172 3481 
z
" transform="scale(0.015625)"/>
       </defs>
       <use xlink:href="#DejaVuSans-2212"/>
       <use xlink:href="#DejaVuSans-30" x="83.789062"/>
       <use xlink:href="#DejaVuSans-2e" x="147.412109"/>
       <use xlink:href="#DejaVuSans-38" x="179.199219"/>
       <use xlink:href="#DejaVuSans-38" x="242.822266"/>
      </g>
     </g>
    </g>
    <g id="ytick_2">
     <g id="line2d_9">
      <path d="M 59.175781 176.985288 
L 165.354605 176.985288 
" clip-path="url(#pfa9c7a0803)" style="fill: none; stroke-dasharray: 2.59,1.12; stroke-dashoffset: 0; stroke: #b0b0b0; stroke-opacity: 0.18; stroke-width: 0.7"/>
     </g>
     <g id="line2d_10">
      <g>
       <use xlink:href="#me55d6addf0" x="59.175781" y="176.985288" style="stroke: #000000; stroke-width: 0.8"/>
      </g>
     </g>
     <g id="text_8">
      <!-- −0.86 -->
      <g transform="translate(18.965938 181.164428) scale(0.11 -0.11)">
       <use xlink:href="#DejaVuSans-2212"/>
       <use xlink:href="#DejaVuSans-30" x="83.789062"/>
       <use xlink:href="#DejaVuSans-2e" x="147.412109"/>
       <use xlink:href="#DejaVuSans-38" x="179.199219"/>
       <use xlink:href="#DejaVuSans-36" x="242.822266"/>
      </g>
     </g>
    </g>
    <g id="ytick_3">
     <g id="line2d_11">
      <path d="M 59.175781 132.316347 
L 165.354605 132.316347 
" clip-path="url(#pfa9c7a0803)" style="fill: none; stroke-dasharray: 2.59,1.12; stroke-dashoffset: 0; stroke: #b0b0b0; stroke-opacity: 0.18; stroke-width: 0.7"/>
     </g>
     <g id="line2d_12">
      <g>
       <use xlink:href="#me55d6addf0" x="59.175781" y="132.316347" style="stroke: #000000; stroke-width: 0.8"/>
      </g>
     </g>
     <g id="text_9">
      <!-- −0.84 -->
      <g transform="translate(18.965938 136.495488) scale(0.11 -0.11)">
       <defs>
        <path id="DejaVuSans-34" d="M 2419 4116 
L 825 1625 
L 2419 1625 
L 2419 4116 
z
M 2253 4666 
L 3047 4666 
L 3047 1625 
L 3713 1625 
L 3713 1100 
L 3047 1100 
L 3047 0 
L 2419 0 
L 2419 1100 
L 313 1100 
L 313 1709 
L 2253 4666 
z
" transform="scale(0.015625)"/>
       </defs>
       <use xlink:href="#DejaVuSans-2212"/>
       <use xlink:href="#DejaVuSans-30" x="83.789062"/>
       <use xlink:href="#DejaVuSans-2e" x="147.412109"/>
       <use xlink:href="#DejaVuSans-38" x="179.199219"/>
       <use xlink:href="#DejaVuSans-34" x="242.822266"/>
      </g>
     </g>
    </g>
    <g id="ytick_4">
     <g id="line2d_13">
      <path d="M 59.175781 87.647407 
L 165.354605 87.647407 
" clip-path="url(#pfa9c7a0803)" style="fill: none; stroke-dasharray: 2.59,1.12; stroke-dashoffset: 0; stroke: #b0b0b0; stroke-opacity: 0.18; stroke-width: 0.7"/>
     </g>
     <g id="line2d_14">
      <g>
       <use xlink:href="#me55d6addf0" x="59.175781" y="87.647407" style="stroke: #000000; stroke-width: 0.8"/>
      </g>
     </g>
     <g id="text_10">
      <!-- −0.82 -->
      <g transform="translate(18.965938 91.826548) scale(0.11 -0.11)">
       <use xlink:href="#DejaVuSans-2212"/>
       <use xlink:href="#DejaVuSans-30" x="83.789062"/>
       <use xlink:href="#DejaVuSans-2e" x="147.412109"/>
       <use xlink:href="#DejaVuSans-38" x="179.199219"/>
       <use xlink:href="#DejaVuSans-32" x="242.822266"/>
      </g>
     </g>
    </g>
    <g id="ytick_5">
     <g id="line2d_15">
      <path d="M 59.175781 42.978467 
L 165.354605 42.978467 
" clip-path="url(#pfa9c7a0803)" style="fill: none; stroke-dasharray: 2.59,1.12; stroke-dashoffset: 0; stroke: #b0b0b0; stroke-opacity: 0.18; stroke-width: 0.7"/>
     </g>
     <g id="line2d_16">
      <g>
       <use xlink:href="#me55d6addf0" x="59.175781" y="42.978467" style="stroke: #000000; stroke-width: 0.8"/>
      </g>
     </g>
     <g id="text_11">
      <!-- −0.80 -->
      <g transform="translate(18.965938 47.157608) scale(0.11 -0.11)">
       <use xlink:href="#DejaVuSans-2212"/>
       <use xlink:href="#DejaVuSans-30" x="83.789062"/>
       <use xlink:href="#DejaVuSans-2e" x="147.412109"/>
       <use xlink:href="#DejaVuSans-38" x="179.199219"/>
       <use xlink:href="#DejaVuSans-30" x="242.822266"/>
      </g>
     </g>
    </g>
    <g id="text_12">
     <!-- Partial dependence -->
     <g transform="translate(12.678281 189.660016) rotate(-90) scale(0.11 -0.11)">
      <use xlink:href="#DejaVuSans-50"/>
      <use xlink:href="#DejaVuSans-61" x="55.802734"/>
      <use xlink:href="#DejaVuSans-72" x="117.082031"/>
      <use xlink:href="#DejaVuSans-74" x="158.195312"/>
      <use xlink:href="#DejaVuSans-69" x="197.404297"/>
      <use xlink:href="#DejaVuSans-61" x="225.1875"/>
      <use xlink:href="#DejaVuSans-6c" x="286.466797"/>
      <use xlink:href="#DejaVuSans-20" x="314.25"/>
      <use xlink:href="#DejaVuSans-64" x="346.037109"/>
      <use xlink:href="#DejaVuSans-65" x="409.513672"/>
      <use xlink:href="#DejaVuSans-70" x="471.037109"/>
      <use xlink:href="#DejaVuSans-65" x="534.513672"/>
      <use xlink:href="#DejaVuSans-6e" x="596.037109"/>
      <use xlink:href="#DejaVuSans-64" x="659.416016"/>
      <use xlink:href="#DejaVuSans-65" x="722.892578"/>
      <use xlink:href="#DejaVuSans-6e" x="784.416016"/>
      <use xlink:href="#DejaVuSans-63" x="847.794922"/>
      <use xlink:href="#DejaVuSans-65" x="902.775391"/>
     </g>
    </g>
   </g>
   <g id="line2d_17">
    <path d="M 64.002091 138.049401 
L 64.977104 138.049401 
L 65.952116 138.049401 
L 66.927128 138.049401 
L 67.90214 138.049401 
L 68.877152 138.049401 
L 69.852164 138.049401 
L 70.827176 138.049401 
L 71.802189 138.049401 
L 72.777201 138.049401 
L 73.752213 138.049401 
L 74.727225 138.049401 
L 75.702237 129.290441 
L 76.677249 129.290441 
L 77.652262 129.290441 
L 78.627274 129.290441 
L 79.602286 129.290441 
L 80.577298 129.290441 
L 81.55231 129.290441 
L 82.527322 129.290441 
L 83.502334 129.884857 
L 84.477347 125.084151 
L 85.452359 125.084151 
L 86.427371 124.1916 
L 87.402383 124.1916 
L 88.377395 126.205221 
L 89.352407 141.453032 
L 90.32742 141.453032 
L 91.302432 141.748944 
L 92.277444 142.494009 
L 93.252456 139.21039 
L 94.227468 142.997476 
L 95.20248 142.997476 
L 96.177492 142.997476 
L 97.152505 142.997476 
L 98.127517 142.997476 
L 99.102529 142.997476 
L 100.077541 142.997476 
L 101.052553 142.997476 
L 102.027565 142.997476 
L 103.002578 142.997476 
L 103.97759 142.997476 
L 104.952602 142.997476 
L 105.927614 142.997476 
L 106.902626 140.434574 
L 107.877638 140.434574 
L 108.85265 140.434574 
L 109.827663 140.434574 
L 110.802675 140.434574 
L 111.777687 140.434574 
L 112.752699 140.434574 
L 113.727711 140.434574 
L 114.702723 140.434574 
L 115.677736 140.434574 
L 116.652748 140.434574 
L 117.62776 140.751729 
L 118.602772 140.769361 
L 119.577784 140.849829 
L 120.552796 140.849829 
L 121.527808 139.999287 
L 122.502821 139.999287 
L 123.477833 139.861336 
L 124.452845 139.861336 
L 125.427857 139.861336 
L 126.402869 139.861336 
L 127.377881 139.861336 
L 128.352894 139.861336 
L 129.327906 140.107385 
L 130.302918 140.107385 
L 131.27793 140.103058 
L 132.252942 139.673847 
L 133.227954 139.673847 
L 134.202966 139.673847 
L 135.177979 140.646764 
L 136.152991 142.090893 
L 137.128003 143.260502 
L 138.103015 143.260502 
L 139.078027 142.358516 
L 140.053039 142.358516 
L 141.028052 142.358516 
L 142.003064 136.316424 
L 142.978076 136.316424 
L 143.953088 136.316424 
L 144.9281 136.316424 
L 145.903112 136.316424 
L 146.878124 136.316424 
L 147.853137 136.316424 
L 148.828149 133.449967 
L 149.803161 133.449967 
L 150.778173 133.449967 
L 151.753185 133.449967 
L 152.728197 133.449967 
L 153.70321 133.449967 
L 154.678222 133.449967 
L 155.653234 123.833918 
L 156.628246 121.21927 
L 157.603258 121.21927 
L 158.57827 121.21927 
L 159.553282 121.246121 
L 160.528295 120.618873 
" clip-path="url(#pfa9c7a0803)" style="fill: none; stroke: #f6cfaf; stroke-width: 2; stroke-linecap: square"/>
   </g>
   <g id="LineCollection_1">
    <path d="M 72.50386 253.045969 
L 72.50386 241.403569 
" clip-path="url(#pfa9c7a0803)" style="fill: none; stroke: #000000; stroke-width: 2"/>
    <path d="M 86.812972 253.045969 
L 86.812972 241.403569 
" clip-path="url(#pfa9c7a0803)" style="fill: none; stroke: #000000; stroke-width: 2"/>
    <path d="M 97.950155 253.045969 
L 97.950155 241.403569 
" clip-path="url(#pfa9c7a0803)" style="fill: none; stroke: #000000; stroke-width: 2"/>
    <path d="M 107.516963 253.045969 
L 107.516963 241.403569 
" clip-path="url(#pfa9c7a0803)" style="fill: none; stroke: #000000; stroke-width: 2"/>
    <path d="M 115.744892 253.045969 
L 115.744892 241.403569 
" clip-path="url(#pfa9c7a0803)" style="fill: none; stroke: #000000; stroke-width: 2"/>
    <path d="M 123.188749 253.045969 
L 123.188749 241.403569 
" clip-path="url(#pfa9c7a0803)" style="fill: none; stroke: #000000; stroke-width: 2"/>
    <path d="M 132.280117 253.045969 
L 132.280117 241.403569 
" clip-path="url(#pfa9c7a0803)" style="fill: none; stroke: #000000; stroke-width: 2"/>
    <path d="M 141.711638 253.045969 
L 141.711638 241.403569 
" clip-path="url(#pfa9c7a0803)" style="fill: none; stroke: #000000; stroke-width: 2"/>
    <path d="M 153.747564 253.045969 
L 153.747564 241.403569 
" clip-path="url(#pfa9c7a0803)" style="fill: none; stroke: #000000; stroke-width: 2"/>
   </g>
   <g id="patch_4">
    <path d="M 59.175781 253.045969 
L 59.175781 20.197969 
" style="fill: none; stroke: #000000; stroke-width: 0.9; stroke-linejoin: miter; stroke-linecap: square"/>
   </g>
   <g id="patch_5">
    <path d="M 59.175781 253.045969 
L 165.354605 253.045969 
" style="fill: none; stroke: #000000; stroke-width: 0.9; stroke-linejoin: miter; stroke-linecap: square"/>
   </g>
  </g>
  <g id="axes_3">
   <g id="patch_6">
    <path d="M 186.590369 253.045969 
L 292.769193 253.045969 
L 292.769193 20.197969 
L 186.590369 20.197969 
z
" style="fill: #ffffff"/>
   </g>
   <g id="matplotlib.axis_3">
    <g id="xtick_4">
     <g id="line2d_18">
      <path d="M 212.100866 253.045969 
L 212.100866 20.197969 
" clip-path="url(#p76f3d3ffbe)" style="fill: none; stroke-dasharray: 2.59,1.12; stroke-dashoffset: 0; stroke: #b0b0b0; stroke-opacity: 0.18; stroke-width: 0.7"/>
     </g>
     <g id="line2d_19">
      <g>
       <use xlink:href="#m1bb9e4dd96" x="212.100866" y="253.045969" style="stroke: #000000; stroke-width: 0.8"/>
      </g>
     </g>
     <g id="text_13">
      <!-- 10 -->
      <g transform="translate(205.102116 267.90425) scale(0.11 -0.11)">
       <use xlink:href="#DejaVuSans-31"/>
       <use xlink:href="#DejaVuSans-30" x="63.623047"/>
      </g>
     </g>
    </g>
    <g id="xtick_5">
     <g id="line2d_20">
      <path d="M 281.048154 253.045969 
L 281.048154 20.197969 
" clip-path="url(#p76f3d3ffbe)" style="fill: none; stroke-dasharray: 2.59,1.12; stroke-dashoffset: 0; stroke: #b0b0b0; stroke-opacity: 0.18; stroke-width: 0.7"/>
     </g>
     <g id="line2d_21">
      <g>
       <use xlink:href="#m1bb9e4dd96" x="281.048154" y="253.045969" style="stroke: #000000; stroke-width: 0.8"/>
      </g>
     </g>
     <g id="text_14">
      <!-- 20 -->
      <g transform="translate(274.049404 267.90425) scale(0.11 -0.11)">
       <use xlink:href="#DejaVuSans-32"/>
       <use xlink:href="#DejaVuSans-30" x="63.623047"/>
      </g>
     </g>
    </g>
    <g id="text_15">
     <!-- mc_Temperature_mean -->
     <g transform="translate(175.364156 282.24425) scale(0.11 -0.11)">
      <use xlink:href="#DejaVuSans-6d"/>
      <use xlink:href="#DejaVuSans-63" x="97.412109"/>
      <use xlink:href="#DejaVuSans-5f" x="152.392578"/>
      <use xlink:href="#DejaVuSans-54" x="202.392578"/>
      <use xlink:href="#DejaVuSans-65" x="246.476562"/>
      <use xlink:href="#DejaVuSans-6d" x="308"/>
      <use xlink:href="#DejaVuSans-70" x="405.412109"/>
      <use xlink:href="#DejaVuSans-65" x="468.888672"/>
      <use xlink:href="#DejaVuSans-72" x="530.412109"/>
      <use xlink:href="#DejaVuSans-61" x="571.525391"/>
      <use xlink:href="#DejaVuSans-74" x="632.804688"/>
      <use xlink:href="#DejaVuSans-75" x="672.013672"/>
      <use xlink:href="#DejaVuSans-72" x="735.392578"/>
      <use xlink:href="#DejaVuSans-65" x="774.255859"/>
      <use xlink:href="#DejaVuSans-5f" x="835.779297"/>
      <use xlink:href="#DejaVuSans-6d" x="885.779297"/>
      <use xlink:href="#DejaVuSans-65" x="983.191406"/>
      <use xlink:href="#DejaVuSans-61" x="1044.714844"/>
      <use xlink:href="#DejaVuSans-6e" x="1105.994141"/>
     </g>
    </g>
   </g>
   <g id="matplotlib.axis_4">
    <g id="ytick_6">
     <g id="line2d_22">
      <path d="M 186.590369 221.654228 
L 292.769193 221.654228 
" clip-path="url(#p76f3d3ffbe)" style="fill: none; stroke-dasharray: 2.59,1.12; stroke-dashoffset: 0; stroke: #b0b0b0; stroke-opacity: 0.18; stroke-width: 0.7"/>
     </g>
     <g id="line2d_23">
      <g>
       <use xlink:href="#me55d6addf0" x="186.590369" y="221.654228" style="stroke: #000000; stroke-width: 0.8"/>
      </g>
     </g>
    </g>
    <g id="ytick_7">
     <g id="line2d_24">
      <path d="M 186.590369 176.985288 
L 292.769193 176.985288 
" clip-path="url(#p76f3d3ffbe)" style="fill: none; stroke-dasharray: 2.59,1.12; stroke-dashoffset: 0; stroke: #b0b0b0; stroke-opacity: 0.18; stroke-width: 0.7"/>
     </g>
     <g id="line2d_25">
      <g>
       <use xlink:href="#me55d6addf0" x="186.590369" y="176.985288" style="stroke: #000000; stroke-width: 0.8"/>
      </g>
     </g>
    </g>
    <g id="ytick_8">
     <g id="line2d_26">
      <path d="M 186.590369 132.316347 
L 292.769193 132.316347 
" clip-path="url(#p76f3d3ffbe)" style="fill: none; stroke-dasharray: 2.59,1.12; stroke-dashoffset: 0; stroke: #b0b0b0; stroke-opacity: 0.18; stroke-width: 0.7"/>
     </g>
     <g id="line2d_27">
      <g>
       <use xlink:href="#me55d6addf0" x="186.590369" y="132.316347" style="stroke: #000000; stroke-width: 0.8"/>
      </g>
     </g>
    </g>
    <g id="ytick_9">
     <g id="line2d_28">
      <path d="M 186.590369 87.647407 
L 292.769193 87.647407 
" clip-path="url(#p76f3d3ffbe)" style="fill: none; stroke-dasharray: 2.59,1.12; stroke-dashoffset: 0; stroke: #b0b0b0; stroke-opacity: 0.18; stroke-width: 0.7"/>
     </g>
     <g id="line2d_29">
      <g>
       <use xlink:href="#me55d6addf0" x="186.590369" y="87.647407" style="stroke: #000000; stroke-width: 0.8"/>
      </g>
     </g>
    </g>
    <g id="ytick_10">
     <g id="line2d_30">
      <path d="M 186.590369 42.978467 
L 292.769193 42.978467 
" clip-path="url(#p76f3d3ffbe)" style="fill: none; stroke-dasharray: 2.59,1.12; stroke-dashoffset: 0; stroke: #b0b0b0; stroke-opacity: 0.18; stroke-width: 0.7"/>
     </g>
     <g id="line2d_31">
      <g>
       <use xlink:href="#me55d6addf0" x="186.590369" y="42.978467" style="stroke: #000000; stroke-width: 0.8"/>
      </g>
     </g>
    </g>
   </g>
   <g id="line2d_32">
    <path d="M 191.41668 242.461969 
L 192.391692 224.228566 
L 193.366704 215.54311 
L 194.341716 215.50267 
L 195.316728 215.50267 
L 196.29174 210.439913 
L 197.266753 207.073818 
L 198.241765 204.288165 
L 199.216777 202.921538 
L 200.191789 202.753305 
L 201.166801 202.753305 
L 202.141813 202.753305 
L 203.116825 201.010715 
L 204.091838 201.010715 
L 205.06685 201.010715 
L 206.041862 199.668114 
L 207.016874 192.471707 
L 207.991886 192.471707 
L 208.966898 192.471707 
L 209.941911 190.460432 
L 210.916923 190.460432 
L 211.891935 189.057698 
L 212.866947 188.519204 
L 213.841959 183.866407 
L 214.816971 183.866407 
L 215.791983 183.866407 
L 216.766996 183.866407 
L 217.742008 183.282764 
L 218.71702 180.350889 
L 219.692032 179.688985 
L 220.667044 179.688985 
L 221.642056 179.688985 
L 222.617069 179.688985 
L 223.592081 179.688985 
L 224.567093 179.688985 
L 225.542105 179.688985 
L 226.517117 167.070755 
L 227.492129 167.251617 
L 228.467141 167.251617 
L 229.442154 166.833193 
L 230.417166 166.833193 
L 231.392178 166.833193 
L 232.36719 159.946633 
L 233.342202 150.300758 
L 234.317214 150.300758 
L 235.292227 150.300758 
L 236.267239 135.504409 
L 237.242251 135.504409 
L 238.217263 135.504409 
L 239.192275 135.504409 
L 240.167287 135.504409 
L 241.142299 135.504409 
L 242.117312 135.504409 
L 243.092324 135.504409 
L 244.067336 135.504409 
L 245.042348 135.504409 
L 246.01736 135.504409 
L 246.992372 135.504409 
L 247.967385 135.504409 
L 248.942397 130.639027 
L 249.917409 130.639027 
L 250.892421 130.639027 
L 251.867433 97.598902 
L 252.842445 84.100076 
L 253.817457 84.100076 
L 254.79247 84.100076 
L 255.767482 84.100076 
L 256.742494 84.100076 
L 257.717506 53.377757 
L 258.692518 53.377757 
L 259.66753 32.406396 
L 260.642543 32.406396 
L 261.617555 32.406396 
L 262.592567 30.781969 
L 263.567579 30.781969 
L 264.542591 30.781969 
L 265.517603 30.781969 
L 266.492615 30.781969 
L 267.467628 30.781969 
L 268.44264 30.781969 
L 269.417652 30.781969 
L 270.392664 30.781969 
L 271.367676 30.781969 
L 272.342688 30.781969 
L 273.317701 30.781969 
L 274.292713 30.781969 
L 275.267725 30.781969 
L 276.242737 30.781969 
L 277.217749 30.781969 
L 278.192761 30.781969 
L 279.167773 30.781969 
L 280.142786 30.781969 
L 281.117798 30.781969 
L 282.09281 30.781969 
L 283.067822 30.781969 
L 284.042834 30.781969 
L 285.017846 30.781969 
L 285.992859 30.781969 
L 286.967871 30.781969 
L 287.942883 30.781969 
" clip-path="url(#p76f3d3ffbe)" style="fill: none; stroke: #f6cfaf; stroke-width: 2; stroke-linecap: square"/>
   </g>
   <g id="LineCollection_2">
    <path d="M 198.311408 253.045969 
L 198.311408 241.403569 
" clip-path="url(#p76f3d3ffbe)" style="fill: none; stroke: #000000; stroke-width: 2"/>
    <path d="M 205.206137 253.045969 
L 205.206137 241.403569 
" clip-path="url(#p76f3d3ffbe)" style="fill: none; stroke: #000000; stroke-width: 2"/>
    <path d="M 212.100866 253.045969 
L 212.100866 241.403569 
" clip-path="url(#p76f3d3ffbe)" style="fill: none; stroke: #000000; stroke-width: 2"/>
    <path d="M 225.890324 253.045969 
L 225.890324 241.403569 
" clip-path="url(#p76f3d3ffbe)" style="fill: none; stroke: #000000; stroke-width: 2"/>
    <path d="M 232.785052 253.045969 
L 232.785052 241.403569 
" clip-path="url(#p76f3d3ffbe)" style="fill: none; stroke: #000000; stroke-width: 2"/>
    <path d="M 239.679781 253.045969 
L 239.679781 241.403569 
" clip-path="url(#p76f3d3ffbe)" style="fill: none; stroke: #000000; stroke-width: 2"/>
    <path d="M 252.842445 253.045969 
L 252.842445 241.403569 
" clip-path="url(#p76f3d3ffbe)" style="fill: none; stroke: #000000; stroke-width: 2"/>
    <path d="M 260.363968 253.045969 
L 260.363968 241.403569 
" clip-path="url(#p76f3d3ffbe)" style="fill: none; stroke: #000000; stroke-width: 2"/>
    <path d="M 274.153425 253.045969 
L 274.153425 241.403569 
" clip-path="url(#p76f3d3ffbe)" style="fill: none; stroke: #000000; stroke-width: 2"/>
   </g>
   <g id="patch_7">
    <path d="M 186.590369 253.045969 
L 186.590369 20.197969 
" style="fill: none; stroke: #000000; stroke-width: 0.9; stroke-linejoin: miter; stroke-linecap: square"/>
   </g>
   <g id="patch_8">
    <path d="M 186.590369 253.045969 
L 292.769193 253.045969 
" style="fill: none; stroke: #000000; stroke-width: 0.9; stroke-linejoin: miter; stroke-linecap: square"/>
   </g>
  </g>
  <g id="axes_4">
   <g id="patch_9">
    <path d="M 314.004958 253.045969 
L 420.183781 253.045969 
L 420.183781 20.197969 
L 314.004958 20.197969 
z
" style="fill: #ffffff"/>
   </g>
   <g id="matplotlib.axis_5">
    <g id="xtick_6">
     <g id="line2d_33">
      <path d="M 336.677648 253.045969 
L 336.677648 20.197969 
" clip-path="url(#p873cc20de0)" style="fill: none; stroke-dasharray: 2.59,1.12; stroke-dashoffset: 0; stroke: #b0b0b0; stroke-opacity: 0.18; stroke-width: 0.7"/>
     </g>
     <g id="line2d_34">
      <g>
       <use xlink:href="#m1bb9e4dd96" x="336.677648" y="253.045969" style="stroke: #000000; stroke-width: 0.8"/>
      </g>
     </g>
     <g id="text_16">
      <!-- 0.5 -->
      <g transform="translate(327.930929 267.90425) scale(0.11 -0.11)">
       <use xlink:href="#DejaVuSans-30"/>
       <use xlink:href="#DejaVuSans-2e" x="63.623047"/>
       <use xlink:href="#DejaVuSans-35" x="95.410156"/>
      </g>
     </g>
    </g>
    <g id="xtick_7">
     <g id="line2d_35">
      <path d="M 372.370408 253.045969 
L 372.370408 20.197969 
" clip-path="url(#p873cc20de0)" style="fill: none; stroke-dasharray: 2.59,1.12; stroke-dashoffset: 0; stroke: #b0b0b0; stroke-opacity: 0.18; stroke-width: 0.7"/>
     </g>
     <g id="line2d_36">
      <g>
       <use xlink:href="#m1bb9e4dd96" x="372.370408" y="253.045969" style="stroke: #000000; stroke-width: 0.8"/>
      </g>
     </g>
     <g id="text_17">
      <!-- 1.0 -->
      <g transform="translate(363.62369 267.90425) scale(0.11 -0.11)">
       <use xlink:href="#DejaVuSans-31"/>
       <use xlink:href="#DejaVuSans-2e" x="63.623047"/>
       <use xlink:href="#DejaVuSans-30" x="95.410156"/>
      </g>
     </g>
    </g>
    <g id="xtick_8">
     <g id="line2d_37">
      <path d="M 408.063169 253.045969 
L 408.063169 20.197969 
" clip-path="url(#p873cc20de0)" style="fill: none; stroke-dasharray: 2.59,1.12; stroke-dashoffset: 0; stroke: #b0b0b0; stroke-opacity: 0.18; stroke-width: 0.7"/>
     </g>
     <g id="line2d_38">
      <g>
       <use xlink:href="#m1bb9e4dd96" x="408.063169" y="253.045969" style="stroke: #000000; stroke-width: 0.8"/>
      </g>
     </g>
     <g id="text_18">
      <!-- 1.5 -->
      <g transform="translate(399.31645 267.90425) scale(0.11 -0.11)">
       <use xlink:href="#DejaVuSans-31"/>
       <use xlink:href="#DejaVuSans-2e" x="63.623047"/>
       <use xlink:href="#DejaVuSans-35" x="95.410156"/>
      </g>
     </g>
    </g>
    <g id="text_19">
     <!-- mc_WindSpeed_mean -->
     <g transform="translate(306.55226 282.550187) scale(0.11 -0.11)">
      <defs>
       <path id="DejaVuSans-57" d="M 213 4666 
L 850 4666 
L 1831 722 
L 2809 4666 
L 3519 4666 
L 4500 722 
L 5478 4666 
L 6119 4666 
L 4947 0 
L 4153 0 
L 3169 4050 
L 2175 0 
L 1381 0 
L 213 4666 
z
" transform="scale(0.015625)"/>
      </defs>
      <use xlink:href="#DejaVuSans-6d"/>
      <use xlink:href="#DejaVuSans-63" x="97.412109"/>
      <use xlink:href="#DejaVuSans-5f" x="152.392578"/>
      <use xlink:href="#DejaVuSans-57" x="202.392578"/>
      <use xlink:href="#DejaVuSans-69" x="299.019531"/>
      <use xlink:href="#DejaVuSans-6e" x="326.802734"/>
      <use xlink:href="#DejaVuSans-64" x="390.181641"/>
      <use xlink:href="#DejaVuSans-53" x="453.658203"/>
      <use xlink:href="#DejaVuSans-70" x="517.134766"/>
      <use xlink:href="#DejaVuSans-65" x="580.611328"/>
      <use xlink:href="#DejaVuSans-65" x="642.134766"/>
      <use xlink:href="#DejaVuSans-64" x="703.658203"/>
      <use xlink:href="#DejaVuSans-5f" x="767.134766"/>
      <use xlink:href="#DejaVuSans-6d" x="817.134766"/>
      <use xlink:href="#DejaVuSans-65" x="914.546875"/>
      <use xlink:href="#DejaVuSans-61" x="976.070312"/>
      <use xlink:href="#DejaVuSans-6e" x="1037.349609"/>
     </g>
    </g>
   </g>
   <g id="matplotlib.axis_6">
    <g id="ytick_11">
     <g id="line2d_39">
      <path d="M 314.004958 221.654228 
L 420.183781 221.654228 
" clip-path="url(#p873cc20de0)" style="fill: none; stroke-dasharray: 2.59,1.12; stroke-dashoffset: 0; stroke: #b0b0b0; stroke-opacity: 0.18; stroke-width: 0.7"/>
     </g>
     <g id="line2d_40">
      <g>
       <use xlink:href="#me55d6addf0" x="314.004958" y="221.654228" style="stroke: #000000; stroke-width: 0.8"/>
      </g>
     </g>
    </g>
    <g id="ytick_12">
     <g id="line2d_41">
      <path d="M 314.004958 176.985288 
L 420.183781 176.985288 
" clip-path="url(#p873cc20de0)" style="fill: none; stroke-dasharray: 2.59,1.12; stroke-dashoffset: 0; stroke: #b0b0b0; stroke-opacity: 0.18; stroke-width: 0.7"/>
     </g>
     <g id="line2d_42">
      <g>
       <use xlink:href="#me55d6addf0" x="314.004958" y="176.985288" style="stroke: #000000; stroke-width: 0.8"/>
      </g>
     </g>
    </g>
    <g id="ytick_13">
     <g id="line2d_43">
      <path d="M 314.004958 132.316347 
L 420.183781 132.316347 
" clip-path="url(#p873cc20de0)" style="fill: none; stroke-dasharray: 2.59,1.12; stroke-dashoffset: 0; stroke: #b0b0b0; stroke-opacity: 0.18; stroke-width: 0.7"/>
     </g>
     <g id="line2d_44">
      <g>
       <use xlink:href="#me55d6addf0" x="314.004958" y="132.316347" style="stroke: #000000; stroke-width: 0.8"/>
      </g>
     </g>
    </g>
    <g id="ytick_14">
     <g id="line2d_45">
      <path d="M 314.004958 87.647407 
L 420.183781 87.647407 
" clip-path="url(#p873cc20de0)" style="fill: none; stroke-dasharray: 2.59,1.12; stroke-dashoffset: 0; stroke: #b0b0b0; stroke-opacity: 0.18; stroke-width: 0.7"/>
     </g>
     <g id="line2d_46">
      <g>
       <use xlink:href="#me55d6addf0" x="314.004958" y="87.647407" style="stroke: #000000; stroke-width: 0.8"/>
      </g>
     </g>
    </g>
    <g id="ytick_15">
     <g id="line2d_47">
      <path d="M 314.004958 42.978467 
L 420.183781 42.978467 
" clip-path="url(#p873cc20de0)" style="fill: none; stroke-dasharray: 2.59,1.12; stroke-dashoffset: 0; stroke: #b0b0b0; stroke-opacity: 0.18; stroke-width: 0.7"/>
     </g>
     <g id="line2d_48">
      <g>
       <use xlink:href="#me55d6addf0" x="314.004958" y="42.978467" style="stroke: #000000; stroke-width: 0.8"/>
      </g>
     </g>
    </g>
   </g>
   <g id="line2d_49">
    <path d="M 318.831268 142.585202 
L 319.80628 145.696873 
L 320.781292 145.497069 
L 321.756304 145.048836 
L 322.731316 145.048836 
L 323.706329 149.135447 
L 324.681341 149.132849 
L 325.656353 149.132849 
L 326.631365 149.37105 
L 327.606377 148.797151 
L 328.581389 148.797151 
L 329.556402 148.831162 
L 330.531414 148.841942 
L 331.506426 148.860351 
L 332.481438 150.432342 
L 333.45645 150.432342 
L 334.431462 150.432342 
L 335.406474 148.953007 
L 336.381487 148.953007 
L 337.356499 149.61128 
L 338.331511 149.61128 
L 339.306523 149.61128 
L 340.281535 149.61128 
L 341.256547 148.328453 
L 342.23156 146.275637 
L 343.206572 142.941317 
L 344.181584 142.941317 
L 345.156596 142.941317 
L 346.131608 142.941317 
L 347.10662 141.314466 
L 348.081632 140.836339 
L 349.056645 140.836339 
L 350.031657 140.836339 
L 351.006669 133.13864 
L 351.981681 133.13864 
L 352.956693 129.428887 
L 353.931705 129.428887 
L 354.906718 129.428887 
L 355.88173 128.56606 
L 356.856742 128.56606 
L 357.831754 128.56606 
L 358.806766 128.56606 
L 359.781778 128.56606 
L 360.75679 127.699018 
L 361.731803 127.673111 
L 362.706815 126.398513 
L 363.681827 125.303511 
L 364.656839 125.303511 
L 365.631851 125.478618 
L 366.606863 125.478618 
L 367.581876 125.478618 
L 368.556888 125.862045 
L 369.5319 125.862045 
L 370.506912 125.862045 
L 371.481924 125.862045 
L 372.456936 126.107207 
L 373.431948 126.107207 
L 374.406961 126.107207 
L 375.381973 126.107207 
L 376.356985 126.107207 
L 377.331997 126.107207 
L 378.307009 126.107207 
L 379.282021 126.107207 
L 380.257034 126.107207 
L 381.232046 122.850696 
L 382.207058 122.850696 
L 383.18207 122.850696 
L 384.157082 122.850696 
L 385.132094 122.381356 
L 386.107106 122.381356 
L 387.082119 122.381356 
L 388.057131 122.381356 
L 389.032143 122.381356 
L 390.007155 121.053222 
L 390.982167 121.053222 
L 391.957179 121.053222 
L 392.932192 121.053222 
L 393.907204 121.053222 
L 394.882216 121.053222 
L 395.857228 121.053222 
L 396.83224 121.053222 
L 397.807252 121.053222 
L 398.782264 121.053222 
L 399.757277 121.053222 
L 400.732289 121.053222 
L 401.707301 121.053222 
L 402.682313 121.053222 
L 403.657325 119.919376 
L 404.632337 119.919376 
L 405.60735 119.919376 
L 406.582362 119.919376 
L 407.557374 119.919376 
L 408.532386 119.919376 
L 409.507398 119.919376 
L 410.48241 119.919376 
L 411.457422 119.919376 
L 412.432435 119.919376 
L 413.407447 119.919376 
L 414.382459 119.919376 
L 415.357471 119.919376 
" clip-path="url(#p873cc20de0)" style="fill: none; stroke: #f6cfaf; stroke-width: 2; stroke-linecap: square"/>
   </g>
   <g id="LineCollection_3">
    <path d="M 323.590303 253.045969 
L 323.590303 241.403569 
" clip-path="url(#p873cc20de0)" style="fill: none; stroke: #000000; stroke-width: 2"/>
    <path d="M 333.056455 253.045969 
L 333.056455 241.403569 
" clip-path="url(#p873cc20de0)" style="fill: none; stroke: #000000; stroke-width: 2"/>
    <path d="M 340.871038 253.045969 
L 340.871038 241.403569 
" clip-path="url(#p873cc20de0)" style="fill: none; stroke: #000000; stroke-width: 2"/>
    <path d="M 348.099331 253.045969 
L 348.099331 241.403569 
" clip-path="url(#p873cc20de0)" style="fill: none; stroke: #000000; stroke-width: 2"/>
    <path d="M 356.146426 253.045969 
L 356.146426 241.403569 
" clip-path="url(#p873cc20de0)" style="fill: none; stroke: #000000; stroke-width: 2"/>
    <path d="M 365.231856 253.045969 
L 365.231856 241.403569 
" clip-path="url(#p873cc20de0)" style="fill: none; stroke: #000000; stroke-width: 2"/>
    <path d="M 373.668327 253.045969 
L 373.668327 241.403569 
" clip-path="url(#p873cc20de0)" style="fill: none; stroke: #000000; stroke-width: 2"/>
    <path d="M 385.998553 253.045969 
L 385.998553 241.403569 
" clip-path="url(#p873cc20de0)" style="fill: none; stroke: #000000; stroke-width: 2"/>
    <path d="M 401.573576 253.045969 
L 401.573576 241.403569 
" clip-path="url(#p873cc20de0)" style="fill: none; stroke: #000000; stroke-width: 2"/>
   </g>
   <g id="patch_10">
    <path d="M 314.004958 253.045969 
L 314.004958 20.197969 
" style="fill: none; stroke: #000000; stroke-width: 0.9; stroke-linejoin: miter; stroke-linecap: square"/>
   </g>
   <g id="patch_11">
    <path d="M 314.004958 253.045969 
L 420.183781 253.045969 
" style="fill: none; stroke: #000000; stroke-width: 0.9; stroke-linejoin: miter; stroke-linecap: square"/>
   </g>
  </g>
 </g>
 <defs>
  <clipPath id="pfa9c7a0803">
   <rect x="59.175781" y="20.197969" width="106.178824" height="232.848"/>
  </clipPath>
  <clipPath id="p76f3d3ffbe">
   <rect x="186.590369" y="20.197969" width="106.178824" height="232.848"/>
  </clipPath>
  <clipPath id="p873cc20de0">
   <rect x="314.004958" y="20.197969" width="106.178824" height="232.848"/>
  </clipPath>
 </defs>
</svg>
