<?xml version="1.0" encoding="utf-8" standalone="no"?>
<!DOCTYPE svg PUBLIC "-//W3C//DTD SVG 1.1//EN"
  "http://www.w3.org/Graphics/SVG/1.1/DTD/svg11.dtd">
<svg xmlns:xlink="http://www.w3.org/1999/xlink" width="509.146754pt" height="289.463781pt" viewBox="0 0 509.146754 289.463781" xmlns="http://www.w3.org/2000/svg" version="1.1">
 <metadata>
  <rdf:RDF xmlns:dc="http://purl.org/dc/elements/1.1/" xmlns:cc="http://creativecommons.org/ns#" xmlns:rdf="http://www.w3.org/1999/02/22-rdf-syntax-ns#">
   <cc:Work>
    <dc:type rdf:resource="http://purl.org/dc/dcmitype/StillImage"/>
    <dc:date>2026-01-20T13:40:06.069075</dc:date>
    <dc:format>image/svg+xml</dc:format>
    <dc:creator>
     <cc:Agent>
      <dc:title>Matplotlib v3.7.2, https://matplotlib.org/</dc:title>
     </cc:Agent>
    </dc:creator>
   </cc:Work>
  </rdf:RDF>
 </metadata>
 <defs>
  <style type="text/css">*{stroke-linejoin: round; stroke-linecap: butt}</style>
 </defs>
 <g id="figure_1">
  <g id="patch_1">
   <path d="M 0 289.463781 
L 509.146754 289.463781 
L 509.146754 0 
L 0 0 
z
" style="fill: #ffffff"/>
  </g>
  <g id="axes_1">
   <g id="text_1">
    <g id="patch_2">
     <path d="M 409.910504 122.567062 
L 504.826754 122.567062 
Q 510.326754 122.567062 510.326754 117.067062 
L 510.326754 20.197969 
Q 510.326754 14.697969 504.826754 14.697969 
L 409.910504 14.697969 
Q 404.410504 14.697969 404.410504 20.197969 
L 404.410504 117.067062 
Q 404.410504 122.567062 409.910504 122.567062 
z
" style="fill: #ffffff; opacity: 0.95; stroke: #b2b2b2; stroke-linejoin: miter"/>
    </g>
    <!-- Target: O3 -->
    <g transform="translate(409.910504 28.55625) scale(0.11 -0.11)">
     <defs>
      <path id="DejaVuSans-54" d="M -19 4666 
L 3928 4666 
L 3928 4134 
L 2272 4134 
L 2272 0 
L 1638 0 
L 1638 4134 
L -19 4134 
L -19 4666 
z
" transform="scale(0.015625)"/>
      <path id="DejaVuSans-61" d="M 2194 1759 
Q 1497 1759 1228 1600 
Q 959 1441 959 1056 
Q 959 750 1161 570 
Q 1363 391 1709 391 
Q 2188 391 2477 730 
Q 2766 1069 2766 1631 
L 2766 1759 
L 2194 1759 
z
M 3341 1997 
L 3341 0 
L 2766 0 
L 2766 531 
Q 2569 213 2275 61 
Q 1981 -91 1556 -91 
Q 1019 -91 701 211 
Q 384 513 384 1019 
Q 384 1609 779 1909 
Q 1175 2209 1959 2209 
L 2766 2209 
L 2766 2266 
Q 2766 2663 2505 2880 
Q 2244 3097 1772 3097 
Q 1472 3097 1187 3025 
Q 903 2953 641 2809 
L 641 3341 
Q 956 3463 1253 3523 
Q 1550 3584 1831 3584 
Q 2591 3584 2966 3190 
Q 3341 2797 3341 1997 
z
" transform="scale(0.015625)"/>
      <path id="DejaVuSans-72" d="M 2631 2963 
Q 2534 3019 2420 3045 
Q 2306 3072 2169 3072 
Q 1681 3072 1420 2755 
Q 1159 2438 1159 1844 
L 1159 0 
L 581 0 
L 581 3500 
L 1159 3500 
L 1159 2956 
Q 1341 3275 1631 3429 
Q 1922 3584 2338 3584 
Q 2397 3584 2469 3576 
Q 2541 3569 2628 3553 
L 2631 2963 
z
" transform="scale(0.015625)"/>
      <path id="DejaVuSans-67" d="M 2906 1791 
Q 2906 2416 2648 2759 
Q 2391 3103 1925 3103 
Q 1463 3103 1205 2759 
Q 947 2416 947 1791 
Q 947 1169 1205 825 
Q 1463 481 1925 481 
Q 2391 481 2648 825 
Q 2906 1169 2906 1791 
z
M 3481 434 
Q 3481 -459 3084 -895 
Q 2688 -1331 1869 -1331 
Q 1566 -1331 1297 -1286 
Q 1028 -1241 775 -1147 
L 775 -588 
Q 1028 -725 1275 -790 
Q 1522 -856 1778 -856 
Q 2344 -856 2625 -561 
Q 2906 -266 2906 331 
L 2906 616 
Q 2728 306 2450 153 
Q 2172 0 1784 0 
Q 1141 0 747 490 
Q 353 981 353 1791 
Q 353 2603 747 3093 
Q 1141 3584 1784 3584 
Q 2172 3584 2450 3431 
Q 2728 3278 2906 2969 
L 2906 3500 
L 3481 3500 
L 3481 434 
z
" transform="scale(0.015625)"/>
      <path id="DejaVuSans-65" d="M 3597 1894 
L 3597 1613 
L 953 1613 
Q 991 1019 1311 708 
Q 1631 397 2203 397 
Q 2534 397 2845 478 
Q 3156 559 3463 722 
L 3463 178 
Q 3153 47 2828 -22 
Q 2503 -91 2169 -91 
Q 1331 -91 842 396 
Q 353 884 353 1716 
Q 353 2575 817 3079 
Q 1281 3584 2069 3584 
Q 2775 3584 3186 3129 
Q 3597 2675 3597 1894 
z
M 3022 2063 
Q 3016 2534 2758 2815 
Q 2500 3097 2075 3097 
Q 1594 3097 1305 2825 
Q 1016 2553 972 2059 
L 3022 2063 
z
" transform="scale(0.015625)"/>
      <path id="DejaVuSans-74" d="M 1172 4494 
L 1172 3500 
L 2356 3500 
L 2356 3053 
L 1172 3053 
L 1172 1153 
Q 1172 725 1289 603 
Q 1406 481 1766 481 
L 2356 481 
L 2356 0 
L 1766 0 
Q 1100 0 847 248 
Q 594 497 594 1153 
L 594 3053 
L 172 3053 
L 172 3500 
L 594 3500 
L 594 4494 
L 1172 4494 
z
" transform="scale(0.015625)"/>
      <path id="DejaVuSans-3a" d="M 750 794 
L 1409 794 
L 1409 0 
L 750 0 
L 750 794 
z
M 750 3309 
L 1409 3309 
L 1409 2516 
L 750 2516 
L 750 3309 
z
" transform="scale(0.015625)"/>
      <path id="DejaVuSans-20" transform="scale(0.015625)"/>
      <path id="DejaVuSans-4f" d="M 2522 4238 
Q 1834 4238 1429 3725 
Q 1025 3213 1025 2328 
Q 1025 1447 1429 934 
Q 1834 422 2522 422 
Q 3209 422 3611 934 
Q 4013 1447 4013 2328 
Q 4013 3213 3611 3725 
Q 3209 4238 2522 4238 
z
M 2522 4750 
Q 3503 4750 4090 4092 
Q 4678 3434 4678 2328 
Q 4678 1225 4090 567 
Q 3503 -91 2522 -91 
Q 1538 -91 948 565 
Q 359 1222 359 2328 
Q 359 3434 948 4092 
Q 1538 4750 2522 4750 
z
" transform="scale(0.015625)"/>
      <path id="DejaVuSans-33" d="M 2597 2516 
Q 3050 2419 3304 2112 
Q 3559 1806 3559 1356 
Q 3559 666 3084 287 
Q 2609 -91 1734 -91 
Q 1441 -91 1130 -33 
Q 819 25 488 141 
L 488 750 
Q 750 597 1062 519 
Q 1375 441 1716 441 
Q 2309 441 2620 675 
Q 2931 909 2931 1356 
Q 2931 1769 2642 2001 
Q 2353 2234 1838 2234 
L 1294 2234 
L 1294 2753 
L 1863 2753 
Q 2328 2753 2575 2939 
Q 2822 3125 2822 3475 
Q 2822 3834 2567 4026 
Q 2313 4219 1838 4219 
Q 1578 4219 1281 4162 
Q 984 4106 628 3988 
L 628 4550 
Q 988 4650 1302 4700 
Q 1616 4750 1894 4750 
Q 2613 4750 3031 4423 
Q 3450 4097 3450 3541 
Q 3450 3153 3228 2886 
Q 3006 2619 2597 2516 
z
" transform="scale(0.015625)"/>
     </defs>
     <use xlink:href="#DejaVuSans-54"/>
     <use xlink:href="#DejaVuSans-61" x="44.583984"/>
     <use xlink:href="#DejaVuSans-72" x="105.863281"/>
     <use xlink:href="#DejaVuSans-67" x="145.226562"/>
     <use xlink:href="#DejaVuSans-65" x="208.703125"/>
     <use xlink:href="#DejaVuSans-74" x="270.226562"/>
     <use xlink:href="#DejaVuSans-3a" x="309.435547"/>
     <use xlink:href="#DejaVuSans-20" x="343.126953"/>
     <use xlink:href="#DejaVuSans-4f" x="374.914062"/>
     <use xlink:href="#DejaVuSans-33" x="453.625"/>
    </g>
    <!-- Best: HGBR -->
    <g transform="translate(409.910504 40.873844) scale(0.11 -0.11)">
     <defs>
      <path id="DejaVuSans-42" d="M 1259 2228 
L 1259 519 
L 2272 519 
Q 2781 519 3026 730 
Q 3272 941 3272 1375 
Q 3272 1813 3026 2020 
Q 2781 2228 2272 2228 
L 1259 2228 
z
M 1259 4147 
L 1259 2741 
L 2194 2741 
Q 2656 2741 2882 2914 
Q 3109 3088 3109 3444 
Q 3109 3797 2882 3972 
Q 2656 4147 2194 4147 
L 1259 4147 
z
M 628 4666 
L 2241 4666 
Q 2963 4666 3353 4366 
Q 3744 4066 3744 3513 
Q 3744 3084 3544 2831 
Q 3344 2578 2956 2516 
Q 3422 2416 3680 2098 
Q 3938 1781 3938 1306 
Q 3938 681 3513 340 
Q 3088 0 2303 0 
L 628 0 
L 628 4666 
z
" transform="scale(0.015625)"/>
      <path id="DejaVuSans-73" d="M 2834 3397 
L 2834 2853 
Q 2591 2978 2328 3040 
Q 2066 3103 1784 3103 
Q 1356 3103 1142 2972 
Q 928 2841 928 2578 
Q 928 2378 1081 2264 
Q 1234 2150 1697 2047 
L 1894 2003 
Q 2506 1872 2764 1633 
Q 3022 1394 3022 966 
Q 3022 478 2636 193 
Q 2250 -91 1575 -91 
Q 1294 -91 989 -36 
Q 684 19 347 128 
L 347 722 
Q 666 556 975 473 
Q 1284 391 1588 391 
Q 1994 391 2212 530 
Q 2431 669 2431 922 
Q 2431 1156 2273 1281 
Q 2116 1406 1581 1522 
L 1381 1569 
Q 847 1681 609 1914 
Q 372 2147 372 2553 
Q 372 3047 722 3315 
Q 1072 3584 1716 3584 
Q 2034 3584 2315 3537 
Q 2597 3491 2834 3397 
z
" transform="scale(0.015625)"/>
      <path id="DejaVuSans-48" d="M 628 4666 
L 1259 4666 
L 1259 2753 
L 3553 2753 
L 3553 4666 
L 4184 4666 
L 4184 0 
L 3553 0 
L 3553 2222 
L 1259 2222 
L 1259 0 
L 628 0 
L 628 4666 
z
" transform="scale(0.015625)"/>
      <path id="DejaVuSans-47" d="M 3809 666 
L 3809 1919 
L 2778 1919 
L 2778 2438 
L 4434 2438 
L 4434 434 
Q 4069 175 3628 42 
Q 3188 -91 2688 -91 
Q 1594 -91 976 548 
Q 359 1188 359 2328 
Q 359 3472 976 4111 
Q 1594 4750 2688 4750 
Q 3144 4750 3555 4637 
Q 3966 4525 4313 4306 
L 4313 3634 
Q 3963 3931 3569 4081 
Q 3175 4231 2741 4231 
Q 1884 4231 1454 3753 
Q 1025 3275 1025 2328 
Q 1025 1384 1454 906 
Q 1884 428 2741 428 
Q 3075 428 3337 486 
Q 3600 544 3809 666 
z
" transform="scale(0.015625)"/>
      <path id="DejaVuSans-52" d="M 2841 2188 
Q 3044 2119 3236 1894 
Q 3428 1669 3622 1275 
L 4263 0 
L 3584 0 
L 2988 1197 
Q 2756 1666 2539 1819 
Q 2322 1972 1947 1972 
L 1259 1972 
L 1259 0 
L 628 0 
L 628 4666 
L 2053 4666 
Q 2853 4666 3247 4331 
Q 3641 3997 3641 3322 
Q 3641 2881 3436 2590 
Q 3231 2300 2841 2188 
z
M 1259 4147 
L 1259 2491 
L 2053 2491 
Q 2509 2491 2742 2702 
Q 2975 2913 2975 3322 
Q 2975 3731 2742 3939 
Q 2509 4147 2053 4147 
L 1259 4147 
z
" transform="scale(0.015625)"/>
     </defs>
     <use xlink:href="#DejaVuSans-42"/>
     <use xlink:href="#DejaVuSans-65" x="68.603516"/>
     <use xlink:href="#DejaVuSans-73" x="130.126953"/>
     <use xlink:href="#DejaVuSans-74" x="182.226562"/>
     <use xlink:href="#DejaVuSans-3a" x="221.435547"/>
     <use xlink:href="#DejaVuSans-20" x="255.126953"/>
     <use xlink:href="#DejaVuSans-48" x="286.914062"/>
     <use xlink:href="#DejaVuSans-47" x="362.109375"/>
     <use xlink:href="#DejaVuSans-42" x="439.599609"/>
     <use xlink:href="#DejaVuSans-52" x="508.203125"/>
    </g>
    <!-- CV RMSE: 15.07 -->
    <g transform="translate(409.910504 53.191437) scale(0.11 -0.11)">
     <defs>
      <path id="DejaVuSans-43" d="M 4122 4306 
L 4122 3641 
Q 3803 3938 3442 4084 
Q 3081 4231 2675 4231 
Q 1875 4231 1450 3742 
Q 1025 3253 1025 2328 
Q 1025 1406 1450 917 
Q 1875 428 2675 428 
Q 3081 428 3442 575 
Q 3803 722 4122 1019 
L 4122 359 
Q 3791 134 3420 21 
Q 3050 -91 2638 -91 
Q 1578 -91 968 557 
Q 359 1206 359 2328 
Q 359 3453 968 4101 
Q 1578 4750 2638 4750 
Q 3056 4750 3426 4639 
Q 3797 4528 4122 4306 
z
" transform="scale(0.015625)"/>
      <path id="DejaVuSans-56" d="M 1831 0 
L 50 4666 
L 709 4666 
L 2188 738 
L 3669 4666 
L 4325 4666 
L 2547 0 
L 1831 0 
z
" transform="scale(0.015625)"/>
      <path id="DejaVuSans-4d" d="M 628 4666 
L 1569 4666 
L 2759 1491 
L 3956 4666 
L 4897 4666 
L 4897 0 
L 4281 0 
L 4281 4097 
L 3078 897 
L 2444 897 
L 1241 4097 
L 1241 0 
L 628 0 
L 628 4666 
z
" transform="scale(0.015625)"/>
      <path id="DejaVuSans-53" d="M 3425 4513 
L 3425 3897 
Q 3066 4069 2747 4153 
Q 2428 4238 2131 4238 
Q 1616 4238 1336 4038 
Q 1056 3838 1056 3469 
Q 1056 3159 1242 3001 
Q 1428 2844 1947 2747 
L 2328 2669 
Q 3034 2534 3370 2195 
Q 3706 1856 3706 1288 
Q 3706 609 3251 259 
Q 2797 -91 1919 -91 
Q 1588 -91 1214 -16 
Q 841 59 441 206 
L 441 856 
Q 825 641 1194 531 
Q 1563 422 1919 422 
Q 2459 422 2753 634 
Q 3047 847 3047 1241 
Q 3047 1584 2836 1778 
Q 2625 1972 2144 2069 
L 1759 2144 
Q 1053 2284 737 2584 
Q 422 2884 422 3419 
Q 422 4038 858 4394 
Q 1294 4750 2059 4750 
Q 2388 4750 2728 4690 
Q 3069 4631 3425 4513 
z
" transform="scale(0.015625)"/>
      <path id="DejaVuSans-45" d="M 628 4666 
L 3578 4666 
L 3578 4134 
L 1259 4134 
L 1259 2753 
L 3481 2753 
L 3481 2222 
L 1259 2222 
L 1259 531 
L 3634 531 
L 3634 0 
L 628 0 
L 628 4666 
z
" transform="scale(0.015625)"/>
      <path id="DejaVuSans-31" d="M 794 531 
L 1825 531 
L 1825 4091 
L 703 3866 
L 703 4441 
L 1819 4666 
L 2450 4666 
L 2450 531 
L 3481 531 
L 3481 0 
L 794 0 
L 794 531 
z
" transform="scale(0.015625)"/>
      <path id="DejaVuSans-35" d="M 691 4666 
L 3169 4666 
L 3169 4134 
L 1269 4134 
L 1269 2991 
Q 1406 3038 1543 3061 
Q 1681 3084 1819 3084 
Q 2600 3084 3056 2656 
Q 3513 2228 3513 1497 
Q 3513 744 3044 326 
Q 2575 -91 1722 -91 
Q 1428 -91 1123 -41 
Q 819 9 494 109 
L 494 744 
Q 775 591 1075 516 
Q 1375 441 1709 441 
Q 2250 441 2565 725 
Q 2881 1009 2881 1497 
Q 2881 1984 2565 2268 
Q 2250 2553 1709 2553 
Q 1456 2553 1204 2497 
Q 953 2441 691 2322 
L 691 4666 
z
" transform="scale(0.015625)"/>
      <path id="DejaVuSans-2e" d="M 684 794 
L 1344 794 
L 1344 0 
L 684 0 
L 684 794 
z
" transform="scale(0.015625)"/>
      <path id="DejaVuSans-30" d="M 2034 4250 
Q 1547 4250 1301 3770 
Q 1056 3291 1056 2328 
Q 1056 1369 1301 889 
Q 1547 409 2034 409 
Q 2525 409 2770 889 
Q 3016 1369 3016 2328 
Q 3016 3291 2770 3770 
Q 2525 4250 2034 4250 
z
M 2034 4750 
Q 2819 4750 3233 4129 
Q 3647 3509 3647 2328 
Q 3647 1150 3233 529 
Q 2819 -91 2034 -91 
Q 1250 -91 836 529 
Q 422 1150 422 2328 
Q 422 3509 836 4129 
Q 1250 4750 2034 4750 
z
" transform="scale(0.015625)"/>
      <path id="DejaVuSans-37" d="M 525 4666 
L 3525 4666 
L 3525 4397 
L 1831 0 
L 1172 0 
L 2766 4134 
L 525 4134 
L 525 4666 
z
" transform="scale(0.015625)"/>
     </defs>
     <use xlink:href="#DejaVuSans-43"/>
     <use xlink:href="#DejaVuSans-56" x="69.824219"/>
     <use xlink:href="#DejaVuSans-20" x="138.232422"/>
     <use xlink:href="#DejaVuSans-52" x="170.019531"/>
     <use xlink:href="#DejaVuSans-4d" x="239.501953"/>
     <use xlink:href="#DejaVuSans-53" x="325.78125"/>
     <use xlink:href="#DejaVuSans-45" x="389.257812"/>
     <use xlink:href="#DejaVuSans-3a" x="452.441406"/>
     <use xlink:href="#DejaVuSans-20" x="486.132812"/>
     <use xlink:href="#DejaVuSans-31" x="517.919922"/>
     <use xlink:href="#DejaVuSans-35" x="581.542969"/>
     <use xlink:href="#DejaVuSans-2e" x="645.166016"/>
     <use xlink:href="#DejaVuSans-30" x="676.953125"/>
     <use xlink:href="#DejaVuSans-37" x="740.576172"/>
    </g>
    <!-- Test RMSE: 13.18 -->
    <g transform="translate(409.910504 65.509031) scale(0.11 -0.11)">
     <defs>
      <path id="DejaVuSans-38" d="M 2034 2216 
Q 1584 2216 1326 1975 
Q 1069 1734 1069 1313 
Q 1069 891 1326 650 
Q 1584 409 2034 409 
Q 2484 409 2743 651 
Q 3003 894 3003 1313 
Q 3003 1734 2745 1975 
Q 2488 2216 2034 2216 
z
M 1403 2484 
Q 997 2584 770 2862 
Q 544 3141 544 3541 
Q 544 4100 942 4425 
Q 1341 4750 2034 4750 
Q 2731 4750 3128 4425 
Q 3525 4100 3525 3541 
Q 3525 3141 3298 2862 
Q 3072 2584 2669 2484 
Q 3125 2378 3379 2068 
Q 3634 1759 3634 1313 
Q 3634 634 3220 271 
Q 2806 -91 2034 -91 
Q 1263 -91 848 271 
Q 434 634 434 1313 
Q 434 1759 690 2068 
Q 947 2378 1403 2484 
z
M 1172 3481 
Q 1172 3119 1398 2916 
Q 1625 2713 2034 2713 
Q 2441 2713 2670 2916 
Q 2900 3119 2900 3481 
Q 2900 3844 2670 4047 
Q 2441 4250 2034 4250 
Q 1625 4250 1398 4047 
Q 1172 3844 1172 3481 
z
" transform="scale(0.015625)"/>
     </defs>
     <use xlink:href="#DejaVuSans-54"/>
     <use xlink:href="#DejaVuSans-65" x="44.083984"/>
     <use xlink:href="#DejaVuSans-73" x="105.607422"/>
     <use xlink:href="#DejaVuSans-74" x="157.707031"/>
     <use xlink:href="#DejaVuSans-20" x="196.916016"/>
     <use xlink:href="#DejaVuSans-52" x="228.703125"/>
     <use xlink:href="#DejaVuSans-4d" x="298.185547"/>
     <use xlink:href="#DejaVuSans-53" x="384.464844"/>
     <use xlink:href="#DejaVuSans-45" x="447.941406"/>
     <use xlink:href="#DejaVuSans-3a" x="511.125"/>
     <use xlink:href="#DejaVuSans-20" x="544.816406"/>
     <use xlink:href="#DejaVuSans-31" x="576.603516"/>
     <use xlink:href="#DejaVuSans-33" x="640.226562"/>
     <use xlink:href="#DejaVuSans-2e" x="703.849609"/>
     <use xlink:href="#DejaVuSans-31" x="735.636719"/>
     <use xlink:href="#DejaVuSans-38" x="799.259766"/>
    </g>
    <!-- Test MAE: 10.42 -->
    <g transform="translate(409.910504 77.826625) scale(0.11 -0.11)">
     <defs>
      <path id="DejaVuSans-41" d="M 2188 4044 
L 1331 1722 
L 3047 1722 
L 2188 4044 
z
M 1831 4666 
L 2547 4666 
L 4325 0 
L 3669 0 
L 3244 1197 
L 1141 1197 
L 716 0 
L 50 0 
L 1831 4666 
z
" transform="scale(0.015625)"/>
      <path id="DejaVuSans-34" d="M 2419 4116 
L 825 1625 
L 2419 1625 
L 2419 4116 
z
M 2253 4666 
L 3047 4666 
L 3047 1625 
L 3713 1625 
L 3713 1100 
L 3047 1100 
L 3047 0 
L 2419 0 
L 2419 1100 
L 313 1100 
L 313 1709 
L 2253 4666 
z
" transform="scale(0.015625)"/>
      <path id="DejaVuSans-32" d="M 1228 531 
L 3431 531 
L 3431 0 
L 469 0 
L 469 531 
Q 828 903 1448 1529 
Q 2069 2156 2228 2338 
Q 2531 2678 2651 2914 
Q 2772 3150 2772 3378 
Q 2772 3750 2511 3984 
Q 2250 4219 1831 4219 
Q 1534 4219 1204 4116 
Q 875 4013 500 3803 
L 500 4441 
Q 881 4594 1212 4672 
Q 1544 4750 1819 4750 
Q 2544 4750 2975 4387 
Q 3406 4025 3406 3419 
Q 3406 3131 3298 2873 
Q 3191 2616 2906 2266 
Q 2828 2175 2409 1742 
Q 1991 1309 1228 531 
z
" transform="scale(0.015625)"/>
     </defs>
     <use xlink:href="#DejaVuSans-54"/>
     <use xlink:href="#DejaVuSans-65" x="44.083984"/>
     <use xlink:href="#DejaVuSans-73" x="105.607422"/>
     <use xlink:href="#DejaVuSans-74" x="157.707031"/>
     <use xlink:href="#DejaVuSans-20" x="196.916016"/>
     <use xlink:href="#DejaVuSans-4d" x="228.703125"/>
     <use xlink:href="#DejaVuSans-41" x="314.982422"/>
     <use xlink:href="#DejaVuSans-45" x="383.390625"/>
     <use xlink:href="#DejaVuSans-3a" x="446.574219"/>
     <use xlink:href="#DejaVuSans-20" x="480.265625"/>
     <use xlink:href="#DejaVuSans-31" x="512.052734"/>
     <use xlink:href="#DejaVuSans-30" x="575.675781"/>
     <use xlink:href="#DejaVuSans-2e" x="639.298828"/>
     <use xlink:href="#DejaVuSans-34" x="671.085938"/>
     <use xlink:href="#DejaVuSans-32" x="734.708984"/>
    </g>
    <!-- N(train): 2266 -->
    <g transform="translate(409.910504 90.144219) scale(0.11 -0.11)">
     <defs>
      <path id="DejaVuSans-4e" d="M 628 4666 
L 1478 4666 
L 3547 763 
L 3547 4666 
L 4159 4666 
L 4159 0 
L 3309 0 
L 1241 3903 
L 1241 0 
L 628 0 
L 628 4666 
z
" transform="scale(0.015625)"/>
      <path id="DejaVuSans-28" d="M 1984 4856 
Q 1566 4138 1362 3434 
Q 1159 2731 1159 2009 
Q 1159 1288 1364 580 
Q 1569 -128 1984 -844 
L 1484 -844 
Q 1016 -109 783 600 
Q 550 1309 550 2009 
Q 550 2706 781 3412 
Q 1013 4119 1484 4856 
L 1984 4856 
z
" transform="scale(0.015625)"/>
      <path id="DejaVuSans-69" d="M 603 3500 
L 1178 3500 
L 1178 0 
L 603 0 
L 603 3500 
z
M 603 4863 
L 1178 4863 
L 1178 4134 
L 603 4134 
L 603 4863 
z
" transform="scale(0.015625)"/>
      <path id="DejaVuSans-6e" d="M 3513 2113 
L 3513 0 
L 2938 0 
L 2938 2094 
Q 2938 2591 2744 2837 
Q 2550 3084 2163 3084 
Q 1697 3084 1428 2787 
Q 1159 2491 1159 1978 
L 1159 0 
L 581 0 
L 581 3500 
L 1159 3500 
L 1159 2956 
Q 1366 3272 1645 3428 
Q 1925 3584 2291 3584 
Q 2894 3584 3203 3211 
Q 3513 2838 3513 2113 
z
" transform="scale(0.015625)"/>
      <path id="DejaVuSans-29" d="M 513 4856 
L 1013 4856 
Q 1481 4119 1714 3412 
Q 1947 2706 1947 2009 
Q 1947 1309 1714 600 
Q 1481 -109 1013 -844 
L 513 -844 
Q 928 -128 1133 580 
Q 1338 1288 1338 2009 
Q 1338 2731 1133 3434 
Q 928 4138 513 4856 
z
" transform="scale(0.015625)"/>
      <path id="DejaVuSans-36" d="M 2113 2584 
Q 1688 2584 1439 2293 
Q 1191 2003 1191 1497 
Q 1191 994 1439 701 
Q 1688 409 2113 409 
Q 2538 409 2786 701 
Q 3034 994 3034 1497 
Q 3034 2003 2786 2293 
Q 2538 2584 2113 2584 
z
M 3366 4563 
L 3366 3988 
Q 3128 4100 2886 4159 
Q 2644 4219 2406 4219 
Q 1781 4219 1451 3797 
Q 1122 3375 1075 2522 
Q 1259 2794 1537 2939 
Q 1816 3084 2150 3084 
Q 2853 3084 3261 2657 
Q 3669 2231 3669 1497 
Q 3669 778 3244 343 
Q 2819 -91 2113 -91 
Q 1303 -91 875 529 
Q 447 1150 447 2328 
Q 447 3434 972 4092 
Q 1497 4750 2381 4750 
Q 2619 4750 2861 4703 
Q 3103 4656 3366 4563 
z
" transform="scale(0.015625)"/>
     </defs>
     <use xlink:href="#DejaVuSans-4e"/>
     <use xlink:href="#DejaVuSans-28" x="74.804688"/>
     <use xlink:href="#DejaVuSans-74" x="113.818359"/>
     <use xlink:href="#DejaVuSans-72" x="153.027344"/>
     <use xlink:href="#DejaVuSans-61" x="194.140625"/>
     <use xlink:href="#DejaVuSans-69" x="255.419922"/>
     <use xlink:href="#DejaVuSans-6e" x="283.203125"/>
     <use xlink:href="#DejaVuSans-29" x="346.582031"/>
     <use xlink:href="#DejaVuSans-3a" x="385.595703"/>
     <use xlink:href="#DejaVuSans-20" x="419.287109"/>
     <use xlink:href="#DejaVuSans-32" x="451.074219"/>
     <use xlink:href="#DejaVuSans-32" x="514.697266"/>
     <use xlink:href="#DejaVuSans-36" x="578.320312"/>
     <use xlink:href="#DejaVuSans-36" x="641.943359"/>
    </g>
    <!-- N(test):  567 -->
    <g transform="translate(409.910504 102.461812) scale(0.11 -0.11)">
     <use xlink:href="#DejaVuSans-4e"/>
     <use xlink:href="#DejaVuSans-28" x="74.804688"/>
     <use xlink:href="#DejaVuSans-74" x="113.818359"/>
     <use xlink:href="#DejaVuSans-65" x="153.027344"/>
     <use xlink:href="#DejaVuSans-73" x="214.550781"/>
     <use xlink:href="#DejaVuSans-74" x="266.650391"/>
     <use xlink:href="#DejaVuSans-29" x="305.859375"/>
     <use xlink:href="#DejaVuSans-3a" x="344.873047"/>
     <use xlink:href="#DejaVuSans-20" x="378.564453"/>
     <use xlink:href="#DejaVuSans-20" x="410.351562"/>
     <use xlink:href="#DejaVuSans-35" x="442.138672"/>
     <use xlink:href="#DejaVuSans-36" x="505.761719"/>
     <use xlink:href="#DejaVuSans-37" x="569.384766"/>
    </g>
    <!-- tol=±5 min -->
    <g transform="translate(409.910504 114.779406) scale(0.11 -0.11)">
     <defs>
      <path id="DejaVuSans-6f" d="M 1959 3097 
Q 1497 3097 1228 2736 
Q 959 2375 959 1747 
Q 959 1119 1226 758 
Q 1494 397 1959 397 
Q 2419 397 2687 759 
Q 2956 1122 2956 1747 
Q 2956 2369 2687 2733 
Q 2419 3097 1959 3097 
z
M 1959 3584 
Q 2709 3584 3137 3096 
Q 3566 2609 3566 1747 
Q 3566 888 3137 398 
Q 2709 -91 1959 -91 
Q 1206 -91 779 398 
Q 353 888 353 1747 
Q 353 2609 779 3096 
Q 1206 3584 1959 3584 
z
" transform="scale(0.015625)"/>
      <path id="DejaVuSans-6c" d="M 603 4863 
L 1178 4863 
L 1178 0 
L 603 0 
L 603 4863 
z
" transform="scale(0.015625)"/>
      <path id="DejaVuSans-3d" d="M 678 2906 
L 4684 2906 
L 4684 2381 
L 678 2381 
L 678 2906 
z
M 678 1631 
L 4684 1631 
L 4684 1100 
L 678 1100 
L 678 1631 
z
" transform="scale(0.015625)"/>
      <path id="DejaVuSans-b1" d="M 2944 4013 
L 2944 2803 
L 4684 2803 
L 4684 2272 
L 2944 2272 
L 2944 1063 
L 2419 1063 
L 2419 2272 
L 678 2272 
L 678 2803 
L 2419 2803 
L 2419 4013 
L 2944 4013 
z
M 678 531 
L 4684 531 
L 4684 0 
L 678 0 
L 678 531 
z
" transform="scale(0.015625)"/>
      <path id="DejaVuSans-6d" d="M 3328 2828 
Q 3544 3216 3844 3400 
Q 4144 3584 4550 3584 
Q 5097 3584 5394 3201 
Q 5691 2819 5691 2113 
L 5691 0 
L 5113 0 
L 5113 2094 
Q 5113 2597 4934 2840 
Q 4756 3084 4391 3084 
Q 3944 3084 3684 2787 
Q 3425 2491 3425 1978 
L 3425 0 
L 2847 0 
L 2847 2094 
Q 2847 2600 2669 2842 
Q 2491 3084 2119 3084 
Q 1678 3084 1418 2786 
Q 1159 2488 1159 1978 
L 1159 0 
L 581 0 
L 581 3500 
L 1159 3500 
L 1159 2956 
Q 1356 3278 1631 3431 
Q 1906 3584 2284 3584 
Q 2666 3584 2933 3390 
Q 3200 3197 3328 2828 
z
" transform="scale(0.015625)"/>
     </defs>
     <use xlink:href="#DejaVuSans-74"/>
     <use xlink:href="#DejaVuSans-6f" x="39.208984"/>
     <use xlink:href="#DejaVuSans-6c" x="100.390625"/>
     <use xlink:href="#DejaVuSans-3d" x="128.173828"/>
     <use xlink:href="#DejaVuSans-b1" x="211.962891"/>
     <use xlink:href="#DejaVuSans-35" x="295.751953"/>
     <use xlink:href="#DejaVuSans-20" x="359.375"/>
     <use xlink:href="#DejaVuSans-6d" x="391.162109"/>
     <use xlink:href="#DejaVuSans-69" x="488.574219"/>
     <use xlink:href="#DejaVuSans-6e" x="516.357422"/>
    </g>
   </g>
   <g id="text_2">
    <!-- [O3] Partial dependence (direction of key factors) -->
    <g transform="translate(61.228062 14.197969) scale(0.13 -0.13)">
     <defs>
      <path id="DejaVuSans-5b" d="M 550 4863 
L 1875 4863 
L 1875 4416 
L 1125 4416 
L 1125 -397 
L 1875 -397 
L 1875 -844 
L 550 -844 
L 550 4863 
z
" transform="scale(0.015625)"/>
      <path id="DejaVuSans-5d" d="M 1947 4863 
L 1947 -844 
L 622 -844 
L 622 -397 
L 1369 -397 
L 1369 4416 
L 622 4416 
L 622 4863 
L 1947 4863 
z
" transform="scale(0.015625)"/>
      <path id="DejaVuSans-50" d="M 1259 4147 
L 1259 2394 
L 2053 2394 
Q 2494 2394 2734 2622 
Q 2975 2850 2975 3272 
Q 2975 3691 2734 3919 
Q 2494 4147 2053 4147 
L 1259 4147 
z
M 628 4666 
L 2053 4666 
Q 2838 4666 3239 4311 
Q 3641 3956 3641 3272 
Q 3641 2581 3239 2228 
Q 2838 1875 2053 1875 
L 1259 1875 
L 1259 0 
L 628 0 
L 628 4666 
z
" transform="scale(0.015625)"/>
      <path id="DejaVuSans-64" d="M 2906 2969 
L 2906 4863 
L 3481 4863 
L 3481 0 
L 2906 0 
L 2906 525 
Q 2725 213 2448 61 
Q 2172 -91 1784 -91 
Q 1150 -91 751 415 
Q 353 922 353 1747 
Q 353 2572 751 3078 
Q 1150 3584 1784 3584 
Q 2172 3584 2448 3432 
Q 2725 3281 2906 2969 
z
M 947 1747 
Q 947 1113 1208 752 
Q 1469 391 1925 391 
Q 2381 391 2643 752 
Q 2906 1113 2906 1747 
Q 2906 2381 2643 2742 
Q 2381 3103 1925 3103 
Q 1469 3103 1208 2742 
Q 947 2381 947 1747 
z
" transform="scale(0.015625)"/>
      <path id="DejaVuSans-70" d="M 1159 525 
L 1159 -1331 
L 581 -1331 
L 581 3500 
L 1159 3500 
L 1159 2969 
Q 1341 3281 1617 3432 
Q 1894 3584 2278 3584 
Q 2916 3584 3314 3078 
Q 3713 2572 3713 1747 
Q 3713 922 3314 415 
Q 2916 -91 2278 -91 
Q 1894 -91 1617 61 
Q 1341 213 1159 525 
z
M 3116 1747 
Q 3116 2381 2855 2742 
Q 2594 3103 2138 3103 
Q 1681 3103 1420 2742 
Q 1159 2381 1159 1747 
Q 1159 1113 1420 752 
Q 1681 391 2138 391 
Q 2594 391 2855 752 
Q 3116 1113 3116 1747 
z
" transform="scale(0.015625)"/>
      <path id="DejaVuSans-63" d="M 3122 3366 
L 3122 2828 
Q 2878 2963 2633 3030 
Q 2388 3097 2138 3097 
Q 1578 3097 1268 2742 
Q 959 2388 959 1747 
Q 959 1106 1268 751 
Q 1578 397 2138 397 
Q 2388 397 2633 464 
Q 2878 531 3122 666 
L 3122 134 
Q 2881 22 2623 -34 
Q 2366 -91 2075 -91 
Q 1284 -91 818 406 
Q 353 903 353 1747 
Q 353 2603 823 3093 
Q 1294 3584 2113 3584 
Q 2378 3584 2631 3529 
Q 2884 3475 3122 3366 
z
" transform="scale(0.015625)"/>
      <path id="DejaVuSans-66" d="M 2375 4863 
L 2375 4384 
L 1825 4384 
Q 1516 4384 1395 4259 
Q 1275 4134 1275 3809 
L 1275 3500 
L 2222 3500 
L 2222 3053 
L 1275 3053 
L 1275 0 
L 697 0 
L 697 3053 
L 147 3053 
L 147 3500 
L 697 3500 
L 697 3744 
Q 697 4328 969 4595 
Q 1241 4863 1831 4863 
L 2375 4863 
z
" transform="scale(0.015625)"/>
      <path id="DejaVuSans-6b" d="M 581 4863 
L 1159 4863 
L 1159 1991 
L 2875 3500 
L 3609 3500 
L 1753 1863 
L 3688 0 
L 2938 0 
L 1159 1709 
L 1159 0 
L 581 0 
L 581 4863 
z
" transform="scale(0.015625)"/>
      <path id="DejaVuSans-79" d="M 2059 -325 
Q 1816 -950 1584 -1140 
Q 1353 -1331 966 -1331 
L 506 -1331 
L 506 -850 
L 844 -850 
Q 1081 -850 1212 -737 
Q 1344 -625 1503 -206 
L 1606 56 
L 191 3500 
L 800 3500 
L 1894 763 
L 2988 3500 
L 3597 3500 
L 2059 -325 
z
" transform="scale(0.015625)"/>
     </defs>
     <use xlink:href="#DejaVuSans-5b"/>
     <use xlink:href="#DejaVuSans-4f" x="39.013672"/>
     <use xlink:href="#DejaVuSans-33" x="117.724609"/>
     <use xlink:href="#DejaVuSans-5d" x="181.347656"/>
     <use xlink:href="#DejaVuSans-20" x="220.361328"/>
     <use xlink:href="#DejaVuSans-50" x="252.148438"/>
     <use xlink:href="#DejaVuSans-61" x="307.951172"/>
     <use xlink:href="#DejaVuSans-72" x="369.230469"/>
     <use xlink:href="#DejaVuSans-74" x="410.34375"/>
     <use xlink:href="#DejaVuSans-69" x="449.552734"/>
     <use xlink:href="#DejaVuSans-61" x="477.335938"/>
     <use xlink:href="#DejaVuSans-6c" x="538.615234"/>
     <use xlink:href="#DejaVuSans-20" x="566.398438"/>
     <use xlink:href="#DejaVuSans-64" x="598.185547"/>
     <use xlink:href="#DejaVuSans-65" x="661.662109"/>
     <use xlink:href="#DejaVuSans-70" x="723.185547"/>
     <use xlink:href="#DejaVuSans-65" x="786.662109"/>
     <use xlink:href="#DejaVuSans-6e" x="848.185547"/>
     <use xlink:href="#DejaVuSans-64" x="911.564453"/>
     <use xlink:href="#DejaVuSans-65" x="975.041016"/>
     <use xlink:href="#DejaVuSans-6e" x="1036.564453"/>
     <use xlink:href="#DejaVuSans-63" x="1099.943359"/>
     <use xlink:href="#DejaVuSans-65" x="1154.923828"/>
     <use xlink:href="#DejaVuSans-20" x="1216.447266"/>
     <use xlink:href="#DejaVuSans-28" x="1248.234375"/>
     <use xlink:href="#DejaVuSans-64" x="1287.248047"/>
     <use xlink:href="#DejaVuSans-69" x="1350.724609"/>
     <use xlink:href="#DejaVuSans-72" x="1378.507812"/>
     <use xlink:href="#DejaVuSans-65" x="1417.371094"/>
     <use xlink:href="#DejaVuSans-63" x="1478.894531"/>
     <use xlink:href="#DejaVuSans-74" x="1533.875"/>
     <use xlink:href="#DejaVuSans-69" x="1573.083984"/>
     <use xlink:href="#DejaVuSans-6f" x="1600.867188"/>
     <use xlink:href="#DejaVuSans-6e" x="1662.048828"/>
     <use xlink:href="#DejaVuSans-20" x="1725.427734"/>
     <use xlink:href="#DejaVuSans-6f" x="1757.214844"/>
     <use xlink:href="#DejaVuSans-66" x="1818.396484"/>
     <use xlink:href="#DejaVuSans-20" x="1853.601562"/>
     <use xlink:href="#DejaVuSans-6b" x="1885.388672"/>
     <use xlink:href="#DejaVuSans-65" x="1939.673828"/>
     <use xlink:href="#DejaVuSans-79" x="2001.197266"/>
     <use xlink:href="#DejaVuSans-20" x="2060.376953"/>
     <use xlink:href="#DejaVuSans-66" x="2092.164062"/>
     <use xlink:href="#DejaVuSans-61" x="2127.369141"/>
     <use xlink:href="#DejaVuSans-63" x="2188.648438"/>
     <use xlink:href="#DejaVuSans-74" x="2243.628906"/>
     <use xlink:href="#DejaVuSans-6f" x="2282.837891"/>
     <use xlink:href="#DejaVuSans-72" x="2344.019531"/>
     <use xlink:href="#DejaVuSans-73" x="2385.132812"/>
     <use xlink:href="#DejaVuSans-29" x="2437.232422"/>
    </g>
   </g>
  </g>
  <g id="axes_2">
   <g id="patch_3">
    <path d="M 41.682344 253.045969 
L 147.861167 253.045969 
L 147.861167 20.197969 
L 41.682344 20.197969 
z
" style="fill: #ffffff"/>
   </g>
   <g id="matplotlib.axis_1">
    <g id="xtick_1">
     <g id="line2d_1">
      <path d="M 49.590648 253.045969 
L 49.590648 20.197969 
" clip-path="url(#p98ba388b77)" style="fill: none; stroke-dasharray: 2.59,1.12; stroke-dashoffset: 0; stroke: #b0b0b0; stroke-opacity: 0.18; stroke-width: 0.7"/>
     </g>
     <g id="line2d_2">
      <defs>
       <path id="m787c154d8c" d="M 0 0 
L 0 3 
" style="stroke: #000000; stroke-width: 0.8"/>
      </defs>
      <g>
       <use xlink:href="#m787c154d8c" x="49.590648" y="253.045969" style="stroke: #000000; stroke-width: 0.8"/>
      </g>
     </g>
     <g id="text_3">
      <!-- 25 -->
      <g transform="translate(42.591898 267.90425) scale(0.11 -0.11)">
       <use xlink:href="#DejaVuSans-32"/>
       <use xlink:href="#DejaVuSans-35" x="63.623047"/>
      </g>
     </g>
    </g>
    <g id="xtick_2">
     <g id="line2d_3">
      <path d="M 85.023274 253.045969 
L 85.023274 20.197969 
" clip-path="url(#p98ba388b77)" style="fill: none; stroke-dasharray: 2.59,1.12; stroke-dashoffset: 0; stroke: #b0b0b0; stroke-opacity: 0.18; stroke-width: 0.7"/>
     </g>
     <g id="line2d_4">
      <g>
       <use xlink:href="#m787c154d8c" x="85.023274" y="253.045969" style="stroke: #000000; stroke-width: 0.8"/>
      </g>
     </g>
     <g id="text_4">
      <!-- 50 -->
      <g transform="translate(78.024524 267.90425) scale(0.11 -0.11)">
       <use xlink:href="#DejaVuSans-35"/>
       <use xlink:href="#DejaVuSans-30" x="63.623047"/>
      </g>
     </g>
    </g>
    <g id="xtick_3">
     <g id="line2d_5">
      <path d="M 120.4559 253.045969 
L 120.4559 20.197969 
" clip-path="url(#p98ba388b77)" style="fill: none; stroke-dasharray: 2.59,1.12; stroke-dashoffset: 0; stroke: #b0b0b0; stroke-opacity: 0.18; stroke-width: 0.7"/>
     </g>
     <g id="line2d_6">
      <g>
       <use xlink:href="#m787c154d8c" x="120.4559" y="253.045969" style="stroke: #000000; stroke-width: 0.8"/>
      </g>
     </g>
     <g id="text_5">
      <!-- 75 -->
      <g transform="translate(113.45715 267.90425) scale(0.11 -0.11)">
       <use xlink:href="#DejaVuSans-37"/>
       <use xlink:href="#DejaVuSans-35" x="63.623047"/>
      </g>
     </g>
    </g>
    <g id="text_6">
     <!-- mc_Humidity_mean -->
     <g transform="translate(40.354412 282.550187) scale(0.11 -0.11)">
      <defs>
       <path id="DejaVuSans-5f" d="M 3263 -1063 
L 3263 -1509 
L -63 -1509 
L -63 -1063 
L 3263 -1063 
z
" transform="scale(0.015625)"/>
       <path id="DejaVuSans-75" d="M 544 1381 
L 544 3500 
L 1119 3500 
L 1119 1403 
Q 1119 906 1312 657 
Q 1506 409 1894 409 
Q 2359 409 2629 706 
Q 2900 1003 2900 1516 
L 2900 3500 
L 3475 3500 
L 3475 0 
L 2900 0 
L 2900 538 
Q 2691 219 2414 64 
Q 2138 -91 1772 -91 
Q 1169 -91 856 284 
Q 544 659 544 1381 
z
M 1991 3584 
L 1991 3584 
z
" transform="scale(0.015625)"/>
      </defs>
      <use xlink:href="#DejaVuSans-6d"/>
      <use xlink:href="#DejaVuSans-63" x="97.412109"/>
      <use xlink:href="#DejaVuSans-5f" x="152.392578"/>
      <use xlink:href="#DejaVuSans-48" x="202.392578"/>
      <use xlink:href="#DejaVuSans-75" x="277.587891"/>
      <use xlink:href="#DejaVuSans-6d" x="340.966797"/>
      <use xlink:href="#DejaVuSans-69" x="438.378906"/>
      <use xlink:href="#DejaVuSans-64" x="466.162109"/>
      <use xlink:href="#DejaVuSans-69" x="529.638672"/>
      <use xlink:href="#DejaVuSans-74" x="557.421875"/>
      <use xlink:href="#DejaVuSans-79" x="596.630859"/>
      <use xlink:href="#DejaVuSans-5f" x="655.810547"/>
      <use xlink:href="#DejaVuSans-6d" x="705.810547"/>
      <use xlink:href="#DejaVuSans-65" x="803.222656"/>
      <use xlink:href="#DejaVuSans-61" x="864.746094"/>
      <use xlink:href="#DejaVuSans-6e" x="926.025391"/>
     </g>
    </g>
   </g>
   <g id="matplotlib.axis_2">
    <g id="ytick_1">
     <g id="line2d_7">
      <path d="M 41.682344 227.903992 
L 147.861167 227.903992 
" clip-path="url(#p98ba388b77)" style="fill: none; stroke-dasharray: 2.59,1.12; stroke-dashoffset: 0; stroke: #b0b0b0; stroke-opacity: 0.18; stroke-width: 0.7"/>
     </g>
     <g id="line2d_8">
      <defs>
       <path id="m44413b8eb1" d="M 0 0 
L -3 0 
" style="stroke: #000000; stroke-width: 0.8"/>
      </defs>
      <g>
       <use xlink:href="#m44413b8eb1" x="41.682344" y="227.903992" style="stroke: #000000; stroke-width: 0.8"/>
      </g>
     </g>
     <g id="text_7">
      <!-- −6 -->
      <g transform="translate(18.965938 232.083132) scale(0.11 -0.11)">
       <defs>
        <path id="DejaVuSans-2212" d="M 678 2272 
L 4684 2272 
L 4684 1741 
L 678 1741 
L 678 2272 
z
" transform="scale(0.015625)"/>
       </defs>
       <use xlink:href="#DejaVuSans-2212"/>
       <use xlink:href="#DejaVuSans-36" x="83.789062"/>
      </g>
     </g>
    </g>
    <g id="ytick_2">
     <g id="line2d_9">
      <path d="M 41.682344 198.875948 
L 147.861167 198.875948 
" clip-path="url(#p98ba388b77)" style="fill: none; stroke-dasharray: 2.59,1.12; stroke-dashoffset: 0; stroke: #b0b0b0; stroke-opacity: 0.18; stroke-width: 0.7"/>
     </g>
     <g id="line2d_10">
      <g>
       <use xlink:href="#m44413b8eb1" x="41.682344" y="198.875948" style="stroke: #000000; stroke-width: 0.8"/>
      </g>
     </g>
     <g id="text_8">
      <!-- −5 -->
      <g transform="translate(18.965938 203.055088) scale(0.11 -0.11)">
       <use xlink:href="#DejaVuSans-2212"/>
       <use xlink:href="#DejaVuSans-35" x="83.789062"/>
      </g>
     </g>
    </g>
    <g id="ytick_3">
     <g id="line2d_11">
      <path d="M 41.682344 169.847904 
L 147.861167 169.847904 
" clip-path="url(#p98ba388b77)" style="fill: none; stroke-dasharray: 2.59,1.12; stroke-dashoffset: 0; stroke: #b0b0b0; stroke-opacity: 0.18; stroke-width: 0.7"/>
     </g>
     <g id="line2d_12">
      <g>
       <use xlink:href="#m44413b8eb1" x="41.682344" y="169.847904" style="stroke: #000000; stroke-width: 0.8"/>
      </g>
     </g>
     <g id="text_9">
      <!-- −4 -->
      <g transform="translate(18.965938 174.027044) scale(0.11 -0.11)">
       <use xlink:href="#DejaVuSans-2212"/>
       <use xlink:href="#DejaVuSans-34" x="83.789062"/>
      </g>
     </g>
    </g>
    <g id="ytick_4">
     <g id="line2d_13">
      <path d="M 41.682344 140.81986 
L 147.861167 140.81986 
" clip-path="url(#p98ba388b77)" style="fill: none; stroke-dasharray: 2.59,1.12; stroke-dashoffset: 0; stroke: #b0b0b0; stroke-opacity: 0.18; stroke-width: 0.7"/>
     </g>
     <g id="line2d_14">
      <g>
       <use xlink:href="#m44413b8eb1" x="41.682344" y="140.81986" style="stroke: #000000; stroke-width: 0.8"/>
      </g>
     </g>
     <g id="text_10">
      <!-- −3 -->
      <g transform="translate(18.965938 144.999) scale(0.11 -0.11)">
       <use xlink:href="#DejaVuSans-2212"/>
       <use xlink:href="#DejaVuSans-33" x="83.789062"/>
      </g>
     </g>
    </g>
    <g id="ytick_5">
     <g id="line2d_15">
      <path d="M 41.682344 111.791816 
L 147.861167 111.791816 
" clip-path="url(#p98ba388b77)" style="fill: none; stroke-dasharray: 2.59,1.12; stroke-dashoffset: 0; stroke: #b0b0b0; stroke-opacity: 0.18; stroke-width: 0.7"/>
     </g>
     <g id="line2d_16">
      <g>
       <use xlink:href="#m44413b8eb1" x="41.682344" y="111.791816" style="stroke: #000000; stroke-width: 0.8"/>
      </g>
     </g>
     <g id="text_11">
      <!-- −2 -->
      <g transform="translate(18.965938 115.970956) scale(0.11 -0.11)">
       <use xlink:href="#DejaVuSans-2212"/>
       <use xlink:href="#DejaVuSans-32" x="83.789062"/>
      </g>
     </g>
    </g>
    <g id="ytick_6">
     <g id="line2d_17">
      <path d="M 41.682344 82.763772 
L 147.861167 82.763772 
" clip-path="url(#p98ba388b77)" style="fill: none; stroke-dasharray: 2.59,1.12; stroke-dashoffset: 0; stroke: #b0b0b0; stroke-opacity: 0.18; stroke-width: 0.7"/>
     </g>
     <g id="line2d_18">
      <g>
       <use xlink:href="#m44413b8eb1" x="41.682344" y="82.763772" style="stroke: #000000; stroke-width: 0.8"/>
      </g>
     </g>
     <g id="text_12">
      <!-- −1 -->
      <g transform="translate(18.965938 86.942912) scale(0.11 -0.11)">
       <use xlink:href="#DejaVuSans-2212"/>
       <use xlink:href="#DejaVuSans-31" x="83.789062"/>
      </g>
     </g>
    </g>
    <g id="ytick_7">
     <g id="line2d_19">
      <path d="M 41.682344 53.735728 
L 147.861167 53.735728 
" clip-path="url(#p98ba388b77)" style="fill: none; stroke-dasharray: 2.59,1.12; stroke-dashoffset: 0; stroke: #b0b0b0; stroke-opacity: 0.18; stroke-width: 0.7"/>
     </g>
     <g id="line2d_20">
      <g>
       <use xlink:href="#m44413b8eb1" x="41.682344" y="53.735728" style="stroke: #000000; stroke-width: 0.8"/>
      </g>
     </g>
     <g id="text_13">
      <!-- 0 -->
      <g transform="translate(28.183594 57.914868) scale(0.11 -0.11)">
       <use xlink:href="#DejaVuSans-30"/>
      </g>
     </g>
    </g>
    <g id="ytick_8">
     <g id="line2d_21">
      <path d="M 41.682344 24.707684 
L 147.861167 24.707684 
" clip-path="url(#p98ba388b77)" style="fill: none; stroke-dasharray: 2.59,1.12; stroke-dashoffset: 0; stroke: #b0b0b0; stroke-opacity: 0.18; stroke-width: 0.7"/>
     </g>
     <g id="line2d_22">
      <g>
       <use xlink:href="#m44413b8eb1" x="41.682344" y="24.707684" style="stroke: #000000; stroke-width: 0.8"/>
      </g>
     </g>
     <g id="text_14">
      <!-- 1 -->
      <g transform="translate(28.183594 28.886824) scale(0.11 -0.11)">
       <use xlink:href="#DejaVuSans-31"/>
      </g>
     </g>
    </g>
    <g id="text_15">
     <!-- Partial dependence -->
     <g transform="translate(12.678281 189.660016) rotate(-90) scale(0.11 -0.11)">
      <use xlink:href="#DejaVuSans-50"/>
      <use xlink:href="#DejaVuSans-61" x="55.802734"/>
      <use xlink:href="#DejaVuSans-72" x="117.082031"/>
      <use xlink:href="#DejaVuSans-74" x="158.195312"/>
      <use xlink:href="#DejaVuSans-69" x="197.404297"/>
      <use xlink:href="#DejaVuSans-61" x="225.1875"/>
      <use xlink:href="#DejaVuSans-6c" x="286.466797"/>
      <use xlink:href="#DejaVuSans-20" x="314.25"/>
      <use xlink:href="#DejaVuSans-64" x="346.037109"/>
      <use xlink:href="#DejaVuSans-65" x="409.513672"/>
      <use xlink:href="#DejaVuSans-70" x="471.037109"/>
      <use xlink:href="#DejaVuSans-65" x="534.513672"/>
      <use xlink:href="#DejaVuSans-6e" x="596.037109"/>
      <use xlink:href="#DejaVuSans-64" x="659.416016"/>
      <use xlink:href="#DejaVuSans-65" x="722.892578"/>
      <use xlink:href="#DejaVuSans-6e" x="784.416016"/>
      <use xlink:href="#DejaVuSans-63" x="847.794922"/>
      <use xlink:href="#DejaVuSans-65" x="902.775391"/>
     </g>
    </g>
   </g>
   <g id="line2d_23">
    <path d="M 46.508654 145.518932 
L 47.483666 145.518932 
L 48.458678 145.518932 
L 49.43369 145.518932 
L 50.408703 145.518932 
L 51.383715 145.518932 
L 52.358727 145.518932 
L 53.333739 145.518932 
L 54.308751 145.518932 
L 55.283763 145.518932 
L 56.258775 145.518932 
L 57.233788 145.518932 
L 58.2088 170.405481 
L 59.183812 170.405481 
L 60.158824 170.405481 
L 61.133836 191.43737 
L 62.108848 191.43737 
L 63.083861 131.054122 
L 64.058873 131.054122 
L 65.033885 131.054122 
L 66.008897 136.16456 
L 66.983909 136.16456 
L 67.958921 136.16456 
L 68.933933 86.299519 
L 69.908946 86.299519 
L 70.883958 87.199511 
L 71.85897 108.888957 
L 72.833982 119.023894 
L 73.808994 97.286622 
L 74.784006 97.286622 
L 75.759019 98.589545 
L 76.734031 54.880875 
L 77.709043 54.880875 
L 78.684055 58.557666 
L 79.659067 39.6256 
L 80.634079 90.103825 
L 81.609091 91.839801 
L 82.584104 91.74569 
L 83.559116 76.627245 
L 84.534128 76.627245 
L 85.50914 72.753995 
L 86.484152 75.723827 
L 87.459164 77.61068 
L 88.434177 77.816287 
L 89.409189 79.182151 
L 90.384201 98.186301 
L 91.359213 91.251602 
L 92.334225 89.838642 
L 93.309237 87.129869 
L 94.284249 91.894331 
L 95.259262 93.738239 
L 96.234274 94.559015 
L 97.209286 94.559015 
L 98.184298 94.146698 
L 99.15931 92.766867 
L 100.134322 91.681974 
L 101.109335 91.681974 
L 102.084347 91.216014 
L 103.059359 91.216014 
L 104.034371 92.136604 
L 105.009383 92.096069 
L 105.984395 92.096069 
L 106.959407 119.826592 
L 107.93442 119.514528 
L 108.909432 119.870042 
L 109.884444 135.727793 
L 110.859456 152.664162 
L 111.834468 152.748779 
L 112.80948 156.755424 
L 113.784493 149.088405 
L 114.759505 146.055054 
L 115.734517 185.474557 
L 116.709529 185.740644 
L 117.684541 185.979256 
L 118.659553 189.588116 
L 119.634565 183.209222 
L 120.609578 187.445356 
L 121.58459 189.478541 
L 122.559602 189.478541 
L 123.534614 187.495904 
L 124.509626 188.2444 
L 125.484638 187.720741 
L 126.459651 186.600789 
L 127.434663 186.600789 
L 128.409675 190.250276 
L 129.384687 186.939443 
L 130.359699 186.939443 
L 131.334711 188.454297 
L 132.309723 188.241448 
L 133.284736 188.241448 
L 134.259748 188.294231 
L 135.23476 188.376118 
L 136.209772 188.376118 
L 137.184784 188.376118 
L 138.159796 189.382224 
L 139.134809 189.342044 
L 140.109821 189.342044 
L 141.084833 189.58831 
L 142.059845 202.201534 
L 143.034857 202.201534 
" clip-path="url(#p98ba388b77)" style="fill: none; stroke: #f6cfaf; stroke-width: 2; stroke-linecap: square"/>
   </g>
   <g id="LineCollection_1">
    <path d="M 55.010423 253.045969 
L 55.010423 241.403569 
" clip-path="url(#p98ba388b77)" style="fill: none; stroke: #000000; stroke-width: 2"/>
    <path d="M 69.319534 253.045969 
L 69.319534 241.403569 
" clip-path="url(#p98ba388b77)" style="fill: none; stroke: #000000; stroke-width: 2"/>
    <path d="M 80.456717 253.045969 
L 80.456717 241.403569 
" clip-path="url(#p98ba388b77)" style="fill: none; stroke: #000000; stroke-width: 2"/>
    <path d="M 90.023526 253.045969 
L 90.023526 241.403569 
" clip-path="url(#p98ba388b77)" style="fill: none; stroke: #000000; stroke-width: 2"/>
    <path d="M 98.251454 253.045969 
L 98.251454 241.403569 
" clip-path="url(#p98ba388b77)" style="fill: none; stroke: #000000; stroke-width: 2"/>
    <path d="M 105.695312 253.045969 
L 105.695312 241.403569 
" clip-path="url(#p98ba388b77)" style="fill: none; stroke: #000000; stroke-width: 2"/>
    <path d="M 114.786679 253.045969 
L 114.786679 241.403569 
" clip-path="url(#p98ba388b77)" style="fill: none; stroke: #000000; stroke-width: 2"/>
    <path d="M 124.2182 253.045969 
L 124.2182 241.403569 
" clip-path="url(#p98ba388b77)" style="fill: none; stroke: #000000; stroke-width: 2"/>
    <path d="M 136.254126 253.045969 
L 136.254126 241.403569 
" clip-path="url(#p98ba388b77)" style="fill: none; stroke: #000000; stroke-width: 2"/>
   </g>
   <g id="patch_4">
    <path d="M 41.682344 253.045969 
L 41.682344 20.197969 
" style="fill: none; stroke: #000000; stroke-width: 0.9; stroke-linejoin: miter; stroke-linecap: square"/>
   </g>
   <g id="patch_5">
    <path d="M 41.682344 253.045969 
L 147.861167 253.045969 
" style="fill: none; stroke: #000000; stroke-width: 0.9; stroke-linejoin: miter; stroke-linecap: square"/>
   </g>
  </g>
  <g id="axes_3">
   <g id="patch_6">
    <path d="M 169.096932 253.045969 
L 275.275756 253.045969 
L 275.275756 20.197969 
L 169.096932 20.197969 
z
" style="fill: #ffffff"/>
   </g>
   <g id="matplotlib.axis_3">
    <g id="xtick_4">
     <g id="line2d_24">
      <path d="M 194.607429 253.045969 
L 194.607429 20.197969 
" clip-path="url(#pe3d8ca28f0)" style="fill: none; stroke-dasharray: 2.59,1.12; stroke-dashoffset: 0; stroke: #b0b0b0; stroke-opacity: 0.18; stroke-width: 0.7"/>
     </g>
     <g id="line2d_25">
      <g>
       <use xlink:href="#m787c154d8c" x="194.607429" y="253.045969" style="stroke: #000000; stroke-width: 0.8"/>
      </g>
     </g>
     <g id="text_16">
      <!-- 10 -->
      <g transform="translate(187.608679 267.90425) scale(0.11 -0.11)">
       <use xlink:href="#DejaVuSans-31"/>
       <use xlink:href="#DejaVuSans-30" x="63.623047"/>
      </g>
     </g>
    </g>
    <g id="xtick_5">
     <g id="line2d_26">
      <path d="M 263.554717 253.045969 
L 263.554717 20.197969 
" clip-path="url(#pe3d8ca28f0)" style="fill: none; stroke-dasharray: 2.59,1.12; stroke-dashoffset: 0; stroke: #b0b0b0; stroke-opacity: 0.18; stroke-width: 0.7"/>
     </g>
     <g id="line2d_27">
      <g>
       <use xlink:href="#m787c154d8c" x="263.554717" y="253.045969" style="stroke: #000000; stroke-width: 0.8"/>
      </g>
     </g>
     <g id="text_17">
      <!-- 20 -->
      <g transform="translate(256.555967 267.90425) scale(0.11 -0.11)">
       <use xlink:href="#DejaVuSans-32"/>
       <use xlink:href="#DejaVuSans-30" x="63.623047"/>
      </g>
     </g>
    </g>
    <g id="text_18">
     <!-- mc_Temperature_mean -->
     <g transform="translate(157.870719 282.24425) scale(0.11 -0.11)">
      <use xlink:href="#DejaVuSans-6d"/>
      <use xlink:href="#DejaVuSans-63" x="97.412109"/>
      <use xlink:href="#DejaVuSans-5f" x="152.392578"/>
      <use xlink:href="#DejaVuSans-54" x="202.392578"/>
      <use xlink:href="#DejaVuSans-65" x="246.476562"/>
      <use xlink:href="#DejaVuSans-6d" x="308"/>
      <use xlink:href="#DejaVuSans-70" x="405.412109"/>
      <use xlink:href="#DejaVuSans-65" x="468.888672"/>
      <use xlink:href="#DejaVuSans-72" x="530.412109"/>
      <use xlink:href="#DejaVuSans-61" x="571.525391"/>
      <use xlink:href="#DejaVuSans-74" x="632.804688"/>
      <use xlink:href="#DejaVuSans-75" x="672.013672"/>
      <use xlink:href="#DejaVuSans-72" x="735.392578"/>
      <use xlink:href="#DejaVuSans-65" x="774.255859"/>
      <use xlink:href="#DejaVuSans-5f" x="835.779297"/>
      <use xlink:href="#DejaVuSans-6d" x="885.779297"/>
      <use xlink:href="#DejaVuSans-65" x="983.191406"/>
      <use xlink:href="#DejaVuSans-61" x="1044.714844"/>
      <use xlink:href="#DejaVuSans-6e" x="1105.994141"/>
     </g>
    </g>
   </g>
   <g id="matplotlib.axis_4">
    <g id="ytick_9">
     <g id="line2d_28">
      <path d="M 169.096932 227.903992 
L 275.275756 227.903992 
" clip-path="url(#pe3d8ca28f0)" style="fill: none; stroke-dasharray: 2.59,1.12; stroke-dashoffset: 0; stroke: #b0b0b0; stroke-opacity: 0.18; stroke-width: 0.7"/>
     </g>
     <g id="line2d_29">
      <g>
       <use xlink:href="#m44413b8eb1" x="169.096932" y="227.903992" style="stroke: #000000; stroke-width: 0.8"/>
      </g>
     </g>
    </g>
    <g id="ytick_10">
     <g id="line2d_30">
      <path d="M 169.096932 198.875948 
L 275.275756 198.875948 
" clip-path="url(#pe3d8ca28f0)" style="fill: none; stroke-dasharray: 2.59,1.12; stroke-dashoffset: 0; stroke: #b0b0b0; stroke-opacity: 0.18; stroke-width: 0.7"/>
     </g>
     <g id="line2d_31">
      <g>
       <use xlink:href="#m44413b8eb1" x="169.096932" y="198.875948" style="stroke: #000000; stroke-width: 0.8"/>
      </g>
     </g>
    </g>
    <g id="ytick_11">
     <g id="line2d_32">
      <path d="M 169.096932 169.847904 
L 275.275756 169.847904 
" clip-path="url(#pe3d8ca28f0)" style="fill: none; stroke-dasharray: 2.59,1.12; stroke-dashoffset: 0; stroke: #b0b0b0; stroke-opacity: 0.18; stroke-width: 0.7"/>
     </g>
     <g id="line2d_33">
      <g>
       <use xlink:href="#m44413b8eb1" x="169.096932" y="169.847904" style="stroke: #000000; stroke-width: 0.8"/>
      </g>
     </g>
    </g>
    <g id="ytick_12">
     <g id="line2d_34">
      <path d="M 169.096932 140.81986 
L 275.275756 140.81986 
" clip-path="url(#pe3d8ca28f0)" style="fill: none; stroke-dasharray: 2.59,1.12; stroke-dashoffset: 0; stroke: #b0b0b0; stroke-opacity: 0.18; stroke-width: 0.7"/>
     </g>
     <g id="line2d_35">
      <g>
       <use xlink:href="#m44413b8eb1" x="169.096932" y="140.81986" style="stroke: #000000; stroke-width: 0.8"/>
      </g>
     </g>
    </g>
    <g id="ytick_13">
     <g id="line2d_36">
      <path d="M 169.096932 111.791816 
L 275.275756 111.791816 
" clip-path="url(#pe3d8ca28f0)" style="fill: none; stroke-dasharray: 2.59,1.12; stroke-dashoffset: 0; stroke: #b0b0b0; stroke-opacity: 0.18; stroke-width: 0.7"/>
     </g>
     <g id="line2d_37">
      <g>
       <use xlink:href="#m44413b8eb1" x="169.096932" y="111.791816" style="stroke: #000000; stroke-width: 0.8"/>
      </g>
     </g>
    </g>
    <g id="ytick_14">
     <g id="line2d_38">
      <path d="M 169.096932 82.763772 
L 275.275756 82.763772 
" clip-path="url(#pe3d8ca28f0)" style="fill: none; stroke-dasharray: 2.59,1.12; stroke-dashoffset: 0; stroke: #b0b0b0; stroke-opacity: 0.18; stroke-width: 0.7"/>
     </g>
     <g id="line2d_39">
      <g>
       <use xlink:href="#m44413b8eb1" x="169.096932" y="82.763772" style="stroke: #000000; stroke-width: 0.8"/>
      </g>
     </g>
    </g>
    <g id="ytick_15">
     <g id="line2d_40">
      <path d="M 169.096932 53.735728 
L 275.275756 53.735728 
" clip-path="url(#pe3d8ca28f0)" style="fill: none; stroke-dasharray: 2.59,1.12; stroke-dashoffset: 0; stroke: #b0b0b0; stroke-opacity: 0.18; stroke-width: 0.7"/>
     </g>
     <g id="line2d_41">
      <g>
       <use xlink:href="#m44413b8eb1" x="169.096932" y="53.735728" style="stroke: #000000; stroke-width: 0.8"/>
      </g>
     </g>
    </g>
    <g id="ytick_16">
     <g id="line2d_42">
      <path d="M 169.096932 24.707684 
L 275.275756 24.707684 
" clip-path="url(#pe3d8ca28f0)" style="fill: none; stroke-dasharray: 2.59,1.12; stroke-dashoffset: 0; stroke: #b0b0b0; stroke-opacity: 0.18; stroke-width: 0.7"/>
     </g>
     <g id="line2d_43">
      <g>
       <use xlink:href="#m44413b8eb1" x="169.096932" y="24.707684" style="stroke: #000000; stroke-width: 0.8"/>
      </g>
     </g>
    </g>
   </g>
   <g id="line2d_44">
    <path d="M 173.923242 242.461969 
L 174.898254 241.248021 
L 175.873266 241.409916 
L 176.848279 241.579356 
L 177.823291 241.669647 
L 178.798303 241.669647 
L 179.773315 238.2656 
L 180.748327 237.278886 
L 181.723339 231.267912 
L 182.698352 227.710014 
L 183.673364 226.710789 
L 184.648376 226.710789 
L 185.623388 226.138456 
L 186.5984 226.138456 
L 187.573412 220.092529 
L 188.548424 223.761759 
L 189.523437 224.424572 
L 190.498449 224.424572 
L 191.473461 223.456373 
L 192.448473 224.928388 
L 193.423485 228.610812 
L 194.398497 219.421394 
L 195.37351 175.122762 
L 196.348522 175.122762 
L 197.323534 175.122762 
L 198.298546 175.122762 
L 199.273558 174.990534 
L 200.24857 174.990534 
L 201.223582 144.545705 
L 202.198595 148.262457 
L 203.173607 148.262457 
L 204.148619 147.623756 
L 205.123631 147.623756 
L 206.098643 147.847163 
L 207.073655 147.847163 
L 208.048668 147.847163 
L 209.02368 147.847163 
L 209.998692 195.239341 
L 210.973704 190.675837 
L 211.948716 190.675837 
L 212.923728 190.675837 
L 213.89874 185.892251 
L 214.873753 170.278324 
L 215.848765 170.278324 
L 216.823777 170.278324 
L 217.798789 170.278324 
L 218.773801 199.968844 
L 219.748813 199.968844 
L 220.723826 199.968844 
L 221.698838 218.74925 
L 222.67385 218.74925 
L 223.648862 206.504822 
L 224.623874 206.504822 
L 225.598886 207.721497 
L 226.573898 169.437492 
L 227.548911 152.771861 
L 228.523923 57.125684 
L 229.498935 57.125684 
L 230.473947 57.125684 
L 231.448959 53.101952 
L 232.423971 53.101952 
L 233.398984 53.101952 
L 234.373996 57.463753 
L 235.349008 72.879467 
L 236.32402 72.879467 
L 237.299032 72.879467 
L 238.274044 58.750967 
L 239.249056 58.750967 
L 240.224069 35.772526 
L 241.199081 35.772526 
L 242.174093 30.781969 
L 243.149105 30.781969 
L 244.124117 30.781969 
L 245.099129 30.781969 
L 246.074142 30.781969 
L 247.049154 64.52464 
L 248.024166 75.712545 
L 248.999178 75.712545 
L 249.97419 75.712545 
L 250.949202 75.712545 
L 251.924214 75.712545 
L 252.899227 75.712545 
L 253.874239 75.712545 
L 254.849251 75.712545 
L 255.824263 75.712545 
L 256.799275 75.712545 
L 257.774287 75.712545 
L 258.7493 75.712545 
L 259.724312 75.712545 
L 260.699324 75.712545 
L 261.674336 75.712545 
L 262.649348 75.712545 
L 263.62436 75.712545 
L 264.599372 75.712545 
L 265.574385 75.712545 
L 266.549397 75.712545 
L 267.524409 75.712545 
L 268.499421 75.712545 
L 269.474433 75.712545 
L 270.449445 75.712545 
" clip-path="url(#pe3d8ca28f0)" style="fill: none; stroke: #f6cfaf; stroke-width: 2; stroke-linecap: square"/>
   </g>
   <g id="LineCollection_2">
    <path d="M 180.817971 253.045969 
L 180.817971 241.403569 
" clip-path="url(#pe3d8ca28f0)" style="fill: none; stroke: #000000; stroke-width: 2"/>
    <path d="M 187.7127 253.045969 
L 187.7127 241.403569 
" clip-path="url(#pe3d8ca28f0)" style="fill: none; stroke: #000000; stroke-width: 2"/>
    <path d="M 194.607429 253.045969 
L 194.607429 241.403569 
" clip-path="url(#pe3d8ca28f0)" style="fill: none; stroke: #000000; stroke-width: 2"/>
    <path d="M 208.396886 253.045969 
L 208.396886 241.403569 
" clip-path="url(#pe3d8ca28f0)" style="fill: none; stroke: #000000; stroke-width: 2"/>
    <path d="M 215.291615 253.045969 
L 215.291615 241.403569 
" clip-path="url(#pe3d8ca28f0)" style="fill: none; stroke: #000000; stroke-width: 2"/>
    <path d="M 222.186344 253.045969 
L 222.186344 241.403569 
" clip-path="url(#pe3d8ca28f0)" style="fill: none; stroke: #000000; stroke-width: 2"/>
    <path d="M 235.349008 253.045969 
L 235.349008 241.403569 
" clip-path="url(#pe3d8ca28f0)" style="fill: none; stroke: #000000; stroke-width: 2"/>
    <path d="M 242.87053 253.045969 
L 242.87053 241.403569 
" clip-path="url(#pe3d8ca28f0)" style="fill: none; stroke: #000000; stroke-width: 2"/>
    <path d="M 256.659988 253.045969 
L 256.659988 241.403569 
" clip-path="url(#pe3d8ca28f0)" style="fill: none; stroke: #000000; stroke-width: 2"/>
   </g>
   <g id="patch_7">
    <path d="M 169.096932 253.045969 
L 169.096932 20.197969 
" style="fill: none; stroke: #000000; stroke-width: 0.9; stroke-linejoin: miter; stroke-linecap: square"/>
   </g>
   <g id="patch_8">
    <path d="M 169.096932 253.045969 
L 275.275756 253.045969 
" style="fill: none; stroke: #000000; stroke-width: 0.9; stroke-linejoin: miter; stroke-linecap: square"/>
   </g>
  </g>
  <g id="axes_4">
   <g id="patch_9">
    <path d="M 296.51152 253.045969 
L 402.690344 253.045969 
L 402.690344 20.197969 
L 296.51152 20.197969 
z
" style="fill: #ffffff"/>
   </g>
   <g id="matplotlib.axis_5">
    <g id="xtick_6">
     <g id="line2d_45">
      <path d="M 319.184211 253.045969 
L 319.184211 20.197969 
" clip-path="url(#pa8ceb64b8d)" style="fill: none; stroke-dasharray: 2.59,1.12; stroke-dashoffset: 0; stroke: #b0b0b0; stroke-opacity: 0.18; stroke-width: 0.7"/>
     </g>
     <g id="line2d_46">
      <g>
       <use xlink:href="#m787c154d8c" x="319.184211" y="253.045969" style="stroke: #000000; stroke-width: 0.8"/>
      </g>
     </g>
     <g id="text_19">
      <!-- 0.5 -->
      <g transform="translate(310.437492 267.90425) scale(0.11 -0.11)">
       <use xlink:href="#DejaVuSans-30"/>
       <use xlink:href="#DejaVuSans-2e" x="63.623047"/>
       <use xlink:href="#DejaVuSans-35" x="95.410156"/>
      </g>
     </g>
    </g>
    <g id="xtick_7">
     <g id="line2d_47">
      <path d="M 354.876971 253.045969 
L 354.876971 20.197969 
" clip-path="url(#pa8ceb64b8d)" style="fill: none; stroke-dasharray: 2.59,1.12; stroke-dashoffset: 0; stroke: #b0b0b0; stroke-opacity: 0.18; stroke-width: 0.7"/>
     </g>
     <g id="line2d_48">
      <g>
       <use xlink:href="#m787c154d8c" x="354.876971" y="253.045969" style="stroke: #000000; stroke-width: 0.8"/>
      </g>
     </g>
     <g id="text_20">
      <!-- 1.0 -->
      <g transform="translate(346.130252 267.90425) scale(0.11 -0.11)">
       <use xlink:href="#DejaVuSans-31"/>
       <use xlink:href="#DejaVuSans-2e" x="63.623047"/>
       <use xlink:href="#DejaVuSans-30" x="95.410156"/>
      </g>
     </g>
    </g>
    <g id="xtick_8">
     <g id="line2d_49">
      <path d="M 390.569731 253.045969 
L 390.569731 20.197969 
" clip-path="url(#pa8ceb64b8d)" style="fill: none; stroke-dasharray: 2.59,1.12; stroke-dashoffset: 0; stroke: #b0b0b0; stroke-opacity: 0.18; stroke-width: 0.7"/>
     </g>
     <g id="line2d_50">
      <g>
       <use xlink:href="#m787c154d8c" x="390.569731" y="253.045969" style="stroke: #000000; stroke-width: 0.8"/>
      </g>
     </g>
     <g id="text_21">
      <!-- 1.5 -->
      <g transform="translate(381.823013 267.90425) scale(0.11 -0.11)">
       <use xlink:href="#DejaVuSans-31"/>
       <use xlink:href="#DejaVuSans-2e" x="63.623047"/>
       <use xlink:href="#DejaVuSans-35" x="95.410156"/>
      </g>
     </g>
    </g>
    <g id="text_22">
     <!-- mc_WindSpeed_mean -->
     <g transform="translate(289.058823 282.550187) scale(0.11 -0.11)">
      <defs>
       <path id="DejaVuSans-57" d="M 213 4666 
L 850 4666 
L 1831 722 
L 2809 4666 
L 3519 4666 
L 4500 722 
L 5478 4666 
L 6119 4666 
L 4947 0 
L 4153 0 
L 3169 4050 
L 2175 0 
L 1381 0 
L 213 4666 
z
" transform="scale(0.015625)"/>
      </defs>
      <use xlink:href="#DejaVuSans-6d"/>
      <use xlink:href="#DejaVuSans-63" x="97.412109"/>
      <use xlink:href="#DejaVuSans-5f" x="152.392578"/>
      <use xlink:href="#DejaVuSans-57" x="202.392578"/>
      <use xlink:href="#DejaVuSans-69" x="299.019531"/>
      <use xlink:href="#DejaVuSans-6e" x="326.802734"/>
      <use xlink:href="#DejaVuSans-64" x="390.181641"/>
      <use xlink:href="#DejaVuSans-53" x="453.658203"/>
      <use xlink:href="#DejaVuSans-70" x="517.134766"/>
      <use xlink:href="#DejaVuSans-65" x="580.611328"/>
      <use xlink:href="#DejaVuSans-65" x="642.134766"/>
      <use xlink:href="#DejaVuSans-64" x="703.658203"/>
      <use xlink:href="#DejaVuSans-5f" x="767.134766"/>
      <use xlink:href="#DejaVuSans-6d" x="817.134766"/>
      <use xlink:href="#DejaVuSans-65" x="914.546875"/>
      <use xlink:href="#DejaVuSans-61" x="976.070312"/>
      <use xlink:href="#DejaVuSans-6e" x="1037.349609"/>
     </g>
    </g>
   </g>
   <g id="matplotlib.axis_6">
    <g id="ytick_17">
     <g id="line2d_51">
      <path d="M 296.51152 227.903992 
L 402.690344 227.903992 
" clip-path="url(#pa8ceb64b8d)" style="fill: none; stroke-dasharray: 2.59,1.12; stroke-dashoffset: 0; stroke: #b0b0b0; stroke-opacity: 0.18; stroke-width: 0.7"/>
     </g>
     <g id="line2d_52">
      <g>
       <use xlink:href="#m44413b8eb1" x="296.51152" y="227.903992" style="stroke: #000000; stroke-width: 0.8"/>
      </g>
     </g>
    </g>
    <g id="ytick_18">
     <g id="line2d_53">
      <path d="M 296.51152 198.875948 
L 402.690344 198.875948 
" clip-path="url(#pa8ceb64b8d)" style="fill: none; stroke-dasharray: 2.59,1.12; stroke-dashoffset: 0; stroke: #b0b0b0; stroke-opacity: 0.18; stroke-width: 0.7"/>
     </g>
     <g id="line2d_54">
      <g>
       <use xlink:href="#m44413b8eb1" x="296.51152" y="198.875948" style="stroke: #000000; stroke-width: 0.8"/>
      </g>
     </g>
    </g>
    <g id="ytick_19">
     <g id="line2d_55">
      <path d="M 296.51152 169.847904 
L 402.690344 169.847904 
" clip-path="url(#pa8ceb64b8d)" style="fill: none; stroke-dasharray: 2.59,1.12; stroke-dashoffset: 0; stroke: #b0b0b0; stroke-opacity: 0.18; stroke-width: 0.7"/>
     </g>
     <g id="line2d_56">
      <g>
       <use xlink:href="#m44413b8eb1" x="296.51152" y="169.847904" style="stroke: #000000; stroke-width: 0.8"/>
      </g>
     </g>
    </g>
    <g id="ytick_20">
     <g id="line2d_57">
      <path d="M 296.51152 140.81986 
L 402.690344 140.81986 
" clip-path="url(#pa8ceb64b8d)" style="fill: none; stroke-dasharray: 2.59,1.12; stroke-dashoffset: 0; stroke: #b0b0b0; stroke-opacity: 0.18; stroke-width: 0.7"/>
     </g>
     <g id="line2d_58">
      <g>
       <use xlink:href="#m44413b8eb1" x="296.51152" y="140.81986" style="stroke: #000000; stroke-width: 0.8"/>
      </g>
     </g>
    </g>
    <g id="ytick_21">
     <g id="line2d_59">
      <path d="M 296.51152 111.791816 
L 402.690344 111.791816 
" clip-path="url(#pa8ceb64b8d)" style="fill: none; stroke-dasharray: 2.59,1.12; stroke-dashoffset: 0; stroke: #b0b0b0; stroke-opacity: 0.18; stroke-width: 0.7"/>
     </g>
     <g id="line2d_60">
      <g>
       <use xlink:href="#m44413b8eb1" x="296.51152" y="111.791816" style="stroke: #000000; stroke-width: 0.8"/>
      </g>
     </g>
    </g>
    <g id="ytick_22">
     <g id="line2d_61">
      <path d="M 296.51152 82.763772 
L 402.690344 82.763772 
" clip-path="url(#pa8ceb64b8d)" style="fill: none; stroke-dasharray: 2.59,1.12; stroke-dashoffset: 0; stroke: #b0b0b0; stroke-opacity: 0.18; stroke-width: 0.7"/>
     </g>
     <g id="line2d_62">
      <g>
       <use xlink:href="#m44413b8eb1" x="296.51152" y="82.763772" style="stroke: #000000; stroke-width: 0.8"/>
      </g>
     </g>
    </g>
    <g id="ytick_23">
     <g id="line2d_63">
      <path d="M 296.51152 53.735728 
L 402.690344 53.735728 
" clip-path="url(#pa8ceb64b8d)" style="fill: none; stroke-dasharray: 2.59,1.12; stroke-dashoffset: 0; stroke: #b0b0b0; stroke-opacity: 0.18; stroke-width: 0.7"/>
     </g>
     <g id="line2d_64">
      <g>
       <use xlink:href="#m44413b8eb1" x="296.51152" y="53.735728" style="stroke: #000000; stroke-width: 0.8"/>
      </g>
     </g>
    </g>
    <g id="ytick_24">
     <g id="line2d_65">
      <path d="M 296.51152 24.707684 
L 402.690344 24.707684 
" clip-path="url(#pa8ceb64b8d)" style="fill: none; stroke-dasharray: 2.59,1.12; stroke-dashoffset: 0; stroke: #b0b0b0; stroke-opacity: 0.18; stroke-width: 0.7"/>
     </g>
     <g id="line2d_66">
      <g>
       <use xlink:href="#m44413b8eb1" x="296.51152" y="24.707684" style="stroke: #000000; stroke-width: 0.8"/>
      </g>
     </g>
    </g>
   </g>
   <g id="line2d_67">
    <path d="M 301.33783 193.324641 
L 302.312843 193.378185 
L 303.287855 193.378185 
L 304.262867 193.242139 
L 305.237879 193.801255 
L 306.212891 195.861933 
L 307.187903 195.861933 
L 308.162915 195.907938 
L 309.137928 196.282005 
L 310.11294 196.282005 
L 311.087952 196.282005 
L 312.062964 196.685064 
L 313.037976 196.685064 
L 314.012988 191.678988 
L 314.988001 191.678988 
L 315.963013 191.678988 
L 316.938025 191.678988 
L 317.913037 191.008968 
L 318.888049 189.476416 
L 319.863061 188.506652 
L 320.838073 188.750089 
L 321.813086 179.587379 
L 322.788098 179.403227 
L 323.76311 179.403227 
L 324.738122 178.809662 
L 325.713134 180.58999 
L 326.688146 165.117753 
L 327.663159 165.117753 
L 328.638171 165.117753 
L 329.613183 165.117753 
L 330.588195 146.020741 
L 331.563207 146.020741 
L 332.538219 137.557054 
L 333.513231 137.168403 
L 334.488244 137.168403 
L 335.463256 137.174886 
L 336.438268 138.288829 
L 337.41328 138.197227 
L 338.388292 138.197227 
L 339.363304 138.197227 
L 340.338317 138.167209 
L 341.313329 138.214986 
L 342.288341 138.214986 
L 343.263353 139.931975 
L 344.238365 140.100198 
L 345.213377 140.398871 
L 346.188389 137.03785 
L 347.163402 136.140159 
L 348.138414 136.140159 
L 349.113426 136.680923 
L 350.088438 137.736726 
L 351.06345 138.607619 
L 352.038462 138.607619 
L 353.013475 138.749867 
L 353.988487 138.749867 
L 354.963499 148.098422 
L 355.938511 148.098422 
L 356.913523 144.547231 
L 357.888535 144.547231 
L 358.863547 144.547231 
L 359.83856 143.979555 
L 360.813572 143.979555 
L 361.788584 143.2952 
L 362.763596 143.755263 
L 363.738608 145.264254 
L 364.71362 145.264254 
L 365.688633 145.264254 
L 366.663645 184.199628 
L 367.638657 184.188351 
L 368.613669 184.188351 
L 369.588681 98.42735 
L 370.563693 98.42735 
L 371.538705 98.42735 
L 372.513718 94.01074 
L 373.48873 94.01074 
L 374.463742 94.01074 
L 375.438754 94.01074 
L 376.413766 94.01074 
L 377.388778 94.01074 
L 378.363791 94.01074 
L 379.338803 94.01074 
L 380.313815 94.01074 
L 381.288827 81.560309 
L 382.263839 81.560309 
L 383.238851 81.560309 
L 384.213863 81.560309 
L 385.188876 82.417257 
L 386.163888 82.417257 
L 387.1389 82.417257 
L 388.113912 104.047002 
L 389.088924 104.047002 
L 390.063936 104.047002 
L 391.038949 104.047002 
L 392.013961 104.047002 
L 392.988973 104.047002 
L 393.963985 100.114863 
L 394.938997 100.114863 
L 395.914009 100.114863 
L 396.889021 100.114863 
L 397.864034 109.230407 
" clip-path="url(#pa8ceb64b8d)" style="fill: none; stroke: #f6cfaf; stroke-width: 2; stroke-linecap: square"/>
   </g>
   <g id="LineCollection_3">
    <path d="M 306.096865 253.045969 
L 306.096865 241.403569 
" clip-path="url(#pa8ceb64b8d)" style="fill: none; stroke: #000000; stroke-width: 2"/>
    <path d="M 315.563018 253.045969 
L 315.563018 241.403569 
" clip-path="url(#pa8ceb64b8d)" style="fill: none; stroke: #000000; stroke-width: 2"/>
    <path d="M 323.3776 253.045969 
L 323.3776 241.403569 
" clip-path="url(#pa8ceb64b8d)" style="fill: none; stroke: #000000; stroke-width: 2"/>
    <path d="M 330.605894 253.045969 
L 330.605894 241.403569 
" clip-path="url(#pa8ceb64b8d)" style="fill: none; stroke: #000000; stroke-width: 2"/>
    <path d="M 338.652989 253.045969 
L 338.652989 241.403569 
" clip-path="url(#pa8ceb64b8d)" style="fill: none; stroke: #000000; stroke-width: 2"/>
    <path d="M 347.738419 253.045969 
L 347.738419 241.403569 
" clip-path="url(#pa8ceb64b8d)" style="fill: none; stroke: #000000; stroke-width: 2"/>
    <path d="M 356.174889 253.045969 
L 356.174889 241.403569 
" clip-path="url(#pa8ceb64b8d)" style="fill: none; stroke: #000000; stroke-width: 2"/>
    <path d="M 368.505116 253.045969 
L 368.505116 241.403569 
" clip-path="url(#pa8ceb64b8d)" style="fill: none; stroke: #000000; stroke-width: 2"/>
    <path d="M 384.080138 253.045969 
L 384.080138 241.403569 
" clip-path="url(#pa8ceb64b8d)" style="fill: none; stroke: #000000; stroke-width: 2"/>
   </g>
   <g id="patch_10">
    <path d="M 296.51152 253.045969 
L 296.51152 20.197969 
" style="fill: none; stroke: #000000; stroke-width: 0.9; stroke-linejoin: miter; stroke-linecap: square"/>
   </g>
   <g id="patch_11">
    <path d="M 296.51152 253.045969 
L 402.690344 253.045969 
" style="fill: none; stroke: #000000; stroke-width: 0.9; stroke-linejoin: miter; stroke-linecap: square"/>
   </g>
  </g>
 </g>
 <defs>
  <clipPath id="p98ba388b77">
   <rect x="41.682344" y="20.197969" width="106.178824" height="232.848"/>
  </clipPath>
  <clipPath id="pe3d8ca28f0">
   <rect x="169.096932" y="20.197969" width="106.178824" height="232.848"/>
  </clipPath>
  <clipPath id="pa8ceb64b8d">
   <rect x="296.51152" y="20.197969" width="106.178824" height="232.848"/>
  </clipPath>
 </defs>
</svg>
