<?xml version="1.0" encoding="utf-8" standalone="no"?>
<!DOCTYPE svg PUBLIC "-//W3C//DTD SVG 1.1//EN"
  "http://www.w3.org/Graphics/SVG/1.1/DTD/svg11.dtd">
<svg xmlns:xlink="http://www.w3.org/1999/xlink" width="500.473941pt" height="289.463781pt" viewBox="0 0 500.473941 289.463781" xmlns="http://www.w3.org/2000/svg" version="1.1">
 <metadata>
  <rdf:RDF xmlns:dc="http://purl.org/dc/elements/1.1/" xmlns:cc="http://creativecommons.org/ns#" xmlns:rdf="http://www.w3.org/1999/02/22-rdf-syntax-ns#">
   <cc:Work>
    <dc:type rdf:resource="http://purl.org/dc/dcmitype/StillImage"/>
    <dc:date>2026-01-20T13:38:10.122623</dc:date>
    <dc:format>image/svg+xml</dc:format>
    <dc:creator>
     <cc:Agent>
      <dc:title>Matplotlib v3.7.2, https://matplotlib.org/</dc:title>
     </cc:Agent>
    </dc:creator>
   </cc:Work>
  </rdf:RDF>
 </metadata>
 <defs>
  <style type="text/css">*{stroke-linejoin: round; stroke-linecap: butt}</style>
 </defs>
 <g id="figure_1">
  <g id="patch_1">
   <path d="M 0 289.463781 
L 500.473941 289.463781 
L 500.473941 0 
L 0 0 
z
" style="fill: #ffffff"/>
  </g>
  <g id="axes_1">
   <g id="text_1">
    <g id="patch_2">
     <path d="M 407.691598 122.567062 
L 496.153941 122.567062 
Q 501.653941 122.567062 501.653941 117.067062 
L 501.653941 20.197969 
Q 501.653941 14.697969 496.153941 14.697969 
L 407.691598 14.697969 
Q 402.191598 14.697969 402.191598 20.197969 
L 402.191598 117.067062 
Q 402.191598 122.567062 407.691598 122.567062 
z
" style="fill: #ffffff; opacity: 0.95; stroke: #b2b2b2; stroke-linejoin: miter"/>
    </g>
    <!-- Target: PM2.5 -->
    <g transform="translate(407.691598 28.55625) scale(0.11 -0.11)">
     <defs>
      <path id="DejaVuSans-54" d="M -19 4666 
L 3928 4666 
L 3928 4134 
L 2272 4134 
L 2272 0 
L 1638 0 
L 1638 4134 
L -19 4134 
L -19 4666 
z
" transform="scale(0.015625)"/>
      <path id="DejaVuSans-61" d="M 2194 1759 
Q 1497 1759 1228 1600 
Q 959 1441 959 1056 
Q 959 750 1161 570 
Q 1363 391 1709 391 
Q 2188 391 2477 730 
Q 2766 1069 2766 1631 
L 2766 1759 
L 2194 1759 
z
M 3341 1997 
L 3341 0 
L 2766 0 
L 2766 531 
Q 2569 213 2275 61 
Q 1981 -91 1556 -91 
Q 1019 -91 701 211 
Q 384 513 384 1019 
Q 384 1609 779 1909 
Q 1175 2209 1959 2209 
L 2766 2209 
L 2766 2266 
Q 2766 2663 2505 2880 
Q 2244 3097 1772 3097 
Q 1472 3097 1187 3025 
Q 903 2953 641 2809 
L 641 3341 
Q 956 3463 1253 3523 
Q 1550 3584 1831 3584 
Q 2591 3584 2966 3190 
Q 3341 2797 3341 1997 
z
" transform="scale(0.015625)"/>
      <path id="DejaVuSans-72" d="M 2631 2963 
Q 2534 3019 2420 3045 
Q 2306 3072 2169 3072 
Q 1681 3072 1420 2755 
Q 1159 2438 1159 1844 
L 1159 0 
L 581 0 
L 581 3500 
L 1159 3500 
L 1159 2956 
Q 1341 3275 1631 3429 
Q 1922 3584 2338 3584 
Q 2397 3584 2469 3576 
Q 2541 3569 2628 3553 
L 2631 2963 
z
" transform="scale(0.015625)"/>
      <path id="DejaVuSans-67" d="M 2906 1791 
Q 2906 2416 2648 2759 
Q 2391 3103 1925 3103 
Q 1463 3103 1205 2759 
Q 947 2416 947 1791 
Q 947 1169 1205 825 
Q 1463 481 1925 481 
Q 2391 481 2648 825 
Q 2906 1169 2906 1791 
z
M 3481 434 
Q 3481 -459 3084 -895 
Q 2688 -1331 1869 -1331 
Q 1566 -1331 1297 -1286 
Q 1028 -1241 775 -1147 
L 775 -588 
Q 1028 -725 1275 -790 
Q 1522 -856 1778 -856 
Q 2344 -856 2625 -561 
Q 2906 -266 2906 331 
L 2906 616 
Q 2728 306 2450 153 
Q 2172 0 1784 0 
Q 1141 0 747 490 
Q 353 981 353 1791 
Q 353 2603 747 3093 
Q 1141 3584 1784 3584 
Q 2172 3584 2450 3431 
Q 2728 3278 2906 2969 
L 2906 3500 
L 3481 3500 
L 3481 434 
z
" transform="scale(0.015625)"/>
      <path id="DejaVuSans-65" d="M 3597 1894 
L 3597 1613 
L 953 1613 
Q 991 1019 1311 708 
Q 1631 397 2203 397 
Q 2534 397 2845 478 
Q 3156 559 3463 722 
L 3463 178 
Q 3153 47 2828 -22 
Q 2503 -91 2169 -91 
Q 1331 -91 842 396 
Q 353 884 353 1716 
Q 353 2575 817 3079 
Q 1281 3584 2069 3584 
Q 2775 3584 3186 3129 
Q 3597 2675 3597 1894 
z
M 3022 2063 
Q 3016 2534 2758 2815 
Q 2500 3097 2075 3097 
Q 1594 3097 1305 2825 
Q 1016 2553 972 2059 
L 3022 2063 
z
" transform="scale(0.015625)"/>
      <path id="DejaVuSans-74" d="M 1172 4494 
L 1172 3500 
L 2356 3500 
L 2356 3053 
L 1172 3053 
L 1172 1153 
Q 1172 725 1289 603 
Q 1406 481 1766 481 
L 2356 481 
L 2356 0 
L 1766 0 
Q 1100 0 847 248 
Q 594 497 594 1153 
L 594 3053 
L 172 3053 
L 172 3500 
L 594 3500 
L 594 4494 
L 1172 4494 
z
" transform="scale(0.015625)"/>
      <path id="DejaVuSans-3a" d="M 750 794 
L 1409 794 
L 1409 0 
L 750 0 
L 750 794 
z
M 750 3309 
L 1409 3309 
L 1409 2516 
L 750 2516 
L 750 3309 
z
" transform="scale(0.015625)"/>
      <path id="DejaVuSans-20" transform="scale(0.015625)"/>
      <path id="DejaVuSans-50" d="M 1259 4147 
L 1259 2394 
L 2053 2394 
Q 2494 2394 2734 2622 
Q 2975 2850 2975 3272 
Q 2975 3691 2734 3919 
Q 2494 4147 2053 4147 
L 1259 4147 
z
M 628 4666 
L 2053 4666 
Q 2838 4666 3239 4311 
Q 3641 3956 3641 3272 
Q 3641 2581 3239 2228 
Q 2838 1875 2053 1875 
L 1259 1875 
L 1259 0 
L 628 0 
L 628 4666 
z
" transform="scale(0.015625)"/>
      <path id="DejaVuSans-4d" d="M 628 4666 
L 1569 4666 
L 2759 1491 
L 3956 4666 
L 4897 4666 
L 4897 0 
L 4281 0 
L 4281 4097 
L 3078 897 
L 2444 897 
L 1241 4097 
L 1241 0 
L 628 0 
L 628 4666 
z
" transform="scale(0.015625)"/>
      <path id="DejaVuSans-32" d="M 1228 531 
L 3431 531 
L 3431 0 
L 469 0 
L 469 531 
Q 828 903 1448 1529 
Q 2069 2156 2228 2338 
Q 2531 2678 2651 2914 
Q 2772 3150 2772 3378 
Q 2772 3750 2511 3984 
Q 2250 4219 1831 4219 
Q 1534 4219 1204 4116 
Q 875 4013 500 3803 
L 500 4441 
Q 881 4594 1212 4672 
Q 1544 4750 1819 4750 
Q 2544 4750 2975 4387 
Q 3406 4025 3406 3419 
Q 3406 3131 3298 2873 
Q 3191 2616 2906 2266 
Q 2828 2175 2409 1742 
Q 1991 1309 1228 531 
z
" transform="scale(0.015625)"/>
      <path id="DejaVuSans-2e" d="M 684 794 
L 1344 794 
L 1344 0 
L 684 0 
L 684 794 
z
" transform="scale(0.015625)"/>
      <path id="DejaVuSans-35" d="M 691 4666 
L 3169 4666 
L 3169 4134 
L 1269 4134 
L 1269 2991 
Q 1406 3038 1543 3061 
Q 1681 3084 1819 3084 
Q 2600 3084 3056 2656 
Q 3513 2228 3513 1497 
Q 3513 744 3044 326 
Q 2575 -91 1722 -91 
Q 1428 -91 1123 -41 
Q 819 9 494 109 
L 494 744 
Q 775 591 1075 516 
Q 1375 441 1709 441 
Q 2250 441 2565 725 
Q 2881 1009 2881 1497 
Q 2881 1984 2565 2268 
Q 2250 2553 1709 2553 
Q 1456 2553 1204 2497 
Q 953 2441 691 2322 
L 691 4666 
z
" transform="scale(0.015625)"/>
     </defs>
     <use xlink:href="#DejaVuSans-54"/>
     <use xlink:href="#DejaVuSans-61" x="44.583984"/>
     <use xlink:href="#DejaVuSans-72" x="105.863281"/>
     <use xlink:href="#DejaVuSans-67" x="145.226562"/>
     <use xlink:href="#DejaVuSans-65" x="208.703125"/>
     <use xlink:href="#DejaVuSans-74" x="270.226562"/>
     <use xlink:href="#DejaVuSans-3a" x="309.435547"/>
     <use xlink:href="#DejaVuSans-20" x="343.126953"/>
     <use xlink:href="#DejaVuSans-50" x="374.914062"/>
     <use xlink:href="#DejaVuSans-4d" x="435.216797"/>
     <use xlink:href="#DejaVuSans-32" x="521.496094"/>
     <use xlink:href="#DejaVuSans-2e" x="585.119141"/>
     <use xlink:href="#DejaVuSans-35" x="616.90625"/>
    </g>
    <!-- Best: HGBR -->
    <g transform="translate(407.691598 40.873844) scale(0.11 -0.11)">
     <defs>
      <path id="DejaVuSans-42" d="M 1259 2228 
L 1259 519 
L 2272 519 
Q 2781 519 3026 730 
Q 3272 941 3272 1375 
Q 3272 1813 3026 2020 
Q 2781 2228 2272 2228 
L 1259 2228 
z
M 1259 4147 
L 1259 2741 
L 2194 2741 
Q 2656 2741 2882 2914 
Q 3109 3088 3109 3444 
Q 3109 3797 2882 3972 
Q 2656 4147 2194 4147 
L 1259 4147 
z
M 628 4666 
L 2241 4666 
Q 2963 4666 3353 4366 
Q 3744 4066 3744 3513 
Q 3744 3084 3544 2831 
Q 3344 2578 2956 2516 
Q 3422 2416 3680 2098 
Q 3938 1781 3938 1306 
Q 3938 681 3513 340 
Q 3088 0 2303 0 
L 628 0 
L 628 4666 
z
" transform="scale(0.015625)"/>
      <path id="DejaVuSans-73" d="M 2834 3397 
L 2834 2853 
Q 2591 2978 2328 3040 
Q 2066 3103 1784 3103 
Q 1356 3103 1142 2972 
Q 928 2841 928 2578 
Q 928 2378 1081 2264 
Q 1234 2150 1697 2047 
L 1894 2003 
Q 2506 1872 2764 1633 
Q 3022 1394 3022 966 
Q 3022 478 2636 193 
Q 2250 -91 1575 -91 
Q 1294 -91 989 -36 
Q 684 19 347 128 
L 347 722 
Q 666 556 975 473 
Q 1284 391 1588 391 
Q 1994 391 2212 530 
Q 2431 669 2431 922 
Q 2431 1156 2273 1281 
Q 2116 1406 1581 1522 
L 1381 1569 
Q 847 1681 609 1914 
Q 372 2147 372 2553 
Q 372 3047 722 3315 
Q 1072 3584 1716 3584 
Q 2034 3584 2315 3537 
Q 2597 3491 2834 3397 
z
" transform="scale(0.015625)"/>
      <path id="DejaVuSans-48" d="M 628 4666 
L 1259 4666 
L 1259 2753 
L 3553 2753 
L 3553 4666 
L 4184 4666 
L 4184 0 
L 3553 0 
L 3553 2222 
L 1259 2222 
L 1259 0 
L 628 0 
L 628 4666 
z
" transform="scale(0.015625)"/>
      <path id="DejaVuSans-47" d="M 3809 666 
L 3809 1919 
L 2778 1919 
L 2778 2438 
L 4434 2438 
L 4434 434 
Q 4069 175 3628 42 
Q 3188 -91 2688 -91 
Q 1594 -91 976 548 
Q 359 1188 359 2328 
Q 359 3472 976 4111 
Q 1594 4750 2688 4750 
Q 3144 4750 3555 4637 
Q 3966 4525 4313 4306 
L 4313 3634 
Q 3963 3931 3569 4081 
Q 3175 4231 2741 4231 
Q 1884 4231 1454 3753 
Q 1025 3275 1025 2328 
Q 1025 1384 1454 906 
Q 1884 428 2741 428 
Q 3075 428 3337 486 
Q 3600 544 3809 666 
z
" transform="scale(0.015625)"/>
      <path id="DejaVuSans-52" d="M 2841 2188 
Q 3044 2119 3236 1894 
Q 3428 1669 3622 1275 
L 4263 0 
L 3584 0 
L 2988 1197 
Q 2756 1666 2539 1819 
Q 2322 1972 1947 1972 
L 1259 1972 
L 1259 0 
L 628 0 
L 628 4666 
L 2053 4666 
Q 2853 4666 3247 4331 
Q 3641 3997 3641 3322 
Q 3641 2881 3436 2590 
Q 3231 2300 2841 2188 
z
M 1259 4147 
L 1259 2491 
L 2053 2491 
Q 2509 2491 2742 2702 
Q 2975 2913 2975 3322 
Q 2975 3731 2742 3939 
Q 2509 4147 2053 4147 
L 1259 4147 
z
" transform="scale(0.015625)"/>
     </defs>
     <use xlink:href="#DejaVuSans-42"/>
     <use xlink:href="#DejaVuSans-65" x="68.603516"/>
     <use xlink:href="#DejaVuSans-73" x="130.126953"/>
     <use xlink:href="#DejaVuSans-74" x="182.226562"/>
     <use xlink:href="#DejaVuSans-3a" x="221.435547"/>
     <use xlink:href="#DejaVuSans-20" x="255.126953"/>
     <use xlink:href="#DejaVuSans-48" x="286.914062"/>
     <use xlink:href="#DejaVuSans-47" x="362.109375"/>
     <use xlink:href="#DejaVuSans-42" x="439.599609"/>
     <use xlink:href="#DejaVuSans-52" x="508.203125"/>
    </g>
    <!-- CV RMSE: 10.40 -->
    <g transform="translate(407.691598 53.191437) scale(0.11 -0.11)">
     <defs>
      <path id="DejaVuSans-43" d="M 4122 4306 
L 4122 3641 
Q 3803 3938 3442 4084 
Q 3081 4231 2675 4231 
Q 1875 4231 1450 3742 
Q 1025 3253 1025 2328 
Q 1025 1406 1450 917 
Q 1875 428 2675 428 
Q 3081 428 3442 575 
Q 3803 722 4122 1019 
L 4122 359 
Q 3791 134 3420 21 
Q 3050 -91 2638 -91 
Q 1578 -91 968 557 
Q 359 1206 359 2328 
Q 359 3453 968 4101 
Q 1578 4750 2638 4750 
Q 3056 4750 3426 4639 
Q 3797 4528 4122 4306 
z
" transform="scale(0.015625)"/>
      <path id="DejaVuSans-56" d="M 1831 0 
L 50 4666 
L 709 4666 
L 2188 738 
L 3669 4666 
L 4325 4666 
L 2547 0 
L 1831 0 
z
" transform="scale(0.015625)"/>
      <path id="DejaVuSans-53" d="M 3425 4513 
L 3425 3897 
Q 3066 4069 2747 4153 
Q 2428 4238 2131 4238 
Q 1616 4238 1336 4038 
Q 1056 3838 1056 3469 
Q 1056 3159 1242 3001 
Q 1428 2844 1947 2747 
L 2328 2669 
Q 3034 2534 3370 2195 
Q 3706 1856 3706 1288 
Q 3706 609 3251 259 
Q 2797 -91 1919 -91 
Q 1588 -91 1214 -16 
Q 841 59 441 206 
L 441 856 
Q 825 641 1194 531 
Q 1563 422 1919 422 
Q 2459 422 2753 634 
Q 3047 847 3047 1241 
Q 3047 1584 2836 1778 
Q 2625 1972 2144 2069 
L 1759 2144 
Q 1053 2284 737 2584 
Q 422 2884 422 3419 
Q 422 4038 858 4394 
Q 1294 4750 2059 4750 
Q 2388 4750 2728 4690 
Q 3069 4631 3425 4513 
z
" transform="scale(0.015625)"/>
      <path id="DejaVuSans-45" d="M 628 4666 
L 3578 4666 
L 3578 4134 
L 1259 4134 
L 1259 2753 
L 3481 2753 
L 3481 2222 
L 1259 2222 
L 1259 531 
L 3634 531 
L 3634 0 
L 628 0 
L 628 4666 
z
" transform="scale(0.015625)"/>
      <path id="DejaVuSans-31" d="M 794 531 
L 1825 531 
L 1825 4091 
L 703 3866 
L 703 4441 
L 1819 4666 
L 2450 4666 
L 2450 531 
L 3481 531 
L 3481 0 
L 794 0 
L 794 531 
z
" transform="scale(0.015625)"/>
      <path id="DejaVuSans-30" d="M 2034 4250 
Q 1547 4250 1301 3770 
Q 1056 3291 1056 2328 
Q 1056 1369 1301 889 
Q 1547 409 2034 409 
Q 2525 409 2770 889 
Q 3016 1369 3016 2328 
Q 3016 3291 2770 3770 
Q 2525 4250 2034 4250 
z
M 2034 4750 
Q 2819 4750 3233 4129 
Q 3647 3509 3647 2328 
Q 3647 1150 3233 529 
Q 2819 -91 2034 -91 
Q 1250 -91 836 529 
Q 422 1150 422 2328 
Q 422 3509 836 4129 
Q 1250 4750 2034 4750 
z
" transform="scale(0.015625)"/>
      <path id="DejaVuSans-34" d="M 2419 4116 
L 825 1625 
L 2419 1625 
L 2419 4116 
z
M 2253 4666 
L 3047 4666 
L 3047 1625 
L 3713 1625 
L 3713 1100 
L 3047 1100 
L 3047 0 
L 2419 0 
L 2419 1100 
L 313 1100 
L 313 1709 
L 2253 4666 
z
" transform="scale(0.015625)"/>
     </defs>
     <use xlink:href="#DejaVuSans-43"/>
     <use xlink:href="#DejaVuSans-56" x="69.824219"/>
     <use xlink:href="#DejaVuSans-20" x="138.232422"/>
     <use xlink:href="#DejaVuSans-52" x="170.019531"/>
     <use xlink:href="#DejaVuSans-4d" x="239.501953"/>
     <use xlink:href="#DejaVuSans-53" x="325.78125"/>
     <use xlink:href="#DejaVuSans-45" x="389.257812"/>
     <use xlink:href="#DejaVuSans-3a" x="452.441406"/>
     <use xlink:href="#DejaVuSans-20" x="486.132812"/>
     <use xlink:href="#DejaVuSans-31" x="517.919922"/>
     <use xlink:href="#DejaVuSans-30" x="581.542969"/>
     <use xlink:href="#DejaVuSans-2e" x="645.166016"/>
     <use xlink:href="#DejaVuSans-34" x="676.953125"/>
     <use xlink:href="#DejaVuSans-30" x="740.576172"/>
    </g>
    <!-- Test RMSE: 7.00 -->
    <g transform="translate(407.691598 65.509031) scale(0.11 -0.11)">
     <defs>
      <path id="DejaVuSans-37" d="M 525 4666 
L 3525 4666 
L 3525 4397 
L 1831 0 
L 1172 0 
L 2766 4134 
L 525 4134 
L 525 4666 
z
" transform="scale(0.015625)"/>
     </defs>
     <use xlink:href="#DejaVuSans-54"/>
     <use xlink:href="#DejaVuSans-65" x="44.083984"/>
     <use xlink:href="#DejaVuSans-73" x="105.607422"/>
     <use xlink:href="#DejaVuSans-74" x="157.707031"/>
     <use xlink:href="#DejaVuSans-20" x="196.916016"/>
     <use xlink:href="#DejaVuSans-52" x="228.703125"/>
     <use xlink:href="#DejaVuSans-4d" x="298.185547"/>
     <use xlink:href="#DejaVuSans-53" x="384.464844"/>
     <use xlink:href="#DejaVuSans-45" x="447.941406"/>
     <use xlink:href="#DejaVuSans-3a" x="511.125"/>
     <use xlink:href="#DejaVuSans-20" x="544.816406"/>
     <use xlink:href="#DejaVuSans-37" x="576.603516"/>
     <use xlink:href="#DejaVuSans-2e" x="640.226562"/>
     <use xlink:href="#DejaVuSans-30" x="672.013672"/>
     <use xlink:href="#DejaVuSans-30" x="735.636719"/>
    </g>
    <!-- Test MAE: 5.15 -->
    <g transform="translate(407.691598 77.826625) scale(0.11 -0.11)">
     <defs>
      <path id="DejaVuSans-41" d="M 2188 4044 
L 1331 1722 
L 3047 1722 
L 2188 4044 
z
M 1831 4666 
L 2547 4666 
L 4325 0 
L 3669 0 
L 3244 1197 
L 1141 1197 
L 716 0 
L 50 0 
L 1831 4666 
z
" transform="scale(0.015625)"/>
     </defs>
     <use xlink:href="#DejaVuSans-54"/>
     <use xlink:href="#DejaVuSans-65" x="44.083984"/>
     <use xlink:href="#DejaVuSans-73" x="105.607422"/>
     <use xlink:href="#DejaVuSans-74" x="157.707031"/>
     <use xlink:href="#DejaVuSans-20" x="196.916016"/>
     <use xlink:href="#DejaVuSans-4d" x="228.703125"/>
     <use xlink:href="#DejaVuSans-41" x="314.982422"/>
     <use xlink:href="#DejaVuSans-45" x="383.390625"/>
     <use xlink:href="#DejaVuSans-3a" x="446.574219"/>
     <use xlink:href="#DejaVuSans-20" x="480.265625"/>
     <use xlink:href="#DejaVuSans-35" x="512.052734"/>
     <use xlink:href="#DejaVuSans-2e" x="575.675781"/>
     <use xlink:href="#DejaVuSans-31" x="607.462891"/>
     <use xlink:href="#DejaVuSans-35" x="671.085938"/>
    </g>
    <!-- N(train): 2266 -->
    <g transform="translate(407.691598 90.144219) scale(0.11 -0.11)">
     <defs>
      <path id="DejaVuSans-4e" d="M 628 4666 
L 1478 4666 
L 3547 763 
L 3547 4666 
L 4159 4666 
L 4159 0 
L 3309 0 
L 1241 3903 
L 1241 0 
L 628 0 
L 628 4666 
z
" transform="scale(0.015625)"/>
      <path id="DejaVuSans-28" d="M 1984 4856 
Q 1566 4138 1362 3434 
Q 1159 2731 1159 2009 
Q 1159 1288 1364 580 
Q 1569 -128 1984 -844 
L 1484 -844 
Q 1016 -109 783 600 
Q 550 1309 550 2009 
Q 550 2706 781 3412 
Q 1013 4119 1484 4856 
L 1984 4856 
z
" transform="scale(0.015625)"/>
      <path id="DejaVuSans-69" d="M 603 3500 
L 1178 3500 
L 1178 0 
L 603 0 
L 603 3500 
z
M 603 4863 
L 1178 4863 
L 1178 4134 
L 603 4134 
L 603 4863 
z
" transform="scale(0.015625)"/>
      <path id="DejaVuSans-6e" d="M 3513 2113 
L 3513 0 
L 2938 0 
L 2938 2094 
Q 2938 2591 2744 2837 
Q 2550 3084 2163 3084 
Q 1697 3084 1428 2787 
Q 1159 2491 1159 1978 
L 1159 0 
L 581 0 
L 581 3500 
L 1159 3500 
L 1159 2956 
Q 1366 3272 1645 3428 
Q 1925 3584 2291 3584 
Q 2894 3584 3203 3211 
Q 3513 2838 3513 2113 
z
" transform="scale(0.015625)"/>
      <path id="DejaVuSans-29" d="M 513 4856 
L 1013 4856 
Q 1481 4119 1714 3412 
Q 1947 2706 1947 2009 
Q 1947 1309 1714 600 
Q 1481 -109 1013 -844 
L 513 -844 
Q 928 -128 1133 580 
Q 1338 1288 1338 2009 
Q 1338 2731 1133 3434 
Q 928 4138 513 4856 
z
" transform="scale(0.015625)"/>
      <path id="DejaVuSans-36" d="M 2113 2584 
Q 1688 2584 1439 2293 
Q 1191 2003 1191 1497 
Q 1191 994 1439 701 
Q 1688 409 2113 409 
Q 2538 409 2786 701 
Q 3034 994 3034 1497 
Q 3034 2003 2786 2293 
Q 2538 2584 2113 2584 
z
M 3366 4563 
L 3366 3988 
Q 3128 4100 2886 4159 
Q 2644 4219 2406 4219 
Q 1781 4219 1451 3797 
Q 1122 3375 1075 2522 
Q 1259 2794 1537 2939 
Q 1816 3084 2150 3084 
Q 2853 3084 3261 2657 
Q 3669 2231 3669 1497 
Q 3669 778 3244 343 
Q 2819 -91 2113 -91 
Q 1303 -91 875 529 
Q 447 1150 447 2328 
Q 447 3434 972 4092 
Q 1497 4750 2381 4750 
Q 2619 4750 2861 4703 
Q 3103 4656 3366 4563 
z
" transform="scale(0.015625)"/>
     </defs>
     <use xlink:href="#DejaVuSans-4e"/>
     <use xlink:href="#DejaVuSans-28" x="74.804688"/>
     <use xlink:href="#DejaVuSans-74" x="113.818359"/>
     <use xlink:href="#DejaVuSans-72" x="153.027344"/>
     <use xlink:href="#DejaVuSans-61" x="194.140625"/>
     <use xlink:href="#DejaVuSans-69" x="255.419922"/>
     <use xlink:href="#DejaVuSans-6e" x="283.203125"/>
     <use xlink:href="#DejaVuSans-29" x="346.582031"/>
     <use xlink:href="#DejaVuSans-3a" x="385.595703"/>
     <use xlink:href="#DejaVuSans-20" x="419.287109"/>
     <use xlink:href="#DejaVuSans-32" x="451.074219"/>
     <use xlink:href="#DejaVuSans-32" x="514.697266"/>
     <use xlink:href="#DejaVuSans-36" x="578.320312"/>
     <use xlink:href="#DejaVuSans-36" x="641.943359"/>
    </g>
    <!-- N(test):  567 -->
    <g transform="translate(407.691598 102.461812) scale(0.11 -0.11)">
     <use xlink:href="#DejaVuSans-4e"/>
     <use xlink:href="#DejaVuSans-28" x="74.804688"/>
     <use xlink:href="#DejaVuSans-74" x="113.818359"/>
     <use xlink:href="#DejaVuSans-65" x="153.027344"/>
     <use xlink:href="#DejaVuSans-73" x="214.550781"/>
     <use xlink:href="#DejaVuSans-74" x="266.650391"/>
     <use xlink:href="#DejaVuSans-29" x="305.859375"/>
     <use xlink:href="#DejaVuSans-3a" x="344.873047"/>
     <use xlink:href="#DejaVuSans-20" x="378.564453"/>
     <use xlink:href="#DejaVuSans-20" x="410.351562"/>
     <use xlink:href="#DejaVuSans-35" x="442.138672"/>
     <use xlink:href="#DejaVuSans-36" x="505.761719"/>
     <use xlink:href="#DejaVuSans-37" x="569.384766"/>
    </g>
    <!-- tol=±5 min -->
    <g transform="translate(407.691598 114.779406) scale(0.11 -0.11)">
     <defs>
      <path id="DejaVuSans-6f" d="M 1959 3097 
Q 1497 3097 1228 2736 
Q 959 2375 959 1747 
Q 959 1119 1226 758 
Q 1494 397 1959 397 
Q 2419 397 2687 759 
Q 2956 1122 2956 1747 
Q 2956 2369 2687 2733 
Q 2419 3097 1959 3097 
z
M 1959 3584 
Q 2709 3584 3137 3096 
Q 3566 2609 3566 1747 
Q 3566 888 3137 398 
Q 2709 -91 1959 -91 
Q 1206 -91 779 398 
Q 353 888 353 1747 
Q 353 2609 779 3096 
Q 1206 3584 1959 3584 
z
" transform="scale(0.015625)"/>
      <path id="DejaVuSans-6c" d="M 603 4863 
L 1178 4863 
L 1178 0 
L 603 0 
L 603 4863 
z
" transform="scale(0.015625)"/>
      <path id="DejaVuSans-3d" d="M 678 2906 
L 4684 2906 
L 4684 2381 
L 678 2381 
L 678 2906 
z
M 678 1631 
L 4684 1631 
L 4684 1100 
L 678 1100 
L 678 1631 
z
" transform="scale(0.015625)"/>
      <path id="DejaVuSans-b1" d="M 2944 4013 
L 2944 2803 
L 4684 2803 
L 4684 2272 
L 2944 2272 
L 2944 1063 
L 2419 1063 
L 2419 2272 
L 678 2272 
L 678 2803 
L 2419 2803 
L 2419 4013 
L 2944 4013 
z
M 678 531 
L 4684 531 
L 4684 0 
L 678 0 
L 678 531 
z
" transform="scale(0.015625)"/>
      <path id="DejaVuSans-6d" d="M 3328 2828 
Q 3544 3216 3844 3400 
Q 4144 3584 4550 3584 
Q 5097 3584 5394 3201 
Q 5691 2819 5691 2113 
L 5691 0 
L 5113 0 
L 5113 2094 
Q 5113 2597 4934 2840 
Q 4756 3084 4391 3084 
Q 3944 3084 3684 2787 
Q 3425 2491 3425 1978 
L 3425 0 
L 2847 0 
L 2847 2094 
Q 2847 2600 2669 2842 
Q 2491 3084 2119 3084 
Q 1678 3084 1418 2786 
Q 1159 2488 1159 1978 
L 1159 0 
L 581 0 
L 581 3500 
L 1159 3500 
L 1159 2956 
Q 1356 3278 1631 3431 
Q 1906 3584 2284 3584 
Q 2666 3584 2933 3390 
Q 3200 3197 3328 2828 
z
" transform="scale(0.015625)"/>
     </defs>
     <use xlink:href="#DejaVuSans-74"/>
     <use xlink:href="#DejaVuSans-6f" x="39.208984"/>
     <use xlink:href="#DejaVuSans-6c" x="100.390625"/>
     <use xlink:href="#DejaVuSans-3d" x="128.173828"/>
     <use xlink:href="#DejaVuSans-b1" x="211.962891"/>
     <use xlink:href="#DejaVuSans-35" x="295.751953"/>
     <use xlink:href="#DejaVuSans-20" x="359.375"/>
     <use xlink:href="#DejaVuSans-6d" x="391.162109"/>
     <use xlink:href="#DejaVuSans-69" x="488.574219"/>
     <use xlink:href="#DejaVuSans-6e" x="516.357422"/>
    </g>
   </g>
   <g id="text_2">
    <!-- [PM2.5] Partial dependence (direction of key factors) -->
    <g transform="translate(48.396891 14.197969) scale(0.13 -0.13)">
     <defs>
      <path id="DejaVuSans-5b" d="M 550 4863 
L 1875 4863 
L 1875 4416 
L 1125 4416 
L 1125 -397 
L 1875 -397 
L 1875 -844 
L 550 -844 
L 550 4863 
z
" transform="scale(0.015625)"/>
      <path id="DejaVuSans-5d" d="M 1947 4863 
L 1947 -844 
L 622 -844 
L 622 -397 
L 1369 -397 
L 1369 4416 
L 622 4416 
L 622 4863 
L 1947 4863 
z
" transform="scale(0.015625)"/>
      <path id="DejaVuSans-64" d="M 2906 2969 
L 2906 4863 
L 3481 4863 
L 3481 0 
L 2906 0 
L 2906 525 
Q 2725 213 2448 61 
Q 2172 -91 1784 -91 
Q 1150 -91 751 415 
Q 353 922 353 1747 
Q 353 2572 751 3078 
Q 1150 3584 1784 3584 
Q 2172 3584 2448 3432 
Q 2725 3281 2906 2969 
z
M 947 1747 
Q 947 1113 1208 752 
Q 1469 391 1925 391 
Q 2381 391 2643 752 
Q 2906 1113 2906 1747 
Q 2906 2381 2643 2742 
Q 2381 3103 1925 3103 
Q 1469 3103 1208 2742 
Q 947 2381 947 1747 
z
" transform="scale(0.015625)"/>
      <path id="DejaVuSans-70" d="M 1159 525 
L 1159 -1331 
L 581 -1331 
L 581 3500 
L 1159 3500 
L 1159 2969 
Q 1341 3281 1617 3432 
Q 1894 3584 2278 3584 
Q 2916 3584 3314 3078 
Q 3713 2572 3713 1747 
Q 3713 922 3314 415 
Q 2916 -91 2278 -91 
Q 1894 -91 1617 61 
Q 1341 213 1159 525 
z
M 3116 1747 
Q 3116 2381 2855 2742 
Q 2594 3103 2138 3103 
Q 1681 3103 1420 2742 
Q 1159 2381 1159 1747 
Q 1159 1113 1420 752 
Q 1681 391 2138 391 
Q 2594 391 2855 752 
Q 3116 1113 3116 1747 
z
" transform="scale(0.015625)"/>
      <path id="DejaVuSans-63" d="M 3122 3366 
L 3122 2828 
Q 2878 2963 2633 3030 
Q 2388 3097 2138 3097 
Q 1578 3097 1268 2742 
Q 959 2388 959 1747 
Q 959 1106 1268 751 
Q 1578 397 2138 397 
Q 2388 397 2633 464 
Q 2878 531 3122 666 
L 3122 134 
Q 2881 22 2623 -34 
Q 2366 -91 2075 -91 
Q 1284 -91 818 406 
Q 353 903 353 1747 
Q 353 2603 823 3093 
Q 1294 3584 2113 3584 
Q 2378 3584 2631 3529 
Q 2884 3475 3122 3366 
z
" transform="scale(0.015625)"/>
      <path id="DejaVuSans-66" d="M 2375 4863 
L 2375 4384 
L 1825 4384 
Q 1516 4384 1395 4259 
Q 1275 4134 1275 3809 
L 1275 3500 
L 2222 3500 
L 2222 3053 
L 1275 3053 
L 1275 0 
L 697 0 
L 697 3053 
L 147 3053 
L 147 3500 
L 697 3500 
L 697 3744 
Q 697 4328 969 4595 
Q 1241 4863 1831 4863 
L 2375 4863 
z
" transform="scale(0.015625)"/>
      <path id="DejaVuSans-6b" d="M 581 4863 
L 1159 4863 
L 1159 1991 
L 2875 3500 
L 3609 3500 
L 1753 1863 
L 3688 0 
L 2938 0 
L 1159 1709 
L 1159 0 
L 581 0 
L 581 4863 
z
" transform="scale(0.015625)"/>
      <path id="DejaVuSans-79" d="M 2059 -325 
Q 1816 -950 1584 -1140 
Q 1353 -1331 966 -1331 
L 506 -1331 
L 506 -850 
L 844 -850 
Q 1081 -850 1212 -737 
Q 1344 -625 1503 -206 
L 1606 56 
L 191 3500 
L 800 3500 
L 1894 763 
L 2988 3500 
L 3597 3500 
L 2059 -325 
z
" transform="scale(0.015625)"/>
     </defs>
     <use xlink:href="#DejaVuSans-5b"/>
     <use xlink:href="#DejaVuSans-50" x="39.013672"/>
     <use xlink:href="#DejaVuSans-4d" x="99.316406"/>
     <use xlink:href="#DejaVuSans-32" x="185.595703"/>
     <use xlink:href="#DejaVuSans-2e" x="249.21875"/>
     <use xlink:href="#DejaVuSans-35" x="281.005859"/>
     <use xlink:href="#DejaVuSans-5d" x="344.628906"/>
     <use xlink:href="#DejaVuSans-20" x="383.642578"/>
     <use xlink:href="#DejaVuSans-50" x="415.429688"/>
     <use xlink:href="#DejaVuSans-61" x="471.232422"/>
     <use xlink:href="#DejaVuSans-72" x="532.511719"/>
     <use xlink:href="#DejaVuSans-74" x="573.625"/>
     <use xlink:href="#DejaVuSans-69" x="612.833984"/>
     <use xlink:href="#DejaVuSans-61" x="640.617188"/>
     <use xlink:href="#DejaVuSans-6c" x="701.896484"/>
     <use xlink:href="#DejaVuSans-20" x="729.679688"/>
     <use xlink:href="#DejaVuSans-64" x="761.466797"/>
     <use xlink:href="#DejaVuSans-65" x="824.943359"/>
     <use xlink:href="#DejaVuSans-70" x="886.466797"/>
     <use xlink:href="#DejaVuSans-65" x="949.943359"/>
     <use xlink:href="#DejaVuSans-6e" x="1011.466797"/>
     <use xlink:href="#DejaVuSans-64" x="1074.845703"/>
     <use xlink:href="#DejaVuSans-65" x="1138.322266"/>
     <use xlink:href="#DejaVuSans-6e" x="1199.845703"/>
     <use xlink:href="#DejaVuSans-63" x="1263.224609"/>
     <use xlink:href="#DejaVuSans-65" x="1318.205078"/>
     <use xlink:href="#DejaVuSans-20" x="1379.728516"/>
     <use xlink:href="#DejaVuSans-28" x="1411.515625"/>
     <use xlink:href="#DejaVuSans-64" x="1450.529297"/>
     <use xlink:href="#DejaVuSans-69" x="1514.005859"/>
     <use xlink:href="#DejaVuSans-72" x="1541.789062"/>
     <use xlink:href="#DejaVuSans-65" x="1580.652344"/>
     <use xlink:href="#DejaVuSans-63" x="1642.175781"/>
     <use xlink:href="#DejaVuSans-74" x="1697.15625"/>
     <use xlink:href="#DejaVuSans-69" x="1736.365234"/>
     <use xlink:href="#DejaVuSans-6f" x="1764.148438"/>
     <use xlink:href="#DejaVuSans-6e" x="1825.330078"/>
     <use xlink:href="#DejaVuSans-20" x="1888.708984"/>
     <use xlink:href="#DejaVuSans-6f" x="1920.496094"/>
     <use xlink:href="#DejaVuSans-66" x="1981.677734"/>
     <use xlink:href="#DejaVuSans-20" x="2016.882812"/>
     <use xlink:href="#DejaVuSans-6b" x="2048.669922"/>
     <use xlink:href="#DejaVuSans-65" x="2102.955078"/>
     <use xlink:href="#DejaVuSans-79" x="2164.478516"/>
     <use xlink:href="#DejaVuSans-20" x="2223.658203"/>
     <use xlink:href="#DejaVuSans-66" x="2255.445312"/>
     <use xlink:href="#DejaVuSans-61" x="2290.650391"/>
     <use xlink:href="#DejaVuSans-63" x="2351.929688"/>
     <use xlink:href="#DejaVuSans-74" x="2406.910156"/>
     <use xlink:href="#DejaVuSans-6f" x="2446.119141"/>
     <use xlink:href="#DejaVuSans-72" x="2507.300781"/>
     <use xlink:href="#DejaVuSans-73" x="2548.414062"/>
     <use xlink:href="#DejaVuSans-29" x="2600.513672"/>
    </g>
   </g>
  </g>
  <g id="axes_2">
   <g id="patch_3">
    <path d="M 39.463438 253.045969 
L 145.642261 253.045969 
L 145.642261 20.197969 
L 39.463438 20.197969 
z
" style="fill: #ffffff"/>
   </g>
   <g id="matplotlib.axis_1">
    <g id="xtick_1">
     <g id="line2d_1">
      <path d="M 47.371742 253.045969 
L 47.371742 20.197969 
" clip-path="url(#p19d94dc5bf)" style="fill: none; stroke-dasharray: 2.59,1.12; stroke-dashoffset: 0; stroke: #b0b0b0; stroke-opacity: 0.18; stroke-width: 0.7"/>
     </g>
     <g id="line2d_2">
      <defs>
       <path id="m6d7daa30d9" d="M 0 0 
L 0 3 
" style="stroke: #000000; stroke-width: 0.8"/>
      </defs>
      <g>
       <use xlink:href="#m6d7daa30d9" x="47.371742" y="253.045969" style="stroke: #000000; stroke-width: 0.8"/>
      </g>
     </g>
     <g id="text_3">
      <!-- 25 -->
      <g transform="translate(40.372992 267.90425) scale(0.11 -0.11)">
       <use xlink:href="#DejaVuSans-32"/>
       <use xlink:href="#DejaVuSans-35" x="63.623047"/>
      </g>
     </g>
    </g>
    <g id="xtick_2">
     <g id="line2d_3">
      <path d="M 82.804368 253.045969 
L 82.804368 20.197969 
" clip-path="url(#p19d94dc5bf)" style="fill: none; stroke-dasharray: 2.59,1.12; stroke-dashoffset: 0; stroke: #b0b0b0; stroke-opacity: 0.18; stroke-width: 0.7"/>
     </g>
     <g id="line2d_4">
      <g>
       <use xlink:href="#m6d7daa30d9" x="82.804368" y="253.045969" style="stroke: #000000; stroke-width: 0.8"/>
      </g>
     </g>
     <g id="text_4">
      <!-- 50 -->
      <g transform="translate(75.805618 267.90425) scale(0.11 -0.11)">
       <use xlink:href="#DejaVuSans-35"/>
       <use xlink:href="#DejaVuSans-30" x="63.623047"/>
      </g>
     </g>
    </g>
    <g id="xtick_3">
     <g id="line2d_5">
      <path d="M 118.236993 253.045969 
L 118.236993 20.197969 
" clip-path="url(#p19d94dc5bf)" style="fill: none; stroke-dasharray: 2.59,1.12; stroke-dashoffset: 0; stroke: #b0b0b0; stroke-opacity: 0.18; stroke-width: 0.7"/>
     </g>
     <g id="line2d_6">
      <g>
       <use xlink:href="#m6d7daa30d9" x="118.236993" y="253.045969" style="stroke: #000000; stroke-width: 0.8"/>
      </g>
     </g>
     <g id="text_5">
      <!-- 75 -->
      <g transform="translate(111.238243 267.90425) scale(0.11 -0.11)">
       <use xlink:href="#DejaVuSans-37"/>
       <use xlink:href="#DejaVuSans-35" x="63.623047"/>
      </g>
     </g>
    </g>
    <g id="text_6">
     <!-- mc_Humidity_mean -->
     <g transform="translate(38.135506 282.550187) scale(0.11 -0.11)">
      <defs>
       <path id="DejaVuSans-5f" d="M 3263 -1063 
L 3263 -1509 
L -63 -1509 
L -63 -1063 
L 3263 -1063 
z
" transform="scale(0.015625)"/>
       <path id="DejaVuSans-75" d="M 544 1381 
L 544 3500 
L 1119 3500 
L 1119 1403 
Q 1119 906 1312 657 
Q 1506 409 1894 409 
Q 2359 409 2629 706 
Q 2900 1003 2900 1516 
L 2900 3500 
L 3475 3500 
L 3475 0 
L 2900 0 
L 2900 538 
Q 2691 219 2414 64 
Q 2138 -91 1772 -91 
Q 1169 -91 856 284 
Q 544 659 544 1381 
z
M 1991 3584 
L 1991 3584 
z
" transform="scale(0.015625)"/>
      </defs>
      <use xlink:href="#DejaVuSans-6d"/>
      <use xlink:href="#DejaVuSans-63" x="97.412109"/>
      <use xlink:href="#DejaVuSans-5f" x="152.392578"/>
      <use xlink:href="#DejaVuSans-48" x="202.392578"/>
      <use xlink:href="#DejaVuSans-75" x="277.587891"/>
      <use xlink:href="#DejaVuSans-6d" x="340.966797"/>
      <use xlink:href="#DejaVuSans-69" x="438.378906"/>
      <use xlink:href="#DejaVuSans-64" x="466.162109"/>
      <use xlink:href="#DejaVuSans-69" x="529.638672"/>
      <use xlink:href="#DejaVuSans-74" x="557.421875"/>
      <use xlink:href="#DejaVuSans-79" x="596.630859"/>
      <use xlink:href="#DejaVuSans-5f" x="655.810547"/>
      <use xlink:href="#DejaVuSans-6d" x="705.810547"/>
      <use xlink:href="#DejaVuSans-65" x="803.222656"/>
      <use xlink:href="#DejaVuSans-61" x="864.746094"/>
      <use xlink:href="#DejaVuSans-6e" x="926.025391"/>
     </g>
    </g>
   </g>
   <g id="matplotlib.axis_2">
    <g id="ytick_1">
     <g id="line2d_7">
      <path d="M 39.463438 222.494237 
L 145.642261 222.494237 
" clip-path="url(#p19d94dc5bf)" style="fill: none; stroke-dasharray: 2.59,1.12; stroke-dashoffset: 0; stroke: #b0b0b0; stroke-opacity: 0.18; stroke-width: 0.7"/>
     </g>
     <g id="line2d_8">
      <defs>
       <path id="m8854977edf" d="M 0 0 
L -3 0 
" style="stroke: #000000; stroke-width: 0.8"/>
      </defs>
      <g>
       <use xlink:href="#m8854977edf" x="39.463438" y="222.494237" style="stroke: #000000; stroke-width: 0.8"/>
      </g>
     </g>
     <g id="text_7">
      <!-- 8 -->
      <g transform="translate(25.964688 226.673378) scale(0.11 -0.11)">
       <defs>
        <path id="DejaVuSans-38" d="M 2034 2216 
Q 1584 2216 1326 1975 
Q 1069 1734 1069 1313 
Q 1069 891 1326 650 
Q 1584 409 2034 409 
Q 2484 409 2743 651 
Q 3003 894 3003 1313 
Q 3003 1734 2745 1975 
Q 2488 2216 2034 2216 
z
M 1403 2484 
Q 997 2584 770 2862 
Q 544 3141 544 3541 
Q 544 4100 942 4425 
Q 1341 4750 2034 4750 
Q 2731 4750 3128 4425 
Q 3525 4100 3525 3541 
Q 3525 3141 3298 2862 
Q 3072 2584 2669 2484 
Q 3125 2378 3379 2068 
Q 3634 1759 3634 1313 
Q 3634 634 3220 271 
Q 2806 -91 2034 -91 
Q 1263 -91 848 271 
Q 434 634 434 1313 
Q 434 1759 690 2068 
Q 947 2378 1403 2484 
z
M 1172 3481 
Q 1172 3119 1398 2916 
Q 1625 2713 2034 2713 
Q 2441 2713 2670 2916 
Q 2900 3119 2900 3481 
Q 2900 3844 2670 4047 
Q 2441 4250 2034 4250 
Q 1625 4250 1398 4047 
Q 1172 3844 1172 3481 
z
" transform="scale(0.015625)"/>
       </defs>
       <use xlink:href="#DejaVuSans-38"/>
      </g>
     </g>
    </g>
    <g id="ytick_2">
     <g id="line2d_9">
      <path d="M 39.463438 184.301086 
L 145.642261 184.301086 
" clip-path="url(#p19d94dc5bf)" style="fill: none; stroke-dasharray: 2.59,1.12; stroke-dashoffset: 0; stroke: #b0b0b0; stroke-opacity: 0.18; stroke-width: 0.7"/>
     </g>
     <g id="line2d_10">
      <g>
       <use xlink:href="#m8854977edf" x="39.463438" y="184.301086" style="stroke: #000000; stroke-width: 0.8"/>
      </g>
     </g>
     <g id="text_8">
      <!-- 10 -->
      <g transform="translate(18.965938 188.480227) scale(0.11 -0.11)">
       <use xlink:href="#DejaVuSans-31"/>
       <use xlink:href="#DejaVuSans-30" x="63.623047"/>
      </g>
     </g>
    </g>
    <g id="ytick_3">
     <g id="line2d_11">
      <path d="M 39.463438 146.107935 
L 145.642261 146.107935 
" clip-path="url(#p19d94dc5bf)" style="fill: none; stroke-dasharray: 2.59,1.12; stroke-dashoffset: 0; stroke: #b0b0b0; stroke-opacity: 0.18; stroke-width: 0.7"/>
     </g>
     <g id="line2d_12">
      <g>
       <use xlink:href="#m8854977edf" x="39.463438" y="146.107935" style="stroke: #000000; stroke-width: 0.8"/>
      </g>
     </g>
     <g id="text_9">
      <!-- 12 -->
      <g transform="translate(18.965938 150.287076) scale(0.11 -0.11)">
       <use xlink:href="#DejaVuSans-31"/>
       <use xlink:href="#DejaVuSans-32" x="63.623047"/>
      </g>
     </g>
    </g>
    <g id="ytick_4">
     <g id="line2d_13">
      <path d="M 39.463438 107.914785 
L 145.642261 107.914785 
" clip-path="url(#p19d94dc5bf)" style="fill: none; stroke-dasharray: 2.59,1.12; stroke-dashoffset: 0; stroke: #b0b0b0; stroke-opacity: 0.18; stroke-width: 0.7"/>
     </g>
     <g id="line2d_14">
      <g>
       <use xlink:href="#m8854977edf" x="39.463438" y="107.914785" style="stroke: #000000; stroke-width: 0.8"/>
      </g>
     </g>
     <g id="text_10">
      <!-- 14 -->
      <g transform="translate(18.965938 112.093925) scale(0.11 -0.11)">
       <use xlink:href="#DejaVuSans-31"/>
       <use xlink:href="#DejaVuSans-34" x="63.623047"/>
      </g>
     </g>
    </g>
    <g id="ytick_5">
     <g id="line2d_15">
      <path d="M 39.463438 69.721634 
L 145.642261 69.721634 
" clip-path="url(#p19d94dc5bf)" style="fill: none; stroke-dasharray: 2.59,1.12; stroke-dashoffset: 0; stroke: #b0b0b0; stroke-opacity: 0.18; stroke-width: 0.7"/>
     </g>
     <g id="line2d_16">
      <g>
       <use xlink:href="#m8854977edf" x="39.463438" y="69.721634" style="stroke: #000000; stroke-width: 0.8"/>
      </g>
     </g>
     <g id="text_11">
      <!-- 16 -->
      <g transform="translate(18.965938 73.900775) scale(0.11 -0.11)">
       <use xlink:href="#DejaVuSans-31"/>
       <use xlink:href="#DejaVuSans-36" x="63.623047"/>
      </g>
     </g>
    </g>
    <g id="ytick_6">
     <g id="line2d_17">
      <path d="M 39.463438 31.528483 
L 145.642261 31.528483 
" clip-path="url(#p19d94dc5bf)" style="fill: none; stroke-dasharray: 2.59,1.12; stroke-dashoffset: 0; stroke: #b0b0b0; stroke-opacity: 0.18; stroke-width: 0.7"/>
     </g>
     <g id="line2d_18">
      <g>
       <use xlink:href="#m8854977edf" x="39.463438" y="31.528483" style="stroke: #000000; stroke-width: 0.8"/>
      </g>
     </g>
     <g id="text_12">
      <!-- 18 -->
      <g transform="translate(18.965938 35.707624) scale(0.11 -0.11)">
       <use xlink:href="#DejaVuSans-31"/>
       <use xlink:href="#DejaVuSans-38" x="63.623047"/>
      </g>
     </g>
    </g>
    <g id="text_13">
     <!-- Partial dependence -->
     <g transform="translate(12.678281 189.660016) rotate(-90) scale(0.11 -0.11)">
      <use xlink:href="#DejaVuSans-50"/>
      <use xlink:href="#DejaVuSans-61" x="55.802734"/>
      <use xlink:href="#DejaVuSans-72" x="117.082031"/>
      <use xlink:href="#DejaVuSans-74" x="158.195312"/>
      <use xlink:href="#DejaVuSans-69" x="197.404297"/>
      <use xlink:href="#DejaVuSans-61" x="225.1875"/>
      <use xlink:href="#DejaVuSans-6c" x="286.466797"/>
      <use xlink:href="#DejaVuSans-20" x="314.25"/>
      <use xlink:href="#DejaVuSans-64" x="346.037109"/>
      <use xlink:href="#DejaVuSans-65" x="409.513672"/>
      <use xlink:href="#DejaVuSans-70" x="471.037109"/>
      <use xlink:href="#DejaVuSans-65" x="534.513672"/>
      <use xlink:href="#DejaVuSans-6e" x="596.037109"/>
      <use xlink:href="#DejaVuSans-64" x="659.416016"/>
      <use xlink:href="#DejaVuSans-65" x="722.892578"/>
      <use xlink:href="#DejaVuSans-6e" x="784.416016"/>
      <use xlink:href="#DejaVuSans-63" x="847.794922"/>
      <use xlink:href="#DejaVuSans-65" x="902.775391"/>
     </g>
    </g>
   </g>
   <g id="line2d_19">
    <path d="M 44.289748 242.461969 
L 45.26476 242.461969 
L 46.239772 242.461969 
L 47.214784 242.461969 
L 48.189796 242.461969 
L 49.164808 242.461969 
L 50.139821 242.461969 
L 51.114833 242.461969 
L 52.089845 242.461969 
L 53.064857 242.461969 
L 54.039869 242.461969 
L 55.014881 242.461969 
L 55.989894 242.461969 
L 56.964906 242.461969 
L 57.939918 242.461969 
L 58.91493 242.461969 
L 59.889942 242.461969 
L 60.864954 242.364273 
L 61.839966 242.364273 
L 62.814979 242.364273 
L 63.789991 241.869046 
L 64.765003 241.869046 
L 65.740015 241.869046 
L 66.715027 241.869046 
L 67.690039 241.869046 
L 68.665052 234.065929 
L 69.640064 221.811779 
L 70.615076 221.811779 
L 71.590088 221.741699 
L 72.5651 221.741699 
L 73.540112 221.741699 
L 74.515124 218.610456 
L 75.490137 218.610456 
L 76.465149 217.611694 
L 77.440161 207.049031 
L 78.415173 205.432204 
L 79.390185 193.631285 
L 80.365197 193.631285 
L 81.340209 193.631285 
L 82.315222 189.948042 
L 83.290234 189.670485 
L 84.265246 189.670485 
L 85.240258 189.670485 
L 86.21527 189.670485 
L 87.190282 189.829546 
L 88.165295 189.829546 
L 89.140307 190.39185 
L 90.115319 172.973722 
L 91.090331 172.973722 
L 92.065343 172.973722 
L 93.040355 172.973722 
L 94.015367 172.199443 
L 94.99038 170.311665 
L 95.965392 170.120241 
L 96.940404 167.727824 
L 97.915416 158.813174 
L 98.890428 158.813174 
L 99.86544 157.072103 
L 100.840453 157.072103 
L 101.815465 156.090709 
L 102.790477 156.226124 
L 103.765489 148.821575 
L 104.740501 148.114143 
L 105.715513 147.450086 
L 106.690525 147.048256 
L 107.665538 147.048256 
L 108.64055 146.938128 
L 109.615562 146.938128 
L 110.590574 146.938128 
L 111.565586 145.670367 
L 112.540598 144.86733 
L 113.515611 144.525763 
L 114.490623 144.300949 
L 115.465635 144.359429 
L 116.440647 144.307972 
L 117.415659 144.293217 
L 118.390671 144.293217 
L 119.365683 142.86878 
L 120.340696 126.22993 
L 121.315708 112.133287 
L 122.29072 105.831937 
L 123.265732 105.163805 
L 124.240744 105.140735 
L 125.215756 103.8598 
L 126.190769 103.823987 
L 127.165781 91.601778 
L 128.140793 91.537709 
L 129.115805 91.537709 
L 130.090817 92.229569 
L 131.065829 92.229569 
L 132.040841 92.229569 
L 133.015854 92.434663 
L 133.990866 67.701603 
L 134.965878 68.077067 
L 135.94089 68.116311 
L 136.915902 68.146726 
L 137.890914 46.356496 
L 138.865927 48.115456 
L 139.840939 30.781969 
L 140.815951 30.781969 
" clip-path="url(#p19d94dc5bf)" style="fill: none; stroke: #f6cfaf; stroke-width: 2; stroke-linecap: square"/>
   </g>
   <g id="LineCollection_1">
    <path d="M 52.791516 253.045969 
L 52.791516 241.403569 
" clip-path="url(#p19d94dc5bf)" style="fill: none; stroke: #000000; stroke-width: 2"/>
    <path d="M 67.100628 253.045969 
L 67.100628 241.403569 
" clip-path="url(#p19d94dc5bf)" style="fill: none; stroke: #000000; stroke-width: 2"/>
    <path d="M 78.237811 253.045969 
L 78.237811 241.403569 
" clip-path="url(#p19d94dc5bf)" style="fill: none; stroke: #000000; stroke-width: 2"/>
    <path d="M 87.80462 253.045969 
L 87.80462 241.403569 
" clip-path="url(#p19d94dc5bf)" style="fill: none; stroke: #000000; stroke-width: 2"/>
    <path d="M 96.032548 253.045969 
L 96.032548 241.403569 
" clip-path="url(#p19d94dc5bf)" style="fill: none; stroke: #000000; stroke-width: 2"/>
    <path d="M 103.476406 253.045969 
L 103.476406 241.403569 
" clip-path="url(#p19d94dc5bf)" style="fill: none; stroke: #000000; stroke-width: 2"/>
    <path d="M 112.567773 253.045969 
L 112.567773 241.403569 
" clip-path="url(#p19d94dc5bf)" style="fill: none; stroke: #000000; stroke-width: 2"/>
    <path d="M 121.999294 253.045969 
L 121.999294 241.403569 
" clip-path="url(#p19d94dc5bf)" style="fill: none; stroke: #000000; stroke-width: 2"/>
    <path d="M 134.03522 253.045969 
L 134.03522 241.403569 
" clip-path="url(#p19d94dc5bf)" style="fill: none; stroke: #000000; stroke-width: 2"/>
   </g>
   <g id="patch_4">
    <path d="M 39.463438 253.045969 
L 39.463438 20.197969 
" style="fill: none; stroke: #000000; stroke-width: 0.9; stroke-linejoin: miter; stroke-linecap: square"/>
   </g>
   <g id="patch_5">
    <path d="M 39.463438 253.045969 
L 145.642261 253.045969 
" style="fill: none; stroke: #000000; stroke-width: 0.9; stroke-linejoin: miter; stroke-linecap: square"/>
   </g>
  </g>
  <g id="axes_3">
   <g id="patch_6">
    <path d="M 166.878026 253.045969 
L 273.056849 253.045969 
L 273.056849 20.197969 
L 166.878026 20.197969 
z
" style="fill: #ffffff"/>
   </g>
   <g id="matplotlib.axis_3">
    <g id="xtick_4">
     <g id="line2d_20">
      <path d="M 192.388522 253.045969 
L 192.388522 20.197969 
" clip-path="url(#p7086362199)" style="fill: none; stroke-dasharray: 2.59,1.12; stroke-dashoffset: 0; stroke: #b0b0b0; stroke-opacity: 0.18; stroke-width: 0.7"/>
     </g>
     <g id="line2d_21">
      <g>
       <use xlink:href="#m6d7daa30d9" x="192.388522" y="253.045969" style="stroke: #000000; stroke-width: 0.8"/>
      </g>
     </g>
     <g id="text_14">
      <!-- 10 -->
      <g transform="translate(185.389772 267.90425) scale(0.11 -0.11)">
       <use xlink:href="#DejaVuSans-31"/>
       <use xlink:href="#DejaVuSans-30" x="63.623047"/>
      </g>
     </g>
    </g>
    <g id="xtick_5">
     <g id="line2d_22">
      <path d="M 261.33581 253.045969 
L 261.33581 20.197969 
" clip-path="url(#p7086362199)" style="fill: none; stroke-dasharray: 2.59,1.12; stroke-dashoffset: 0; stroke: #b0b0b0; stroke-opacity: 0.18; stroke-width: 0.7"/>
     </g>
     <g id="line2d_23">
      <g>
       <use xlink:href="#m6d7daa30d9" x="261.33581" y="253.045969" style="stroke: #000000; stroke-width: 0.8"/>
      </g>
     </g>
     <g id="text_15">
      <!-- 20 -->
      <g transform="translate(254.33706 267.90425) scale(0.11 -0.11)">
       <use xlink:href="#DejaVuSans-32"/>
       <use xlink:href="#DejaVuSans-30" x="63.623047"/>
      </g>
     </g>
    </g>
    <g id="text_16">
     <!-- mc_Temperature_mean -->
     <g transform="translate(155.651813 282.24425) scale(0.11 -0.11)">
      <use xlink:href="#DejaVuSans-6d"/>
      <use xlink:href="#DejaVuSans-63" x="97.412109"/>
      <use xlink:href="#DejaVuSans-5f" x="152.392578"/>
      <use xlink:href="#DejaVuSans-54" x="202.392578"/>
      <use xlink:href="#DejaVuSans-65" x="246.476562"/>
      <use xlink:href="#DejaVuSans-6d" x="308"/>
      <use xlink:href="#DejaVuSans-70" x="405.412109"/>
      <use xlink:href="#DejaVuSans-65" x="468.888672"/>
      <use xlink:href="#DejaVuSans-72" x="530.412109"/>
      <use xlink:href="#DejaVuSans-61" x="571.525391"/>
      <use xlink:href="#DejaVuSans-74" x="632.804688"/>
      <use xlink:href="#DejaVuSans-75" x="672.013672"/>
      <use xlink:href="#DejaVuSans-72" x="735.392578"/>
      <use xlink:href="#DejaVuSans-65" x="774.255859"/>
      <use xlink:href="#DejaVuSans-5f" x="835.779297"/>
      <use xlink:href="#DejaVuSans-6d" x="885.779297"/>
      <use xlink:href="#DejaVuSans-65" x="983.191406"/>
      <use xlink:href="#DejaVuSans-61" x="1044.714844"/>
      <use xlink:href="#DejaVuSans-6e" x="1105.994141"/>
     </g>
    </g>
   </g>
   <g id="matplotlib.axis_4">
    <g id="ytick_7">
     <g id="line2d_24">
      <path d="M 166.878026 222.494237 
L 273.056849 222.494237 
" clip-path="url(#p7086362199)" style="fill: none; stroke-dasharray: 2.59,1.12; stroke-dashoffset: 0; stroke: #b0b0b0; stroke-opacity: 0.18; stroke-width: 0.7"/>
     </g>
     <g id="line2d_25">
      <g>
       <use xlink:href="#m8854977edf" x="166.878026" y="222.494237" style="stroke: #000000; stroke-width: 0.8"/>
      </g>
     </g>
    </g>
    <g id="ytick_8">
     <g id="line2d_26">
      <path d="M 166.878026 184.301086 
L 273.056849 184.301086 
" clip-path="url(#p7086362199)" style="fill: none; stroke-dasharray: 2.59,1.12; stroke-dashoffset: 0; stroke: #b0b0b0; stroke-opacity: 0.18; stroke-width: 0.7"/>
     </g>
     <g id="line2d_27">
      <g>
       <use xlink:href="#m8854977edf" x="166.878026" y="184.301086" style="stroke: #000000; stroke-width: 0.8"/>
      </g>
     </g>
    </g>
    <g id="ytick_9">
     <g id="line2d_28">
      <path d="M 166.878026 146.107935 
L 273.056849 146.107935 
" clip-path="url(#p7086362199)" style="fill: none; stroke-dasharray: 2.59,1.12; stroke-dashoffset: 0; stroke: #b0b0b0; stroke-opacity: 0.18; stroke-width: 0.7"/>
     </g>
     <g id="line2d_29">
      <g>
       <use xlink:href="#m8854977edf" x="166.878026" y="146.107935" style="stroke: #000000; stroke-width: 0.8"/>
      </g>
     </g>
    </g>
    <g id="ytick_10">
     <g id="line2d_30">
      <path d="M 166.878026 107.914785 
L 273.056849 107.914785 
" clip-path="url(#p7086362199)" style="fill: none; stroke-dasharray: 2.59,1.12; stroke-dashoffset: 0; stroke: #b0b0b0; stroke-opacity: 0.18; stroke-width: 0.7"/>
     </g>
     <g id="line2d_31">
      <g>
       <use xlink:href="#m8854977edf" x="166.878026" y="107.914785" style="stroke: #000000; stroke-width: 0.8"/>
      </g>
     </g>
    </g>
    <g id="ytick_11">
     <g id="line2d_32">
      <path d="M 166.878026 69.721634 
L 273.056849 69.721634 
" clip-path="url(#p7086362199)" style="fill: none; stroke-dasharray: 2.59,1.12; stroke-dashoffset: 0; stroke: #b0b0b0; stroke-opacity: 0.18; stroke-width: 0.7"/>
     </g>
     <g id="line2d_33">
      <g>
       <use xlink:href="#m8854977edf" x="166.878026" y="69.721634" style="stroke: #000000; stroke-width: 0.8"/>
      </g>
     </g>
    </g>
    <g id="ytick_12">
     <g id="line2d_34">
      <path d="M 166.878026 31.528483 
L 273.056849 31.528483 
" clip-path="url(#p7086362199)" style="fill: none; stroke-dasharray: 2.59,1.12; stroke-dashoffset: 0; stroke: #b0b0b0; stroke-opacity: 0.18; stroke-width: 0.7"/>
     </g>
     <g id="line2d_35">
      <g>
       <use xlink:href="#m8854977edf" x="166.878026" y="31.528483" style="stroke: #000000; stroke-width: 0.8"/>
      </g>
     </g>
    </g>
   </g>
   <g id="line2d_36">
    <path d="M 171.704336 151.977858 
L 172.679348 151.648263 
L 173.65436 145.702188 
L 174.629372 153.676965 
L 175.604385 153.676965 
L 176.579397 153.676965 
L 177.554409 153.676965 
L 178.529421 153.676965 
L 179.504433 162.078901 
L 180.479445 160.898563 
L 181.454457 160.898563 
L 182.42947 160.898563 
L 183.404482 160.898563 
L 184.379494 160.898563 
L 185.354506 160.814579 
L 186.329518 161.17119 
L 187.30453 161.17119 
L 188.279543 161.17119 
L 189.254555 161.17119 
L 190.229567 161.17119 
L 191.204579 161.17119 
L 192.179591 161.17119 
L 193.154603 161.296831 
L 194.129615 161.306414 
L 195.104628 161.28532 
L 196.07964 161.28532 
L 197.054652 161.197517 
L 198.029664 161.197517 
L 199.004676 160.935088 
L 199.979688 160.935088 
L 200.954701 160.935088 
L 201.929713 160.935088 
L 202.904725 160.935088 
L 203.879737 160.935088 
L 204.854749 160.935088 
L 205.829761 160.935088 
L 206.804773 160.935088 
L 207.779786 161.509896 
L 208.754798 161.509896 
L 209.72981 163.061389 
L 210.704822 163.061389 
L 211.679834 163.061389 
L 212.654846 163.061389 
L 213.629859 163.061389 
L 214.604871 163.061389 
L 215.579883 163.061389 
L 216.554895 163.041842 
L 217.529907 163.041842 
L 218.504919 163.041842 
L 219.479931 163.041842 
L 220.454944 163.041842 
L 221.429956 162.983006 
L 222.404968 162.533815 
L 223.37998 162.469221 
L 224.354992 162.469221 
L 225.330004 162.469221 
L 226.305016 162.370217 
L 227.280029 162.370217 
L 228.255041 162.370217 
L 229.230053 162.370217 
L 230.205065 162.370217 
L 231.180077 162.370217 
L 232.155089 162.370217 
L 233.130102 162.370217 
L 234.105114 162.370217 
L 235.080126 162.370217 
L 236.055138 162.370217 
L 237.03015 162.370217 
L 238.005162 162.370217 
L 238.980174 162.370217 
L 239.955187 162.370217 
L 240.930199 162.370217 
L 241.905211 162.370217 
L 242.880223 162.370217 
L 243.855235 162.370217 
L 244.830247 162.370217 
L 245.80526 162.370217 
L 246.780272 162.370217 
L 247.755284 162.370217 
L 248.730296 162.370217 
L 249.705308 162.370217 
L 250.68032 162.370217 
L 251.655332 162.370217 
L 252.630345 162.370217 
L 253.605357 162.370217 
L 254.580369 162.370217 
L 255.555381 162.370217 
L 256.530393 162.370217 
L 257.505405 162.370217 
L 258.480418 162.370217 
L 259.45543 162.370217 
L 260.430442 162.370217 
L 261.405454 162.370217 
L 262.380466 162.370217 
L 263.355478 162.370217 
L 264.33049 162.370217 
L 265.305503 162.370217 
L 266.280515 162.370217 
L 267.255527 162.370217 
L 268.230539 162.370217 
" clip-path="url(#p7086362199)" style="fill: none; stroke: #f6cfaf; stroke-width: 2; stroke-linecap: square"/>
   </g>
   <g id="LineCollection_2">
    <path d="M 178.599065 253.045969 
L 178.599065 241.403569 
" clip-path="url(#p7086362199)" style="fill: none; stroke: #000000; stroke-width: 2"/>
    <path d="M 185.493793 253.045969 
L 185.493793 241.403569 
" clip-path="url(#p7086362199)" style="fill: none; stroke: #000000; stroke-width: 2"/>
    <path d="M 192.388522 253.045969 
L 192.388522 241.403569 
" clip-path="url(#p7086362199)" style="fill: none; stroke: #000000; stroke-width: 2"/>
    <path d="M 206.17798 253.045969 
L 206.17798 241.403569 
" clip-path="url(#p7086362199)" style="fill: none; stroke: #000000; stroke-width: 2"/>
    <path d="M 213.072709 253.045969 
L 213.072709 241.403569 
" clip-path="url(#p7086362199)" style="fill: none; stroke: #000000; stroke-width: 2"/>
    <path d="M 219.967438 253.045969 
L 219.967438 241.403569 
" clip-path="url(#p7086362199)" style="fill: none; stroke: #000000; stroke-width: 2"/>
    <path d="M 233.130102 253.045969 
L 233.130102 241.403569 
" clip-path="url(#p7086362199)" style="fill: none; stroke: #000000; stroke-width: 2"/>
    <path d="M 240.651624 253.045969 
L 240.651624 241.403569 
" clip-path="url(#p7086362199)" style="fill: none; stroke: #000000; stroke-width: 2"/>
    <path d="M 254.441082 253.045969 
L 254.441082 241.403569 
" clip-path="url(#p7086362199)" style="fill: none; stroke: #000000; stroke-width: 2"/>
   </g>
   <g id="patch_7">
    <path d="M 166.878026 253.045969 
L 166.878026 20.197969 
" style="fill: none; stroke: #000000; stroke-width: 0.9; stroke-linejoin: miter; stroke-linecap: square"/>
   </g>
   <g id="patch_8">
    <path d="M 166.878026 253.045969 
L 273.056849 253.045969 
" style="fill: none; stroke: #000000; stroke-width: 0.9; stroke-linejoin: miter; stroke-linecap: square"/>
   </g>
  </g>
  <g id="axes_4">
   <g id="patch_9">
    <path d="M 294.292614 253.045969 
L 400.471437 253.045969 
L 400.471437 20.197969 
L 294.292614 20.197969 
z
" style="fill: #ffffff"/>
   </g>
   <g id="matplotlib.axis_5">
    <g id="xtick_6">
     <g id="line2d_37">
      <path d="M 316.965304 253.045969 
L 316.965304 20.197969 
" clip-path="url(#p8690bfd6e0)" style="fill: none; stroke-dasharray: 2.59,1.12; stroke-dashoffset: 0; stroke: #b0b0b0; stroke-opacity: 0.18; stroke-width: 0.7"/>
     </g>
     <g id="line2d_38">
      <g>
       <use xlink:href="#m6d7daa30d9" x="316.965304" y="253.045969" style="stroke: #000000; stroke-width: 0.8"/>
      </g>
     </g>
     <g id="text_17">
      <!-- 0.5 -->
      <g transform="translate(308.218586 267.90425) scale(0.11 -0.11)">
       <use xlink:href="#DejaVuSans-30"/>
       <use xlink:href="#DejaVuSans-2e" x="63.623047"/>
       <use xlink:href="#DejaVuSans-35" x="95.410156"/>
      </g>
     </g>
    </g>
    <g id="xtick_7">
     <g id="line2d_39">
      <path d="M 352.658065 253.045969 
L 352.658065 20.197969 
" clip-path="url(#p8690bfd6e0)" style="fill: none; stroke-dasharray: 2.59,1.12; stroke-dashoffset: 0; stroke: #b0b0b0; stroke-opacity: 0.18; stroke-width: 0.7"/>
     </g>
     <g id="line2d_40">
      <g>
       <use xlink:href="#m6d7daa30d9" x="352.658065" y="253.045969" style="stroke: #000000; stroke-width: 0.8"/>
      </g>
     </g>
     <g id="text_18">
      <!-- 1.0 -->
      <g transform="translate(343.911346 267.90425) scale(0.11 -0.11)">
       <use xlink:href="#DejaVuSans-31"/>
       <use xlink:href="#DejaVuSans-2e" x="63.623047"/>
       <use xlink:href="#DejaVuSans-30" x="95.410156"/>
      </g>
     </g>
    </g>
    <g id="xtick_8">
     <g id="line2d_41">
      <path d="M 388.350825 253.045969 
L 388.350825 20.197969 
" clip-path="url(#p8690bfd6e0)" style="fill: none; stroke-dasharray: 2.59,1.12; stroke-dashoffset: 0; stroke: #b0b0b0; stroke-opacity: 0.18; stroke-width: 0.7"/>
     </g>
     <g id="line2d_42">
      <g>
       <use xlink:href="#m6d7daa30d9" x="388.350825" y="253.045969" style="stroke: #000000; stroke-width: 0.8"/>
      </g>
     </g>
     <g id="text_19">
      <!-- 1.5 -->
      <g transform="translate(379.604106 267.90425) scale(0.11 -0.11)">
       <use xlink:href="#DejaVuSans-31"/>
       <use xlink:href="#DejaVuSans-2e" x="63.623047"/>
       <use xlink:href="#DejaVuSans-35" x="95.410156"/>
      </g>
     </g>
    </g>
    <g id="text_20">
     <!-- mc_WindSpeed_mean -->
     <g transform="translate(286.839916 282.550187) scale(0.11 -0.11)">
      <defs>
       <path id="DejaVuSans-57" d="M 213 4666 
L 850 4666 
L 1831 722 
L 2809 4666 
L 3519 4666 
L 4500 722 
L 5478 4666 
L 6119 4666 
L 4947 0 
L 4153 0 
L 3169 4050 
L 2175 0 
L 1381 0 
L 213 4666 
z
" transform="scale(0.015625)"/>
      </defs>
      <use xlink:href="#DejaVuSans-6d"/>
      <use xlink:href="#DejaVuSans-63" x="97.412109"/>
      <use xlink:href="#DejaVuSans-5f" x="152.392578"/>
      <use xlink:href="#DejaVuSans-57" x="202.392578"/>
      <use xlink:href="#DejaVuSans-69" x="299.019531"/>
      <use xlink:href="#DejaVuSans-6e" x="326.802734"/>
      <use xlink:href="#DejaVuSans-64" x="390.181641"/>
      <use xlink:href="#DejaVuSans-53" x="453.658203"/>
      <use xlink:href="#DejaVuSans-70" x="517.134766"/>
      <use xlink:href="#DejaVuSans-65" x="580.611328"/>
      <use xlink:href="#DejaVuSans-65" x="642.134766"/>
      <use xlink:href="#DejaVuSans-64" x="703.658203"/>
      <use xlink:href="#DejaVuSans-5f" x="767.134766"/>
      <use xlink:href="#DejaVuSans-6d" x="817.134766"/>
      <use xlink:href="#DejaVuSans-65" x="914.546875"/>
      <use xlink:href="#DejaVuSans-61" x="976.070312"/>
      <use xlink:href="#DejaVuSans-6e" x="1037.349609"/>
     </g>
    </g>
   </g>
   <g id="matplotlib.axis_6">
    <g id="ytick_13">
     <g id="line2d_43">
      <path d="M 294.292614 222.494237 
L 400.471437 222.494237 
" clip-path="url(#p8690bfd6e0)" style="fill: none; stroke-dasharray: 2.59,1.12; stroke-dashoffset: 0; stroke: #b0b0b0; stroke-opacity: 0.18; stroke-width: 0.7"/>
     </g>
     <g id="line2d_44">
      <g>
       <use xlink:href="#m8854977edf" x="294.292614" y="222.494237" style="stroke: #000000; stroke-width: 0.8"/>
      </g>
     </g>
    </g>
    <g id="ytick_14">
     <g id="line2d_45">
      <path d="M 294.292614 184.301086 
L 400.471437 184.301086 
" clip-path="url(#p8690bfd6e0)" style="fill: none; stroke-dasharray: 2.59,1.12; stroke-dashoffset: 0; stroke: #b0b0b0; stroke-opacity: 0.18; stroke-width: 0.7"/>
     </g>
     <g id="line2d_46">
      <g>
       <use xlink:href="#m8854977edf" x="294.292614" y="184.301086" style="stroke: #000000; stroke-width: 0.8"/>
      </g>
     </g>
    </g>
    <g id="ytick_15">
     <g id="line2d_47">
      <path d="M 294.292614 146.107935 
L 400.471437 146.107935 
" clip-path="url(#p8690bfd6e0)" style="fill: none; stroke-dasharray: 2.59,1.12; stroke-dashoffset: 0; stroke: #b0b0b0; stroke-opacity: 0.18; stroke-width: 0.7"/>
     </g>
     <g id="line2d_48">
      <g>
       <use xlink:href="#m8854977edf" x="294.292614" y="146.107935" style="stroke: #000000; stroke-width: 0.8"/>
      </g>
     </g>
    </g>
    <g id="ytick_16">
     <g id="line2d_49">
      <path d="M 294.292614 107.914785 
L 400.471437 107.914785 
" clip-path="url(#p8690bfd6e0)" style="fill: none; stroke-dasharray: 2.59,1.12; stroke-dashoffset: 0; stroke: #b0b0b0; stroke-opacity: 0.18; stroke-width: 0.7"/>
     </g>
     <g id="line2d_50">
      <g>
       <use xlink:href="#m8854977edf" x="294.292614" y="107.914785" style="stroke: #000000; stroke-width: 0.8"/>
      </g>
     </g>
    </g>
    <g id="ytick_17">
     <g id="line2d_51">
      <path d="M 294.292614 69.721634 
L 400.471437 69.721634 
" clip-path="url(#p8690bfd6e0)" style="fill: none; stroke-dasharray: 2.59,1.12; stroke-dashoffset: 0; stroke: #b0b0b0; stroke-opacity: 0.18; stroke-width: 0.7"/>
     </g>
     <g id="line2d_52">
      <g>
       <use xlink:href="#m8854977edf" x="294.292614" y="69.721634" style="stroke: #000000; stroke-width: 0.8"/>
      </g>
     </g>
    </g>
    <g id="ytick_18">
     <g id="line2d_53">
      <path d="M 294.292614 31.528483 
L 400.471437 31.528483 
" clip-path="url(#p8690bfd6e0)" style="fill: none; stroke-dasharray: 2.59,1.12; stroke-dashoffset: 0; stroke: #b0b0b0; stroke-opacity: 0.18; stroke-width: 0.7"/>
     </g>
     <g id="line2d_54">
      <g>
       <use xlink:href="#m8854977edf" x="294.292614" y="31.528483" style="stroke: #000000; stroke-width: 0.8"/>
      </g>
     </g>
    </g>
   </g>
   <g id="line2d_55">
    <path d="M 299.118924 164.859508 
L 300.093936 164.866359 
L 301.068948 164.856111 
L 302.043961 163.341717 
L 303.018973 163.341717 
L 303.993985 162.382111 
L 304.968997 162.370739 
L 305.944009 162.370739 
L 306.919021 162.370739 
L 307.894034 158.852183 
L 308.869046 158.211233 
L 309.844058 158.200791 
L 310.81907 158.146598 
L 311.794082 155.222559 
L 312.769094 154.802432 
L 313.744106 155.248923 
L 314.719119 155.248923 
L 315.694131 155.248923 
L 316.669143 155.248923 
L 317.644155 155.872082 
L 318.619167 155.890226 
L 319.594179 155.890226 
L 320.569192 155.890226 
L 321.544204 155.898447 
L 322.519216 155.912807 
L 323.494228 155.92231 
L 324.46924 155.92231 
L 325.444252 155.92231 
L 326.419264 155.92231 
L 327.394277 155.92231 
L 328.369289 156.469449 
L 329.344301 156.469449 
L 330.319313 156.434088 
L 331.294325 156.428181 
L 332.269337 156.428181 
L 333.24435 156.875951 
L 334.219362 157.281081 
L 335.194374 157.231849 
L 336.169386 157.231849 
L 337.144398 156.9622 
L 338.11941 157.372746 
L 339.094422 157.372746 
L 340.069435 157.372746 
L 341.044447 157.372746 
L 342.019459 157.372746 
L 342.994471 157.422639 
L 343.969483 157.177852 
L 344.944495 157.143578 
L 345.919508 157.381873 
L 346.89452 157.650534 
L 347.869532 157.871427 
L 348.844544 157.871427 
L 349.819556 157.128564 
L 350.794568 156.231144 
L 351.76958 156.288697 
L 352.744593 156.518554 
L 353.719605 156.518554 
L 354.694617 156.882598 
L 355.669629 158.212541 
L 356.644641 159.398202 
L 357.619653 159.458437 
L 358.594666 160.146612 
L 359.569678 160.330321 
L 360.54469 160.592082 
L 361.519702 160.679736 
L 362.494714 160.803853 
L 363.469726 160.803853 
L 364.444738 161.080735 
L 365.419751 161.080735 
L 366.394763 161.080735 
L 367.369775 161.080735 
L 368.344787 161.080735 
L 369.319799 161.080735 
L 370.294811 161.080735 
L 371.269823 161.080735 
L 372.244836 161.080735 
L 373.219848 160.479383 
L 374.19486 160.479383 
L 375.169872 160.479383 
L 376.144884 160.479383 
L 377.119896 160.479383 
L 378.094909 160.479383 
L 379.069921 160.479383 
L 380.044933 160.479383 
L 381.019945 160.479383 
L 381.994957 160.479383 
L 382.969969 160.479383 
L 383.944981 160.479383 
L 384.919994 160.479383 
L 385.895006 160.479383 
L 386.870018 160.479383 
L 387.84503 160.479383 
L 388.820042 160.479383 
L 389.795054 160.479383 
L 390.770067 160.479383 
L 391.745079 160.683994 
L 392.720091 160.683994 
L 393.695103 160.683994 
L 394.670115 160.683994 
L 395.645127 160.683994 
" clip-path="url(#p8690bfd6e0)" style="fill: none; stroke: #f6cfaf; stroke-width: 2; stroke-linecap: square"/>
   </g>
   <g id="LineCollection_3">
    <path d="M 303.877959 253.045969 
L 303.877959 241.403569 
" clip-path="url(#p8690bfd6e0)" style="fill: none; stroke: #000000; stroke-width: 2"/>
    <path d="M 313.344112 253.045969 
L 313.344112 241.403569 
" clip-path="url(#p8690bfd6e0)" style="fill: none; stroke: #000000; stroke-width: 2"/>
    <path d="M 321.158694 253.045969 
L 321.158694 241.403569 
" clip-path="url(#p8690bfd6e0)" style="fill: none; stroke: #000000; stroke-width: 2"/>
    <path d="M 328.386988 253.045969 
L 328.386988 241.403569 
" clip-path="url(#p8690bfd6e0)" style="fill: none; stroke: #000000; stroke-width: 2"/>
    <path d="M 336.434083 253.045969 
L 336.434083 241.403569 
" clip-path="url(#p8690bfd6e0)" style="fill: none; stroke: #000000; stroke-width: 2"/>
    <path d="M 345.519513 253.045969 
L 345.519513 241.403569 
" clip-path="url(#p8690bfd6e0)" style="fill: none; stroke: #000000; stroke-width: 2"/>
    <path d="M 353.955983 253.045969 
L 353.955983 241.403569 
" clip-path="url(#p8690bfd6e0)" style="fill: none; stroke: #000000; stroke-width: 2"/>
    <path d="M 366.28621 253.045969 
L 366.28621 241.403569 
" clip-path="url(#p8690bfd6e0)" style="fill: none; stroke: #000000; stroke-width: 2"/>
    <path d="M 381.861232 253.045969 
L 381.861232 241.403569 
" clip-path="url(#p8690bfd6e0)" style="fill: none; stroke: #000000; stroke-width: 2"/>
   </g>
   <g id="patch_10">
    <path d="M 294.292614 253.045969 
L 294.292614 20.197969 
" style="fill: none; stroke: #000000; stroke-width: 0.9; stroke-linejoin: miter; stroke-linecap: square"/>
   </g>
   <g id="patch_11">
    <path d="M 294.292614 253.045969 
L 400.471437 253.045969 
" style="fill: none; stroke: #000000; stroke-width: 0.9; stroke-linejoin: miter; stroke-linecap: square"/>
   </g>
  </g>
 </g>
 <defs>
  <clipPath id="p19d94dc5bf">
   <rect x="39.463438" y="20.197969" width="106.178824" height="232.848"/>
  </clipPath>
  <clipPath id="p7086362199">
   <rect x="166.878026" y="20.197969" width="106.178824" height="232.848"/>
  </clipPath>
  <clipPath id="p8690bfd6e0">
   <rect x="294.292614" y="20.197969" width="106.178824" height="232.848"/>
  </clipPath>
 </defs>
</svg>
