<?xml version="1.0" encoding="utf-8" standalone="no"?>
<!DOCTYPE svg PUBLIC "-//W3C//DTD SVG 1.1//EN"
  "http://www.w3.org/Graphics/SVG/1.1/DTD/svg11.dtd">
<svg xmlns:xlink="http://www.w3.org/1999/xlink" width="479.023438pt" height="300.245844pt" viewBox="0 0 479.023438 300.245844" xmlns="http://www.w3.org/2000/svg" version="1.1">
 <metadata>
  <rdf:RDF xmlns:dc="http://purl.org/dc/elements/1.1/" xmlns:cc="http://creativecommons.org/ns#" xmlns:rdf="http://www.w3.org/1999/02/22-rdf-syntax-ns#">
   <cc:Work>
    <dc:type rdf:resource="http://purl.org/dc/dcmitype/StillImage"/>
    <dc:date>2026-01-20T12:22:25.012195</dc:date>
    <dc:format>image/svg+xml</dc:format>
    <dc:creator>
     <cc:Agent>
      <dc:title>Matplotlib v3.7.2, https://matplotlib.org/</dc:title>
     </cc:Agent>
    </dc:creator>
   </cc:Work>
  </rdf:RDF>
 </metadata>
 <defs>
  <style type="text/css">*{stroke-linejoin: round; stroke-linecap: butt}</style>
 </defs>
 <g id="figure_1">
  <g id="patch_1">
   <path d="M 0 300.245844 
L 479.023438 300.245844 
L 479.023438 0 
L 0 0 
z
" style="fill: #ffffff"/>
  </g>
  <g id="axes_1">
   <g id="patch_2">
    <path d="M 39.463438 264.133969 
L 474.703438 264.133969 
L 474.703438 20.197969 
L 39.463438 20.197969 
z
" style="fill: #ffffff"/>
   </g>
   <g id="PolyCollection_1">
    <defs>
     <path id="m56cfc6ae34" d="M 59.247074 -243.670153 
L 59.247074 -47.199875 
L 76.450236 -47.199875 
L 93.653398 -47.199875 
L 110.85656 -47.199875 
L 128.059722 -47.199875 
L 145.262884 -47.199875 
L 162.466046 -47.199875 
L 179.669208 -47.199875 
L 196.87237 -47.199875 
L 214.075532 -47.199875 
L 231.278694 -47.199875 
L 248.481856 -47.199875 
L 265.685019 -47.199875 
L 282.888181 -47.199875 
L 300.091343 -47.199875 
L 317.294505 -47.199875 
L 334.497667 -47.199875 
L 351.700829 -47.199875 
L 368.903991 -47.199875 
L 386.107153 -47.199875 
L 403.310315 -47.199875 
L 420.513477 -47.199875 
L 437.716639 -47.199875 
L 454.919801 -47.199875 
L 454.919801 -235.053927 
L 454.919801 -235.053927 
L 437.716639 -217.901209 
L 420.513477 -214.958224 
L 403.310315 -192.733051 
L 386.107153 -185.852213 
L 368.903991 -161.772867 
L 351.700829 -176.312132 
L 334.497667 -179.97487 
L 317.294505 -192.126122 
L 300.091343 -179.34874 
L 282.888181 -186.508097 
L 265.685019 -183.700454 
L 248.481856 -189.040914 
L 231.278694 -199.177715 
L 214.075532 -231.156862 
L 196.87237 -255.835686 
L 179.669208 -263.912993 
L 162.466046 -268.959875 
L 145.262884 -266.994432 
L 128.059722 -266.617665 
L 110.85656 -253.722234 
L 93.653398 -245.119222 
L 76.450236 -241.033069 
L 59.247074 -243.670153 
z
"/>
    </defs>
    <g clip-path="url(#p347ce563e1)">
     <use xlink:href="#m56cfc6ae34" x="0" y="300.245844" style="fill: #7fb08f; fill-opacity: 0.18"/>
    </g>
   </g>
   <g id="PolyCollection_2">
    <defs>
     <path id="m7af87dc423" d="M 59.247074 -243.670153 
L 59.247074 -47.199875 
L 76.450236 -47.199875 
L 93.653398 -47.199875 
L 110.85656 -47.199875 
L 128.059722 -47.199875 
L 145.262884 -47.199875 
L 162.466046 -47.199875 
L 179.669208 -47.199875 
L 196.87237 -47.199875 
L 214.075532 -47.199875 
L 231.278694 -47.199875 
L 248.481856 -47.199875 
L 265.685019 -47.199875 
L 282.888181 -47.199875 
L 300.091343 -47.199875 
L 317.294505 -47.199875 
L 334.497667 -47.199875 
L 351.700829 -47.199875 
L 368.903991 -47.199875 
L 386.107153 -47.199875 
L 403.310315 -47.199875 
L 420.513477 -47.199875 
L 437.716639 -47.199875 
L 454.919801 -47.199875 
L 454.919801 -235.053927 
L 454.919801 -235.053927 
L 437.716639 -217.901209 
L 420.513477 -214.958224 
L 403.310315 -192.733051 
L 386.107153 -185.852213 
L 368.903991 -161.772867 
L 351.700829 -176.312132 
L 334.497667 -179.97487 
L 317.294505 -192.126122 
L 300.091343 -179.34874 
L 282.888181 -186.508097 
L 265.685019 -183.700454 
L 248.481856 -189.040914 
L 231.278694 -199.177715 
L 214.075532 -231.156862 
L 196.87237 -255.835686 
L 179.669208 -263.912993 
L 162.466046 -268.959875 
L 145.262884 -266.994432 
L 128.059722 -266.617665 
L 110.85656 -253.722234 
L 93.653398 -245.119222 
L 76.450236 -241.033069 
L 59.247074 -243.670153 
z
"/>
    </defs>
    <g clip-path="url(#p347ce563e1)">
     <use xlink:href="#m7af87dc423" x="0" y="300.245844" style="fill: #7fb08f; fill-opacity: 0.152076"/>
    </g>
   </g>
   <g id="PolyCollection_3">
    <defs>
     <path id="m3e50ef6d81" d="M 59.247074 -243.670153 
L 59.247074 -47.199875 
L 76.450236 -47.199875 
L 93.653398 -47.199875 
L 110.85656 -47.199875 
L 128.059722 -47.199875 
L 145.262884 -47.199875 
L 162.466046 -47.199875 
L 179.669208 -47.199875 
L 196.87237 -47.199875 
L 214.075532 -47.199875 
L 231.278694 -47.199875 
L 248.481856 -47.199875 
L 265.685019 -47.199875 
L 282.888181 -47.199875 
L 300.091343 -47.199875 
L 317.294505 -47.199875 
L 334.497667 -47.199875 
L 351.700829 -47.199875 
L 368.903991 -47.199875 
L 386.107153 -47.199875 
L 403.310315 -47.199875 
L 420.513477 -47.199875 
L 437.716639 -47.199875 
L 454.919801 -47.199875 
L 454.919801 -235.053927 
L 454.919801 -235.053927 
L 437.716639 -217.901209 
L 420.513477 -214.958224 
L 403.310315 -192.733051 
L 386.107153 -185.852213 
L 368.903991 -161.772867 
L 351.700829 -176.312132 
L 334.497667 -179.97487 
L 317.294505 -192.126122 
L 300.091343 -179.34874 
L 282.888181 -186.508097 
L 265.685019 -183.700454 
L 248.481856 -189.040914 
L 231.278694 -199.177715 
L 214.075532 -231.156862 
L 196.87237 -255.835686 
L 179.669208 -263.912993 
L 162.466046 -268.959875 
L 145.262884 -266.994432 
L 128.059722 -266.617665 
L 110.85656 -253.722234 
L 93.653398 -245.119222 
L 76.450236 -241.033069 
L 59.247074 -243.670153 
z
"/>
    </defs>
    <g clip-path="url(#p347ce563e1)">
     <use xlink:href="#m3e50ef6d81" x="0" y="300.245844" style="fill: #7fb08f; fill-opacity: 0.125955"/>
    </g>
   </g>
   <g id="PolyCollection_4">
    <defs>
     <path id="m435d3df351" d="M 59.247074 -243.670153 
L 59.247074 -47.199875 
L 76.450236 -47.199875 
L 93.653398 -47.199875 
L 110.85656 -47.199875 
L 128.059722 -47.199875 
L 145.262884 -47.199875 
L 162.466046 -47.199875 
L 179.669208 -47.199875 
L 196.87237 -47.199875 
L 214.075532 -47.199875 
L 231.278694 -47.199875 
L 248.481856 -47.199875 
L 265.685019 -47.199875 
L 282.888181 -47.199875 
L 300.091343 -47.199875 
L 317.294505 -47.199875 
L 334.497667 -47.199875 
L 351.700829 -47.199875 
L 368.903991 -47.199875 
L 386.107153 -47.199875 
L 403.310315 -47.199875 
L 420.513477 -47.199875 
L 437.716639 -47.199875 
L 454.919801 -47.199875 
L 454.919801 -235.053927 
L 454.919801 -235.053927 
L 437.716639 -217.901209 
L 420.513477 -214.958224 
L 403.310315 -192.733051 
L 386.107153 -185.852213 
L 368.903991 -161.772867 
L 351.700829 -176.312132 
L 334.497667 -179.97487 
L 317.294505 -192.126122 
L 300.091343 -179.34874 
L 282.888181 -186.508097 
L 265.685019 -183.700454 
L 248.481856 -189.040914 
L 231.278694 -199.177715 
L 214.075532 -231.156862 
L 196.87237 -255.835686 
L 179.669208 -263.912993 
L 162.466046 -268.959875 
L 145.262884 -266.994432 
L 128.059722 -266.617665 
L 110.85656 -253.722234 
L 93.653398 -245.119222 
L 76.450236 -241.033069 
L 59.247074 -243.670153 
z
"/>
    </defs>
    <g clip-path="url(#p347ce563e1)">
     <use xlink:href="#m435d3df351" x="0" y="300.245844" style="fill: #7fb08f; fill-opacity: 0.101725"/>
    </g>
   </g>
   <g id="PolyCollection_5">
    <defs>
     <path id="m7bce1b2306" d="M 59.247074 -243.670153 
L 59.247074 -47.199875 
L 76.450236 -47.199875 
L 93.653398 -47.199875 
L 110.85656 -47.199875 
L 128.059722 -47.199875 
L 145.262884 -47.199875 
L 162.466046 -47.199875 
L 179.669208 -47.199875 
L 196.87237 -47.199875 
L 214.075532 -47.199875 
L 231.278694 -47.199875 
L 248.481856 -47.199875 
L 265.685019 -47.199875 
L 282.888181 -47.199875 
L 300.091343 -47.199875 
L 317.294505 -47.199875 
L 334.497667 -47.199875 
L 351.700829 -47.199875 
L 368.903991 -47.199875 
L 386.107153 -47.199875 
L 403.310315 -47.199875 
L 420.513477 -47.199875 
L 437.716639 -47.199875 
L 454.919801 -47.199875 
L 454.919801 -235.053927 
L 454.919801 -235.053927 
L 437.716639 -217.901209 
L 420.513477 -214.958224 
L 403.310315 -192.733051 
L 386.107153 -185.852213 
L 368.903991 -161.772867 
L 351.700829 -176.312132 
L 334.497667 -179.97487 
L 317.294505 -192.126122 
L 300.091343 -179.34874 
L 282.888181 -186.508097 
L 265.685019 -183.700454 
L 248.481856 -189.040914 
L 231.278694 -199.177715 
L 214.075532 -231.156862 
L 196.87237 -255.835686 
L 179.669208 -263.912993 
L 162.466046 -268.959875 
L 145.262884 -266.994432 
L 128.059722 -266.617665 
L 110.85656 -253.722234 
L 93.653398 -245.119222 
L 76.450236 -241.033069 
L 59.247074 -243.670153 
z
"/>
    </defs>
    <g clip-path="url(#p347ce563e1)">
     <use xlink:href="#m7bce1b2306" x="0" y="300.245844" style="fill: #7fb08f; fill-opacity: 0.07949"/>
    </g>
   </g>
   <g id="PolyCollection_6">
    <defs>
     <path id="m2df87437b6" d="M 59.247074 -243.670153 
L 59.247074 -47.199875 
L 76.450236 -47.199875 
L 93.653398 -47.199875 
L 110.85656 -47.199875 
L 128.059722 -47.199875 
L 145.262884 -47.199875 
L 162.466046 -47.199875 
L 179.669208 -47.199875 
L 196.87237 -47.199875 
L 214.075532 -47.199875 
L 231.278694 -47.199875 
L 248.481856 -47.199875 
L 265.685019 -47.199875 
L 282.888181 -47.199875 
L 300.091343 -47.199875 
L 317.294505 -47.199875 
L 334.497667 -47.199875 
L 351.700829 -47.199875 
L 368.903991 -47.199875 
L 386.107153 -47.199875 
L 403.310315 -47.199875 
L 420.513477 -47.199875 
L 437.716639 -47.199875 
L 454.919801 -47.199875 
L 454.919801 -235.053927 
L 454.919801 -235.053927 
L 437.716639 -217.901209 
L 420.513477 -214.958224 
L 403.310315 -192.733051 
L 386.107153 -185.852213 
L 368.903991 -161.772867 
L 351.700829 -176.312132 
L 334.497667 -179.97487 
L 317.294505 -192.126122 
L 300.091343 -179.34874 
L 282.888181 -186.508097 
L 265.685019 -183.700454 
L 248.481856 -189.040914 
L 231.278694 -199.177715 
L 214.075532 -231.156862 
L 196.87237 -255.835686 
L 179.669208 -263.912993 
L 162.466046 -268.959875 
L 145.262884 -266.994432 
L 128.059722 -266.617665 
L 110.85656 -253.722234 
L 93.653398 -245.119222 
L 76.450236 -241.033069 
L 59.247074 -243.670153 
z
"/>
    </defs>
    <g clip-path="url(#p347ce563e1)">
     <use xlink:href="#m2df87437b6" x="0" y="300.245844" style="fill: #7fb08f; fill-opacity: 0.059378"/>
    </g>
   </g>
   <g id="PolyCollection_7">
    <defs>
     <path id="m7192f4f82c" d="M 59.247074 -243.670153 
L 59.247074 -47.199875 
L 76.450236 -47.199875 
L 93.653398 -47.199875 
L 110.85656 -47.199875 
L 128.059722 -47.199875 
L 145.262884 -47.199875 
L 162.466046 -47.199875 
L 179.669208 -47.199875 
L 196.87237 -47.199875 
L 214.075532 -47.199875 
L 231.278694 -47.199875 
L 248.481856 -47.199875 
L 265.685019 -47.199875 
L 282.888181 -47.199875 
L 300.091343 -47.199875 
L 317.294505 -47.199875 
L 334.497667 -47.199875 
L 351.700829 -47.199875 
L 368.903991 -47.199875 
L 386.107153 -47.199875 
L 403.310315 -47.199875 
L 420.513477 -47.199875 
L 437.716639 -47.199875 
L 454.919801 -47.199875 
L 454.919801 -235.053927 
L 454.919801 -235.053927 
L 437.716639 -217.901209 
L 420.513477 -214.958224 
L 403.310315 -192.733051 
L 386.107153 -185.852213 
L 368.903991 -161.772867 
L 351.700829 -176.312132 
L 334.497667 -179.97487 
L 317.294505 -192.126122 
L 300.091343 -179.34874 
L 282.888181 -186.508097 
L 265.685019 -183.700454 
L 248.481856 -189.040914 
L 231.278694 -199.177715 
L 214.075532 -231.156862 
L 196.87237 -255.835686 
L 179.669208 -263.912993 
L 162.466046 -268.959875 
L 145.262884 -266.994432 
L 128.059722 -266.617665 
L 110.85656 -253.722234 
L 93.653398 -245.119222 
L 76.450236 -241.033069 
L 59.247074 -243.670153 
z
"/>
    </defs>
    <g clip-path="url(#p347ce563e1)">
     <use xlink:href="#m7192f4f82c" x="0" y="300.245844" style="fill: #7fb08f; fill-opacity: 0.04155"/>
    </g>
   </g>
   <g id="PolyCollection_8">
    <defs>
     <path id="m9a8cba0171" d="M 59.247074 -243.670153 
L 59.247074 -47.199875 
L 76.450236 -47.199875 
L 93.653398 -47.199875 
L 110.85656 -47.199875 
L 128.059722 -47.199875 
L 145.262884 -47.199875 
L 162.466046 -47.199875 
L 179.669208 -47.199875 
L 196.87237 -47.199875 
L 214.075532 -47.199875 
L 231.278694 -47.199875 
L 248.481856 -47.199875 
L 265.685019 -47.199875 
L 282.888181 -47.199875 
L 300.091343 -47.199875 
L 317.294505 -47.199875 
L 334.497667 -47.199875 
L 351.700829 -47.199875 
L 368.903991 -47.199875 
L 386.107153 -47.199875 
L 403.310315 -47.199875 
L 420.513477 -47.199875 
L 437.716639 -47.199875 
L 454.919801 -47.199875 
L 454.919801 -235.053927 
L 454.919801 -235.053927 
L 437.716639 -217.901209 
L 420.513477 -214.958224 
L 403.310315 -192.733051 
L 386.107153 -185.852213 
L 368.903991 -161.772867 
L 351.700829 -176.312132 
L 334.497667 -179.97487 
L 317.294505 -192.126122 
L 300.091343 -179.34874 
L 282.888181 -186.508097 
L 265.685019 -183.700454 
L 248.481856 -189.040914 
L 231.278694 -199.177715 
L 214.075532 -231.156862 
L 196.87237 -255.835686 
L 179.669208 -263.912993 
L 162.466046 -268.959875 
L 145.262884 -266.994432 
L 128.059722 -266.617665 
L 110.85656 -253.722234 
L 93.653398 -245.119222 
L 76.450236 -241.033069 
L 59.247074 -243.670153 
z
"/>
    </defs>
    <g clip-path="url(#p347ce563e1)">
     <use xlink:href="#m9a8cba0171" x="0" y="300.245844" style="fill: #7fb08f; fill-opacity: 0.026222"/>
    </g>
   </g>
   <g id="PolyCollection_9">
    <defs>
     <path id="m29ead61465" d="M 59.247074 -243.670153 
L 59.247074 -47.199875 
L 76.450236 -47.199875 
L 93.653398 -47.199875 
L 110.85656 -47.199875 
L 128.059722 -47.199875 
L 145.262884 -47.199875 
L 162.466046 -47.199875 
L 179.669208 -47.199875 
L 196.87237 -47.199875 
L 214.075532 -47.199875 
L 231.278694 -47.199875 
L 248.481856 -47.199875 
L 265.685019 -47.199875 
L 282.888181 -47.199875 
L 300.091343 -47.199875 
L 317.294505 -47.199875 
L 334.497667 -47.199875 
L 351.700829 -47.199875 
L 368.903991 -47.199875 
L 386.107153 -47.199875 
L 403.310315 -47.199875 
L 420.513477 -47.199875 
L 437.716639 -47.199875 
L 454.919801 -47.199875 
L 454.919801 -235.053927 
L 454.919801 -235.053927 
L 437.716639 -217.901209 
L 420.513477 -214.958224 
L 403.310315 -192.733051 
L 386.107153 -185.852213 
L 368.903991 -161.772867 
L 351.700829 -176.312132 
L 334.497667 -179.97487 
L 317.294505 -192.126122 
L 300.091343 -179.34874 
L 282.888181 -186.508097 
L 265.685019 -183.700454 
L 248.481856 -189.040914 
L 231.278694 -199.177715 
L 214.075532 -231.156862 
L 196.87237 -255.835686 
L 179.669208 -263.912993 
L 162.466046 -268.959875 
L 145.262884 -266.994432 
L 128.059722 -266.617665 
L 110.85656 -253.722234 
L 93.653398 -245.119222 
L 76.450236 -241.033069 
L 59.247074 -243.670153 
z
"/>
    </defs>
    <g clip-path="url(#p347ce563e1)">
     <use xlink:href="#m29ead61465" x="0" y="300.245844" style="fill: #7fb08f; fill-opacity: 0.013706"/>
    </g>
   </g>
   <g id="PolyCollection_10">
    <defs>
     <path id="me92455ce1f" d="M 59.247074 -243.670153 
L 59.247074 -47.199875 
L 76.450236 -47.199875 
L 93.653398 -47.199875 
L 110.85656 -47.199875 
L 128.059722 -47.199875 
L 145.262884 -47.199875 
L 162.466046 -47.199875 
L 179.669208 -47.199875 
L 196.87237 -47.199875 
L 214.075532 -47.199875 
L 231.278694 -47.199875 
L 248.481856 -47.199875 
L 265.685019 -47.199875 
L 282.888181 -47.199875 
L 300.091343 -47.199875 
L 317.294505 -47.199875 
L 334.497667 -47.199875 
L 351.700829 -47.199875 
L 368.903991 -47.199875 
L 386.107153 -47.199875 
L 403.310315 -47.199875 
L 420.513477 -47.199875 
L 437.716639 -47.199875 
L 454.919801 -47.199875 
L 454.919801 -235.053927 
L 454.919801 -235.053927 
L 437.716639 -217.901209 
L 420.513477 -214.958224 
L 403.310315 -192.733051 
L 386.107153 -185.852213 
L 368.903991 -161.772867 
L 351.700829 -176.312132 
L 334.497667 -179.97487 
L 317.294505 -192.126122 
L 300.091343 -179.34874 
L 282.888181 -186.508097 
L 265.685019 -183.700454 
L 248.481856 -189.040914 
L 231.278694 -199.177715 
L 214.075532 -231.156862 
L 196.87237 -255.835686 
L 179.669208 -263.912993 
L 162.466046 -268.959875 
L 145.262884 -266.994432 
L 128.059722 -266.617665 
L 110.85656 -253.722234 
L 93.653398 -245.119222 
L 76.450236 -241.033069 
L 59.247074 -243.670153 
z
"/>
    </defs>
    <g clip-path="url(#p347ce563e1)">
     <use xlink:href="#me92455ce1f" x="0" y="300.245844" style="fill: #7fb08f; fill-opacity: 0.004521"/>
    </g>
   </g>
   <g id="matplotlib.axis_1">
    <g id="xtick_1">
     <g id="line2d_1">
      <path d="M 59.247074 264.133969 
L 59.247074 20.197969 
" clip-path="url(#p347ce563e1)" style="fill: none; stroke-dasharray: 2.59,1.12; stroke-dashoffset: 0; stroke: #b0b0b0; stroke-opacity: 0.18; stroke-width: 0.7"/>
     </g>
     <g id="line2d_2">
      <defs>
       <path id="m125f76e2ae" d="M 0 0 
L 0 3 
" style="stroke: #000000; stroke-width: 0.8"/>
      </defs>
      <g>
       <use xlink:href="#m125f76e2ae" x="59.247074" y="264.133969" style="stroke: #000000; stroke-width: 0.8"/>
      </g>
     </g>
     <g id="text_1">
      <!-- 0 -->
      <g transform="translate(55.747699 278.99225) scale(0.11 -0.11)">
       <defs>
        <path id="DejaVuSans-30" d="M 2034 4250 
Q 1547 4250 1301 3770 
Q 1056 3291 1056 2328 
Q 1056 1369 1301 889 
Q 1547 409 2034 409 
Q 2525 409 2770 889 
Q 3016 1369 3016 2328 
Q 3016 3291 2770 3770 
Q 2525 4250 2034 4250 
z
M 2034 4750 
Q 2819 4750 3233 4129 
Q 3647 3509 3647 2328 
Q 3647 1150 3233 529 
Q 2819 -91 2034 -91 
Q 1250 -91 836 529 
Q 422 1150 422 2328 
Q 422 3509 836 4129 
Q 1250 4750 2034 4750 
z
" transform="scale(0.015625)"/>
       </defs>
       <use xlink:href="#DejaVuSans-30"/>
      </g>
     </g>
    </g>
    <g id="xtick_2">
     <g id="line2d_3">
      <path d="M 145.262884 264.133969 
L 145.262884 20.197969 
" clip-path="url(#p347ce563e1)" style="fill: none; stroke-dasharray: 2.59,1.12; stroke-dashoffset: 0; stroke: #b0b0b0; stroke-opacity: 0.18; stroke-width: 0.7"/>
     </g>
     <g id="line2d_4">
      <g>
       <use xlink:href="#m125f76e2ae" x="145.262884" y="264.133969" style="stroke: #000000; stroke-width: 0.8"/>
      </g>
     </g>
     <g id="text_2">
      <!-- 5 -->
      <g transform="translate(141.763509 278.99225) scale(0.11 -0.11)">
       <defs>
        <path id="DejaVuSans-35" d="M 691 4666 
L 3169 4666 
L 3169 4134 
L 1269 4134 
L 1269 2991 
Q 1406 3038 1543 3061 
Q 1681 3084 1819 3084 
Q 2600 3084 3056 2656 
Q 3513 2228 3513 1497 
Q 3513 744 3044 326 
Q 2575 -91 1722 -91 
Q 1428 -91 1123 -41 
Q 819 9 494 109 
L 494 744 
Q 775 591 1075 516 
Q 1375 441 1709 441 
Q 2250 441 2565 725 
Q 2881 1009 2881 1497 
Q 2881 1984 2565 2268 
Q 2250 2553 1709 2553 
Q 1456 2553 1204 2497 
Q 953 2441 691 2322 
L 691 4666 
z
" transform="scale(0.015625)"/>
       </defs>
       <use xlink:href="#DejaVuSans-35"/>
      </g>
     </g>
    </g>
    <g id="xtick_3">
     <g id="line2d_5">
      <path d="M 231.278694 264.133969 
L 231.278694 20.197969 
" clip-path="url(#p347ce563e1)" style="fill: none; stroke-dasharray: 2.59,1.12; stroke-dashoffset: 0; stroke: #b0b0b0; stroke-opacity: 0.18; stroke-width: 0.7"/>
     </g>
     <g id="line2d_6">
      <g>
       <use xlink:href="#m125f76e2ae" x="231.278694" y="264.133969" style="stroke: #000000; stroke-width: 0.8"/>
      </g>
     </g>
     <g id="text_3">
      <!-- 10 -->
      <g transform="translate(224.279944 278.99225) scale(0.11 -0.11)">
       <defs>
        <path id="DejaVuSans-31" d="M 794 531 
L 1825 531 
L 1825 4091 
L 703 3866 
L 703 4441 
L 1819 4666 
L 2450 4666 
L 2450 531 
L 3481 531 
L 3481 0 
L 794 0 
L 794 531 
z
" transform="scale(0.015625)"/>
       </defs>
       <use xlink:href="#DejaVuSans-31"/>
       <use xlink:href="#DejaVuSans-30" x="63.623047"/>
      </g>
     </g>
    </g>
    <g id="xtick_4">
     <g id="line2d_7">
      <path d="M 317.294505 264.133969 
L 317.294505 20.197969 
" clip-path="url(#p347ce563e1)" style="fill: none; stroke-dasharray: 2.59,1.12; stroke-dashoffset: 0; stroke: #b0b0b0; stroke-opacity: 0.18; stroke-width: 0.7"/>
     </g>
     <g id="line2d_8">
      <g>
       <use xlink:href="#m125f76e2ae" x="317.294505" y="264.133969" style="stroke: #000000; stroke-width: 0.8"/>
      </g>
     </g>
     <g id="text_4">
      <!-- 15 -->
      <g transform="translate(310.295755 278.99225) scale(0.11 -0.11)">
       <use xlink:href="#DejaVuSans-31"/>
       <use xlink:href="#DejaVuSans-35" x="63.623047"/>
      </g>
     </g>
    </g>
    <g id="xtick_5">
     <g id="line2d_9">
      <path d="M 403.310315 264.133969 
L 403.310315 20.197969 
" clip-path="url(#p347ce563e1)" style="fill: none; stroke-dasharray: 2.59,1.12; stroke-dashoffset: 0; stroke: #b0b0b0; stroke-opacity: 0.18; stroke-width: 0.7"/>
     </g>
     <g id="line2d_10">
      <g>
       <use xlink:href="#m125f76e2ae" x="403.310315" y="264.133969" style="stroke: #000000; stroke-width: 0.8"/>
      </g>
     </g>
     <g id="text_5">
      <!-- 20 -->
      <g transform="translate(396.311565 278.99225) scale(0.11 -0.11)">
       <defs>
        <path id="DejaVuSans-32" d="M 1228 531 
L 3431 531 
L 3431 0 
L 469 0 
L 469 531 
Q 828 903 1448 1529 
Q 2069 2156 2228 2338 
Q 2531 2678 2651 2914 
Q 2772 3150 2772 3378 
Q 2772 3750 2511 3984 
Q 2250 4219 1831 4219 
Q 1534 4219 1204 4116 
Q 875 4013 500 3803 
L 500 4441 
Q 881 4594 1212 4672 
Q 1544 4750 1819 4750 
Q 2544 4750 2975 4387 
Q 3406 4025 3406 3419 
Q 3406 3131 3298 2873 
Q 3191 2616 2906 2266 
Q 2828 2175 2409 1742 
Q 1991 1309 1228 531 
z
" transform="scale(0.015625)"/>
       </defs>
       <use xlink:href="#DejaVuSans-32"/>
       <use xlink:href="#DejaVuSans-30" x="63.623047"/>
      </g>
     </g>
    </g>
    <g id="text_6">
     <!-- Hour of day -->
     <g transform="translate(224.920469 293.638187) scale(0.11 -0.11)">
      <defs>
       <path id="DejaVuSans-48" d="M 628 4666 
L 1259 4666 
L 1259 2753 
L 3553 2753 
L 3553 4666 
L 4184 4666 
L 4184 0 
L 3553 0 
L 3553 2222 
L 1259 2222 
L 1259 0 
L 628 0 
L 628 4666 
z
" transform="scale(0.015625)"/>
       <path id="DejaVuSans-6f" d="M 1959 3097 
Q 1497 3097 1228 2736 
Q 959 2375 959 1747 
Q 959 1119 1226 758 
Q 1494 397 1959 397 
Q 2419 397 2687 759 
Q 2956 1122 2956 1747 
Q 2956 2369 2687 2733 
Q 2419 3097 1959 3097 
z
M 1959 3584 
Q 2709 3584 3137 3096 
Q 3566 2609 3566 1747 
Q 3566 888 3137 398 
Q 2709 -91 1959 -91 
Q 1206 -91 779 398 
Q 353 888 353 1747 
Q 353 2609 779 3096 
Q 1206 3584 1959 3584 
z
" transform="scale(0.015625)"/>
       <path id="DejaVuSans-75" d="M 544 1381 
L 544 3500 
L 1119 3500 
L 1119 1403 
Q 1119 906 1312 657 
Q 1506 409 1894 409 
Q 2359 409 2629 706 
Q 2900 1003 2900 1516 
L 2900 3500 
L 3475 3500 
L 3475 0 
L 2900 0 
L 2900 538 
Q 2691 219 2414 64 
Q 2138 -91 1772 -91 
Q 1169 -91 856 284 
Q 544 659 544 1381 
z
M 1991 3584 
L 1991 3584 
z
" transform="scale(0.015625)"/>
       <path id="DejaVuSans-72" d="M 2631 2963 
Q 2534 3019 2420 3045 
Q 2306 3072 2169 3072 
Q 1681 3072 1420 2755 
Q 1159 2438 1159 1844 
L 1159 0 
L 581 0 
L 581 3500 
L 1159 3500 
L 1159 2956 
Q 1341 3275 1631 3429 
Q 1922 3584 2338 3584 
Q 2397 3584 2469 3576 
Q 2541 3569 2628 3553 
L 2631 2963 
z
" transform="scale(0.015625)"/>
       <path id="DejaVuSans-20" transform="scale(0.015625)"/>
       <path id="DejaVuSans-66" d="M 2375 4863 
L 2375 4384 
L 1825 4384 
Q 1516 4384 1395 4259 
Q 1275 4134 1275 3809 
L 1275 3500 
L 2222 3500 
L 2222 3053 
L 1275 3053 
L 1275 0 
L 697 0 
L 697 3053 
L 147 3053 
L 147 3500 
L 697 3500 
L 697 3744 
Q 697 4328 969 4595 
Q 1241 4863 1831 4863 
L 2375 4863 
z
" transform="scale(0.015625)"/>
       <path id="DejaVuSans-64" d="M 2906 2969 
L 2906 4863 
L 3481 4863 
L 3481 0 
L 2906 0 
L 2906 525 
Q 2725 213 2448 61 
Q 2172 -91 1784 -91 
Q 1150 -91 751 415 
Q 353 922 353 1747 
Q 353 2572 751 3078 
Q 1150 3584 1784 3584 
Q 2172 3584 2448 3432 
Q 2725 3281 2906 2969 
z
M 947 1747 
Q 947 1113 1208 752 
Q 1469 391 1925 391 
Q 2381 391 2643 752 
Q 2906 1113 2906 1747 
Q 2906 2381 2643 2742 
Q 2381 3103 1925 3103 
Q 1469 3103 1208 2742 
Q 947 2381 947 1747 
z
" transform="scale(0.015625)"/>
       <path id="DejaVuSans-61" d="M 2194 1759 
Q 1497 1759 1228 1600 
Q 959 1441 959 1056 
Q 959 750 1161 570 
Q 1363 391 1709 391 
Q 2188 391 2477 730 
Q 2766 1069 2766 1631 
L 2766 1759 
L 2194 1759 
z
M 3341 1997 
L 3341 0 
L 2766 0 
L 2766 531 
Q 2569 213 2275 61 
Q 1981 -91 1556 -91 
Q 1019 -91 701 211 
Q 384 513 384 1019 
Q 384 1609 779 1909 
Q 1175 2209 1959 2209 
L 2766 2209 
L 2766 2266 
Q 2766 2663 2505 2880 
Q 2244 3097 1772 3097 
Q 1472 3097 1187 3025 
Q 903 2953 641 2809 
L 641 3341 
Q 956 3463 1253 3523 
Q 1550 3584 1831 3584 
Q 2591 3584 2966 3190 
Q 3341 2797 3341 1997 
z
" transform="scale(0.015625)"/>
       <path id="DejaVuSans-79" d="M 2059 -325 
Q 1816 -950 1584 -1140 
Q 1353 -1331 966 -1331 
L 506 -1331 
L 506 -850 
L 844 -850 
Q 1081 -850 1212 -737 
Q 1344 -625 1503 -206 
L 1606 56 
L 191 3500 
L 800 3500 
L 1894 763 
L 2988 3500 
L 3597 3500 
L 2059 -325 
z
" transform="scale(0.015625)"/>
      </defs>
      <use xlink:href="#DejaVuSans-48"/>
      <use xlink:href="#DejaVuSans-6f" x="75.195312"/>
      <use xlink:href="#DejaVuSans-75" x="136.376953"/>
      <use xlink:href="#DejaVuSans-72" x="199.755859"/>
      <use xlink:href="#DejaVuSans-20" x="240.869141"/>
      <use xlink:href="#DejaVuSans-6f" x="272.65625"/>
      <use xlink:href="#DejaVuSans-66" x="333.837891"/>
      <use xlink:href="#DejaVuSans-20" x="369.042969"/>
      <use xlink:href="#DejaVuSans-64" x="400.830078"/>
      <use xlink:href="#DejaVuSans-61" x="464.306641"/>
      <use xlink:href="#DejaVuSans-79" x="525.585938"/>
     </g>
    </g>
   </g>
   <g id="matplotlib.axis_2">
    <g id="ytick_1">
     <g id="line2d_11">
      <path d="M 39.463438 253.045969 
L 474.703438 253.045969 
" clip-path="url(#p347ce563e1)" style="fill: none; stroke-dasharray: 2.59,1.12; stroke-dashoffset: 0; stroke: #b0b0b0; stroke-opacity: 0.18; stroke-width: 0.7"/>
     </g>
     <g id="line2d_12">
      <defs>
       <path id="m97f7e35a27" d="M 0 0 
L -3 0 
" style="stroke: #000000; stroke-width: 0.8"/>
      </defs>
      <g>
       <use xlink:href="#m97f7e35a27" x="39.463438" y="253.045969" style="stroke: #000000; stroke-width: 0.8"/>
      </g>
     </g>
     <g id="text_7">
      <!-- 0 -->
      <g transform="translate(25.964688 257.225109) scale(0.11 -0.11)">
       <use xlink:href="#DejaVuSans-30"/>
      </g>
     </g>
    </g>
    <g id="ytick_2">
     <g id="line2d_13">
      <path d="M 39.463438 210.687987 
L 474.703438 210.687987 
" clip-path="url(#p347ce563e1)" style="fill: none; stroke-dasharray: 2.59,1.12; stroke-dashoffset: 0; stroke: #b0b0b0; stroke-opacity: 0.18; stroke-width: 0.7"/>
     </g>
     <g id="line2d_14">
      <g>
       <use xlink:href="#m97f7e35a27" x="39.463438" y="210.687987" style="stroke: #000000; stroke-width: 0.8"/>
      </g>
     </g>
     <g id="text_8">
      <!-- 5 -->
      <g transform="translate(25.964688 214.867128) scale(0.11 -0.11)">
       <use xlink:href="#DejaVuSans-35"/>
      </g>
     </g>
    </g>
    <g id="ytick_3">
     <g id="line2d_15">
      <path d="M 39.463438 168.330006 
L 474.703438 168.330006 
" clip-path="url(#p347ce563e1)" style="fill: none; stroke-dasharray: 2.59,1.12; stroke-dashoffset: 0; stroke: #b0b0b0; stroke-opacity: 0.18; stroke-width: 0.7"/>
     </g>
     <g id="line2d_16">
      <g>
       <use xlink:href="#m97f7e35a27" x="39.463438" y="168.330006" style="stroke: #000000; stroke-width: 0.8"/>
      </g>
     </g>
     <g id="text_9">
      <!-- 10 -->
      <g transform="translate(18.965938 172.509146) scale(0.11 -0.11)">
       <use xlink:href="#DejaVuSans-31"/>
       <use xlink:href="#DejaVuSans-30" x="63.623047"/>
      </g>
     </g>
    </g>
    <g id="ytick_4">
     <g id="line2d_17">
      <path d="M 39.463438 125.972024 
L 474.703438 125.972024 
" clip-path="url(#p347ce563e1)" style="fill: none; stroke-dasharray: 2.59,1.12; stroke-dashoffset: 0; stroke: #b0b0b0; stroke-opacity: 0.18; stroke-width: 0.7"/>
     </g>
     <g id="line2d_18">
      <g>
       <use xlink:href="#m97f7e35a27" x="39.463438" y="125.972024" style="stroke: #000000; stroke-width: 0.8"/>
      </g>
     </g>
     <g id="text_10">
      <!-- 15 -->
      <g transform="translate(18.965938 130.151165) scale(0.11 -0.11)">
       <use xlink:href="#DejaVuSans-31"/>
       <use xlink:href="#DejaVuSans-35" x="63.623047"/>
      </g>
     </g>
    </g>
    <g id="ytick_5">
     <g id="line2d_19">
      <path d="M 39.463438 83.614043 
L 474.703438 83.614043 
" clip-path="url(#p347ce563e1)" style="fill: none; stroke-dasharray: 2.59,1.12; stroke-dashoffset: 0; stroke: #b0b0b0; stroke-opacity: 0.18; stroke-width: 0.7"/>
     </g>
     <g id="line2d_20">
      <g>
       <use xlink:href="#m97f7e35a27" x="39.463438" y="83.614043" style="stroke: #000000; stroke-width: 0.8"/>
      </g>
     </g>
     <g id="text_11">
      <!-- 20 -->
      <g transform="translate(18.965938 87.793183) scale(0.11 -0.11)">
       <use xlink:href="#DejaVuSans-32"/>
       <use xlink:href="#DejaVuSans-30" x="63.623047"/>
      </g>
     </g>
    </g>
    <g id="ytick_6">
     <g id="line2d_21">
      <path d="M 39.463438 41.256061 
L 474.703438 41.256061 
" clip-path="url(#p347ce563e1)" style="fill: none; stroke-dasharray: 2.59,1.12; stroke-dashoffset: 0; stroke: #b0b0b0; stroke-opacity: 0.18; stroke-width: 0.7"/>
     </g>
     <g id="line2d_22">
      <g>
       <use xlink:href="#m97f7e35a27" x="39.463438" y="41.256061" style="stroke: #000000; stroke-width: 0.8"/>
      </g>
     </g>
     <g id="text_12">
      <!-- 25 -->
      <g transform="translate(18.965938 45.435202) scale(0.11 -0.11)">
       <use xlink:href="#DejaVuSans-32"/>
       <use xlink:href="#DejaVuSans-35" x="63.623047"/>
      </g>
     </g>
    </g>
    <g id="text_13">
     <!-- Mean E -->
     <g transform="translate(12.678281 162.375031) rotate(-90) scale(0.11 -0.11)">
      <defs>
       <path id="DejaVuSans-4d" d="M 628 4666 
L 1569 4666 
L 2759 1491 
L 3956 4666 
L 4897 4666 
L 4897 0 
L 4281 0 
L 4281 4097 
L 3078 897 
L 2444 897 
L 1241 4097 
L 1241 0 
L 628 0 
L 628 4666 
z
" transform="scale(0.015625)"/>
       <path id="DejaVuSans-65" d="M 3597 1894 
L 3597 1613 
L 953 1613 
Q 991 1019 1311 708 
Q 1631 397 2203 397 
Q 2534 397 2845 478 
Q 3156 559 3463 722 
L 3463 178 
Q 3153 47 2828 -22 
Q 2503 -91 2169 -91 
Q 1331 -91 842 396 
Q 353 884 353 1716 
Q 353 2575 817 3079 
Q 1281 3584 2069 3584 
Q 2775 3584 3186 3129 
Q 3597 2675 3597 1894 
z
M 3022 2063 
Q 3016 2534 2758 2815 
Q 2500 3097 2075 3097 
Q 1594 3097 1305 2825 
Q 1016 2553 972 2059 
L 3022 2063 
z
" transform="scale(0.015625)"/>
       <path id="DejaVuSans-6e" d="M 3513 2113 
L 3513 0 
L 2938 0 
L 2938 2094 
Q 2938 2591 2744 2837 
Q 2550 3084 2163 3084 
Q 1697 3084 1428 2787 
Q 1159 2491 1159 1978 
L 1159 0 
L 581 0 
L 581 3500 
L 1159 3500 
L 1159 2956 
Q 1366 3272 1645 3428 
Q 1925 3584 2291 3584 
Q 2894 3584 3203 3211 
Q 3513 2838 3513 2113 
z
" transform="scale(0.015625)"/>
       <path id="DejaVuSans-45" d="M 628 4666 
L 3578 4666 
L 3578 4134 
L 1259 4134 
L 1259 2753 
L 3481 2753 
L 3481 2222 
L 1259 2222 
L 1259 531 
L 3634 531 
L 3634 0 
L 628 0 
L 628 4666 
z
" transform="scale(0.015625)"/>
      </defs>
      <use xlink:href="#DejaVuSans-4d"/>
      <use xlink:href="#DejaVuSans-65" x="86.279297"/>
      <use xlink:href="#DejaVuSans-61" x="147.802734"/>
      <use xlink:href="#DejaVuSans-6e" x="209.082031"/>
      <use xlink:href="#DejaVuSans-20" x="272.460938"/>
      <use xlink:href="#DejaVuSans-45" x="304.248047"/>
     </g>
    </g>
   </g>
   <path d="M 60.447074 57.775691 
L 77.650236 60.412775 
L 94.853398 56.326622 
L 112.05656 47.72361 
L 129.259722 34.828179 
L 146.462884 34.451412 
L 163.666046 32.485969 
L 180.869208 37.532851 
L 198.07237 45.610157 
L 215.275532 70.288982 
L 232.478694 102.268129 
L 249.681856 112.404929 
L 266.885019 117.74539 
L 284.088181 114.937747 
L 301.291343 122.097103 
L 318.494505 109.319722 
L 335.697667 121.470973 
L 352.900829 125.133712 
L 370.103991 139.672977 
L 387.307153 115.593631 
L 404.510315 108.712793 
L 421.713477 86.48762 
L 438.916639 83.544635 
L 456.119801 66.391917 
" clip-path="url(#p347ce563e1)" style="fill: none; opacity: 0.22; stroke: #000000; stroke-width: 2; stroke-linecap: square"/>
   <path d="M 59.247074 56.575691 
L 76.450236 59.212775 
L 93.653398 55.126622 
L 110.85656 46.52361 
L 128.059722 33.628179 
L 145.262884 33.251412 
L 162.466046 31.285969 
L 179.669208 36.332851 
L 196.87237 44.410157 
L 214.075532 69.088982 
L 231.278694 101.068129 
L 248.481856 111.204929 
L 265.685019 116.54539 
L 282.888181 113.737747 
L 300.091343 120.897103 
L 317.294505 108.119722 
L 334.497667 120.270973 
L 351.700829 123.933712 
L 368.903991 138.472977 
L 386.107153 114.393631 
L 403.310315 107.512793 
L 420.513477 85.28762 
L 437.716639 82.344635 
L 454.919801 65.191917 
" clip-path="url(#p347ce563e1)" style="fill: none; opacity: 0.75; stroke: #ffffff; stroke-width: 4.2; stroke-linecap: square"/>
   <path d="M 59.247074 56.575691 
L 76.450236 59.212775 
L 93.653398 55.126622 
L 110.85656 46.52361 
L 128.059722 33.628179 
L 145.262884 33.251412 
L 162.466046 31.285969 
L 179.669208 36.332851 
L 196.87237 44.410157 
L 214.075532 69.088982 
L 231.278694 101.068129 
L 248.481856 111.204929 
L 265.685019 116.54539 
L 282.888181 113.737747 
L 300.091343 120.897103 
L 317.294505 108.119722 
L 334.497667 120.270973 
L 351.700829 123.933712 
L 368.903991 138.472977 
L 386.107153 114.393631 
L 403.310315 107.512793 
L 420.513477 85.28762 
L 437.716639 82.344635 
L 454.919801 65.191917 
" clip-path="url(#p347ce563e1)" style="fill: none; stroke: #7fb08f; stroke-width: 2; stroke-linecap: square"/>
   <path d="M 60.447074 60.775691 
C 61.242683 60.775691 62.005813 60.459592 62.568394 59.897011 
C 63.130975 59.33443 63.447074 58.5713 63.447074 57.775691 
C 63.447074 56.980082 63.130975 56.216951 62.568394 55.65437 
C 62.005813 55.09179 61.242683 54.775691 60.447074 54.775691 
C 59.651465 54.775691 58.888334 55.09179 58.325754 55.65437 
C 57.763173 56.216951 57.447074 56.980082 57.447074 57.775691 
C 57.447074 58.5713 57.763173 59.33443 58.325754 59.897011 
C 58.888334 60.459592 59.651465 60.775691 60.447074 60.775691 
L 60.447074 60.775691 
z
" clip-path="url(#p347ce563e1)" style="fill: none; opacity: 0.22; stroke: #000000"/>
   <path d="M 77.650236 63.412775 
C 78.445845 63.412775 79.208976 63.096676 79.771556 62.534095 
C 80.334137 61.971514 80.650236 61.208384 80.650236 60.412775 
C 80.650236 59.617166 80.334137 58.854035 79.771556 58.291455 
C 79.208976 57.728874 78.445845 57.412775 77.650236 57.412775 
C 76.854627 57.412775 76.091496 57.728874 75.528916 58.291455 
C 74.966335 58.854035 74.650236 59.617166 74.650236 60.412775 
C 74.650236 61.208384 74.966335 61.971514 75.528916 62.534095 
C 76.091496 63.096676 76.854627 63.412775 77.650236 63.412775 
L 77.650236 63.412775 
z
" clip-path="url(#p347ce563e1)" style="fill: none; opacity: 0.22; stroke: #000000"/>
   <path d="M 94.853398 59.326622 
C 95.649007 59.326622 96.412138 59.010523 96.974718 58.447942 
C 97.537299 57.885362 97.853398 57.122231 97.853398 56.326622 
C 97.853398 55.531013 97.537299 54.767882 96.974718 54.205302 
C 96.412138 53.642721 95.649007 53.326622 94.853398 53.326622 
C 94.057789 53.326622 93.294658 53.642721 92.732078 54.205302 
C 92.169497 54.767882 91.853398 55.531013 91.853398 56.326622 
C 91.853398 57.122231 92.169497 57.885362 92.732078 58.447942 
C 93.294658 59.010523 94.057789 59.326622 94.853398 59.326622 
L 94.853398 59.326622 
z
" clip-path="url(#p347ce563e1)" style="fill: none; opacity: 0.22; stroke: #000000"/>
   <path d="M 112.05656 50.72361 
C 112.852169 50.72361 113.6153 50.407511 114.17788 49.84493 
C 114.740461 49.282349 115.05656 48.519219 115.05656 47.72361 
C 115.05656 46.928 114.740461 46.16487 114.17788 45.602289 
C 113.6153 45.039708 112.852169 44.72361 112.05656 44.72361 
C 111.260951 44.72361 110.49782 45.039708 109.93524 45.602289 
C 109.372659 46.16487 109.05656 46.928 109.05656 47.72361 
C 109.05656 48.519219 109.372659 49.282349 109.93524 49.84493 
C 110.49782 50.407511 111.260951 50.72361 112.05656 50.72361 
L 112.05656 50.72361 
z
" clip-path="url(#p347ce563e1)" style="fill: none; opacity: 0.22; stroke: #000000"/>
   <path d="M 129.259722 37.828179 
C 130.055331 37.828179 130.818462 37.51208 131.381042 36.949499 
C 131.943623 36.386919 132.259722 35.623788 132.259722 34.828179 
C 132.259722 34.03257 131.943623 33.269439 131.381042 32.706859 
C 130.818462 32.144278 130.055331 31.828179 129.259722 31.828179 
C 128.464113 31.828179 127.700982 32.144278 127.138402 32.706859 
C 126.575821 33.269439 126.259722 34.03257 126.259722 34.828179 
C 126.259722 35.623788 126.575821 36.386919 127.138402 36.949499 
C 127.700982 37.51208 128.464113 37.828179 129.259722 37.828179 
L 129.259722 37.828179 
z
" clip-path="url(#p347ce563e1)" style="fill: none; opacity: 0.22; stroke: #000000"/>
   <path d="M 146.462884 37.451412 
C 147.258493 37.451412 148.021624 37.135313 148.584204 36.572732 
C 149.146785 36.010152 149.462884 35.247021 149.462884 34.451412 
C 149.462884 33.655803 149.146785 32.892672 148.584204 32.330092 
C 148.021624 31.767511 147.258493 31.451412 146.462884 31.451412 
C 145.667275 31.451412 144.904145 31.767511 144.341564 32.330092 
C 143.778983 32.892672 143.462884 33.655803 143.462884 34.451412 
C 143.462884 35.247021 143.778983 36.010152 144.341564 36.572732 
C 144.904145 37.135313 145.667275 37.451412 146.462884 37.451412 
L 146.462884 37.451412 
z
" clip-path="url(#p347ce563e1)" style="fill: none; opacity: 0.22; stroke: #000000"/>
   <path d="M 163.666046 35.485969 
C 164.461655 35.485969 165.224786 35.16987 165.787367 34.607289 
C 166.349947 34.044708 166.666046 33.281578 166.666046 32.485969 
C 166.666046 31.690359 166.349947 30.927229 165.787367 30.364648 
C 165.224786 29.802068 164.461655 29.485969 163.666046 29.485969 
C 162.870437 29.485969 162.107307 29.802068 161.544726 30.364648 
C 160.982145 30.927229 160.666046 31.690359 160.666046 32.485969 
C 160.666046 33.281578 160.982145 34.044708 161.544726 34.607289 
C 162.107307 35.16987 162.870437 35.485969 163.666046 35.485969 
L 163.666046 35.485969 
z
" clip-path="url(#p347ce563e1)" style="fill: none; opacity: 0.22; stroke: #000000"/>
   <path d="M 180.869208 40.532851 
C 181.664818 40.532851 182.427948 40.216752 182.990529 39.654171 
C 183.553109 39.09159 183.869208 38.32846 183.869208 37.532851 
C 183.869208 36.737241 183.553109 35.974111 182.990529 35.41153 
C 182.427948 34.848949 181.664818 34.532851 180.869208 34.532851 
C 180.073599 34.532851 179.310469 34.848949 178.747888 35.41153 
C 178.185307 35.974111 177.869208 36.737241 177.869208 37.532851 
C 177.869208 38.32846 178.185307 39.09159 178.747888 39.654171 
C 179.310469 40.216752 180.073599 40.532851 180.869208 40.532851 
L 180.869208 40.532851 
z
" clip-path="url(#p347ce563e1)" style="fill: none; opacity: 0.22; stroke: #000000"/>
   <path d="M 198.07237 48.610157 
C 198.86798 48.610157 199.63111 48.294058 200.193691 47.731478 
C 200.756271 47.168897 201.07237 46.405767 201.07237 45.610157 
C 201.07237 44.814548 200.756271 44.051418 200.193691 43.488837 
C 199.63111 42.926256 198.86798 42.610157 198.07237 42.610157 
C 197.276761 42.610157 196.513631 42.926256 195.95105 43.488837 
C 195.388469 44.051418 195.07237 44.814548 195.07237 45.610157 
C 195.07237 46.405767 195.388469 47.168897 195.95105 47.731478 
C 196.513631 48.294058 197.276761 48.610157 198.07237 48.610157 
L 198.07237 48.610157 
z
" clip-path="url(#p347ce563e1)" style="fill: none; opacity: 0.22; stroke: #000000"/>
   <path d="M 215.275532 73.288982 
C 216.071142 73.288982 216.834272 72.972883 217.396853 72.410303 
C 217.959433 71.847722 218.275532 71.084592 218.275532 70.288982 
C 218.275532 69.493373 217.959433 68.730243 217.396853 68.167662 
C 216.834272 67.605081 216.071142 67.288982 215.275532 67.288982 
C 214.479923 67.288982 213.716793 67.605081 213.154212 68.167662 
C 212.591631 68.730243 212.275532 69.493373 212.275532 70.288982 
C 212.275532 71.084592 212.591631 71.847722 213.154212 72.410303 
C 213.716793 72.972883 214.479923 73.288982 215.275532 73.288982 
L 215.275532 73.288982 
z
" clip-path="url(#p347ce563e1)" style="fill: none; opacity: 0.22; stroke: #000000"/>
   <path d="M 232.478694 105.268129 
C 233.274304 105.268129 234.037434 104.95203 234.600015 104.389449 
C 235.162595 103.826868 235.478694 103.063738 235.478694 102.268129 
C 235.478694 101.472519 235.162595 100.709389 234.600015 100.146808 
C 234.037434 99.584227 233.274304 99.268129 232.478694 99.268129 
C 231.683085 99.268129 230.919955 99.584227 230.357374 100.146808 
C 229.794793 100.709389 229.478694 101.472519 229.478694 102.268129 
C 229.478694 103.063738 229.794793 103.826868 230.357374 104.389449 
C 230.919955 104.95203 231.683085 105.268129 232.478694 105.268129 
L 232.478694 105.268129 
z
" clip-path="url(#p347ce563e1)" style="fill: none; opacity: 0.22; stroke: #000000"/>
   <path d="M 249.681856 115.404929 
C 250.477466 115.404929 251.240596 115.08883 251.803177 114.52625 
C 252.365758 113.963669 252.681856 113.200539 252.681856 112.404929 
C 252.681856 111.60932 252.365758 110.84619 251.803177 110.283609 
C 251.240596 109.721028 250.477466 109.404929 249.681856 109.404929 
C 248.886247 109.404929 248.123117 109.721028 247.560536 110.283609 
C 246.997955 110.84619 246.681856 111.60932 246.681856 112.404929 
C 246.681856 113.200539 246.997955 113.963669 247.560536 114.52625 
C 248.123117 115.08883 248.886247 115.404929 249.681856 115.404929 
L 249.681856 115.404929 
z
" clip-path="url(#p347ce563e1)" style="fill: none; opacity: 0.22; stroke: #000000"/>
   <path d="M 266.885019 120.74539 
C 267.680628 120.74539 268.443758 120.429291 269.006339 119.86671 
C 269.56892 119.304129 269.885019 118.540999 269.885019 117.74539 
C 269.885019 116.94978 269.56892 116.18665 269.006339 115.624069 
C 268.443758 115.061489 267.680628 114.74539 266.885019 114.74539 
C 266.089409 114.74539 265.326279 115.061489 264.763698 115.624069 
C 264.201117 116.18665 263.885019 116.94978 263.885019 117.74539 
C 263.885019 118.540999 264.201117 119.304129 264.763698 119.86671 
C 265.326279 120.429291 266.089409 120.74539 266.885019 120.74539 
L 266.885019 120.74539 
z
" clip-path="url(#p347ce563e1)" style="fill: none; opacity: 0.22; stroke: #000000"/>
   <path d="M 284.088181 117.937747 
C 284.88379 117.937747 285.64692 117.621648 286.209501 117.059067 
C 286.772082 116.496486 287.088181 115.733356 287.088181 114.937747 
C 287.088181 114.142138 286.772082 113.379007 286.209501 112.816426 
C 285.64692 112.253846 284.88379 111.937747 284.088181 111.937747 
C 283.292571 111.937747 282.529441 112.253846 281.96686 112.816426 
C 281.40428 113.379007 281.088181 114.142138 281.088181 114.937747 
C 281.088181 115.733356 281.40428 116.496486 281.96686 117.059067 
C 282.529441 117.621648 283.292571 117.937747 284.088181 117.937747 
L 284.088181 117.937747 
z
" clip-path="url(#p347ce563e1)" style="fill: none; opacity: 0.22; stroke: #000000"/>
   <path d="M 301.291343 125.097103 
C 302.086952 125.097103 302.850082 124.781004 303.412663 124.218424 
C 303.975244 123.655843 304.291343 122.892713 304.291343 122.097103 
C 304.291343 121.301494 303.975244 120.538364 303.412663 119.975783 
C 302.850082 119.413202 302.086952 119.097103 301.291343 119.097103 
C 300.495733 119.097103 299.732603 119.413202 299.170022 119.975783 
C 298.607442 120.538364 298.291343 121.301494 298.291343 122.097103 
C 298.291343 122.892713 298.607442 123.655843 299.170022 124.218424 
C 299.732603 124.781004 300.495733 125.097103 301.291343 125.097103 
L 301.291343 125.097103 
z
" clip-path="url(#p347ce563e1)" style="fill: none; opacity: 0.22; stroke: #000000"/>
   <path d="M 318.494505 112.319722 
C 319.290114 112.319722 320.053244 112.003623 320.615825 111.441042 
C 321.178406 110.878462 321.494505 110.115331 321.494505 109.319722 
C 321.494505 108.524113 321.178406 107.760982 320.615825 107.198402 
C 320.053244 106.635821 319.290114 106.319722 318.494505 106.319722 
C 317.698895 106.319722 316.935765 106.635821 316.373184 107.198402 
C 315.810604 107.760982 315.494505 108.524113 315.494505 109.319722 
C 315.494505 110.115331 315.810604 110.878462 316.373184 111.441042 
C 316.935765 112.003623 317.698895 112.319722 318.494505 112.319722 
L 318.494505 112.319722 
z
" clip-path="url(#p347ce563e1)" style="fill: none; opacity: 0.22; stroke: #000000"/>
   <path d="M 335.697667 124.470973 
C 336.493276 124.470973 337.256406 124.154875 337.818987 123.592294 
C 338.381568 123.029713 338.697667 122.266583 338.697667 121.470973 
C 338.697667 120.675364 338.381568 119.912234 337.818987 119.349653 
C 337.256406 118.787072 336.493276 118.470973 335.697667 118.470973 
C 334.902057 118.470973 334.138927 118.787072 333.576346 119.349653 
C 333.013766 119.912234 332.697667 120.675364 332.697667 121.470973 
C 332.697667 122.266583 333.013766 123.029713 333.576346 123.592294 
C 334.138927 124.154875 334.902057 124.470973 335.697667 124.470973 
L 335.697667 124.470973 
z
" clip-path="url(#p347ce563e1)" style="fill: none; opacity: 0.22; stroke: #000000"/>
   <path d="M 352.900829 128.133712 
C 353.696438 128.133712 354.459568 127.817613 355.022149 127.255032 
C 355.58473 126.692451 355.900829 125.929321 355.900829 125.133712 
C 355.900829 124.338102 355.58473 123.574972 355.022149 123.012391 
C 354.459568 122.449811 353.696438 122.133712 352.900829 122.133712 
C 352.10522 122.133712 351.342089 122.449811 350.779508 123.012391 
C 350.216928 123.574972 349.900829 124.338102 349.900829 125.133712 
C 349.900829 125.929321 350.216928 126.692451 350.779508 127.255032 
C 351.342089 127.817613 352.10522 128.133712 352.900829 128.133712 
L 352.900829 128.133712 
z
" clip-path="url(#p347ce563e1)" style="fill: none; opacity: 0.22; stroke: #000000"/>
   <path d="M 370.103991 142.672977 
C 370.8996 142.672977 371.66273 142.356878 372.225311 141.794297 
C 372.787892 141.231717 373.103991 140.468586 373.103991 139.672977 
C 373.103991 138.877368 372.787892 138.114237 372.225311 137.551657 
C 371.66273 136.989076 370.8996 136.672977 370.103991 136.672977 
C 369.308382 136.672977 368.545251 136.989076 367.982671 137.551657 
C 367.42009 138.114237 367.103991 138.877368 367.103991 139.672977 
C 367.103991 140.468586 367.42009 141.231717 367.982671 141.794297 
C 368.545251 142.356878 369.308382 142.672977 370.103991 142.672977 
L 370.103991 142.672977 
z
" clip-path="url(#p347ce563e1)" style="fill: none; opacity: 0.22; stroke: #000000"/>
   <path d="M 387.307153 118.593631 
C 388.102762 118.593631 388.865893 118.277532 389.428473 117.714951 
C 389.991054 117.15237 390.307153 116.38924 390.307153 115.593631 
C 390.307153 114.798021 389.991054 114.034891 389.428473 113.47231 
C 388.865893 112.909729 388.102762 112.593631 387.307153 112.593631 
C 386.511544 112.593631 385.748413 112.909729 385.185833 113.47231 
C 384.623252 114.034891 384.307153 114.798021 384.307153 115.593631 
C 384.307153 116.38924 384.623252 117.15237 385.185833 117.714951 
C 385.748413 118.277532 386.511544 118.593631 387.307153 118.593631 
L 387.307153 118.593631 
z
" clip-path="url(#p347ce563e1)" style="fill: none; opacity: 0.22; stroke: #000000"/>
   <path d="M 404.510315 111.712793 
C 405.305924 111.712793 406.069055 111.396694 406.631635 110.834113 
C 407.194216 110.271532 407.510315 109.508402 407.510315 108.712793 
C 407.510315 107.917183 407.194216 107.154053 406.631635 106.591472 
C 406.069055 106.028892 405.305924 105.712793 404.510315 105.712793 
C 403.714706 105.712793 402.951575 106.028892 402.388995 106.591472 
C 401.826414 107.154053 401.510315 107.917183 401.510315 108.712793 
C 401.510315 109.508402 401.826414 110.271532 402.388995 110.834113 
C 402.951575 111.396694 403.714706 111.712793 404.510315 111.712793 
L 404.510315 111.712793 
z
" clip-path="url(#p347ce563e1)" style="fill: none; opacity: 0.22; stroke: #000000"/>
   <path d="M 421.713477 89.48762 
C 422.509086 89.48762 423.272217 89.171521 423.834797 88.608941 
C 424.397378 88.04636 424.713477 87.283229 424.713477 86.48762 
C 424.713477 85.692011 424.397378 84.928881 423.834797 84.3663 
C 423.272217 83.803719 422.509086 83.48762 421.713477 83.48762 
C 420.917868 83.48762 420.154737 83.803719 419.592157 84.3663 
C 419.029576 84.928881 418.713477 85.692011 418.713477 86.48762 
C 418.713477 87.283229 419.029576 88.04636 419.592157 88.608941 
C 420.154737 89.171521 420.917868 89.48762 421.713477 89.48762 
L 421.713477 89.48762 
z
" clip-path="url(#p347ce563e1)" style="fill: none; opacity: 0.22; stroke: #000000"/>
   <path d="M 438.916639 86.544635 
C 439.712248 86.544635 440.475379 86.228536 441.037959 85.665955 
C 441.60054 85.103374 441.916639 84.340244 441.916639 83.544635 
C 441.916639 82.749026 441.60054 81.985895 441.037959 81.423314 
C 440.475379 80.860734 439.712248 80.544635 438.916639 80.544635 
C 438.12103 80.544635 437.357899 80.860734 436.795319 81.423314 
C 436.232738 81.985895 435.916639 82.749026 435.916639 83.544635 
C 435.916639 84.340244 436.232738 85.103374 436.795319 85.665955 
C 437.357899 86.228536 438.12103 86.544635 438.916639 86.544635 
L 438.916639 86.544635 
z
" clip-path="url(#p347ce563e1)" style="fill: none; opacity: 0.22; stroke: #000000"/>
   <path d="M 456.119801 69.391917 
C 456.91541 69.391917 457.678541 69.075818 458.241121 68.513237 
C 458.803702 67.950657 459.119801 67.187526 459.119801 66.391917 
C 459.119801 65.596308 458.803702 64.833178 458.241121 64.270597 
C 457.678541 63.708016 456.91541 63.391917 456.119801 63.391917 
C 455.324192 63.391917 454.561062 63.708016 453.998481 64.270597 
C 453.4359 64.833178 453.119801 65.596308 453.119801 66.391917 
C 453.119801 67.187526 453.4359 67.950657 453.998481 68.513237 
C 454.561062 69.075818 455.324192 69.391917 456.119801 69.391917 
L 456.119801 69.391917 
z
" clip-path="url(#p347ce563e1)" style="fill: none; opacity: 0.22; stroke: #000000"/>
   <path d="M 59.247074 59.575691 
C 60.042683 59.575691 60.805813 59.259592 61.368394 58.697011 
C 61.930975 58.13443 62.247074 57.3713 62.247074 56.575691 
C 62.247074 55.780082 61.930975 55.016951 61.368394 54.45437 
C 60.805813 53.89179 60.042683 53.575691 59.247074 53.575691 
C 58.451465 53.575691 57.688334 53.89179 57.125754 54.45437 
C 56.563173 55.016951 56.247074 55.780082 56.247074 56.575691 
C 56.247074 57.3713 56.563173 58.13443 57.125754 58.697011 
C 57.688334 59.259592 58.451465 59.575691 59.247074 59.575691 
z
" clip-path="url(#p347ce563e1)" style="fill: #7fb08f; opacity: 0.75; stroke: #ffffff; stroke-width: 4.2"/>
   <path d="M 76.450236 62.212775 
C 77.245845 62.212775 78.008976 61.896676 78.571556 61.334095 
C 79.134137 60.771514 79.450236 60.008384 79.450236 59.212775 
C 79.450236 58.417166 79.134137 57.654035 78.571556 57.091455 
C 78.008976 56.528874 77.245845 56.212775 76.450236 56.212775 
C 75.654627 56.212775 74.891496 56.528874 74.328916 57.091455 
C 73.766335 57.654035 73.450236 58.417166 73.450236 59.212775 
C 73.450236 60.008384 73.766335 60.771514 74.328916 61.334095 
C 74.891496 61.896676 75.654627 62.212775 76.450236 62.212775 
z
" clip-path="url(#p347ce563e1)" style="fill: #7fb08f; opacity: 0.75; stroke: #ffffff; stroke-width: 4.2"/>
   <path d="M 93.653398 58.126622 
C 94.449007 58.126622 95.212138 57.810523 95.774718 57.247942 
C 96.337299 56.685362 96.653398 55.922231 96.653398 55.126622 
C 96.653398 54.331013 96.337299 53.567882 95.774718 53.005302 
C 95.212138 52.442721 94.449007 52.126622 93.653398 52.126622 
C 92.857789 52.126622 92.094658 52.442721 91.532078 53.005302 
C 90.969497 53.567882 90.653398 54.331013 90.653398 55.126622 
C 90.653398 55.922231 90.969497 56.685362 91.532078 57.247942 
C 92.094658 57.810523 92.857789 58.126622 93.653398 58.126622 
z
" clip-path="url(#p347ce563e1)" style="fill: #7fb08f; opacity: 0.75; stroke: #ffffff; stroke-width: 4.2"/>
   <path d="M 110.85656 49.52361 
C 111.652169 49.52361 112.4153 49.207511 112.97788 48.64493 
C 113.540461 48.082349 113.85656 47.319219 113.85656 46.52361 
C 113.85656 45.728 113.540461 44.96487 112.97788 44.402289 
C 112.4153 43.839708 111.652169 43.52361 110.85656 43.52361 
C 110.060951 43.52361 109.29782 43.839708 108.73524 44.402289 
C 108.172659 44.96487 107.85656 45.728 107.85656 46.52361 
C 107.85656 47.319219 108.172659 48.082349 108.73524 48.64493 
C 109.29782 49.207511 110.060951 49.52361 110.85656 49.52361 
z
" clip-path="url(#p347ce563e1)" style="fill: #7fb08f; opacity: 0.75; stroke: #ffffff; stroke-width: 4.2"/>
   <path d="M 128.059722 36.628179 
C 128.855331 36.628179 129.618462 36.31208 130.181042 35.749499 
C 130.743623 35.186919 131.059722 34.423788 131.059722 33.628179 
C 131.059722 32.83257 130.743623 32.069439 130.181042 31.506859 
C 129.618462 30.944278 128.855331 30.628179 128.059722 30.628179 
C 127.264113 30.628179 126.500982 30.944278 125.938402 31.506859 
C 125.375821 32.069439 125.059722 32.83257 125.059722 33.628179 
C 125.059722 34.423788 125.375821 35.186919 125.938402 35.749499 
C 126.500982 36.31208 127.264113 36.628179 128.059722 36.628179 
z
" clip-path="url(#p347ce563e1)" style="fill: #7fb08f; opacity: 0.75; stroke: #ffffff; stroke-width: 4.2"/>
   <path d="M 145.262884 36.251412 
C 146.058493 36.251412 146.821624 35.935313 147.384204 35.372732 
C 147.946785 34.810152 148.262884 34.047021 148.262884 33.251412 
C 148.262884 32.455803 147.946785 31.692672 147.384204 31.130092 
C 146.821624 30.567511 146.058493 30.251412 145.262884 30.251412 
C 144.467275 30.251412 143.704145 30.567511 143.141564 31.130092 
C 142.578983 31.692672 142.262884 32.455803 142.262884 33.251412 
C 142.262884 34.047021 142.578983 34.810152 143.141564 35.372732 
C 143.704145 35.935313 144.467275 36.251412 145.262884 36.251412 
z
" clip-path="url(#p347ce563e1)" style="fill: #7fb08f; opacity: 0.75; stroke: #ffffff; stroke-width: 4.2"/>
   <path d="M 162.466046 34.285969 
C 163.261655 34.285969 164.024786 33.96987 164.587367 33.407289 
C 165.149947 32.844708 165.466046 32.081578 165.466046 31.285969 
C 165.466046 30.490359 165.149947 29.727229 164.587367 29.164648 
C 164.024786 28.602068 163.261655 28.285969 162.466046 28.285969 
C 161.670437 28.285969 160.907307 28.602068 160.344726 29.164648 
C 159.782145 29.727229 159.466046 30.490359 159.466046 31.285969 
C 159.466046 32.081578 159.782145 32.844708 160.344726 33.407289 
C 160.907307 33.96987 161.670437 34.285969 162.466046 34.285969 
z
" clip-path="url(#p347ce563e1)" style="fill: #7fb08f; opacity: 0.75; stroke: #ffffff; stroke-width: 4.2"/>
   <path d="M 179.669208 39.332851 
C 180.464818 39.332851 181.227948 39.016752 181.790529 38.454171 
C 182.353109 37.89159 182.669208 37.12846 182.669208 36.332851 
C 182.669208 35.537241 182.353109 34.774111 181.790529 34.21153 
C 181.227948 33.648949 180.464818 33.332851 179.669208 33.332851 
C 178.873599 33.332851 178.110469 33.648949 177.547888 34.21153 
C 176.985307 34.774111 176.669208 35.537241 176.669208 36.332851 
C 176.669208 37.12846 176.985307 37.89159 177.547888 38.454171 
C 178.110469 39.016752 178.873599 39.332851 179.669208 39.332851 
z
" clip-path="url(#p347ce563e1)" style="fill: #7fb08f; opacity: 0.75; stroke: #ffffff; stroke-width: 4.2"/>
   <path d="M 196.87237 47.410157 
C 197.66798 47.410157 198.43111 47.094058 198.993691 46.531478 
C 199.556271 45.968897 199.87237 45.205767 199.87237 44.410157 
C 199.87237 43.614548 199.556271 42.851418 198.993691 42.288837 
C 198.43111 41.726256 197.66798 41.410157 196.87237 41.410157 
C 196.076761 41.410157 195.313631 41.726256 194.75105 42.288837 
C 194.188469 42.851418 193.87237 43.614548 193.87237 44.410157 
C 193.87237 45.205767 194.188469 45.968897 194.75105 46.531478 
C 195.313631 47.094058 196.076761 47.410157 196.87237 47.410157 
z
" clip-path="url(#p347ce563e1)" style="fill: #7fb08f; opacity: 0.75; stroke: #ffffff; stroke-width: 4.2"/>
   <path d="M 214.075532 72.088982 
C 214.871142 72.088982 215.634272 71.772883 216.196853 71.210303 
C 216.759433 70.647722 217.075532 69.884592 217.075532 69.088982 
C 217.075532 68.293373 216.759433 67.530243 216.196853 66.967662 
C 215.634272 66.405081 214.871142 66.088982 214.075532 66.088982 
C 213.279923 66.088982 212.516793 66.405081 211.954212 66.967662 
C 211.391631 67.530243 211.075532 68.293373 211.075532 69.088982 
C 211.075532 69.884592 211.391631 70.647722 211.954212 71.210303 
C 212.516793 71.772883 213.279923 72.088982 214.075532 72.088982 
z
" clip-path="url(#p347ce563e1)" style="fill: #7fb08f; opacity: 0.75; stroke: #ffffff; stroke-width: 4.2"/>
   <path d="M 231.278694 104.068129 
C 232.074304 104.068129 232.837434 103.75203 233.400015 103.189449 
C 233.962595 102.626868 234.278694 101.863738 234.278694 101.068129 
C 234.278694 100.272519 233.962595 99.509389 233.400015 98.946808 
C 232.837434 98.384227 232.074304 98.068129 231.278694 98.068129 
C 230.483085 98.068129 229.719955 98.384227 229.157374 98.946808 
C 228.594793 99.509389 228.278694 100.272519 228.278694 101.068129 
C 228.278694 101.863738 228.594793 102.626868 229.157374 103.189449 
C 229.719955 103.75203 230.483085 104.068129 231.278694 104.068129 
z
" clip-path="url(#p347ce563e1)" style="fill: #7fb08f; opacity: 0.75; stroke: #ffffff; stroke-width: 4.2"/>
   <path d="M 248.481856 114.204929 
C 249.277466 114.204929 250.040596 113.88883 250.603177 113.32625 
C 251.165758 112.763669 251.481856 112.000539 251.481856 111.204929 
C 251.481856 110.40932 251.165758 109.64619 250.603177 109.083609 
C 250.040596 108.521028 249.277466 108.204929 248.481856 108.204929 
C 247.686247 108.204929 246.923117 108.521028 246.360536 109.083609 
C 245.797955 109.64619 245.481856 110.40932 245.481856 111.204929 
C 245.481856 112.000539 245.797955 112.763669 246.360536 113.32625 
C 246.923117 113.88883 247.686247 114.204929 248.481856 114.204929 
z
" clip-path="url(#p347ce563e1)" style="fill: #7fb08f; opacity: 0.75; stroke: #ffffff; stroke-width: 4.2"/>
   <path d="M 265.685019 119.54539 
C 266.480628 119.54539 267.243758 119.229291 267.806339 118.66671 
C 268.36892 118.104129 268.685019 117.340999 268.685019 116.54539 
C 268.685019 115.74978 268.36892 114.98665 267.806339 114.424069 
C 267.243758 113.861489 266.480628 113.54539 265.685019 113.54539 
C 264.889409 113.54539 264.126279 113.861489 263.563698 114.424069 
C 263.001117 114.98665 262.685019 115.74978 262.685019 116.54539 
C 262.685019 117.340999 263.001117 118.104129 263.563698 118.66671 
C 264.126279 119.229291 264.889409 119.54539 265.685019 119.54539 
z
" clip-path="url(#p347ce563e1)" style="fill: #7fb08f; opacity: 0.75; stroke: #ffffff; stroke-width: 4.2"/>
   <path d="M 282.888181 116.737747 
C 283.68379 116.737747 284.44692 116.421648 285.009501 115.859067 
C 285.572082 115.296486 285.888181 114.533356 285.888181 113.737747 
C 285.888181 112.942138 285.572082 112.179007 285.009501 111.616426 
C 284.44692 111.053846 283.68379 110.737747 282.888181 110.737747 
C 282.092571 110.737747 281.329441 111.053846 280.76686 111.616426 
C 280.20428 112.179007 279.888181 112.942138 279.888181 113.737747 
C 279.888181 114.533356 280.20428 115.296486 280.76686 115.859067 
C 281.329441 116.421648 282.092571 116.737747 282.888181 116.737747 
z
" clip-path="url(#p347ce563e1)" style="fill: #7fb08f; opacity: 0.75; stroke: #ffffff; stroke-width: 4.2"/>
   <path d="M 300.091343 123.897103 
C 300.886952 123.897103 301.650082 123.581004 302.212663 123.018424 
C 302.775244 122.455843 303.091343 121.692713 303.091343 120.897103 
C 303.091343 120.101494 302.775244 119.338364 302.212663 118.775783 
C 301.650082 118.213202 300.886952 117.897103 300.091343 117.897103 
C 299.295733 117.897103 298.532603 118.213202 297.970022 118.775783 
C 297.407442 119.338364 297.091343 120.101494 297.091343 120.897103 
C 297.091343 121.692713 297.407442 122.455843 297.970022 123.018424 
C 298.532603 123.581004 299.295733 123.897103 300.091343 123.897103 
z
" clip-path="url(#p347ce563e1)" style="fill: #7fb08f; opacity: 0.75; stroke: #ffffff; stroke-width: 4.2"/>
   <path d="M 317.294505 111.119722 
C 318.090114 111.119722 318.853244 110.803623 319.415825 110.241042 
C 319.978406 109.678462 320.294505 108.915331 320.294505 108.119722 
C 320.294505 107.324113 319.978406 106.560982 319.415825 105.998402 
C 318.853244 105.435821 318.090114 105.119722 317.294505 105.119722 
C 316.498895 105.119722 315.735765 105.435821 315.173184 105.998402 
C 314.610604 106.560982 314.294505 107.324113 314.294505 108.119722 
C 314.294505 108.915331 314.610604 109.678462 315.173184 110.241042 
C 315.735765 110.803623 316.498895 111.119722 317.294505 111.119722 
z
" clip-path="url(#p347ce563e1)" style="fill: #7fb08f; opacity: 0.75; stroke: #ffffff; stroke-width: 4.2"/>
   <path d="M 334.497667 123.270973 
C 335.293276 123.270973 336.056406 122.954875 336.618987 122.392294 
C 337.181568 121.829713 337.497667 121.066583 337.497667 120.270973 
C 337.497667 119.475364 337.181568 118.712234 336.618987 118.149653 
C 336.056406 117.587072 335.293276 117.270973 334.497667 117.270973 
C 333.702057 117.270973 332.938927 117.587072 332.376346 118.149653 
C 331.813766 118.712234 331.497667 119.475364 331.497667 120.270973 
C 331.497667 121.066583 331.813766 121.829713 332.376346 122.392294 
C 332.938927 122.954875 333.702057 123.270973 334.497667 123.270973 
z
" clip-path="url(#p347ce563e1)" style="fill: #7fb08f; opacity: 0.75; stroke: #ffffff; stroke-width: 4.2"/>
   <path d="M 351.700829 126.933712 
C 352.496438 126.933712 353.259568 126.617613 353.822149 126.055032 
C 354.38473 125.492451 354.700829 124.729321 354.700829 123.933712 
C 354.700829 123.138102 354.38473 122.374972 353.822149 121.812391 
C 353.259568 121.249811 352.496438 120.933712 351.700829 120.933712 
C 350.90522 120.933712 350.142089 121.249811 349.579508 121.812391 
C 349.016928 122.374972 348.700829 123.138102 348.700829 123.933712 
C 348.700829 124.729321 349.016928 125.492451 349.579508 126.055032 
C 350.142089 126.617613 350.90522 126.933712 351.700829 126.933712 
z
" clip-path="url(#p347ce563e1)" style="fill: #7fb08f; opacity: 0.75; stroke: #ffffff; stroke-width: 4.2"/>
   <path d="M 368.903991 141.472977 
C 369.6996 141.472977 370.46273 141.156878 371.025311 140.594297 
C 371.587892 140.031717 371.903991 139.268586 371.903991 138.472977 
C 371.903991 137.677368 371.587892 136.914237 371.025311 136.351657 
C 370.46273 135.789076 369.6996 135.472977 368.903991 135.472977 
C 368.108382 135.472977 367.345251 135.789076 366.782671 136.351657 
C 366.22009 136.914237 365.903991 137.677368 365.903991 138.472977 
C 365.903991 139.268586 366.22009 140.031717 366.782671 140.594297 
C 367.345251 141.156878 368.108382 141.472977 368.903991 141.472977 
z
" clip-path="url(#p347ce563e1)" style="fill: #7fb08f; opacity: 0.75; stroke: #ffffff; stroke-width: 4.2"/>
   <path d="M 386.107153 117.393631 
C 386.902762 117.393631 387.665893 117.077532 388.228473 116.514951 
C 388.791054 115.95237 389.107153 115.18924 389.107153 114.393631 
C 389.107153 113.598021 388.791054 112.834891 388.228473 112.27231 
C 387.665893 111.709729 386.902762 111.393631 386.107153 111.393631 
C 385.311544 111.393631 384.548413 111.709729 383.985833 112.27231 
C 383.423252 112.834891 383.107153 113.598021 383.107153 114.393631 
C 383.107153 115.18924 383.423252 115.95237 383.985833 116.514951 
C 384.548413 117.077532 385.311544 117.393631 386.107153 117.393631 
z
" clip-path="url(#p347ce563e1)" style="fill: #7fb08f; opacity: 0.75; stroke: #ffffff; stroke-width: 4.2"/>
   <path d="M 403.310315 110.512793 
C 404.105924 110.512793 404.869055 110.196694 405.431635 109.634113 
C 405.994216 109.071532 406.310315 108.308402 406.310315 107.512793 
C 406.310315 106.717183 405.994216 105.954053 405.431635 105.391472 
C 404.869055 104.828892 404.105924 104.512793 403.310315 104.512793 
C 402.514706 104.512793 401.751575 104.828892 401.188995 105.391472 
C 400.626414 105.954053 400.310315 106.717183 400.310315 107.512793 
C 400.310315 108.308402 400.626414 109.071532 401.188995 109.634113 
C 401.751575 110.196694 402.514706 110.512793 403.310315 110.512793 
z
" clip-path="url(#p347ce563e1)" style="fill: #7fb08f; opacity: 0.75; stroke: #ffffff; stroke-width: 4.2"/>
   <path d="M 420.513477 88.28762 
C 421.309086 88.28762 422.072217 87.971521 422.634797 87.408941 
C 423.197378 86.84636 423.513477 86.083229 423.513477 85.28762 
C 423.513477 84.492011 423.197378 83.728881 422.634797 83.1663 
C 422.072217 82.603719 421.309086 82.28762 420.513477 82.28762 
C 419.717868 82.28762 418.954737 82.603719 418.392157 83.1663 
C 417.829576 83.728881 417.513477 84.492011 417.513477 85.28762 
C 417.513477 86.083229 417.829576 86.84636 418.392157 87.408941 
C 418.954737 87.971521 419.717868 88.28762 420.513477 88.28762 
z
" clip-path="url(#p347ce563e1)" style="fill: #7fb08f; opacity: 0.75; stroke: #ffffff; stroke-width: 4.2"/>
   <path d="M 437.716639 85.344635 
C 438.512248 85.344635 439.275379 85.028536 439.837959 84.465955 
C 440.40054 83.903374 440.716639 83.140244 440.716639 82.344635 
C 440.716639 81.549026 440.40054 80.785895 439.837959 80.223314 
C 439.275379 79.660734 438.512248 79.344635 437.716639 79.344635 
C 436.92103 79.344635 436.157899 79.660734 435.595319 80.223314 
C 435.032738 80.785895 434.716639 81.549026 434.716639 82.344635 
C 434.716639 83.140244 435.032738 83.903374 435.595319 84.465955 
C 436.157899 85.028536 436.92103 85.344635 437.716639 85.344635 
z
" clip-path="url(#p347ce563e1)" style="fill: #7fb08f; opacity: 0.75; stroke: #ffffff; stroke-width: 4.2"/>
   <path d="M 454.919801 68.191917 
C 455.71541 68.191917 456.478541 67.875818 457.041121 67.313237 
C 457.603702 66.750657 457.919801 65.987526 457.919801 65.191917 
C 457.919801 64.396308 457.603702 63.633178 457.041121 63.070597 
C 456.478541 62.508016 455.71541 62.191917 454.919801 62.191917 
C 454.124192 62.191917 453.361062 62.508016 452.798481 63.070597 
C 452.2359 63.633178 451.919801 64.396308 451.919801 65.191917 
C 451.919801 65.987526 452.2359 66.750657 452.798481 67.313237 
C 453.361062 67.875818 454.124192 68.191917 454.919801 68.191917 
z
" clip-path="url(#p347ce563e1)" style="fill: #7fb08f; opacity: 0.75; stroke: #ffffff; stroke-width: 4.2"/>
   <path d="M 59.247074 59.575691 
C 60.042683 59.575691 60.805813 59.259592 61.368394 58.697011 
C 61.930975 58.13443 62.247074 57.3713 62.247074 56.575691 
C 62.247074 55.780082 61.930975 55.016951 61.368394 54.45437 
C 60.805813 53.89179 60.042683 53.575691 59.247074 53.575691 
C 58.451465 53.575691 57.688334 53.89179 57.125754 54.45437 
C 56.563173 55.016951 56.247074 55.780082 56.247074 56.575691 
C 56.247074 57.3713 56.563173 58.13443 57.125754 58.697011 
C 57.688334 59.259592 58.451465 59.575691 59.247074 59.575691 
z
" clip-path="url(#p347ce563e1)" style="fill: #7fb08f; stroke: #7fb08f"/>
   <path d="M 76.450236 62.212775 
C 77.245845 62.212775 78.008976 61.896676 78.571556 61.334095 
C 79.134137 60.771514 79.450236 60.008384 79.450236 59.212775 
C 79.450236 58.417166 79.134137 57.654035 78.571556 57.091455 
C 78.008976 56.528874 77.245845 56.212775 76.450236 56.212775 
C 75.654627 56.212775 74.891496 56.528874 74.328916 57.091455 
C 73.766335 57.654035 73.450236 58.417166 73.450236 59.212775 
C 73.450236 60.008384 73.766335 60.771514 74.328916 61.334095 
C 74.891496 61.896676 75.654627 62.212775 76.450236 62.212775 
z
" clip-path="url(#p347ce563e1)" style="fill: #7fb08f; stroke: #7fb08f"/>
   <path d="M 93.653398 58.126622 
C 94.449007 58.126622 95.212138 57.810523 95.774718 57.247942 
C 96.337299 56.685362 96.653398 55.922231 96.653398 55.126622 
C 96.653398 54.331013 96.337299 53.567882 95.774718 53.005302 
C 95.212138 52.442721 94.449007 52.126622 93.653398 52.126622 
C 92.857789 52.126622 92.094658 52.442721 91.532078 53.005302 
C 90.969497 53.567882 90.653398 54.331013 90.653398 55.126622 
C 90.653398 55.922231 90.969497 56.685362 91.532078 57.247942 
C 92.094658 57.810523 92.857789 58.126622 93.653398 58.126622 
z
" clip-path="url(#p347ce563e1)" style="fill: #7fb08f; stroke: #7fb08f"/>
   <path d="M 110.85656 49.52361 
C 111.652169 49.52361 112.4153 49.207511 112.97788 48.64493 
C 113.540461 48.082349 113.85656 47.319219 113.85656 46.52361 
C 113.85656 45.728 113.540461 44.96487 112.97788 44.402289 
C 112.4153 43.839708 111.652169 43.52361 110.85656 43.52361 
C 110.060951 43.52361 109.29782 43.839708 108.73524 44.402289 
C 108.172659 44.96487 107.85656 45.728 107.85656 46.52361 
C 107.85656 47.319219 108.172659 48.082349 108.73524 48.64493 
C 109.29782 49.207511 110.060951 49.52361 110.85656 49.52361 
z
" clip-path="url(#p347ce563e1)" style="fill: #7fb08f; stroke: #7fb08f"/>
   <path d="M 128.059722 36.628179 
C 128.855331 36.628179 129.618462 36.31208 130.181042 35.749499 
C 130.743623 35.186919 131.059722 34.423788 131.059722 33.628179 
C 131.059722 32.83257 130.743623 32.069439 130.181042 31.506859 
C 129.618462 30.944278 128.855331 30.628179 128.059722 30.628179 
C 127.264113 30.628179 126.500982 30.944278 125.938402 31.506859 
C 125.375821 32.069439 125.059722 32.83257 125.059722 33.628179 
C 125.059722 34.423788 125.375821 35.186919 125.938402 35.749499 
C 126.500982 36.31208 127.264113 36.628179 128.059722 36.628179 
z
" clip-path="url(#p347ce563e1)" style="fill: #7fb08f; stroke: #7fb08f"/>
   <path d="M 145.262884 36.251412 
C 146.058493 36.251412 146.821624 35.935313 147.384204 35.372732 
C 147.946785 34.810152 148.262884 34.047021 148.262884 33.251412 
C 148.262884 32.455803 147.946785 31.692672 147.384204 31.130092 
C 146.821624 30.567511 146.058493 30.251412 145.262884 30.251412 
C 144.467275 30.251412 143.704145 30.567511 143.141564 31.130092 
C 142.578983 31.692672 142.262884 32.455803 142.262884 33.251412 
C 142.262884 34.047021 142.578983 34.810152 143.141564 35.372732 
C 143.704145 35.935313 144.467275 36.251412 145.262884 36.251412 
z
" clip-path="url(#p347ce563e1)" style="fill: #7fb08f; stroke: #7fb08f"/>
   <path d="M 162.466046 34.285969 
C 163.261655 34.285969 164.024786 33.96987 164.587367 33.407289 
C 165.149947 32.844708 165.466046 32.081578 165.466046 31.285969 
C 165.466046 30.490359 165.149947 29.727229 164.587367 29.164648 
C 164.024786 28.602068 163.261655 28.285969 162.466046 28.285969 
C 161.670437 28.285969 160.907307 28.602068 160.344726 29.164648 
C 159.782145 29.727229 159.466046 30.490359 159.466046 31.285969 
C 159.466046 32.081578 159.782145 32.844708 160.344726 33.407289 
C 160.907307 33.96987 161.670437 34.285969 162.466046 34.285969 
z
" clip-path="url(#p347ce563e1)" style="fill: #7fb08f; stroke: #7fb08f"/>
   <path d="M 179.669208 39.332851 
C 180.464818 39.332851 181.227948 39.016752 181.790529 38.454171 
C 182.353109 37.89159 182.669208 37.12846 182.669208 36.332851 
C 182.669208 35.537241 182.353109 34.774111 181.790529 34.21153 
C 181.227948 33.648949 180.464818 33.332851 179.669208 33.332851 
C 178.873599 33.332851 178.110469 33.648949 177.547888 34.21153 
C 176.985307 34.774111 176.669208 35.537241 176.669208 36.332851 
C 176.669208 37.12846 176.985307 37.89159 177.547888 38.454171 
C 178.110469 39.016752 178.873599 39.332851 179.669208 39.332851 
z
" clip-path="url(#p347ce563e1)" style="fill: #7fb08f; stroke: #7fb08f"/>
   <path d="M 196.87237 47.410157 
C 197.66798 47.410157 198.43111 47.094058 198.993691 46.531478 
C 199.556271 45.968897 199.87237 45.205767 199.87237 44.410157 
C 199.87237 43.614548 199.556271 42.851418 198.993691 42.288837 
C 198.43111 41.726256 197.66798 41.410157 196.87237 41.410157 
C 196.076761 41.410157 195.313631 41.726256 194.75105 42.288837 
C 194.188469 42.851418 193.87237 43.614548 193.87237 44.410157 
C 193.87237 45.205767 194.188469 45.968897 194.75105 46.531478 
C 195.313631 47.094058 196.076761 47.410157 196.87237 47.410157 
z
" clip-path="url(#p347ce563e1)" style="fill: #7fb08f; stroke: #7fb08f"/>
   <path d="M 214.075532 72.088982 
C 214.871142 72.088982 215.634272 71.772883 216.196853 71.210303 
C 216.759433 70.647722 217.075532 69.884592 217.075532 69.088982 
C 217.075532 68.293373 216.759433 67.530243 216.196853 66.967662 
C 215.634272 66.405081 214.871142 66.088982 214.075532 66.088982 
C 213.279923 66.088982 212.516793 66.405081 211.954212 66.967662 
C 211.391631 67.530243 211.075532 68.293373 211.075532 69.088982 
C 211.075532 69.884592 211.391631 70.647722 211.954212 71.210303 
C 212.516793 71.772883 213.279923 72.088982 214.075532 72.088982 
z
" clip-path="url(#p347ce563e1)" style="fill: #7fb08f; stroke: #7fb08f"/>
   <path d="M 231.278694 104.068129 
C 232.074304 104.068129 232.837434 103.75203 233.400015 103.189449 
C 233.962595 102.626868 234.278694 101.863738 234.278694 101.068129 
C 234.278694 100.272519 233.962595 99.509389 233.400015 98.946808 
C 232.837434 98.384227 232.074304 98.068129 231.278694 98.068129 
C 230.483085 98.068129 229.719955 98.384227 229.157374 98.946808 
C 228.594793 99.509389 228.278694 100.272519 228.278694 101.068129 
C 228.278694 101.863738 228.594793 102.626868 229.157374 103.189449 
C 229.719955 103.75203 230.483085 104.068129 231.278694 104.068129 
z
" clip-path="url(#p347ce563e1)" style="fill: #7fb08f; stroke: #7fb08f"/>
   <path d="M 248.481856 114.204929 
C 249.277466 114.204929 250.040596 113.88883 250.603177 113.32625 
C 251.165758 112.763669 251.481856 112.000539 251.481856 111.204929 
C 251.481856 110.40932 251.165758 109.64619 250.603177 109.083609 
C 250.040596 108.521028 249.277466 108.204929 248.481856 108.204929 
C 247.686247 108.204929 246.923117 108.521028 246.360536 109.083609 
C 245.797955 109.64619 245.481856 110.40932 245.481856 111.204929 
C 245.481856 112.000539 245.797955 112.763669 246.360536 113.32625 
C 246.923117 113.88883 247.686247 114.204929 248.481856 114.204929 
z
" clip-path="url(#p347ce563e1)" style="fill: #7fb08f; stroke: #7fb08f"/>
   <path d="M 265.685019 119.54539 
C 266.480628 119.54539 267.243758 119.229291 267.806339 118.66671 
C 268.36892 118.104129 268.685019 117.340999 268.685019 116.54539 
C 268.685019 115.74978 268.36892 114.98665 267.806339 114.424069 
C 267.243758 113.861489 266.480628 113.54539 265.685019 113.54539 
C 264.889409 113.54539 264.126279 113.861489 263.563698 114.424069 
C 263.001117 114.98665 262.685019 115.74978 262.685019 116.54539 
C 262.685019 117.340999 263.001117 118.104129 263.563698 118.66671 
C 264.126279 119.229291 264.889409 119.54539 265.685019 119.54539 
z
" clip-path="url(#p347ce563e1)" style="fill: #7fb08f; stroke: #7fb08f"/>
   <path d="M 282.888181 116.737747 
C 283.68379 116.737747 284.44692 116.421648 285.009501 115.859067 
C 285.572082 115.296486 285.888181 114.533356 285.888181 113.737747 
C 285.888181 112.942138 285.572082 112.179007 285.009501 111.616426 
C 284.44692 111.053846 283.68379 110.737747 282.888181 110.737747 
C 282.092571 110.737747 281.329441 111.053846 280.76686 111.616426 
C 280.20428 112.179007 279.888181 112.942138 279.888181 113.737747 
C 279.888181 114.533356 280.20428 115.296486 280.76686 115.859067 
C 281.329441 116.421648 282.092571 116.737747 282.888181 116.737747 
z
" clip-path="url(#p347ce563e1)" style="fill: #7fb08f; stroke: #7fb08f"/>
   <path d="M 300.091343 123.897103 
C 300.886952 123.897103 301.650082 123.581004 302.212663 123.018424 
C 302.775244 122.455843 303.091343 121.692713 303.091343 120.897103 
C 303.091343 120.101494 302.775244 119.338364 302.212663 118.775783 
C 301.650082 118.213202 300.886952 117.897103 300.091343 117.897103 
C 299.295733 117.897103 298.532603 118.213202 297.970022 118.775783 
C 297.407442 119.338364 297.091343 120.101494 297.091343 120.897103 
C 297.091343 121.692713 297.407442 122.455843 297.970022 123.018424 
C 298.532603 123.581004 299.295733 123.897103 300.091343 123.897103 
z
" clip-path="url(#p347ce563e1)" style="fill: #7fb08f; stroke: #7fb08f"/>
   <path d="M 317.294505 111.119722 
C 318.090114 111.119722 318.853244 110.803623 319.415825 110.241042 
C 319.978406 109.678462 320.294505 108.915331 320.294505 108.119722 
C 320.294505 107.324113 319.978406 106.560982 319.415825 105.998402 
C 318.853244 105.435821 318.090114 105.119722 317.294505 105.119722 
C 316.498895 105.119722 315.735765 105.435821 315.173184 105.998402 
C 314.610604 106.560982 314.294505 107.324113 314.294505 108.119722 
C 314.294505 108.915331 314.610604 109.678462 315.173184 110.241042 
C 315.735765 110.803623 316.498895 111.119722 317.294505 111.119722 
z
" clip-path="url(#p347ce563e1)" style="fill: #7fb08f; stroke: #7fb08f"/>
   <path d="M 334.497667 123.270973 
C 335.293276 123.270973 336.056406 122.954875 336.618987 122.392294 
C 337.181568 121.829713 337.497667 121.066583 337.497667 120.270973 
C 337.497667 119.475364 337.181568 118.712234 336.618987 118.149653 
C 336.056406 117.587072 335.293276 117.270973 334.497667 117.270973 
C 333.702057 117.270973 332.938927 117.587072 332.376346 118.149653 
C 331.813766 118.712234 331.497667 119.475364 331.497667 120.270973 
C 331.497667 121.066583 331.813766 121.829713 332.376346 122.392294 
C 332.938927 122.954875 333.702057 123.270973 334.497667 123.270973 
z
" clip-path="url(#p347ce563e1)" style="fill: #7fb08f; stroke: #7fb08f"/>
   <path d="M 351.700829 126.933712 
C 352.496438 126.933712 353.259568 126.617613 353.822149 126.055032 
C 354.38473 125.492451 354.700829 124.729321 354.700829 123.933712 
C 354.700829 123.138102 354.38473 122.374972 353.822149 121.812391 
C 353.259568 121.249811 352.496438 120.933712 351.700829 120.933712 
C 350.90522 120.933712 350.142089 121.249811 349.579508 121.812391 
C 349.016928 122.374972 348.700829 123.138102 348.700829 123.933712 
C 348.700829 124.729321 349.016928 125.492451 349.579508 126.055032 
C 350.142089 126.617613 350.90522 126.933712 351.700829 126.933712 
z
" clip-path="url(#p347ce563e1)" style="fill: #7fb08f; stroke: #7fb08f"/>
   <path d="M 368.903991 141.472977 
C 369.6996 141.472977 370.46273 141.156878 371.025311 140.594297 
C 371.587892 140.031717 371.903991 139.268586 371.903991 138.472977 
C 371.903991 137.677368 371.587892 136.914237 371.025311 136.351657 
C 370.46273 135.789076 369.6996 135.472977 368.903991 135.472977 
C 368.108382 135.472977 367.345251 135.789076 366.782671 136.351657 
C 366.22009 136.914237 365.903991 137.677368 365.903991 138.472977 
C 365.903991 139.268586 366.22009 140.031717 366.782671 140.594297 
C 367.345251 141.156878 368.108382 141.472977 368.903991 141.472977 
z
" clip-path="url(#p347ce563e1)" style="fill: #7fb08f; stroke: #7fb08f"/>
   <path d="M 386.107153 117.393631 
C 386.902762 117.393631 387.665893 117.077532 388.228473 116.514951 
C 388.791054 115.95237 389.107153 115.18924 389.107153 114.393631 
C 389.107153 113.598021 388.791054 112.834891 388.228473 112.27231 
C 387.665893 111.709729 386.902762 111.393631 386.107153 111.393631 
C 385.311544 111.393631 384.548413 111.709729 383.985833 112.27231 
C 383.423252 112.834891 383.107153 113.598021 383.107153 114.393631 
C 383.107153 115.18924 383.423252 115.95237 383.985833 116.514951 
C 384.548413 117.077532 385.311544 117.393631 386.107153 117.393631 
z
" clip-path="url(#p347ce563e1)" style="fill: #7fb08f; stroke: #7fb08f"/>
   <path d="M 403.310315 110.512793 
C 404.105924 110.512793 404.869055 110.196694 405.431635 109.634113 
C 405.994216 109.071532 406.310315 108.308402 406.310315 107.512793 
C 406.310315 106.717183 405.994216 105.954053 405.431635 105.391472 
C 404.869055 104.828892 404.105924 104.512793 403.310315 104.512793 
C 402.514706 104.512793 401.751575 104.828892 401.188995 105.391472 
C 400.626414 105.954053 400.310315 106.717183 400.310315 107.512793 
C 400.310315 108.308402 400.626414 109.071532 401.188995 109.634113 
C 401.751575 110.196694 402.514706 110.512793 403.310315 110.512793 
z
" clip-path="url(#p347ce563e1)" style="fill: #7fb08f; stroke: #7fb08f"/>
   <path d="M 420.513477 88.28762 
C 421.309086 88.28762 422.072217 87.971521 422.634797 87.408941 
C 423.197378 86.84636 423.513477 86.083229 423.513477 85.28762 
C 423.513477 84.492011 423.197378 83.728881 422.634797 83.1663 
C 422.072217 82.603719 421.309086 82.28762 420.513477 82.28762 
C 419.717868 82.28762 418.954737 82.603719 418.392157 83.1663 
C 417.829576 83.728881 417.513477 84.492011 417.513477 85.28762 
C 417.513477 86.083229 417.829576 86.84636 418.392157 87.408941 
C 418.954737 87.971521 419.717868 88.28762 420.513477 88.28762 
z
" clip-path="url(#p347ce563e1)" style="fill: #7fb08f; stroke: #7fb08f"/>
   <path d="M 437.716639 85.344635 
C 438.512248 85.344635 439.275379 85.028536 439.837959 84.465955 
C 440.40054 83.903374 440.716639 83.140244 440.716639 82.344635 
C 440.716639 81.549026 440.40054 80.785895 439.837959 80.223314 
C 439.275379 79.660734 438.512248 79.344635 437.716639 79.344635 
C 436.92103 79.344635 436.157899 79.660734 435.595319 80.223314 
C 435.032738 80.785895 434.716639 81.549026 434.716639 82.344635 
C 434.716639 83.140244 435.032738 83.903374 435.595319 84.465955 
C 436.157899 85.028536 436.92103 85.344635 437.716639 85.344635 
z
" clip-path="url(#p347ce563e1)" style="fill: #7fb08f; stroke: #7fb08f"/>
   <path d="M 454.919801 68.191917 
C 455.71541 68.191917 456.478541 67.875818 457.041121 67.313237 
C 457.603702 66.750657 457.919801 65.987526 457.919801 65.191917 
C 457.919801 64.396308 457.603702 63.633178 457.041121 63.070597 
C 456.478541 62.508016 455.71541 62.191917 454.919801 62.191917 
C 454.124192 62.191917 453.361062 62.508016 452.798481 63.070597 
C 452.2359 63.633178 451.919801 64.396308 451.919801 65.191917 
C 451.919801 65.987526 452.2359 66.750657 452.798481 67.313237 
C 453.361062 67.875818 454.124192 68.191917 454.919801 68.191917 
z
" clip-path="url(#p347ce563e1)" style="fill: #7fb08f; stroke: #7fb08f"/>
   <g id="patch_3">
    <path d="M 39.463438 264.133969 
L 39.463438 20.197969 
" style="fill: none; stroke: #000000; stroke-width: 0.9; stroke-linejoin: miter; stroke-linecap: square"/>
   </g>
   <g id="patch_4">
    <path d="M 39.463437 264.133969 
L 474.703438 264.133969 
" style="fill: none; stroke: #000000; stroke-width: 0.9; stroke-linejoin: miter; stroke-linecap: square"/>
   </g>
   <g id="text_14">
    <g id="patch_5">
     <path d="M 335.426638 114.028189 
L 423.888981 114.028189 
Q 428.288981 114.028189 428.288981 109.628189 
L 428.288981 25.076689 
Q 428.288981 20.676689 423.888981 20.676689 
L 335.426638 20.676689 
Q 331.026638 20.676689 331.026638 25.076689 
L 331.026638 109.628189 
Q 331.026638 114.028189 335.426638 114.028189 
z
" style="fill: #ffffff; opacity: 0.95; stroke: #bfbfbf; stroke-linejoin: miter"/>
    </g>
    <!-- Best: HGBR -->
    <g transform="translate(335.426638 33.43497) scale(0.11 -0.11)">
     <defs>
      <path id="DejaVuSans-42" d="M 1259 2228 
L 1259 519 
L 2272 519 
Q 2781 519 3026 730 
Q 3272 941 3272 1375 
Q 3272 1813 3026 2020 
Q 2781 2228 2272 2228 
L 1259 2228 
z
M 1259 4147 
L 1259 2741 
L 2194 2741 
Q 2656 2741 2882 2914 
Q 3109 3088 3109 3444 
Q 3109 3797 2882 3972 
Q 2656 4147 2194 4147 
L 1259 4147 
z
M 628 4666 
L 2241 4666 
Q 2963 4666 3353 4366 
Q 3744 4066 3744 3513 
Q 3744 3084 3544 2831 
Q 3344 2578 2956 2516 
Q 3422 2416 3680 2098 
Q 3938 1781 3938 1306 
Q 3938 681 3513 340 
Q 3088 0 2303 0 
L 628 0 
L 628 4666 
z
" transform="scale(0.015625)"/>
      <path id="DejaVuSans-73" d="M 2834 3397 
L 2834 2853 
Q 2591 2978 2328 3040 
Q 2066 3103 1784 3103 
Q 1356 3103 1142 2972 
Q 928 2841 928 2578 
Q 928 2378 1081 2264 
Q 1234 2150 1697 2047 
L 1894 2003 
Q 2506 1872 2764 1633 
Q 3022 1394 3022 966 
Q 3022 478 2636 193 
Q 2250 -91 1575 -91 
Q 1294 -91 989 -36 
Q 684 19 347 128 
L 347 722 
Q 666 556 975 473 
Q 1284 391 1588 391 
Q 1994 391 2212 530 
Q 2431 669 2431 922 
Q 2431 1156 2273 1281 
Q 2116 1406 1581 1522 
L 1381 1569 
Q 847 1681 609 1914 
Q 372 2147 372 2553 
Q 372 3047 722 3315 
Q 1072 3584 1716 3584 
Q 2034 3584 2315 3537 
Q 2597 3491 2834 3397 
z
" transform="scale(0.015625)"/>
      <path id="DejaVuSans-74" d="M 1172 4494 
L 1172 3500 
L 2356 3500 
L 2356 3053 
L 1172 3053 
L 1172 1153 
Q 1172 725 1289 603 
Q 1406 481 1766 481 
L 2356 481 
L 2356 0 
L 1766 0 
Q 1100 0 847 248 
Q 594 497 594 1153 
L 594 3053 
L 172 3053 
L 172 3500 
L 594 3500 
L 594 4494 
L 1172 4494 
z
" transform="scale(0.015625)"/>
      <path id="DejaVuSans-3a" d="M 750 794 
L 1409 794 
L 1409 0 
L 750 0 
L 750 794 
z
M 750 3309 
L 1409 3309 
L 1409 2516 
L 750 2516 
L 750 3309 
z
" transform="scale(0.015625)"/>
      <path id="DejaVuSans-47" d="M 3809 666 
L 3809 1919 
L 2778 1919 
L 2778 2438 
L 4434 2438 
L 4434 434 
Q 4069 175 3628 42 
Q 3188 -91 2688 -91 
Q 1594 -91 976 548 
Q 359 1188 359 2328 
Q 359 3472 976 4111 
Q 1594 4750 2688 4750 
Q 3144 4750 3555 4637 
Q 3966 4525 4313 4306 
L 4313 3634 
Q 3963 3931 3569 4081 
Q 3175 4231 2741 4231 
Q 1884 4231 1454 3753 
Q 1025 3275 1025 2328 
Q 1025 1384 1454 906 
Q 1884 428 2741 428 
Q 3075 428 3337 486 
Q 3600 544 3809 666 
z
" transform="scale(0.015625)"/>
      <path id="DejaVuSans-52" d="M 2841 2188 
Q 3044 2119 3236 1894 
Q 3428 1669 3622 1275 
L 4263 0 
L 3584 0 
L 2988 1197 
Q 2756 1666 2539 1819 
Q 2322 1972 1947 1972 
L 1259 1972 
L 1259 0 
L 628 0 
L 628 4666 
L 2053 4666 
Q 2853 4666 3247 4331 
Q 3641 3997 3641 3322 
Q 3641 2881 3436 2590 
Q 3231 2300 2841 2188 
z
M 1259 4147 
L 1259 2491 
L 2053 2491 
Q 2509 2491 2742 2702 
Q 2975 2913 2975 3322 
Q 2975 3731 2742 3939 
Q 2509 4147 2053 4147 
L 1259 4147 
z
" transform="scale(0.015625)"/>
     </defs>
     <use xlink:href="#DejaVuSans-42"/>
     <use xlink:href="#DejaVuSans-65" x="68.603516"/>
     <use xlink:href="#DejaVuSans-73" x="130.126953"/>
     <use xlink:href="#DejaVuSans-74" x="182.226562"/>
     <use xlink:href="#DejaVuSans-3a" x="221.435547"/>
     <use xlink:href="#DejaVuSans-20" x="255.126953"/>
     <use xlink:href="#DejaVuSans-48" x="286.914062"/>
     <use xlink:href="#DejaVuSans-47" x="362.109375"/>
     <use xlink:href="#DejaVuSans-42" x="439.599609"/>
     <use xlink:href="#DejaVuSans-52" x="508.203125"/>
    </g>
    <!-- CV RMSE: 10.40 -->
    <g transform="translate(335.426638 45.752564) scale(0.11 -0.11)">
     <defs>
      <path id="DejaVuSans-43" d="M 4122 4306 
L 4122 3641 
Q 3803 3938 3442 4084 
Q 3081 4231 2675 4231 
Q 1875 4231 1450 3742 
Q 1025 3253 1025 2328 
Q 1025 1406 1450 917 
Q 1875 428 2675 428 
Q 3081 428 3442 575 
Q 3803 722 4122 1019 
L 4122 359 
Q 3791 134 3420 21 
Q 3050 -91 2638 -91 
Q 1578 -91 968 557 
Q 359 1206 359 2328 
Q 359 3453 968 4101 
Q 1578 4750 2638 4750 
Q 3056 4750 3426 4639 
Q 3797 4528 4122 4306 
z
" transform="scale(0.015625)"/>
      <path id="DejaVuSans-56" d="M 1831 0 
L 50 4666 
L 709 4666 
L 2188 738 
L 3669 4666 
L 4325 4666 
L 2547 0 
L 1831 0 
z
" transform="scale(0.015625)"/>
      <path id="DejaVuSans-53" d="M 3425 4513 
L 3425 3897 
Q 3066 4069 2747 4153 
Q 2428 4238 2131 4238 
Q 1616 4238 1336 4038 
Q 1056 3838 1056 3469 
Q 1056 3159 1242 3001 
Q 1428 2844 1947 2747 
L 2328 2669 
Q 3034 2534 3370 2195 
Q 3706 1856 3706 1288 
Q 3706 609 3251 259 
Q 2797 -91 1919 -91 
Q 1588 -91 1214 -16 
Q 841 59 441 206 
L 441 856 
Q 825 641 1194 531 
Q 1563 422 1919 422 
Q 2459 422 2753 634 
Q 3047 847 3047 1241 
Q 3047 1584 2836 1778 
Q 2625 1972 2144 2069 
L 1759 2144 
Q 1053 2284 737 2584 
Q 422 2884 422 3419 
Q 422 4038 858 4394 
Q 1294 4750 2059 4750 
Q 2388 4750 2728 4690 
Q 3069 4631 3425 4513 
z
" transform="scale(0.015625)"/>
      <path id="DejaVuSans-2e" d="M 684 794 
L 1344 794 
L 1344 0 
L 684 0 
L 684 794 
z
" transform="scale(0.015625)"/>
      <path id="DejaVuSans-34" d="M 2419 4116 
L 825 1625 
L 2419 1625 
L 2419 4116 
z
M 2253 4666 
L 3047 4666 
L 3047 1625 
L 3713 1625 
L 3713 1100 
L 3047 1100 
L 3047 0 
L 2419 0 
L 2419 1100 
L 313 1100 
L 313 1709 
L 2253 4666 
z
" transform="scale(0.015625)"/>
     </defs>
     <use xlink:href="#DejaVuSans-43"/>
     <use xlink:href="#DejaVuSans-56" x="69.824219"/>
     <use xlink:href="#DejaVuSans-20" x="138.232422"/>
     <use xlink:href="#DejaVuSans-52" x="170.019531"/>
     <use xlink:href="#DejaVuSans-4d" x="239.501953"/>
     <use xlink:href="#DejaVuSans-53" x="325.78125"/>
     <use xlink:href="#DejaVuSans-45" x="389.257812"/>
     <use xlink:href="#DejaVuSans-3a" x="452.441406"/>
     <use xlink:href="#DejaVuSans-20" x="486.132812"/>
     <use xlink:href="#DejaVuSans-31" x="517.919922"/>
     <use xlink:href="#DejaVuSans-30" x="581.542969"/>
     <use xlink:href="#DejaVuSans-2e" x="645.166016"/>
     <use xlink:href="#DejaVuSans-34" x="676.953125"/>
     <use xlink:href="#DejaVuSans-30" x="740.576172"/>
    </g>
    <!-- Test RMSE: 6.96 -->
    <g transform="translate(335.426638 58.070157) scale(0.11 -0.11)">
     <defs>
      <path id="DejaVuSans-54" d="M -19 4666 
L 3928 4666 
L 3928 4134 
L 2272 4134 
L 2272 0 
L 1638 0 
L 1638 4134 
L -19 4134 
L -19 4666 
z
" transform="scale(0.015625)"/>
      <path id="DejaVuSans-36" d="M 2113 2584 
Q 1688 2584 1439 2293 
Q 1191 2003 1191 1497 
Q 1191 994 1439 701 
Q 1688 409 2113 409 
Q 2538 409 2786 701 
Q 3034 994 3034 1497 
Q 3034 2003 2786 2293 
Q 2538 2584 2113 2584 
z
M 3366 4563 
L 3366 3988 
Q 3128 4100 2886 4159 
Q 2644 4219 2406 4219 
Q 1781 4219 1451 3797 
Q 1122 3375 1075 2522 
Q 1259 2794 1537 2939 
Q 1816 3084 2150 3084 
Q 2853 3084 3261 2657 
Q 3669 2231 3669 1497 
Q 3669 778 3244 343 
Q 2819 -91 2113 -91 
Q 1303 -91 875 529 
Q 447 1150 447 2328 
Q 447 3434 972 4092 
Q 1497 4750 2381 4750 
Q 2619 4750 2861 4703 
Q 3103 4656 3366 4563 
z
" transform="scale(0.015625)"/>
      <path id="DejaVuSans-39" d="M 703 97 
L 703 672 
Q 941 559 1184 500 
Q 1428 441 1663 441 
Q 2288 441 2617 861 
Q 2947 1281 2994 2138 
Q 2813 1869 2534 1725 
Q 2256 1581 1919 1581 
Q 1219 1581 811 2004 
Q 403 2428 403 3163 
Q 403 3881 828 4315 
Q 1253 4750 1959 4750 
Q 2769 4750 3195 4129 
Q 3622 3509 3622 2328 
Q 3622 1225 3098 567 
Q 2575 -91 1691 -91 
Q 1453 -91 1209 -44 
Q 966 3 703 97 
z
M 1959 2075 
Q 2384 2075 2632 2365 
Q 2881 2656 2881 3163 
Q 2881 3666 2632 3958 
Q 2384 4250 1959 4250 
Q 1534 4250 1286 3958 
Q 1038 3666 1038 3163 
Q 1038 2656 1286 2365 
Q 1534 2075 1959 2075 
z
" transform="scale(0.015625)"/>
     </defs>
     <use xlink:href="#DejaVuSans-54"/>
     <use xlink:href="#DejaVuSans-65" x="44.083984"/>
     <use xlink:href="#DejaVuSans-73" x="105.607422"/>
     <use xlink:href="#DejaVuSans-74" x="157.707031"/>
     <use xlink:href="#DejaVuSans-20" x="196.916016"/>
     <use xlink:href="#DejaVuSans-52" x="228.703125"/>
     <use xlink:href="#DejaVuSans-4d" x="298.185547"/>
     <use xlink:href="#DejaVuSans-53" x="384.464844"/>
     <use xlink:href="#DejaVuSans-45" x="447.941406"/>
     <use xlink:href="#DejaVuSans-3a" x="511.125"/>
     <use xlink:href="#DejaVuSans-20" x="544.816406"/>
     <use xlink:href="#DejaVuSans-36" x="576.603516"/>
     <use xlink:href="#DejaVuSans-2e" x="640.226562"/>
     <use xlink:href="#DejaVuSans-39" x="672.013672"/>
     <use xlink:href="#DejaVuSans-36" x="735.636719"/>
    </g>
    <!-- Test MAE: 5.12 -->
    <g transform="translate(335.426638 70.387751) scale(0.11 -0.11)">
     <defs>
      <path id="DejaVuSans-41" d="M 2188 4044 
L 1331 1722 
L 3047 1722 
L 2188 4044 
z
M 1831 4666 
L 2547 4666 
L 4325 0 
L 3669 0 
L 3244 1197 
L 1141 1197 
L 716 0 
L 50 0 
L 1831 4666 
z
" transform="scale(0.015625)"/>
     </defs>
     <use xlink:href="#DejaVuSans-54"/>
     <use xlink:href="#DejaVuSans-65" x="44.083984"/>
     <use xlink:href="#DejaVuSans-73" x="105.607422"/>
     <use xlink:href="#DejaVuSans-74" x="157.707031"/>
     <use xlink:href="#DejaVuSans-20" x="196.916016"/>
     <use xlink:href="#DejaVuSans-4d" x="228.703125"/>
     <use xlink:href="#DejaVuSans-41" x="314.982422"/>
     <use xlink:href="#DejaVuSans-45" x="383.390625"/>
     <use xlink:href="#DejaVuSans-3a" x="446.574219"/>
     <use xlink:href="#DejaVuSans-20" x="480.265625"/>
     <use xlink:href="#DejaVuSans-35" x="512.052734"/>
     <use xlink:href="#DejaVuSans-2e" x="575.675781"/>
     <use xlink:href="#DejaVuSans-31" x="607.462891"/>
     <use xlink:href="#DejaVuSans-32" x="671.085938"/>
    </g>
    <!-- N(train): 2266 -->
    <g transform="translate(335.426638 82.705345) scale(0.11 -0.11)">
     <defs>
      <path id="DejaVuSans-4e" d="M 628 4666 
L 1478 4666 
L 3547 763 
L 3547 4666 
L 4159 4666 
L 4159 0 
L 3309 0 
L 1241 3903 
L 1241 0 
L 628 0 
L 628 4666 
z
" transform="scale(0.015625)"/>
      <path id="DejaVuSans-28" d="M 1984 4856 
Q 1566 4138 1362 3434 
Q 1159 2731 1159 2009 
Q 1159 1288 1364 580 
Q 1569 -128 1984 -844 
L 1484 -844 
Q 1016 -109 783 600 
Q 550 1309 550 2009 
Q 550 2706 781 3412 
Q 1013 4119 1484 4856 
L 1984 4856 
z
" transform="scale(0.015625)"/>
      <path id="DejaVuSans-69" d="M 603 3500 
L 1178 3500 
L 1178 0 
L 603 0 
L 603 3500 
z
M 603 4863 
L 1178 4863 
L 1178 4134 
L 603 4134 
L 603 4863 
z
" transform="scale(0.015625)"/>
      <path id="DejaVuSans-29" d="M 513 4856 
L 1013 4856 
Q 1481 4119 1714 3412 
Q 1947 2706 1947 2009 
Q 1947 1309 1714 600 
Q 1481 -109 1013 -844 
L 513 -844 
Q 928 -128 1133 580 
Q 1338 1288 1338 2009 
Q 1338 2731 1133 3434 
Q 928 4138 513 4856 
z
" transform="scale(0.015625)"/>
     </defs>
     <use xlink:href="#DejaVuSans-4e"/>
     <use xlink:href="#DejaVuSans-28" x="74.804688"/>
     <use xlink:href="#DejaVuSans-74" x="113.818359"/>
     <use xlink:href="#DejaVuSans-72" x="153.027344"/>
     <use xlink:href="#DejaVuSans-61" x="194.140625"/>
     <use xlink:href="#DejaVuSans-69" x="255.419922"/>
     <use xlink:href="#DejaVuSans-6e" x="283.203125"/>
     <use xlink:href="#DejaVuSans-29" x="346.582031"/>
     <use xlink:href="#DejaVuSans-3a" x="385.595703"/>
     <use xlink:href="#DejaVuSans-20" x="419.287109"/>
     <use xlink:href="#DejaVuSans-32" x="451.074219"/>
     <use xlink:href="#DejaVuSans-32" x="514.697266"/>
     <use xlink:href="#DejaVuSans-36" x="578.320312"/>
     <use xlink:href="#DejaVuSans-36" x="641.943359"/>
    </g>
    <!-- N(test):  567 -->
    <g transform="translate(335.426638 95.022939) scale(0.11 -0.11)">
     <defs>
      <path id="DejaVuSans-37" d="M 525 4666 
L 3525 4666 
L 3525 4397 
L 1831 0 
L 1172 0 
L 2766 4134 
L 525 4134 
L 525 4666 
z
" transform="scale(0.015625)"/>
     </defs>
     <use xlink:href="#DejaVuSans-4e"/>
     <use xlink:href="#DejaVuSans-28" x="74.804688"/>
     <use xlink:href="#DejaVuSans-74" x="113.818359"/>
     <use xlink:href="#DejaVuSans-65" x="153.027344"/>
     <use xlink:href="#DejaVuSans-73" x="214.550781"/>
     <use xlink:href="#DejaVuSans-74" x="266.650391"/>
     <use xlink:href="#DejaVuSans-29" x="305.859375"/>
     <use xlink:href="#DejaVuSans-3a" x="344.873047"/>
     <use xlink:href="#DejaVuSans-20" x="378.564453"/>
     <use xlink:href="#DejaVuSans-20" x="410.351562"/>
     <use xlink:href="#DejaVuSans-35" x="442.138672"/>
     <use xlink:href="#DejaVuSans-36" x="505.761719"/>
     <use xlink:href="#DejaVuSans-37" x="569.384766"/>
    </g>
    <!-- tol=5 min -->
    <g transform="translate(335.426638 107.340532) scale(0.11 -0.11)">
     <defs>
      <path id="DejaVuSans-6c" d="M 603 4863 
L 1178 4863 
L 1178 0 
L 603 0 
L 603 4863 
z
" transform="scale(0.015625)"/>
      <path id="DejaVuSans-3d" d="M 678 2906 
L 4684 2906 
L 4684 2381 
L 678 2381 
L 678 2906 
z
M 678 1631 
L 4684 1631 
L 4684 1100 
L 678 1100 
L 678 1631 
z
" transform="scale(0.015625)"/>
      <path id="DejaVuSans-b1" d="M 2944 4013 
L 2944 2803 
L 4684 2803 
L 4684 2272 
L 2944 2272 
L 2944 1063 
L 2419 1063 
L 2419 2272 
L 678 2272 
L 678 2803 
L 2419 2803 
L 2419 4013 
L 2944 4013 
z
M 678 531 
L 4684 531 
L 4684 0 
L 678 0 
L 678 531 
z
" transform="scale(0.015625)"/>
      <path id="DejaVuSans-6d" d="M 3328 2828 
Q 3544 3216 3844 3400 
Q 4144 3584 4550 3584 
Q 5097 3584 5394 3201 
Q 5691 2819 5691 2113 
L 5691 0 
L 5113 0 
L 5113 2094 
Q 5113 2597 4934 2840 
Q 4756 3084 4391 3084 
Q 3944 3084 3684 2787 
Q 3425 2491 3425 1978 
L 3425 0 
L 2847 0 
L 2847 2094 
Q 2847 2600 2669 2842 
Q 2491 3084 2119 3084 
Q 1678 3084 1418 2786 
Q 1159 2488 1159 1978 
L 1159 0 
L 581 0 
L 581 3500 
L 1159 3500 
L 1159 2956 
Q 1356 3278 1631 3431 
Q 1906 3584 2284 3584 
Q 2666 3584 2933 3390 
Q 3200 3197 3328 2828 
z
" transform="scale(0.015625)"/>
     </defs>
     <use xlink:href="#DejaVuSans-74"/>
     <use xlink:href="#DejaVuSans-6f" x="39.208984"/>
     <use xlink:href="#DejaVuSans-6c" x="100.390625"/>
     <use xlink:href="#DejaVuSans-3d" x="128.173828"/>
     <use xlink:href="#DejaVuSans-b1" x="211.962891"/>
     <use xlink:href="#DejaVuSans-35" x="295.751953"/>
     <use xlink:href="#DejaVuSans-20" x="359.375"/>
     <use xlink:href="#DejaVuSans-6d" x="391.162109"/>
     <use xlink:href="#DejaVuSans-69" x="488.574219"/>
     <use xlink:href="#DejaVuSans-6e" x="516.357422"/>
    </g>
   </g>
   <g id="text_15">
    <!-- Diurnal pattern of bias -->
    <g transform="translate(184.038672 14.197969) scale(0.13 -0.13)">
     <defs>
      <path id="DejaVuSans-44" d="M 1259 4147 
L 1259 519 
L 2022 519 
Q 2988 519 3436 956 
Q 3884 1394 3884 2338 
Q 3884 3275 3436 3711 
Q 2988 4147 2022 4147 
L 1259 4147 
z
M 628 4666 
L 1925 4666 
Q 3281 4666 3915 4102 
Q 4550 3538 4550 2338 
Q 4550 1131 3912 565 
Q 3275 0 1925 0 
L 628 0 
L 628 4666 
z
" transform="scale(0.015625)"/>
      <path id="DejaVuSans-70" d="M 1159 525 
L 1159 -1331 
L 581 -1331 
L 581 3500 
L 1159 3500 
L 1159 2969 
Q 1341 3281 1617 3432 
Q 1894 3584 2278 3584 
Q 2916 3584 3314 3078 
Q 3713 2572 3713 1747 
Q 3713 922 3314 415 
Q 2916 -91 2278 -91 
Q 1894 -91 1617 61 
Q 1341 213 1159 525 
z
M 3116 1747 
Q 3116 2381 2855 2742 
Q 2594 3103 2138 3103 
Q 1681 3103 1420 2742 
Q 1159 2381 1159 1747 
Q 1159 1113 1420 752 
Q 1681 391 2138 391 
Q 2594 391 2855 752 
Q 3116 1113 3116 1747 
z
" transform="scale(0.015625)"/>
      <path id="DejaVuSans-62" d="M 3116 1747 
Q 3116 2381 2855 2742 
Q 2594 3103 2138 3103 
Q 1681 3103 1420 2742 
Q 1159 2381 1159 1747 
Q 1159 1113 1420 752 
Q 1681 391 2138 391 
Q 2594 391 2855 752 
Q 3116 1113 3116 1747 
z
M 1159 2969 
Q 1341 3281 1617 3432 
Q 1894 3584 2278 3584 
Q 2916 3584 3314 3078 
Q 3713 2572 3713 1747 
Q 3713 922 3314 415 
Q 2916 -91 2278 -91 
Q 1894 -91 1617 61 
Q 1341 213 1159 525 
L 1159 0 
L 581 0 
L 581 4863 
L 1159 4863 
L 1159 2969 
z
" transform="scale(0.015625)"/>
     </defs>
     <use xlink:href="#DejaVuSans-44"/>
     <use xlink:href="#DejaVuSans-69" x="77.001953"/>
     <use xlink:href="#DejaVuSans-75" x="104.785156"/>
     <use xlink:href="#DejaVuSans-72" x="168.164062"/>
     <use xlink:href="#DejaVuSans-6e" x="207.527344"/>
     <use xlink:href="#DejaVuSans-61" x="270.90625"/>
     <use xlink:href="#DejaVuSans-6c" x="332.185547"/>
     <use xlink:href="#DejaVuSans-20" x="359.96875"/>
     <use xlink:href="#DejaVuSans-70" x="391.755859"/>
     <use xlink:href="#DejaVuSans-61" x="455.232422"/>
     <use xlink:href="#DejaVuSans-74" x="516.511719"/>
     <use xlink:href="#DejaVuSans-74" x="555.720703"/>
     <use xlink:href="#DejaVuSans-65" x="594.929688"/>
     <use xlink:href="#DejaVuSans-72" x="656.453125"/>
     <use xlink:href="#DejaVuSans-6e" x="695.816406"/>
     <use xlink:href="#DejaVuSans-20" x="759.195312"/>
     <use xlink:href="#DejaVuSans-6f" x="790.982422"/>
     <use xlink:href="#DejaVuSans-66" x="852.164062"/>
     <use xlink:href="#DejaVuSans-20" x="887.369141"/>
     <use xlink:href="#DejaVuSans-62" x="919.15625"/>
     <use xlink:href="#DejaVuSans-69" x="982.632812"/>
     <use xlink:href="#DejaVuSans-61" x="1010.416016"/>
     <use xlink:href="#DejaVuSans-73" x="1071.695312"/>
    </g>
   </g>
  </g>
 </g>
 <defs>
  <clipPath id="p347ce563e1">
   <rect x="39.463438" y="20.197969" width="435.24" height="243.936"/>
  </clipPath>
 </defs>
</svg>
