<?xml version="1.0" encoding="utf-8" standalone="no"?>
<!DOCTYPE svg PUBLIC "-//W3C//DTD SVG 1.1//EN"
  "http://www.w3.org/Graphics/SVG/1.1/DTD/svg11.dtd">
<svg xmlns:xlink="http://www.w3.org/1999/xlink" width="616.698621pt" height="278.375781pt" viewBox="0 0 616.698621 278.375781" xmlns="http://www.w3.org/2000/svg" version="1.1">
 <metadata>
  <rdf:RDF xmlns:dc="http://purl.org/dc/elements/1.1/" xmlns:cc="http://creativecommons.org/ns#" xmlns:rdf="http://www.w3.org/1999/02/22-rdf-syntax-ns#">
   <cc:Work>
    <dc:type rdf:resource="http://purl.org/dc/dcmitype/StillImage"/>
    <dc:date>2026-01-20T12:23:06.333057</dc:date>
    <dc:format>image/svg+xml</dc:format>
    <dc:creator>
     <cc:Agent>
      <dc:title>Matplotlib v3.7.2, https://matplotlib.org/</dc:title>
     </cc:Agent>
    </dc:creator>
   </cc:Work>
  </rdf:RDF>
 </metadata>
 <defs>
  <style type="text/css">*{stroke-linejoin: round; stroke-linecap: butt}</style>
 </defs>
 <g id="figure_1">
  <g id="patch_1">
   <path d="M 0 278.375781 
L 616.698621 278.375781 
L 616.698621 0 
L 0 0 
z
" style="fill: #ffffff"/>
  </g>
  <g id="axes_1"/>
  <g id="axes_2">
   <g id="patch_2">
    <path d="M 39.463438 241.957969 
L 187.16932 241.957969 
L 187.16932 20.197969 
L 39.463438 20.197969 
z
" style="fill: #ffffff"/>
   </g>
   <g id="matplotlib.axis_1">
    <g id="xtick_1">
     <g id="line2d_1">
      <path d="M 40.606619 241.957969 
L 40.606619 20.197969 
" clip-path="url(#p5f8c889209)" style="fill: none; stroke-dasharray: 2.59,1.12; stroke-dashoffset: 0; stroke: #b0b0b0; stroke-opacity: 0.18; stroke-width: 0.7"/>
     </g>
     <g id="line2d_2">
      <defs>
       <path id="m2f62b034df" d="M 0 0 
L 0 3 
" style="stroke: #000000; stroke-width: 0.8"/>
      </defs>
      <g>
       <use xlink:href="#m2f62b034df" x="40.606619" y="241.957969" style="stroke: #000000; stroke-width: 0.8"/>
      </g>
     </g>
     <g id="text_1">
      <!-- 20 -->
      <g transform="translate(33.607869 256.81625) scale(0.11 -0.11)">
       <defs>
        <path id="DejaVuSans-32" d="M 1228 531 
L 3431 531 
L 3431 0 
L 469 0 
L 469 531 
Q 828 903 1448 1529 
Q 2069 2156 2228 2338 
Q 2531 2678 2651 2914 
Q 2772 3150 2772 3378 
Q 2772 3750 2511 3984 
Q 2250 4219 1831 4219 
Q 1534 4219 1204 4116 
Q 875 4013 500 3803 
L 500 4441 
Q 881 4594 1212 4672 
Q 1544 4750 1819 4750 
Q 2544 4750 2975 4387 
Q 3406 4025 3406 3419 
Q 3406 3131 3298 2873 
Q 3191 2616 2906 2266 
Q 2828 2175 2409 1742 
Q 1991 1309 1228 531 
z
" transform="scale(0.015625)"/>
        <path id="DejaVuSans-30" d="M 2034 4250 
Q 1547 4250 1301 3770 
Q 1056 3291 1056 2328 
Q 1056 1369 1301 889 
Q 1547 409 2034 409 
Q 2525 409 2770 889 
Q 3016 1369 3016 2328 
Q 3016 3291 2770 3770 
Q 2525 4250 2034 4250 
z
M 2034 4750 
Q 2819 4750 3233 4129 
Q 3647 3509 3647 2328 
Q 3647 1150 3233 529 
Q 2819 -91 2034 -91 
Q 1250 -91 836 529 
Q 422 1150 422 2328 
Q 422 3509 836 4129 
Q 1250 4750 2034 4750 
z
" transform="scale(0.015625)"/>
       </defs>
       <use xlink:href="#DejaVuSans-32"/>
       <use xlink:href="#DejaVuSans-30" x="63.623047"/>
      </g>
     </g>
    </g>
    <g id="xtick_2">
     <g id="line2d_3">
      <path d="M 80.039018 241.957969 
L 80.039018 20.197969 
" clip-path="url(#p5f8c889209)" style="fill: none; stroke-dasharray: 2.59,1.12; stroke-dashoffset: 0; stroke: #b0b0b0; stroke-opacity: 0.18; stroke-width: 0.7"/>
     </g>
     <g id="line2d_4">
      <g>
       <use xlink:href="#m2f62b034df" x="80.039018" y="241.957969" style="stroke: #000000; stroke-width: 0.8"/>
      </g>
     </g>
     <g id="text_2">
      <!-- 40 -->
      <g transform="translate(73.040268 256.81625) scale(0.11 -0.11)">
       <defs>
        <path id="DejaVuSans-34" d="M 2419 4116 
L 825 1625 
L 2419 1625 
L 2419 4116 
z
M 2253 4666 
L 3047 4666 
L 3047 1625 
L 3713 1625 
L 3713 1100 
L 3047 1100 
L 3047 0 
L 2419 0 
L 2419 1100 
L 313 1100 
L 313 1709 
L 2253 4666 
z
" transform="scale(0.015625)"/>
       </defs>
       <use xlink:href="#DejaVuSans-34"/>
       <use xlink:href="#DejaVuSans-30" x="63.623047"/>
      </g>
     </g>
    </g>
    <g id="xtick_3">
     <g id="line2d_5">
      <path d="M 119.471418 241.957969 
L 119.471418 20.197969 
" clip-path="url(#p5f8c889209)" style="fill: none; stroke-dasharray: 2.59,1.12; stroke-dashoffset: 0; stroke: #b0b0b0; stroke-opacity: 0.18; stroke-width: 0.7"/>
     </g>
     <g id="line2d_6">
      <g>
       <use xlink:href="#m2f62b034df" x="119.471418" y="241.957969" style="stroke: #000000; stroke-width: 0.8"/>
      </g>
     </g>
     <g id="text_3">
      <!-- 60 -->
      <g transform="translate(112.472668 256.81625) scale(0.11 -0.11)">
       <defs>
        <path id="DejaVuSans-36" d="M 2113 2584 
Q 1688 2584 1439 2293 
Q 1191 2003 1191 1497 
Q 1191 994 1439 701 
Q 1688 409 2113 409 
Q 2538 409 2786 701 
Q 3034 994 3034 1497 
Q 3034 2003 2786 2293 
Q 2538 2584 2113 2584 
z
M 3366 4563 
L 3366 3988 
Q 3128 4100 2886 4159 
Q 2644 4219 2406 4219 
Q 1781 4219 1451 3797 
Q 1122 3375 1075 2522 
Q 1259 2794 1537 2939 
Q 1816 3084 2150 3084 
Q 2853 3084 3261 2657 
Q 3669 2231 3669 1497 
Q 3669 778 3244 343 
Q 2819 -91 2113 -91 
Q 1303 -91 875 529 
Q 447 1150 447 2328 
Q 447 3434 972 4092 
Q 1497 4750 2381 4750 
Q 2619 4750 2861 4703 
Q 3103 4656 3366 4563 
z
" transform="scale(0.015625)"/>
       </defs>
       <use xlink:href="#DejaVuSans-36"/>
       <use xlink:href="#DejaVuSans-30" x="63.623047"/>
      </g>
     </g>
    </g>
    <g id="xtick_4">
     <g id="line2d_7">
      <path d="M 158.903817 241.957969 
L 158.903817 20.197969 
" clip-path="url(#p5f8c889209)" style="fill: none; stroke-dasharray: 2.59,1.12; stroke-dashoffset: 0; stroke: #b0b0b0; stroke-opacity: 0.18; stroke-width: 0.7"/>
     </g>
     <g id="line2d_8">
      <g>
       <use xlink:href="#m2f62b034df" x="158.903817" y="241.957969" style="stroke: #000000; stroke-width: 0.8"/>
      </g>
     </g>
     <g id="text_4">
      <!-- 80 -->
      <g transform="translate(151.905067 256.81625) scale(0.11 -0.11)">
       <defs>
        <path id="DejaVuSans-38" d="M 2034 2216 
Q 1584 2216 1326 1975 
Q 1069 1734 1069 1313 
Q 1069 891 1326 650 
Q 1584 409 2034 409 
Q 2484 409 2743 651 
Q 3003 894 3003 1313 
Q 3003 1734 2745 1975 
Q 2488 2216 2034 2216 
z
M 1403 2484 
Q 997 2584 770 2862 
Q 544 3141 544 3541 
Q 544 4100 942 4425 
Q 1341 4750 2034 4750 
Q 2731 4750 3128 4425 
Q 3525 4100 3525 3541 
Q 3525 3141 3298 2862 
Q 3072 2584 2669 2484 
Q 3125 2378 3379 2068 
Q 3634 1759 3634 1313 
Q 3634 634 3220 271 
Q 2806 -91 2034 -91 
Q 1263 -91 848 271 
Q 434 634 434 1313 
Q 434 1759 690 2068 
Q 947 2378 1403 2484 
z
M 1172 3481 
Q 1172 3119 1398 2916 
Q 1625 2713 2034 2713 
Q 2441 2713 2670 2916 
Q 2900 3119 2900 3481 
Q 2900 3844 2670 4047 
Q 2441 4250 2034 4250 
Q 1625 4250 1398 4047 
Q 1172 3844 1172 3481 
z
" transform="scale(0.015625)"/>
       </defs>
       <use xlink:href="#DejaVuSans-38"/>
       <use xlink:href="#DejaVuSans-30" x="63.623047"/>
      </g>
     </g>
    </g>
    <g id="text_5">
     <!-- mc_Humidity_mean -->
     <g transform="translate(58.899035 271.462187) scale(0.11 -0.11)">
      <defs>
       <path id="DejaVuSans-6d" d="M 3328 2828 
Q 3544 3216 3844 3400 
Q 4144 3584 4550 3584 
Q 5097 3584 5394 3201 
Q 5691 2819 5691 2113 
L 5691 0 
L 5113 0 
L 5113 2094 
Q 5113 2597 4934 2840 
Q 4756 3084 4391 3084 
Q 3944 3084 3684 2787 
Q 3425 2491 3425 1978 
L 3425 0 
L 2847 0 
L 2847 2094 
Q 2847 2600 2669 2842 
Q 2491 3084 2119 3084 
Q 1678 3084 1418 2786 
Q 1159 2488 1159 1978 
L 1159 0 
L 581 0 
L 581 3500 
L 1159 3500 
L 1159 2956 
Q 1356 3278 1631 3431 
Q 1906 3584 2284 3584 
Q 2666 3584 2933 3390 
Q 3200 3197 3328 2828 
z
" transform="scale(0.015625)"/>
       <path id="DejaVuSans-63" d="M 3122 3366 
L 3122 2828 
Q 2878 2963 2633 3030 
Q 2388 3097 2138 3097 
Q 1578 3097 1268 2742 
Q 959 2388 959 1747 
Q 959 1106 1268 751 
Q 1578 397 2138 397 
Q 2388 397 2633 464 
Q 2878 531 3122 666 
L 3122 134 
Q 2881 22 2623 -34 
Q 2366 -91 2075 -91 
Q 1284 -91 818 406 
Q 353 903 353 1747 
Q 353 2603 823 3093 
Q 1294 3584 2113 3584 
Q 2378 3584 2631 3529 
Q 2884 3475 3122 3366 
z
" transform="scale(0.015625)"/>
       <path id="DejaVuSans-5f" d="M 3263 -1063 
L 3263 -1509 
L -63 -1509 
L -63 -1063 
L 3263 -1063 
z
" transform="scale(0.015625)"/>
       <path id="DejaVuSans-48" d="M 628 4666 
L 1259 4666 
L 1259 2753 
L 3553 2753 
L 3553 4666 
L 4184 4666 
L 4184 0 
L 3553 0 
L 3553 2222 
L 1259 2222 
L 1259 0 
L 628 0 
L 628 4666 
z
" transform="scale(0.015625)"/>
       <path id="DejaVuSans-75" d="M 544 1381 
L 544 3500 
L 1119 3500 
L 1119 1403 
Q 1119 906 1312 657 
Q 1506 409 1894 409 
Q 2359 409 2629 706 
Q 2900 1003 2900 1516 
L 2900 3500 
L 3475 3500 
L 3475 0 
L 2900 0 
L 2900 538 
Q 2691 219 2414 64 
Q 2138 -91 1772 -91 
Q 1169 -91 856 284 
Q 544 659 544 1381 
z
M 1991 3584 
L 1991 3584 
z
" transform="scale(0.015625)"/>
       <path id="DejaVuSans-69" d="M 603 3500 
L 1178 3500 
L 1178 0 
L 603 0 
L 603 3500 
z
M 603 4863 
L 1178 4863 
L 1178 4134 
L 603 4134 
L 603 4863 
z
" transform="scale(0.015625)"/>
       <path id="DejaVuSans-64" d="M 2906 2969 
L 2906 4863 
L 3481 4863 
L 3481 0 
L 2906 0 
L 2906 525 
Q 2725 213 2448 61 
Q 2172 -91 1784 -91 
Q 1150 -91 751 415 
Q 353 922 353 1747 
Q 353 2572 751 3078 
Q 1150 3584 1784 3584 
Q 2172 3584 2448 3432 
Q 2725 3281 2906 2969 
z
M 947 1747 
Q 947 1113 1208 752 
Q 1469 391 1925 391 
Q 2381 391 2643 752 
Q 2906 1113 2906 1747 
Q 2906 2381 2643 2742 
Q 2381 3103 1925 3103 
Q 1469 3103 1208 2742 
Q 947 2381 947 1747 
z
" transform="scale(0.015625)"/>
       <path id="DejaVuSans-74" d="M 1172 4494 
L 1172 3500 
L 2356 3500 
L 2356 3053 
L 1172 3053 
L 1172 1153 
Q 1172 725 1289 603 
Q 1406 481 1766 481 
L 2356 481 
L 2356 0 
L 1766 0 
Q 1100 0 847 248 
Q 594 497 594 1153 
L 594 3053 
L 172 3053 
L 172 3500 
L 594 3500 
L 594 4494 
L 1172 4494 
z
" transform="scale(0.015625)"/>
       <path id="DejaVuSans-79" d="M 2059 -325 
Q 1816 -950 1584 -1140 
Q 1353 -1331 966 -1331 
L 506 -1331 
L 506 -850 
L 844 -850 
Q 1081 -850 1212 -737 
Q 1344 -625 1503 -206 
L 1606 56 
L 191 3500 
L 800 3500 
L 1894 763 
L 2988 3500 
L 3597 3500 
L 2059 -325 
z
" transform="scale(0.015625)"/>
       <path id="DejaVuSans-65" d="M 3597 1894 
L 3597 1613 
L 953 1613 
Q 991 1019 1311 708 
Q 1631 397 2203 397 
Q 2534 397 2845 478 
Q 3156 559 3463 722 
L 3463 178 
Q 3153 47 2828 -22 
Q 2503 -91 2169 -91 
Q 1331 -91 842 396 
Q 353 884 353 1716 
Q 353 2575 817 3079 
Q 1281 3584 2069 3584 
Q 2775 3584 3186 3129 
Q 3597 2675 3597 1894 
z
M 3022 2063 
Q 3016 2534 2758 2815 
Q 2500 3097 2075 3097 
Q 1594 3097 1305 2825 
Q 1016 2553 972 2059 
L 3022 2063 
z
" transform="scale(0.015625)"/>
       <path id="DejaVuSans-61" d="M 2194 1759 
Q 1497 1759 1228 1600 
Q 959 1441 959 1056 
Q 959 750 1161 570 
Q 1363 391 1709 391 
Q 2188 391 2477 730 
Q 2766 1069 2766 1631 
L 2766 1759 
L 2194 1759 
z
M 3341 1997 
L 3341 0 
L 2766 0 
L 2766 531 
Q 2569 213 2275 61 
Q 1981 -91 1556 -91 
Q 1019 -91 701 211 
Q 384 513 384 1019 
Q 384 1609 779 1909 
Q 1175 2209 1959 2209 
L 2766 2209 
L 2766 2266 
Q 2766 2663 2505 2880 
Q 2244 3097 1772 3097 
Q 1472 3097 1187 3025 
Q 903 2953 641 2809 
L 641 3341 
Q 956 3463 1253 3523 
Q 1550 3584 1831 3584 
Q 2591 3584 2966 3190 
Q 3341 2797 3341 1997 
z
" transform="scale(0.015625)"/>
       <path id="DejaVuSans-6e" d="M 3513 2113 
L 3513 0 
L 2938 0 
L 2938 2094 
Q 2938 2591 2744 2837 
Q 2550 3084 2163 3084 
Q 1697 3084 1428 2787 
Q 1159 2491 1159 1978 
L 1159 0 
L 581 0 
L 581 3500 
L 1159 3500 
L 1159 2956 
Q 1366 3272 1645 3428 
Q 1925 3584 2291 3584 
Q 2894 3584 3203 3211 
Q 3513 2838 3513 2113 
z
" transform="scale(0.015625)"/>
      </defs>
      <use xlink:href="#DejaVuSans-6d"/>
      <use xlink:href="#DejaVuSans-63" x="97.412109"/>
      <use xlink:href="#DejaVuSans-5f" x="152.392578"/>
      <use xlink:href="#DejaVuSans-48" x="202.392578"/>
      <use xlink:href="#DejaVuSans-75" x="277.587891"/>
      <use xlink:href="#DejaVuSans-6d" x="340.966797"/>
      <use xlink:href="#DejaVuSans-69" x="438.378906"/>
      <use xlink:href="#DejaVuSans-64" x="466.162109"/>
      <use xlink:href="#DejaVuSans-69" x="529.638672"/>
      <use xlink:href="#DejaVuSans-74" x="557.421875"/>
      <use xlink:href="#DejaVuSans-79" x="596.630859"/>
      <use xlink:href="#DejaVuSans-5f" x="655.810547"/>
      <use xlink:href="#DejaVuSans-6d" x="705.810547"/>
      <use xlink:href="#DejaVuSans-65" x="803.222656"/>
      <use xlink:href="#DejaVuSans-61" x="864.746094"/>
      <use xlink:href="#DejaVuSans-6e" x="926.025391"/>
     </g>
    </g>
   </g>
   <g id="matplotlib.axis_2">
    <g id="ytick_1">
     <g id="line2d_9">
      <path d="M 39.463438 214.047623 
L 187.16932 214.047623 
" clip-path="url(#p5f8c889209)" style="fill: none; stroke-dasharray: 2.59,1.12; stroke-dashoffset: 0; stroke: #b0b0b0; stroke-opacity: 0.18; stroke-width: 0.7"/>
     </g>
     <g id="line2d_10">
      <defs>
       <path id="mc5c636e511" d="M 0 0 
L -3 0 
" style="stroke: #000000; stroke-width: 0.8"/>
      </defs>
      <g>
       <use xlink:href="#mc5c636e511" x="39.463438" y="214.047623" style="stroke: #000000; stroke-width: 0.8"/>
      </g>
     </g>
     <g id="text_6">
      <!-- 8 -->
      <g transform="translate(25.964688 218.226763) scale(0.11 -0.11)">
       <use xlink:href="#DejaVuSans-38"/>
      </g>
     </g>
    </g>
    <g id="ytick_2">
     <g id="line2d_11">
      <path d="M 39.463438 178.565537 
L 187.16932 178.565537 
" clip-path="url(#p5f8c889209)" style="fill: none; stroke-dasharray: 2.59,1.12; stroke-dashoffset: 0; stroke: #b0b0b0; stroke-opacity: 0.18; stroke-width: 0.7"/>
     </g>
     <g id="line2d_12">
      <g>
       <use xlink:href="#mc5c636e511" x="39.463438" y="178.565537" style="stroke: #000000; stroke-width: 0.8"/>
      </g>
     </g>
     <g id="text_7">
      <!-- 10 -->
      <g transform="translate(18.965938 182.744677) scale(0.11 -0.11)">
       <defs>
        <path id="DejaVuSans-31" d="M 794 531 
L 1825 531 
L 1825 4091 
L 703 3866 
L 703 4441 
L 1819 4666 
L 2450 4666 
L 2450 531 
L 3481 531 
L 3481 0 
L 794 0 
L 794 531 
z
" transform="scale(0.015625)"/>
       </defs>
       <use xlink:href="#DejaVuSans-31"/>
       <use xlink:href="#DejaVuSans-30" x="63.623047"/>
      </g>
     </g>
    </g>
    <g id="ytick_3">
     <g id="line2d_13">
      <path d="M 39.463438 143.083451 
L 187.16932 143.083451 
" clip-path="url(#p5f8c889209)" style="fill: none; stroke-dasharray: 2.59,1.12; stroke-dashoffset: 0; stroke: #b0b0b0; stroke-opacity: 0.18; stroke-width: 0.7"/>
     </g>
     <g id="line2d_14">
      <g>
       <use xlink:href="#mc5c636e511" x="39.463438" y="143.083451" style="stroke: #000000; stroke-width: 0.8"/>
      </g>
     </g>
     <g id="text_8">
      <!-- 12 -->
      <g transform="translate(18.965938 147.262591) scale(0.11 -0.11)">
       <use xlink:href="#DejaVuSans-31"/>
       <use xlink:href="#DejaVuSans-32" x="63.623047"/>
      </g>
     </g>
    </g>
    <g id="ytick_4">
     <g id="line2d_15">
      <path d="M 39.463438 107.601365 
L 187.16932 107.601365 
" clip-path="url(#p5f8c889209)" style="fill: none; stroke-dasharray: 2.59,1.12; stroke-dashoffset: 0; stroke: #b0b0b0; stroke-opacity: 0.18; stroke-width: 0.7"/>
     </g>
     <g id="line2d_16">
      <g>
       <use xlink:href="#mc5c636e511" x="39.463438" y="107.601365" style="stroke: #000000; stroke-width: 0.8"/>
      </g>
     </g>
     <g id="text_9">
      <!-- 14 -->
      <g transform="translate(18.965938 111.780505) scale(0.11 -0.11)">
       <use xlink:href="#DejaVuSans-31"/>
       <use xlink:href="#DejaVuSans-34" x="63.623047"/>
      </g>
     </g>
    </g>
    <g id="ytick_5">
     <g id="line2d_17">
      <path d="M 39.463438 72.119279 
L 187.16932 72.119279 
" clip-path="url(#p5f8c889209)" style="fill: none; stroke-dasharray: 2.59,1.12; stroke-dashoffset: 0; stroke: #b0b0b0; stroke-opacity: 0.18; stroke-width: 0.7"/>
     </g>
     <g id="line2d_18">
      <g>
       <use xlink:href="#mc5c636e511" x="39.463438" y="72.119279" style="stroke: #000000; stroke-width: 0.8"/>
      </g>
     </g>
     <g id="text_10">
      <!-- 16 -->
      <g transform="translate(18.965938 76.298419) scale(0.11 -0.11)">
       <use xlink:href="#DejaVuSans-31"/>
       <use xlink:href="#DejaVuSans-36" x="63.623047"/>
      </g>
     </g>
    </g>
    <g id="ytick_6">
     <g id="line2d_19">
      <path d="M 39.463438 36.637193 
L 187.16932 36.637193 
" clip-path="url(#p5f8c889209)" style="fill: none; stroke-dasharray: 2.59,1.12; stroke-dashoffset: 0; stroke: #b0b0b0; stroke-opacity: 0.18; stroke-width: 0.7"/>
     </g>
     <g id="line2d_20">
      <g>
       <use xlink:href="#mc5c636e511" x="39.463438" y="36.637193" style="stroke: #000000; stroke-width: 0.8"/>
      </g>
     </g>
     <g id="text_11">
      <!-- 18 -->
      <g transform="translate(18.965938 40.816333) scale(0.11 -0.11)">
       <use xlink:href="#DejaVuSans-31"/>
       <use xlink:href="#DejaVuSans-38" x="63.623047"/>
      </g>
     </g>
    </g>
    <g id="text_12">
     <!-- Partial dependence -->
     <g transform="translate(12.678281 184.116016) rotate(-90) scale(0.11 -0.11)">
      <defs>
       <path id="DejaVuSans-50" d="M 1259 4147 
L 1259 2394 
L 2053 2394 
Q 2494 2394 2734 2622 
Q 2975 2850 2975 3272 
Q 2975 3691 2734 3919 
Q 2494 4147 2053 4147 
L 1259 4147 
z
M 628 4666 
L 2053 4666 
Q 2838 4666 3239 4311 
Q 3641 3956 3641 3272 
Q 3641 2581 3239 2228 
Q 2838 1875 2053 1875 
L 1259 1875 
L 1259 0 
L 628 0 
L 628 4666 
z
" transform="scale(0.015625)"/>
       <path id="DejaVuSans-72" d="M 2631 2963 
Q 2534 3019 2420 3045 
Q 2306 3072 2169 3072 
Q 1681 3072 1420 2755 
Q 1159 2438 1159 1844 
L 1159 0 
L 581 0 
L 581 3500 
L 1159 3500 
L 1159 2956 
Q 1341 3275 1631 3429 
Q 1922 3584 2338 3584 
Q 2397 3584 2469 3576 
Q 2541 3569 2628 3553 
L 2631 2963 
z
" transform="scale(0.015625)"/>
       <path id="DejaVuSans-6c" d="M 603 4863 
L 1178 4863 
L 1178 0 
L 603 0 
L 603 4863 
z
" transform="scale(0.015625)"/>
       <path id="DejaVuSans-20" transform="scale(0.015625)"/>
       <path id="DejaVuSans-70" d="M 1159 525 
L 1159 -1331 
L 581 -1331 
L 581 3500 
L 1159 3500 
L 1159 2969 
Q 1341 3281 1617 3432 
Q 1894 3584 2278 3584 
Q 2916 3584 3314 3078 
Q 3713 2572 3713 1747 
Q 3713 922 3314 415 
Q 2916 -91 2278 -91 
Q 1894 -91 1617 61 
Q 1341 213 1159 525 
z
M 3116 1747 
Q 3116 2381 2855 2742 
Q 2594 3103 2138 3103 
Q 1681 3103 1420 2742 
Q 1159 2381 1159 1747 
Q 1159 1113 1420 752 
Q 1681 391 2138 391 
Q 2594 391 2855 752 
Q 3116 1113 3116 1747 
z
" transform="scale(0.015625)"/>
      </defs>
      <use xlink:href="#DejaVuSans-50"/>
      <use xlink:href="#DejaVuSans-61" x="55.802734"/>
      <use xlink:href="#DejaVuSans-72" x="117.082031"/>
      <use xlink:href="#DejaVuSans-74" x="158.195312"/>
      <use xlink:href="#DejaVuSans-69" x="197.404297"/>
      <use xlink:href="#DejaVuSans-61" x="225.1875"/>
      <use xlink:href="#DejaVuSans-6c" x="286.466797"/>
      <use xlink:href="#DejaVuSans-20" x="314.25"/>
      <use xlink:href="#DejaVuSans-64" x="346.037109"/>
      <use xlink:href="#DejaVuSans-65" x="409.513672"/>
      <use xlink:href="#DejaVuSans-70" x="471.037109"/>
      <use xlink:href="#DejaVuSans-65" x="534.513672"/>
      <use xlink:href="#DejaVuSans-6e" x="596.037109"/>
      <use xlink:href="#DejaVuSans-64" x="659.416016"/>
      <use xlink:href="#DejaVuSans-65" x="722.892578"/>
      <use xlink:href="#DejaVuSans-6e" x="784.416016"/>
      <use xlink:href="#DejaVuSans-63" x="847.794922"/>
      <use xlink:href="#DejaVuSans-65" x="902.775391"/>
     </g>
    </g>
   </g>
   <g id="line2d_21">
    <path d="M 46.177341 231.877969 
L 47.533685 231.877969 
L 48.89003 231.877969 
L 50.246374 231.877969 
L 51.602718 231.877969 
L 52.959062 231.877969 
L 54.315406 231.877969 
L 55.671751 231.877969 
L 57.028095 231.877969 
L 58.384439 231.877969 
L 59.740783 231.877969 
L 61.097127 231.877969 
L 62.453472 231.877969 
L 63.809816 231.877969 
L 65.16616 231.877969 
L 66.522504 231.877969 
L 67.878848 231.877969 
L 69.235192 231.855536 
L 70.591537 231.855536 
L 71.947881 231.855536 
L 73.304225 231.855536 
L 74.660569 231.578 
L 76.016913 231.578 
L 77.373258 231.578 
L 78.729602 231.578 
L 80.085946 221.367628 
L 81.44229 209.570197 
L 82.798634 209.570197 
L 84.154979 209.505092 
L 85.511323 209.505092 
L 86.867667 209.505092 
L 88.224011 208.358188 
L 89.580355 208.358188 
L 90.9367 208.025408 
L 92.293044 195.525949 
L 93.649388 194.039538 
L 95.005732 183.514806 
L 96.362076 183.514806 
L 97.71842 183.514806 
L 99.074765 180.14776 
L 100.431109 179.901883 
L 101.787453 179.901883 
L 103.143797 179.901883 
L 104.500141 179.901883 
L 105.856486 179.901883 
L 107.21283 179.489964 
L 108.569174 179.489964 
L 109.925518 163.340095 
L 111.281862 163.340095 
L 112.638207 163.340095 
L 113.994551 163.340095 
L 115.350895 163.176699 
L 116.707239 160.363761 
L 118.063583 159.975081 
L 119.419928 157.673666 
L 120.776272 149.206092 
L 122.132616 149.206092 
L 123.48896 147.588608 
L 124.845304 147.588608 
L 126.201648 146.748069 
L 127.557993 146.930446 
L 128.914337 140.599541 
L 130.270681 140.106722 
L 131.627025 139.501135 
L 132.983369 139.501135 
L 134.339714 139.296908 
L 135.696058 139.277161 
L 137.052402 139.277161 
L 138.408746 139.273101 
L 139.76509 138.716014 
L 141.121435 138.716014 
L 142.477779 137.797482 
L 143.834123 137.78633 
L 145.190467 137.86334 
L 146.546811 137.672546 
L 147.903156 137.661274 
L 149.2595 137.683878 
L 150.615844 136.014177 
L 151.972188 120.556403 
L 153.328532 107.44423 
L 154.684876 101.250279 
L 156.041221 100.622548 
L 157.397565 100.780938 
L 158.753909 99.607815 
L 160.110253 98.854965 
L 161.466597 87.567434 
L 162.822942 87.567434 
L 164.179286 87.567434 
L 165.53563 87.843994 
L 166.891974 87.843994 
L 168.248318 87.843994 
L 169.604663 87.843994 
L 170.961007 64.866561 
L 172.317351 64.723077 
L 173.673695 64.766082 
L 175.030039 66.614527 
L 176.386384 46.371033 
L 177.742728 46.365296 
L 179.099072 30.277969 
L 180.455416 30.277969 
" clip-path="url(#p5f8c889209)" style="fill: none; stroke: #f6cfaf; stroke-width: 2; stroke-linecap: square"/>
   </g>
   <g id="LineCollection_1">
    <path d="M 58.004193 241.957969 
L 58.004193 230.869969 
" clip-path="url(#p5f8c889209)" style="fill: none; stroke: #000000; stroke-width: 2"/>
    <path d="M 77.909669 241.957969 
L 77.909669 230.869969 
" clip-path="url(#p5f8c889209)" style="fill: none; stroke: #000000; stroke-width: 2"/>
    <path d="M 93.402658 241.957969 
L 93.402658 230.869969 
" clip-path="url(#p5f8c889209)" style="fill: none; stroke: #000000; stroke-width: 2"/>
    <path d="M 106.711093 241.957969 
L 106.711093 230.869969 
" clip-path="url(#p5f8c889209)" style="fill: none; stroke: #000000; stroke-width: 2"/>
    <path d="M 118.157004 241.957969 
L 118.157004 230.869969 
" clip-path="url(#p5f8c889209)" style="fill: none; stroke: #000000; stroke-width: 2"/>
    <path d="M 128.512192 241.957969 
L 128.512192 230.869969 
" clip-path="url(#p5f8c889209)" style="fill: none; stroke: #000000; stroke-width: 2"/>
    <path d="M 141.159238 241.957969 
L 141.159238 230.869969 
" clip-path="url(#p5f8c889209)" style="fill: none; stroke: #000000; stroke-width: 2"/>
    <path d="M 154.279472 241.957969 
L 154.279472 230.869969 
" clip-path="url(#p5f8c889209)" style="fill: none; stroke: #000000; stroke-width: 2"/>
    <path d="M 171.022708 241.957969 
L 171.022708 230.869969 
" clip-path="url(#p5f8c889209)" style="fill: none; stroke: #000000; stroke-width: 2"/>
   </g>
   <g id="patch_3">
    <path d="M 39.463438 241.957969 
L 39.463438 20.197969 
" style="fill: none; stroke: #000000; stroke-width: 0.9; stroke-linejoin: miter; stroke-linecap: square"/>
   </g>
   <g id="patch_4">
    <path d="M 39.463438 241.957969 
L 187.16932 241.957969 
" style="fill: none; stroke: #000000; stroke-width: 0.9; stroke-linejoin: miter; stroke-linecap: square"/>
   </g>
  </g>
  <g id="axes_3">
   <g id="patch_5">
    <path d="M 216.710496 241.957969 
L 364.416379 241.957969 
L 364.416379 20.197969 
L 216.710496 20.197969 
z
" style="fill: #ffffff"/>
   </g>
   <g id="matplotlib.axis_3">
    <g id="xtick_5">
     <g id="line2d_22">
      <path d="M 252.198273 241.957969 
L 252.198273 20.197969 
" clip-path="url(#p0797e0954d)" style="fill: none; stroke-dasharray: 2.59,1.12; stroke-dashoffset: 0; stroke: #b0b0b0; stroke-opacity: 0.18; stroke-width: 0.7"/>
     </g>
     <g id="line2d_23">
      <g>
       <use xlink:href="#m2f62b034df" x="252.198273" y="241.957969" style="stroke: #000000; stroke-width: 0.8"/>
      </g>
     </g>
     <g id="text_13">
      <!-- 10 -->
      <g transform="translate(245.199523 256.81625) scale(0.11 -0.11)">
       <use xlink:href="#DejaVuSans-31"/>
       <use xlink:href="#DejaVuSans-30" x="63.623047"/>
      </g>
     </g>
    </g>
    <g id="xtick_6">
     <g id="line2d_24">
      <path d="M 300.154729 241.957969 
L 300.154729 20.197969 
" clip-path="url(#p0797e0954d)" style="fill: none; stroke-dasharray: 2.59,1.12; stroke-dashoffset: 0; stroke: #b0b0b0; stroke-opacity: 0.18; stroke-width: 0.7"/>
     </g>
     <g id="line2d_25">
      <g>
       <use xlink:href="#m2f62b034df" x="300.154729" y="241.957969" style="stroke: #000000; stroke-width: 0.8"/>
      </g>
     </g>
     <g id="text_14">
      <!-- 15 -->
      <g transform="translate(293.155979 256.81625) scale(0.11 -0.11)">
       <defs>
        <path id="DejaVuSans-35" d="M 691 4666 
L 3169 4666 
L 3169 4134 
L 1269 4134 
L 1269 2991 
Q 1406 3038 1543 3061 
Q 1681 3084 1819 3084 
Q 2600 3084 3056 2656 
Q 3513 2228 3513 1497 
Q 3513 744 3044 326 
Q 2575 -91 1722 -91 
Q 1428 -91 1123 -41 
Q 819 9 494 109 
L 494 744 
Q 775 591 1075 516 
Q 1375 441 1709 441 
Q 2250 441 2565 725 
Q 2881 1009 2881 1497 
Q 2881 1984 2565 2268 
Q 2250 2553 1709 2553 
Q 1456 2553 1204 2497 
Q 953 2441 691 2322 
L 691 4666 
z
" transform="scale(0.015625)"/>
       </defs>
       <use xlink:href="#DejaVuSans-31"/>
       <use xlink:href="#DejaVuSans-35" x="63.623047"/>
      </g>
     </g>
    </g>
    <g id="xtick_7">
     <g id="line2d_26">
      <path d="M 348.111184 241.957969 
L 348.111184 20.197969 
" clip-path="url(#p0797e0954d)" style="fill: none; stroke-dasharray: 2.59,1.12; stroke-dashoffset: 0; stroke: #b0b0b0; stroke-opacity: 0.18; stroke-width: 0.7"/>
     </g>
     <g id="line2d_27">
      <g>
       <use xlink:href="#m2f62b034df" x="348.111184" y="241.957969" style="stroke: #000000; stroke-width: 0.8"/>
      </g>
     </g>
     <g id="text_15">
      <!-- 20 -->
      <g transform="translate(341.112434 256.81625) scale(0.11 -0.11)">
       <use xlink:href="#DejaVuSans-32"/>
       <use xlink:href="#DejaVuSans-30" x="63.623047"/>
      </g>
     </g>
    </g>
    <g id="text_16">
     <!-- mc_Temperature_mean -->
     <g transform="translate(226.247812 271.15625) scale(0.11 -0.11)">
      <defs>
       <path id="DejaVuSans-54" d="M -19 4666 
L 3928 4666 
L 3928 4134 
L 2272 4134 
L 2272 0 
L 1638 0 
L 1638 4134 
L -19 4134 
L -19 4666 
z
" transform="scale(0.015625)"/>
      </defs>
      <use xlink:href="#DejaVuSans-6d"/>
      <use xlink:href="#DejaVuSans-63" x="97.412109"/>
      <use xlink:href="#DejaVuSans-5f" x="152.392578"/>
      <use xlink:href="#DejaVuSans-54" x="202.392578"/>
      <use xlink:href="#DejaVuSans-65" x="246.476562"/>
      <use xlink:href="#DejaVuSans-6d" x="308"/>
      <use xlink:href="#DejaVuSans-70" x="405.412109"/>
      <use xlink:href="#DejaVuSans-65" x="468.888672"/>
      <use xlink:href="#DejaVuSans-72" x="530.412109"/>
      <use xlink:href="#DejaVuSans-61" x="571.525391"/>
      <use xlink:href="#DejaVuSans-74" x="632.804688"/>
      <use xlink:href="#DejaVuSans-75" x="672.013672"/>
      <use xlink:href="#DejaVuSans-72" x="735.392578"/>
      <use xlink:href="#DejaVuSans-65" x="774.255859"/>
      <use xlink:href="#DejaVuSans-5f" x="835.779297"/>
      <use xlink:href="#DejaVuSans-6d" x="885.779297"/>
      <use xlink:href="#DejaVuSans-65" x="983.191406"/>
      <use xlink:href="#DejaVuSans-61" x="1044.714844"/>
      <use xlink:href="#DejaVuSans-6e" x="1105.994141"/>
     </g>
    </g>
   </g>
   <g id="matplotlib.axis_4">
    <g id="ytick_7">
     <g id="line2d_28">
      <path d="M 216.710496 214.047623 
L 364.416379 214.047623 
" clip-path="url(#p0797e0954d)" style="fill: none; stroke-dasharray: 2.59,1.12; stroke-dashoffset: 0; stroke: #b0b0b0; stroke-opacity: 0.18; stroke-width: 0.7"/>
     </g>
     <g id="line2d_29">
      <g>
       <use xlink:href="#mc5c636e511" x="216.710496" y="214.047623" style="stroke: #000000; stroke-width: 0.8"/>
      </g>
     </g>
    </g>
    <g id="ytick_8">
     <g id="line2d_30">
      <path d="M 216.710496 178.565537 
L 364.416379 178.565537 
" clip-path="url(#p0797e0954d)" style="fill: none; stroke-dasharray: 2.59,1.12; stroke-dashoffset: 0; stroke: #b0b0b0; stroke-opacity: 0.18; stroke-width: 0.7"/>
     </g>
     <g id="line2d_31">
      <g>
       <use xlink:href="#mc5c636e511" x="216.710496" y="178.565537" style="stroke: #000000; stroke-width: 0.8"/>
      </g>
     </g>
    </g>
    <g id="ytick_9">
     <g id="line2d_32">
      <path d="M 216.710496 143.083451 
L 364.416379 143.083451 
" clip-path="url(#p0797e0954d)" style="fill: none; stroke-dasharray: 2.59,1.12; stroke-dashoffset: 0; stroke: #b0b0b0; stroke-opacity: 0.18; stroke-width: 0.7"/>
     </g>
     <g id="line2d_33">
      <g>
       <use xlink:href="#mc5c636e511" x="216.710496" y="143.083451" style="stroke: #000000; stroke-width: 0.8"/>
      </g>
     </g>
    </g>
    <g id="ytick_10">
     <g id="line2d_34">
      <path d="M 216.710496 107.601365 
L 364.416379 107.601365 
" clip-path="url(#p0797e0954d)" style="fill: none; stroke-dasharray: 2.59,1.12; stroke-dashoffset: 0; stroke: #b0b0b0; stroke-opacity: 0.18; stroke-width: 0.7"/>
     </g>
     <g id="line2d_35">
      <g>
       <use xlink:href="#mc5c636e511" x="216.710496" y="107.601365" style="stroke: #000000; stroke-width: 0.8"/>
      </g>
     </g>
    </g>
    <g id="ytick_11">
     <g id="line2d_36">
      <path d="M 216.710496 72.119279 
L 364.416379 72.119279 
" clip-path="url(#p0797e0954d)" style="fill: none; stroke-dasharray: 2.59,1.12; stroke-dashoffset: 0; stroke: #b0b0b0; stroke-opacity: 0.18; stroke-width: 0.7"/>
     </g>
     <g id="line2d_37">
      <g>
       <use xlink:href="#mc5c636e511" x="216.710496" y="72.119279" style="stroke: #000000; stroke-width: 0.8"/>
      </g>
     </g>
    </g>
    <g id="ytick_12">
     <g id="line2d_38">
      <path d="M 216.710496 36.637193 
L 364.416379 36.637193 
" clip-path="url(#p0797e0954d)" style="fill: none; stroke-dasharray: 2.59,1.12; stroke-dashoffset: 0; stroke: #b0b0b0; stroke-opacity: 0.18; stroke-width: 0.7"/>
     </g>
     <g id="line2d_39">
      <g>
       <use xlink:href="#mc5c636e511" x="216.710496" y="36.637193" style="stroke: #000000; stroke-width: 0.8"/>
      </g>
     </g>
    </g>
   </g>
   <g id="line2d_40">
    <path d="M 223.4244 144.556176 
L 224.780744 143.327429 
L 226.137088 139.622977 
L 227.493433 147.03168 
L 228.849777 147.03168 
L 230.206121 147.03168 
L 231.562465 147.01822 
L 232.918809 147.01822 
L 234.275154 155.085441 
L 235.631498 154.864514 
L 236.987842 154.864514 
L 238.344186 154.864514 
L 239.70053 154.864514 
L 241.056875 154.864514 
L 242.413219 155.044342 
L 243.769563 155.044778 
L 245.125907 154.539033 
L 246.482251 154.539033 
L 247.838595 154.539033 
L 249.19494 154.539033 
L 250.551284 154.539033 
L 251.907628 154.539033 
L 253.263972 152.682971 
L 254.620316 152.685464 
L 255.976661 152.685464 
L 257.333005 152.685464 
L 258.689349 152.454702 
L 260.045693 152.454702 
L 261.402037 152.434401 
L 262.758382 152.434401 
L 264.114726 152.434401 
L 265.47107 152.440875 
L 266.827414 152.440875 
L 268.183758 152.440875 
L 269.540103 152.440875 
L 270.896447 152.440875 
L 272.252791 152.440875 
L 273.609135 152.974882 
L 274.965479 152.974882 
L 276.321823 154.416245 
L 277.678168 154.416245 
L 279.034512 154.416245 
L 280.390856 154.416245 
L 281.7472 154.416245 
L 283.103544 154.416245 
L 284.459889 154.416245 
L 285.816233 154.517391 
L 287.172577 154.517391 
L 288.528921 154.517391 
L 289.885265 155.000284 
L 291.24161 155.000284 
L 292.597954 154.973945 
L 293.954298 154.416731 
L 295.310642 154.0065 
L 296.666986 154.0065 
L 298.023331 154.0065 
L 299.379675 154.0065 
L 300.736019 154.0065 
L 302.092363 154.0065 
L 303.448707 154.0065 
L 304.805052 154.0065 
L 306.161396 154.0065 
L 307.51774 154.0065 
L 308.874084 154.0065 
L 310.230428 154.0065 
L 311.586772 154.0065 
L 312.943117 154.0065 
L 314.299461 154.0065 
L 315.655805 154.0065 
L 317.012149 154.0065 
L 318.368493 154.0065 
L 319.724838 154.0065 
L 321.081182 154.0065 
L 322.437526 154.0065 
L 323.79387 154.0065 
L 325.150214 154.0065 
L 326.506559 154.0065 
L 327.862903 154.0065 
L 329.219247 154.0065 
L 330.575591 154.0065 
L 331.931935 154.0065 
L 333.28828 154.0065 
L 334.644624 154.0065 
L 336.000968 154.0065 
L 337.357312 154.0065 
L 338.713656 154.0065 
L 340.07 154.0065 
L 341.426345 154.0065 
L 342.782689 154.0065 
L 344.139033 154.0065 
L 345.495377 154.0065 
L 346.851721 154.0065 
L 348.208066 154.0065 
L 349.56441 154.0065 
L 350.920754 154.0065 
L 352.277098 154.0065 
L 353.633442 154.0065 
L 354.989787 154.0065 
L 356.346131 154.0065 
L 357.702475 154.0065 
" clip-path="url(#p0797e0954d)" style="fill: none; stroke: #f6cfaf; stroke-width: 2; stroke-linecap: square"/>
   </g>
   <g id="LineCollection_2">
    <path d="M 233.015691 241.957969 
L 233.015691 230.869969 
" clip-path="url(#p0797e0954d)" style="fill: none; stroke: #000000; stroke-width: 2"/>
    <path d="M 242.606982 241.957969 
L 242.606982 230.869969 
" clip-path="url(#p0797e0954d)" style="fill: none; stroke: #000000; stroke-width: 2"/>
    <path d="M 252.198273 241.957969 
L 252.198273 230.869969 
" clip-path="url(#p0797e0954d)" style="fill: none; stroke: #000000; stroke-width: 2"/>
    <path d="M 271.380855 241.957969 
L 271.380855 230.869969 
" clip-path="url(#p0797e0954d)" style="fill: none; stroke: #000000; stroke-width: 2"/>
    <path d="M 280.972146 241.957969 
L 280.972146 230.869969 
" clip-path="url(#p0797e0954d)" style="fill: none; stroke: #000000; stroke-width: 2"/>
    <path d="M 290.563437 241.957969 
L 290.563437 230.869969 
" clip-path="url(#p0797e0954d)" style="fill: none; stroke: #000000; stroke-width: 2"/>
    <path d="M 308.874084 241.957969 
L 308.874084 230.869969 
" clip-path="url(#p0797e0954d)" style="fill: none; stroke: #000000; stroke-width: 2"/>
    <path d="M 319.337311 241.957969 
L 319.337311 230.869969 
" clip-path="url(#p0797e0954d)" style="fill: none; stroke: #000000; stroke-width: 2"/>
    <path d="M 338.519893 241.957969 
L 338.519893 230.869969 
" clip-path="url(#p0797e0954d)" style="fill: none; stroke: #000000; stroke-width: 2"/>
   </g>
   <g id="patch_6">
    <path d="M 216.710496 241.957969 
L 216.710496 20.197969 
" style="fill: none; stroke: #000000; stroke-width: 0.9; stroke-linejoin: miter; stroke-linecap: square"/>
   </g>
   <g id="patch_7">
    <path d="M 216.710496 241.957969 
L 364.416379 241.957969 
" style="fill: none; stroke: #000000; stroke-width: 0.9; stroke-linejoin: miter; stroke-linecap: square"/>
   </g>
  </g>
  <g id="axes_4">
   <g id="patch_8">
    <path d="M 393.957555 241.957969 
L 541.663438 241.957969 
L 541.663438 20.197969 
L 393.957555 20.197969 
z
" style="fill: #ffffff"/>
   </g>
   <g id="matplotlib.axis_5">
    <g id="xtick_8">
     <g id="line2d_41">
      <path d="M 425.497646 241.957969 
L 425.497646 20.197969 
" clip-path="url(#p376c7693c7)" style="fill: none; stroke-dasharray: 2.59,1.12; stroke-dashoffset: 0; stroke: #b0b0b0; stroke-opacity: 0.18; stroke-width: 0.7"/>
     </g>
     <g id="line2d_42">
      <g>
       <use xlink:href="#m2f62b034df" x="425.497646" y="241.957969" style="stroke: #000000; stroke-width: 0.8"/>
      </g>
     </g>
     <g id="text_17">
      <!-- 0.5 -->
      <g transform="translate(416.750927 256.81625) scale(0.11 -0.11)">
       <defs>
        <path id="DejaVuSans-2e" d="M 684 794 
L 1344 794 
L 1344 0 
L 684 0 
L 684 794 
z
" transform="scale(0.015625)"/>
       </defs>
       <use xlink:href="#DejaVuSans-30"/>
       <use xlink:href="#DejaVuSans-2e" x="63.623047"/>
       <use xlink:href="#DejaVuSans-35" x="95.410156"/>
      </g>
     </g>
    </g>
    <g id="xtick_9">
     <g id="line2d_43">
      <path d="M 475.15002 241.957969 
L 475.15002 20.197969 
" clip-path="url(#p376c7693c7)" style="fill: none; stroke-dasharray: 2.59,1.12; stroke-dashoffset: 0; stroke: #b0b0b0; stroke-opacity: 0.18; stroke-width: 0.7"/>
     </g>
     <g id="line2d_44">
      <g>
       <use xlink:href="#m2f62b034df" x="475.15002" y="241.957969" style="stroke: #000000; stroke-width: 0.8"/>
      </g>
     </g>
     <g id="text_18">
      <!-- 1.0 -->
      <g transform="translate(466.403301 256.81625) scale(0.11 -0.11)">
       <use xlink:href="#DejaVuSans-31"/>
       <use xlink:href="#DejaVuSans-2e" x="63.623047"/>
       <use xlink:href="#DejaVuSans-30" x="95.410156"/>
      </g>
     </g>
    </g>
    <g id="xtick_10">
     <g id="line2d_45">
      <path d="M 524.802394 241.957969 
L 524.802394 20.197969 
" clip-path="url(#p376c7693c7)" style="fill: none; stroke-dasharray: 2.59,1.12; stroke-dashoffset: 0; stroke: #b0b0b0; stroke-opacity: 0.18; stroke-width: 0.7"/>
     </g>
     <g id="line2d_46">
      <g>
       <use xlink:href="#m2f62b034df" x="524.802394" y="241.957969" style="stroke: #000000; stroke-width: 0.8"/>
      </g>
     </g>
     <g id="text_19">
      <!-- 1.5 -->
      <g transform="translate(516.055675 256.81625) scale(0.11 -0.11)">
       <use xlink:href="#DejaVuSans-31"/>
       <use xlink:href="#DejaVuSans-2e" x="63.623047"/>
       <use xlink:href="#DejaVuSans-35" x="95.410156"/>
      </g>
     </g>
    </g>
    <g id="text_20">
     <!-- mc_WindSpeed_mean -->
     <g transform="translate(407.268387 271.462187) scale(0.11 -0.11)">
      <defs>
       <path id="DejaVuSans-57" d="M 213 4666 
L 850 4666 
L 1831 722 
L 2809 4666 
L 3519 4666 
L 4500 722 
L 5478 4666 
L 6119 4666 
L 4947 0 
L 4153 0 
L 3169 4050 
L 2175 0 
L 1381 0 
L 213 4666 
z
" transform="scale(0.015625)"/>
       <path id="DejaVuSans-53" d="M 3425 4513 
L 3425 3897 
Q 3066 4069 2747 4153 
Q 2428 4238 2131 4238 
Q 1616 4238 1336 4038 
Q 1056 3838 1056 3469 
Q 1056 3159 1242 3001 
Q 1428 2844 1947 2747 
L 2328 2669 
Q 3034 2534 3370 2195 
Q 3706 1856 3706 1288 
Q 3706 609 3251 259 
Q 2797 -91 1919 -91 
Q 1588 -91 1214 -16 
Q 841 59 441 206 
L 441 856 
Q 825 641 1194 531 
Q 1563 422 1919 422 
Q 2459 422 2753 634 
Q 3047 847 3047 1241 
Q 3047 1584 2836 1778 
Q 2625 1972 2144 2069 
L 1759 2144 
Q 1053 2284 737 2584 
Q 422 2884 422 3419 
Q 422 4038 858 4394 
Q 1294 4750 2059 4750 
Q 2388 4750 2728 4690 
Q 3069 4631 3425 4513 
z
" transform="scale(0.015625)"/>
      </defs>
      <use xlink:href="#DejaVuSans-6d"/>
      <use xlink:href="#DejaVuSans-63" x="97.412109"/>
      <use xlink:href="#DejaVuSans-5f" x="152.392578"/>
      <use xlink:href="#DejaVuSans-57" x="202.392578"/>
      <use xlink:href="#DejaVuSans-69" x="299.019531"/>
      <use xlink:href="#DejaVuSans-6e" x="326.802734"/>
      <use xlink:href="#DejaVuSans-64" x="390.181641"/>
      <use xlink:href="#DejaVuSans-53" x="453.658203"/>
      <use xlink:href="#DejaVuSans-70" x="517.134766"/>
      <use xlink:href="#DejaVuSans-65" x="580.611328"/>
      <use xlink:href="#DejaVuSans-65" x="642.134766"/>
      <use xlink:href="#DejaVuSans-64" x="703.658203"/>
      <use xlink:href="#DejaVuSans-5f" x="767.134766"/>
      <use xlink:href="#DejaVuSans-6d" x="817.134766"/>
      <use xlink:href="#DejaVuSans-65" x="914.546875"/>
      <use xlink:href="#DejaVuSans-61" x="976.070312"/>
      <use xlink:href="#DejaVuSans-6e" x="1037.349609"/>
     </g>
    </g>
   </g>
   <g id="matplotlib.axis_6">
    <g id="ytick_13">
     <g id="line2d_47">
      <path d="M 393.957555 214.047623 
L 541.663438 214.047623 
" clip-path="url(#p376c7693c7)" style="fill: none; stroke-dasharray: 2.59,1.12; stroke-dashoffset: 0; stroke: #b0b0b0; stroke-opacity: 0.18; stroke-width: 0.7"/>
     </g>
     <g id="line2d_48">
      <g>
       <use xlink:href="#mc5c636e511" x="393.957555" y="214.047623" style="stroke: #000000; stroke-width: 0.8"/>
      </g>
     </g>
    </g>
    <g id="ytick_14">
     <g id="line2d_49">
      <path d="M 393.957555 178.565537 
L 541.663438 178.565537 
" clip-path="url(#p376c7693c7)" style="fill: none; stroke-dasharray: 2.59,1.12; stroke-dashoffset: 0; stroke: #b0b0b0; stroke-opacity: 0.18; stroke-width: 0.7"/>
     </g>
     <g id="line2d_50">
      <g>
       <use xlink:href="#mc5c636e511" x="393.957555" y="178.565537" style="stroke: #000000; stroke-width: 0.8"/>
      </g>
     </g>
    </g>
    <g id="ytick_15">
     <g id="line2d_51">
      <path d="M 393.957555 143.083451 
L 541.663438 143.083451 
" clip-path="url(#p376c7693c7)" style="fill: none; stroke-dasharray: 2.59,1.12; stroke-dashoffset: 0; stroke: #b0b0b0; stroke-opacity: 0.18; stroke-width: 0.7"/>
     </g>
     <g id="line2d_52">
      <g>
       <use xlink:href="#mc5c636e511" x="393.957555" y="143.083451" style="stroke: #000000; stroke-width: 0.8"/>
      </g>
     </g>
    </g>
    <g id="ytick_16">
     <g id="line2d_53">
      <path d="M 393.957555 107.601365 
L 541.663438 107.601365 
" clip-path="url(#p376c7693c7)" style="fill: none; stroke-dasharray: 2.59,1.12; stroke-dashoffset: 0; stroke: #b0b0b0; stroke-opacity: 0.18; stroke-width: 0.7"/>
     </g>
     <g id="line2d_54">
      <g>
       <use xlink:href="#mc5c636e511" x="393.957555" y="107.601365" style="stroke: #000000; stroke-width: 0.8"/>
      </g>
     </g>
    </g>
    <g id="ytick_17">
     <g id="line2d_55">
      <path d="M 393.957555 72.119279 
L 541.663438 72.119279 
" clip-path="url(#p376c7693c7)" style="fill: none; stroke-dasharray: 2.59,1.12; stroke-dashoffset: 0; stroke: #b0b0b0; stroke-opacity: 0.18; stroke-width: 0.7"/>
     </g>
     <g id="line2d_56">
      <g>
       <use xlink:href="#mc5c636e511" x="393.957555" y="72.119279" style="stroke: #000000; stroke-width: 0.8"/>
      </g>
     </g>
    </g>
    <g id="ytick_18">
     <g id="line2d_57">
      <path d="M 393.957555 36.637193 
L 541.663438 36.637193 
" clip-path="url(#p376c7693c7)" style="fill: none; stroke-dasharray: 2.59,1.12; stroke-dashoffset: 0; stroke: #b0b0b0; stroke-opacity: 0.18; stroke-width: 0.7"/>
     </g>
     <g id="line2d_58">
      <g>
       <use xlink:href="#mc5c636e511" x="393.957555" y="36.637193" style="stroke: #000000; stroke-width: 0.8"/>
      </g>
     </g>
    </g>
   </g>
   <g id="line2d_59">
    <path d="M 400.671459 156.309957 
L 402.027803 156.309957 
L 403.384147 156.306292 
L 404.740491 156.306292 
L 406.096836 154.509197 
L 407.45318 154.041493 
L 408.809524 154.659462 
L 410.165868 154.631404 
L 411.522212 154.108021 
L 412.878557 153.22326 
L 414.234901 153.182839 
L 415.591245 152.931013 
L 416.947589 152.929552 
L 418.303933 147.999738 
L 419.660278 147.999738 
L 421.016622 147.999738 
L 422.372966 148.002587 
L 423.72931 148.163517 
L 425.085654 148.163517 
L 426.441999 148.326818 
L 427.798343 148.356575 
L 429.154687 148.356575 
L 430.511031 148.356575 
L 431.867375 148.402765 
L 433.223719 148.402765 
L 434.580064 148.477297 
L 435.936408 148.477297 
L 437.292752 148.477297 
L 438.649096 147.794014 
L 440.00544 147.794014 
L 441.361785 148.378785 
L 442.718129 148.378785 
L 444.074473 148.368237 
L 445.430817 148.597393 
L 446.787161 148.59305 
L 448.143506 148.55805 
L 449.49985 148.861623 
L 450.856194 148.748649 
L 452.212538 148.748649 
L 453.568882 148.743337 
L 454.925227 148.810474 
L 456.281571 148.729155 
L 457.637915 148.729155 
L 458.994259 148.437128 
L 460.350603 148.437128 
L 461.706947 148.511468 
L 463.063292 148.511468 
L 464.419636 148.472768 
L 465.77598 148.472768 
L 467.132324 148.703312 
L 468.488668 148.489915 
L 469.845013 148.536885 
L 471.201357 149.532668 
L 472.557701 149.030081 
L 473.914045 149.849355 
L 475.270389 150.052166 
L 476.626734 150.052166 
L 477.983078 150.66046 
L 479.339422 151.896 
L 480.695766 152.162752 
L 482.05211 152.417349 
L 483.408455 152.555768 
L 484.764799 152.555768 
L 486.121143 152.61606 
L 487.477487 153.838487 
L 488.833831 153.968884 
L 490.190175 153.968884 
L 491.54652 153.968884 
L 492.902864 153.968884 
L 494.259208 153.968884 
L 495.615552 153.968884 
L 496.971896 153.968884 
L 498.328241 153.968884 
L 499.684585 153.968884 
L 501.040929 153.968884 
L 502.397273 153.968884 
L 503.753617 153.670232 
L 505.109962 153.670232 
L 506.466306 153.670232 
L 507.82265 153.670232 
L 509.178994 153.670232 
L 510.535338 153.670232 
L 511.891683 153.658705 
L 513.248027 153.658705 
L 514.604371 153.658705 
L 515.960715 153.658705 
L 517.317059 153.658705 
L 518.673403 153.658705 
L 520.029748 153.658705 
L 521.386092 153.658705 
L 522.742436 153.658705 
L 524.09878 153.658705 
L 525.455124 153.658705 
L 526.811469 153.658705 
L 528.167813 153.658705 
L 529.524157 153.658705 
L 530.880501 153.658705 
L 532.236845 153.658705 
L 533.59319 153.658705 
L 534.949534 153.658705 
" clip-path="url(#p376c7693c7)" style="fill: none; stroke: #f6cfaf; stroke-width: 2; stroke-linecap: square"/>
   </g>
   <g id="LineCollection_3">
    <path d="M 407.291775 241.957969 
L 407.291775 230.869969 
" clip-path="url(#p376c7693c7)" style="fill: none; stroke: #000000; stroke-width: 2"/>
    <path d="M 420.460187 241.957969 
L 420.460187 230.869969 
" clip-path="url(#p376c7693c7)" style="fill: none; stroke: #000000; stroke-width: 2"/>
    <path d="M 431.331091 241.957969 
L 431.331091 230.869969 
" clip-path="url(#p376c7693c7)" style="fill: none; stroke: #000000; stroke-width: 2"/>
    <path d="M 441.386406 241.957969 
L 441.386406 230.869969 
" clip-path="url(#p376c7693c7)" style="fill: none; stroke: #000000; stroke-width: 2"/>
    <path d="M 452.580759 241.957969 
L 452.580759 230.869969 
" clip-path="url(#p376c7693c7)" style="fill: none; stroke: #000000; stroke-width: 2"/>
    <path d="M 465.219545 241.957969 
L 465.219545 230.869969 
" clip-path="url(#p376c7693c7)" style="fill: none; stroke: #000000; stroke-width: 2"/>
    <path d="M 476.955561 241.957969 
L 476.955561 230.869969 
" clip-path="url(#p376c7693c7)" style="fill: none; stroke: #000000; stroke-width: 2"/>
    <path d="M 494.108199 241.957969 
L 494.108199 230.869969 
" clip-path="url(#p376c7693c7)" style="fill: none; stroke: #000000; stroke-width: 2"/>
    <path d="M 515.77469 241.957969 
L 515.77469 230.869969 
" clip-path="url(#p376c7693c7)" style="fill: none; stroke: #000000; stroke-width: 2"/>
   </g>
   <g id="patch_9">
    <path d="M 393.957555 241.957969 
L 393.957555 20.197969 
" style="fill: none; stroke: #000000; stroke-width: 0.9; stroke-linejoin: miter; stroke-linecap: square"/>
   </g>
   <g id="patch_10">
    <path d="M 393.957555 241.957969 
L 541.663438 241.957969 
" style="fill: none; stroke: #000000; stroke-width: 0.9; stroke-linejoin: miter; stroke-linecap: square"/>
   </g>
   <g id="text_21">
    <!-- Partial dependence (direction of key factors) -->
    <g transform="translate(323.242371 14.197969) scale(0.13 -0.13)">
     <defs>
      <path id="DejaVuSans-28" d="M 1984 4856 
Q 1566 4138 1362 3434 
Q 1159 2731 1159 2009 
Q 1159 1288 1364 580 
Q 1569 -128 1984 -844 
L 1484 -844 
Q 1016 -109 783 600 
Q 550 1309 550 2009 
Q 550 2706 781 3412 
Q 1013 4119 1484 4856 
L 1984 4856 
z
" transform="scale(0.015625)"/>
      <path id="DejaVuSans-6f" d="M 1959 3097 
Q 1497 3097 1228 2736 
Q 959 2375 959 1747 
Q 959 1119 1226 758 
Q 1494 397 1959 397 
Q 2419 397 2687 759 
Q 2956 1122 2956 1747 
Q 2956 2369 2687 2733 
Q 2419 3097 1959 3097 
z
M 1959 3584 
Q 2709 3584 3137 3096 
Q 3566 2609 3566 1747 
Q 3566 888 3137 398 
Q 2709 -91 1959 -91 
Q 1206 -91 779 398 
Q 353 888 353 1747 
Q 353 2609 779 3096 
Q 1206 3584 1959 3584 
z
" transform="scale(0.015625)"/>
      <path id="DejaVuSans-66" d="M 2375 4863 
L 2375 4384 
L 1825 4384 
Q 1516 4384 1395 4259 
Q 1275 4134 1275 3809 
L 1275 3500 
L 2222 3500 
L 2222 3053 
L 1275 3053 
L 1275 0 
L 697 0 
L 697 3053 
L 147 3053 
L 147 3500 
L 697 3500 
L 697 3744 
Q 697 4328 969 4595 
Q 1241 4863 1831 4863 
L 2375 4863 
z
" transform="scale(0.015625)"/>
      <path id="DejaVuSans-6b" d="M 581 4863 
L 1159 4863 
L 1159 1991 
L 2875 3500 
L 3609 3500 
L 1753 1863 
L 3688 0 
L 2938 0 
L 1159 1709 
L 1159 0 
L 581 0 
L 581 4863 
z
" transform="scale(0.015625)"/>
      <path id="DejaVuSans-73" d="M 2834 3397 
L 2834 2853 
Q 2591 2978 2328 3040 
Q 2066 3103 1784 3103 
Q 1356 3103 1142 2972 
Q 928 2841 928 2578 
Q 928 2378 1081 2264 
Q 1234 2150 1697 2047 
L 1894 2003 
Q 2506 1872 2764 1633 
Q 3022 1394 3022 966 
Q 3022 478 2636 193 
Q 2250 -91 1575 -91 
Q 1294 -91 989 -36 
Q 684 19 347 128 
L 347 722 
Q 666 556 975 473 
Q 1284 391 1588 391 
Q 1994 391 2212 530 
Q 2431 669 2431 922 
Q 2431 1156 2273 1281 
Q 2116 1406 1581 1522 
L 1381 1569 
Q 847 1681 609 1914 
Q 372 2147 372 2553 
Q 372 3047 722 3315 
Q 1072 3584 1716 3584 
Q 2034 3584 2315 3537 
Q 2597 3491 2834 3397 
z
" transform="scale(0.015625)"/>
      <path id="DejaVuSans-29" d="M 513 4856 
L 1013 4856 
Q 1481 4119 1714 3412 
Q 1947 2706 1947 2009 
Q 1947 1309 1714 600 
Q 1481 -109 1013 -844 
L 513 -844 
Q 928 -128 1133 580 
Q 1338 1288 1338 2009 
Q 1338 2731 1133 3434 
Q 928 4138 513 4856 
z
" transform="scale(0.015625)"/>
     </defs>
     <use xlink:href="#DejaVuSans-50"/>
     <use xlink:href="#DejaVuSans-61" x="55.802734"/>
     <use xlink:href="#DejaVuSans-72" x="117.082031"/>
     <use xlink:href="#DejaVuSans-74" x="158.195312"/>
     <use xlink:href="#DejaVuSans-69" x="197.404297"/>
     <use xlink:href="#DejaVuSans-61" x="225.1875"/>
     <use xlink:href="#DejaVuSans-6c" x="286.466797"/>
     <use xlink:href="#DejaVuSans-20" x="314.25"/>
     <use xlink:href="#DejaVuSans-64" x="346.037109"/>
     <use xlink:href="#DejaVuSans-65" x="409.513672"/>
     <use xlink:href="#DejaVuSans-70" x="471.037109"/>
     <use xlink:href="#DejaVuSans-65" x="534.513672"/>
     <use xlink:href="#DejaVuSans-6e" x="596.037109"/>
     <use xlink:href="#DejaVuSans-64" x="659.416016"/>
     <use xlink:href="#DejaVuSans-65" x="722.892578"/>
     <use xlink:href="#DejaVuSans-6e" x="784.416016"/>
     <use xlink:href="#DejaVuSans-63" x="847.794922"/>
     <use xlink:href="#DejaVuSans-65" x="902.775391"/>
     <use xlink:href="#DejaVuSans-20" x="964.298828"/>
     <use xlink:href="#DejaVuSans-28" x="996.085938"/>
     <use xlink:href="#DejaVuSans-64" x="1035.099609"/>
     <use xlink:href="#DejaVuSans-69" x="1098.576172"/>
     <use xlink:href="#DejaVuSans-72" x="1126.359375"/>
     <use xlink:href="#DejaVuSans-65" x="1165.222656"/>
     <use xlink:href="#DejaVuSans-63" x="1226.746094"/>
     <use xlink:href="#DejaVuSans-74" x="1281.726562"/>
     <use xlink:href="#DejaVuSans-69" x="1320.935547"/>
     <use xlink:href="#DejaVuSans-6f" x="1348.71875"/>
     <use xlink:href="#DejaVuSans-6e" x="1409.900391"/>
     <use xlink:href="#DejaVuSans-20" x="1473.279297"/>
     <use xlink:href="#DejaVuSans-6f" x="1505.066406"/>
     <use xlink:href="#DejaVuSans-66" x="1566.248047"/>
     <use xlink:href="#DejaVuSans-20" x="1601.453125"/>
     <use xlink:href="#DejaVuSans-6b" x="1633.240234"/>
     <use xlink:href="#DejaVuSans-65" x="1687.525391"/>
     <use xlink:href="#DejaVuSans-79" x="1749.048828"/>
     <use xlink:href="#DejaVuSans-20" x="1808.228516"/>
     <use xlink:href="#DejaVuSans-66" x="1840.015625"/>
     <use xlink:href="#DejaVuSans-61" x="1875.220703"/>
     <use xlink:href="#DejaVuSans-63" x="1936.5"/>
     <use xlink:href="#DejaVuSans-74" x="1991.480469"/>
     <use xlink:href="#DejaVuSans-6f" x="2030.689453"/>
     <use xlink:href="#DejaVuSans-72" x="2091.871094"/>
     <use xlink:href="#DejaVuSans-73" x="2132.984375"/>
     <use xlink:href="#DejaVuSans-29" x="2185.083984"/>
    </g>
   </g>
  </g>
 </g>
 <defs>
  <clipPath id="p5f8c889209">
   <rect x="39.463438" y="20.197969" width="147.705882" height="221.76"/>
  </clipPath>
  <clipPath id="p0797e0954d">
   <rect x="216.710496" y="20.197969" width="147.705882" height="221.76"/>
  </clipPath>
  <clipPath id="p376c7693c7">
   <rect x="393.957555" y="20.197969" width="147.705882" height="221.76"/>
  </clipPath>
 </defs>
</svg>
