<?xml version="1.0" encoding="utf-8" standalone="no"?>
<!DOCTYPE svg PUBLIC "-//W3C//DTD SVG 1.1//EN"
  "http://www.w3.org/Graphics/SVG/1.1/DTD/svg11.dtd">
<svg xmlns:xlink="http://www.w3.org/1999/xlink" width="530.007098pt" height="301.169844pt" viewBox="0 0 530.007098 301.169844" xmlns="http://www.w3.org/2000/svg" version="1.1">
 <metadata>
  <rdf:RDF xmlns:dc="http://purl.org/dc/elements/1.1/" xmlns:cc="http://creativecommons.org/ns#" xmlns:rdf="http://www.w3.org/1999/02/22-rdf-syntax-ns#">
   <cc:Work>
    <dc:type rdf:resource="http://purl.org/dc/dcmitype/StillImage"/>
    <dc:date>2026-01-19T12:50:47.113857</dc:date>
    <dc:format>image/svg+xml</dc:format>
    <dc:creator>
     <cc:Agent>
      <dc:title>Matplotlib v3.9.4, https://matplotlib.org/</dc:title>
     </cc:Agent>
    </dc:creator>
   </cc:Work>
  </rdf:RDF>
 </metadata>
 <defs>
  <style type="text/css">*{stroke-linejoin: round; stroke-linecap: butt}</style>
 </defs>
 <g id="figure_1">
  <g id="patch_1">
   <path d="M 0 301.169844 
L 530.007098 301.169844 
L 530.007098 0 
L 0 0 
z
" style="fill: #ffffff"/>
  </g>
  <g id="axes_1">
   <g id="patch_2">
    <path d="M 49.181094 264.557969 
L 523.891872 264.557969 
L 523.891872 20.197969 
L 49.181094 20.197969 
z
" style="fill: #ffffff"/>
   </g>
   <g id="matplotlib.axis_1">
    <g id="xtick_1">
     <g id="line2d_1">
      <defs>
       <path id="m53e15e2264" d="M 0 0 
L 0 3.5 
" style="stroke: #000000; stroke-width: 0.8"/>
      </defs>
      <g>
       <use xlink:href="#m53e15e2264" x="122.822812" y="264.557969" style="stroke: #000000; stroke-width: 0.8"/>
      </g>
     </g>
     <g id="text_1">
      <!-- 2018-12 -->
      <g transform="translate(99.842265 279.91625) scale(0.11 -0.11)">
       <defs>
        <path id="DejaVuSans-32" d="M 1228 531 
L 3431 531 
L 3431 0 
L 469 0 
L 469 531 
Q 828 903 1448 1529 
Q 2069 2156 2228 2338 
Q 2531 2678 2651 2914 
Q 2772 3150 2772 3378 
Q 2772 3750 2511 3984 
Q 2250 4219 1831 4219 
Q 1534 4219 1204 4116 
Q 875 4013 500 3803 
L 500 4441 
Q 881 4594 1212 4672 
Q 1544 4750 1819 4750 
Q 2544 4750 2975 4387 
Q 3406 4025 3406 3419 
Q 3406 3131 3298 2873 
Q 3191 2616 2906 2266 
Q 2828 2175 2409 1742 
Q 1991 1309 1228 531 
z
" transform="scale(0.015625)"/>
        <path id="DejaVuSans-30" d="M 2034 4250 
Q 1547 4250 1301 3770 
Q 1056 3291 1056 2328 
Q 1056 1369 1301 889 
Q 1547 409 2034 409 
Q 2525 409 2770 889 
Q 3016 1369 3016 2328 
Q 3016 3291 2770 3770 
Q 2525 4250 2034 4250 
z
M 2034 4750 
Q 2819 4750 3233 4129 
Q 3647 3509 3647 2328 
Q 3647 1150 3233 529 
Q 2819 -91 2034 -91 
Q 1250 -91 836 529 
Q 422 1150 422 2328 
Q 422 3509 836 4129 
Q 1250 4750 2034 4750 
z
" transform="scale(0.015625)"/>
        <path id="DejaVuSans-31" d="M 794 531 
L 1825 531 
L 1825 4091 
L 703 3866 
L 703 4441 
L 1819 4666 
L 2450 4666 
L 2450 531 
L 3481 531 
L 3481 0 
L 794 0 
L 794 531 
z
" transform="scale(0.015625)"/>
        <path id="DejaVuSans-38" d="M 2034 2216 
Q 1584 2216 1326 1975 
Q 1069 1734 1069 1313 
Q 1069 891 1326 650 
Q 1584 409 2034 409 
Q 2484 409 2743 651 
Q 3003 894 3003 1313 
Q 3003 1734 2745 1975 
Q 2488 2216 2034 2216 
z
M 1403 2484 
Q 997 2584 770 2862 
Q 544 3141 544 3541 
Q 544 4100 942 4425 
Q 1341 4750 2034 4750 
Q 2731 4750 3128 4425 
Q 3525 4100 3525 3541 
Q 3525 3141 3298 2862 
Q 3072 2584 2669 2484 
Q 3125 2378 3379 2068 
Q 3634 1759 3634 1313 
Q 3634 634 3220 271 
Q 2806 -91 2034 -91 
Q 1263 -91 848 271 
Q 434 634 434 1313 
Q 434 1759 690 2068 
Q 947 2378 1403 2484 
z
M 1172 3481 
Q 1172 3119 1398 2916 
Q 1625 2713 2034 2713 
Q 2441 2713 2670 2916 
Q 2900 3119 2900 3481 
Q 2900 3844 2670 4047 
Q 2441 4250 2034 4250 
Q 1625 4250 1398 4047 
Q 1172 3844 1172 3481 
z
" transform="scale(0.015625)"/>
        <path id="DejaVuSans-2d" d="M 313 2009 
L 1997 2009 
L 1997 1497 
L 313 1497 
L 313 2009 
z
" transform="scale(0.015625)"/>
       </defs>
       <use xlink:href="#DejaVuSans-32"/>
       <use xlink:href="#DejaVuSans-30" x="63.623047"/>
       <use xlink:href="#DejaVuSans-31" x="127.246094"/>
       <use xlink:href="#DejaVuSans-38" x="190.869141"/>
       <use xlink:href="#DejaVuSans-2d" x="254.492188"/>
       <use xlink:href="#DejaVuSans-31" x="290.576172"/>
       <use xlink:href="#DejaVuSans-32" x="354.199219"/>
      </g>
     </g>
    </g>
    <g id="xtick_2">
     <g id="line2d_2">
      <g>
       <use xlink:href="#m53e15e2264" x="220.148398" y="264.557969" style="stroke: #000000; stroke-width: 0.8"/>
      </g>
     </g>
     <g id="text_2">
      <!-- 2019-01 -->
      <g transform="translate(197.167851 279.91625) scale(0.11 -0.11)">
       <defs>
        <path id="DejaVuSans-39" d="M 703 97 
L 703 672 
Q 941 559 1184 500 
Q 1428 441 1663 441 
Q 2288 441 2617 861 
Q 2947 1281 2994 2138 
Q 2813 1869 2534 1725 
Q 2256 1581 1919 1581 
Q 1219 1581 811 2004 
Q 403 2428 403 3163 
Q 403 3881 828 4315 
Q 1253 4750 1959 4750 
Q 2769 4750 3195 4129 
Q 3622 3509 3622 2328 
Q 3622 1225 3098 567 
Q 2575 -91 1691 -91 
Q 1453 -91 1209 -44 
Q 966 3 703 97 
z
M 1959 2075 
Q 2384 2075 2632 2365 
Q 2881 2656 2881 3163 
Q 2881 3666 2632 3958 
Q 2384 4250 1959 4250 
Q 1534 4250 1286 3958 
Q 1038 3666 1038 3163 
Q 1038 2656 1286 2365 
Q 1534 2075 1959 2075 
z
" transform="scale(0.015625)"/>
       </defs>
       <use xlink:href="#DejaVuSans-32"/>
       <use xlink:href="#DejaVuSans-30" x="63.623047"/>
       <use xlink:href="#DejaVuSans-31" x="127.246094"/>
       <use xlink:href="#DejaVuSans-39" x="190.869141"/>
       <use xlink:href="#DejaVuSans-2d" x="254.492188"/>
       <use xlink:href="#DejaVuSans-30" x="290.576172"/>
       <use xlink:href="#DejaVuSans-31" x="354.199219"/>
      </g>
     </g>
    </g>
    <g id="xtick_3">
     <g id="line2d_3">
      <g>
       <use xlink:href="#m53e15e2264" x="317.473984" y="264.557969" style="stroke: #000000; stroke-width: 0.8"/>
      </g>
     </g>
     <g id="text_3">
      <!-- 2019-02 -->
      <g transform="translate(294.493437 279.91625) scale(0.11 -0.11)">
       <use xlink:href="#DejaVuSans-32"/>
       <use xlink:href="#DejaVuSans-30" x="63.623047"/>
       <use xlink:href="#DejaVuSans-31" x="127.246094"/>
       <use xlink:href="#DejaVuSans-39" x="190.869141"/>
       <use xlink:href="#DejaVuSans-2d" x="254.492188"/>
       <use xlink:href="#DejaVuSans-30" x="290.576172"/>
       <use xlink:href="#DejaVuSans-32" x="354.199219"/>
      </g>
     </g>
    </g>
    <g id="xtick_4">
     <g id="line2d_4">
      <g>
       <use xlink:href="#m53e15e2264" x="405.380965" y="264.557969" style="stroke: #000000; stroke-width: 0.8"/>
      </g>
     </g>
     <g id="text_4">
      <!-- 2019-03 -->
      <g transform="translate(382.400418 279.91625) scale(0.11 -0.11)">
       <defs>
        <path id="DejaVuSans-33" d="M 2597 2516 
Q 3050 2419 3304 2112 
Q 3559 1806 3559 1356 
Q 3559 666 3084 287 
Q 2609 -91 1734 -91 
Q 1441 -91 1130 -33 
Q 819 25 488 141 
L 488 750 
Q 750 597 1062 519 
Q 1375 441 1716 441 
Q 2309 441 2620 675 
Q 2931 909 2931 1356 
Q 2931 1769 2642 2001 
Q 2353 2234 1838 2234 
L 1294 2234 
L 1294 2753 
L 1863 2753 
Q 2328 2753 2575 2939 
Q 2822 3125 2822 3475 
Q 2822 3834 2567 4026 
Q 2313 4219 1838 4219 
Q 1578 4219 1281 4162 
Q 984 4106 628 3988 
L 628 4550 
Q 988 4650 1302 4700 
Q 1616 4750 1894 4750 
Q 2613 4750 3031 4423 
Q 3450 4097 3450 3541 
Q 3450 3153 3228 2886 
Q 3006 2619 2597 2516 
z
" transform="scale(0.015625)"/>
       </defs>
       <use xlink:href="#DejaVuSans-32"/>
       <use xlink:href="#DejaVuSans-30" x="63.623047"/>
       <use xlink:href="#DejaVuSans-31" x="127.246094"/>
       <use xlink:href="#DejaVuSans-39" x="190.869141"/>
       <use xlink:href="#DejaVuSans-2d" x="254.492188"/>
       <use xlink:href="#DejaVuSans-30" x="290.576172"/>
       <use xlink:href="#DejaVuSans-33" x="354.199219"/>
      </g>
     </g>
    </g>
    <g id="xtick_5">
     <g id="line2d_5">
      <g>
       <use xlink:href="#m53e15e2264" x="502.706551" y="264.557969" style="stroke: #000000; stroke-width: 0.8"/>
      </g>
     </g>
     <g id="text_5">
      <!-- 2019-04 -->
      <g transform="translate(479.726004 279.91625) scale(0.11 -0.11)">
       <defs>
        <path id="DejaVuSans-34" d="M 2419 4116 
L 825 1625 
L 2419 1625 
L 2419 4116 
z
M 2253 4666 
L 3047 4666 
L 3047 1625 
L 3713 1625 
L 3713 1100 
L 3047 1100 
L 3047 0 
L 2419 0 
L 2419 1100 
L 313 1100 
L 313 1709 
L 2253 4666 
z
" transform="scale(0.015625)"/>
       </defs>
       <use xlink:href="#DejaVuSans-32"/>
       <use xlink:href="#DejaVuSans-30" x="63.623047"/>
       <use xlink:href="#DejaVuSans-31" x="127.246094"/>
       <use xlink:href="#DejaVuSans-39" x="190.869141"/>
       <use xlink:href="#DejaVuSans-2d" x="254.492188"/>
       <use xlink:href="#DejaVuSans-30" x="290.576172"/>
       <use xlink:href="#DejaVuSans-34" x="354.199219"/>
      </g>
     </g>
    </g>
    <g id="text_6">
     <!-- Hour -->
     <g transform="translate(273.288358 294.562187) scale(0.11 -0.11)">
      <defs>
       <path id="DejaVuSans-48" d="M 628 4666 
L 1259 4666 
L 1259 2753 
L 3553 2753 
L 3553 4666 
L 4184 4666 
L 4184 0 
L 3553 0 
L 3553 2222 
L 1259 2222 
L 1259 0 
L 628 0 
L 628 4666 
z
" transform="scale(0.015625)"/>
       <path id="DejaVuSans-6f" d="M 1959 3097 
Q 1497 3097 1228 2736 
Q 959 2375 959 1747 
Q 959 1119 1226 758 
Q 1494 397 1959 397 
Q 2419 397 2687 759 
Q 2956 1122 2956 1747 
Q 2956 2369 2687 2733 
Q 2419 3097 1959 3097 
z
M 1959 3584 
Q 2709 3584 3137 3096 
Q 3566 2609 3566 1747 
Q 3566 888 3137 398 
Q 2709 -91 1959 -91 
Q 1206 -91 779 398 
Q 353 888 353 1747 
Q 353 2609 779 3096 
Q 1206 3584 1959 3584 
z
" transform="scale(0.015625)"/>
       <path id="DejaVuSans-75" d="M 544 1381 
L 544 3500 
L 1119 3500 
L 1119 1403 
Q 1119 906 1312 657 
Q 1506 409 1894 409 
Q 2359 409 2629 706 
Q 2900 1003 2900 1516 
L 2900 3500 
L 3475 3500 
L 3475 0 
L 2900 0 
L 2900 538 
Q 2691 219 2414 64 
Q 2138 -91 1772 -91 
Q 1169 -91 856 284 
Q 544 659 544 1381 
z
M 1991 3584 
L 1991 3584 
z
" transform="scale(0.015625)"/>
       <path id="DejaVuSans-72" d="M 2631 2963 
Q 2534 3019 2420 3045 
Q 2306 3072 2169 3072 
Q 1681 3072 1420 2755 
Q 1159 2438 1159 1844 
L 1159 0 
L 581 0 
L 581 3500 
L 1159 3500 
L 1159 2956 
Q 1341 3275 1631 3429 
Q 1922 3584 2338 3584 
Q 2397 3584 2469 3576 
Q 2541 3569 2628 3553 
L 2631 2963 
z
" transform="scale(0.015625)"/>
      </defs>
      <use xlink:href="#DejaVuSans-48"/>
      <use xlink:href="#DejaVuSans-6f" x="75.195312"/>
      <use xlink:href="#DejaVuSans-75" x="136.376953"/>
      <use xlink:href="#DejaVuSans-72" x="199.755859"/>
     </g>
    </g>
   </g>
   <g id="matplotlib.axis_2">
    <g id="ytick_1">
     <g id="line2d_6">
      <defs>
       <path id="m6e422fecaf" d="M 0 0 
L -3.5 0 
" style="stroke: #000000; stroke-width: 0.8"/>
      </defs>
      <g>
       <use xlink:href="#m6e422fecaf" x="49.181094" y="260.141824" style="stroke: #000000; stroke-width: 0.8"/>
      </g>
     </g>
     <g id="text_7">
      <!-- −50 -->
      <g transform="translate(18.965938 264.320965) scale(0.11 -0.11)">
       <defs>
        <path id="DejaVuSans-2212" d="M 678 2272 
L 4684 2272 
L 4684 1741 
L 678 1741 
L 678 2272 
z
" transform="scale(0.015625)"/>
        <path id="DejaVuSans-35" d="M 691 4666 
L 3169 4666 
L 3169 4134 
L 1269 4134 
L 1269 2991 
Q 1406 3038 1543 3061 
Q 1681 3084 1819 3084 
Q 2600 3084 3056 2656 
Q 3513 2228 3513 1497 
Q 3513 744 3044 326 
Q 2575 -91 1722 -91 
Q 1428 -91 1123 -41 
Q 819 9 494 109 
L 494 744 
Q 775 591 1075 516 
Q 1375 441 1709 441 
Q 2250 441 2565 725 
Q 2881 1009 2881 1497 
Q 2881 1984 2565 2268 
Q 2250 2553 1709 2553 
Q 1456 2553 1204 2497 
Q 953 2441 691 2322 
L 691 4666 
z
" transform="scale(0.015625)"/>
       </defs>
       <use xlink:href="#DejaVuSans-2212"/>
       <use xlink:href="#DejaVuSans-35" x="83.789062"/>
       <use xlink:href="#DejaVuSans-30" x="147.412109"/>
      </g>
     </g>
    </g>
    <g id="ytick_2">
     <g id="line2d_7">
      <g>
       <use xlink:href="#m6e422fecaf" x="49.181094" y="226.686183" style="stroke: #000000; stroke-width: 0.8"/>
      </g>
     </g>
     <g id="text_8">
      <!-- −25 -->
      <g transform="translate(18.965938 230.865324) scale(0.11 -0.11)">
       <use xlink:href="#DejaVuSans-2212"/>
       <use xlink:href="#DejaVuSans-32" x="83.789062"/>
       <use xlink:href="#DejaVuSans-35" x="147.412109"/>
      </g>
     </g>
    </g>
    <g id="ytick_3">
     <g id="line2d_8">
      <g>
       <use xlink:href="#m6e422fecaf" x="49.181094" y="193.230543" style="stroke: #000000; stroke-width: 0.8"/>
      </g>
     </g>
     <g id="text_9">
      <!-- 0 -->
      <g transform="translate(35.182344 197.409683) scale(0.11 -0.11)">
       <use xlink:href="#DejaVuSans-30"/>
      </g>
     </g>
    </g>
    <g id="ytick_4">
     <g id="line2d_9">
      <g>
       <use xlink:href="#m6e422fecaf" x="49.181094" y="159.774902" style="stroke: #000000; stroke-width: 0.8"/>
      </g>
     </g>
     <g id="text_10">
      <!-- 25 -->
      <g transform="translate(28.183594 163.954043) scale(0.11 -0.11)">
       <use xlink:href="#DejaVuSans-32"/>
       <use xlink:href="#DejaVuSans-35" x="63.623047"/>
      </g>
     </g>
    </g>
    <g id="ytick_5">
     <g id="line2d_10">
      <g>
       <use xlink:href="#m6e422fecaf" x="49.181094" y="126.319261" style="stroke: #000000; stroke-width: 0.8"/>
      </g>
     </g>
     <g id="text_11">
      <!-- 50 -->
      <g transform="translate(28.183594 130.498402) scale(0.11 -0.11)">
       <use xlink:href="#DejaVuSans-35"/>
       <use xlink:href="#DejaVuSans-30" x="63.623047"/>
      </g>
     </g>
    </g>
    <g id="ytick_6">
     <g id="line2d_11">
      <g>
       <use xlink:href="#m6e422fecaf" x="49.181094" y="92.86362" style="stroke: #000000; stroke-width: 0.8"/>
      </g>
     </g>
     <g id="text_12">
      <!-- 75 -->
      <g transform="translate(28.183594 97.042761) scale(0.11 -0.11)">
       <defs>
        <path id="DejaVuSans-37" d="M 525 4666 
L 3525 4666 
L 3525 4397 
L 1831 0 
L 1172 0 
L 2766 4134 
L 525 4134 
L 525 4666 
z
" transform="scale(0.015625)"/>
       </defs>
       <use xlink:href="#DejaVuSans-37"/>
       <use xlink:href="#DejaVuSans-35" x="63.623047"/>
      </g>
     </g>
    </g>
    <g id="ytick_7">
     <g id="line2d_12">
      <g>
       <use xlink:href="#m6e422fecaf" x="49.181094" y="59.40798" style="stroke: #000000; stroke-width: 0.8"/>
      </g>
     </g>
     <g id="text_13">
      <!-- 100 -->
      <g transform="translate(21.184844 63.58712) scale(0.11 -0.11)">
       <use xlink:href="#DejaVuSans-31"/>
       <use xlink:href="#DejaVuSans-30" x="63.623047"/>
       <use xlink:href="#DejaVuSans-30" x="127.246094"/>
      </g>
     </g>
    </g>
    <g id="ytick_8">
     <g id="line2d_13">
      <g>
       <use xlink:href="#m6e422fecaf" x="49.181094" y="25.952339" style="stroke: #000000; stroke-width: 0.8"/>
      </g>
     </g>
     <g id="text_14">
      <!-- 125 -->
      <g transform="translate(21.184844 30.13148) scale(0.11 -0.11)">
       <use xlink:href="#DejaVuSans-31"/>
       <use xlink:href="#DejaVuSans-32" x="63.623047"/>
       <use xlink:href="#DejaVuSans-35" x="127.246094"/>
      </g>
     </g>
    </g>
    <g id="text_15">
     <!-- Residual (Company - Station) -->
     <g transform="translate(12.678281 222.844687) rotate(-90) scale(0.11 -0.11)">
      <defs>
       <path id="DejaVuSans-52" d="M 2841 2188 
Q 3044 2119 3236 1894 
Q 3428 1669 3622 1275 
L 4263 0 
L 3584 0 
L 2988 1197 
Q 2756 1666 2539 1819 
Q 2322 1972 1947 1972 
L 1259 1972 
L 1259 0 
L 628 0 
L 628 4666 
L 2053 4666 
Q 2853 4666 3247 4331 
Q 3641 3997 3641 3322 
Q 3641 2881 3436 2590 
Q 3231 2300 2841 2188 
z
M 1259 4147 
L 1259 2491 
L 2053 2491 
Q 2509 2491 2742 2702 
Q 2975 2913 2975 3322 
Q 2975 3731 2742 3939 
Q 2509 4147 2053 4147 
L 1259 4147 
z
" transform="scale(0.015625)"/>
       <path id="DejaVuSans-65" d="M 3597 1894 
L 3597 1613 
L 953 1613 
Q 991 1019 1311 708 
Q 1631 397 2203 397 
Q 2534 397 2845 478 
Q 3156 559 3463 722 
L 3463 178 
Q 3153 47 2828 -22 
Q 2503 -91 2169 -91 
Q 1331 -91 842 396 
Q 353 884 353 1716 
Q 353 2575 817 3079 
Q 1281 3584 2069 3584 
Q 2775 3584 3186 3129 
Q 3597 2675 3597 1894 
z
M 3022 2063 
Q 3016 2534 2758 2815 
Q 2500 3097 2075 3097 
Q 1594 3097 1305 2825 
Q 1016 2553 972 2059 
L 3022 2063 
z
" transform="scale(0.015625)"/>
       <path id="DejaVuSans-73" d="M 2834 3397 
L 2834 2853 
Q 2591 2978 2328 3040 
Q 2066 3103 1784 3103 
Q 1356 3103 1142 2972 
Q 928 2841 928 2578 
Q 928 2378 1081 2264 
Q 1234 2150 1697 2047 
L 1894 2003 
Q 2506 1872 2764 1633 
Q 3022 1394 3022 966 
Q 3022 478 2636 193 
Q 2250 -91 1575 -91 
Q 1294 -91 989 -36 
Q 684 19 347 128 
L 347 722 
Q 666 556 975 473 
Q 1284 391 1588 391 
Q 1994 391 2212 530 
Q 2431 669 2431 922 
Q 2431 1156 2273 1281 
Q 2116 1406 1581 1522 
L 1381 1569 
Q 847 1681 609 1914 
Q 372 2147 372 2553 
Q 372 3047 722 3315 
Q 1072 3584 1716 3584 
Q 2034 3584 2315 3537 
Q 2597 3491 2834 3397 
z
" transform="scale(0.015625)"/>
       <path id="DejaVuSans-69" d="M 603 3500 
L 1178 3500 
L 1178 0 
L 603 0 
L 603 3500 
z
M 603 4863 
L 1178 4863 
L 1178 4134 
L 603 4134 
L 603 4863 
z
" transform="scale(0.015625)"/>
       <path id="DejaVuSans-64" d="M 2906 2969 
L 2906 4863 
L 3481 4863 
L 3481 0 
L 2906 0 
L 2906 525 
Q 2725 213 2448 61 
Q 2172 -91 1784 -91 
Q 1150 -91 751 415 
Q 353 922 353 1747 
Q 353 2572 751 3078 
Q 1150 3584 1784 3584 
Q 2172 3584 2448 3432 
Q 2725 3281 2906 2969 
z
M 947 1747 
Q 947 1113 1208 752 
Q 1469 391 1925 391 
Q 2381 391 2643 752 
Q 2906 1113 2906 1747 
Q 2906 2381 2643 2742 
Q 2381 3103 1925 3103 
Q 1469 3103 1208 2742 
Q 947 2381 947 1747 
z
" transform="scale(0.015625)"/>
       <path id="DejaVuSans-61" d="M 2194 1759 
Q 1497 1759 1228 1600 
Q 959 1441 959 1056 
Q 959 750 1161 570 
Q 1363 391 1709 391 
Q 2188 391 2477 730 
Q 2766 1069 2766 1631 
L 2766 1759 
L 2194 1759 
z
M 3341 1997 
L 3341 0 
L 2766 0 
L 2766 531 
Q 2569 213 2275 61 
Q 1981 -91 1556 -91 
Q 1019 -91 701 211 
Q 384 513 384 1019 
Q 384 1609 779 1909 
Q 1175 2209 1959 2209 
L 2766 2209 
L 2766 2266 
Q 2766 2663 2505 2880 
Q 2244 3097 1772 3097 
Q 1472 3097 1187 3025 
Q 903 2953 641 2809 
L 641 3341 
Q 956 3463 1253 3523 
Q 1550 3584 1831 3584 
Q 2591 3584 2966 3190 
Q 3341 2797 3341 1997 
z
" transform="scale(0.015625)"/>
       <path id="DejaVuSans-6c" d="M 603 4863 
L 1178 4863 
L 1178 0 
L 603 0 
L 603 4863 
z
" transform="scale(0.015625)"/>
       <path id="DejaVuSans-20" transform="scale(0.015625)"/>
       <path id="DejaVuSans-28" d="M 1984 4856 
Q 1566 4138 1362 3434 
Q 1159 2731 1159 2009 
Q 1159 1288 1364 580 
Q 1569 -128 1984 -844 
L 1484 -844 
Q 1016 -109 783 600 
Q 550 1309 550 2009 
Q 550 2706 781 3412 
Q 1013 4119 1484 4856 
L 1984 4856 
z
" transform="scale(0.015625)"/>
       <path id="DejaVuSans-43" d="M 4122 4306 
L 4122 3641 
Q 3803 3938 3442 4084 
Q 3081 4231 2675 4231 
Q 1875 4231 1450 3742 
Q 1025 3253 1025 2328 
Q 1025 1406 1450 917 
Q 1875 428 2675 428 
Q 3081 428 3442 575 
Q 3803 722 4122 1019 
L 4122 359 
Q 3791 134 3420 21 
Q 3050 -91 2638 -91 
Q 1578 -91 968 557 
Q 359 1206 359 2328 
Q 359 3453 968 4101 
Q 1578 4750 2638 4750 
Q 3056 4750 3426 4639 
Q 3797 4528 4122 4306 
z
" transform="scale(0.015625)"/>
       <path id="DejaVuSans-6d" d="M 3328 2828 
Q 3544 3216 3844 3400 
Q 4144 3584 4550 3584 
Q 5097 3584 5394 3201 
Q 5691 2819 5691 2113 
L 5691 0 
L 5113 0 
L 5113 2094 
Q 5113 2597 4934 2840 
Q 4756 3084 4391 3084 
Q 3944 3084 3684 2787 
Q 3425 2491 3425 1978 
L 3425 0 
L 2847 0 
L 2847 2094 
Q 2847 2600 2669 2842 
Q 2491 3084 2119 3084 
Q 1678 3084 1418 2786 
Q 1159 2488 1159 1978 
L 1159 0 
L 581 0 
L 581 3500 
L 1159 3500 
L 1159 2956 
Q 1356 3278 1631 3431 
Q 1906 3584 2284 3584 
Q 2666 3584 2933 3390 
Q 3200 3197 3328 2828 
z
" transform="scale(0.015625)"/>
       <path id="DejaVuSans-70" d="M 1159 525 
L 1159 -1331 
L 581 -1331 
L 581 3500 
L 1159 3500 
L 1159 2969 
Q 1341 3281 1617 3432 
Q 1894 3584 2278 3584 
Q 2916 3584 3314 3078 
Q 3713 2572 3713 1747 
Q 3713 922 3314 415 
Q 2916 -91 2278 -91 
Q 1894 -91 1617 61 
Q 1341 213 1159 525 
z
M 3116 1747 
Q 3116 2381 2855 2742 
Q 2594 3103 2138 3103 
Q 1681 3103 1420 2742 
Q 1159 2381 1159 1747 
Q 1159 1113 1420 752 
Q 1681 391 2138 391 
Q 2594 391 2855 752 
Q 3116 1113 3116 1747 
z
" transform="scale(0.015625)"/>
       <path id="DejaVuSans-6e" d="M 3513 2113 
L 3513 0 
L 2938 0 
L 2938 2094 
Q 2938 2591 2744 2837 
Q 2550 3084 2163 3084 
Q 1697 3084 1428 2787 
Q 1159 2491 1159 1978 
L 1159 0 
L 581 0 
L 581 3500 
L 1159 3500 
L 1159 2956 
Q 1366 3272 1645 3428 
Q 1925 3584 2291 3584 
Q 2894 3584 3203 3211 
Q 3513 2838 3513 2113 
z
" transform="scale(0.015625)"/>
       <path id="DejaVuSans-79" d="M 2059 -325 
Q 1816 -950 1584 -1140 
Q 1353 -1331 966 -1331 
L 506 -1331 
L 506 -850 
L 844 -850 
Q 1081 -850 1212 -737 
Q 1344 -625 1503 -206 
L 1606 56 
L 191 3500 
L 800 3500 
L 1894 763 
L 2988 3500 
L 3597 3500 
L 2059 -325 
z
" transform="scale(0.015625)"/>
       <path id="DejaVuSans-53" d="M 3425 4513 
L 3425 3897 
Q 3066 4069 2747 4153 
Q 2428 4238 2131 4238 
Q 1616 4238 1336 4038 
Q 1056 3838 1056 3469 
Q 1056 3159 1242 3001 
Q 1428 2844 1947 2747 
L 2328 2669 
Q 3034 2534 3370 2195 
Q 3706 1856 3706 1288 
Q 3706 609 3251 259 
Q 2797 -91 1919 -91 
Q 1588 -91 1214 -16 
Q 841 59 441 206 
L 441 856 
Q 825 641 1194 531 
Q 1563 422 1919 422 
Q 2459 422 2753 634 
Q 3047 847 3047 1241 
Q 3047 1584 2836 1778 
Q 2625 1972 2144 2069 
L 1759 2144 
Q 1053 2284 737 2584 
Q 422 2884 422 3419 
Q 422 4038 858 4394 
Q 1294 4750 2059 4750 
Q 2388 4750 2728 4690 
Q 3069 4631 3425 4513 
z
" transform="scale(0.015625)"/>
       <path id="DejaVuSans-74" d="M 1172 4494 
L 1172 3500 
L 2356 3500 
L 2356 3053 
L 1172 3053 
L 1172 1153 
Q 1172 725 1289 603 
Q 1406 481 1766 481 
L 2356 481 
L 2356 0 
L 1766 0 
Q 1100 0 847 248 
Q 594 497 594 1153 
L 594 3053 
L 172 3053 
L 172 3500 
L 594 3500 
L 594 4494 
L 1172 4494 
z
" transform="scale(0.015625)"/>
       <path id="DejaVuSans-29" d="M 513 4856 
L 1013 4856 
Q 1481 4119 1714 3412 
Q 1947 2706 1947 2009 
Q 1947 1309 1714 600 
Q 1481 -109 1013 -844 
L 513 -844 
Q 928 -128 1133 580 
Q 1338 1288 1338 2009 
Q 1338 2731 1133 3434 
Q 928 4138 513 4856 
z
" transform="scale(0.015625)"/>
      </defs>
      <use xlink:href="#DejaVuSans-52"/>
      <use xlink:href="#DejaVuSans-65" x="64.982422"/>
      <use xlink:href="#DejaVuSans-73" x="126.505859"/>
      <use xlink:href="#DejaVuSans-69" x="178.605469"/>
      <use xlink:href="#DejaVuSans-64" x="206.388672"/>
      <use xlink:href="#DejaVuSans-75" x="269.865234"/>
      <use xlink:href="#DejaVuSans-61" x="333.244141"/>
      <use xlink:href="#DejaVuSans-6c" x="394.523438"/>
      <use xlink:href="#DejaVuSans-20" x="422.306641"/>
      <use xlink:href="#DejaVuSans-28" x="454.09375"/>
      <use xlink:href="#DejaVuSans-43" x="493.107422"/>
      <use xlink:href="#DejaVuSans-6f" x="562.931641"/>
      <use xlink:href="#DejaVuSans-6d" x="624.113281"/>
      <use xlink:href="#DejaVuSans-70" x="721.525391"/>
      <use xlink:href="#DejaVuSans-61" x="785.001953"/>
      <use xlink:href="#DejaVuSans-6e" x="846.28125"/>
      <use xlink:href="#DejaVuSans-79" x="909.660156"/>
      <use xlink:href="#DejaVuSans-20" x="968.839844"/>
      <use xlink:href="#DejaVuSans-2d" x="1000.626953"/>
      <use xlink:href="#DejaVuSans-20" x="1036.710938"/>
      <use xlink:href="#DejaVuSans-53" x="1068.498047"/>
      <use xlink:href="#DejaVuSans-74" x="1131.974609"/>
      <use xlink:href="#DejaVuSans-61" x="1171.183594"/>
      <use xlink:href="#DejaVuSans-74" x="1232.462891"/>
      <use xlink:href="#DejaVuSans-69" x="1271.671875"/>
      <use xlink:href="#DejaVuSans-6f" x="1299.455078"/>
      <use xlink:href="#DejaVuSans-6e" x="1360.636719"/>
      <use xlink:href="#DejaVuSans-29" x="1424.015625"/>
     </g>
    </g>
   </g>
   <g id="line2d_14">
    <path d="M 70.758856 170.480707 
L 70.88967 181.186512 
L 71.020484 175.833609 
L 71.151298 183.19385 
L 71.412926 167.804256 
L 71.805368 193.230543 
L 71.936182 171.818933 
L 72.066996 186.539415 
L 72.328624 169.142481 
L 72.459438 169.142481 
L 72.590252 162.451353 
L 72.85188 185.870302 
L 73.244322 167.804256 
L 73.375136 150.407323 
L 73.50595 169.142481 
L 73.636764 166.46603 
L 73.767577 170.480707 
L 74.290833 177.171835 
L 74.421647 170.480707 
L 74.552461 173.157158 
L 74.683275 171.818933 
L 74.814089 171.818933 
L 74.944903 172.488045 
L 75.075717 185.201189 
L 75.206531 171.14982 
L 75.337345 172.488045 
L 75.860601 162.451353 
L 75.991415 171.818933 
L 76.253043 161.113128 
L 76.383857 167.804256 
L 76.514671 168.473369 
L 76.645485 161.113128 
L 76.776299 175.833609 
L 76.907112 171.818933 
L 77.037926 172.488045 
L 77.16874 167.135143 
L 77.299554 169.142481 
L 77.430368 165.127804 
L 77.561182 170.480707 
L 77.691996 159.774902 
L 77.82281 163.789579 
L 77.953624 159.774902 
L 78.084438 147.061758 
L 78.346066 169.811594 
L 78.607694 177.171835 
L 78.738508 191.892317 
L 78.869322 167.135143 
L 79.13095 191.223204 
L 79.78502 166.46603 
L 80.046648 178.510061 
L 80.177461 176.502722 
L 80.308275 171.818933 
L 80.439089 171.818933 
L 80.569903 170.480707 
L 80.700717 179.848286 
L 80.831531 174.495384 
L 80.962345 189.215866 
L 81.093159 181.186512 
L 81.223973 189.215866 
L 81.485601 157.098451 
L 81.616415 165.796917 
L 81.878043 154.421999 
L 82.139671 163.789579 
L 82.401299 154.421999 
L 82.662927 161.113128 
L 82.793741 154.421999 
L 82.924555 171.14982 
L 83.055369 165.127804 
L 83.186183 165.127804 
L 83.316997 151.745548 
L 83.44781 167.135143 
L 83.578624 150.407323 
L 83.709438 157.767563 
L 83.840252 153.083774 
L 83.971066 171.14982 
L 84.10188 161.113128 
L 84.232694 163.789579 
L 84.363508 161.113128 
L 84.494322 150.407323 
L 84.75595 155.760225 
L 84.886764 167.804256 
L 85.017578 155.760225 
L 85.148392 157.767563 
L 85.279206 167.804256 
L 85.41002 169.142481 
L 85.540834 165.127804 
L 85.671648 167.804256 
L 85.802462 150.407323 
L 86.06409 169.142481 
L 86.194904 162.451353 
L 86.325718 162.451353 
L 86.456532 169.142481 
L 86.587346 167.804256 
L 86.718159 167.804256 
L 86.979787 187.208527 
L 87.241415 179.848286 
L 87.372229 170.480707 
L 87.503043 194.568768 
L 87.633857 168.473369 
L 87.764671 169.811594 
L 87.895485 174.495384 
L 88.157113 167.804256 
L 88.287927 163.789579 
L 88.418741 165.127804 
L 88.680369 182.524738 
L 88.941997 171.14982 
L 89.072811 176.502722 
L 89.465253 146.392646 
L 89.857694 186.539415 
L 89.988508 175.164497 
L 90.119322 175.164497 
L 90.250136 175.833609 
L 90.38095 179.848286 
L 90.511764 175.833609 
L 90.773392 145.05442 
L 90.904206 149.069097 
L 91.03502 149.069097 
L 91.296648 143.716194 
L 91.819904 126.319261 
L 92.212346 120.966359 
L 92.34316 112.937005 
L 92.473974 146.392646 
L 92.99723 165.127804 
L 93.258857 138.363292 
L 93.389671 170.480707 
L 93.520485 135.686841 
L 93.651299 157.098451 
L 93.782113 139.701517 
L 94.305369 181.186512 
L 94.959439 128.995712 
L 95.090253 106.245877 
L 95.221067 133.010389 
L 95.351881 131.672164 
L 95.482695 126.319261 
L 95.744323 166.46603 
L 96.267579 191.892317 
L 96.398392 163.789579 
L 96.529206 178.510061 
L 96.66002 165.796917 
L 96.921648 197.24522 
L 97.183276 198.583445 
L 97.706532 181.186512 
L 97.837346 183.862963 
L 97.96816 174.495384 
L 98.098974 183.862963 
L 98.62223 157.098451 
L 98.753044 166.46603 
L 99.145486 170.480707 
L 99.2763 191.892317 
L 99.407114 183.862963 
L 99.537928 190.554091 
L 99.668741 183.19385 
L 99.799555 189.215866 
L 100.191997 155.760225 
L 100.322811 158.436676 
L 100.453625 153.083774 
L 100.584439 162.451353 
L 100.715253 151.745548 
L 100.976881 161.78224 
L 101.107695 161.113128 
L 101.238509 151.745548 
L 101.369323 166.46603 
L 101.500137 153.083774 
L 101.761765 154.421999 
L 101.892579 149.069097 
L 102.415835 186.539415 
L 102.546649 159.774902 
L 102.677463 190.554091 
L 102.808276 174.495384 
L 102.93909 182.524738 
L 103.200718 209.28925 
L 103.59316 157.098451 
L 103.723974 157.098451 
L 103.854788 171.818933 
L 104.116416 145.723533 
L 104.24723 147.730871 
L 104.378044 145.723533 
L 104.639672 119.628133 
L 104.770486 115.613456 
L 105.032114 128.995712 
L 105.162928 157.098451 
L 105.293742 158.436676 
L 105.55537 177.171835 
L 105.686184 200.590784 
L 105.816998 174.495384 
L 105.947812 177.171835 
L 106.078625 198.583445 
L 106.471067 151.076435 
L 106.601881 162.451353 
L 106.994323 126.319261 
L 107.125137 134.348615 
L 107.386765 115.613456 
L 107.517579 118.289907 
L 107.648393 118.289907 
L 107.779207 110.929666 
L 107.910021 120.966359 
L 108.040835 107.584102 
L 108.171649 106.245877 
L 108.302463 88.848944 
L 108.564091 147.730871 
L 108.956533 206.612799 
L 109.087347 203.936348 
L 109.218161 206.612799 
L 109.348974 194.568768 
L 109.610602 147.061758 
L 109.87223 124.981036 
L 110.003044 108.922328 
L 110.133858 107.584102 
L 110.264672 119.628133 
L 110.395486 120.966359 
L 110.657114 138.363292 
L 110.787928 122.304584 
L 110.918742 128.995712 
L 111.049556 126.319261 
L 111.18037 130.333938 
L 111.703626 186.539415 
L 111.83444 183.862963 
L 111.965254 170.480707 
L 112.096068 170.480707 
L 112.357696 183.862963 
L 112.48851 155.760225 
L 112.750137 194.568768 
L 112.880951 185.201189 
L 113.011765 163.789579 
L 113.142579 171.14982 
L 113.273393 165.127804 
L 113.535021 137.694179 
L 113.796649 153.083774 
L 114.058277 111.598779 
L 114.189091 120.966359 
L 114.319905 98.216523 
L 114.450719 106.245877 
L 114.581533 68.775559 
L 114.843161 175.833609 
L 114.973975 155.760225 
L 115.758858 171.818933 
L 115.889672 219.995055 
L 116.020486 213.303927 
L 116.282114 193.230543 
L 116.412928 183.862963 
L 116.543742 157.098451 
L 116.674556 167.804256 
L 116.80537 145.05442 
L 116.936184 145.723533 
L 117.066998 130.333938 
L 117.197812 159.774902 
L 117.328626 133.010389 
L 117.45944 139.701517 
L 117.590254 124.981036 
L 117.851882 201.259896 
L 117.982696 190.554091 
L 118.375138 218.65683 
L 118.505952 198.583445 
L 118.636766 83.496041 
L 118.76758 206.612799 
L 118.898394 159.774902 
L 119.160021 187.87764 
L 119.290835 187.208527 
L 119.552463 202.598122 
L 119.944905 222.671507 
L 120.206533 199.921671 
L 120.337347 203.936348 
L 120.729789 233.377312 
L 120.860603 238.730214 
L 120.991417 236.053763 
L 121.122231 253.450696 
L 121.383859 229.362635 
L 121.514673 242.744891 
L 121.907115 221.0924 
L 122.037929 197.004339 
L 122.168743 196.335226 
L 122.299556 180.945631 
L 124.39258 214.642153 
L 124.523394 209.28925 
L 124.654208 194.568768 
L 124.915836 194.568768 
L 125.177464 203.936348 
L 125.439092 179.179174 
L 126.485603 154.421999 
L 127.139673 181.186512 
L 128.316999 143.716194 
L 128.447813 149.069097 
L 128.578627 130.333938 
L 128.709441 151.076435 
L 128.840254 153.083774 
L 128.971068 150.407323 
L 129.101882 153.083774 
L 129.232696 143.716194 
L 129.36351 145.05442 
L 129.755952 142.377969 
L 129.886766 162.451353 
L 130.279208 166.46603 
L 130.67165 198.583445 
L 130.802464 198.583445 
L 131.064092 187.87764 
L 131.194906 166.46603 
L 131.32572 170.480707 
L 131.456534 165.127804 
L 131.587348 145.05442 
L 131.718162 177.171835 
L 131.848976 139.701517 
L 131.979789 154.421999 
L 132.110603 151.745548 
L 132.372231 193.230543 
L 132.503045 167.804256 
L 132.633859 165.796917 
L 132.764673 173.157158 
L 132.895487 158.436676 
L 133.287929 149.069097 
L 133.418743 172.488045 
L 133.549557 173.157158 
L 133.680371 209.28925 
L 133.811185 191.892317 
L 133.941999 205.274573 
L 134.203627 181.855625 
L 134.334441 188.546753 
L 134.465255 179.848286 
L 134.596069 179.848286 
L 134.726883 165.127804 
L 134.857697 182.524738 
L 134.988511 173.157158 
L 135.250138 201.929009 
L 135.380952 186.539415 
L 135.511766 198.583445 
L 135.64258 194.568768 
L 135.904208 199.921671 
L 136.035022 185.201189 
L 136.427464 202.598122 
L 136.558278 193.899655 
L 136.689092 199.921671 
L 136.819906 191.892317 
L 136.95072 198.583445 
L 137.212348 190.554091 
L 137.343162 186.539415 
L 137.60479 173.157158 
L 137.735604 182.524738 
L 137.997232 165.127804 
L 138.25886 163.120466 
L 138.520487 186.539415 
L 138.651301 182.524738 
L 138.782115 174.495384 
L 139.043743 189.215866 
L 139.305371 175.833609 
L 139.436185 181.186512 
L 139.697813 165.127804 
L 139.828627 177.171835 
L 139.959441 162.451353 
L 141.660023 173.157158 
L 141.790836 166.46603 
L 141.92165 167.804256 
L 142.052464 165.127804 
L 142.314092 181.186512 
L 142.444906 159.774902 
L 142.57572 179.848286 
L 142.706534 169.142481 
L 142.837348 174.495384 
L 142.968162 186.539415 
L 143.22979 175.833609 
L 143.88386 169.142481 
L 144.014674 181.186512 
L 144.145488 167.804256 
L 144.276302 167.804256 
L 144.407116 171.818933 
L 144.53793 166.46603 
L 144.668744 167.804256 
L 144.799558 173.157158 
L 144.930371 165.127804 
L 145.061185 182.524738 
L 145.322813 173.157158 
L 145.584441 179.848286 
L 145.715255 177.171835 
L 145.846069 177.171835 
L 145.976883 181.186512 
L 146.107697 174.495384 
L 146.238511 191.892317 
L 146.630953 167.804256 
L 146.761767 175.833609 
L 146.892581 193.230543 
L 147.154209 165.127804 
L 147.415837 182.524738 
L 147.677465 167.804256 
L 147.808279 178.510061 
L 147.939093 173.157158 
L 148.069907 181.186512 
L 148.20072 178.510061 
L 148.331534 185.870302 
L 148.462348 181.186512 
L 148.593162 186.539415 
L 148.85479 167.804256 
L 148.985604 175.833609 
L 149.116418 174.495384 
L 149.247232 165.127804 
L 149.378046 173.157158 
L 149.50886 171.818933 
L 149.639674 162.451353 
L 149.770488 171.818933 
L 150.16293 147.730871 
L 150.293744 145.05442 
L 150.555372 155.091112 
L 150.817 147.730871 
L 150.947814 149.069097 
L 151.078628 145.05442 
L 151.209442 169.142481 
L 151.340256 151.076435 
L 151.471069 149.069097 
L 151.601883 154.421999 
L 151.732697 141.039743 
L 151.863511 155.760225 
L 151.994325 149.73821 
L 152.125139 158.436676 
L 152.255953 149.069097 
L 152.386767 154.421999 
L 152.517581 153.083774 
L 152.648395 169.142481 
L 152.910023 170.480707 
L 153.040837 156.429338 
L 153.171651 158.436676 
L 153.433279 158.436676 
L 153.564093 167.804256 
L 153.825721 158.436676 
L 153.956535 158.436676 
L 154.218163 155.760225 
L 154.348977 167.804256 
L 154.479791 163.789579 
L 154.610605 173.157158 
L 154.741418 171.818933 
L 155.003046 185.201189 
L 155.13386 183.862963 
L 155.264674 175.833609 
L 155.395488 146.392646 
L 155.526302 159.774902 
L 155.78793 150.407323 
L 155.918744 171.818933 
L 156.049558 162.451353 
L 156.180372 143.047082 
L 156.311186 142.377969 
L 156.442 142.377969 
L 156.572814 141.039743 
L 156.703628 136.355953 
L 156.834442 153.752887 
L 156.965256 149.069097 
L 157.09607 150.407323 
L 157.226884 140.37063 
L 157.357698 150.407323 
L 157.488512 148.399984 
L 157.619326 161.113128 
L 157.880953 124.311923 
L 158.011767 130.333938 
L 158.142581 112.937005 
L 158.273395 118.289907 
L 158.665837 177.840948 
L 158.796651 165.127804 
L 158.927465 174.495384 
L 159.058279 175.833609 
L 159.189093 161.113128 
L 159.319907 173.157158 
L 159.712349 167.135143 
L 159.843163 158.436676 
L 159.973977 159.105789 
L 160.104791 148.73454 
L 160.235605 155.760225 
L 160.366419 143.716194 
L 160.497233 158.436676 
L 160.758861 155.760225 
L 160.889675 147.730871 
L 161.020489 150.407323 
L 161.151302 134.348615 
L 161.282116 133.679502 
L 161.41293 145.05442 
L 161.543744 144.385307 
L 161.674558 117.620795 
L 162.590256 209.28925 
L 162.72107 175.833609 
L 162.851884 187.87764 
L 163.113512 170.480707 
L 163.244326 169.142481 
L 163.37514 146.392646 
L 163.636768 153.083774 
L 163.898396 137.025066 
L 164.02921 149.069097 
L 164.160024 123.64281 
L 164.290838 138.363292 
L 164.552465 181.186512 
L 164.683279 173.157158 
L 164.944907 184.532076 
L 165.206535 175.833609 
L 165.860605 181.186512 
L 165.991419 183.862963 
L 166.122233 175.833609 
L 166.253047 177.171835 
L 166.383861 159.774902 
L 166.514675 159.774902 
L 166.776303 167.804256 
L 166.907117 153.083774 
L 167.037931 168.138812 
L 167.168745 166.46603 
L 167.299559 162.451353 
L 167.430373 173.157158 
L 167.692 161.113128 
L 167.822814 174.495384 
L 167.953628 167.804256 
L 168.084442 167.804256 
L 168.34607 165.796917 
L 168.476884 166.46603 
L 168.607698 169.142481 
L 168.869326 166.46603 
L 169.00014 163.789579 
L 169.130954 147.730871 
L 169.523396 157.767563 
L 169.65421 153.752887 
L 169.785024 153.752887 
L 169.915838 116.951682 
L 170.046652 141.039743 
L 170.177466 141.039743 
L 170.30828 146.392646 
L 170.439094 125.650148 
L 170.700722 146.392646 
L 170.831535 133.010389 
L 170.962349 134.348615 
L 171.223977 163.120466 
L 171.354791 163.789579 
L 171.616419 151.745548 
L 171.747233 155.760225 
L 171.878047 163.789579 
L 172.008861 154.421999 
L 172.139675 181.186512 
L 172.270489 163.789579 
L 172.401303 191.892317 
L 172.662931 166.46603 
L 172.924559 141.039743 
L 173.055373 147.730871 
L 173.186187 133.010389 
L 173.317001 131.672164 
L 173.447815 123.64281 
L 173.578629 123.64281 
L 173.709443 122.304584 
L 173.840257 124.981036 
L 174.363512 180.517399 
L 174.494326 159.774902 
L 174.755954 181.186512 
L 174.886768 211.965701 
L 175.017582 193.230543 
L 175.148396 191.892317 
L 175.27921 182.524738 
L 175.410024 187.87764 
L 175.671652 228.024409 
L 175.802466 202.598122 
L 176.325722 185.201189 
L 176.58735 159.774902 
L 176.718164 168.473369 
L 176.848978 162.451353 
L 176.979792 163.789579 
L 177.110606 147.730871 
L 177.503047 165.127804 
L 177.633861 193.230543 
L 177.764675 186.539415 
L 177.895489 189.215866 
L 178.026303 198.583445 
L 178.287931 185.201189 
L 178.549559 230.70086 
L 178.942001 157.098451 
L 179.072815 189.215866 
L 179.203629 173.157158 
L 179.334443 171.818933 
L 179.465257 165.127804 
L 179.596071 177.840948 
L 179.857699 166.46603 
L 179.988513 185.870302 
L 180.250141 173.157158 
L 180.380955 171.14982 
L 180.511769 186.539415 
L 180.642582 187.208527 
L 181.427466 188.546753 
L 181.55828 176.502722 
L 181.689094 177.171835 
L 181.819908 171.818933 
L 182.081536 187.208527 
L 182.343164 167.804256 
L 182.473978 169.142481 
L 182.604792 161.78224 
L 182.86642 170.480707 
L 183.128048 160.444015 
L 183.258862 161.113128 
L 183.389676 169.811594 
L 183.52049 151.745548 
L 183.782117 163.789579 
L 183.912931 167.135143 
L 184.043745 161.113128 
L 184.174559 175.164497 
L 184.305373 170.480707 
L 184.436187 177.171835 
L 184.697815 167.804256 
L 184.828629 143.047082 
L 184.959443 163.789579 
L 185.090257 138.363292 
L 185.221071 136.355953 
L 185.482699 154.421999 
L 185.744327 134.348615 
L 185.875141 142.377969 
L 186.005955 137.025066 
L 186.136769 126.319261 
L 186.398397 141.039743 
L 186.529211 137.694179 
L 186.790839 162.451353 
L 186.921653 159.774902 
L 187.052466 159.774902 
L 187.18328 155.760225 
L 187.314094 167.804256 
L 187.575722 154.421999 
L 187.83735 178.510061 
L 187.968164 154.421999 
L 188.098978 165.127804 
L 188.229792 166.46603 
L 188.49142 139.032405 
L 188.753048 142.377969 
L 189.14549 116.951682 
L 189.276304 121.635471 
L 189.537932 145.05442 
L 189.668746 143.716194 
L 189.79956 124.981036 
L 190.061188 157.098451 
L 190.192002 136.355953 
L 190.322815 158.436676 
L 190.584443 139.701517 
L 190.715257 123.64281 
L 190.846071 142.377969 
L 190.976885 92.86362 
L 191.107699 112.937005 
L 191.238513 31.305241 
L 191.369327 133.010389 
L 191.500141 115.613456 
L 192.023397 127.657487 
L 192.285025 111.598779 
L 192.415839 133.010389 
L 192.677467 118.289907 
L 192.808281 118.289907 
L 193.069909 150.407323 
L 193.200723 147.061758 
L 193.331537 166.46603 
L 193.854792 171.818933 
L 194.11642 162.451353 
L 194.247234 164.458692 
L 194.508862 173.157158 
L 194.639676 162.451353 
L 194.77049 169.811594 
L 195.293746 151.745548 
L 195.555374 154.421999 
L 195.817002 152.414661 
L 195.947816 155.760225 
L 196.209444 181.186512 
L 196.863513 181.186512 
L 196.994327 174.495384 
L 197.255955 185.201189 
L 197.386769 179.848286 
L 197.517583 185.201189 
L 197.648397 185.201189 
L 197.779211 169.142481 
L 197.910025 174.495384 
L 198.040839 185.201189 
L 198.171653 173.157158 
L 198.302467 179.848286 
L 198.433281 165.796917 
L 198.564095 163.789579 
L 198.694909 167.804256 
L 198.825723 161.113128 
L 199.218165 170.480707 
L 199.348979 167.804256 
L 199.479793 171.818933 
L 199.610607 169.142481 
L 199.741421 146.392646 
L 199.872235 147.730871 
L 200.003048 145.723533 
L 200.264676 122.304584 
L 200.39549 131.672164 
L 200.526304 108.922328 
L 200.657118 132.341277 
L 200.787932 134.348615 
L 200.918746 127.657487 
L 201.04956 137.694179 
L 201.180374 167.804256 
L 201.311188 162.451353 
L 201.442002 148.399984 
L 201.572816 156.429338 
L 201.834444 151.745548 
L 202.096072 162.451353 
L 202.226886 163.789579 
L 202.3577 171.14982 
L 202.488514 162.451353 
L 202.619328 143.716194 
L 202.750142 163.789579 
L 203.665839 170.480707 
L 203.796653 157.767563 
L 203.927467 158.436676 
L 204.058281 163.789579 
L 204.189095 155.760225 
L 204.450723 162.451353 
L 204.581537 171.818933 
L 204.712351 162.451353 
L 204.843165 173.157158 
L 204.973979 171.818933 
L 205.104793 161.113128 
L 205.366421 173.157158 
L 205.497235 171.818933 
L 205.758863 190.554091 
L 205.889677 161.113128 
L 206.020491 163.120466 
L 206.151305 158.436676 
L 206.412933 163.789579 
L 206.543746 163.120466 
L 206.67456 169.142481 
L 206.805374 159.774902 
L 206.936188 158.436676 
L 207.197816 165.127804 
L 207.32863 163.789579 
L 207.459444 155.760225 
L 207.590258 160.444015 
L 207.721072 158.436676 
L 207.851886 161.113128 
L 207.9827 151.745548 
L 208.113514 153.083774 
L 208.375142 166.46603 
L 208.505956 142.377969 
L 208.898398 191.892317 
L 209.029212 197.24522 
L 209.160026 182.524738 
L 209.29084 187.87764 
L 209.421654 187.208527 
L 209.552468 181.855625 
L 209.683282 182.524738 
L 209.814095 196.576107 
L 209.944909 194.568768 
L 210.075723 181.186512 
L 210.206537 187.87764 
L 210.337351 171.818933 
L 210.468165 186.539415 
L 210.598979 182.524738 
L 210.729793 185.201189 
L 210.860607 179.848286 
L 211.122235 183.862963 
L 211.253049 174.495384 
L 211.383863 187.87764 
L 211.514677 187.87764 
L 211.645491 177.171835 
L 211.776305 189.215866 
L 212.037933 182.524738 
L 212.168747 175.833609 
L 212.430375 179.179174 
L 212.561189 183.862963 
L 212.692003 179.848286 
L 212.822817 181.186512 
L 212.95363 189.215866 
L 213.084444 178.510061 
L 213.346072 181.186512 
L 213.476886 178.510061 
L 213.6077 183.862963 
L 213.738514 177.171835 
L 213.869328 177.171835 
L 214.000142 174.495384 
L 214.130956 166.46603 
L 214.26177 179.848286 
L 214.392584 166.46603 
L 214.523398 165.796917 
L 214.654212 179.848286 
L 214.91584 175.164497 
L 215.046654 184.532076 
L 215.177468 174.495384 
L 215.308282 181.186512 
L 215.439096 170.480707 
L 215.56991 175.833609 
L 215.831538 145.723533 
L 215.962352 155.760225 
L 216.093166 146.392646 
L 216.354793 169.142481 
L 216.485607 158.436676 
L 216.616421 166.46603 
L 216.747235 155.760225 
L 216.878049 158.436676 
L 217.139677 159.774902 
L 217.270491 155.760225 
L 217.401305 163.789579 
L 217.532119 139.701517 
L 217.662933 142.377969 
L 217.793747 165.127804 
L 217.924561 158.436676 
L 218.055375 157.767563 
L 218.317003 169.142481 
L 218.578631 153.083774 
L 218.840259 162.451353 
L 218.971073 145.05442 
L 219.101887 167.804256 
L 219.363515 157.098451 
L 219.494328 167.804256 
L 219.625142 161.113128 
L 219.755956 169.142481 
L 219.88677 156.429338 
L 220.017584 155.091112 
L 220.279212 154.421999 
L 220.410026 166.46603 
L 220.54084 157.098451 
L 220.802468 169.142481 
L 220.933282 155.760225 
L 221.064096 157.098451 
L 221.325724 167.804256 
L 221.456538 181.186512 
L 222.372236 183.19385 
L 222.50305 175.833609 
L 222.633864 177.171835 
L 223.026305 159.105789 
L 223.157119 170.480707 
L 223.287933 171.818933 
L 223.418747 149.73821 
L 223.549561 159.774902 
L 223.680375 161.113128 
L 223.942003 148.399984 
L 224.072817 143.716194 
L 224.334445 150.407323 
L 224.465259 153.083774 
L 224.726887 163.789579 
L 224.857701 159.774902 
L 225.119329 174.495384 
L 225.250143 162.451353 
L 225.380957 177.840948 
L 225.511771 173.157158 
L 225.642585 181.186512 
L 225.904212 151.745548 
L 226.16584 142.377969 
L 226.296654 145.05442 
L 226.427468 137.025066 
L 226.558282 138.363292 
L 226.689096 135.686841 
L 226.81991 122.304584 
L 227.081538 135.686841 
L 227.212352 120.966359 
L 227.47398 126.319261 
L 227.735608 139.701517 
L 227.866422 139.032405 
L 227.997236 127.657487 
L 228.12805 143.716194 
L 228.258864 124.981036 
L 228.520492 149.069097 
L 228.651306 147.730871 
L 228.78212 146.392646 
L 228.912934 138.363292 
L 229.043748 151.745548 
L 229.174561 150.407323 
L 229.305375 137.025066 
L 229.567003 153.083774 
L 229.828631 128.995712 
L 229.959445 120.966359 
L 230.221073 131.672164 
L 230.482701 102.2312 
L 230.613515 120.966359 
L 230.744329 102.2312 
L 230.875143 114.275231 
L 231.005957 161.113128 
L 231.136771 114.275231 
L 231.267585 120.966359 
L 231.398399 149.069097 
L 231.529213 130.333938 
L 231.660027 177.171835 
L 231.790841 144.385307 
L 231.921655 157.098451 
L 232.052469 157.098451 
L 232.314097 162.451353 
L 232.44491 171.818933 
L 232.706538 162.451353 
L 232.837352 161.113128 
L 232.968166 179.848286 
L 233.229794 150.407323 
L 233.360608 151.745548 
L 233.491422 159.774902 
L 233.622236 145.05442 
L 233.75305 150.407323 
L 233.883864 138.363292 
L 234.014678 137.025066 
L 234.276306 108.922328 
L 234.40712 122.304584 
L 234.537934 120.966359 
L 234.668748 108.922328 
L 234.799562 116.951682 
L 235.322818 157.098451 
L 235.453632 145.05442 
L 235.584446 119.628133 
L 235.846073 147.730871 
L 235.976887 147.730871 
L 236.107701 144.385307 
L 236.238515 155.091112 
L 236.369329 154.421999 
L 236.500143 138.363292 
L 236.630957 165.127804 
L 236.761771 151.076435 
L 237.154213 190.554091 
L 237.285027 162.451353 
L 237.677469 177.171835 
L 237.808283 171.14982 
L 237.939097 191.892317 
L 238.462353 159.774902 
L 238.723981 175.833609 
L 239.116422 163.120466 
L 239.37805 163.789579 
L 239.508864 159.774902 
L 239.901306 142.377969 
L 240.03212 144.385307 
L 240.162934 148.399984 
L 240.293748 166.46603 
L 240.424562 157.098451 
L 240.555376 173.157158 
L 240.68619 167.804256 
L 240.817004 149.069097 
L 240.947818 158.436676 
L 241.078632 143.716194 
L 241.601888 147.730871 
L 241.732702 154.421999 
L 241.863516 145.723533 
L 241.99433 152.414661 
L 242.125143 153.083774 
L 242.255957 149.73821 
L 242.386771 163.789579 
L 242.517585 145.05442 
L 242.779213 145.723533 
L 243.040841 159.774902 
L 243.171655 137.025066 
L 243.433283 143.716194 
L 243.694911 175.833609 
L 243.825725 139.701517 
L 244.087353 145.05442 
L 244.218167 153.752887 
L 244.348981 143.716194 
L 244.479795 120.966359 
L 244.610609 128.995712 
L 244.741423 153.083774 
L 244.872237 154.421999 
L 245.264679 163.789579 
L 245.526306 169.142481 
L 245.65712 155.760225 
L 245.918748 154.421999 
L 246.31119 158.436676 
L 246.442004 141.039743 
L 246.572818 151.745548 
L 246.703632 153.083774 
L 246.834446 163.789579 
L 246.96526 153.083774 
L 247.096074 153.083774 
L 247.226888 155.760225 
L 247.357702 150.407323 
L 247.488516 158.436676 
L 247.750144 158.436676 
L 247.880958 162.451353 
L 248.142586 154.421999 
L 248.404214 163.789579 
L 248.535028 147.730871 
L 248.796655 151.745548 
L 248.927469 153.083774 
L 249.189097 165.796917 
L 249.319911 163.789579 
L 249.450725 154.421999 
L 249.581539 165.127804 
L 249.712353 159.774902 
L 249.843167 178.510061 
L 249.973981 169.142481 
L 250.104795 169.142481 
L 250.235609 186.539415 
L 250.366423 159.774902 
L 250.497237 162.451353 
L 250.889679 176.502722 
L 251.020493 166.46603 
L 251.151307 177.171835 
L 251.282121 175.833609 
L 251.412935 173.157158 
L 251.543749 182.524738 
L 251.674563 169.142481 
L 251.805377 175.833609 
L 251.93619 173.157158 
L 252.067004 155.760225 
L 252.328632 158.436676 
L 252.459446 158.436676 
L 252.59026 149.403653 
L 266.064098 162.451353 
L 266.194912 143.716194 
L 266.45654 175.833609 
L 266.587354 174.495384 
L 266.718168 166.46603 
L 266.848982 171.818933 
L 266.979796 171.818933 
L 267.11061 157.098451 
L 267.241424 167.804256 
L 267.372238 162.451353 
L 267.633866 167.135143 
L 267.76468 161.113128 
L 267.895494 149.069097 
L 268.157121 170.480707 
L 268.287935 155.760225 
L 268.418749 155.760225 
L 268.549563 169.142481 
L 268.680377 166.46603 
L 268.811191 174.495384 
L 269.072819 169.811594 
L 269.203633 169.142481 
L 269.465261 170.480707 
L 269.726889 187.87764 
L 269.857703 183.862963 
L 270.119331 170.480707 
L 270.250145 167.804256 
L 270.511773 161.113128 
L 270.642587 170.480707 
L 270.773401 143.047082 
L 271.035029 174.495384 
L 271.165843 163.789579 
L 271.296656 171.818933 
L 271.42747 158.436676 
L 271.558284 166.46603 
L 271.689098 196.576107 
L 271.819912 162.451353 
L 271.950726 179.848286 
L 272.08154 181.855625 
L 272.212354 194.568768 
L 272.343168 186.539415 
L 272.604796 193.230543 
L 272.73561 210.627476 
L 273.128052 183.862963 
L 273.38968 170.480707 
L 273.520494 158.436676 
L 273.651308 169.142481 
L 273.782122 158.436676 
L 273.912936 165.127804 
L 274.174564 158.436676 
L 274.305378 157.098451 
L 274.436192 161.113128 
L 274.697819 181.186512 
L 274.828633 162.451353 
L 274.959447 177.171835 
L 275.090261 165.127804 
L 275.351889 191.892317 
L 275.482703 181.186512 
L 275.613517 181.855625 
L 275.744331 191.892317 
L 275.875145 189.215866 
L 276.136773 169.142481 
L 276.267587 194.568768 
L 276.529215 181.186512 
L 276.660029 181.186512 
L 276.790843 165.127804 
L 276.921657 165.127804 
L 277.052471 170.480707 
L 277.444913 154.421999 
L 277.706541 175.833609 
L 277.837354 185.201189 
L 277.968168 181.186512 
L 278.098982 181.186512 
L 278.229796 177.840948 
L 278.36061 181.186512 
L 278.491424 175.833609 
L 278.622238 178.510061 
L 278.753052 173.157158 
L 278.883866 181.186512 
L 279.01468 167.804256 
L 279.145494 186.539415 
L 279.66875 131.672164 
L 279.799564 138.363292 
L 279.930378 138.363292 
L 280.32282 155.760225 
L 280.715262 131.672164 
L 280.846076 149.069097 
L 280.976889 119.628133 
L 281.238517 179.848286 
L 281.369331 139.701517 
L 281.500145 173.157158 
L 281.630959 174.495384 
L 281.761773 183.862963 
L 281.892587 155.760225 
L 282.023401 175.833609 
L 282.154215 175.833609 
L 282.285029 173.157158 
L 282.415843 175.833609 
L 282.546657 174.495384 
L 282.677471 183.19385 
L 282.808285 177.171835 
L 283.069913 179.848286 
L 283.331541 177.171835 
L 283.462355 169.142481 
L 283.593169 176.502722 
L 283.723983 171.818933 
L 283.854797 184.532076 
L 283.985611 179.848286 
L 284.247238 195.906994 
L 284.378052 169.142481 
L 285.29375 179.848286 
L 285.424564 178.510061 
L 285.555378 185.870302 
L 285.686192 164.458692 
L 285.817006 171.14982 
L 285.94782 155.760225 
L 286.078634 165.127804 
L 286.471076 144.385307 
L 286.60189 150.407323 
L 286.863518 154.421999 
L 286.994332 138.363292 
L 287.517587 194.568768 
L 287.648401 143.716194 
L 287.910029 177.171835 
L 288.040843 163.789579 
L 288.433285 193.230543 
L 288.564099 185.201189 
L 288.694913 199.921671 
L 288.956541 181.186512 
L 289.087355 162.451353 
L 289.218169 171.818933 
L 289.610611 171.818933 
L 289.741425 158.436676 
L 289.872239 165.127804 
L 290.003053 165.796917 
L 290.133867 169.811594 
L 290.264681 163.789579 
L 290.395495 177.171835 
L 290.657123 174.495384 
L 290.787936 166.46603 
L 290.91875 177.171835 
L 291.049564 178.510061 
L 291.180378 175.833609 
L 291.311192 158.436676 
L 291.57282 225.347958 
L 291.703634 178.510061 
L 291.834448 201.259896 
L 291.965262 194.568768 
L 292.096076 166.46603 
L 292.22689 169.142481 
L 292.357704 159.774902 
L 292.488518 171.818933 
L 292.619332 167.804256 
L 292.750146 170.480707 
L 292.88096 178.510061 
L 293.011774 166.46603 
L 293.142588 165.127804 
L 293.273402 169.142481 
L 293.404216 159.774902 
L 293.665844 171.818933 
L 293.796658 146.392646 
L 293.927471 175.833609 
L 294.058285 163.789579 
L 294.189099 177.171835 
L 294.319913 174.495384 
L 294.450727 187.87764 
L 294.581541 167.804256 
L 294.712355 190.554091 
L 294.843169 190.554091 
L 294.973983 199.921671 
L 295.104797 183.862963 
L 295.235611 193.230543 
L 295.366425 179.848286 
L 295.497239 181.186512 
L 295.889681 153.083774 
L 296.020495 163.789579 
L 296.282123 145.05442 
L 296.412937 143.716194 
L 296.543751 158.436676 
L 296.674565 158.436676 
L 296.936193 120.966359 
L 297.067007 108.922328 
L 297.19782 110.260554 
L 297.328634 149.069097 
L 297.459448 150.407323 
L 297.590262 175.833609 
L 297.721076 122.304584 
L 297.85189 162.451353 
L 298.113518 145.05442 
L 298.244332 166.46603 
L 298.375146 147.730871 
L 298.636774 169.142481 
L 298.767588 170.480707 
L 298.898402 159.774902 
L 299.16003 183.862963 
L 299.290844 177.171835 
L 299.421658 185.201189 
L 299.552472 181.186512 
L 299.683286 186.539415 
L 299.8141 185.870302 
L 299.944914 183.862963 
L 300.075728 169.142481 
L 300.337356 185.201189 
L 300.598983 169.142481 
L 300.860611 178.510061 
L 300.991425 174.495384 
L 301.122239 182.524738 
L 301.253053 162.451353 
L 301.383867 175.833609 
L 301.514681 170.480707 
L 301.776309 174.495384 
L 301.907123 169.142481 
L 302.037937 175.833609 
L 302.299565 157.098451 
L 302.430379 166.46603 
L 302.561193 167.804256 
L 302.692007 162.451353 
L 302.822821 165.127804 
L 302.953635 163.789579 
L 303.084449 170.480707 
L 303.215263 163.789579 
L 303.476891 170.480707 
L 303.607705 167.804256 
L 303.738518 169.142481 
L 303.869332 171.818933 
L 304.000146 187.87764 
L 304.13096 179.848286 
L 304.261774 182.524738 
L 304.392588 175.833609 
L 304.523402 181.186512 
L 304.78503 165.127804 
L 304.915844 170.480707 
L 305.046658 162.451353 
L 305.177472 162.451353 
L 305.4391 187.87764 
L 305.700728 153.083774 
L 305.831542 149.069097 
L 305.962356 123.64281 
L 306.09317 159.774902 
L 306.74724 158.436676 
L 307.008867 116.951682 
L 307.139681 118.289907 
L 307.270495 115.613456 
L 307.401309 116.951682 
L 307.662937 123.64281 
L 307.793751 123.64281 
L 307.924565 124.981036 
L 308.055379 110.260554 
L 308.186193 128.995712 
L 308.317007 116.951682 
L 308.447821 124.981036 
L 308.709449 154.421999 
L 308.840263 150.407323 
L 308.971077 162.451353 
L 309.101891 128.995712 
L 309.363519 173.157158 
L 309.494333 174.495384 
L 309.755961 154.421999 
L 309.886775 165.127804 
L 310.148402 147.730871 
L 310.279216 151.745548 
L 310.41003 170.480707 
L 310.802472 138.363292 
L 310.933286 141.039743 
L 311.0641 134.348615 
L 311.194914 147.730871 
L 311.325728 126.319261 
L 311.456542 124.981036 
L 311.587356 115.613456 
L 311.848984 130.333938 
L 312.241426 112.937005 
L 312.503054 151.745548 
L 312.633868 147.061758 
L 312.895496 155.760225 
L 313.02631 150.407323 
L 313.287938 157.098451 
L 313.418751 155.760225 
L 313.549565 167.804256 
L 313.811193 146.392646 
L 313.942007 155.760225 
L 314.072821 155.760225 
L 314.203635 157.098451 
L 314.465263 181.186512 
L 314.988519 181.186512 
L 315.119333 163.789579 
L 315.250147 162.451353 
L 315.380961 150.407323 
L 315.642589 161.113128 
L 315.904217 163.789579 
L 316.035031 162.451353 
L 316.165845 157.098451 
L 316.6891 175.833609 
L 316.819914 162.451353 
L 316.950728 161.113128 
L 317.212356 171.818933 
L 317.34317 170.480707 
L 317.473984 161.113128 
L 317.604798 170.480707 
L 317.735612 165.127804 
L 317.866426 170.480707 
L 317.99724 169.142481 
L 318.128054 165.127804 
L 318.258868 178.510061 
L 318.389682 166.46603 
L 318.520496 166.46603 
L 318.65131 167.804256 
L 318.912938 185.201189 
L 319.174566 182.524738 
L 319.30538 174.495384 
L 319.436194 175.833609 
L 319.567008 190.554091 
L 319.697822 191.892317 
L 319.828636 198.583445 
L 320.090263 159.774902 
L 320.221077 187.87764 
L 320.351891 185.201189 
L 320.482705 170.480707 
L 320.744333 174.495384 
L 320.875147 158.436676 
L 321.005961 158.436676 
L 321.136775 169.142481 
L 321.267589 167.804256 
L 321.398403 174.495384 
L 321.529217 161.113128 
L 321.660031 173.157158 
L 321.790845 166.46603 
L 321.921659 166.46603 
L 322.052473 161.113128 
L 322.444915 174.495384 
L 322.575729 165.127804 
L 322.706543 167.804256 
L 322.837357 158.436676 
L 322.968171 173.157158 
L 323.098984 173.157158 
L 323.360612 161.113128 
L 323.491426 165.127804 
L 323.62224 174.495384 
L 323.883868 166.46603 
L 324.014682 158.436676 
L 324.145496 159.774902 
L 324.27631 178.510061 
L 324.407124 162.451353 
L 324.799566 179.848286 
L 324.93038 159.774902 
L 325.061194 166.46603 
L 325.192008 190.554091 
L 325.322822 189.215866 
L 325.453636 174.495384 
L 325.846078 191.892317 
L 325.976892 187.87764 
L 326.23852 203.936348 
L 326.500147 174.495384 
L 326.630961 173.157158 
L 326.892589 145.05442 
L 327.023403 139.701517 
L 327.154217 128.995712 
L 327.285031 103.569425 
L 327.415845 133.010389 
L 327.546659 116.951682 
L 327.808287 137.025066 
L 327.939101 134.348615 
L 328.069915 145.05442 
L 328.331543 205.274573 
L 328.462357 187.87764 
L 328.593171 149.069097 
L 328.854799 211.965701 
L 328.985613 238.730214 
L 329.116427 186.539415 
L 329.247241 199.921671 
L 329.378055 161.113128 
L 329.508869 169.142481 
L 329.639682 189.215866 
L 329.770496 179.848286 
L 329.90131 186.539415 
L 330.162938 174.495384 
L 330.55538 191.892317 
L 330.686194 175.833609 
L 330.947822 175.833609 
L 331.078636 166.46603 
L 331.20945 195.906994 
L 331.340264 186.539415 
L 331.471078 201.259896 
L 331.732706 179.848286 
L 331.86352 193.230543 
L 331.994334 179.848286 
L 332.125148 182.524738 
L 332.255962 190.554091 
L 332.386776 177.171835 
L 332.51759 189.215866 
L 332.779218 169.142481 
L 332.910031 167.804256 
L 333.171659 154.421999 
L 333.302473 165.127804 
L 333.433287 146.392646 
L 333.564101 143.716194 
L 333.694915 134.348615 
L 333.825729 138.363292 
L 334.087357 155.760225 
L 334.218171 149.069097 
L 334.348985 153.083774 
L 334.479799 151.745548 
L 334.610613 169.142481 
L 334.741427 166.46603 
L 334.872241 182.524738 
L 335.003055 173.157158 
L 335.133869 189.215866 
L 335.264683 187.87764 
L 335.657125 174.495384 
L 335.918753 158.436676 
L 336.049566 163.789579 
L 336.18038 183.862963 
L 336.311194 91.525395 
L 336.442008 153.083774 
L 336.572822 134.348615 
L 336.703636 146.392646 
L 336.83445 111.598779 
L 337.096078 177.171835 
L 337.357706 167.804256 
L 337.619334 162.451353 
L 337.750148 175.833609 
L 337.880962 170.480707 
L 338.14259 150.407323 
L 340.628055 167.804256 
L 340.758869 158.436676 
L 340.889683 162.451353 
L 341.020497 158.436676 
L 341.151311 159.774902 
L 341.412939 157.098451 
L 341.543753 170.480707 
L 341.674567 166.46603 
L 342.197823 138.363292 
L 342.328637 138.363292 
L 342.459451 162.451353 
L 342.590264 147.730871 
L 342.982706 161.113128 
L 343.244334 157.098451 
L 343.375148 171.818933 
L 343.636776 163.789579 
L 343.76759 177.171835 
L 343.898404 157.098451 
L 344.029218 170.480707 
L 344.160032 170.480707 
L 344.290846 173.157158 
L 344.42166 169.142481 
L 344.552474 159.774902 
L 344.683288 158.436676 
L 344.944916 153.083774 
L 345.07573 153.083774 
L 345.206544 165.127804 
L 345.337358 155.760225 
L 345.468172 163.789579 
L 345.598986 153.083774 
L 345.860613 161.113128 
L 345.991427 158.436676 
L 346.122241 159.774902 
L 346.383869 159.774902 
L 346.645497 154.421999 
L 346.776311 153.083774 
L 347.037939 170.480707 
L 347.168753 161.113128 
L 347.299567 165.127804 
L 347.692009 143.716194 
L 347.822823 153.083774 
L 347.953637 150.407323 
L 348.084451 158.436676 
L 348.215265 158.436676 
L 348.346079 147.730871 
L 348.476893 149.069097 
L 348.607707 162.451353 
L 348.738521 161.113128 
L 348.869335 151.745548 
L 349.261776 166.46603 
L 349.39259 150.407323 
L 349.523404 150.407323 
L 349.785032 153.083774 
L 350.04666 157.098451 
L 350.177474 167.804256 
L 350.308288 167.804256 
L 350.439102 163.789579 
L 350.70073 178.510061 
L 350.831544 178.510061 
L 350.962358 175.833609 
L 351.093172 169.142481 
L 351.223986 178.510061 
L 351.3548 179.179174 
L 351.616428 162.451353 
L 351.747242 165.127804 
L 351.878056 159.774902 
L 352.00887 167.804256 
L 352.139684 163.789579 
L 352.270497 165.127804 
L 352.401311 182.524738 
L 352.532125 143.716194 
L 352.924567 134.348615 
L 353.055381 138.363292 
L 353.317009 170.480707 
L 353.578637 133.010389 
L 353.709451 142.377969 
L 353.840265 139.701517 
L 353.971079 149.069097 
L 354.101893 142.377969 
L 354.232707 123.64281 
L 354.363521 134.348615 
L 354.494335 155.760225 
L 354.625149 155.760225 
L 354.755963 151.745548 
L 354.886777 163.789579 
L 355.017591 153.083774 
L 355.279219 153.083774 
L 355.410033 143.716194 
L 355.540846 154.421999 
L 355.67166 154.421999 
L 355.802474 165.127804 
L 355.933288 151.745548 
L 356.064102 153.083774 
L 356.32573 147.730871 
L 356.587358 158.436676 
L 356.718172 171.818933 
L 356.848986 170.480707 
L 356.9798 163.789579 
L 357.110614 165.127804 
L 357.764684 157.098451 
L 357.895498 159.774902 
L 358.157126 146.392646 
L 358.28794 154.421999 
L 358.418754 146.392646 
L 358.549568 149.069097 
L 358.811195 167.804256 
L 358.942009 151.745548 
L 359.072823 161.113128 
L 359.334451 153.083774 
L 359.596079 169.811594 
L 359.726893 155.760225 
L 359.857707 155.760225 
L 360.119335 166.46603 
L 360.250149 161.113128 
L 360.380963 174.495384 
L 360.511777 156.429338 
L 360.642591 179.848286 
L 360.904219 161.113128 
L 361.165847 147.061758 
L 361.296661 153.752887 
L 361.558289 139.701517 
L 361.689103 141.708856 
L 361.95073 171.14982 
L 362.081544 157.098451 
L 362.212358 162.451353 
L 362.343172 155.760225 
L 362.473986 166.46603 
L 362.6048 159.774902 
L 362.735614 167.135143 
L 362.866428 167.804256 
L 362.997242 161.113128 
L 363.128056 171.818933 
L 363.389684 159.774902 
L 363.520498 170.480707 
L 363.782126 171.818933 
L 363.91294 159.774902 
L 364.043754 159.774902 
L 364.174568 161.113128 
L 364.305382 177.171835 
L 364.436196 145.05442 
L 364.56701 167.804256 
L 364.959452 174.495384 
L 365.090266 171.818933 
L 365.351893 183.862963 
L 365.613521 161.113128 
L 365.744335 165.796917 
L 365.875149 161.113128 
L 366.005963 161.113128 
L 366.136777 183.862963 
L 366.398405 174.495384 
L 366.529219 171.818933 
L 366.660033 171.818933 
L 366.790847 177.171835 
L 366.921661 165.127804 
L 367.183289 173.157158 
L 367.314103 174.495384 
L 367.444917 178.510061 
L 367.575731 161.113128 
L 367.706545 173.157158 
L 367.837359 170.480707 
L 367.968173 171.818933 
L 368.098987 159.774902 
L 368.229801 165.127804 
L 368.360615 157.098451 
L 368.622242 174.495384 
L 368.753056 166.46603 
L 368.88387 166.46603 
L 369.014684 169.142481 
L 369.145498 179.848286 
L 369.276312 177.171835 
L 369.407126 166.46603 
L 369.53794 169.142481 
L 369.668754 179.848286 
L 369.799568 179.848286 
L 369.930382 174.495384 
L 370.061196 179.848286 
L 370.19201 177.171835 
L 370.322824 163.789579 
L 370.584452 178.510061 
L 370.715266 177.171835 
L 370.84608 177.171835 
L 370.976894 173.157158 
L 371.107708 158.436676 
L 371.238522 157.098451 
L 371.50015 150.407323 
L 371.630964 139.701517 
L 371.892591 146.392646 
L 372.154219 149.069097 
L 372.415847 159.774902 
L 372.677475 157.098451 
L 372.808289 147.730871 
L 372.939103 158.436676 
L 373.069917 157.098451 
L 373.200731 162.451353 
L 373.462359 159.774902 
L 373.593173 165.127804 
L 373.723987 163.789579 
L 373.854801 163.789579 
L 373.985615 135.686841 
L 374.247243 165.127804 
L 374.508871 159.774902 
L 374.639685 169.142481 
L 375.032126 150.407323 
L 375.16294 173.157158 
L 375.293754 171.818933 
L 375.81701 175.833609 
L 375.947824 169.142481 
L 376.078638 169.142481 
L 376.340266 175.833609 
L 376.47108 185.201189 
L 376.732708 163.789579 
L 376.863522 166.46603 
L 376.994336 171.818933 
L 377.12515 169.142481 
L 377.255964 169.142481 
L 377.386778 177.171835 
L 378.040848 189.215866 
L 378.171661 194.568768 
L 378.433289 179.848286 
L 378.564103 181.186512 
L 378.694917 163.789579 
L 378.825731 179.848286 
L 378.956545 174.495384 
L 379.087359 155.760225 
L 379.218173 157.098451 
L 379.348987 141.039743 
L 379.610615 163.789579 
L 379.741429 159.774902 
L 379.872243 151.745548 
L 380.003057 154.421999 
L 380.264685 141.039743 
L 380.395499 142.377969 
L 380.526313 154.421999 
L 380.657127 153.083774 
L 380.787941 134.348615 
L 381.049569 151.745548 
L 381.180383 149.069097 
L 381.311197 158.436676 
L 381.44201 154.421999 
L 381.572824 166.46603 
L 381.703638 157.098451 
L 381.834452 158.436676 
L 381.965266 165.127804 
L 382.09608 162.451353 
L 382.226894 177.171835 
L 382.619336 162.451353 
L 382.75015 165.127804 
L 382.880964 158.436676 
L 383.011778 111.598779 
L 383.273406 145.05442 
L 383.40422 134.348615 
L 383.665848 162.451353 
L 383.796662 167.804256 
L 383.927476 161.113128 
L 384.05829 165.127804 
L 384.189104 154.421999 
L 384.319918 171.818933 
L 384.581546 141.039743 
L 384.712359 179.848286 
L 384.973987 143.716194 
L 385.104801 187.87764 
L 385.235615 142.377969 
L 385.497243 165.127804 
L 385.628057 163.789579 
L 385.758871 173.157158 
L 385.889685 174.495384 
L 386.020499 171.818933 
L 386.151313 177.171835 
L 386.282127 167.804256 
L 386.412941 178.510061 
L 386.805383 163.789579 
L 386.936197 158.436676 
L 387.067011 142.377969 
L 387.328639 154.421999 
L 387.459453 138.363292 
L 387.851895 207.951025 
L 387.982708 191.892317 
L 388.113522 202.357241 
L 388.244336 172.916278 
L 388.505964 198.583445 
L 388.636778 170.480707 
L 388.767592 177.171835 
L 388.898406 177.171835 
L 389.290848 187.87764 
L 389.421662 163.789579 
L 389.552476 163.789579 
L 389.814104 131.672164 
L 389.944918 147.730871 
L 390.075732 130.333938 
L 390.33736 138.363292 
L 390.598988 87.510718 
L 390.729802 100.892974 
L 390.99143 178.510061 
L 395.177476 199.921671 
L 395.439104 154.421999 
L 395.569918 175.833609 
L 395.700732 165.127804 
L 395.831546 165.127804 
L 395.96236 179.179174 
L 396.223988 170.480707 
L 396.354802 161.113128 
L 396.485616 139.701517 
L 397.008872 189.215866 
L 397.139686 155.760225 
L 397.532128 217.318604 
L 398.055383 178.510061 
L 398.186197 177.171835 
L 398.317011 174.495384 
L 398.447825 174.495384 
L 398.709453 165.127804 
L 398.840267 166.46603 
L 398.971081 159.774902 
L 399.101895 162.451353 
L 399.232709 167.804256 
L 399.363523 157.098451 
L 399.494337 162.451353 
L 399.625151 161.113128 
L 399.755965 165.127804 
L 399.886779 159.774902 
L 400.017593 147.730871 
L 400.148407 155.760225 
L 400.410035 150.407323 
L 400.540849 155.760225 
L 400.671663 154.421999 
L 400.802477 157.098451 
L 400.93329 147.730871 
L 401.325732 169.142481 
L 401.456546 147.730871 
L 401.58736 159.774902 
L 402.110616 139.701517 
L 402.8955 162.451353 
L 403.026314 123.64281 
L 403.157128 141.039743 
L 403.287942 138.363292 
L 403.811198 179.848286 
L 403.942012 175.833609 
L 404.072825 149.069097 
L 404.465267 189.215866 
L 404.726895 199.921671 
L 404.988523 183.862963 
L 405.119337 194.568768 
L 405.250151 173.157158 
L 405.380965 173.157158 
L 405.511779 178.510061 
L 405.642593 158.436676 
L 405.773407 161.113128 
L 406.035035 151.745548 
L 406.165849 147.730871 
L 406.296663 154.421999 
L 406.427477 146.392646 
L 406.558291 163.789579 
L 406.689105 162.451353 
L 406.819919 187.87764 
L 406.950733 187.87764 
L 407.212361 174.495384 
L 407.343174 190.554091 
L 407.604802 179.848286 
L 407.735616 193.230543 
L 407.86643 233.377312 
L 408.128058 143.716194 
L 408.258872 165.127804 
L 408.389686 165.127804 
L 408.5205 158.436676 
L 408.651314 173.157158 
L 408.782128 151.745548 
L 408.912942 195.906994 
L 409.043756 195.906994 
L 409.17457 170.480707 
L 409.305384 178.510061 
L 409.436198 173.157158 
L 409.567012 157.098451 
L 409.697826 155.091112 
L 409.82864 189.215866 
L 409.959454 191.892317 
L 410.090268 215.980378 
L 410.351896 119.628133 
L 410.613523 183.862963 
L 410.744337 166.46603 
L 410.875151 167.804256 
L 411.136779 183.862963 
L 411.267593 186.539415 
L 411.398407 183.862963 
L 411.529221 185.201189 
L 411.660035 189.215866 
L 411.921663 170.480707 
L 412.052477 178.510061 
L 412.183291 178.510061 
L 412.314105 185.201189 
L 412.837361 161.113128 
L 413.229803 177.171835 
L 413.360617 150.407323 
L 413.622245 183.862963 
L 413.753059 179.848286 
L 413.883872 190.554091 
L 414.1455 167.804256 
L 414.276314 169.142481 
L 414.407128 181.186512 
L 414.537942 174.495384 
L 414.668756 175.833609 
L 414.79957 175.833609 
L 415.322826 158.436676 
L 415.45364 161.113128 
L 415.584454 171.818933 
L 415.715268 145.05442 
L 415.846082 178.510061 
L 415.976896 175.833609 
L 416.10771 193.230543 
L 416.238524 186.539415 
L 416.369338 186.539415 
L 416.500152 175.833609 
L 417.546663 189.215866 
L 417.808291 186.539415 
L 417.939105 181.186512 
L 418.200733 193.230543 
L 418.462361 175.833609 
L 418.593175 174.495384 
L 418.723989 171.818933 
L 418.854803 175.833609 
L 418.985617 174.495384 
L 419.116431 178.510061 
L 419.378059 154.421999 
L 420.162943 169.142481 
L 420.42457 158.436676 
L 421.07864 155.760225 
L 421.209454 163.789579 
L 421.601896 155.760225 
L 421.73271 149.069097 
L 422.125152 225.347958 
L 422.255966 212.393934 
L 422.38678 119.628133 
L 422.648408 183.862963 
L 422.779222 191.892317 
L 422.910036 181.186512 
L 423.04085 183.862963 
L 423.171664 169.142481 
L 423.302478 137.025066 
L 423.433292 219.995055 
L 423.564105 219.995055 
L 423.694919 175.833609 
L 423.825733 171.818933 
L 423.956547 246.759568 
L 424.087361 169.142481 
L 424.218175 207.281912 
L 424.348989 205.274573 
L 424.479803 183.862963 
L 424.610617 198.583445 
L 424.872245 147.730871 
L 425.264687 177.171835 
L 425.395501 174.495384 
L 425.526315 181.186512 
L 425.657129 178.510061 
L 425.918757 169.142481 
L 426.180385 194.568768 
L 426.442013 177.171835 
L 426.572827 178.510061 
L 426.703641 185.201189 
L 427.096082 174.495384 
L 427.226896 167.804256 
L 427.35771 178.510061 
L 427.750152 171.818933 
L 428.142594 175.833609 
L 428.273408 173.157158 
L 428.404222 165.127804 
L 428.535036 168.473369 
L 428.66585 167.804256 
L 428.796664 165.127804 
L 428.927478 175.833609 
L 429.058292 171.818933 
L 429.189106 189.215866 
L 429.31992 182.524738 
L 429.450734 183.862963 
L 429.581548 181.186512 
L 429.712362 187.87764 
L 429.843176 171.818933 
L 429.97399 178.510061 
L 430.104803 170.480707 
L 430.235617 170.480707 
L 430.497245 179.848286 
L 430.628059 166.46603 
L 430.758873 165.127804 
L 431.020501 170.480707 
L 431.151315 169.142481 
L 431.282129 171.818933 
L 431.412943 162.451353 
L 431.674571 171.818933 
L 431.805385 171.818933 
L 431.936199 167.804256 
L 432.067013 173.157158 
L 432.197827 166.46603 
L 432.328641 166.46603 
L 432.459455 173.157158 
L 432.721083 194.568768 
L 432.851897 166.46603 
L 432.982711 169.142481 
L 433.244338 183.862963 
L 433.375152 158.436676 
L 433.505966 158.436676 
L 433.63678 151.745548 
L 433.767594 158.436676 
L 433.898408 149.069097 
L 434.029222 165.127804 
L 434.421664 147.730871 
L 434.552478 182.524738 
L 434.683292 154.421999 
L 435.075734 187.87764 
L 435.206548 162.451353 
L 435.337362 177.171835 
L 435.468176 226.686183 
L 435.59899 141.039743 
L 435.991432 215.980378 
L 436.122246 189.215866 
L 436.25306 202.598122 
L 436.514687 170.480707 
L 436.645501 161.113128 
L 436.776315 171.818933 
L 436.907129 167.804256 
L 437.037943 155.760225 
L 437.299571 166.46603 
L 437.430385 178.510061 
L 437.561199 170.480707 
L 437.692013 181.186512 
L 437.953641 146.392646 
L 438.084455 155.760225 
L 438.215269 187.87764 
L 438.346083 190.554091 
L 438.476897 202.598122 
L 438.607711 203.936348 
L 438.738525 199.921671 
L 438.869339 199.921671 
L 439.000153 201.259896 
L 439.261781 205.274573 
L 439.392595 195.906994 
L 439.523409 198.583445 
L 439.654223 195.906994 
L 439.785036 198.583445 
L 439.91585 197.24522 
L 440.046664 198.583445 
L 440.177478 205.274573 
L 440.308292 195.906994 
L 440.439106 195.906994 
L 440.56992 199.921671 
L 440.831548 189.215866 
L 440.962362 193.230543 
L 441.093176 185.201189 
L 441.22399 185.201189 
L 443.186199 165.127804 
L 443.317013 178.510061 
L 443.578641 170.480707 
L 443.709455 171.818933 
L 443.840269 187.87764 
L 443.971083 175.833609 
L 444.101897 175.833609 
L 444.232711 193.899655 
L 444.363525 181.186512 
L 444.494339 181.186512 
L 444.625153 177.171835 
L 444.755967 189.215866 
L 445.017595 182.524738 
L 445.410037 194.568768 
L 445.540851 211.965701 
L 445.671665 202.598122 
L 445.802479 181.186512 
L 446.064107 186.539415 
L 446.19492 187.87764 
L 446.325734 185.201189 
L 446.456548 195.906994 
L 446.979804 193.230543 
L 447.241432 186.539415 
L 447.372246 141.708856 
L 447.50306 179.848286 
L 447.633874 173.157158 
L 447.764688 185.201189 
L 447.895502 177.171835 
L 448.026316 190.554091 
L 448.287944 181.186512 
L 448.8112 202.598122 
L 449.072828 193.230543 
L 449.203642 201.259896 
L 449.334456 183.862963 
L 449.596083 190.554091 
L 449.726897 177.171835 
L 449.857711 179.848286 
L 449.988525 186.539415 
L 450.119339 169.142481 
L 450.250153 181.186512 
L 450.380967 179.848286 
L 450.511781 185.201189 
L 450.642595 183.862963 
L 450.773409 175.833609 
L 450.904223 189.215866 
L 451.035037 175.833609 
L 451.165851 182.524738 
L 451.296665 178.510061 
L 451.427479 183.862963 
L 451.558293 174.495384 
L 452.081549 197.24522 
L 452.997246 178.510061 
L 453.12806 171.818933 
L 453.389688 183.862963 
L 453.651316 175.164497 
L 453.78213 162.451353 
L 454.043758 178.510061 
L 454.174572 177.171835 
L 454.4362 165.127804 
L 454.697828 194.568768 
L 454.828642 193.230543 
L 454.959456 209.28925 
L 455.09027 199.921671 
L 455.221084 182.524738 
L 455.875154 189.215866 
L 456.136781 189.215866 
L 456.267595 187.87764 
L 456.529223 179.848286 
L 456.921665 182.524738 
L 457.052479 169.142481 
L 457.183293 190.554091 
L 457.314107 166.46603 
L 457.575735 186.539415 
L 457.706549 189.215866 
L 457.968177 189.215866 
L 458.098991 233.377312 
L 458.229805 143.716194 
L 458.360619 182.524738 
L 458.622247 187.87764 
L 458.883875 178.510061 
L 459.276316 158.436676 
L 459.40713 165.127804 
L 459.537944 160.444015 
L 459.668758 143.716194 
L 459.799572 154.421999 
L 459.930386 147.730871 
L 460.192014 112.937005 
L 460.322828 161.113128 
L 460.453642 142.377969 
L 460.71527 175.833609 
L 460.846084 174.495384 
L 461.238526 175.833609 
L 461.630968 169.142481 
L 461.892596 151.745548 
L 462.02341 162.451353 
L 462.546665 135.686841 
L 462.677479 143.716194 
L 462.808293 143.716194 
L 463.200735 167.804256 
L 463.331549 161.113128 
L 463.723991 197.24522 
L 463.854805 183.862963 
L 463.985619 183.862963 
L 464.116433 179.848286 
L 464.247247 182.524738 
L 464.378061 191.892317 
L 464.508875 171.14982 
L 464.639689 190.554091 
L 464.770503 158.436676 
L 465.032131 178.510061 
L 465.162945 177.171835 
L 465.293759 177.171835 
L 465.424573 173.157158 
L 465.555387 174.495384 
L 465.817014 157.767563 
L 466.471084 183.862963 
L 466.732712 161.113128 
L 466.863526 177.171835 
L 466.99434 178.510061 
L 467.125154 173.157158 
L 467.255968 175.833609 
L 467.386782 187.208527 
L 468.040852 152.414661 
L 468.564108 145.05442 
L 468.825736 146.392646 
L 469.087363 157.098451 
L 469.218177 175.164497 
L 469.348991 171.818933 
L 469.479805 186.539415 
L 469.610619 221.333281 
L 469.741433 95.540072 
L 470.003061 183.19385 
L 470.133875 181.186512 
L 470.264689 189.215866 
L 470.395503 181.186512 
L 470.526317 181.186512 
L 470.657131 165.127804 
L 471.049573 193.230543 
L 471.180387 183.19385 
L 471.311201 157.767563 
L 471.442015 171.818933 
L 471.572829 163.120466 
L 471.834457 170.480707 
L 471.965271 166.46603 
L 472.488526 170.480707 
L 472.750154 185.201189 
L 472.880968 178.510061 
L 473.142596 185.201189 
L 473.27341 175.833609 
L 473.404224 176.502722 
L 473.535038 174.495384 
L 473.665852 177.840948 
L 473.796666 177.171835 
L 473.92748 171.818933 
L 474.058294 175.833609 
L 474.189108 172.488045 
L 474.319922 161.113128 
L 474.450736 167.804256 
L 474.58155 186.539415 
L 474.843178 175.833609 
L 474.973992 174.495384 
L 475.104806 181.855625 
L 475.23562 174.495384 
L 475.366433 182.524738 
L 475.758875 169.811594 
L 476.020503 173.157158 
L 476.151317 194.568768 
L 476.412945 179.848286 
L 476.543759 181.186512 
L 476.805387 198.583445 
L 476.936201 194.568768 
L 477.067015 195.906994 
L 477.197829 178.510061 
L 477.328643 191.892317 
L 477.721085 155.760225 
L 477.851899 154.421999 
L 477.982713 150.407323 
L 478.113527 151.745548 
L 478.375155 142.377969 
L 478.505969 151.745548 
L 478.636782 127.657487 
L 478.767596 163.789579 
L 478.89841 161.113128 
L 479.029224 147.061758 
L 479.160038 175.833609 
L 479.421666 167.804256 
L 479.55248 170.480707 
L 479.814108 179.848286 
L 479.944922 236.053763 
L 480.075736 179.848286 
L 480.20655 177.171835 
L 480.468178 162.451353 
L 480.598992 163.789579 
L 480.729806 154.421999 
L 480.86062 161.113128 
L 480.991434 153.752887 
L 481.122248 169.142481 
L 481.253062 139.701517 
L 481.383876 162.451353 
L 481.645504 139.701517 
L 481.776318 173.826271 
L 481.907131 161.113128 
L 482.037945 163.789579 
L 482.168759 187.208527 
L 482.299573 178.510061 
L 482.430387 184.532076 
L 482.561201 178.510061 
L 482.692015 189.215866 
L 482.822829 187.87764 
L 483.084457 193.230543 
L 483.215271 177.171835 
L 483.346085 191.223204 
L 483.476899 179.848286 
L 483.869341 157.767563 
L 484.130969 167.804256 
L 484.261783 161.113128 
L 484.392597 162.451353 
L 484.523411 155.760225 
L 484.654225 163.120466 
L 484.785039 157.098451 
L 485.046667 193.230543 
L 485.308294 170.480707 
L 485.439108 187.87764 
L 485.569922 179.848286 
L 486.354806 210.627476 
L 486.616434 183.19385 
L 486.878062 191.892317 
L 487.008876 183.862963 
L 487.13969 191.892317 
L 487.270504 185.201189 
L 487.401318 187.87764 
L 487.662946 173.157158 
L 487.79376 193.230543 
L 488.186202 167.804256 
L 488.447829 153.752887 
L 488.709457 200.590784 
L 489.101899 143.716194 
L 489.363527 135.686841 
L 489.494341 142.377969 
L 489.755969 135.686841 
L 490.279225 150.407323 
L 490.410039 173.826271 
L 490.540853 173.157158 
L 490.671667 174.495384 
L 490.802481 167.804256 
L 490.933295 171.818933 
L 491.064109 181.186512 
L 491.325737 187.87764 
L 491.587364 185.201189 
L 491.718178 232.039086 
L 491.848992 163.789579 
L 492.11062 157.098451 
L 492.241434 147.730871 
L 492.372248 167.804256 
L 492.633876 153.083774 
L 492.76469 174.495384 
L 492.895504 153.083774 
L 493.157132 163.789579 
L 493.287946 152.414661 
L 493.41876 159.774902 
L 493.549574 155.760225 
L 493.680388 137.694179 
L 493.811202 151.745548 
L 493.942016 142.377969 
L 494.07283 141.039743 
L 494.334458 163.789579 
L 494.465272 158.436676 
L 494.7269 183.19385 
L 494.857713 162.451353 
L 495.119341 183.862963 
L 495.250155 165.796917 
L 495.380969 193.230543 
L 495.511783 177.171835 
L 495.642597 182.524738 
L 495.773411 174.495384 
L 495.904225 186.539415 
L 496.689109 133.010389 
L 496.819923 145.05442 
L 496.950737 143.716194 
L 497.081551 140.37063 
L 497.473993 169.142481 
L 497.604807 159.774902 
L 497.735621 161.113128 
L 497.997249 182.524738 
L 498.128062 161.78224 
L 498.520504 191.892317 
L 498.651318 183.862963 
L 498.782132 184.532076 
L 498.912946 183.862963 
L 499.04376 174.495384 
L 499.174574 191.892317 
L 499.305388 185.201189 
L 499.567016 185.201189 
L 499.69783 193.230543 
L 499.828644 189.215866 
L 500.090272 176.502722 
L 500.221086 189.215866 
L 500.3519 185.201189 
L 500.482714 191.892317 
L 500.613528 187.87764 
L 500.744342 195.906994 
L 500.875156 189.215866 
L 501.136784 199.921671 
L 501.660039 181.186512 
L 501.790853 183.862963 
L 501.921667 183.862963 
L 502.052481 177.171835 
L 502.183295 198.583445 
L 502.314109 182.524738 
L 502.314109 182.524738 
" clip-path="url(#p49171af083)" style="fill: none; stroke: #1f77b4; stroke-width: 1.5; stroke-linecap: square"/>
   </g>
   <g id="line2d_15">
    <path d="M 49.181094 193.230543 
L 523.891872 193.230543 
" clip-path="url(#p49171af083)" style="fill: none; stroke-dasharray: 5.55,2.4; stroke-dashoffset: 0; stroke: #1f77b4; stroke-width: 1.5"/>
   </g>
   <g id="patch_3">
    <path d="M 49.181094 264.557969 
L 49.181094 20.197969 
" style="fill: none; stroke: #000000; stroke-width: 0.9; stroke-linejoin: miter; stroke-linecap: square"/>
   </g>
   <g id="patch_4">
    <path d="M 49.181094 264.557969 
L 523.891872 264.557969 
" style="fill: none; stroke: #000000; stroke-width: 0.9; stroke-linejoin: miter; stroke-linecap: square"/>
   </g>
   <g id="text_16">
    <!-- Residual over Time (Aligned Hours) -->
    <g transform="translate(171.878514 14.197969) scale(0.13 -0.13)">
     <defs>
      <path id="DejaVuSans-76" d="M 191 3500 
L 800 3500 
L 1894 563 
L 2988 3500 
L 3597 3500 
L 2284 0 
L 1503 0 
L 191 3500 
z
" transform="scale(0.015625)"/>
      <path id="DejaVuSans-54" d="M -19 4666 
L 3928 4666 
L 3928 4134 
L 2272 4134 
L 2272 0 
L 1638 0 
L 1638 4134 
L -19 4134 
L -19 4666 
z
" transform="scale(0.015625)"/>
      <path id="DejaVuSans-41" d="M 2188 4044 
L 1331 1722 
L 3047 1722 
L 2188 4044 
z
M 1831 4666 
L 2547 4666 
L 4325 0 
L 3669 0 
L 3244 1197 
L 1141 1197 
L 716 0 
L 50 0 
L 1831 4666 
z
" transform="scale(0.015625)"/>
      <path id="DejaVuSans-67" d="M 2906 1791 
Q 2906 2416 2648 2759 
Q 2391 3103 1925 3103 
Q 1463 3103 1205 2759 
Q 947 2416 947 1791 
Q 947 1169 1205 825 
Q 1463 481 1925 481 
Q 2391 481 2648 825 
Q 2906 1169 2906 1791 
z
M 3481 434 
Q 3481 -459 3084 -895 
Q 2688 -1331 1869 -1331 
Q 1566 -1331 1297 -1286 
Q 1028 -1241 775 -1147 
L 775 -588 
Q 1028 -725 1275 -790 
Q 1522 -856 1778 -856 
Q 2344 -856 2625 -561 
Q 2906 -266 2906 331 
L 2906 616 
Q 2728 306 2450 153 
Q 2172 0 1784 0 
Q 1141 0 747 490 
Q 353 981 353 1791 
Q 353 2603 747 3093 
Q 1141 3584 1784 3584 
Q 2172 3584 2450 3431 
Q 2728 3278 2906 2969 
L 2906 3500 
L 3481 3500 
L 3481 434 
z
" transform="scale(0.015625)"/>
     </defs>
     <use xlink:href="#DejaVuSans-52"/>
     <use xlink:href="#DejaVuSans-65" x="64.982422"/>
     <use xlink:href="#DejaVuSans-73" x="126.505859"/>
     <use xlink:href="#DejaVuSans-69" x="178.605469"/>
     <use xlink:href="#DejaVuSans-64" x="206.388672"/>
     <use xlink:href="#DejaVuSans-75" x="269.865234"/>
     <use xlink:href="#DejaVuSans-61" x="333.244141"/>
     <use xlink:href="#DejaVuSans-6c" x="394.523438"/>
     <use xlink:href="#DejaVuSans-20" x="422.306641"/>
     <use xlink:href="#DejaVuSans-6f" x="454.09375"/>
     <use xlink:href="#DejaVuSans-76" x="515.275391"/>
     <use xlink:href="#DejaVuSans-65" x="574.455078"/>
     <use xlink:href="#DejaVuSans-72" x="635.978516"/>
     <use xlink:href="#DejaVuSans-20" x="677.091797"/>
     <use xlink:href="#DejaVuSans-54" x="708.878906"/>
     <use xlink:href="#DejaVuSans-69" x="766.837891"/>
     <use xlink:href="#DejaVuSans-6d" x="794.621094"/>
     <use xlink:href="#DejaVuSans-65" x="892.033203"/>
     <use xlink:href="#DejaVuSans-20" x="953.556641"/>
     <use xlink:href="#DejaVuSans-28" x="985.34375"/>
     <use xlink:href="#DejaVuSans-41" x="1024.357422"/>
     <use xlink:href="#DejaVuSans-6c" x="1092.765625"/>
     <use xlink:href="#DejaVuSans-69" x="1120.548828"/>
     <use xlink:href="#DejaVuSans-67" x="1148.332031"/>
     <use xlink:href="#DejaVuSans-6e" x="1211.808594"/>
     <use xlink:href="#DejaVuSans-65" x="1275.1875"/>
     <use xlink:href="#DejaVuSans-64" x="1336.710938"/>
     <use xlink:href="#DejaVuSans-20" x="1400.1875"/>
     <use xlink:href="#DejaVuSans-48" x="1431.974609"/>
     <use xlink:href="#DejaVuSans-6f" x="1507.169922"/>
     <use xlink:href="#DejaVuSans-75" x="1568.351562"/>
     <use xlink:href="#DejaVuSans-72" x="1631.730469"/>
     <use xlink:href="#DejaVuSans-73" x="1672.84375"/>
     <use xlink:href="#DejaVuSans-29" x="1724.943359"/>
    </g>
   </g>
  </g>
 </g>
 <defs>
  <clipPath id="p49171af083">
   <rect x="49.181094" y="20.197969" width="474.710778" height="244.36"/>
  </clipPath>
 </defs>
</svg>
