<?xml version="1.0" encoding="utf-8" standalone="no"?>
<!DOCTYPE svg PUBLIC "-//W3C//DTD SVG 1.1//EN"
  "http://www.w3.org/Graphics/SVG/1.1/DTD/svg11.dtd">
<svg xmlns:xlink="http://www.w3.org/1999/xlink" width="569.44566pt" height="289.463781pt" viewBox="0 0 569.44566 289.463781" xmlns="http://www.w3.org/2000/svg" version="1.1">
 <metadata>
  <rdf:RDF xmlns:dc="http://purl.org/dc/elements/1.1/" xmlns:cc="http://creativecommons.org/ns#" xmlns:rdf="http://www.w3.org/1999/02/22-rdf-syntax-ns#">
   <cc:Work>
    <dc:type rdf:resource="http://purl.org/dc/dcmitype/StillImage"/>
    <dc:date>2026-01-21T18:07:49.821311</dc:date>
    <dc:format>image/svg+xml</dc:format>
    <dc:creator>
     <cc:Agent>
      <dc:title>Matplotlib v3.7.2, https://matplotlib.org/</dc:title>
     </cc:Agent>
    </dc:creator>
   </cc:Work>
  </rdf:RDF>
 </metadata>
 <defs>
  <style type="text/css">*{stroke-linejoin: round; stroke-linecap: butt}</style>
 </defs>
 <g id="figure_1">
  <g id="patch_1">
   <path d="M -0 289.463781 
L 569.44566 289.463781 
L 569.44566 0 
L -0 0 
z
" style="fill: #ffffff"/>
  </g>
  <g id="axes_1">
   <g id="text_1">
    <g id="patch_2">
     <path d="M 414.690347 208.790219 
L 565.12566 208.790219 
Q 570.62566 208.790219 570.62566 203.290219 
L 570.62566 20.197969 
Q 570.62566 14.697969 565.12566 14.697969 
L 414.690347 14.697969 
Q 409.190347 14.697969 409.190347 20.197969 
L 409.190347 203.290219 
Q 409.190347 208.790219 414.690347 208.790219 
z
" style="fill: #ffffff; opacity: 0.95; stroke: #b2b2b2; stroke-linejoin: miter"/>
    </g>
    <!-- Target: PM10 -->
    <g transform="translate(414.690347 28.55625) scale(0.11 -0.11)">
     <defs>
      <path id="DejaVuSans-54" d="M -19 4666 
L 3928 4666 
L 3928 4134 
L 2272 4134 
L 2272 0 
L 1638 0 
L 1638 4134 
L -19 4134 
L -19 4666 
z
" transform="scale(0.015625)"/>
      <path id="DejaVuSans-61" d="M 2194 1759 
Q 1497 1759 1228 1600 
Q 959 1441 959 1056 
Q 959 750 1161 570 
Q 1363 391 1709 391 
Q 2188 391 2477 730 
Q 2766 1069 2766 1631 
L 2766 1759 
L 2194 1759 
z
M 3341 1997 
L 3341 0 
L 2766 0 
L 2766 531 
Q 2569 213 2275 61 
Q 1981 -91 1556 -91 
Q 1019 -91 701 211 
Q 384 513 384 1019 
Q 384 1609 779 1909 
Q 1175 2209 1959 2209 
L 2766 2209 
L 2766 2266 
Q 2766 2663 2505 2880 
Q 2244 3097 1772 3097 
Q 1472 3097 1187 3025 
Q 903 2953 641 2809 
L 641 3341 
Q 956 3463 1253 3523 
Q 1550 3584 1831 3584 
Q 2591 3584 2966 3190 
Q 3341 2797 3341 1997 
z
" transform="scale(0.015625)"/>
      <path id="DejaVuSans-72" d="M 2631 2963 
Q 2534 3019 2420 3045 
Q 2306 3072 2169 3072 
Q 1681 3072 1420 2755 
Q 1159 2438 1159 1844 
L 1159 0 
L 581 0 
L 581 3500 
L 1159 3500 
L 1159 2956 
Q 1341 3275 1631 3429 
Q 1922 3584 2338 3584 
Q 2397 3584 2469 3576 
Q 2541 3569 2628 3553 
L 2631 2963 
z
" transform="scale(0.015625)"/>
      <path id="DejaVuSans-67" d="M 2906 1791 
Q 2906 2416 2648 2759 
Q 2391 3103 1925 3103 
Q 1463 3103 1205 2759 
Q 947 2416 947 1791 
Q 947 1169 1205 825 
Q 1463 481 1925 481 
Q 2391 481 2648 825 
Q 2906 1169 2906 1791 
z
M 3481 434 
Q 3481 -459 3084 -895 
Q 2688 -1331 1869 -1331 
Q 1566 -1331 1297 -1286 
Q 1028 -1241 775 -1147 
L 775 -588 
Q 1028 -725 1275 -790 
Q 1522 -856 1778 -856 
Q 2344 -856 2625 -561 
Q 2906 -266 2906 331 
L 2906 616 
Q 2728 306 2450 153 
Q 2172 0 1784 0 
Q 1141 0 747 490 
Q 353 981 353 1791 
Q 353 2603 747 3093 
Q 1141 3584 1784 3584 
Q 2172 3584 2450 3431 
Q 2728 3278 2906 2969 
L 2906 3500 
L 3481 3500 
L 3481 434 
z
" transform="scale(0.015625)"/>
      <path id="DejaVuSans-65" d="M 3597 1894 
L 3597 1613 
L 953 1613 
Q 991 1019 1311 708 
Q 1631 397 2203 397 
Q 2534 397 2845 478 
Q 3156 559 3463 722 
L 3463 178 
Q 3153 47 2828 -22 
Q 2503 -91 2169 -91 
Q 1331 -91 842 396 
Q 353 884 353 1716 
Q 353 2575 817 3079 
Q 1281 3584 2069 3584 
Q 2775 3584 3186 3129 
Q 3597 2675 3597 1894 
z
M 3022 2063 
Q 3016 2534 2758 2815 
Q 2500 3097 2075 3097 
Q 1594 3097 1305 2825 
Q 1016 2553 972 2059 
L 3022 2063 
z
" transform="scale(0.015625)"/>
      <path id="DejaVuSans-74" d="M 1172 4494 
L 1172 3500 
L 2356 3500 
L 2356 3053 
L 1172 3053 
L 1172 1153 
Q 1172 725 1289 603 
Q 1406 481 1766 481 
L 2356 481 
L 2356 0 
L 1766 0 
Q 1100 0 847 248 
Q 594 497 594 1153 
L 594 3053 
L 172 3053 
L 172 3500 
L 594 3500 
L 594 4494 
L 1172 4494 
z
" transform="scale(0.015625)"/>
      <path id="DejaVuSans-3a" d="M 750 794 
L 1409 794 
L 1409 0 
L 750 0 
L 750 794 
z
M 750 3309 
L 1409 3309 
L 1409 2516 
L 750 2516 
L 750 3309 
z
" transform="scale(0.015625)"/>
      <path id="DejaVuSans-20" transform="scale(0.015625)"/>
      <path id="DejaVuSans-50" d="M 1259 4147 
L 1259 2394 
L 2053 2394 
Q 2494 2394 2734 2622 
Q 2975 2850 2975 3272 
Q 2975 3691 2734 3919 
Q 2494 4147 2053 4147 
L 1259 4147 
z
M 628 4666 
L 2053 4666 
Q 2838 4666 3239 4311 
Q 3641 3956 3641 3272 
Q 3641 2581 3239 2228 
Q 2838 1875 2053 1875 
L 1259 1875 
L 1259 0 
L 628 0 
L 628 4666 
z
" transform="scale(0.015625)"/>
      <path id="DejaVuSans-4d" d="M 628 4666 
L 1569 4666 
L 2759 1491 
L 3956 4666 
L 4897 4666 
L 4897 0 
L 4281 0 
L 4281 4097 
L 3078 897 
L 2444 897 
L 1241 4097 
L 1241 0 
L 628 0 
L 628 4666 
z
" transform="scale(0.015625)"/>
      <path id="DejaVuSans-31" d="M 794 531 
L 1825 531 
L 1825 4091 
L 703 3866 
L 703 4441 
L 1819 4666 
L 2450 4666 
L 2450 531 
L 3481 531 
L 3481 0 
L 794 0 
L 794 531 
z
" transform="scale(0.015625)"/>
      <path id="DejaVuSans-30" d="M 2034 4250 
Q 1547 4250 1301 3770 
Q 1056 3291 1056 2328 
Q 1056 1369 1301 889 
Q 1547 409 2034 409 
Q 2525 409 2770 889 
Q 3016 1369 3016 2328 
Q 3016 3291 2770 3770 
Q 2525 4250 2034 4250 
z
M 2034 4750 
Q 2819 4750 3233 4129 
Q 3647 3509 3647 2328 
Q 3647 1150 3233 529 
Q 2819 -91 2034 -91 
Q 1250 -91 836 529 
Q 422 1150 422 2328 
Q 422 3509 836 4129 
Q 1250 4750 2034 4750 
z
" transform="scale(0.015625)"/>
     </defs>
     <use xlink:href="#DejaVuSans-54"/>
     <use xlink:href="#DejaVuSans-61" x="44.583984"/>
     <use xlink:href="#DejaVuSans-72" x="105.863281"/>
     <use xlink:href="#DejaVuSans-67" x="145.226562"/>
     <use xlink:href="#DejaVuSans-65" x="208.703125"/>
     <use xlink:href="#DejaVuSans-74" x="270.226562"/>
     <use xlink:href="#DejaVuSans-3a" x="309.435547"/>
     <use xlink:href="#DejaVuSans-20" x="343.126953"/>
     <use xlink:href="#DejaVuSans-50" x="374.914062"/>
     <use xlink:href="#DejaVuSans-4d" x="435.216797"/>
     <use xlink:href="#DejaVuSans-31" x="521.496094"/>
     <use xlink:href="#DejaVuSans-30" x="585.119141"/>
    </g>
    <!-- Method: direct -->
    <g transform="translate(414.690347 40.873844) scale(0.11 -0.11)">
     <defs>
      <path id="DejaVuSans-68" d="M 3513 2113 
L 3513 0 
L 2938 0 
L 2938 2094 
Q 2938 2591 2744 2837 
Q 2550 3084 2163 3084 
Q 1697 3084 1428 2787 
Q 1159 2491 1159 1978 
L 1159 0 
L 581 0 
L 581 4863 
L 1159 4863 
L 1159 2956 
Q 1366 3272 1645 3428 
Q 1925 3584 2291 3584 
Q 2894 3584 3203 3211 
Q 3513 2838 3513 2113 
z
" transform="scale(0.015625)"/>
      <path id="DejaVuSans-6f" d="M 1959 3097 
Q 1497 3097 1228 2736 
Q 959 2375 959 1747 
Q 959 1119 1226 758 
Q 1494 397 1959 397 
Q 2419 397 2687 759 
Q 2956 1122 2956 1747 
Q 2956 2369 2687 2733 
Q 2419 3097 1959 3097 
z
M 1959 3584 
Q 2709 3584 3137 3096 
Q 3566 2609 3566 1747 
Q 3566 888 3137 398 
Q 2709 -91 1959 -91 
Q 1206 -91 779 398 
Q 353 888 353 1747 
Q 353 2609 779 3096 
Q 1206 3584 1959 3584 
z
" transform="scale(0.015625)"/>
      <path id="DejaVuSans-64" d="M 2906 2969 
L 2906 4863 
L 3481 4863 
L 3481 0 
L 2906 0 
L 2906 525 
Q 2725 213 2448 61 
Q 2172 -91 1784 -91 
Q 1150 -91 751 415 
Q 353 922 353 1747 
Q 353 2572 751 3078 
Q 1150 3584 1784 3584 
Q 2172 3584 2448 3432 
Q 2725 3281 2906 2969 
z
M 947 1747 
Q 947 1113 1208 752 
Q 1469 391 1925 391 
Q 2381 391 2643 752 
Q 2906 1113 2906 1747 
Q 2906 2381 2643 2742 
Q 2381 3103 1925 3103 
Q 1469 3103 1208 2742 
Q 947 2381 947 1747 
z
" transform="scale(0.015625)"/>
      <path id="DejaVuSans-69" d="M 603 3500 
L 1178 3500 
L 1178 0 
L 603 0 
L 603 3500 
z
M 603 4863 
L 1178 4863 
L 1178 4134 
L 603 4134 
L 603 4863 
z
" transform="scale(0.015625)"/>
      <path id="DejaVuSans-63" d="M 3122 3366 
L 3122 2828 
Q 2878 2963 2633 3030 
Q 2388 3097 2138 3097 
Q 1578 3097 1268 2742 
Q 959 2388 959 1747 
Q 959 1106 1268 751 
Q 1578 397 2138 397 
Q 2388 397 2633 464 
Q 2878 531 3122 666 
L 3122 134 
Q 2881 22 2623 -34 
Q 2366 -91 2075 -91 
Q 1284 -91 818 406 
Q 353 903 353 1747 
Q 353 2603 823 3093 
Q 1294 3584 2113 3584 
Q 2378 3584 2631 3529 
Q 2884 3475 3122 3366 
z
" transform="scale(0.015625)"/>
     </defs>
     <use xlink:href="#DejaVuSans-4d"/>
     <use xlink:href="#DejaVuSans-65" x="86.279297"/>
     <use xlink:href="#DejaVuSans-74" x="147.802734"/>
     <use xlink:href="#DejaVuSans-68" x="187.011719"/>
     <use xlink:href="#DejaVuSans-6f" x="250.390625"/>
     <use xlink:href="#DejaVuSans-64" x="311.572266"/>
     <use xlink:href="#DejaVuSans-3a" x="375.048828"/>
     <use xlink:href="#DejaVuSans-20" x="408.740234"/>
     <use xlink:href="#DejaVuSans-64" x="440.527344"/>
     <use xlink:href="#DejaVuSans-69" x="504.003906"/>
     <use xlink:href="#DejaVuSans-72" x="531.787109"/>
     <use xlink:href="#DejaVuSans-65" x="570.650391"/>
     <use xlink:href="#DejaVuSans-63" x="632.173828"/>
     <use xlink:href="#DejaVuSans-74" x="687.154297"/>
    </g>
    <!-- Best: RF -->
    <g transform="translate(414.690347 53.191437) scale(0.11 -0.11)">
     <defs>
      <path id="DejaVuSans-42" d="M 1259 2228 
L 1259 519 
L 2272 519 
Q 2781 519 3026 730 
Q 3272 941 3272 1375 
Q 3272 1813 3026 2020 
Q 2781 2228 2272 2228 
L 1259 2228 
z
M 1259 4147 
L 1259 2741 
L 2194 2741 
Q 2656 2741 2882 2914 
Q 3109 3088 3109 3444 
Q 3109 3797 2882 3972 
Q 2656 4147 2194 4147 
L 1259 4147 
z
M 628 4666 
L 2241 4666 
Q 2963 4666 3353 4366 
Q 3744 4066 3744 3513 
Q 3744 3084 3544 2831 
Q 3344 2578 2956 2516 
Q 3422 2416 3680 2098 
Q 3938 1781 3938 1306 
Q 3938 681 3513 340 
Q 3088 0 2303 0 
L 628 0 
L 628 4666 
z
" transform="scale(0.015625)"/>
      <path id="DejaVuSans-73" d="M 2834 3397 
L 2834 2853 
Q 2591 2978 2328 3040 
Q 2066 3103 1784 3103 
Q 1356 3103 1142 2972 
Q 928 2841 928 2578 
Q 928 2378 1081 2264 
Q 1234 2150 1697 2047 
L 1894 2003 
Q 2506 1872 2764 1633 
Q 3022 1394 3022 966 
Q 3022 478 2636 193 
Q 2250 -91 1575 -91 
Q 1294 -91 989 -36 
Q 684 19 347 128 
L 347 722 
Q 666 556 975 473 
Q 1284 391 1588 391 
Q 1994 391 2212 530 
Q 2431 669 2431 922 
Q 2431 1156 2273 1281 
Q 2116 1406 1581 1522 
L 1381 1569 
Q 847 1681 609 1914 
Q 372 2147 372 2553 
Q 372 3047 722 3315 
Q 1072 3584 1716 3584 
Q 2034 3584 2315 3537 
Q 2597 3491 2834 3397 
z
" transform="scale(0.015625)"/>
      <path id="DejaVuSans-52" d="M 2841 2188 
Q 3044 2119 3236 1894 
Q 3428 1669 3622 1275 
L 4263 0 
L 3584 0 
L 2988 1197 
Q 2756 1666 2539 1819 
Q 2322 1972 1947 1972 
L 1259 1972 
L 1259 0 
L 628 0 
L 628 4666 
L 2053 4666 
Q 2853 4666 3247 4331 
Q 3641 3997 3641 3322 
Q 3641 2881 3436 2590 
Q 3231 2300 2841 2188 
z
M 1259 4147 
L 1259 2491 
L 2053 2491 
Q 2509 2491 2742 2702 
Q 2975 2913 2975 3322 
Q 2975 3731 2742 3939 
Q 2509 4147 2053 4147 
L 1259 4147 
z
" transform="scale(0.015625)"/>
      <path id="DejaVuSans-46" d="M 628 4666 
L 3309 4666 
L 3309 4134 
L 1259 4134 
L 1259 2759 
L 3109 2759 
L 3109 2228 
L 1259 2228 
L 1259 0 
L 628 0 
L 628 4666 
z
" transform="scale(0.015625)"/>
     </defs>
     <use xlink:href="#DejaVuSans-42"/>
     <use xlink:href="#DejaVuSans-65" x="68.603516"/>
     <use xlink:href="#DejaVuSans-73" x="130.126953"/>
     <use xlink:href="#DejaVuSans-74" x="182.226562"/>
     <use xlink:href="#DejaVuSans-3a" x="221.435547"/>
     <use xlink:href="#DejaVuSans-20" x="255.126953"/>
     <use xlink:href="#DejaVuSans-52" x="286.914062"/>
     <use xlink:href="#DejaVuSans-46" x="356.396484"/>
    </g>
    <!-- N(train): 2249 -->
    <g transform="translate(414.690347 65.509031) scale(0.11 -0.11)">
     <defs>
      <path id="DejaVuSans-4e" d="M 628 4666 
L 1478 4666 
L 3547 763 
L 3547 4666 
L 4159 4666 
L 4159 0 
L 3309 0 
L 1241 3903 
L 1241 0 
L 628 0 
L 628 4666 
z
" transform="scale(0.015625)"/>
      <path id="DejaVuSans-28" d="M 1984 4856 
Q 1566 4138 1362 3434 
Q 1159 2731 1159 2009 
Q 1159 1288 1364 580 
Q 1569 -128 1984 -844 
L 1484 -844 
Q 1016 -109 783 600 
Q 550 1309 550 2009 
Q 550 2706 781 3412 
Q 1013 4119 1484 4856 
L 1984 4856 
z
" transform="scale(0.015625)"/>
      <path id="DejaVuSans-6e" d="M 3513 2113 
L 3513 0 
L 2938 0 
L 2938 2094 
Q 2938 2591 2744 2837 
Q 2550 3084 2163 3084 
Q 1697 3084 1428 2787 
Q 1159 2491 1159 1978 
L 1159 0 
L 581 0 
L 581 3500 
L 1159 3500 
L 1159 2956 
Q 1366 3272 1645 3428 
Q 1925 3584 2291 3584 
Q 2894 3584 3203 3211 
Q 3513 2838 3513 2113 
z
" transform="scale(0.015625)"/>
      <path id="DejaVuSans-29" d="M 513 4856 
L 1013 4856 
Q 1481 4119 1714 3412 
Q 1947 2706 1947 2009 
Q 1947 1309 1714 600 
Q 1481 -109 1013 -844 
L 513 -844 
Q 928 -128 1133 580 
Q 1338 1288 1338 2009 
Q 1338 2731 1133 3434 
Q 928 4138 513 4856 
z
" transform="scale(0.015625)"/>
      <path id="DejaVuSans-32" d="M 1228 531 
L 3431 531 
L 3431 0 
L 469 0 
L 469 531 
Q 828 903 1448 1529 
Q 2069 2156 2228 2338 
Q 2531 2678 2651 2914 
Q 2772 3150 2772 3378 
Q 2772 3750 2511 3984 
Q 2250 4219 1831 4219 
Q 1534 4219 1204 4116 
Q 875 4013 500 3803 
L 500 4441 
Q 881 4594 1212 4672 
Q 1544 4750 1819 4750 
Q 2544 4750 2975 4387 
Q 3406 4025 3406 3419 
Q 3406 3131 3298 2873 
Q 3191 2616 2906 2266 
Q 2828 2175 2409 1742 
Q 1991 1309 1228 531 
z
" transform="scale(0.015625)"/>
      <path id="DejaVuSans-34" d="M 2419 4116 
L 825 1625 
L 2419 1625 
L 2419 4116 
z
M 2253 4666 
L 3047 4666 
L 3047 1625 
L 3713 1625 
L 3713 1100 
L 3047 1100 
L 3047 0 
L 2419 0 
L 2419 1100 
L 313 1100 
L 313 1709 
L 2253 4666 
z
" transform="scale(0.015625)"/>
      <path id="DejaVuSans-39" d="M 703 97 
L 703 672 
Q 941 559 1184 500 
Q 1428 441 1663 441 
Q 2288 441 2617 861 
Q 2947 1281 2994 2138 
Q 2813 1869 2534 1725 
Q 2256 1581 1919 1581 
Q 1219 1581 811 2004 
Q 403 2428 403 3163 
Q 403 3881 828 4315 
Q 1253 4750 1959 4750 
Q 2769 4750 3195 4129 
Q 3622 3509 3622 2328 
Q 3622 1225 3098 567 
Q 2575 -91 1691 -91 
Q 1453 -91 1209 -44 
Q 966 3 703 97 
z
M 1959 2075 
Q 2384 2075 2632 2365 
Q 2881 2656 2881 3163 
Q 2881 3666 2632 3958 
Q 2384 4250 1959 4250 
Q 1534 4250 1286 3958 
Q 1038 3666 1038 3163 
Q 1038 2656 1286 2365 
Q 1534 2075 1959 2075 
z
" transform="scale(0.015625)"/>
     </defs>
     <use xlink:href="#DejaVuSans-4e"/>
     <use xlink:href="#DejaVuSans-28" x="74.804688"/>
     <use xlink:href="#DejaVuSans-74" x="113.818359"/>
     <use xlink:href="#DejaVuSans-72" x="153.027344"/>
     <use xlink:href="#DejaVuSans-61" x="194.140625"/>
     <use xlink:href="#DejaVuSans-69" x="255.419922"/>
     <use xlink:href="#DejaVuSans-6e" x="283.203125"/>
     <use xlink:href="#DejaVuSans-29" x="346.582031"/>
     <use xlink:href="#DejaVuSans-3a" x="385.595703"/>
     <use xlink:href="#DejaVuSans-20" x="419.287109"/>
     <use xlink:href="#DejaVuSans-32" x="451.074219"/>
     <use xlink:href="#DejaVuSans-32" x="514.697266"/>
     <use xlink:href="#DejaVuSans-34" x="578.320312"/>
     <use xlink:href="#DejaVuSans-39" x="641.943359"/>
    </g>
    <!-- N(test):  563 -->
    <g transform="translate(414.690347 77.826625) scale(0.11 -0.11)">
     <defs>
      <path id="DejaVuSans-35" d="M 691 4666 
L 3169 4666 
L 3169 4134 
L 1269 4134 
L 1269 2991 
Q 1406 3038 1543 3061 
Q 1681 3084 1819 3084 
Q 2600 3084 3056 2656 
Q 3513 2228 3513 1497 
Q 3513 744 3044 326 
Q 2575 -91 1722 -91 
Q 1428 -91 1123 -41 
Q 819 9 494 109 
L 494 744 
Q 775 591 1075 516 
Q 1375 441 1709 441 
Q 2250 441 2565 725 
Q 2881 1009 2881 1497 
Q 2881 1984 2565 2268 
Q 2250 2553 1709 2553 
Q 1456 2553 1204 2497 
Q 953 2441 691 2322 
L 691 4666 
z
" transform="scale(0.015625)"/>
      <path id="DejaVuSans-36" d="M 2113 2584 
Q 1688 2584 1439 2293 
Q 1191 2003 1191 1497 
Q 1191 994 1439 701 
Q 1688 409 2113 409 
Q 2538 409 2786 701 
Q 3034 994 3034 1497 
Q 3034 2003 2786 2293 
Q 2538 2584 2113 2584 
z
M 3366 4563 
L 3366 3988 
Q 3128 4100 2886 4159 
Q 2644 4219 2406 4219 
Q 1781 4219 1451 3797 
Q 1122 3375 1075 2522 
Q 1259 2794 1537 2939 
Q 1816 3084 2150 3084 
Q 2853 3084 3261 2657 
Q 3669 2231 3669 1497 
Q 3669 778 3244 343 
Q 2819 -91 2113 -91 
Q 1303 -91 875 529 
Q 447 1150 447 2328 
Q 447 3434 972 4092 
Q 1497 4750 2381 4750 
Q 2619 4750 2861 4703 
Q 3103 4656 3366 4563 
z
" transform="scale(0.015625)"/>
      <path id="DejaVuSans-33" d="M 2597 2516 
Q 3050 2419 3304 2112 
Q 3559 1806 3559 1356 
Q 3559 666 3084 287 
Q 2609 -91 1734 -91 
Q 1441 -91 1130 -33 
Q 819 25 488 141 
L 488 750 
Q 750 597 1062 519 
Q 1375 441 1716 441 
Q 2309 441 2620 675 
Q 2931 909 2931 1356 
Q 2931 1769 2642 2001 
Q 2353 2234 1838 2234 
L 1294 2234 
L 1294 2753 
L 1863 2753 
Q 2328 2753 2575 2939 
Q 2822 3125 2822 3475 
Q 2822 3834 2567 4026 
Q 2313 4219 1838 4219 
Q 1578 4219 1281 4162 
Q 984 4106 628 3988 
L 628 4550 
Q 988 4650 1302 4700 
Q 1616 4750 1894 4750 
Q 2613 4750 3031 4423 
Q 3450 4097 3450 3541 
Q 3450 3153 3228 2886 
Q 3006 2619 2597 2516 
z
" transform="scale(0.015625)"/>
     </defs>
     <use xlink:href="#DejaVuSans-4e"/>
     <use xlink:href="#DejaVuSans-28" x="74.804688"/>
     <use xlink:href="#DejaVuSans-74" x="113.818359"/>
     <use xlink:href="#DejaVuSans-65" x="153.027344"/>
     <use xlink:href="#DejaVuSans-73" x="214.550781"/>
     <use xlink:href="#DejaVuSans-74" x="266.650391"/>
     <use xlink:href="#DejaVuSans-29" x="305.859375"/>
     <use xlink:href="#DejaVuSans-3a" x="344.873047"/>
     <use xlink:href="#DejaVuSans-20" x="378.564453"/>
     <use xlink:href="#DejaVuSans-20" x="410.351562"/>
     <use xlink:href="#DejaVuSans-35" x="442.138672"/>
     <use xlink:href="#DejaVuSans-36" x="505.761719"/>
     <use xlink:href="#DejaVuSans-33" x="569.384766"/>
    </g>
    <!-- Fallback used: False -->
    <g transform="translate(414.690347 90.144219) scale(0.11 -0.11)">
     <defs>
      <path id="DejaVuSans-6c" d="M 603 4863 
L 1178 4863 
L 1178 0 
L 603 0 
L 603 4863 
z
" transform="scale(0.015625)"/>
      <path id="DejaVuSans-62" d="M 3116 1747 
Q 3116 2381 2855 2742 
Q 2594 3103 2138 3103 
Q 1681 3103 1420 2742 
Q 1159 2381 1159 1747 
Q 1159 1113 1420 752 
Q 1681 391 2138 391 
Q 2594 391 2855 752 
Q 3116 1113 3116 1747 
z
M 1159 2969 
Q 1341 3281 1617 3432 
Q 1894 3584 2278 3584 
Q 2916 3584 3314 3078 
Q 3713 2572 3713 1747 
Q 3713 922 3314 415 
Q 2916 -91 2278 -91 
Q 1894 -91 1617 61 
Q 1341 213 1159 525 
L 1159 0 
L 581 0 
L 581 4863 
L 1159 4863 
L 1159 2969 
z
" transform="scale(0.015625)"/>
      <path id="DejaVuSans-6b" d="M 581 4863 
L 1159 4863 
L 1159 1991 
L 2875 3500 
L 3609 3500 
L 1753 1863 
L 3688 0 
L 2938 0 
L 1159 1709 
L 1159 0 
L 581 0 
L 581 4863 
z
" transform="scale(0.015625)"/>
      <path id="DejaVuSans-75" d="M 544 1381 
L 544 3500 
L 1119 3500 
L 1119 1403 
Q 1119 906 1312 657 
Q 1506 409 1894 409 
Q 2359 409 2629 706 
Q 2900 1003 2900 1516 
L 2900 3500 
L 3475 3500 
L 3475 0 
L 2900 0 
L 2900 538 
Q 2691 219 2414 64 
Q 2138 -91 1772 -91 
Q 1169 -91 856 284 
Q 544 659 544 1381 
z
M 1991 3584 
L 1991 3584 
z
" transform="scale(0.015625)"/>
     </defs>
     <use xlink:href="#DejaVuSans-46"/>
     <use xlink:href="#DejaVuSans-61" x="48.394531"/>
     <use xlink:href="#DejaVuSans-6c" x="109.673828"/>
     <use xlink:href="#DejaVuSans-6c" x="137.457031"/>
     <use xlink:href="#DejaVuSans-62" x="165.240234"/>
     <use xlink:href="#DejaVuSans-61" x="228.716797"/>
     <use xlink:href="#DejaVuSans-63" x="289.996094"/>
     <use xlink:href="#DejaVuSans-6b" x="344.976562"/>
     <use xlink:href="#DejaVuSans-20" x="402.886719"/>
     <use xlink:href="#DejaVuSans-75" x="434.673828"/>
     <use xlink:href="#DejaVuSans-73" x="498.052734"/>
     <use xlink:href="#DejaVuSans-65" x="550.152344"/>
     <use xlink:href="#DejaVuSans-64" x="611.675781"/>
     <use xlink:href="#DejaVuSans-3a" x="675.152344"/>
     <use xlink:href="#DejaVuSans-20" x="708.84375"/>
     <use xlink:href="#DejaVuSans-46" x="740.630859"/>
     <use xlink:href="#DejaVuSans-61" x="789.025391"/>
     <use xlink:href="#DejaVuSans-6c" x="850.304688"/>
     <use xlink:href="#DejaVuSans-73" x="878.087891"/>
     <use xlink:href="#DejaVuSans-65" x="930.1875"/>
    </g>
    <!--  -->
    <g transform="translate(414.690347 102.461812) scale(0.11 -0.11)"/>
    <!-- Before (micro raw): -->
    <g transform="translate(414.690347 114.779406) scale(0.11 -0.11)">
     <defs>
      <path id="DejaVuSans-66" d="M 2375 4863 
L 2375 4384 
L 1825 4384 
Q 1516 4384 1395 4259 
Q 1275 4134 1275 3809 
L 1275 3500 
L 2222 3500 
L 2222 3053 
L 1275 3053 
L 1275 0 
L 697 0 
L 697 3053 
L 147 3053 
L 147 3500 
L 697 3500 
L 697 3744 
Q 697 4328 969 4595 
Q 1241 4863 1831 4863 
L 2375 4863 
z
" transform="scale(0.015625)"/>
      <path id="DejaVuSans-6d" d="M 3328 2828 
Q 3544 3216 3844 3400 
Q 4144 3584 4550 3584 
Q 5097 3584 5394 3201 
Q 5691 2819 5691 2113 
L 5691 0 
L 5113 0 
L 5113 2094 
Q 5113 2597 4934 2840 
Q 4756 3084 4391 3084 
Q 3944 3084 3684 2787 
Q 3425 2491 3425 1978 
L 3425 0 
L 2847 0 
L 2847 2094 
Q 2847 2600 2669 2842 
Q 2491 3084 2119 3084 
Q 1678 3084 1418 2786 
Q 1159 2488 1159 1978 
L 1159 0 
L 581 0 
L 581 3500 
L 1159 3500 
L 1159 2956 
Q 1356 3278 1631 3431 
Q 1906 3584 2284 3584 
Q 2666 3584 2933 3390 
Q 3200 3197 3328 2828 
z
" transform="scale(0.015625)"/>
      <path id="DejaVuSans-77" d="M 269 3500 
L 844 3500 
L 1563 769 
L 2278 3500 
L 2956 3500 
L 3675 769 
L 4391 3500 
L 4966 3500 
L 4050 0 
L 3372 0 
L 2619 2869 
L 1863 0 
L 1184 0 
L 269 3500 
z
" transform="scale(0.015625)"/>
     </defs>
     <use xlink:href="#DejaVuSans-42"/>
     <use xlink:href="#DejaVuSans-65" x="68.603516"/>
     <use xlink:href="#DejaVuSans-66" x="130.126953"/>
     <use xlink:href="#DejaVuSans-6f" x="165.332031"/>
     <use xlink:href="#DejaVuSans-72" x="226.513672"/>
     <use xlink:href="#DejaVuSans-65" x="265.376953"/>
     <use xlink:href="#DejaVuSans-20" x="326.900391"/>
     <use xlink:href="#DejaVuSans-28" x="358.6875"/>
     <use xlink:href="#DejaVuSans-6d" x="397.701172"/>
     <use xlink:href="#DejaVuSans-69" x="495.113281"/>
     <use xlink:href="#DejaVuSans-63" x="522.896484"/>
     <use xlink:href="#DejaVuSans-72" x="577.876953"/>
     <use xlink:href="#DejaVuSans-6f" x="616.740234"/>
     <use xlink:href="#DejaVuSans-20" x="677.921875"/>
     <use xlink:href="#DejaVuSans-72" x="709.708984"/>
     <use xlink:href="#DejaVuSans-61" x="750.822266"/>
     <use xlink:href="#DejaVuSans-77" x="812.101562"/>
     <use xlink:href="#DejaVuSans-29" x="893.888672"/>
     <use xlink:href="#DejaVuSans-3a" x="932.902344"/>
    </g>
    <!--   RMSE=37.29, MAE=28.99 -->
    <g transform="translate(414.690347 127.097) scale(0.11 -0.11)">
     <defs>
      <path id="DejaVuSans-53" d="M 3425 4513 
L 3425 3897 
Q 3066 4069 2747 4153 
Q 2428 4238 2131 4238 
Q 1616 4238 1336 4038 
Q 1056 3838 1056 3469 
Q 1056 3159 1242 3001 
Q 1428 2844 1947 2747 
L 2328 2669 
Q 3034 2534 3370 2195 
Q 3706 1856 3706 1288 
Q 3706 609 3251 259 
Q 2797 -91 1919 -91 
Q 1588 -91 1214 -16 
Q 841 59 441 206 
L 441 856 
Q 825 641 1194 531 
Q 1563 422 1919 422 
Q 2459 422 2753 634 
Q 3047 847 3047 1241 
Q 3047 1584 2836 1778 
Q 2625 1972 2144 2069 
L 1759 2144 
Q 1053 2284 737 2584 
Q 422 2884 422 3419 
Q 422 4038 858 4394 
Q 1294 4750 2059 4750 
Q 2388 4750 2728 4690 
Q 3069 4631 3425 4513 
z
" transform="scale(0.015625)"/>
      <path id="DejaVuSans-45" d="M 628 4666 
L 3578 4666 
L 3578 4134 
L 1259 4134 
L 1259 2753 
L 3481 2753 
L 3481 2222 
L 1259 2222 
L 1259 531 
L 3634 531 
L 3634 0 
L 628 0 
L 628 4666 
z
" transform="scale(0.015625)"/>
      <path id="DejaVuSans-3d" d="M 678 2906 
L 4684 2906 
L 4684 2381 
L 678 2381 
L 678 2906 
z
M 678 1631 
L 4684 1631 
L 4684 1100 
L 678 1100 
L 678 1631 
z
" transform="scale(0.015625)"/>
      <path id="DejaVuSans-37" d="M 525 4666 
L 3525 4666 
L 3525 4397 
L 1831 0 
L 1172 0 
L 2766 4134 
L 525 4134 
L 525 4666 
z
" transform="scale(0.015625)"/>
      <path id="DejaVuSans-2e" d="M 684 794 
L 1344 794 
L 1344 0 
L 684 0 
L 684 794 
z
" transform="scale(0.015625)"/>
      <path id="DejaVuSans-2c" d="M 750 794 
L 1409 794 
L 1409 256 
L 897 -744 
L 494 -744 
L 750 256 
L 750 794 
z
" transform="scale(0.015625)"/>
      <path id="DejaVuSans-41" d="M 2188 4044 
L 1331 1722 
L 3047 1722 
L 2188 4044 
z
M 1831 4666 
L 2547 4666 
L 4325 0 
L 3669 0 
L 3244 1197 
L 1141 1197 
L 716 0 
L 50 0 
L 1831 4666 
z
" transform="scale(0.015625)"/>
      <path id="DejaVuSans-38" d="M 2034 2216 
Q 1584 2216 1326 1975 
Q 1069 1734 1069 1313 
Q 1069 891 1326 650 
Q 1584 409 2034 409 
Q 2484 409 2743 651 
Q 3003 894 3003 1313 
Q 3003 1734 2745 1975 
Q 2488 2216 2034 2216 
z
M 1403 2484 
Q 997 2584 770 2862 
Q 544 3141 544 3541 
Q 544 4100 942 4425 
Q 1341 4750 2034 4750 
Q 2731 4750 3128 4425 
Q 3525 4100 3525 3541 
Q 3525 3141 3298 2862 
Q 3072 2584 2669 2484 
Q 3125 2378 3379 2068 
Q 3634 1759 3634 1313 
Q 3634 634 3220 271 
Q 2806 -91 2034 -91 
Q 1263 -91 848 271 
Q 434 634 434 1313 
Q 434 1759 690 2068 
Q 947 2378 1403 2484 
z
M 1172 3481 
Q 1172 3119 1398 2916 
Q 1625 2713 2034 2713 
Q 2441 2713 2670 2916 
Q 2900 3119 2900 3481 
Q 2900 3844 2670 4047 
Q 2441 4250 2034 4250 
Q 1625 4250 1398 4047 
Q 1172 3844 1172 3481 
z
" transform="scale(0.015625)"/>
     </defs>
     <use xlink:href="#DejaVuSans-20"/>
     <use xlink:href="#DejaVuSans-20" x="31.787109"/>
     <use xlink:href="#DejaVuSans-52" x="63.574219"/>
     <use xlink:href="#DejaVuSans-4d" x="133.056641"/>
     <use xlink:href="#DejaVuSans-53" x="219.335938"/>
     <use xlink:href="#DejaVuSans-45" x="282.8125"/>
     <use xlink:href="#DejaVuSans-3d" x="345.996094"/>
     <use xlink:href="#DejaVuSans-33" x="429.785156"/>
     <use xlink:href="#DejaVuSans-37" x="493.408203"/>
     <use xlink:href="#DejaVuSans-2e" x="557.03125"/>
     <use xlink:href="#DejaVuSans-32" x="588.818359"/>
     <use xlink:href="#DejaVuSans-39" x="652.441406"/>
     <use xlink:href="#DejaVuSans-2c" x="716.064453"/>
     <use xlink:href="#DejaVuSans-20" x="747.851562"/>
     <use xlink:href="#DejaVuSans-4d" x="779.638672"/>
     <use xlink:href="#DejaVuSans-41" x="865.917969"/>
     <use xlink:href="#DejaVuSans-45" x="934.326172"/>
     <use xlink:href="#DejaVuSans-3d" x="997.509766"/>
     <use xlink:href="#DejaVuSans-32" x="1081.298828"/>
     <use xlink:href="#DejaVuSans-38" x="1144.921875"/>
     <use xlink:href="#DejaVuSans-2e" x="1208.544922"/>
     <use xlink:href="#DejaVuSans-39" x="1240.332031"/>
     <use xlink:href="#DejaVuSans-39" x="1303.955078"/>
    </g>
    <!--   R2=-0.034, CCC=0.625 -->
    <g transform="translate(414.690347 139.414594) scale(0.11 -0.11)">
     <defs>
      <path id="DejaVuSans-2d" d="M 313 2009 
L 1997 2009 
L 1997 1497 
L 313 1497 
L 313 2009 
z
" transform="scale(0.015625)"/>
      <path id="DejaVuSans-43" d="M 4122 4306 
L 4122 3641 
Q 3803 3938 3442 4084 
Q 3081 4231 2675 4231 
Q 1875 4231 1450 3742 
Q 1025 3253 1025 2328 
Q 1025 1406 1450 917 
Q 1875 428 2675 428 
Q 3081 428 3442 575 
Q 3803 722 4122 1019 
L 4122 359 
Q 3791 134 3420 21 
Q 3050 -91 2638 -91 
Q 1578 -91 968 557 
Q 359 1206 359 2328 
Q 359 3453 968 4101 
Q 1578 4750 2638 4750 
Q 3056 4750 3426 4639 
Q 3797 4528 4122 4306 
z
" transform="scale(0.015625)"/>
     </defs>
     <use xlink:href="#DejaVuSans-20"/>
     <use xlink:href="#DejaVuSans-20" x="31.787109"/>
     <use xlink:href="#DejaVuSans-52" x="63.574219"/>
     <use xlink:href="#DejaVuSans-32" x="133.056641"/>
     <use xlink:href="#DejaVuSans-3d" x="196.679688"/>
     <use xlink:href="#DejaVuSans-2d" x="280.46875"/>
     <use xlink:href="#DejaVuSans-30" x="316.552734"/>
     <use xlink:href="#DejaVuSans-2e" x="380.175781"/>
     <use xlink:href="#DejaVuSans-30" x="411.962891"/>
     <use xlink:href="#DejaVuSans-33" x="475.585938"/>
     <use xlink:href="#DejaVuSans-34" x="539.208984"/>
     <use xlink:href="#DejaVuSans-2c" x="602.832031"/>
     <use xlink:href="#DejaVuSans-20" x="634.619141"/>
     <use xlink:href="#DejaVuSans-43" x="666.40625"/>
     <use xlink:href="#DejaVuSans-43" x="736.230469"/>
     <use xlink:href="#DejaVuSans-43" x="806.054688"/>
     <use xlink:href="#DejaVuSans-3d" x="875.878906"/>
     <use xlink:href="#DejaVuSans-30" x="959.667969"/>
     <use xlink:href="#DejaVuSans-2e" x="1023.291016"/>
     <use xlink:href="#DejaVuSans-36" x="1055.078125"/>
     <use xlink:href="#DejaVuSans-32" x="1118.701172"/>
     <use xlink:href="#DejaVuSans-35" x="1182.324219"/>
    </g>
    <!--  -->
    <g transform="translate(414.690347 151.732187) scale(0.11 -0.11)"/>
    <!-- After (delivered): -->
    <g transform="translate(414.690347 164.049781) scale(0.11 -0.11)">
     <defs>
      <path id="DejaVuSans-76" d="M 191 3500 
L 800 3500 
L 1894 563 
L 2988 3500 
L 3597 3500 
L 2284 0 
L 1503 0 
L 191 3500 
z
" transform="scale(0.015625)"/>
     </defs>
     <use xlink:href="#DejaVuSans-41"/>
     <use xlink:href="#DejaVuSans-66" x="64.783203"/>
     <use xlink:href="#DejaVuSans-74" x="98.238281"/>
     <use xlink:href="#DejaVuSans-65" x="137.447266"/>
     <use xlink:href="#DejaVuSans-72" x="198.970703"/>
     <use xlink:href="#DejaVuSans-20" x="240.083984"/>
     <use xlink:href="#DejaVuSans-28" x="271.871094"/>
     <use xlink:href="#DejaVuSans-64" x="310.884766"/>
     <use xlink:href="#DejaVuSans-65" x="374.361328"/>
     <use xlink:href="#DejaVuSans-6c" x="435.884766"/>
     <use xlink:href="#DejaVuSans-69" x="463.667969"/>
     <use xlink:href="#DejaVuSans-76" x="491.451172"/>
     <use xlink:href="#DejaVuSans-65" x="550.630859"/>
     <use xlink:href="#DejaVuSans-72" x="612.154297"/>
     <use xlink:href="#DejaVuSans-65" x="651.017578"/>
     <use xlink:href="#DejaVuSans-64" x="712.541016"/>
     <use xlink:href="#DejaVuSans-29" x="776.017578"/>
     <use xlink:href="#DejaVuSans-3a" x="815.03125"/>
    </g>
    <!--   RMSE=27.08, MAE=19.26 -->
    <g transform="translate(414.690347 176.367375) scale(0.11 -0.11)">
     <use xlink:href="#DejaVuSans-20"/>
     <use xlink:href="#DejaVuSans-20" x="31.787109"/>
     <use xlink:href="#DejaVuSans-52" x="63.574219"/>
     <use xlink:href="#DejaVuSans-4d" x="133.056641"/>
     <use xlink:href="#DejaVuSans-53" x="219.335938"/>
     <use xlink:href="#DejaVuSans-45" x="282.8125"/>
     <use xlink:href="#DejaVuSans-3d" x="345.996094"/>
     <use xlink:href="#DejaVuSans-32" x="429.785156"/>
     <use xlink:href="#DejaVuSans-37" x="493.408203"/>
     <use xlink:href="#DejaVuSans-2e" x="557.03125"/>
     <use xlink:href="#DejaVuSans-30" x="588.818359"/>
     <use xlink:href="#DejaVuSans-38" x="652.441406"/>
     <use xlink:href="#DejaVuSans-2c" x="716.064453"/>
     <use xlink:href="#DejaVuSans-20" x="747.851562"/>
     <use xlink:href="#DejaVuSans-4d" x="779.638672"/>
     <use xlink:href="#DejaVuSans-41" x="865.917969"/>
     <use xlink:href="#DejaVuSans-45" x="934.326172"/>
     <use xlink:href="#DejaVuSans-3d" x="997.509766"/>
     <use xlink:href="#DejaVuSans-31" x="1081.298828"/>
     <use xlink:href="#DejaVuSans-39" x="1144.921875"/>
     <use xlink:href="#DejaVuSans-2e" x="1208.544922"/>
     <use xlink:href="#DejaVuSans-32" x="1240.332031"/>
     <use xlink:href="#DejaVuSans-36" x="1303.955078"/>
    </g>
    <!--   R2=0.455, CCC=0.638 -->
    <g transform="translate(414.690347 188.684969) scale(0.11 -0.11)">
     <use xlink:href="#DejaVuSans-20"/>
     <use xlink:href="#DejaVuSans-20" x="31.787109"/>
     <use xlink:href="#DejaVuSans-52" x="63.574219"/>
     <use xlink:href="#DejaVuSans-32" x="133.056641"/>
     <use xlink:href="#DejaVuSans-3d" x="196.679688"/>
     <use xlink:href="#DejaVuSans-30" x="280.46875"/>
     <use xlink:href="#DejaVuSans-2e" x="344.091797"/>
     <use xlink:href="#DejaVuSans-34" x="375.878906"/>
     <use xlink:href="#DejaVuSans-35" x="439.501953"/>
     <use xlink:href="#DejaVuSans-35" x="503.125"/>
     <use xlink:href="#DejaVuSans-2c" x="566.748047"/>
     <use xlink:href="#DejaVuSans-20" x="598.535156"/>
     <use xlink:href="#DejaVuSans-43" x="630.322266"/>
     <use xlink:href="#DejaVuSans-43" x="700.146484"/>
     <use xlink:href="#DejaVuSans-43" x="769.970703"/>
     <use xlink:href="#DejaVuSans-3d" x="839.794922"/>
     <use xlink:href="#DejaVuSans-30" x="923.583984"/>
     <use xlink:href="#DejaVuSans-2e" x="987.207031"/>
     <use xlink:href="#DejaVuSans-36" x="1018.994141"/>
     <use xlink:href="#DejaVuSans-33" x="1082.617188"/>
     <use xlink:href="#DejaVuSans-38" x="1146.240234"/>
    </g>
    <!-- tol=±5 min -->
    <g transform="translate(414.690347 201.002562) scale(0.11 -0.11)">
     <defs>
      <path id="DejaVuSans-b1" d="M 2944 4013 
L 2944 2803 
L 4684 2803 
L 4684 2272 
L 2944 2272 
L 2944 1063 
L 2419 1063 
L 2419 2272 
L 678 2272 
L 678 2803 
L 2419 2803 
L 2419 4013 
L 2944 4013 
z
M 678 531 
L 4684 531 
L 4684 0 
L 678 0 
L 678 531 
z
" transform="scale(0.015625)"/>
     </defs>
     <use xlink:href="#DejaVuSans-74"/>
     <use xlink:href="#DejaVuSans-6f" x="39.208984"/>
     <use xlink:href="#DejaVuSans-6c" x="100.390625"/>
     <use xlink:href="#DejaVuSans-3d" x="128.173828"/>
     <use xlink:href="#DejaVuSans-b1" x="211.962891"/>
     <use xlink:href="#DejaVuSans-35" x="295.751953"/>
     <use xlink:href="#DejaVuSans-20" x="359.375"/>
     <use xlink:href="#DejaVuSans-6d" x="391.162109"/>
     <use xlink:href="#DejaVuSans-69" x="488.574219"/>
     <use xlink:href="#DejaVuSans-6e" x="516.357422"/>
    </g>
   </g>
   <g id="text_2">
    <!-- [PM10] Partial dependence (key factors) -->
    <g transform="translate(96.340562 14.197969) scale(0.13 -0.13)">
     <defs>
      <path id="DejaVuSans-5b" d="M 550 4863 
L 1875 4863 
L 1875 4416 
L 1125 4416 
L 1125 -397 
L 1875 -397 
L 1875 -844 
L 550 -844 
L 550 4863 
z
" transform="scale(0.015625)"/>
      <path id="DejaVuSans-5d" d="M 1947 4863 
L 1947 -844 
L 622 -844 
L 622 -397 
L 1369 -397 
L 1369 4416 
L 622 4416 
L 622 4863 
L 1947 4863 
z
" transform="scale(0.015625)"/>
      <path id="DejaVuSans-70" d="M 1159 525 
L 1159 -1331 
L 581 -1331 
L 581 3500 
L 1159 3500 
L 1159 2969 
Q 1341 3281 1617 3432 
Q 1894 3584 2278 3584 
Q 2916 3584 3314 3078 
Q 3713 2572 3713 1747 
Q 3713 922 3314 415 
Q 2916 -91 2278 -91 
Q 1894 -91 1617 61 
Q 1341 213 1159 525 
z
M 3116 1747 
Q 3116 2381 2855 2742 
Q 2594 3103 2138 3103 
Q 1681 3103 1420 2742 
Q 1159 2381 1159 1747 
Q 1159 1113 1420 752 
Q 1681 391 2138 391 
Q 2594 391 2855 752 
Q 3116 1113 3116 1747 
z
" transform="scale(0.015625)"/>
      <path id="DejaVuSans-79" d="M 2059 -325 
Q 1816 -950 1584 -1140 
Q 1353 -1331 966 -1331 
L 506 -1331 
L 506 -850 
L 844 -850 
Q 1081 -850 1212 -737 
Q 1344 -625 1503 -206 
L 1606 56 
L 191 3500 
L 800 3500 
L 1894 763 
L 2988 3500 
L 3597 3500 
L 2059 -325 
z
" transform="scale(0.015625)"/>
     </defs>
     <use xlink:href="#DejaVuSans-5b"/>
     <use xlink:href="#DejaVuSans-50" x="39.013672"/>
     <use xlink:href="#DejaVuSans-4d" x="99.316406"/>
     <use xlink:href="#DejaVuSans-31" x="185.595703"/>
     <use xlink:href="#DejaVuSans-30" x="249.21875"/>
     <use xlink:href="#DejaVuSans-5d" x="312.841797"/>
     <use xlink:href="#DejaVuSans-20" x="351.855469"/>
     <use xlink:href="#DejaVuSans-50" x="383.642578"/>
     <use xlink:href="#DejaVuSans-61" x="439.445312"/>
     <use xlink:href="#DejaVuSans-72" x="500.724609"/>
     <use xlink:href="#DejaVuSans-74" x="541.837891"/>
     <use xlink:href="#DejaVuSans-69" x="581.046875"/>
     <use xlink:href="#DejaVuSans-61" x="608.830078"/>
     <use xlink:href="#DejaVuSans-6c" x="670.109375"/>
     <use xlink:href="#DejaVuSans-20" x="697.892578"/>
     <use xlink:href="#DejaVuSans-64" x="729.679688"/>
     <use xlink:href="#DejaVuSans-65" x="793.15625"/>
     <use xlink:href="#DejaVuSans-70" x="854.679688"/>
     <use xlink:href="#DejaVuSans-65" x="918.15625"/>
     <use xlink:href="#DejaVuSans-6e" x="979.679688"/>
     <use xlink:href="#DejaVuSans-64" x="1043.058594"/>
     <use xlink:href="#DejaVuSans-65" x="1106.535156"/>
     <use xlink:href="#DejaVuSans-6e" x="1168.058594"/>
     <use xlink:href="#DejaVuSans-63" x="1231.4375"/>
     <use xlink:href="#DejaVuSans-65" x="1286.417969"/>
     <use xlink:href="#DejaVuSans-20" x="1347.941406"/>
     <use xlink:href="#DejaVuSans-28" x="1379.728516"/>
     <use xlink:href="#DejaVuSans-6b" x="1418.742188"/>
     <use xlink:href="#DejaVuSans-65" x="1473.027344"/>
     <use xlink:href="#DejaVuSans-79" x="1534.550781"/>
     <use xlink:href="#DejaVuSans-20" x="1593.730469"/>
     <use xlink:href="#DejaVuSans-66" x="1625.517578"/>
     <use xlink:href="#DejaVuSans-61" x="1660.722656"/>
     <use xlink:href="#DejaVuSans-63" x="1722.001953"/>
     <use xlink:href="#DejaVuSans-74" x="1776.982422"/>
     <use xlink:href="#DejaVuSans-6f" x="1816.191406"/>
     <use xlink:href="#DejaVuSans-72" x="1877.373047"/>
     <use xlink:href="#DejaVuSans-73" x="1918.486328"/>
     <use xlink:href="#DejaVuSans-29" x="1970.585938"/>
    </g>
   </g>
  </g>
  <g id="axes_2">
   <g id="patch_3">
    <path d="M 46.462187 253.045969 
L 152.641011 253.045969 
L 152.641011 20.197969 
L 46.462187 20.197969 
z
" style="fill: #ffffff"/>
   </g>
   <g id="matplotlib.axis_1">
    <g id="xtick_1">
     <g id="line2d_1">
      <path d="M 87.852544 253.045969 
L 87.852544 20.197969 
" clip-path="url(#p1267c0d76e)" style="fill: none; stroke-dasharray: 2.59,1.12; stroke-dashoffset: 0; stroke: #b0b0b0; stroke-opacity: 0.18; stroke-width: 0.7"/>
     </g>
     <g id="line2d_2">
      <defs>
       <path id="m7b04268b16" d="M 0 0 
L 0 3 
" style="stroke: #000000; stroke-width: 0.8"/>
      </defs>
      <g>
       <use xlink:href="#m7b04268b16" x="87.852544" y="253.045969" style="stroke: #000000; stroke-width: 0.8"/>
      </g>
     </g>
     <g id="text_3">
      <!-- 100 -->
      <g transform="translate(77.354419 267.90425) scale(0.11 -0.11)">
       <use xlink:href="#DejaVuSans-31"/>
       <use xlink:href="#DejaVuSans-30" x="63.623047"/>
       <use xlink:href="#DejaVuSans-30" x="127.246094"/>
      </g>
     </g>
    </g>
    <g id="xtick_2">
     <g id="line2d_3">
      <path d="M 151.35384 253.045969 
L 151.35384 20.197969 
" clip-path="url(#p1267c0d76e)" style="fill: none; stroke-dasharray: 2.59,1.12; stroke-dashoffset: 0; stroke: #b0b0b0; stroke-opacity: 0.18; stroke-width: 0.7"/>
     </g>
     <g id="line2d_4">
      <g>
       <use xlink:href="#m7b04268b16" x="151.35384" y="253.045969" style="stroke: #000000; stroke-width: 0.8"/>
      </g>
     </g>
     <g id="text_4">
      <!-- 200 -->
      <g transform="translate(140.855715 267.90425) scale(0.11 -0.11)">
       <use xlink:href="#DejaVuSans-32"/>
       <use xlink:href="#DejaVuSans-30" x="63.623047"/>
       <use xlink:href="#DejaVuSans-30" x="127.246094"/>
      </g>
     </g>
    </g>
    <g id="text_5">
     <!-- mc_PM10_mean -->
     <g transform="translate(55.011912 282.355969) scale(0.11 -0.11)">
      <defs>
       <path id="DejaVuSans-5f" d="M 3263 -1063 
L 3263 -1509 
L -63 -1509 
L -63 -1063 
L 3263 -1063 
z
" transform="scale(0.015625)"/>
      </defs>
      <use xlink:href="#DejaVuSans-6d"/>
      <use xlink:href="#DejaVuSans-63" x="97.412109"/>
      <use xlink:href="#DejaVuSans-5f" x="152.392578"/>
      <use xlink:href="#DejaVuSans-50" x="202.392578"/>
      <use xlink:href="#DejaVuSans-4d" x="262.695312"/>
      <use xlink:href="#DejaVuSans-31" x="348.974609"/>
      <use xlink:href="#DejaVuSans-30" x="412.597656"/>
      <use xlink:href="#DejaVuSans-5f" x="476.220703"/>
      <use xlink:href="#DejaVuSans-6d" x="526.220703"/>
      <use xlink:href="#DejaVuSans-65" x="623.632812"/>
      <use xlink:href="#DejaVuSans-61" x="685.15625"/>
      <use xlink:href="#DejaVuSans-6e" x="746.435547"/>
     </g>
    </g>
   </g>
   <g id="matplotlib.axis_2">
    <g id="ytick_1">
     <g id="line2d_5">
      <path d="M 46.462187 233.371768 
L 152.641011 233.371768 
" clip-path="url(#p1267c0d76e)" style="fill: none; stroke-dasharray: 2.59,1.12; stroke-dashoffset: 0; stroke: #b0b0b0; stroke-opacity: 0.18; stroke-width: 0.7"/>
     </g>
     <g id="line2d_6">
      <defs>
       <path id="mec6c07e5f0" d="M 0 0 
L -3 0 
" style="stroke: #000000; stroke-width: 0.8"/>
      </defs>
      <g>
       <use xlink:href="#mec6c07e5f0" x="46.462187" y="233.371768" style="stroke: #000000; stroke-width: 0.8"/>
      </g>
     </g>
     <g id="text_6">
      <!-- 65 -->
      <g transform="translate(25.964687 237.550908) scale(0.11 -0.11)">
       <use xlink:href="#DejaVuSans-36"/>
       <use xlink:href="#DejaVuSans-35" x="63.623047"/>
      </g>
     </g>
    </g>
    <g id="ytick_2">
     <g id="line2d_7">
      <path d="M 46.462187 204.093091 
L 152.641011 204.093091 
" clip-path="url(#p1267c0d76e)" style="fill: none; stroke-dasharray: 2.59,1.12; stroke-dashoffset: 0; stroke: #b0b0b0; stroke-opacity: 0.18; stroke-width: 0.7"/>
     </g>
     <g id="line2d_8">
      <g>
       <use xlink:href="#mec6c07e5f0" x="46.462187" y="204.093091" style="stroke: #000000; stroke-width: 0.8"/>
      </g>
     </g>
     <g id="text_7">
      <!-- 70 -->
      <g transform="translate(25.964687 208.272232) scale(0.11 -0.11)">
       <use xlink:href="#DejaVuSans-37"/>
       <use xlink:href="#DejaVuSans-30" x="63.623047"/>
      </g>
     </g>
    </g>
    <g id="ytick_3">
     <g id="line2d_9">
      <path d="M 46.462187 174.814415 
L 152.641011 174.814415 
" clip-path="url(#p1267c0d76e)" style="fill: none; stroke-dasharray: 2.59,1.12; stroke-dashoffset: 0; stroke: #b0b0b0; stroke-opacity: 0.18; stroke-width: 0.7"/>
     </g>
     <g id="line2d_10">
      <g>
       <use xlink:href="#mec6c07e5f0" x="46.462187" y="174.814415" style="stroke: #000000; stroke-width: 0.8"/>
      </g>
     </g>
     <g id="text_8">
      <!-- 75 -->
      <g transform="translate(25.964687 178.993556) scale(0.11 -0.11)">
       <use xlink:href="#DejaVuSans-37"/>
       <use xlink:href="#DejaVuSans-35" x="63.623047"/>
      </g>
     </g>
    </g>
    <g id="ytick_4">
     <g id="line2d_11">
      <path d="M 46.462187 145.535739 
L 152.641011 145.535739 
" clip-path="url(#p1267c0d76e)" style="fill: none; stroke-dasharray: 2.59,1.12; stroke-dashoffset: 0; stroke: #b0b0b0; stroke-opacity: 0.18; stroke-width: 0.7"/>
     </g>
     <g id="line2d_12">
      <g>
       <use xlink:href="#mec6c07e5f0" x="46.462187" y="145.535739" style="stroke: #000000; stroke-width: 0.8"/>
      </g>
     </g>
     <g id="text_9">
      <!-- 80 -->
      <g transform="translate(25.964687 149.714879) scale(0.11 -0.11)">
       <use xlink:href="#DejaVuSans-38"/>
       <use xlink:href="#DejaVuSans-30" x="63.623047"/>
      </g>
     </g>
    </g>
    <g id="ytick_5">
     <g id="line2d_13">
      <path d="M 46.462187 116.257062 
L 152.641011 116.257062 
" clip-path="url(#p1267c0d76e)" style="fill: none; stroke-dasharray: 2.59,1.12; stroke-dashoffset: 0; stroke: #b0b0b0; stroke-opacity: 0.18; stroke-width: 0.7"/>
     </g>
     <g id="line2d_14">
      <g>
       <use xlink:href="#mec6c07e5f0" x="46.462187" y="116.257062" style="stroke: #000000; stroke-width: 0.8"/>
      </g>
     </g>
     <g id="text_10">
      <!-- 85 -->
      <g transform="translate(25.964687 120.436203) scale(0.11 -0.11)">
       <use xlink:href="#DejaVuSans-38"/>
       <use xlink:href="#DejaVuSans-35" x="63.623047"/>
      </g>
     </g>
    </g>
    <g id="ytick_6">
     <g id="line2d_15">
      <path d="M 46.462187 86.978386 
L 152.641011 86.978386 
" clip-path="url(#p1267c0d76e)" style="fill: none; stroke-dasharray: 2.59,1.12; stroke-dashoffset: 0; stroke: #b0b0b0; stroke-opacity: 0.18; stroke-width: 0.7"/>
     </g>
     <g id="line2d_16">
      <g>
       <use xlink:href="#mec6c07e5f0" x="46.462187" y="86.978386" style="stroke: #000000; stroke-width: 0.8"/>
      </g>
     </g>
     <g id="text_11">
      <!-- 90 -->
      <g transform="translate(25.964687 91.157527) scale(0.11 -0.11)">
       <use xlink:href="#DejaVuSans-39"/>
       <use xlink:href="#DejaVuSans-30" x="63.623047"/>
      </g>
     </g>
    </g>
    <g id="ytick_7">
     <g id="line2d_17">
      <path d="M 46.462187 57.69971 
L 152.641011 57.69971 
" clip-path="url(#p1267c0d76e)" style="fill: none; stroke-dasharray: 2.59,1.12; stroke-dashoffset: 0; stroke: #b0b0b0; stroke-opacity: 0.18; stroke-width: 0.7"/>
     </g>
     <g id="line2d_18">
      <g>
       <use xlink:href="#mec6c07e5f0" x="46.462187" y="57.69971" style="stroke: #000000; stroke-width: 0.8"/>
      </g>
     </g>
     <g id="text_12">
      <!-- 95 -->
      <g transform="translate(25.964687 61.87885) scale(0.11 -0.11)">
       <use xlink:href="#DejaVuSans-39"/>
       <use xlink:href="#DejaVuSans-35" x="63.623047"/>
      </g>
     </g>
    </g>
    <g id="ytick_8">
     <g id="line2d_19">
      <path d="M 46.462187 28.421033 
L 152.641011 28.421033 
" clip-path="url(#p1267c0d76e)" style="fill: none; stroke-dasharray: 2.59,1.12; stroke-dashoffset: 0; stroke: #b0b0b0; stroke-opacity: 0.18; stroke-width: 0.7"/>
     </g>
     <g id="line2d_20">
      <g>
       <use xlink:href="#mec6c07e5f0" x="46.462187" y="28.421033" style="stroke: #000000; stroke-width: 0.8"/>
      </g>
     </g>
     <g id="text_13">
      <!-- 100 -->
      <g transform="translate(18.965937 32.600174) scale(0.11 -0.11)">
       <use xlink:href="#DejaVuSans-31"/>
       <use xlink:href="#DejaVuSans-30" x="63.623047"/>
       <use xlink:href="#DejaVuSans-30" x="127.246094"/>
      </g>
     </g>
    </g>
    <g id="text_14">
     <!-- Partial dependence -->
     <g transform="translate(12.678281 189.660016) rotate(-90) scale(0.11 -0.11)">
      <use xlink:href="#DejaVuSans-50"/>
      <use xlink:href="#DejaVuSans-61" x="55.802734"/>
      <use xlink:href="#DejaVuSans-72" x="117.082031"/>
      <use xlink:href="#DejaVuSans-74" x="158.195312"/>
      <use xlink:href="#DejaVuSans-69" x="197.404297"/>
      <use xlink:href="#DejaVuSans-61" x="225.1875"/>
      <use xlink:href="#DejaVuSans-6c" x="286.466797"/>
      <use xlink:href="#DejaVuSans-20" x="314.25"/>
      <use xlink:href="#DejaVuSans-64" x="346.037109"/>
      <use xlink:href="#DejaVuSans-65" x="409.513672"/>
      <use xlink:href="#DejaVuSans-70" x="471.037109"/>
      <use xlink:href="#DejaVuSans-65" x="534.513672"/>
      <use xlink:href="#DejaVuSans-6e" x="596.037109"/>
      <use xlink:href="#DejaVuSans-64" x="659.416016"/>
      <use xlink:href="#DejaVuSans-65" x="722.892578"/>
      <use xlink:href="#DejaVuSans-6e" x="784.416016"/>
      <use xlink:href="#DejaVuSans-63" x="847.794922"/>
      <use xlink:href="#DejaVuSans-65" x="902.775391"/>
     </g>
    </g>
   </g>
   <g id="line2d_21">
    <path d="M 51.288498 179.850687 
L 52.26351 179.809823 
L 53.238522 179.937151 
L 54.213534 179.964455 
L 55.188546 180.179193 
L 56.163558 180.178127 
L 57.138571 180.011266 
L 58.113583 179.855793 
L 59.088595 179.761117 
L 60.063607 179.439912 
L 61.038619 179.405709 
L 62.013631 179.594023 
L 62.988644 179.566886 
L 63.963656 179.371193 
L 64.938668 179.175986 
L 65.91368 178.912082 
L 66.888692 178.489216 
L 67.863704 178.143161 
L 68.838716 177.840539 
L 69.813729 176.375743 
L 70.788741 174.57027 
L 71.763753 173.534046 
L 72.738765 171.592596 
L 73.713777 169.262447 
L 74.688789 168.260186 
L 75.663802 167.606904 
L 76.638814 166.859894 
L 77.613826 165.89192 
L 78.588838 164.30557 
L 79.56385 163.032167 
L 80.538862 161.627182 
L 81.513874 159.158709 
L 82.488887 157.153532 
L 83.463899 154.309659 
L 84.438911 152.916979 
L 85.413923 151.579111 
L 86.388935 146.896096 
L 87.363947 145.065445 
L 88.338959 136.81199 
L 89.313972 129.635321 
L 90.288984 128.704794 
L 91.263996 128.234586 
L 92.239008 127.475705 
L 93.21402 126.53987 
L 94.189032 126.018198 
L 95.164045 125.683086 
L 96.139057 125.345729 
L 97.114069 123.310805 
L 98.089081 122.745758 
L 99.064093 122.166435 
L 100.039105 121.905572 
L 101.014117 121.841436 
L 101.98913 120.943939 
L 102.964142 118.348597 
L 103.939154 116.465399 
L 104.914166 115.058571 
L 105.889178 113.49577 
L 106.86419 112.220457 
L 107.839203 108.97302 
L 108.814215 108.614566 
L 109.789227 108.564747 
L 110.764239 108.556457 
L 111.739251 107.251358 
L 112.714263 105.686321 
L 113.689275 96.500814 
L 114.664288 88.893071 
L 115.6393 76.988723 
L 116.614312 64.345539 
L 117.589324 58.835262 
L 118.564336 56.993542 
L 119.539348 54.27192 
L 120.514361 52.798583 
L 121.489373 51.268883 
L 122.464385 48.788786 
L 123.439397 47.231969 
L 124.414409 46.832592 
L 125.389421 45.847802 
L 126.364433 44.540281 
L 127.339446 43.87849 
L 128.314458 42.982488 
L 129.28947 42.555625 
L 130.264482 42.348467 
L 131.239494 41.720776 
L 132.214506 41.038884 
L 133.189519 40.569752 
L 134.164531 40.340406 
L 135.139543 39.811687 
L 136.114555 39.069975 
L 137.089567 38.672097 
L 138.064579 38.311743 
L 139.039591 37.822549 
L 140.014604 36.117501 
L 140.989616 35.057768 
L 141.964628 33.665768 
L 142.93964 31.679674 
L 143.914652 30.226742 
L 144.889664 29.816909 
L 145.864677 29.329829 
L 146.839689 28.289783 
L 147.814701 27.816122 
" clip-path="url(#p1267c0d76e)" style="fill: none; stroke: #f6cfaf; stroke-width: 2; stroke-linecap: square"/>
   </g>
   <g id="LineCollection_1">
    <path d="M 58.369008 253.045969 
L 58.369008 241.403569 
" clip-path="url(#p1267c0d76e)" style="fill: none; stroke: #000000; stroke-width: 2"/>
    <path d="M 65.977387 253.045969 
L 65.977387 241.403569 
" clip-path="url(#p1267c0d76e)" style="fill: none; stroke: #000000; stroke-width: 2"/>
    <path d="M 70.458904 253.045969 
L 70.458904 241.403569 
" clip-path="url(#p1267c0d76e)" style="fill: none; stroke: #000000; stroke-width: 2"/>
    <path d="M 74.932917 253.045969 
L 74.932917 241.403569 
" clip-path="url(#p1267c0d76e)" style="fill: none; stroke: #000000; stroke-width: 2"/>
    <path d="M 80.232388 253.045969 
L 80.232388 241.403569 
" clip-path="url(#p1267c0d76e)" style="fill: none; stroke: #000000; stroke-width: 2"/>
    <path d="M 88.647811 253.045969 
L 88.647811 241.403569 
" clip-path="url(#p1267c0d76e)" style="fill: none; stroke: #000000; stroke-width: 2"/>
    <path d="M 101.760482 253.045969 
L 101.760482 241.403569 
" clip-path="url(#p1267c0d76e)" style="fill: none; stroke: #000000; stroke-width: 2"/>
    <path d="M 118.121495 253.045969 
L 118.121495 241.403569 
" clip-path="url(#p1267c0d76e)" style="fill: none; stroke: #000000; stroke-width: 2"/>
    <path d="M 131.297129 253.045969 
L 131.297129 241.403569 
" clip-path="url(#p1267c0d76e)" style="fill: none; stroke: #000000; stroke-width: 2"/>
   </g>
   <g id="patch_4">
    <path d="M 46.462187 253.045969 
L 46.462187 20.197969 
" style="fill: none; stroke: #000000; stroke-width: 0.9; stroke-linejoin: miter; stroke-linecap: square"/>
   </g>
   <g id="patch_5">
    <path d="M 46.462187 253.045969 
L 152.641011 253.045969 
" style="fill: none; stroke: #000000; stroke-width: 0.9; stroke-linejoin: miter; stroke-linecap: square"/>
   </g>
  </g>
  <g id="axes_3">
   <g id="patch_6">
    <path d="M 173.876776 253.045969 
L 280.055599 253.045969 
L 280.055599 20.197969 
L 173.876776 20.197969 
z
" style="fill: #ffffff"/>
   </g>
   <g id="matplotlib.axis_3">
    <g id="xtick_3">
     <g id="line2d_22">
      <path d="M 181.983352 253.045969 
L 181.983352 20.197969 
" clip-path="url(#pea5049a0f5)" style="fill: none; stroke-dasharray: 2.59,1.12; stroke-dashoffset: 0; stroke: #b0b0b0; stroke-opacity: 0.18; stroke-width: 0.7"/>
     </g>
     <g id="line2d_23">
      <g>
       <use xlink:href="#m7b04268b16" x="181.983352" y="253.045969" style="stroke: #000000; stroke-width: 0.8"/>
      </g>
     </g>
     <g id="text_15">
      <!-- 25 -->
      <g transform="translate(174.984602 267.90425) scale(0.11 -0.11)">
       <use xlink:href="#DejaVuSans-32"/>
       <use xlink:href="#DejaVuSans-35" x="63.623047"/>
      </g>
     </g>
    </g>
    <g id="xtick_4">
     <g id="line2d_24">
      <path d="M 217.331048 253.045969 
L 217.331048 20.197969 
" clip-path="url(#pea5049a0f5)" style="fill: none; stroke-dasharray: 2.59,1.12; stroke-dashoffset: 0; stroke: #b0b0b0; stroke-opacity: 0.18; stroke-width: 0.7"/>
     </g>
     <g id="line2d_25">
      <g>
       <use xlink:href="#m7b04268b16" x="217.331048" y="253.045969" style="stroke: #000000; stroke-width: 0.8"/>
      </g>
     </g>
     <g id="text_16">
      <!-- 50 -->
      <g transform="translate(210.332298 267.90425) scale(0.11 -0.11)">
       <use xlink:href="#DejaVuSans-35"/>
       <use xlink:href="#DejaVuSans-30" x="63.623047"/>
      </g>
     </g>
    </g>
    <g id="xtick_5">
     <g id="line2d_26">
      <path d="M 252.678744 253.045969 
L 252.678744 20.197969 
" clip-path="url(#pea5049a0f5)" style="fill: none; stroke-dasharray: 2.59,1.12; stroke-dashoffset: 0; stroke: #b0b0b0; stroke-opacity: 0.18; stroke-width: 0.7"/>
     </g>
     <g id="line2d_27">
      <g>
       <use xlink:href="#m7b04268b16" x="252.678744" y="253.045969" style="stroke: #000000; stroke-width: 0.8"/>
      </g>
     </g>
     <g id="text_17">
      <!-- 75 -->
      <g transform="translate(245.679994 267.90425) scale(0.11 -0.11)">
       <use xlink:href="#DejaVuSans-37"/>
       <use xlink:href="#DejaVuSans-35" x="63.623047"/>
      </g>
     </g>
    </g>
    <g id="text_18">
     <!-- mc_Humidity_mean -->
     <g transform="translate(172.548844 282.550187) scale(0.11 -0.11)">
      <defs>
       <path id="DejaVuSans-48" d="M 628 4666 
L 1259 4666 
L 1259 2753 
L 3553 2753 
L 3553 4666 
L 4184 4666 
L 4184 0 
L 3553 0 
L 3553 2222 
L 1259 2222 
L 1259 0 
L 628 0 
L 628 4666 
z
" transform="scale(0.015625)"/>
      </defs>
      <use xlink:href="#DejaVuSans-6d"/>
      <use xlink:href="#DejaVuSans-63" x="97.412109"/>
      <use xlink:href="#DejaVuSans-5f" x="152.392578"/>
      <use xlink:href="#DejaVuSans-48" x="202.392578"/>
      <use xlink:href="#DejaVuSans-75" x="277.587891"/>
      <use xlink:href="#DejaVuSans-6d" x="340.966797"/>
      <use xlink:href="#DejaVuSans-69" x="438.378906"/>
      <use xlink:href="#DejaVuSans-64" x="466.162109"/>
      <use xlink:href="#DejaVuSans-69" x="529.638672"/>
      <use xlink:href="#DejaVuSans-74" x="557.421875"/>
      <use xlink:href="#DejaVuSans-79" x="596.630859"/>
      <use xlink:href="#DejaVuSans-5f" x="655.810547"/>
      <use xlink:href="#DejaVuSans-6d" x="705.810547"/>
      <use xlink:href="#DejaVuSans-65" x="803.222656"/>
      <use xlink:href="#DejaVuSans-61" x="864.746094"/>
      <use xlink:href="#DejaVuSans-6e" x="926.025391"/>
     </g>
    </g>
   </g>
   <g id="matplotlib.axis_4">
    <g id="ytick_9">
     <g id="line2d_28">
      <path d="M 173.876776 233.371768 
L 280.055599 233.371768 
" clip-path="url(#pea5049a0f5)" style="fill: none; stroke-dasharray: 2.59,1.12; stroke-dashoffset: 0; stroke: #b0b0b0; stroke-opacity: 0.18; stroke-width: 0.7"/>
     </g>
     <g id="line2d_29">
      <g>
       <use xlink:href="#mec6c07e5f0" x="173.876776" y="233.371768" style="stroke: #000000; stroke-width: 0.8"/>
      </g>
     </g>
    </g>
    <g id="ytick_10">
     <g id="line2d_30">
      <path d="M 173.876776 204.093091 
L 280.055599 204.093091 
" clip-path="url(#pea5049a0f5)" style="fill: none; stroke-dasharray: 2.59,1.12; stroke-dashoffset: 0; stroke: #b0b0b0; stroke-opacity: 0.18; stroke-width: 0.7"/>
     </g>
     <g id="line2d_31">
      <g>
       <use xlink:href="#mec6c07e5f0" x="173.876776" y="204.093091" style="stroke: #000000; stroke-width: 0.8"/>
      </g>
     </g>
    </g>
    <g id="ytick_11">
     <g id="line2d_32">
      <path d="M 173.876776 174.814415 
L 280.055599 174.814415 
" clip-path="url(#pea5049a0f5)" style="fill: none; stroke-dasharray: 2.59,1.12; stroke-dashoffset: 0; stroke: #b0b0b0; stroke-opacity: 0.18; stroke-width: 0.7"/>
     </g>
     <g id="line2d_33">
      <g>
       <use xlink:href="#mec6c07e5f0" x="173.876776" y="174.814415" style="stroke: #000000; stroke-width: 0.8"/>
      </g>
     </g>
    </g>
    <g id="ytick_12">
     <g id="line2d_34">
      <path d="M 173.876776 145.535739 
L 280.055599 145.535739 
" clip-path="url(#pea5049a0f5)" style="fill: none; stroke-dasharray: 2.59,1.12; stroke-dashoffset: 0; stroke: #b0b0b0; stroke-opacity: 0.18; stroke-width: 0.7"/>
     </g>
     <g id="line2d_35">
      <g>
       <use xlink:href="#mec6c07e5f0" x="173.876776" y="145.535739" style="stroke: #000000; stroke-width: 0.8"/>
      </g>
     </g>
    </g>
    <g id="ytick_13">
     <g id="line2d_36">
      <path d="M 173.876776 116.257062 
L 280.055599 116.257062 
" clip-path="url(#pea5049a0f5)" style="fill: none; stroke-dasharray: 2.59,1.12; stroke-dashoffset: 0; stroke: #b0b0b0; stroke-opacity: 0.18; stroke-width: 0.7"/>
     </g>
     <g id="line2d_37">
      <g>
       <use xlink:href="#mec6c07e5f0" x="173.876776" y="116.257062" style="stroke: #000000; stroke-width: 0.8"/>
      </g>
     </g>
    </g>
    <g id="ytick_14">
     <g id="line2d_38">
      <path d="M 173.876776 86.978386 
L 280.055599 86.978386 
" clip-path="url(#pea5049a0f5)" style="fill: none; stroke-dasharray: 2.59,1.12; stroke-dashoffset: 0; stroke: #b0b0b0; stroke-opacity: 0.18; stroke-width: 0.7"/>
     </g>
     <g id="line2d_39">
      <g>
       <use xlink:href="#mec6c07e5f0" x="173.876776" y="86.978386" style="stroke: #000000; stroke-width: 0.8"/>
      </g>
     </g>
    </g>
    <g id="ytick_15">
     <g id="line2d_40">
      <path d="M 173.876776 57.69971 
L 280.055599 57.69971 
" clip-path="url(#pea5049a0f5)" style="fill: none; stroke-dasharray: 2.59,1.12; stroke-dashoffset: 0; stroke: #b0b0b0; stroke-opacity: 0.18; stroke-width: 0.7"/>
     </g>
     <g id="line2d_41">
      <g>
       <use xlink:href="#mec6c07e5f0" x="173.876776" y="57.69971" style="stroke: #000000; stroke-width: 0.8"/>
      </g>
     </g>
    </g>
    <g id="ytick_16">
     <g id="line2d_42">
      <path d="M 173.876776 28.421033 
L 280.055599 28.421033 
" clip-path="url(#pea5049a0f5)" style="fill: none; stroke-dasharray: 2.59,1.12; stroke-dashoffset: 0; stroke: #b0b0b0; stroke-opacity: 0.18; stroke-width: 0.7"/>
     </g>
     <g id="line2d_43">
      <g>
       <use xlink:href="#mec6c07e5f0" x="173.876776" y="28.421033" style="stroke: #000000; stroke-width: 0.8"/>
      </g>
     </g>
    </g>
   </g>
   <g id="line2d_44">
    <path d="M 178.703086 116.435956 
L 179.678098 116.435956 
L 180.65311 116.435956 
L 181.628122 116.435956 
L 182.603135 116.435956 
L 183.578147 116.435956 
L 184.553159 116.426017 
L 185.528171 116.42681 
L 186.503183 116.42681 
L 187.478195 116.514536 
L 188.453207 116.639519 
L 189.42822 116.639519 
L 190.403232 116.983645 
L 191.378244 117.212394 
L 192.353256 117.28597 
L 193.328268 117.435207 
L 194.30328 117.560812 
L 195.278293 117.581327 
L 196.253305 117.576424 
L 197.228317 117.673698 
L 198.203329 117.799649 
L 199.178341 118.004374 
L 200.153353 118.122487 
L 201.128365 118.411929 
L 202.103378 118.536239 
L 203.07839 118.586512 
L 204.053402 119.034699 
L 205.028414 119.177819 
L 206.003426 119.219864 
L 206.978438 119.231437 
L 207.953451 119.317798 
L 208.928463 119.49717 
L 209.903475 119.632413 
L 210.878487 119.654516 
L 211.853499 119.923717 
L 212.828511 120.131489 
L 213.803523 120.170068 
L 214.778536 120.331646 
L 215.753548 120.512574 
L 216.72856 121.035389 
L 217.703572 121.745081 
L 218.678584 122.27768 
L 219.653596 122.557564 
L 220.628609 122.594477 
L 221.603621 122.623484 
L 222.578633 122.894361 
L 223.553645 123.12442 
L 224.528657 123.545639 
L 225.503669 123.972281 
L 226.478681 124.293659 
L 227.453694 124.458608 
L 228.428706 124.663652 
L 229.403718 124.9538 
L 230.37873 125.228408 
L 231.353742 125.480278 
L 232.328754 125.892669 
L 233.303766 125.984811 
L 234.278779 126.279462 
L 235.253791 126.688934 
L 236.228803 127.1599 
L 237.203815 127.368797 
L 238.178827 127.903518 
L 239.153839 128.170281 
L 240.128852 128.399462 
L 241.103864 128.64713 
L 242.078876 129.34524 
L 243.053888 129.672149 
L 244.0289 130.558928 
L 245.003912 131.13831 
L 245.978924 131.547147 
L 246.953937 132.312387 
L 247.928949 133.273761 
L 248.903961 134.210856 
L 249.878973 135.646764 
L 250.853985 137.234073 
L 251.828997 140.402898 
L 252.80401 141.843982 
L 253.779022 148.506197 
L 254.754034 151.16799 
L 255.729046 153.911915 
L 256.704058 155.318753 
L 257.67907 165.062289 
L 258.654082 171.428803 
L 259.629095 181.22463 
L 260.604107 184.649044 
L 261.579119 186.172969 
L 262.554131 187.115464 
L 263.529143 189.789187 
L 264.504155 192.357476 
L 265.479168 195.906558 
L 266.45418 201.440658 
L 267.429192 205.361843 
L 268.404204 212.730311 
L 269.379216 217.691844 
L 270.354228 219.251483 
L 271.32924 224.466172 
L 272.304253 235.484574 
L 273.279265 238.251227 
L 274.254277 243.917304 
L 275.229289 246.540257 
" clip-path="url(#pea5049a0f5)" style="fill: none; stroke: #f6cfaf; stroke-width: 2; stroke-linecap: square"/>
   </g>
   <g id="LineCollection_2">
    <path d="M 187.237434 253.045969 
L 187.237434 241.403569 
" clip-path="url(#pea5049a0f5)" style="fill: none; stroke: #000000; stroke-width: 2"/>
    <path d="M 201.099386 253.045969 
L 201.099386 241.403569 
" clip-path="url(#pea5049a0f5)" style="fill: none; stroke: #000000; stroke-width: 2"/>
    <path d="M 212.303963 253.045969 
L 212.303963 241.403569 
" clip-path="url(#pea5049a0f5)" style="fill: none; stroke: #000000; stroke-width: 2"/>
    <path d="M 221.9481 253.045969 
L 221.9481 241.403569 
" clip-path="url(#pea5049a0f5)" style="fill: none; stroke: #000000; stroke-width: 2"/>
    <path d="M 230.056219 253.045969 
L 230.056219 241.403569 
" clip-path="url(#pea5049a0f5)" style="fill: none; stroke: #000000; stroke-width: 2"/>
    <path d="M 237.538791 253.045969 
L 237.538791 241.403569 
" clip-path="url(#pea5049a0f5)" style="fill: none; stroke: #000000; stroke-width: 2"/>
    <path d="M 247.023113 253.045969 
L 247.023113 241.403569 
" clip-path="url(#pea5049a0f5)" style="fill: none; stroke: #000000; stroke-width: 2"/>
    <path d="M 256.560564 253.045969 
L 256.560564 241.403569 
" clip-path="url(#pea5049a0f5)" style="fill: none; stroke: #000000; stroke-width: 2"/>
    <path d="M 268.480578 253.045969 
L 268.480578 241.403569 
" clip-path="url(#pea5049a0f5)" style="fill: none; stroke: #000000; stroke-width: 2"/>
   </g>
   <g id="patch_7">
    <path d="M 173.876776 253.045969 
L 173.876776 20.197969 
" style="fill: none; stroke: #000000; stroke-width: 0.9; stroke-linejoin: miter; stroke-linecap: square"/>
   </g>
   <g id="patch_8">
    <path d="M 173.876776 253.045969 
L 280.055599 253.045969 
" style="fill: none; stroke: #000000; stroke-width: 0.9; stroke-linejoin: miter; stroke-linecap: square"/>
   </g>
  </g>
  <g id="axes_4">
   <g id="patch_9">
    <path d="M 301.291364 253.045969 
L 407.470187 253.045969 
L 407.470187 20.197969 
L 301.291364 20.197969 
z
" style="fill: #ffffff"/>
   </g>
   <g id="matplotlib.axis_5">
    <g id="xtick_6">
     <g id="line2d_45">
      <path d="M 326.801861 253.045969 
L 326.801861 20.197969 
" clip-path="url(#paba5b0d986)" style="fill: none; stroke-dasharray: 2.59,1.12; stroke-dashoffset: 0; stroke: #b0b0b0; stroke-opacity: 0.18; stroke-width: 0.7"/>
     </g>
     <g id="line2d_46">
      <g>
       <use xlink:href="#m7b04268b16" x="326.801861" y="253.045969" style="stroke: #000000; stroke-width: 0.8"/>
      </g>
     </g>
     <g id="text_19">
      <!-- 10 -->
      <g transform="translate(319.803111 267.90425) scale(0.11 -0.11)">
       <use xlink:href="#DejaVuSans-31"/>
       <use xlink:href="#DejaVuSans-30" x="63.623047"/>
      </g>
     </g>
    </g>
    <g id="xtick_7">
     <g id="line2d_47">
      <path d="M 395.749149 253.045969 
L 395.749149 20.197969 
" clip-path="url(#paba5b0d986)" style="fill: none; stroke-dasharray: 2.59,1.12; stroke-dashoffset: 0; stroke: #b0b0b0; stroke-opacity: 0.18; stroke-width: 0.7"/>
     </g>
     <g id="line2d_48">
      <g>
       <use xlink:href="#m7b04268b16" x="395.749149" y="253.045969" style="stroke: #000000; stroke-width: 0.8"/>
      </g>
     </g>
     <g id="text_20">
      <!-- 20 -->
      <g transform="translate(388.750399 267.90425) scale(0.11 -0.11)">
       <use xlink:href="#DejaVuSans-32"/>
       <use xlink:href="#DejaVuSans-30" x="63.623047"/>
      </g>
     </g>
    </g>
    <g id="text_21">
     <!-- mc_Temperature_mean -->
     <g transform="translate(290.065151 282.24425) scale(0.11 -0.11)">
      <use xlink:href="#DejaVuSans-6d"/>
      <use xlink:href="#DejaVuSans-63" x="97.412109"/>
      <use xlink:href="#DejaVuSans-5f" x="152.392578"/>
      <use xlink:href="#DejaVuSans-54" x="202.392578"/>
      <use xlink:href="#DejaVuSans-65" x="246.476562"/>
      <use xlink:href="#DejaVuSans-6d" x="308"/>
      <use xlink:href="#DejaVuSans-70" x="405.412109"/>
      <use xlink:href="#DejaVuSans-65" x="468.888672"/>
      <use xlink:href="#DejaVuSans-72" x="530.412109"/>
      <use xlink:href="#DejaVuSans-61" x="571.525391"/>
      <use xlink:href="#DejaVuSans-74" x="632.804688"/>
      <use xlink:href="#DejaVuSans-75" x="672.013672"/>
      <use xlink:href="#DejaVuSans-72" x="735.392578"/>
      <use xlink:href="#DejaVuSans-65" x="774.255859"/>
      <use xlink:href="#DejaVuSans-5f" x="835.779297"/>
      <use xlink:href="#DejaVuSans-6d" x="885.779297"/>
      <use xlink:href="#DejaVuSans-65" x="983.191406"/>
      <use xlink:href="#DejaVuSans-61" x="1044.714844"/>
      <use xlink:href="#DejaVuSans-6e" x="1105.994141"/>
     </g>
    </g>
   </g>
   <g id="matplotlib.axis_6">
    <g id="ytick_17">
     <g id="line2d_49">
      <path d="M 301.291364 233.371768 
L 407.470187 233.371768 
" clip-path="url(#paba5b0d986)" style="fill: none; stroke-dasharray: 2.59,1.12; stroke-dashoffset: 0; stroke: #b0b0b0; stroke-opacity: 0.18; stroke-width: 0.7"/>
     </g>
     <g id="line2d_50">
      <g>
       <use xlink:href="#mec6c07e5f0" x="301.291364" y="233.371768" style="stroke: #000000; stroke-width: 0.8"/>
      </g>
     </g>
    </g>
    <g id="ytick_18">
     <g id="line2d_51">
      <path d="M 301.291364 204.093091 
L 407.470187 204.093091 
" clip-path="url(#paba5b0d986)" style="fill: none; stroke-dasharray: 2.59,1.12; stroke-dashoffset: 0; stroke: #b0b0b0; stroke-opacity: 0.18; stroke-width: 0.7"/>
     </g>
     <g id="line2d_52">
      <g>
       <use xlink:href="#mec6c07e5f0" x="301.291364" y="204.093091" style="stroke: #000000; stroke-width: 0.8"/>
      </g>
     </g>
    </g>
    <g id="ytick_19">
     <g id="line2d_53">
      <path d="M 301.291364 174.814415 
L 407.470187 174.814415 
" clip-path="url(#paba5b0d986)" style="fill: none; stroke-dasharray: 2.59,1.12; stroke-dashoffset: 0; stroke: #b0b0b0; stroke-opacity: 0.18; stroke-width: 0.7"/>
     </g>
     <g id="line2d_54">
      <g>
       <use xlink:href="#mec6c07e5f0" x="301.291364" y="174.814415" style="stroke: #000000; stroke-width: 0.8"/>
      </g>
     </g>
    </g>
    <g id="ytick_20">
     <g id="line2d_55">
      <path d="M 301.291364 145.535739 
L 407.470187 145.535739 
" clip-path="url(#paba5b0d986)" style="fill: none; stroke-dasharray: 2.59,1.12; stroke-dashoffset: 0; stroke: #b0b0b0; stroke-opacity: 0.18; stroke-width: 0.7"/>
     </g>
     <g id="line2d_56">
      <g>
       <use xlink:href="#mec6c07e5f0" x="301.291364" y="145.535739" style="stroke: #000000; stroke-width: 0.8"/>
      </g>
     </g>
    </g>
    <g id="ytick_21">
     <g id="line2d_57">
      <path d="M 301.291364 116.257062 
L 407.470187 116.257062 
" clip-path="url(#paba5b0d986)" style="fill: none; stroke-dasharray: 2.59,1.12; stroke-dashoffset: 0; stroke: #b0b0b0; stroke-opacity: 0.18; stroke-width: 0.7"/>
     </g>
     <g id="line2d_58">
      <g>
       <use xlink:href="#mec6c07e5f0" x="301.291364" y="116.257062" style="stroke: #000000; stroke-width: 0.8"/>
      </g>
     </g>
    </g>
    <g id="ytick_22">
     <g id="line2d_59">
      <path d="M 301.291364 86.978386 
L 407.470187 86.978386 
" clip-path="url(#paba5b0d986)" style="fill: none; stroke-dasharray: 2.59,1.12; stroke-dashoffset: 0; stroke: #b0b0b0; stroke-opacity: 0.18; stroke-width: 0.7"/>
     </g>
     <g id="line2d_60">
      <g>
       <use xlink:href="#mec6c07e5f0" x="301.291364" y="86.978386" style="stroke: #000000; stroke-width: 0.8"/>
      </g>
     </g>
    </g>
    <g id="ytick_23">
     <g id="line2d_61">
      <path d="M 301.291364 57.69971 
L 407.470187 57.69971 
" clip-path="url(#paba5b0d986)" style="fill: none; stroke-dasharray: 2.59,1.12; stroke-dashoffset: 0; stroke: #b0b0b0; stroke-opacity: 0.18; stroke-width: 0.7"/>
     </g>
     <g id="line2d_62">
      <g>
       <use xlink:href="#mec6c07e5f0" x="301.291364" y="57.69971" style="stroke: #000000; stroke-width: 0.8"/>
      </g>
     </g>
    </g>
    <g id="ytick_24">
     <g id="line2d_63">
      <path d="M 301.291364 28.421033 
L 407.470187 28.421033 
" clip-path="url(#paba5b0d986)" style="fill: none; stroke-dasharray: 2.59,1.12; stroke-dashoffset: 0; stroke: #b0b0b0; stroke-opacity: 0.18; stroke-width: 0.7"/>
     </g>
     <g id="line2d_64">
      <g>
       <use xlink:href="#mec6c07e5f0" x="301.291364" y="28.421033" style="stroke: #000000; stroke-width: 0.8"/>
      </g>
     </g>
    </g>
   </g>
   <g id="line2d_65">
    <path d="M 306.117674 148.263311 
L 307.092686 147.003843 
L 308.067698 146.658807 
L 309.042711 146.553158 
L 310.017723 145.264143 
L 310.992735 144.994212 
L 311.967747 144.887668 
L 312.942759 144.576543 
L 313.917771 144.313857 
L 314.892784 144.024641 
L 315.867796 143.983851 
L 316.842808 142.630832 
L 317.81782 142.635676 
L 318.792832 142.391961 
L 319.767844 142.071686 
L 320.742856 142.010452 
L 321.717869 141.987172 
L 322.692881 141.87581 
L 323.667893 141.677706 
L 324.642905 141.56695 
L 325.617917 141.462131 
L 326.592929 141.36269 
L 327.567942 141.171265 
L 328.542954 141.035218 
L 329.517966 141.023075 
L 330.492978 140.500657 
L 331.46799 140.468153 
L 332.443002 140.427524 
L 333.418014 140.388122 
L 334.393027 140.322666 
L 335.368039 140.285454 
L 336.343051 140.251585 
L 337.318063 139.774939 
L 338.293075 139.604528 
L 339.268087 139.603892 
L 340.2431 139.602767 
L 341.218112 139.494224 
L 342.193124 139.429124 
L 343.168136 139.3957 
L 344.143148 139.253547 
L 345.11816 139.353421 
L 346.093172 139.338456 
L 347.068185 139.293904 
L 348.043197 139.197798 
L 349.018209 139.163586 
L 349.993221 139.163734 
L 350.968233 138.632075 
L 351.943245 138.610587 
L 352.918258 138.610587 
L 353.89327 138.468309 
L 354.868282 138.204309 
L 355.843294 137.944193 
L 356.818306 137.750744 
L 357.793318 137.731263 
L 358.76833 135.964263 
L 359.743343 135.829595 
L 360.718355 135.757932 
L 361.693367 135.800915 
L 362.668379 135.79995 
L 363.643391 135.627347 
L 364.618403 135.518003 
L 365.593416 135.354694 
L 366.568428 135.320403 
L 367.54344 135.226571 
L 368.518452 135.222559 
L 369.493464 135.222559 
L 370.468476 135.021842 
L 371.443488 134.992896 
L 372.418501 135.314978 
L 373.393513 135.314978 
L 374.368525 135.314978 
L 375.343537 135.368314 
L 376.318549 135.36848 
L 377.293561 135.371318 
L 378.268573 135.517587 
L 379.243586 135.518108 
L 380.218598 135.518108 
L 381.19361 135.518108 
L 382.168622 135.433271 
L 383.143634 135.433271 
L 384.118646 135.433271 
L 385.093659 135.433271 
L 386.068671 135.254037 
L 387.043683 135.254037 
L 388.018695 135.251941 
L 388.993707 135.251941 
L 389.968719 135.251941 
L 390.943731 135.251941 
L 391.918744 135.251941 
L 392.893756 135.199107 
L 393.868768 135.199107 
L 394.84378 135.197221 
L 395.818792 135.197221 
L 396.793804 135.197221 
L 397.768817 135.197221 
L 398.743829 135.197221 
L 399.718841 135.197221 
L 400.693853 135.197221 
L 401.668865 135.197221 
L 402.643877 135.197221 
" clip-path="url(#paba5b0d986)" style="fill: none; stroke: #f6cfaf; stroke-width: 2; stroke-linecap: square"/>
   </g>
   <g id="LineCollection_3">
    <path d="M 313.012403 253.045969 
L 313.012403 241.403569 
" clip-path="url(#paba5b0d986)" style="fill: none; stroke: #000000; stroke-width: 2"/>
    <path d="M 322.705138 253.045969 
L 322.705138 241.403569 
" clip-path="url(#paba5b0d986)" style="fill: none; stroke: #000000; stroke-width: 2"/>
    <path d="M 327.395225 253.045969 
L 327.395225 241.403569 
" clip-path="url(#paba5b0d986)" style="fill: none; stroke: #000000; stroke-width: 2"/>
    <path d="M 340.591318 253.045969 
L 340.591318 241.403569 
" clip-path="url(#paba5b0d986)" style="fill: none; stroke: #000000; stroke-width: 2"/>
    <path d="M 347.486047 253.045969 
L 347.486047 241.403569 
" clip-path="url(#paba5b0d986)" style="fill: none; stroke: #000000; stroke-width: 2"/>
    <path d="M 354.380776 253.045969 
L 354.380776 241.403569 
" clip-path="url(#paba5b0d986)" style="fill: none; stroke: #000000; stroke-width: 2"/>
    <path d="M 367.944588 253.045969 
L 367.944588 241.403569 
" clip-path="url(#paba5b0d986)" style="fill: none; stroke: #000000; stroke-width: 2"/>
    <path d="M 375.064962 253.045969 
L 375.064962 241.403569 
" clip-path="url(#paba5b0d986)" style="fill: none; stroke: #000000; stroke-width: 2"/>
    <path d="M 388.85442 253.045969 
L 388.85442 241.403569 
" clip-path="url(#paba5b0d986)" style="fill: none; stroke: #000000; stroke-width: 2"/>
   </g>
   <g id="patch_10">
    <path d="M 301.291364 253.045969 
L 301.291364 20.197969 
" style="fill: none; stroke: #000000; stroke-width: 0.9; stroke-linejoin: miter; stroke-linecap: square"/>
   </g>
   <g id="patch_11">
    <path d="M 301.291364 253.045969 
L 407.470187 253.045969 
" style="fill: none; stroke: #000000; stroke-width: 0.9; stroke-linejoin: miter; stroke-linecap: square"/>
   </g>
  </g>
 </g>
 <defs>
  <clipPath id="p1267c0d76e">
   <rect x="46.462187" y="20.197969" width="106.178824" height="232.848"/>
  </clipPath>
  <clipPath id="pea5049a0f5">
   <rect x="173.876776" y="20.197969" width="106.178824" height="232.848"/>
  </clipPath>
  <clipPath id="paba5b0d986">
   <rect x="301.291364" y="20.197969" width="106.178824" height="232.848"/>
  </clipPath>
 </defs>
</svg>
