<?xml version="1.0" encoding="utf-8" standalone="no"?>
<!DOCTYPE svg PUBLIC "-//W3C//DTD SVG 1.1//EN"
  "http://www.w3.org/Graphics/SVG/1.1/DTD/svg11.dtd">
<svg xmlns:xlink="http://www.w3.org/1999/xlink" width="562.44691pt" height="289.463781pt" viewBox="0 0 562.44691 289.463781" xmlns="http://www.w3.org/2000/svg" version="1.1">
 <metadata>
  <rdf:RDF xmlns:dc="http://purl.org/dc/elements/1.1/" xmlns:cc="http://creativecommons.org/ns#" xmlns:rdf="http://www.w3.org/1999/02/22-rdf-syntax-ns#">
   <cc:Work>
    <dc:type rdf:resource="http://purl.org/dc/dcmitype/StillImage"/>
    <dc:date>2026-01-21T18:10:14.689189</dc:date>
    <dc:format>image/svg+xml</dc:format>
    <dc:creator>
     <cc:Agent>
      <dc:title>Matplotlib v3.7.2, https://matplotlib.org/</dc:title>
     </cc:Agent>
    </dc:creator>
   </cc:Work>
  </rdf:RDF>
 </metadata>
 <defs>
  <style type="text/css">*{stroke-linejoin: round; stroke-linecap: butt}</style>
 </defs>
 <g id="figure_1">
  <g id="patch_1">
   <path d="M 0 289.463781 
L 562.44691 289.463781 
L 562.44691 0 
L 0 0 
z
" style="fill: #ffffff"/>
  </g>
  <g id="axes_1">
   <g id="text_1">
    <g id="patch_2">
     <path d="M 407.691598 208.790219 
L 558.12691 208.790219 
Q 563.62691 208.790219 563.62691 203.290219 
L 563.62691 20.197969 
Q 563.62691 14.697969 558.12691 14.697969 
L 407.691598 14.697969 
Q 402.191598 14.697969 402.191598 20.197969 
L 402.191598 203.290219 
Q 402.191598 208.790219 407.691598 208.790219 
z
" style="fill: #ffffff; opacity: 0.95; stroke: #b2b2b2; stroke-linejoin: miter"/>
    </g>
    <!-- Target: NO2 -->
    <g transform="translate(407.691598 28.55625) scale(0.11 -0.11)">
     <defs>
      <path id="DejaVuSans-54" d="M -19 4666 
L 3928 4666 
L 3928 4134 
L 2272 4134 
L 2272 0 
L 1638 0 
L 1638 4134 
L -19 4134 
L -19 4666 
z
" transform="scale(0.015625)"/>
      <path id="DejaVuSans-61" d="M 2194 1759 
Q 1497 1759 1228 1600 
Q 959 1441 959 1056 
Q 959 750 1161 570 
Q 1363 391 1709 391 
Q 2188 391 2477 730 
Q 2766 1069 2766 1631 
L 2766 1759 
L 2194 1759 
z
M 3341 1997 
L 3341 0 
L 2766 0 
L 2766 531 
Q 2569 213 2275 61 
Q 1981 -91 1556 -91 
Q 1019 -91 701 211 
Q 384 513 384 1019 
Q 384 1609 779 1909 
Q 1175 2209 1959 2209 
L 2766 2209 
L 2766 2266 
Q 2766 2663 2505 2880 
Q 2244 3097 1772 3097 
Q 1472 3097 1187 3025 
Q 903 2953 641 2809 
L 641 3341 
Q 956 3463 1253 3523 
Q 1550 3584 1831 3584 
Q 2591 3584 2966 3190 
Q 3341 2797 3341 1997 
z
" transform="scale(0.015625)"/>
      <path id="DejaVuSans-72" d="M 2631 2963 
Q 2534 3019 2420 3045 
Q 2306 3072 2169 3072 
Q 1681 3072 1420 2755 
Q 1159 2438 1159 1844 
L 1159 0 
L 581 0 
L 581 3500 
L 1159 3500 
L 1159 2956 
Q 1341 3275 1631 3429 
Q 1922 3584 2338 3584 
Q 2397 3584 2469 3576 
Q 2541 3569 2628 3553 
L 2631 2963 
z
" transform="scale(0.015625)"/>
      <path id="DejaVuSans-67" d="M 2906 1791 
Q 2906 2416 2648 2759 
Q 2391 3103 1925 3103 
Q 1463 3103 1205 2759 
Q 947 2416 947 1791 
Q 947 1169 1205 825 
Q 1463 481 1925 481 
Q 2391 481 2648 825 
Q 2906 1169 2906 1791 
z
M 3481 434 
Q 3481 -459 3084 -895 
Q 2688 -1331 1869 -1331 
Q 1566 -1331 1297 -1286 
Q 1028 -1241 775 -1147 
L 775 -588 
Q 1028 -725 1275 -790 
Q 1522 -856 1778 -856 
Q 2344 -856 2625 -561 
Q 2906 -266 2906 331 
L 2906 616 
Q 2728 306 2450 153 
Q 2172 0 1784 0 
Q 1141 0 747 490 
Q 353 981 353 1791 
Q 353 2603 747 3093 
Q 1141 3584 1784 3584 
Q 2172 3584 2450 3431 
Q 2728 3278 2906 2969 
L 2906 3500 
L 3481 3500 
L 3481 434 
z
" transform="scale(0.015625)"/>
      <path id="DejaVuSans-65" d="M 3597 1894 
L 3597 1613 
L 953 1613 
Q 991 1019 1311 708 
Q 1631 397 2203 397 
Q 2534 397 2845 478 
Q 3156 559 3463 722 
L 3463 178 
Q 3153 47 2828 -22 
Q 2503 -91 2169 -91 
Q 1331 -91 842 396 
Q 353 884 353 1716 
Q 353 2575 817 3079 
Q 1281 3584 2069 3584 
Q 2775 3584 3186 3129 
Q 3597 2675 3597 1894 
z
M 3022 2063 
Q 3016 2534 2758 2815 
Q 2500 3097 2075 3097 
Q 1594 3097 1305 2825 
Q 1016 2553 972 2059 
L 3022 2063 
z
" transform="scale(0.015625)"/>
      <path id="DejaVuSans-74" d="M 1172 4494 
L 1172 3500 
L 2356 3500 
L 2356 3053 
L 1172 3053 
L 1172 1153 
Q 1172 725 1289 603 
Q 1406 481 1766 481 
L 2356 481 
L 2356 0 
L 1766 0 
Q 1100 0 847 248 
Q 594 497 594 1153 
L 594 3053 
L 172 3053 
L 172 3500 
L 594 3500 
L 594 4494 
L 1172 4494 
z
" transform="scale(0.015625)"/>
      <path id="DejaVuSans-3a" d="M 750 794 
L 1409 794 
L 1409 0 
L 750 0 
L 750 794 
z
M 750 3309 
L 1409 3309 
L 1409 2516 
L 750 2516 
L 750 3309 
z
" transform="scale(0.015625)"/>
      <path id="DejaVuSans-20" transform="scale(0.015625)"/>
      <path id="DejaVuSans-4e" d="M 628 4666 
L 1478 4666 
L 3547 763 
L 3547 4666 
L 4159 4666 
L 4159 0 
L 3309 0 
L 1241 3903 
L 1241 0 
L 628 0 
L 628 4666 
z
" transform="scale(0.015625)"/>
      <path id="DejaVuSans-4f" d="M 2522 4238 
Q 1834 4238 1429 3725 
Q 1025 3213 1025 2328 
Q 1025 1447 1429 934 
Q 1834 422 2522 422 
Q 3209 422 3611 934 
Q 4013 1447 4013 2328 
Q 4013 3213 3611 3725 
Q 3209 4238 2522 4238 
z
M 2522 4750 
Q 3503 4750 4090 4092 
Q 4678 3434 4678 2328 
Q 4678 1225 4090 567 
Q 3503 -91 2522 -91 
Q 1538 -91 948 565 
Q 359 1222 359 2328 
Q 359 3434 948 4092 
Q 1538 4750 2522 4750 
z
" transform="scale(0.015625)"/>
      <path id="DejaVuSans-32" d="M 1228 531 
L 3431 531 
L 3431 0 
L 469 0 
L 469 531 
Q 828 903 1448 1529 
Q 2069 2156 2228 2338 
Q 2531 2678 2651 2914 
Q 2772 3150 2772 3378 
Q 2772 3750 2511 3984 
Q 2250 4219 1831 4219 
Q 1534 4219 1204 4116 
Q 875 4013 500 3803 
L 500 4441 
Q 881 4594 1212 4672 
Q 1544 4750 1819 4750 
Q 2544 4750 2975 4387 
Q 3406 4025 3406 3419 
Q 3406 3131 3298 2873 
Q 3191 2616 2906 2266 
Q 2828 2175 2409 1742 
Q 1991 1309 1228 531 
z
" transform="scale(0.015625)"/>
     </defs>
     <use xlink:href="#DejaVuSans-54"/>
     <use xlink:href="#DejaVuSans-61" x="44.583984"/>
     <use xlink:href="#DejaVuSans-72" x="105.863281"/>
     <use xlink:href="#DejaVuSans-67" x="145.226562"/>
     <use xlink:href="#DejaVuSans-65" x="208.703125"/>
     <use xlink:href="#DejaVuSans-74" x="270.226562"/>
     <use xlink:href="#DejaVuSans-3a" x="309.435547"/>
     <use xlink:href="#DejaVuSans-20" x="343.126953"/>
     <use xlink:href="#DejaVuSans-4e" x="374.914062"/>
     <use xlink:href="#DejaVuSans-4f" x="449.71875"/>
     <use xlink:href="#DejaVuSans-32" x="528.429688"/>
    </g>
    <!-- Method: direct -->
    <g transform="translate(407.691598 40.873844) scale(0.11 -0.11)">
     <defs>
      <path id="DejaVuSans-4d" d="M 628 4666 
L 1569 4666 
L 2759 1491 
L 3956 4666 
L 4897 4666 
L 4897 0 
L 4281 0 
L 4281 4097 
L 3078 897 
L 2444 897 
L 1241 4097 
L 1241 0 
L 628 0 
L 628 4666 
z
" transform="scale(0.015625)"/>
      <path id="DejaVuSans-68" d="M 3513 2113 
L 3513 0 
L 2938 0 
L 2938 2094 
Q 2938 2591 2744 2837 
Q 2550 3084 2163 3084 
Q 1697 3084 1428 2787 
Q 1159 2491 1159 1978 
L 1159 0 
L 581 0 
L 581 4863 
L 1159 4863 
L 1159 2956 
Q 1366 3272 1645 3428 
Q 1925 3584 2291 3584 
Q 2894 3584 3203 3211 
Q 3513 2838 3513 2113 
z
" transform="scale(0.015625)"/>
      <path id="DejaVuSans-6f" d="M 1959 3097 
Q 1497 3097 1228 2736 
Q 959 2375 959 1747 
Q 959 1119 1226 758 
Q 1494 397 1959 397 
Q 2419 397 2687 759 
Q 2956 1122 2956 1747 
Q 2956 2369 2687 2733 
Q 2419 3097 1959 3097 
z
M 1959 3584 
Q 2709 3584 3137 3096 
Q 3566 2609 3566 1747 
Q 3566 888 3137 398 
Q 2709 -91 1959 -91 
Q 1206 -91 779 398 
Q 353 888 353 1747 
Q 353 2609 779 3096 
Q 1206 3584 1959 3584 
z
" transform="scale(0.015625)"/>
      <path id="DejaVuSans-64" d="M 2906 2969 
L 2906 4863 
L 3481 4863 
L 3481 0 
L 2906 0 
L 2906 525 
Q 2725 213 2448 61 
Q 2172 -91 1784 -91 
Q 1150 -91 751 415 
Q 353 922 353 1747 
Q 353 2572 751 3078 
Q 1150 3584 1784 3584 
Q 2172 3584 2448 3432 
Q 2725 3281 2906 2969 
z
M 947 1747 
Q 947 1113 1208 752 
Q 1469 391 1925 391 
Q 2381 391 2643 752 
Q 2906 1113 2906 1747 
Q 2906 2381 2643 2742 
Q 2381 3103 1925 3103 
Q 1469 3103 1208 2742 
Q 947 2381 947 1747 
z
" transform="scale(0.015625)"/>
      <path id="DejaVuSans-69" d="M 603 3500 
L 1178 3500 
L 1178 0 
L 603 0 
L 603 3500 
z
M 603 4863 
L 1178 4863 
L 1178 4134 
L 603 4134 
L 603 4863 
z
" transform="scale(0.015625)"/>
      <path id="DejaVuSans-63" d="M 3122 3366 
L 3122 2828 
Q 2878 2963 2633 3030 
Q 2388 3097 2138 3097 
Q 1578 3097 1268 2742 
Q 959 2388 959 1747 
Q 959 1106 1268 751 
Q 1578 397 2138 397 
Q 2388 397 2633 464 
Q 2878 531 3122 666 
L 3122 134 
Q 2881 22 2623 -34 
Q 2366 -91 2075 -91 
Q 1284 -91 818 406 
Q 353 903 353 1747 
Q 353 2603 823 3093 
Q 1294 3584 2113 3584 
Q 2378 3584 2631 3529 
Q 2884 3475 3122 3366 
z
" transform="scale(0.015625)"/>
     </defs>
     <use xlink:href="#DejaVuSans-4d"/>
     <use xlink:href="#DejaVuSans-65" x="86.279297"/>
     <use xlink:href="#DejaVuSans-74" x="147.802734"/>
     <use xlink:href="#DejaVuSans-68" x="187.011719"/>
     <use xlink:href="#DejaVuSans-6f" x="250.390625"/>
     <use xlink:href="#DejaVuSans-64" x="311.572266"/>
     <use xlink:href="#DejaVuSans-3a" x="375.048828"/>
     <use xlink:href="#DejaVuSans-20" x="408.740234"/>
     <use xlink:href="#DejaVuSans-64" x="440.527344"/>
     <use xlink:href="#DejaVuSans-69" x="504.003906"/>
     <use xlink:href="#DejaVuSans-72" x="531.787109"/>
     <use xlink:href="#DejaVuSans-65" x="570.650391"/>
     <use xlink:href="#DejaVuSans-63" x="632.173828"/>
     <use xlink:href="#DejaVuSans-74" x="687.154297"/>
    </g>
    <!-- Best: RF -->
    <g transform="translate(407.691598 53.191437) scale(0.11 -0.11)">
     <defs>
      <path id="DejaVuSans-42" d="M 1259 2228 
L 1259 519 
L 2272 519 
Q 2781 519 3026 730 
Q 3272 941 3272 1375 
Q 3272 1813 3026 2020 
Q 2781 2228 2272 2228 
L 1259 2228 
z
M 1259 4147 
L 1259 2741 
L 2194 2741 
Q 2656 2741 2882 2914 
Q 3109 3088 3109 3444 
Q 3109 3797 2882 3972 
Q 2656 4147 2194 4147 
L 1259 4147 
z
M 628 4666 
L 2241 4666 
Q 2963 4666 3353 4366 
Q 3744 4066 3744 3513 
Q 3744 3084 3544 2831 
Q 3344 2578 2956 2516 
Q 3422 2416 3680 2098 
Q 3938 1781 3938 1306 
Q 3938 681 3513 340 
Q 3088 0 2303 0 
L 628 0 
L 628 4666 
z
" transform="scale(0.015625)"/>
      <path id="DejaVuSans-73" d="M 2834 3397 
L 2834 2853 
Q 2591 2978 2328 3040 
Q 2066 3103 1784 3103 
Q 1356 3103 1142 2972 
Q 928 2841 928 2578 
Q 928 2378 1081 2264 
Q 1234 2150 1697 2047 
L 1894 2003 
Q 2506 1872 2764 1633 
Q 3022 1394 3022 966 
Q 3022 478 2636 193 
Q 2250 -91 1575 -91 
Q 1294 -91 989 -36 
Q 684 19 347 128 
L 347 722 
Q 666 556 975 473 
Q 1284 391 1588 391 
Q 1994 391 2212 530 
Q 2431 669 2431 922 
Q 2431 1156 2273 1281 
Q 2116 1406 1581 1522 
L 1381 1569 
Q 847 1681 609 1914 
Q 372 2147 372 2553 
Q 372 3047 722 3315 
Q 1072 3584 1716 3584 
Q 2034 3584 2315 3537 
Q 2597 3491 2834 3397 
z
" transform="scale(0.015625)"/>
      <path id="DejaVuSans-52" d="M 2841 2188 
Q 3044 2119 3236 1894 
Q 3428 1669 3622 1275 
L 4263 0 
L 3584 0 
L 2988 1197 
Q 2756 1666 2539 1819 
Q 2322 1972 1947 1972 
L 1259 1972 
L 1259 0 
L 628 0 
L 628 4666 
L 2053 4666 
Q 2853 4666 3247 4331 
Q 3641 3997 3641 3322 
Q 3641 2881 3436 2590 
Q 3231 2300 2841 2188 
z
M 1259 4147 
L 1259 2491 
L 2053 2491 
Q 2509 2491 2742 2702 
Q 2975 2913 2975 3322 
Q 2975 3731 2742 3939 
Q 2509 4147 2053 4147 
L 1259 4147 
z
" transform="scale(0.015625)"/>
      <path id="DejaVuSans-46" d="M 628 4666 
L 3309 4666 
L 3309 4134 
L 1259 4134 
L 1259 2759 
L 3109 2759 
L 3109 2228 
L 1259 2228 
L 1259 0 
L 628 0 
L 628 4666 
z
" transform="scale(0.015625)"/>
     </defs>
     <use xlink:href="#DejaVuSans-42"/>
     <use xlink:href="#DejaVuSans-65" x="68.603516"/>
     <use xlink:href="#DejaVuSans-73" x="130.126953"/>
     <use xlink:href="#DejaVuSans-74" x="182.226562"/>
     <use xlink:href="#DejaVuSans-3a" x="221.435547"/>
     <use xlink:href="#DejaVuSans-20" x="255.126953"/>
     <use xlink:href="#DejaVuSans-52" x="286.914062"/>
     <use xlink:href="#DejaVuSans-46" x="356.396484"/>
    </g>
    <!-- N(train): 2266 -->
    <g transform="translate(407.691598 65.509031) scale(0.11 -0.11)">
     <defs>
      <path id="DejaVuSans-28" d="M 1984 4856 
Q 1566 4138 1362 3434 
Q 1159 2731 1159 2009 
Q 1159 1288 1364 580 
Q 1569 -128 1984 -844 
L 1484 -844 
Q 1016 -109 783 600 
Q 550 1309 550 2009 
Q 550 2706 781 3412 
Q 1013 4119 1484 4856 
L 1984 4856 
z
" transform="scale(0.015625)"/>
      <path id="DejaVuSans-6e" d="M 3513 2113 
L 3513 0 
L 2938 0 
L 2938 2094 
Q 2938 2591 2744 2837 
Q 2550 3084 2163 3084 
Q 1697 3084 1428 2787 
Q 1159 2491 1159 1978 
L 1159 0 
L 581 0 
L 581 3500 
L 1159 3500 
L 1159 2956 
Q 1366 3272 1645 3428 
Q 1925 3584 2291 3584 
Q 2894 3584 3203 3211 
Q 3513 2838 3513 2113 
z
" transform="scale(0.015625)"/>
      <path id="DejaVuSans-29" d="M 513 4856 
L 1013 4856 
Q 1481 4119 1714 3412 
Q 1947 2706 1947 2009 
Q 1947 1309 1714 600 
Q 1481 -109 1013 -844 
L 513 -844 
Q 928 -128 1133 580 
Q 1338 1288 1338 2009 
Q 1338 2731 1133 3434 
Q 928 4138 513 4856 
z
" transform="scale(0.015625)"/>
      <path id="DejaVuSans-36" d="M 2113 2584 
Q 1688 2584 1439 2293 
Q 1191 2003 1191 1497 
Q 1191 994 1439 701 
Q 1688 409 2113 409 
Q 2538 409 2786 701 
Q 3034 994 3034 1497 
Q 3034 2003 2786 2293 
Q 2538 2584 2113 2584 
z
M 3366 4563 
L 3366 3988 
Q 3128 4100 2886 4159 
Q 2644 4219 2406 4219 
Q 1781 4219 1451 3797 
Q 1122 3375 1075 2522 
Q 1259 2794 1537 2939 
Q 1816 3084 2150 3084 
Q 2853 3084 3261 2657 
Q 3669 2231 3669 1497 
Q 3669 778 3244 343 
Q 2819 -91 2113 -91 
Q 1303 -91 875 529 
Q 447 1150 447 2328 
Q 447 3434 972 4092 
Q 1497 4750 2381 4750 
Q 2619 4750 2861 4703 
Q 3103 4656 3366 4563 
z
" transform="scale(0.015625)"/>
     </defs>
     <use xlink:href="#DejaVuSans-4e"/>
     <use xlink:href="#DejaVuSans-28" x="74.804688"/>
     <use xlink:href="#DejaVuSans-74" x="113.818359"/>
     <use xlink:href="#DejaVuSans-72" x="153.027344"/>
     <use xlink:href="#DejaVuSans-61" x="194.140625"/>
     <use xlink:href="#DejaVuSans-69" x="255.419922"/>
     <use xlink:href="#DejaVuSans-6e" x="283.203125"/>
     <use xlink:href="#DejaVuSans-29" x="346.582031"/>
     <use xlink:href="#DejaVuSans-3a" x="385.595703"/>
     <use xlink:href="#DejaVuSans-20" x="419.287109"/>
     <use xlink:href="#DejaVuSans-32" x="451.074219"/>
     <use xlink:href="#DejaVuSans-32" x="514.697266"/>
     <use xlink:href="#DejaVuSans-36" x="578.320312"/>
     <use xlink:href="#DejaVuSans-36" x="641.943359"/>
    </g>
    <!-- N(test):  567 -->
    <g transform="translate(407.691598 77.826625) scale(0.11 -0.11)">
     <defs>
      <path id="DejaVuSans-35" d="M 691 4666 
L 3169 4666 
L 3169 4134 
L 1269 4134 
L 1269 2991 
Q 1406 3038 1543 3061 
Q 1681 3084 1819 3084 
Q 2600 3084 3056 2656 
Q 3513 2228 3513 1497 
Q 3513 744 3044 326 
Q 2575 -91 1722 -91 
Q 1428 -91 1123 -41 
Q 819 9 494 109 
L 494 744 
Q 775 591 1075 516 
Q 1375 441 1709 441 
Q 2250 441 2565 725 
Q 2881 1009 2881 1497 
Q 2881 1984 2565 2268 
Q 2250 2553 1709 2553 
Q 1456 2553 1204 2497 
Q 953 2441 691 2322 
L 691 4666 
z
" transform="scale(0.015625)"/>
      <path id="DejaVuSans-37" d="M 525 4666 
L 3525 4666 
L 3525 4397 
L 1831 0 
L 1172 0 
L 2766 4134 
L 525 4134 
L 525 4666 
z
" transform="scale(0.015625)"/>
     </defs>
     <use xlink:href="#DejaVuSans-4e"/>
     <use xlink:href="#DejaVuSans-28" x="74.804688"/>
     <use xlink:href="#DejaVuSans-74" x="113.818359"/>
     <use xlink:href="#DejaVuSans-65" x="153.027344"/>
     <use xlink:href="#DejaVuSans-73" x="214.550781"/>
     <use xlink:href="#DejaVuSans-74" x="266.650391"/>
     <use xlink:href="#DejaVuSans-29" x="305.859375"/>
     <use xlink:href="#DejaVuSans-3a" x="344.873047"/>
     <use xlink:href="#DejaVuSans-20" x="378.564453"/>
     <use xlink:href="#DejaVuSans-20" x="410.351562"/>
     <use xlink:href="#DejaVuSans-35" x="442.138672"/>
     <use xlink:href="#DejaVuSans-36" x="505.761719"/>
     <use xlink:href="#DejaVuSans-37" x="569.384766"/>
    </g>
    <!-- Fallback used: False -->
    <g transform="translate(407.691598 90.144219) scale(0.11 -0.11)">
     <defs>
      <path id="DejaVuSans-6c" d="M 603 4863 
L 1178 4863 
L 1178 0 
L 603 0 
L 603 4863 
z
" transform="scale(0.015625)"/>
      <path id="DejaVuSans-62" d="M 3116 1747 
Q 3116 2381 2855 2742 
Q 2594 3103 2138 3103 
Q 1681 3103 1420 2742 
Q 1159 2381 1159 1747 
Q 1159 1113 1420 752 
Q 1681 391 2138 391 
Q 2594 391 2855 752 
Q 3116 1113 3116 1747 
z
M 1159 2969 
Q 1341 3281 1617 3432 
Q 1894 3584 2278 3584 
Q 2916 3584 3314 3078 
Q 3713 2572 3713 1747 
Q 3713 922 3314 415 
Q 2916 -91 2278 -91 
Q 1894 -91 1617 61 
Q 1341 213 1159 525 
L 1159 0 
L 581 0 
L 581 4863 
L 1159 4863 
L 1159 2969 
z
" transform="scale(0.015625)"/>
      <path id="DejaVuSans-6b" d="M 581 4863 
L 1159 4863 
L 1159 1991 
L 2875 3500 
L 3609 3500 
L 1753 1863 
L 3688 0 
L 2938 0 
L 1159 1709 
L 1159 0 
L 581 0 
L 581 4863 
z
" transform="scale(0.015625)"/>
      <path id="DejaVuSans-75" d="M 544 1381 
L 544 3500 
L 1119 3500 
L 1119 1403 
Q 1119 906 1312 657 
Q 1506 409 1894 409 
Q 2359 409 2629 706 
Q 2900 1003 2900 1516 
L 2900 3500 
L 3475 3500 
L 3475 0 
L 2900 0 
L 2900 538 
Q 2691 219 2414 64 
Q 2138 -91 1772 -91 
Q 1169 -91 856 284 
Q 544 659 544 1381 
z
M 1991 3584 
L 1991 3584 
z
" transform="scale(0.015625)"/>
     </defs>
     <use xlink:href="#DejaVuSans-46"/>
     <use xlink:href="#DejaVuSans-61" x="48.394531"/>
     <use xlink:href="#DejaVuSans-6c" x="109.673828"/>
     <use xlink:href="#DejaVuSans-6c" x="137.457031"/>
     <use xlink:href="#DejaVuSans-62" x="165.240234"/>
     <use xlink:href="#DejaVuSans-61" x="228.716797"/>
     <use xlink:href="#DejaVuSans-63" x="289.996094"/>
     <use xlink:href="#DejaVuSans-6b" x="344.976562"/>
     <use xlink:href="#DejaVuSans-20" x="402.886719"/>
     <use xlink:href="#DejaVuSans-75" x="434.673828"/>
     <use xlink:href="#DejaVuSans-73" x="498.052734"/>
     <use xlink:href="#DejaVuSans-65" x="550.152344"/>
     <use xlink:href="#DejaVuSans-64" x="611.675781"/>
     <use xlink:href="#DejaVuSans-3a" x="675.152344"/>
     <use xlink:href="#DejaVuSans-20" x="708.84375"/>
     <use xlink:href="#DejaVuSans-46" x="740.630859"/>
     <use xlink:href="#DejaVuSans-61" x="789.025391"/>
     <use xlink:href="#DejaVuSans-6c" x="850.304688"/>
     <use xlink:href="#DejaVuSans-73" x="878.087891"/>
     <use xlink:href="#DejaVuSans-65" x="930.1875"/>
    </g>
    <!--  -->
    <g transform="translate(407.691598 102.461812) scale(0.11 -0.11)"/>
    <!-- Before (micro raw): -->
    <g transform="translate(407.691598 114.779406) scale(0.11 -0.11)">
     <defs>
      <path id="DejaVuSans-66" d="M 2375 4863 
L 2375 4384 
L 1825 4384 
Q 1516 4384 1395 4259 
Q 1275 4134 1275 3809 
L 1275 3500 
L 2222 3500 
L 2222 3053 
L 1275 3053 
L 1275 0 
L 697 0 
L 697 3053 
L 147 3053 
L 147 3500 
L 697 3500 
L 697 3744 
Q 697 4328 969 4595 
Q 1241 4863 1831 4863 
L 2375 4863 
z
" transform="scale(0.015625)"/>
      <path id="DejaVuSans-6d" d="M 3328 2828 
Q 3544 3216 3844 3400 
Q 4144 3584 4550 3584 
Q 5097 3584 5394 3201 
Q 5691 2819 5691 2113 
L 5691 0 
L 5113 0 
L 5113 2094 
Q 5113 2597 4934 2840 
Q 4756 3084 4391 3084 
Q 3944 3084 3684 2787 
Q 3425 2491 3425 1978 
L 3425 0 
L 2847 0 
L 2847 2094 
Q 2847 2600 2669 2842 
Q 2491 3084 2119 3084 
Q 1678 3084 1418 2786 
Q 1159 2488 1159 1978 
L 1159 0 
L 581 0 
L 581 3500 
L 1159 3500 
L 1159 2956 
Q 1356 3278 1631 3431 
Q 1906 3584 2284 3584 
Q 2666 3584 2933 3390 
Q 3200 3197 3328 2828 
z
" transform="scale(0.015625)"/>
      <path id="DejaVuSans-77" d="M 269 3500 
L 844 3500 
L 1563 769 
L 2278 3500 
L 2956 3500 
L 3675 769 
L 4391 3500 
L 4966 3500 
L 4050 0 
L 3372 0 
L 2619 2869 
L 1863 0 
L 1184 0 
L 269 3500 
z
" transform="scale(0.015625)"/>
     </defs>
     <use xlink:href="#DejaVuSans-42"/>
     <use xlink:href="#DejaVuSans-65" x="68.603516"/>
     <use xlink:href="#DejaVuSans-66" x="130.126953"/>
     <use xlink:href="#DejaVuSans-6f" x="165.332031"/>
     <use xlink:href="#DejaVuSans-72" x="226.513672"/>
     <use xlink:href="#DejaVuSans-65" x="265.376953"/>
     <use xlink:href="#DejaVuSans-20" x="326.900391"/>
     <use xlink:href="#DejaVuSans-28" x="358.6875"/>
     <use xlink:href="#DejaVuSans-6d" x="397.701172"/>
     <use xlink:href="#DejaVuSans-69" x="495.113281"/>
     <use xlink:href="#DejaVuSans-63" x="522.896484"/>
     <use xlink:href="#DejaVuSans-72" x="577.876953"/>
     <use xlink:href="#DejaVuSans-6f" x="616.740234"/>
     <use xlink:href="#DejaVuSans-20" x="677.921875"/>
     <use xlink:href="#DejaVuSans-72" x="709.708984"/>
     <use xlink:href="#DejaVuSans-61" x="750.822266"/>
     <use xlink:href="#DejaVuSans-77" x="812.101562"/>
     <use xlink:href="#DejaVuSans-29" x="893.888672"/>
     <use xlink:href="#DejaVuSans-3a" x="932.902344"/>
    </g>
    <!--   RMSE=28.58, MAE=22.42 -->
    <g transform="translate(407.691598 127.097) scale(0.11 -0.11)">
     <defs>
      <path id="DejaVuSans-53" d="M 3425 4513 
L 3425 3897 
Q 3066 4069 2747 4153 
Q 2428 4238 2131 4238 
Q 1616 4238 1336 4038 
Q 1056 3838 1056 3469 
Q 1056 3159 1242 3001 
Q 1428 2844 1947 2747 
L 2328 2669 
Q 3034 2534 3370 2195 
Q 3706 1856 3706 1288 
Q 3706 609 3251 259 
Q 2797 -91 1919 -91 
Q 1588 -91 1214 -16 
Q 841 59 441 206 
L 441 856 
Q 825 641 1194 531 
Q 1563 422 1919 422 
Q 2459 422 2753 634 
Q 3047 847 3047 1241 
Q 3047 1584 2836 1778 
Q 2625 1972 2144 2069 
L 1759 2144 
Q 1053 2284 737 2584 
Q 422 2884 422 3419 
Q 422 4038 858 4394 
Q 1294 4750 2059 4750 
Q 2388 4750 2728 4690 
Q 3069 4631 3425 4513 
z
" transform="scale(0.015625)"/>
      <path id="DejaVuSans-45" d="M 628 4666 
L 3578 4666 
L 3578 4134 
L 1259 4134 
L 1259 2753 
L 3481 2753 
L 3481 2222 
L 1259 2222 
L 1259 531 
L 3634 531 
L 3634 0 
L 628 0 
L 628 4666 
z
" transform="scale(0.015625)"/>
      <path id="DejaVuSans-3d" d="M 678 2906 
L 4684 2906 
L 4684 2381 
L 678 2381 
L 678 2906 
z
M 678 1631 
L 4684 1631 
L 4684 1100 
L 678 1100 
L 678 1631 
z
" transform="scale(0.015625)"/>
      <path id="DejaVuSans-38" d="M 2034 2216 
Q 1584 2216 1326 1975 
Q 1069 1734 1069 1313 
Q 1069 891 1326 650 
Q 1584 409 2034 409 
Q 2484 409 2743 651 
Q 3003 894 3003 1313 
Q 3003 1734 2745 1975 
Q 2488 2216 2034 2216 
z
M 1403 2484 
Q 997 2584 770 2862 
Q 544 3141 544 3541 
Q 544 4100 942 4425 
Q 1341 4750 2034 4750 
Q 2731 4750 3128 4425 
Q 3525 4100 3525 3541 
Q 3525 3141 3298 2862 
Q 3072 2584 2669 2484 
Q 3125 2378 3379 2068 
Q 3634 1759 3634 1313 
Q 3634 634 3220 271 
Q 2806 -91 2034 -91 
Q 1263 -91 848 271 
Q 434 634 434 1313 
Q 434 1759 690 2068 
Q 947 2378 1403 2484 
z
M 1172 3481 
Q 1172 3119 1398 2916 
Q 1625 2713 2034 2713 
Q 2441 2713 2670 2916 
Q 2900 3119 2900 3481 
Q 2900 3844 2670 4047 
Q 2441 4250 2034 4250 
Q 1625 4250 1398 4047 
Q 1172 3844 1172 3481 
z
" transform="scale(0.015625)"/>
      <path id="DejaVuSans-2e" d="M 684 794 
L 1344 794 
L 1344 0 
L 684 0 
L 684 794 
z
" transform="scale(0.015625)"/>
      <path id="DejaVuSans-2c" d="M 750 794 
L 1409 794 
L 1409 256 
L 897 -744 
L 494 -744 
L 750 256 
L 750 794 
z
" transform="scale(0.015625)"/>
      <path id="DejaVuSans-41" d="M 2188 4044 
L 1331 1722 
L 3047 1722 
L 2188 4044 
z
M 1831 4666 
L 2547 4666 
L 4325 0 
L 3669 0 
L 3244 1197 
L 1141 1197 
L 716 0 
L 50 0 
L 1831 4666 
z
" transform="scale(0.015625)"/>
      <path id="DejaVuSans-34" d="M 2419 4116 
L 825 1625 
L 2419 1625 
L 2419 4116 
z
M 2253 4666 
L 3047 4666 
L 3047 1625 
L 3713 1625 
L 3713 1100 
L 3047 1100 
L 3047 0 
L 2419 0 
L 2419 1100 
L 313 1100 
L 313 1709 
L 2253 4666 
z
" transform="scale(0.015625)"/>
     </defs>
     <use xlink:href="#DejaVuSans-20"/>
     <use xlink:href="#DejaVuSans-20" x="31.787109"/>
     <use xlink:href="#DejaVuSans-52" x="63.574219"/>
     <use xlink:href="#DejaVuSans-4d" x="133.056641"/>
     <use xlink:href="#DejaVuSans-53" x="219.335938"/>
     <use xlink:href="#DejaVuSans-45" x="282.8125"/>
     <use xlink:href="#DejaVuSans-3d" x="345.996094"/>
     <use xlink:href="#DejaVuSans-32" x="429.785156"/>
     <use xlink:href="#DejaVuSans-38" x="493.408203"/>
     <use xlink:href="#DejaVuSans-2e" x="557.03125"/>
     <use xlink:href="#DejaVuSans-35" x="588.818359"/>
     <use xlink:href="#DejaVuSans-38" x="652.441406"/>
     <use xlink:href="#DejaVuSans-2c" x="716.064453"/>
     <use xlink:href="#DejaVuSans-20" x="747.851562"/>
     <use xlink:href="#DejaVuSans-4d" x="779.638672"/>
     <use xlink:href="#DejaVuSans-41" x="865.917969"/>
     <use xlink:href="#DejaVuSans-45" x="934.326172"/>
     <use xlink:href="#DejaVuSans-3d" x="997.509766"/>
     <use xlink:href="#DejaVuSans-32" x="1081.298828"/>
     <use xlink:href="#DejaVuSans-32" x="1144.921875"/>
     <use xlink:href="#DejaVuSans-2e" x="1208.544922"/>
     <use xlink:href="#DejaVuSans-34" x="1240.332031"/>
     <use xlink:href="#DejaVuSans-32" x="1303.955078"/>
    </g>
    <!--   R2=-0.192, CCC=0.610 -->
    <g transform="translate(407.691598 139.414594) scale(0.11 -0.11)">
     <defs>
      <path id="DejaVuSans-2d" d="M 313 2009 
L 1997 2009 
L 1997 1497 
L 313 1497 
L 313 2009 
z
" transform="scale(0.015625)"/>
      <path id="DejaVuSans-30" d="M 2034 4250 
Q 1547 4250 1301 3770 
Q 1056 3291 1056 2328 
Q 1056 1369 1301 889 
Q 1547 409 2034 409 
Q 2525 409 2770 889 
Q 3016 1369 3016 2328 
Q 3016 3291 2770 3770 
Q 2525 4250 2034 4250 
z
M 2034 4750 
Q 2819 4750 3233 4129 
Q 3647 3509 3647 2328 
Q 3647 1150 3233 529 
Q 2819 -91 2034 -91 
Q 1250 -91 836 529 
Q 422 1150 422 2328 
Q 422 3509 836 4129 
Q 1250 4750 2034 4750 
z
" transform="scale(0.015625)"/>
      <path id="DejaVuSans-31" d="M 794 531 
L 1825 531 
L 1825 4091 
L 703 3866 
L 703 4441 
L 1819 4666 
L 2450 4666 
L 2450 531 
L 3481 531 
L 3481 0 
L 794 0 
L 794 531 
z
" transform="scale(0.015625)"/>
      <path id="DejaVuSans-39" d="M 703 97 
L 703 672 
Q 941 559 1184 500 
Q 1428 441 1663 441 
Q 2288 441 2617 861 
Q 2947 1281 2994 2138 
Q 2813 1869 2534 1725 
Q 2256 1581 1919 1581 
Q 1219 1581 811 2004 
Q 403 2428 403 3163 
Q 403 3881 828 4315 
Q 1253 4750 1959 4750 
Q 2769 4750 3195 4129 
Q 3622 3509 3622 2328 
Q 3622 1225 3098 567 
Q 2575 -91 1691 -91 
Q 1453 -91 1209 -44 
Q 966 3 703 97 
z
M 1959 2075 
Q 2384 2075 2632 2365 
Q 2881 2656 2881 3163 
Q 2881 3666 2632 3958 
Q 2384 4250 1959 4250 
Q 1534 4250 1286 3958 
Q 1038 3666 1038 3163 
Q 1038 2656 1286 2365 
Q 1534 2075 1959 2075 
z
" transform="scale(0.015625)"/>
      <path id="DejaVuSans-43" d="M 4122 4306 
L 4122 3641 
Q 3803 3938 3442 4084 
Q 3081 4231 2675 4231 
Q 1875 4231 1450 3742 
Q 1025 3253 1025 2328 
Q 1025 1406 1450 917 
Q 1875 428 2675 428 
Q 3081 428 3442 575 
Q 3803 722 4122 1019 
L 4122 359 
Q 3791 134 3420 21 
Q 3050 -91 2638 -91 
Q 1578 -91 968 557 
Q 359 1206 359 2328 
Q 359 3453 968 4101 
Q 1578 4750 2638 4750 
Q 3056 4750 3426 4639 
Q 3797 4528 4122 4306 
z
" transform="scale(0.015625)"/>
     </defs>
     <use xlink:href="#DejaVuSans-20"/>
     <use xlink:href="#DejaVuSans-20" x="31.787109"/>
     <use xlink:href="#DejaVuSans-52" x="63.574219"/>
     <use xlink:href="#DejaVuSans-32" x="133.056641"/>
     <use xlink:href="#DejaVuSans-3d" x="196.679688"/>
     <use xlink:href="#DejaVuSans-2d" x="280.46875"/>
     <use xlink:href="#DejaVuSans-30" x="316.552734"/>
     <use xlink:href="#DejaVuSans-2e" x="380.175781"/>
     <use xlink:href="#DejaVuSans-31" x="411.962891"/>
     <use xlink:href="#DejaVuSans-39" x="475.585938"/>
     <use xlink:href="#DejaVuSans-32" x="539.208984"/>
     <use xlink:href="#DejaVuSans-2c" x="602.832031"/>
     <use xlink:href="#DejaVuSans-20" x="634.619141"/>
     <use xlink:href="#DejaVuSans-43" x="666.40625"/>
     <use xlink:href="#DejaVuSans-43" x="736.230469"/>
     <use xlink:href="#DejaVuSans-43" x="806.054688"/>
     <use xlink:href="#DejaVuSans-3d" x="875.878906"/>
     <use xlink:href="#DejaVuSans-30" x="959.667969"/>
     <use xlink:href="#DejaVuSans-2e" x="1023.291016"/>
     <use xlink:href="#DejaVuSans-36" x="1055.078125"/>
     <use xlink:href="#DejaVuSans-31" x="1118.701172"/>
     <use xlink:href="#DejaVuSans-30" x="1182.324219"/>
    </g>
    <!--  -->
    <g transform="translate(407.691598 151.732187) scale(0.11 -0.11)"/>
    <!-- After (delivered): -->
    <g transform="translate(407.691598 164.049781) scale(0.11 -0.11)">
     <defs>
      <path id="DejaVuSans-76" d="M 191 3500 
L 800 3500 
L 1894 563 
L 2988 3500 
L 3597 3500 
L 2284 0 
L 1503 0 
L 191 3500 
z
" transform="scale(0.015625)"/>
     </defs>
     <use xlink:href="#DejaVuSans-41"/>
     <use xlink:href="#DejaVuSans-66" x="64.783203"/>
     <use xlink:href="#DejaVuSans-74" x="98.238281"/>
     <use xlink:href="#DejaVuSans-65" x="137.447266"/>
     <use xlink:href="#DejaVuSans-72" x="198.970703"/>
     <use xlink:href="#DejaVuSans-20" x="240.083984"/>
     <use xlink:href="#DejaVuSans-28" x="271.871094"/>
     <use xlink:href="#DejaVuSans-64" x="310.884766"/>
     <use xlink:href="#DejaVuSans-65" x="374.361328"/>
     <use xlink:href="#DejaVuSans-6c" x="435.884766"/>
     <use xlink:href="#DejaVuSans-69" x="463.667969"/>
     <use xlink:href="#DejaVuSans-76" x="491.451172"/>
     <use xlink:href="#DejaVuSans-65" x="550.630859"/>
     <use xlink:href="#DejaVuSans-72" x="612.154297"/>
     <use xlink:href="#DejaVuSans-65" x="651.017578"/>
     <use xlink:href="#DejaVuSans-64" x="712.541016"/>
     <use xlink:href="#DejaVuSans-29" x="776.017578"/>
     <use xlink:href="#DejaVuSans-3a" x="815.03125"/>
    </g>
    <!--   RMSE=22.33, MAE=15.40 -->
    <g transform="translate(407.691598 176.367375) scale(0.11 -0.11)">
     <defs>
      <path id="DejaVuSans-33" d="M 2597 2516 
Q 3050 2419 3304 2112 
Q 3559 1806 3559 1356 
Q 3559 666 3084 287 
Q 2609 -91 1734 -91 
Q 1441 -91 1130 -33 
Q 819 25 488 141 
L 488 750 
Q 750 597 1062 519 
Q 1375 441 1716 441 
Q 2309 441 2620 675 
Q 2931 909 2931 1356 
Q 2931 1769 2642 2001 
Q 2353 2234 1838 2234 
L 1294 2234 
L 1294 2753 
L 1863 2753 
Q 2328 2753 2575 2939 
Q 2822 3125 2822 3475 
Q 2822 3834 2567 4026 
Q 2313 4219 1838 4219 
Q 1578 4219 1281 4162 
Q 984 4106 628 3988 
L 628 4550 
Q 988 4650 1302 4700 
Q 1616 4750 1894 4750 
Q 2613 4750 3031 4423 
Q 3450 4097 3450 3541 
Q 3450 3153 3228 2886 
Q 3006 2619 2597 2516 
z
" transform="scale(0.015625)"/>
     </defs>
     <use xlink:href="#DejaVuSans-20"/>
     <use xlink:href="#DejaVuSans-20" x="31.787109"/>
     <use xlink:href="#DejaVuSans-52" x="63.574219"/>
     <use xlink:href="#DejaVuSans-4d" x="133.056641"/>
     <use xlink:href="#DejaVuSans-53" x="219.335938"/>
     <use xlink:href="#DejaVuSans-45" x="282.8125"/>
     <use xlink:href="#DejaVuSans-3d" x="345.996094"/>
     <use xlink:href="#DejaVuSans-32" x="429.785156"/>
     <use xlink:href="#DejaVuSans-32" x="493.408203"/>
     <use xlink:href="#DejaVuSans-2e" x="557.03125"/>
     <use xlink:href="#DejaVuSans-33" x="588.818359"/>
     <use xlink:href="#DejaVuSans-33" x="652.441406"/>
     <use xlink:href="#DejaVuSans-2c" x="716.064453"/>
     <use xlink:href="#DejaVuSans-20" x="747.851562"/>
     <use xlink:href="#DejaVuSans-4d" x="779.638672"/>
     <use xlink:href="#DejaVuSans-41" x="865.917969"/>
     <use xlink:href="#DejaVuSans-45" x="934.326172"/>
     <use xlink:href="#DejaVuSans-3d" x="997.509766"/>
     <use xlink:href="#DejaVuSans-31" x="1081.298828"/>
     <use xlink:href="#DejaVuSans-35" x="1144.921875"/>
     <use xlink:href="#DejaVuSans-2e" x="1208.544922"/>
     <use xlink:href="#DejaVuSans-34" x="1240.332031"/>
     <use xlink:href="#DejaVuSans-30" x="1303.955078"/>
    </g>
    <!--   R2=0.272, CCC=0.388 -->
    <g transform="translate(407.691598 188.684969) scale(0.11 -0.11)">
     <use xlink:href="#DejaVuSans-20"/>
     <use xlink:href="#DejaVuSans-20" x="31.787109"/>
     <use xlink:href="#DejaVuSans-52" x="63.574219"/>
     <use xlink:href="#DejaVuSans-32" x="133.056641"/>
     <use xlink:href="#DejaVuSans-3d" x="196.679688"/>
     <use xlink:href="#DejaVuSans-30" x="280.46875"/>
     <use xlink:href="#DejaVuSans-2e" x="344.091797"/>
     <use xlink:href="#DejaVuSans-32" x="375.878906"/>
     <use xlink:href="#DejaVuSans-37" x="439.501953"/>
     <use xlink:href="#DejaVuSans-32" x="503.125"/>
     <use xlink:href="#DejaVuSans-2c" x="566.748047"/>
     <use xlink:href="#DejaVuSans-20" x="598.535156"/>
     <use xlink:href="#DejaVuSans-43" x="630.322266"/>
     <use xlink:href="#DejaVuSans-43" x="700.146484"/>
     <use xlink:href="#DejaVuSans-43" x="769.970703"/>
     <use xlink:href="#DejaVuSans-3d" x="839.794922"/>
     <use xlink:href="#DejaVuSans-30" x="923.583984"/>
     <use xlink:href="#DejaVuSans-2e" x="987.207031"/>
     <use xlink:href="#DejaVuSans-33" x="1018.994141"/>
     <use xlink:href="#DejaVuSans-38" x="1082.617188"/>
     <use xlink:href="#DejaVuSans-38" x="1146.240234"/>
    </g>
    <!-- tol=±5 min -->
    <g transform="translate(407.691598 201.002562) scale(0.11 -0.11)">
     <defs>
      <path id="DejaVuSans-b1" d="M 2944 4013 
L 2944 2803 
L 4684 2803 
L 4684 2272 
L 2944 2272 
L 2944 1063 
L 2419 1063 
L 2419 2272 
L 678 2272 
L 678 2803 
L 2419 2803 
L 2419 4013 
L 2944 4013 
z
M 678 531 
L 4684 531 
L 4684 0 
L 678 0 
L 678 531 
z
" transform="scale(0.015625)"/>
     </defs>
     <use xlink:href="#DejaVuSans-74"/>
     <use xlink:href="#DejaVuSans-6f" x="39.208984"/>
     <use xlink:href="#DejaVuSans-6c" x="100.390625"/>
     <use xlink:href="#DejaVuSans-3d" x="128.173828"/>
     <use xlink:href="#DejaVuSans-b1" x="211.962891"/>
     <use xlink:href="#DejaVuSans-35" x="295.751953"/>
     <use xlink:href="#DejaVuSans-20" x="359.375"/>
     <use xlink:href="#DejaVuSans-6d" x="391.162109"/>
     <use xlink:href="#DejaVuSans-69" x="488.574219"/>
     <use xlink:href="#DejaVuSans-6e" x="516.357422"/>
    </g>
   </g>
   <g id="text_2">
    <!-- [NO2] Partial dependence (key factors) -->
    <g transform="translate(93.025484 14.197969) scale(0.13 -0.13)">
     <defs>
      <path id="DejaVuSans-5b" d="M 550 4863 
L 1875 4863 
L 1875 4416 
L 1125 4416 
L 1125 -397 
L 1875 -397 
L 1875 -844 
L 550 -844 
L 550 4863 
z
" transform="scale(0.015625)"/>
      <path id="DejaVuSans-5d" d="M 1947 4863 
L 1947 -844 
L 622 -844 
L 622 -397 
L 1369 -397 
L 1369 4416 
L 622 4416 
L 622 4863 
L 1947 4863 
z
" transform="scale(0.015625)"/>
      <path id="DejaVuSans-50" d="M 1259 4147 
L 1259 2394 
L 2053 2394 
Q 2494 2394 2734 2622 
Q 2975 2850 2975 3272 
Q 2975 3691 2734 3919 
Q 2494 4147 2053 4147 
L 1259 4147 
z
M 628 4666 
L 2053 4666 
Q 2838 4666 3239 4311 
Q 3641 3956 3641 3272 
Q 3641 2581 3239 2228 
Q 2838 1875 2053 1875 
L 1259 1875 
L 1259 0 
L 628 0 
L 628 4666 
z
" transform="scale(0.015625)"/>
      <path id="DejaVuSans-70" d="M 1159 525 
L 1159 -1331 
L 581 -1331 
L 581 3500 
L 1159 3500 
L 1159 2969 
Q 1341 3281 1617 3432 
Q 1894 3584 2278 3584 
Q 2916 3584 3314 3078 
Q 3713 2572 3713 1747 
Q 3713 922 3314 415 
Q 2916 -91 2278 -91 
Q 1894 -91 1617 61 
Q 1341 213 1159 525 
z
M 3116 1747 
Q 3116 2381 2855 2742 
Q 2594 3103 2138 3103 
Q 1681 3103 1420 2742 
Q 1159 2381 1159 1747 
Q 1159 1113 1420 752 
Q 1681 391 2138 391 
Q 2594 391 2855 752 
Q 3116 1113 3116 1747 
z
" transform="scale(0.015625)"/>
      <path id="DejaVuSans-79" d="M 2059 -325 
Q 1816 -950 1584 -1140 
Q 1353 -1331 966 -1331 
L 506 -1331 
L 506 -850 
L 844 -850 
Q 1081 -850 1212 -737 
Q 1344 -625 1503 -206 
L 1606 56 
L 191 3500 
L 800 3500 
L 1894 763 
L 2988 3500 
L 3597 3500 
L 2059 -325 
z
" transform="scale(0.015625)"/>
     </defs>
     <use xlink:href="#DejaVuSans-5b"/>
     <use xlink:href="#DejaVuSans-4e" x="39.013672"/>
     <use xlink:href="#DejaVuSans-4f" x="113.818359"/>
     <use xlink:href="#DejaVuSans-32" x="192.529297"/>
     <use xlink:href="#DejaVuSans-5d" x="256.152344"/>
     <use xlink:href="#DejaVuSans-20" x="295.166016"/>
     <use xlink:href="#DejaVuSans-50" x="326.953125"/>
     <use xlink:href="#DejaVuSans-61" x="382.755859"/>
     <use xlink:href="#DejaVuSans-72" x="444.035156"/>
     <use xlink:href="#DejaVuSans-74" x="485.148438"/>
     <use xlink:href="#DejaVuSans-69" x="524.357422"/>
     <use xlink:href="#DejaVuSans-61" x="552.140625"/>
     <use xlink:href="#DejaVuSans-6c" x="613.419922"/>
     <use xlink:href="#DejaVuSans-20" x="641.203125"/>
     <use xlink:href="#DejaVuSans-64" x="672.990234"/>
     <use xlink:href="#DejaVuSans-65" x="736.466797"/>
     <use xlink:href="#DejaVuSans-70" x="797.990234"/>
     <use xlink:href="#DejaVuSans-65" x="861.466797"/>
     <use xlink:href="#DejaVuSans-6e" x="922.990234"/>
     <use xlink:href="#DejaVuSans-64" x="986.369141"/>
     <use xlink:href="#DejaVuSans-65" x="1049.845703"/>
     <use xlink:href="#DejaVuSans-6e" x="1111.369141"/>
     <use xlink:href="#DejaVuSans-63" x="1174.748047"/>
     <use xlink:href="#DejaVuSans-65" x="1229.728516"/>
     <use xlink:href="#DejaVuSans-20" x="1291.251953"/>
     <use xlink:href="#DejaVuSans-28" x="1323.039062"/>
     <use xlink:href="#DejaVuSans-6b" x="1362.052734"/>
     <use xlink:href="#DejaVuSans-65" x="1416.337891"/>
     <use xlink:href="#DejaVuSans-79" x="1477.861328"/>
     <use xlink:href="#DejaVuSans-20" x="1537.041016"/>
     <use xlink:href="#DejaVuSans-66" x="1568.828125"/>
     <use xlink:href="#DejaVuSans-61" x="1604.033203"/>
     <use xlink:href="#DejaVuSans-63" x="1665.3125"/>
     <use xlink:href="#DejaVuSans-74" x="1720.292969"/>
     <use xlink:href="#DejaVuSans-6f" x="1759.501953"/>
     <use xlink:href="#DejaVuSans-72" x="1820.683594"/>
     <use xlink:href="#DejaVuSans-73" x="1861.796875"/>
     <use xlink:href="#DejaVuSans-29" x="1913.896484"/>
    </g>
   </g>
  </g>
  <g id="axes_2">
   <g id="patch_3">
    <path d="M 39.463438 253.045969 
L 145.642261 253.045969 
L 145.642261 20.197969 
L 39.463438 20.197969 
z
" style="fill: #ffffff"/>
   </g>
   <g id="matplotlib.axis_1">
    <g id="xtick_1">
     <g id="line2d_1">
      <path d="M 66.743071 253.045969 
L 66.743071 20.197969 
" clip-path="url(#p13fc816bca)" style="fill: none; stroke-dasharray: 2.59,1.12; stroke-dashoffset: 0; stroke: #b0b0b0; stroke-opacity: 0.18; stroke-width: 0.7"/>
     </g>
     <g id="line2d_2">
      <defs>
       <path id="m3b4c538e92" d="M 0 0 
L 0 3 
" style="stroke: #000000; stroke-width: 0.8"/>
      </defs>
      <g>
       <use xlink:href="#m3b4c538e92" x="66.743071" y="253.045969" style="stroke: #000000; stroke-width: 0.8"/>
      </g>
     </g>
     <g id="text_3">
      <!-- 50 -->
      <g transform="translate(59.744321 267.90425) scale(0.11 -0.11)">
       <use xlink:href="#DejaVuSans-35"/>
       <use xlink:href="#DejaVuSans-30" x="63.623047"/>
      </g>
     </g>
    </g>
    <g id="xtick_2">
     <g id="line2d_3">
      <path d="M 114.842344 253.045969 
L 114.842344 20.197969 
" clip-path="url(#p13fc816bca)" style="fill: none; stroke-dasharray: 2.59,1.12; stroke-dashoffset: 0; stroke: #b0b0b0; stroke-opacity: 0.18; stroke-width: 0.7"/>
     </g>
     <g id="line2d_4">
      <g>
       <use xlink:href="#m3b4c538e92" x="114.842344" y="253.045969" style="stroke: #000000; stroke-width: 0.8"/>
      </g>
     </g>
     <g id="text_4">
      <!-- 100 -->
      <g transform="translate(104.344219 267.90425) scale(0.11 -0.11)">
       <use xlink:href="#DejaVuSans-31"/>
       <use xlink:href="#DejaVuSans-30" x="63.623047"/>
       <use xlink:href="#DejaVuSans-30" x="127.246094"/>
      </g>
     </g>
    </g>
    <g id="text_5">
     <!-- mc_NO2_mean -->
     <g transform="translate(51.130115 282.355969) scale(0.11 -0.11)">
      <defs>
       <path id="DejaVuSans-5f" d="M 3263 -1063 
L 3263 -1509 
L -63 -1509 
L -63 -1063 
L 3263 -1063 
z
" transform="scale(0.015625)"/>
      </defs>
      <use xlink:href="#DejaVuSans-6d"/>
      <use xlink:href="#DejaVuSans-63" x="97.412109"/>
      <use xlink:href="#DejaVuSans-5f" x="152.392578"/>
      <use xlink:href="#DejaVuSans-4e" x="202.392578"/>
      <use xlink:href="#DejaVuSans-4f" x="277.197266"/>
      <use xlink:href="#DejaVuSans-32" x="355.908203"/>
      <use xlink:href="#DejaVuSans-5f" x="419.53125"/>
      <use xlink:href="#DejaVuSans-6d" x="469.53125"/>
      <use xlink:href="#DejaVuSans-65" x="566.943359"/>
      <use xlink:href="#DejaVuSans-61" x="628.466797"/>
      <use xlink:href="#DejaVuSans-6e" x="689.746094"/>
     </g>
    </g>
   </g>
   <g id="matplotlib.axis_2">
    <g id="ytick_1">
     <g id="line2d_5">
      <path d="M 39.463438 249.935302 
L 145.642261 249.935302 
" clip-path="url(#p13fc816bca)" style="fill: none; stroke-dasharray: 2.59,1.12; stroke-dashoffset: 0; stroke: #b0b0b0; stroke-opacity: 0.18; stroke-width: 0.7"/>
     </g>
     <g id="line2d_6">
      <defs>
       <path id="mb9ac6d86cb" d="M 0 0 
L -3 0 
" style="stroke: #000000; stroke-width: 0.8"/>
      </defs>
      <g>
       <use xlink:href="#mb9ac6d86cb" x="39.463438" y="249.935302" style="stroke: #000000; stroke-width: 0.8"/>
      </g>
     </g>
     <g id="text_6">
      <!-- 34 -->
      <g transform="translate(18.965938 254.114442) scale(0.11 -0.11)">
       <use xlink:href="#DejaVuSans-33"/>
       <use xlink:href="#DejaVuSans-34" x="63.623047"/>
      </g>
     </g>
    </g>
    <g id="ytick_2">
     <g id="line2d_7">
      <path d="M 39.463438 221.585728 
L 145.642261 221.585728 
" clip-path="url(#p13fc816bca)" style="fill: none; stroke-dasharray: 2.59,1.12; stroke-dashoffset: 0; stroke: #b0b0b0; stroke-opacity: 0.18; stroke-width: 0.7"/>
     </g>
     <g id="line2d_8">
      <g>
       <use xlink:href="#mb9ac6d86cb" x="39.463438" y="221.585728" style="stroke: #000000; stroke-width: 0.8"/>
      </g>
     </g>
     <g id="text_7">
      <!-- 35 -->
      <g transform="translate(18.965938 225.764868) scale(0.11 -0.11)">
       <use xlink:href="#DejaVuSans-33"/>
       <use xlink:href="#DejaVuSans-35" x="63.623047"/>
      </g>
     </g>
    </g>
    <g id="ytick_3">
     <g id="line2d_9">
      <path d="M 39.463438 193.236154 
L 145.642261 193.236154 
" clip-path="url(#p13fc816bca)" style="fill: none; stroke-dasharray: 2.59,1.12; stroke-dashoffset: 0; stroke: #b0b0b0; stroke-opacity: 0.18; stroke-width: 0.7"/>
     </g>
     <g id="line2d_10">
      <g>
       <use xlink:href="#mb9ac6d86cb" x="39.463438" y="193.236154" style="stroke: #000000; stroke-width: 0.8"/>
      </g>
     </g>
     <g id="text_8">
      <!-- 36 -->
      <g transform="translate(18.965938 197.415294) scale(0.11 -0.11)">
       <use xlink:href="#DejaVuSans-33"/>
       <use xlink:href="#DejaVuSans-36" x="63.623047"/>
      </g>
     </g>
    </g>
    <g id="ytick_4">
     <g id="line2d_11">
      <path d="M 39.463438 164.88658 
L 145.642261 164.88658 
" clip-path="url(#p13fc816bca)" style="fill: none; stroke-dasharray: 2.59,1.12; stroke-dashoffset: 0; stroke: #b0b0b0; stroke-opacity: 0.18; stroke-width: 0.7"/>
     </g>
     <g id="line2d_12">
      <g>
       <use xlink:href="#mb9ac6d86cb" x="39.463438" y="164.88658" style="stroke: #000000; stroke-width: 0.8"/>
      </g>
     </g>
     <g id="text_9">
      <!-- 37 -->
      <g transform="translate(18.965938 169.06572) scale(0.11 -0.11)">
       <use xlink:href="#DejaVuSans-33"/>
       <use xlink:href="#DejaVuSans-37" x="63.623047"/>
      </g>
     </g>
    </g>
    <g id="ytick_5">
     <g id="line2d_13">
      <path d="M 39.463438 136.537006 
L 145.642261 136.537006 
" clip-path="url(#p13fc816bca)" style="fill: none; stroke-dasharray: 2.59,1.12; stroke-dashoffset: 0; stroke: #b0b0b0; stroke-opacity: 0.18; stroke-width: 0.7"/>
     </g>
     <g id="line2d_14">
      <g>
       <use xlink:href="#mb9ac6d86cb" x="39.463438" y="136.537006" style="stroke: #000000; stroke-width: 0.8"/>
      </g>
     </g>
     <g id="text_10">
      <!-- 38 -->
      <g transform="translate(18.965938 140.716146) scale(0.11 -0.11)">
       <use xlink:href="#DejaVuSans-33"/>
       <use xlink:href="#DejaVuSans-38" x="63.623047"/>
      </g>
     </g>
    </g>
    <g id="ytick_6">
     <g id="line2d_15">
      <path d="M 39.463438 108.187432 
L 145.642261 108.187432 
" clip-path="url(#p13fc816bca)" style="fill: none; stroke-dasharray: 2.59,1.12; stroke-dashoffset: 0; stroke: #b0b0b0; stroke-opacity: 0.18; stroke-width: 0.7"/>
     </g>
     <g id="line2d_16">
      <g>
       <use xlink:href="#mb9ac6d86cb" x="39.463438" y="108.187432" style="stroke: #000000; stroke-width: 0.8"/>
      </g>
     </g>
     <g id="text_11">
      <!-- 39 -->
      <g transform="translate(18.965938 112.366572) scale(0.11 -0.11)">
       <use xlink:href="#DejaVuSans-33"/>
       <use xlink:href="#DejaVuSans-39" x="63.623047"/>
      </g>
     </g>
    </g>
    <g id="ytick_7">
     <g id="line2d_17">
      <path d="M 39.463438 79.837858 
L 145.642261 79.837858 
" clip-path="url(#p13fc816bca)" style="fill: none; stroke-dasharray: 2.59,1.12; stroke-dashoffset: 0; stroke: #b0b0b0; stroke-opacity: 0.18; stroke-width: 0.7"/>
     </g>
     <g id="line2d_18">
      <g>
       <use xlink:href="#mb9ac6d86cb" x="39.463438" y="79.837858" style="stroke: #000000; stroke-width: 0.8"/>
      </g>
     </g>
     <g id="text_12">
      <!-- 40 -->
      <g transform="translate(18.965938 84.016998) scale(0.11 -0.11)">
       <use xlink:href="#DejaVuSans-34"/>
       <use xlink:href="#DejaVuSans-30" x="63.623047"/>
      </g>
     </g>
    </g>
    <g id="ytick_8">
     <g id="line2d_19">
      <path d="M 39.463438 51.488284 
L 145.642261 51.488284 
" clip-path="url(#p13fc816bca)" style="fill: none; stroke-dasharray: 2.59,1.12; stroke-dashoffset: 0; stroke: #b0b0b0; stroke-opacity: 0.18; stroke-width: 0.7"/>
     </g>
     <g id="line2d_20">
      <g>
       <use xlink:href="#mb9ac6d86cb" x="39.463438" y="51.488284" style="stroke: #000000; stroke-width: 0.8"/>
      </g>
     </g>
     <g id="text_13">
      <!-- 41 -->
      <g transform="translate(18.965938 55.667424) scale(0.11 -0.11)">
       <use xlink:href="#DejaVuSans-34"/>
       <use xlink:href="#DejaVuSans-31" x="63.623047"/>
      </g>
     </g>
    </g>
    <g id="ytick_9">
     <g id="line2d_21">
      <path d="M 39.463438 23.13871 
L 145.642261 23.13871 
" clip-path="url(#p13fc816bca)" style="fill: none; stroke-dasharray: 2.59,1.12; stroke-dashoffset: 0; stroke: #b0b0b0; stroke-opacity: 0.18; stroke-width: 0.7"/>
     </g>
     <g id="line2d_22">
      <g>
       <use xlink:href="#mb9ac6d86cb" x="39.463438" y="23.13871" style="stroke: #000000; stroke-width: 0.8"/>
      </g>
     </g>
     <g id="text_14">
      <!-- 42 -->
      <g transform="translate(18.965938 27.317851) scale(0.11 -0.11)">
       <use xlink:href="#DejaVuSans-34"/>
       <use xlink:href="#DejaVuSans-32" x="63.623047"/>
      </g>
     </g>
    </g>
    <g id="text_15">
     <!-- Partial dependence -->
     <g transform="translate(12.678281 189.660016) rotate(-90) scale(0.11 -0.11)">
      <use xlink:href="#DejaVuSans-50"/>
      <use xlink:href="#DejaVuSans-61" x="55.802734"/>
      <use xlink:href="#DejaVuSans-72" x="117.082031"/>
      <use xlink:href="#DejaVuSans-74" x="158.195312"/>
      <use xlink:href="#DejaVuSans-69" x="197.404297"/>
      <use xlink:href="#DejaVuSans-61" x="225.1875"/>
      <use xlink:href="#DejaVuSans-6c" x="286.466797"/>
      <use xlink:href="#DejaVuSans-20" x="314.25"/>
      <use xlink:href="#DejaVuSans-64" x="346.037109"/>
      <use xlink:href="#DejaVuSans-65" x="409.513672"/>
      <use xlink:href="#DejaVuSans-70" x="471.037109"/>
      <use xlink:href="#DejaVuSans-65" x="534.513672"/>
      <use xlink:href="#DejaVuSans-6e" x="596.037109"/>
      <use xlink:href="#DejaVuSans-64" x="659.416016"/>
      <use xlink:href="#DejaVuSans-65" x="722.892578"/>
      <use xlink:href="#DejaVuSans-6e" x="784.416016"/>
      <use xlink:href="#DejaVuSans-63" x="847.794922"/>
      <use xlink:href="#DejaVuSans-65" x="902.775391"/>
     </g>
    </g>
   </g>
   <g id="line2d_23">
    <path d="M 44.289748 242.461969 
L 45.26476 200.153102 
L 46.239772 190.204516 
L 47.214784 189.47873 
L 48.189796 188.852622 
L 49.164808 189.232636 
L 50.139821 189.248216 
L 51.114833 190.099765 
L 52.089845 190.549228 
L 53.064857 190.454785 
L 54.039869 190.589018 
L 55.014881 190.893539 
L 55.989894 190.604929 
L 56.964906 190.562424 
L 57.939918 190.280222 
L 58.91493 189.877397 
L 59.889942 189.097736 
L 60.864954 189.22477 
L 61.839966 188.696398 
L 62.814979 188.135669 
L 63.789991 187.792435 
L 64.765003 186.434012 
L 65.740015 185.850276 
L 66.715027 185.270488 
L 67.690039 184.895541 
L 68.665052 184.768484 
L 69.640064 184.665276 
L 70.615076 182.982221 
L 71.590088 181.101711 
L 72.5651 178.952411 
L 73.540112 174.679152 
L 74.515124 172.473205 
L 75.490137 170.959762 
L 76.465149 166.713575 
L 77.440161 164.805076 
L 78.415173 159.103922 
L 79.390185 157.706124 
L 80.365197 156.789452 
L 81.340209 155.137929 
L 82.315222 150.981434 
L 83.290234 150.486366 
L 84.265246 148.902134 
L 85.240258 146.523451 
L 86.21527 144.433636 
L 87.190282 143.987789 
L 88.165295 143.840884 
L 89.140307 141.961771 
L 90.115319 140.767509 
L 91.090331 138.704478 
L 92.065343 137.606235 
L 93.040355 136.077275 
L 94.015367 133.125415 
L 94.99038 132.383426 
L 95.965392 130.56414 
L 96.940404 129.22425 
L 97.915416 128.647488 
L 98.890428 126.761076 
L 99.86544 117.230651 
L 100.840453 106.946887 
L 101.815465 91.282869 
L 102.790477 89.647517 
L 103.765489 88.822912 
L 104.740501 86.492925 
L 105.715513 83.709422 
L 106.690525 82.200946 
L 107.665538 80.211719 
L 108.64055 78.541048 
L 109.615562 78.159193 
L 110.590574 76.184459 
L 111.565586 70.624696 
L 112.540598 69.683549 
L 113.515611 69.12348 
L 114.490623 55.289167 
L 115.465635 47.115288 
L 116.440647 44.403914 
L 117.415659 42.398915 
L 118.390671 41.593101 
L 119.365683 41.28114 
L 120.340696 41.202327 
L 121.315708 41.018283 
L 122.29072 40.220787 
L 123.265732 39.648298 
L 124.240744 38.487018 
L 125.215756 37.916079 
L 126.190769 37.750941 
L 127.165781 35.261909 
L 128.140793 35.261909 
L 129.115805 33.714882 
L 130.090817 32.876397 
L 131.065829 32.864363 
L 132.040841 31.957146 
L 133.015854 31.842369 
L 133.990866 32.39754 
L 134.965878 32.293514 
L 135.94089 32.296264 
L 136.915902 32.257272 
L 137.890914 32.257272 
L 138.865927 32.240897 
L 139.840939 30.92425 
L 140.815951 30.781969 
" clip-path="url(#p13fc816bca)" style="fill: none; stroke: #f6cfaf; stroke-width: 2; stroke-linecap: square"/>
   </g>
   <g id="LineCollection_1">
    <path d="M 44.617406 253.045969 
L 44.617406 241.403569 
" clip-path="url(#p13fc816bca)" style="fill: none; stroke: #000000; stroke-width: 2"/>
    <path d="M 45.964185 253.045969 
L 45.964185 241.403569 
" clip-path="url(#p13fc816bca)" style="fill: none; stroke: #000000; stroke-width: 2"/>
    <path d="M 53.712541 253.045969 
L 53.712541 241.403569 
" clip-path="url(#p13fc816bca)" style="fill: none; stroke: #000000; stroke-width: 2"/>
    <path d="M 61.793219 253.045969 
L 61.793219 241.403569 
" clip-path="url(#p13fc816bca)" style="fill: none; stroke: #000000; stroke-width: 2"/>
    <path d="M 71.168204 253.045969 
L 71.168204 241.403569 
" clip-path="url(#p13fc816bca)" style="fill: none; stroke: #000000; stroke-width: 2"/>
    <path d="M 80.408512 253.045969 
L 80.408512 241.403569 
" clip-path="url(#p13fc816bca)" style="fill: none; stroke: #000000; stroke-width: 2"/>
    <path d="M 94.448252 253.045969 
L 94.448252 241.403569 
" clip-path="url(#p13fc816bca)" style="fill: none; stroke: #000000; stroke-width: 2"/>
    <path d="M 110.845731 253.045969 
L 110.845731 241.403569 
" clip-path="url(#p13fc816bca)" style="fill: none; stroke: #000000; stroke-width: 2"/>
    <path d="M 133.427903 253.045969 
L 133.427903 241.403569 
" clip-path="url(#p13fc816bca)" style="fill: none; stroke: #000000; stroke-width: 2"/>
   </g>
   <g id="patch_4">
    <path d="M 39.463438 253.045969 
L 39.463438 20.197969 
" style="fill: none; stroke: #000000; stroke-width: 0.9; stroke-linejoin: miter; stroke-linecap: square"/>
   </g>
   <g id="patch_5">
    <path d="M 39.463438 253.045969 
L 145.642261 253.045969 
" style="fill: none; stroke: #000000; stroke-width: 0.9; stroke-linejoin: miter; stroke-linecap: square"/>
   </g>
  </g>
  <g id="axes_3">
   <g id="patch_6">
    <path d="M 166.878026 253.045969 
L 273.056849 253.045969 
L 273.056849 20.197969 
L 166.878026 20.197969 
z
" style="fill: #ffffff"/>
   </g>
   <g id="matplotlib.axis_3">
    <g id="xtick_3">
     <g id="line2d_24">
      <path d="M 174.78633 253.045969 
L 174.78633 20.197969 
" clip-path="url(#p9f0dc31fba)" style="fill: none; stroke-dasharray: 2.59,1.12; stroke-dashoffset: 0; stroke: #b0b0b0; stroke-opacity: 0.18; stroke-width: 0.7"/>
     </g>
     <g id="line2d_25">
      <g>
       <use xlink:href="#m3b4c538e92" x="174.78633" y="253.045969" style="stroke: #000000; stroke-width: 0.8"/>
      </g>
     </g>
     <g id="text_16">
      <!-- 25 -->
      <g transform="translate(167.78758 267.90425) scale(0.11 -0.11)">
       <use xlink:href="#DejaVuSans-32"/>
       <use xlink:href="#DejaVuSans-35" x="63.623047"/>
      </g>
     </g>
    </g>
    <g id="xtick_4">
     <g id="line2d_26">
      <path d="M 210.218956 253.045969 
L 210.218956 20.197969 
" clip-path="url(#p9f0dc31fba)" style="fill: none; stroke-dasharray: 2.59,1.12; stroke-dashoffset: 0; stroke: #b0b0b0; stroke-opacity: 0.18; stroke-width: 0.7"/>
     </g>
     <g id="line2d_27">
      <g>
       <use xlink:href="#m3b4c538e92" x="210.218956" y="253.045969" style="stroke: #000000; stroke-width: 0.8"/>
      </g>
     </g>
     <g id="text_17">
      <!-- 50 -->
      <g transform="translate(203.220206 267.90425) scale(0.11 -0.11)">
       <use xlink:href="#DejaVuSans-35"/>
       <use xlink:href="#DejaVuSans-30" x="63.623047"/>
      </g>
     </g>
    </g>
    <g id="xtick_5">
     <g id="line2d_28">
      <path d="M 245.651582 253.045969 
L 245.651582 20.197969 
" clip-path="url(#p9f0dc31fba)" style="fill: none; stroke-dasharray: 2.59,1.12; stroke-dashoffset: 0; stroke: #b0b0b0; stroke-opacity: 0.18; stroke-width: 0.7"/>
     </g>
     <g id="line2d_29">
      <g>
       <use xlink:href="#m3b4c538e92" x="245.651582" y="253.045969" style="stroke: #000000; stroke-width: 0.8"/>
      </g>
     </g>
     <g id="text_18">
      <!-- 75 -->
      <g transform="translate(238.652832 267.90425) scale(0.11 -0.11)">
       <use xlink:href="#DejaVuSans-37"/>
       <use xlink:href="#DejaVuSans-35" x="63.623047"/>
      </g>
     </g>
    </g>
    <g id="text_19">
     <!-- mc_Humidity_mean -->
     <g transform="translate(165.550094 282.550187) scale(0.11 -0.11)">
      <defs>
       <path id="DejaVuSans-48" d="M 628 4666 
L 1259 4666 
L 1259 2753 
L 3553 2753 
L 3553 4666 
L 4184 4666 
L 4184 0 
L 3553 0 
L 3553 2222 
L 1259 2222 
L 1259 0 
L 628 0 
L 628 4666 
z
" transform="scale(0.015625)"/>
      </defs>
      <use xlink:href="#DejaVuSans-6d"/>
      <use xlink:href="#DejaVuSans-63" x="97.412109"/>
      <use xlink:href="#DejaVuSans-5f" x="152.392578"/>
      <use xlink:href="#DejaVuSans-48" x="202.392578"/>
      <use xlink:href="#DejaVuSans-75" x="277.587891"/>
      <use xlink:href="#DejaVuSans-6d" x="340.966797"/>
      <use xlink:href="#DejaVuSans-69" x="438.378906"/>
      <use xlink:href="#DejaVuSans-64" x="466.162109"/>
      <use xlink:href="#DejaVuSans-69" x="529.638672"/>
      <use xlink:href="#DejaVuSans-74" x="557.421875"/>
      <use xlink:href="#DejaVuSans-79" x="596.630859"/>
      <use xlink:href="#DejaVuSans-5f" x="655.810547"/>
      <use xlink:href="#DejaVuSans-6d" x="705.810547"/>
      <use xlink:href="#DejaVuSans-65" x="803.222656"/>
      <use xlink:href="#DejaVuSans-61" x="864.746094"/>
      <use xlink:href="#DejaVuSans-6e" x="926.025391"/>
     </g>
    </g>
   </g>
   <g id="matplotlib.axis_4">
    <g id="ytick_10">
     <g id="line2d_30">
      <path d="M 166.878026 249.935302 
L 273.056849 249.935302 
" clip-path="url(#p9f0dc31fba)" style="fill: none; stroke-dasharray: 2.59,1.12; stroke-dashoffset: 0; stroke: #b0b0b0; stroke-opacity: 0.18; stroke-width: 0.7"/>
     </g>
     <g id="line2d_31">
      <g>
       <use xlink:href="#mb9ac6d86cb" x="166.878026" y="249.935302" style="stroke: #000000; stroke-width: 0.8"/>
      </g>
     </g>
    </g>
    <g id="ytick_11">
     <g id="line2d_32">
      <path d="M 166.878026 221.585728 
L 273.056849 221.585728 
" clip-path="url(#p9f0dc31fba)" style="fill: none; stroke-dasharray: 2.59,1.12; stroke-dashoffset: 0; stroke: #b0b0b0; stroke-opacity: 0.18; stroke-width: 0.7"/>
     </g>
     <g id="line2d_33">
      <g>
       <use xlink:href="#mb9ac6d86cb" x="166.878026" y="221.585728" style="stroke: #000000; stroke-width: 0.8"/>
      </g>
     </g>
    </g>
    <g id="ytick_12">
     <g id="line2d_34">
      <path d="M 166.878026 193.236154 
L 273.056849 193.236154 
" clip-path="url(#p9f0dc31fba)" style="fill: none; stroke-dasharray: 2.59,1.12; stroke-dashoffset: 0; stroke: #b0b0b0; stroke-opacity: 0.18; stroke-width: 0.7"/>
     </g>
     <g id="line2d_35">
      <g>
       <use xlink:href="#mb9ac6d86cb" x="166.878026" y="193.236154" style="stroke: #000000; stroke-width: 0.8"/>
      </g>
     </g>
    </g>
    <g id="ytick_13">
     <g id="line2d_36">
      <path d="M 166.878026 164.88658 
L 273.056849 164.88658 
" clip-path="url(#p9f0dc31fba)" style="fill: none; stroke-dasharray: 2.59,1.12; stroke-dashoffset: 0; stroke: #b0b0b0; stroke-opacity: 0.18; stroke-width: 0.7"/>
     </g>
     <g id="line2d_37">
      <g>
       <use xlink:href="#mb9ac6d86cb" x="166.878026" y="164.88658" style="stroke: #000000; stroke-width: 0.8"/>
      </g>
     </g>
    </g>
    <g id="ytick_14">
     <g id="line2d_38">
      <path d="M 166.878026 136.537006 
L 273.056849 136.537006 
" clip-path="url(#p9f0dc31fba)" style="fill: none; stroke-dasharray: 2.59,1.12; stroke-dashoffset: 0; stroke: #b0b0b0; stroke-opacity: 0.18; stroke-width: 0.7"/>
     </g>
     <g id="line2d_39">
      <g>
       <use xlink:href="#mb9ac6d86cb" x="166.878026" y="136.537006" style="stroke: #000000; stroke-width: 0.8"/>
      </g>
     </g>
    </g>
    <g id="ytick_15">
     <g id="line2d_40">
      <path d="M 166.878026 108.187432 
L 273.056849 108.187432 
" clip-path="url(#p9f0dc31fba)" style="fill: none; stroke-dasharray: 2.59,1.12; stroke-dashoffset: 0; stroke: #b0b0b0; stroke-opacity: 0.18; stroke-width: 0.7"/>
     </g>
     <g id="line2d_41">
      <g>
       <use xlink:href="#mb9ac6d86cb" x="166.878026" y="108.187432" style="stroke: #000000; stroke-width: 0.8"/>
      </g>
     </g>
    </g>
    <g id="ytick_16">
     <g id="line2d_42">
      <path d="M 166.878026 79.837858 
L 273.056849 79.837858 
" clip-path="url(#p9f0dc31fba)" style="fill: none; stroke-dasharray: 2.59,1.12; stroke-dashoffset: 0; stroke: #b0b0b0; stroke-opacity: 0.18; stroke-width: 0.7"/>
     </g>
     <g id="line2d_43">
      <g>
       <use xlink:href="#mb9ac6d86cb" x="166.878026" y="79.837858" style="stroke: #000000; stroke-width: 0.8"/>
      </g>
     </g>
    </g>
    <g id="ytick_17">
     <g id="line2d_44">
      <path d="M 166.878026 51.488284 
L 273.056849 51.488284 
" clip-path="url(#p9f0dc31fba)" style="fill: none; stroke-dasharray: 2.59,1.12; stroke-dashoffset: 0; stroke: #b0b0b0; stroke-opacity: 0.18; stroke-width: 0.7"/>
     </g>
     <g id="line2d_45">
      <g>
       <use xlink:href="#mb9ac6d86cb" x="166.878026" y="51.488284" style="stroke: #000000; stroke-width: 0.8"/>
      </g>
     </g>
    </g>
    <g id="ytick_18">
     <g id="line2d_46">
      <path d="M 166.878026 23.13871 
L 273.056849 23.13871 
" clip-path="url(#p9f0dc31fba)" style="fill: none; stroke-dasharray: 2.59,1.12; stroke-dashoffset: 0; stroke: #b0b0b0; stroke-opacity: 0.18; stroke-width: 0.7"/>
     </g>
     <g id="line2d_47">
      <g>
       <use xlink:href="#mb9ac6d86cb" x="166.878026" y="23.13871" style="stroke: #000000; stroke-width: 0.8"/>
      </g>
     </g>
    </g>
   </g>
   <g id="line2d_48">
    <path d="M 171.704336 121.117806 
L 172.679348 121.117806 
L 173.65436 121.117806 
L 174.629372 121.117806 
L 175.604385 121.117806 
L 176.579397 121.117806 
L 177.554409 121.117806 
L 178.529421 121.215513 
L 179.504433 121.39673 
L 180.479445 121.350228 
L 181.454457 121.350228 
L 182.42947 121.400403 
L 183.404482 121.673316 
L 184.379494 121.576225 
L 185.354506 121.511605 
L 186.329518 121.549824 
L 187.30453 121.546371 
L 188.279543 121.939831 
L 189.254555 122.182144 
L 190.229567 122.569101 
L 191.204579 122.661814 
L 192.179591 122.79077 
L 193.154603 122.681274 
L 194.129615 122.643585 
L 195.104628 122.597967 
L 196.07964 122.620441 
L 197.054652 122.3819 
L 198.029664 122.95302 
L 199.004676 122.96075 
L 199.979688 123.060147 
L 200.954701 123.134872 
L 201.929713 123.980444 
L 202.904725 123.982813 
L 203.879737 124.182924 
L 204.854749 124.364852 
L 205.829761 125.449507 
L 206.804773 125.409766 
L 207.779786 126.337406 
L 208.754798 126.766336 
L 209.72981 127.564702 
L 210.704822 127.940804 
L 211.679834 128.873459 
L 212.654846 131.169817 
L 213.629859 132.364206 
L 214.604871 132.886579 
L 215.579883 136.013447 
L 216.554895 137.506107 
L 217.529907 139.826342 
L 218.504919 140.18738 
L 219.479931 139.789332 
L 220.454944 139.706063 
L 221.429956 140.233596 
L 222.404968 140.453968 
L 223.37998 140.700368 
L 224.354992 140.15279 
L 225.330004 142.291773 
L 226.305016 143.587885 
L 227.280029 145.184901 
L 228.255041 145.566572 
L 229.230053 146.604511 
L 230.205065 148.191854 
L 231.180077 149.02072 
L 232.155089 149.016695 
L 233.130102 150.608259 
L 234.105114 151.593107 
L 235.080126 151.947799 
L 236.055138 151.530642 
L 237.03015 150.938817 
L 238.005162 150.583651 
L 238.980174 150.046761 
L 239.955187 149.565821 
L 240.930199 149.336197 
L 241.905211 149.648396 
L 242.880223 149.75569 
L 243.855235 150.405894 
L 244.830247 150.474762 
L 245.80526 150.347585 
L 246.780272 151.78272 
L 247.755284 152.037209 
L 248.730296 152.988611 
L 249.705308 155.954274 
L 250.68032 156.892953 
L 251.655332 157.442713 
L 252.630345 157.791297 
L 253.605357 158.527976 
L 254.580369 159.105366 
L 255.555381 161.02579 
L 256.530393 163.004513 
L 257.505405 164.558018 
L 258.480418 165.379524 
L 259.45543 166.086674 
L 260.430442 167.151287 
L 261.405454 167.684191 
L 262.380466 168.107292 
L 263.355478 169.007378 
L 264.33049 169.141647 
L 265.305503 169.246606 
L 266.280515 169.505781 
L 267.255527 170.005448 
L 268.230539 169.941976 
" clip-path="url(#p9f0dc31fba)" style="fill: none; stroke: #f6cfaf; stroke-width: 2; stroke-linecap: square"/>
   </g>
   <g id="LineCollection_2">
    <path d="M 180.206105 253.045969 
L 180.206105 241.403569 
" clip-path="url(#p9f0dc31fba)" style="fill: none; stroke: #000000; stroke-width: 2"/>
    <path d="M 194.515216 253.045969 
L 194.515216 241.403569 
" clip-path="url(#p9f0dc31fba)" style="fill: none; stroke: #000000; stroke-width: 2"/>
    <path d="M 205.652399 253.045969 
L 205.652399 241.403569 
" clip-path="url(#p9f0dc31fba)" style="fill: none; stroke: #000000; stroke-width: 2"/>
    <path d="M 215.219208 253.045969 
L 215.219208 241.403569 
" clip-path="url(#p9f0dc31fba)" style="fill: none; stroke: #000000; stroke-width: 2"/>
    <path d="M 223.447136 253.045969 
L 223.447136 241.403569 
" clip-path="url(#p9f0dc31fba)" style="fill: none; stroke: #000000; stroke-width: 2"/>
    <path d="M 230.890994 253.045969 
L 230.890994 241.403569 
" clip-path="url(#p9f0dc31fba)" style="fill: none; stroke: #000000; stroke-width: 2"/>
    <path d="M 239.982361 253.045969 
L 239.982361 241.403569 
" clip-path="url(#p9f0dc31fba)" style="fill: none; stroke: #000000; stroke-width: 2"/>
    <path d="M 249.413882 253.045969 
L 249.413882 241.403569 
" clip-path="url(#p9f0dc31fba)" style="fill: none; stroke: #000000; stroke-width: 2"/>
    <path d="M 261.449808 253.045969 
L 261.449808 241.403569 
" clip-path="url(#p9f0dc31fba)" style="fill: none; stroke: #000000; stroke-width: 2"/>
   </g>
   <g id="patch_7">
    <path d="M 166.878026 253.045969 
L 166.878026 20.197969 
" style="fill: none; stroke: #000000; stroke-width: 0.9; stroke-linejoin: miter; stroke-linecap: square"/>
   </g>
   <g id="patch_8">
    <path d="M 166.878026 253.045969 
L 273.056849 253.045969 
" style="fill: none; stroke: #000000; stroke-width: 0.9; stroke-linejoin: miter; stroke-linecap: square"/>
   </g>
  </g>
  <g id="axes_4">
   <g id="patch_9">
    <path d="M 294.292614 253.045969 
L 400.471437 253.045969 
L 400.471437 20.197969 
L 294.292614 20.197969 
z
" style="fill: #ffffff"/>
   </g>
   <g id="matplotlib.axis_5">
    <g id="xtick_6">
     <g id="line2d_49">
      <path d="M 319.803111 253.045969 
L 319.803111 20.197969 
" clip-path="url(#pf8ca9e58c4)" style="fill: none; stroke-dasharray: 2.59,1.12; stroke-dashoffset: 0; stroke: #b0b0b0; stroke-opacity: 0.18; stroke-width: 0.7"/>
     </g>
     <g id="line2d_50">
      <g>
       <use xlink:href="#m3b4c538e92" x="319.803111" y="253.045969" style="stroke: #000000; stroke-width: 0.8"/>
      </g>
     </g>
     <g id="text_20">
      <!-- 10 -->
      <g transform="translate(312.804361 267.90425) scale(0.11 -0.11)">
       <use xlink:href="#DejaVuSans-31"/>
       <use xlink:href="#DejaVuSans-30" x="63.623047"/>
      </g>
     </g>
    </g>
    <g id="xtick_7">
     <g id="line2d_51">
      <path d="M 388.750399 253.045969 
L 388.750399 20.197969 
" clip-path="url(#pf8ca9e58c4)" style="fill: none; stroke-dasharray: 2.59,1.12; stroke-dashoffset: 0; stroke: #b0b0b0; stroke-opacity: 0.18; stroke-width: 0.7"/>
     </g>
     <g id="line2d_52">
      <g>
       <use xlink:href="#m3b4c538e92" x="388.750399" y="253.045969" style="stroke: #000000; stroke-width: 0.8"/>
      </g>
     </g>
     <g id="text_21">
      <!-- 20 -->
      <g transform="translate(381.751649 267.90425) scale(0.11 -0.11)">
       <use xlink:href="#DejaVuSans-32"/>
       <use xlink:href="#DejaVuSans-30" x="63.623047"/>
      </g>
     </g>
    </g>
    <g id="text_22">
     <!-- mc_Temperature_mean -->
     <g transform="translate(283.066401 282.24425) scale(0.11 -0.11)">
      <use xlink:href="#DejaVuSans-6d"/>
      <use xlink:href="#DejaVuSans-63" x="97.412109"/>
      <use xlink:href="#DejaVuSans-5f" x="152.392578"/>
      <use xlink:href="#DejaVuSans-54" x="202.392578"/>
      <use xlink:href="#DejaVuSans-65" x="246.476562"/>
      <use xlink:href="#DejaVuSans-6d" x="308"/>
      <use xlink:href="#DejaVuSans-70" x="405.412109"/>
      <use xlink:href="#DejaVuSans-65" x="468.888672"/>
      <use xlink:href="#DejaVuSans-72" x="530.412109"/>
      <use xlink:href="#DejaVuSans-61" x="571.525391"/>
      <use xlink:href="#DejaVuSans-74" x="632.804688"/>
      <use xlink:href="#DejaVuSans-75" x="672.013672"/>
      <use xlink:href="#DejaVuSans-72" x="735.392578"/>
      <use xlink:href="#DejaVuSans-65" x="774.255859"/>
      <use xlink:href="#DejaVuSans-5f" x="835.779297"/>
      <use xlink:href="#DejaVuSans-6d" x="885.779297"/>
      <use xlink:href="#DejaVuSans-65" x="983.191406"/>
      <use xlink:href="#DejaVuSans-61" x="1044.714844"/>
      <use xlink:href="#DejaVuSans-6e" x="1105.994141"/>
     </g>
    </g>
   </g>
   <g id="matplotlib.axis_6">
    <g id="ytick_19">
     <g id="line2d_53">
      <path d="M 294.292614 249.935302 
L 400.471437 249.935302 
" clip-path="url(#pf8ca9e58c4)" style="fill: none; stroke-dasharray: 2.59,1.12; stroke-dashoffset: 0; stroke: #b0b0b0; stroke-opacity: 0.18; stroke-width: 0.7"/>
     </g>
     <g id="line2d_54">
      <g>
       <use xlink:href="#mb9ac6d86cb" x="294.292614" y="249.935302" style="stroke: #000000; stroke-width: 0.8"/>
      </g>
     </g>
    </g>
    <g id="ytick_20">
     <g id="line2d_55">
      <path d="M 294.292614 221.585728 
L 400.471437 221.585728 
" clip-path="url(#pf8ca9e58c4)" style="fill: none; stroke-dasharray: 2.59,1.12; stroke-dashoffset: 0; stroke: #b0b0b0; stroke-opacity: 0.18; stroke-width: 0.7"/>
     </g>
     <g id="line2d_56">
      <g>
       <use xlink:href="#mb9ac6d86cb" x="294.292614" y="221.585728" style="stroke: #000000; stroke-width: 0.8"/>
      </g>
     </g>
    </g>
    <g id="ytick_21">
     <g id="line2d_57">
      <path d="M 294.292614 193.236154 
L 400.471437 193.236154 
" clip-path="url(#pf8ca9e58c4)" style="fill: none; stroke-dasharray: 2.59,1.12; stroke-dashoffset: 0; stroke: #b0b0b0; stroke-opacity: 0.18; stroke-width: 0.7"/>
     </g>
     <g id="line2d_58">
      <g>
       <use xlink:href="#mb9ac6d86cb" x="294.292614" y="193.236154" style="stroke: #000000; stroke-width: 0.8"/>
      </g>
     </g>
    </g>
    <g id="ytick_22">
     <g id="line2d_59">
      <path d="M 294.292614 164.88658 
L 400.471437 164.88658 
" clip-path="url(#pf8ca9e58c4)" style="fill: none; stroke-dasharray: 2.59,1.12; stroke-dashoffset: 0; stroke: #b0b0b0; stroke-opacity: 0.18; stroke-width: 0.7"/>
     </g>
     <g id="line2d_60">
      <g>
       <use xlink:href="#mb9ac6d86cb" x="294.292614" y="164.88658" style="stroke: #000000; stroke-width: 0.8"/>
      </g>
     </g>
    </g>
    <g id="ytick_23">
     <g id="line2d_61">
      <path d="M 294.292614 136.537006 
L 400.471437 136.537006 
" clip-path="url(#pf8ca9e58c4)" style="fill: none; stroke-dasharray: 2.59,1.12; stroke-dashoffset: 0; stroke: #b0b0b0; stroke-opacity: 0.18; stroke-width: 0.7"/>
     </g>
     <g id="line2d_62">
      <g>
       <use xlink:href="#mb9ac6d86cb" x="294.292614" y="136.537006" style="stroke: #000000; stroke-width: 0.8"/>
      </g>
     </g>
    </g>
    <g id="ytick_24">
     <g id="line2d_63">
      <path d="M 294.292614 108.187432 
L 400.471437 108.187432 
" clip-path="url(#pf8ca9e58c4)" style="fill: none; stroke-dasharray: 2.59,1.12; stroke-dashoffset: 0; stroke: #b0b0b0; stroke-opacity: 0.18; stroke-width: 0.7"/>
     </g>
     <g id="line2d_64">
      <g>
       <use xlink:href="#mb9ac6d86cb" x="294.292614" y="108.187432" style="stroke: #000000; stroke-width: 0.8"/>
      </g>
     </g>
    </g>
    <g id="ytick_25">
     <g id="line2d_65">
      <path d="M 294.292614 79.837858 
L 400.471437 79.837858 
" clip-path="url(#pf8ca9e58c4)" style="fill: none; stroke-dasharray: 2.59,1.12; stroke-dashoffset: 0; stroke: #b0b0b0; stroke-opacity: 0.18; stroke-width: 0.7"/>
     </g>
     <g id="line2d_66">
      <g>
       <use xlink:href="#mb9ac6d86cb" x="294.292614" y="79.837858" style="stroke: #000000; stroke-width: 0.8"/>
      </g>
     </g>
    </g>
    <g id="ytick_26">
     <g id="line2d_67">
      <path d="M 294.292614 51.488284 
L 400.471437 51.488284 
" clip-path="url(#pf8ca9e58c4)" style="fill: none; stroke-dasharray: 2.59,1.12; stroke-dashoffset: 0; stroke: #b0b0b0; stroke-opacity: 0.18; stroke-width: 0.7"/>
     </g>
     <g id="line2d_68">
      <g>
       <use xlink:href="#mb9ac6d86cb" x="294.292614" y="51.488284" style="stroke: #000000; stroke-width: 0.8"/>
      </g>
     </g>
    </g>
    <g id="ytick_27">
     <g id="line2d_69">
      <path d="M 294.292614 23.13871 
L 400.471437 23.13871 
" clip-path="url(#pf8ca9e58c4)" style="fill: none; stroke-dasharray: 2.59,1.12; stroke-dashoffset: 0; stroke: #b0b0b0; stroke-opacity: 0.18; stroke-width: 0.7"/>
     </g>
     <g id="line2d_70">
      <g>
       <use xlink:href="#mb9ac6d86cb" x="294.292614" y="23.13871" style="stroke: #000000; stroke-width: 0.8"/>
      </g>
     </g>
    </g>
   </g>
   <g id="line2d_71">
    <path d="M 299.118924 141.56233 
L 300.093936 143.434386 
L 301.068948 143.354995 
L 302.043961 142.932082 
L 303.018973 144.712923 
L 303.993985 144.891884 
L 304.968997 145.610297 
L 305.944009 147.884361 
L 306.919021 146.387819 
L 307.894034 145.919168 
L 308.869046 145.397166 
L 309.844058 142.703176 
L 310.81907 142.894505 
L 311.794082 142.451254 
L 312.769094 142.380989 
L 313.744106 142.335613 
L 314.719119 143.061362 
L 315.694131 143.092701 
L 316.669143 142.831812 
L 317.644155 142.104013 
L 318.619167 142.458159 
L 319.594179 142.392834 
L 320.569192 142.230752 
L 321.544204 143.61045 
L 322.519216 143.559007 
L 323.494228 143.791812 
L 324.46924 143.730315 
L 325.444252 143.760065 
L 326.419264 143.688291 
L 327.394277 143.772157 
L 328.369289 143.799351 
L 329.344301 143.786059 
L 330.319313 143.954876 
L 331.294325 143.956076 
L 332.269337 143.936386 
L 333.24435 142.94072 
L 334.219362 142.978756 
L 335.194374 144.78572 
L 336.169386 144.290514 
L 337.144398 144.425738 
L 338.11941 144.471821 
L 339.094422 144.461304 
L 340.069435 144.460223 
L 341.044447 144.461011 
L 342.019459 144.411026 
L 342.994471 144.350506 
L 343.969483 144.588185 
L 344.944495 144.397832 
L 345.919508 144.397124 
L 346.89452 144.387173 
L 347.869532 143.436502 
L 348.844544 143.436307 
L 349.819556 143.416142 
L 350.794568 143.421347 
L 351.76958 143.278446 
L 352.744593 143.27787 
L 353.719605 143.27787 
L 354.694617 143.27102 
L 355.669629 143.27102 
L 356.644641 143.27102 
L 357.619653 143.27102 
L 358.594666 143.271928 
L 359.569678 143.271928 
L 360.54469 143.256292 
L 361.519702 143.254497 
L 362.494714 143.254497 
L 363.469726 143.366267 
L 364.444738 143.366267 
L 365.419751 143.477864 
L 366.394763 143.477864 
L 367.369775 143.477864 
L 368.344787 143.48753 
L 369.319799 143.48753 
L 370.294811 143.457495 
L 371.269823 143.457495 
L 372.244836 143.394444 
L 373.219848 143.394444 
L 374.19486 143.337507 
L 375.169872 143.336004 
L 376.144884 143.336004 
L 377.119896 143.336004 
L 378.094909 143.318352 
L 379.069921 143.316949 
L 380.044933 143.316949 
L 381.019945 143.316949 
L 381.994957 143.316949 
L 382.969969 143.316949 
L 383.944981 143.316949 
L 384.919994 143.316949 
L 385.895006 143.316949 
L 386.870018 143.316949 
L 387.84503 143.316949 
L 388.820042 143.316949 
L 389.795054 143.316949 
L 390.770067 143.316949 
L 391.745079 143.316949 
L 392.720091 143.316949 
L 393.695103 143.316949 
L 394.670115 143.316949 
L 395.645127 143.316949 
" clip-path="url(#pf8ca9e58c4)" style="fill: none; stroke: #f6cfaf; stroke-width: 2; stroke-linecap: square"/>
   </g>
   <g id="LineCollection_3">
    <path d="M 306.013653 253.045969 
L 306.013653 241.403569 
" clip-path="url(#pf8ca9e58c4)" style="fill: none; stroke: #000000; stroke-width: 2"/>
    <path d="M 312.908382 253.045969 
L 312.908382 241.403569 
" clip-path="url(#pf8ca9e58c4)" style="fill: none; stroke: #000000; stroke-width: 2"/>
    <path d="M 319.803111 253.045969 
L 319.803111 241.403569 
" clip-path="url(#pf8ca9e58c4)" style="fill: none; stroke: #000000; stroke-width: 2"/>
    <path d="M 333.592568 253.045969 
L 333.592568 241.403569 
" clip-path="url(#pf8ca9e58c4)" style="fill: none; stroke: #000000; stroke-width: 2"/>
    <path d="M 340.487297 253.045969 
L 340.487297 241.403569 
" clip-path="url(#pf8ca9e58c4)" style="fill: none; stroke: #000000; stroke-width: 2"/>
    <path d="M 347.382026 253.045969 
L 347.382026 241.403569 
" clip-path="url(#pf8ca9e58c4)" style="fill: none; stroke: #000000; stroke-width: 2"/>
    <path d="M 360.54469 253.045969 
L 360.54469 241.403569 
" clip-path="url(#pf8ca9e58c4)" style="fill: none; stroke: #000000; stroke-width: 2"/>
    <path d="M 368.066212 253.045969 
L 368.066212 241.403569 
" clip-path="url(#pf8ca9e58c4)" style="fill: none; stroke: #000000; stroke-width: 2"/>
    <path d="M 381.85567 253.045969 
L 381.85567 241.403569 
" clip-path="url(#pf8ca9e58c4)" style="fill: none; stroke: #000000; stroke-width: 2"/>
   </g>
   <g id="patch_10">
    <path d="M 294.292614 253.045969 
L 294.292614 20.197969 
" style="fill: none; stroke: #000000; stroke-width: 0.9; stroke-linejoin: miter; stroke-linecap: square"/>
   </g>
   <g id="patch_11">
    <path d="M 294.292614 253.045969 
L 400.471437 253.045969 
" style="fill: none; stroke: #000000; stroke-width: 0.9; stroke-linejoin: miter; stroke-linecap: square"/>
   </g>
  </g>
 </g>
 <defs>
  <clipPath id="p13fc816bca">
   <rect x="39.463438" y="20.197969" width="106.178824" height="232.848"/>
  </clipPath>
  <clipPath id="p9f0dc31fba">
   <rect x="166.878026" y="20.197969" width="106.178824" height="232.848"/>
  </clipPath>
  <clipPath id="pf8ca9e58c4">
   <rect x="294.292614" y="20.197969" width="106.178824" height="232.848"/>
  </clipPath>
 </defs>
</svg>
